<svg width="131" height="27" viewBox="0 0 131 27" fill="none" xmlns="http://www.w3.org/2000/svg">
<path d="M24.4508 6.98812C23.3725 5.26283 14.9705 5.47586 8.05488 5.48858C7.7773 5.48909 7.58467 5.21331 7.67954 4.95244L9.38465 0.263382C9.44214 0.105268 9.58931 3.0998e-05 9.75755 7.26068e-05C11.1061 0.000406111 17.1134 0.00171997 21.9557 0C25.9478 -0.00141614 29.552 1.49899 29.9399 4.99012C30.7123 11.9411 23.7136 15.1088 21.8863 15.8132C21.786 15.8519 21.7087 15.7259 21.7842 15.6494C22.929 14.4885 26.5701 10.379 24.4508 6.98812Z" fill="#01A796"/>
<path d="M19.4615 15.9706C21.8884 14.9304 23.0371 13.2183 23.5093 10.2742C23.5245 10.1798 23.4073 10.1238 23.3373 10.1888C17.7727 15.3574 10.4088 11.0061 4.99012 12.9765C2.51992 13.8748 1.87174 15.7211 0.476653 17.7935C0.410686 17.8915 0.564688 18.0419 0.663111 17.9766C6.29452 14.2389 16.1044 17.4093 19.4615 15.9706Z" fill="#503895"/>
<path d="M12.5618 21.1782L16.8046 7.50684C16.8845 7.24943 16.6922 6.98828 16.4226 6.98828H11.2721C11.0969 6.98828 10.942 7.10235 10.8901 7.26972L6.64726 20.9411C6.56737 21.1985 6.75976 21.4596 7.02929 21.4596H12.1798C12.355 21.4596 12.5099 21.3456 12.5618 21.1782Z" fill="#503895"/>
<path d="M34.28 21.198C33.312 21.198 32.4687 20.9927 31.75 20.582C31.046 20.1567 30.5473 19.5333 30.254 18.712C29.9607 17.8907 29.9313 16.8713 30.166 15.654L31.486 9.076H35.666L34.434 15.258C34.2727 16.0207 34.3167 16.6073 34.566 17.018C34.83 17.4287 35.292 17.634 35.952 17.634C36.656 17.634 37.2427 17.4213 37.712 16.996C38.196 16.556 38.526 15.8813 38.702 14.972L39.89 9.076H44.07L41.694 21H37.734L38.416 17.634L38.944 18.602C38.372 19.4967 37.668 20.1567 36.832 20.582C36.0107 20.9927 35.16 21.198 34.28 21.198ZM44.8264 21L47.2024 9.076H51.1624L50.4804 12.464L50.0844 11.496C50.6124 10.5427 51.3091 9.868 52.1744 9.472C53.0398 9.076 54.0518 8.878 55.2104 8.878L54.4844 12.64C54.3084 12.6107 54.1471 12.596 54.0004 12.596C53.8538 12.5813 53.6998 12.574 53.5384 12.574C52.6291 12.574 51.8811 12.794 51.2944 13.234C50.7224 13.6593 50.3411 14.3707 50.1504 15.368L49.0064 21H44.8264ZM63.0954 21.198C62.142 21.198 61.3134 21.0147 60.6094 20.648C59.9054 20.2667 59.392 19.658 59.0694 18.822C58.7467 17.986 58.6734 16.8713 58.8494 15.478C58.996 14.114 59.3114 12.9407 59.7954 11.958C60.294 10.9753 60.9394 10.22 61.7314 9.692C62.538 9.14933 63.4694 8.878 64.5254 8.878C65.3907 8.878 66.2047 9.09067 66.9674 9.516C67.7447 9.94133 68.368 10.5573 68.8374 11.364C69.3214 12.156 69.5634 13.1313 69.5634 14.29C69.5634 15.2873 69.3947 16.204 69.0574 17.04C68.72 17.876 68.2507 18.6093 67.6494 19.24C67.0627 19.856 66.3807 20.34 65.6034 20.692C64.826 21.0293 63.99 21.198 63.0954 21.198ZM54.1194 25.268L57.3534 9.076H61.3134L60.8954 11.078L60.1254 15.016L59.5754 18.932L58.2994 25.268H54.1194ZM62.5014 17.832C63.0587 17.832 63.55 17.6927 63.9754 17.414C64.4007 17.1353 64.7307 16.7467 64.9654 16.248C65.2147 15.7493 65.3394 15.17 65.3394 14.51C65.3394 13.8207 65.1414 13.2707 64.7454 12.86C64.3494 12.4347 63.792 12.222 63.0734 12.222C62.5307 12.222 62.0394 12.3687 61.5994 12.662C61.174 12.9407 60.8367 13.3293 60.5874 13.828C60.3527 14.3267 60.2354 14.906 60.2354 15.566C60.2354 16.2553 60.4334 16.8053 60.8294 17.216C61.2254 17.6267 61.7827 17.832 62.5014 17.832ZM70.7142 21L73.9702 4.676H78.1502L74.8942 21H70.7142ZM84.7827 21.198C83.5067 21.198 82.3921 20.978 81.4387 20.538C80.5001 20.0833 79.7667 19.4527 79.2387 18.646C78.7107 17.8247 78.4467 16.864 78.4467 15.764C78.4467 14.444 78.7474 13.2707 79.3487 12.244C79.9501 11.2027 80.7934 10.3813 81.8787 9.78C82.9641 9.17867 84.2254 8.878 85.6627 8.878C86.8801 8.878 87.9214 9.098 88.7867 9.538C89.6667 9.978 90.3414 10.594 90.8107 11.386C91.2947 12.1633 91.5367 13.0727 91.5367 14.114C91.5367 14.466 91.5147 14.8033 91.4707 15.126C91.4267 15.4487 91.3681 15.764 91.2947 16.072H81.7247L82.1207 13.872H89.3587L87.6207 14.51C87.7381 13.938 87.7161 13.4613 87.5547 13.08C87.4081 12.684 87.1514 12.3833 86.7847 12.178C86.4327 11.958 85.9927 11.848 85.4647 11.848C84.7901 11.848 84.2327 12.0167 83.7927 12.354C83.3674 12.6913 83.0447 13.1533 82.8247 13.74C82.6194 14.312 82.5167 14.9353 82.5167 15.61C82.5167 16.4313 82.7441 17.04 83.1987 17.436C83.6534 17.8173 84.3354 18.008 85.2447 18.008C85.7727 18.008 86.2861 17.9273 86.7847 17.766C87.2981 17.59 87.7454 17.348 88.1267 17.04L89.8647 19.658C89.1167 20.2153 88.3027 20.6113 87.4227 20.846C86.5574 21.0807 85.6774 21.198 84.7827 21.198Z" fill="#503895"/>
<path d="M98.352 21L101.432 5.6H107.944C109.939 5.6 111.479 6.03267 112.564 6.898C113.649 7.76333 114.192 8.98067 114.192 10.55C114.192 11.8407 113.884 12.97 113.268 13.938C112.652 14.906 111.772 15.654 110.628 16.182C109.484 16.71 108.135 16.974 106.58 16.974H101.586L103.896 15.038L102.708 21H98.352ZM103.786 15.544L102.268 13.542H106.778C107.731 13.542 108.472 13.3147 109 12.86C109.528 12.4053 109.792 11.76 109.792 10.924C109.792 10.2787 109.579 9.802 109.154 9.494C108.729 9.186 108.135 9.032 107.372 9.032H103.192L105.502 6.964L103.786 15.544ZM118.269 21L120.667 9.054H115.937L116.641 5.6H130.435L129.731 9.054H125.023L122.625 21H118.269Z" fill="#01A796"/>
</svg>
