<svg width="150" height="27" viewBox="0 0 234 40" fill="none" xmlns="http://www.w3.org/2000/svg">
<path d="M38.7065 11.0624C36.9821 8.30337 23.4266 8.67564 12.4173 8.68911C12.1397 8.68945 11.9484 8.41364 12.0433 8.15277L14.9122 0.263383C14.9697 0.105268 15.1199 3.2447e-05 15.2882 7.52109e-05C17.0595 0.000525451 26.8814 0.00279723 34.7567 0C41.0763 -0.0022418 46.7818 2.37294 47.3959 7.89951C48.658 19.2571 36.814 24.2341 34.3937 25.1284C34.293 25.1656 34.2187 25.0392 34.2951 24.9637C35.8427 23.4356 42.1898 16.6358 38.7065 11.0624Z" fill="#01A796"/>
<path d="M30.8081 25.2819C34.6962 23.6156 36.5117 20.8598 37.2424 16.0956C37.2569 16.0012 37.1393 15.9449 37.07 16.0107C28.2464 24.3774 16.5185 17.408 7.89951 20.5422C3.83231 22.0212 2.88538 25.1238 0.482945 28.5639C0.415309 28.6607 0.558568 28.799 0.654568 28.7302C9.49802 22.3891 25.4143 27.5935 30.8081 25.2819Z" fill="#503895"/>
<path d="M19.8348 33.6898L26.6961 11.5812C26.776 11.3238 26.5836 11.0626 26.3141 11.0626H17.6723C17.4971 11.0626 17.3422 11.1767 17.2903 11.3441L10.429 33.4526C10.3491 33.7101 10.5415 33.9712 10.811 33.9712H19.4528C19.628 33.9712 19.7829 33.8571 19.8348 33.6898Z" fill="#503895"/>
<path d="M54.2666 33.5572C52.7342 33.5572 51.3992 33.2321 50.2615 32.582C49.1471 31.9087 48.3577 30.9219 47.8933 29.6218C47.429 28.3216 47.3825 26.7079 47.754 24.7808L49.8436 14.3677H56.4607L54.5104 24.154C54.255 25.3613 54.3246 26.29 54.7193 26.9401C55.1373 27.5902 55.8686 27.9152 56.9134 27.9152C58.0279 27.9152 58.9566 27.5786 59.6995 26.9053C60.4657 26.2087 60.9881 25.1407 61.2667 23.7012L63.1474 14.3677H69.7645L66.0032 33.2437H59.7344L60.814 27.9152L61.6498 29.4476C60.7443 30.8639 59.6299 31.9087 58.3065 32.582C57.0063 33.2321 55.6597 33.5572 54.2666 33.5572Z" fill="#503895"/>
<path d="M70.9619 33.2437L74.7232 14.3677H80.992L79.9123 19.731L79.2855 18.1986C80.1213 16.6895 81.2241 15.6214 82.594 14.9946C83.9638 14.3677 85.5659 14.0542 87.4001 14.0542L86.2508 20.0096C85.9722 19.9632 85.7168 19.9399 85.4846 19.9399C85.2524 19.9167 85.0086 19.9051 84.7532 19.9051C83.3137 19.9051 82.1296 20.2534 81.2009 20.9499C80.2954 21.6232 79.6918 22.7493 79.3899 24.3281L77.579 33.2437H70.9619Z" fill="#503895"/>
<path d="M99.8822 33.5572C98.373 33.5572 97.0612 33.2669 95.9468 32.6865C94.8323 32.0828 94.0197 31.1193 93.5089 29.7959C92.9981 28.4725 92.882 26.7079 93.1606 24.5022C93.3928 22.343 93.892 20.4856 94.6582 18.93C95.4476 17.3744 96.4692 16.1787 97.7229 15.3428C98.9999 14.4838 100.474 14.0542 102.146 14.0542C103.516 14.0542 104.804 14.3909 106.012 15.0642C107.242 15.7375 108.229 16.7127 108.972 17.9896C109.738 19.2434 110.121 20.7874 110.121 22.6216C110.121 24.2004 109.854 25.6515 109.32 26.9749C108.786 28.2983 108.043 29.4592 107.091 30.4576C106.163 31.4327 105.083 32.1989 103.852 32.7562C102.622 33.2902 101.298 33.5572 99.8822 33.5572ZM85.6729 40.0001L90.7924 14.3677H97.0612L96.3995 17.5369L95.1806 23.7709L94.3099 29.97L92.29 40.0001H85.6729ZM98.9418 28.2287C99.8241 28.2287 100.602 28.0081 101.275 27.567C101.949 27.1258 102.471 26.5106 102.842 25.7212C103.237 24.9318 103.434 24.0147 103.434 22.9699C103.434 21.8786 103.121 21.008 102.494 20.3579C101.867 19.6845 100.985 19.3479 99.8473 19.3479C98.9883 19.3479 98.2105 19.5801 97.514 20.0444C96.8406 20.4856 96.3066 21.1008 95.9119 21.8902C95.5404 22.6796 95.3547 23.5967 95.3547 24.6415C95.3547 25.7328 95.6681 26.6034 96.295 27.2535C96.9219 27.9036 97.8042 28.2287 98.9418 28.2287Z" fill="#503895"/>
<path d="M111.943 33.2437L117.097 7.40234H123.714L118.56 33.2437H111.943Z" fill="#503895"/>
<path d="M134.214 33.5572C132.194 33.5572 130.429 33.2089 128.92 32.5124C127.434 31.7926 126.273 30.7943 125.438 29.5173C124.602 28.2171 124.184 26.6963 124.184 24.955C124.184 22.8654 124.66 21.008 125.612 19.3827C126.564 17.7343 127.899 16.4341 129.617 15.4821C131.335 14.5302 133.332 14.0542 135.607 14.0542C137.534 14.0542 139.183 14.4025 140.552 15.099C141.945 15.7956 143.013 16.7707 143.756 18.0245C144.523 19.255 144.906 20.6945 144.906 22.343C144.906 22.9002 144.871 23.4342 144.801 23.945C144.732 24.4558 144.639 24.955 144.523 25.4426H129.373L130 21.9599H141.458L138.707 22.9699C138.892 22.0644 138.857 21.3098 138.602 20.7061C138.37 20.0792 137.964 19.6033 137.383 19.2782C136.826 18.93 136.129 18.7558 135.294 18.7558C134.226 18.7558 133.343 19.0228 132.647 19.5568C131.973 20.0909 131.463 20.8222 131.114 21.7509C130.789 22.6564 130.627 23.6432 130.627 24.7112C130.627 26.0114 130.987 26.9749 131.706 27.6018C132.426 28.2055 133.506 28.5073 134.945 28.5073C135.781 28.5073 136.594 28.3796 137.383 28.1242C138.196 27.8456 138.904 27.4625 139.508 26.9749L142.259 31.1193C141.075 32.0016 139.786 32.6285 138.393 32.9999C137.023 33.3714 135.63 33.5572 134.214 33.5572Z" fill="#503895"/>
<path d="M156.544 34L161.304 10.2H171.368C174.451 10.2 176.831 10.8686 178.508 12.206C180.185 13.5433 181.024 15.4246 181.024 17.85C181.024 19.8446 180.548 21.59 179.596 23.086C178.644 24.582 177.284 25.738 175.516 26.554C173.748 27.37 171.663 27.778 169.26 27.778H161.542L165.112 24.786L163.276 34H156.544ZM164.942 25.568L162.596 22.474H169.566C171.039 22.474 172.184 22.1226 173 21.42C173.816 20.7173 174.224 19.72 174.224 18.428C174.224 17.4306 173.895 16.694 173.238 16.218C172.581 15.742 171.663 15.504 170.484 15.504H164.024L167.594 12.308L164.942 25.568Z" fill="#01A796"/>
<path d="M181.28 34L186.04 10.2H196.206C199.266 10.2 201.624 10.8686 203.278 12.206C204.956 13.5433 205.794 15.402 205.794 17.782C205.794 19.7766 205.307 21.522 204.332 23.018C203.38 24.4913 202.02 25.636 200.252 26.452C198.484 27.268 196.399 27.676 193.996 27.676H186.278L189.848 24.786L188.012 34H181.28ZM196.206 34L191.344 25.33H198.314L203.244 34H196.206ZM189.678 25.568L187.332 22.474H194.302C195.798 22.474 196.954 22.1226 197.77 21.42C198.586 20.7173 198.994 19.72 198.994 18.428C198.994 17.4306 198.666 16.694 198.008 16.218C197.351 15.742 196.433 15.504 195.254 15.504H188.76L192.364 12.308L189.678 25.568Z" fill="#01A796"/>
<path d="M206.448 34L211.208 10.2H216.75L226.372 26.112L224.06 26.044L227.222 10.2H233.818L229.058 34H223.516L213.928 18.088L216.206 18.156L213.044 34H206.448Z" fill="#01A796"/>
</svg>
