<svg width="690" height="272" viewBox="0 0 690 272" fill="none" xmlns="http://www.w3.org/2000/svg">
<g filter="url(#filter0_d_1_601)">
<path d="M241.775 210.685H205.48V257.281H138.126V210.685H9V165.828L118.582 13.8683H190.125L90.6632 156.091H140.22V114.711H205.48V156.091H241.775V210.685Z" fill="white"/>
<path d="M363.64 262.15C342.701 262.15 324.088 257.165 307.802 247.197C291.516 237.229 278.72 222.74 269.413 203.731C260.34 184.489 255.803 161.771 255.803 135.575C255.803 109.379 260.34 86.7763 269.413 67.7669C278.72 48.5257 291.516 33.9209 307.802 23.9525C324.088 13.9842 342.701 9 363.64 9C384.347 9 402.843 13.9842 419.129 23.9525C435.415 33.9209 448.095 48.5257 457.169 67.7669C466.475 86.7763 471.129 109.379 471.129 135.575C471.129 161.771 466.475 184.489 457.169 203.731C448.095 222.74 435.415 237.229 419.129 247.197C402.843 257.165 384.347 262.15 363.64 262.15ZM363.64 205.817C375.273 205.817 384.463 200.253 391.21 189.126C398.19 177.766 401.68 159.916 401.68 135.575C401.68 111.234 398.19 93.4991 391.21 82.3717C384.463 71.0124 375.273 65.3328 363.64 65.3328C351.775 65.3328 342.352 71.0124 335.372 82.3717C328.625 93.4991 325.251 111.234 325.251 135.575C325.251 159.916 328.625 177.766 335.372 189.126C342.352 200.253 351.775 205.817 363.64 205.817Z" fill="white"/>
</g>
<g filter="url(#filter1_d_1_601)">
<path fillRule="evenodd" clipRule="evenodd" d="M242.775 211.685H206.48V258.281H137.126V211.685H8V165.505L118.071 12.8683H192.044L92.5828 155.091H139.22V113.711H206.48V155.091H242.775V211.685ZM205.48 156.091V114.711H140.22V156.091H90.6632L190.125 13.8683H118.582L9 165.828V210.685H138.126V257.281H205.48V210.685H241.775V156.091H205.48ZM268.512 204.164L268.509 204.157C259.359 184.755 254.803 161.885 254.803 135.575C254.803 109.265 259.359 86.5087 268.511 67.3361L268.513 67.3315C277.893 47.939 290.811 33.1797 307.28 23.0996C323.738 13.0259 342.535 8 363.64 8C384.515 8 403.195 13.027 419.651 23.0996C436.12 33.1799 448.923 47.9399 458.07 67.3331C467.456 86.5068 472.129 109.265 472.129 135.575C472.129 161.887 467.455 184.76 458.07 204.164C448.922 223.328 436.119 237.971 419.651 248.05C403.195 258.123 384.515 263.15 363.64 263.15C342.535 263.15 323.738 258.124 307.28 248.05C290.815 237.972 277.896 223.331 268.515 204.17L268.512 204.164ZM457.169 203.731C466.475 184.489 471.129 161.771 471.129 135.575C471.129 109.379 466.475 86.7763 457.169 67.7669C448.095 48.5257 435.415 33.9209 419.129 23.9525C402.843 13.9842 384.347 9 363.64 9C342.701 9 324.088 13.9842 307.802 23.9525C291.516 33.9209 278.72 48.5257 269.413 67.7669C260.34 86.7763 255.803 109.379 255.803 135.575C255.803 161.771 260.34 184.489 269.413 203.731C278.72 222.74 291.516 237.229 307.802 247.197C324.088 257.165 342.701 262.15 363.64 262.15C384.347 262.15 402.843 257.165 419.129 247.197C435.415 237.229 448.095 222.74 457.169 203.731ZM390.357 82.8928L390.35 82.8824C383.754 71.7772 374.867 66.3328 363.64 66.3328C352.172 66.3328 343.051 71.7872 336.226 82.8916C329.626 93.778 326.251 111.283 326.251 135.575C326.251 159.858 329.623 177.482 336.226 188.605C343.045 199.471 352.164 204.817 363.64 204.817C374.877 204.817 383.764 199.478 390.355 188.607L390.358 188.602C397.19 177.483 400.68 159.862 400.68 135.575C400.68 111.285 397.189 93.7856 390.363 82.903L390.357 82.8928ZM391.21 189.126C384.463 200.253 375.273 205.817 363.64 205.817C351.775 205.817 342.352 200.253 335.372 189.126C328.625 177.766 325.251 159.916 325.251 135.575C325.251 111.234 328.625 93.4991 335.372 82.3717C342.352 71.0124 351.775 65.3328 363.64 65.3328C375.273 65.3328 384.463 71.0124 391.21 82.3717C398.19 93.4991 401.68 111.234 401.68 135.575C401.68 159.916 398.19 177.766 391.21 189.126Z" fill="#01A796"/>
</g>
<g filter="url(#filter2_d_1_601)">
<path d="M618.181 112.084C638.422 116.257 653.894 124.602 664.597 137.121C675.532 149.407 680.999 164.36 680.999 181.978C680.999 196.351 677.044 209.681 669.133 221.968C661.456 234.254 649.59 244.223 633.537 251.873C617.716 259.291 598.056 263 574.558 263C557.341 263 540.24 260.914 523.256 256.741C506.505 252.568 491.964 246.657 479.633 239.007L504.76 187.194C514.299 193.685 525.001 198.67 536.867 202.147C548.965 205.624 560.831 207.363 572.464 207.363C584.329 207.363 593.752 205.161 600.732 200.756C607.711 196.351 611.201 190.092 611.201 181.978C611.201 166.214 598.754 158.333 573.86 158.333H544.894V114.866L588.517 67.9219H492.196V14.7188H668.784V57.8377L618.181 112.084Z" fill="white"/>
</g>
<g filter="url(#filter3_d_1_601)">
<path fillRule="evenodd" clipRule="evenodd" d="M505.598 187.759C514.924 193.975 525.348 198.771 536.867 202.147C548.965 205.624 560.831 207.363 572.464 207.363C584.329 207.363 593.752 205.161 600.732 200.756C607.712 196.351 611.201 190.092 611.201 181.978C611.201 166.214 598.754 158.333 573.86 158.333H544.894V114.866L588.517 67.9219H492.196V14.7188H668.785V57.8377L618.181 112.084C618.564 112.163 618.945 112.243 619.324 112.325C639.006 116.574 654.097 124.839 664.597 137.121C675.532 149.407 680.999 164.36 680.999 181.978C680.999 196.351 677.044 209.681 669.133 221.968C661.456 234.254 649.59 244.223 633.537 251.873C617.716 259.291 598.056 263 574.558 263C557.341 263 540.241 260.914 523.256 256.741C506.505 252.568 491.964 246.657 479.633 239.007L504.76 187.194C505.038 187.384 505.318 187.572 505.598 187.759ZM669.978 222.503C662.178 234.982 650.151 245.063 633.967 252.775L633.961 252.778C617.97 260.276 598.155 264 574.558 264C557.259 264 540.079 261.904 523.018 257.712L523.015 257.711C506.181 253.518 491.54 247.57 479.106 239.856L478.34 239.381L504.365 185.716L505.323 186.368C514.769 192.795 525.374 197.736 537.146 201.186C549.161 204.64 560.932 206.363 572.464 206.363C584.219 206.363 593.434 204.179 600.198 199.91C606.894 195.685 610.201 189.742 610.201 181.978C610.201 174.41 607.242 168.832 601.331 165.089C595.343 161.297 586.234 159.333 573.86 159.333H543.894V114.473L586.223 68.9219H491.196V13.7188H669.785V58.2317L620.117 111.475C639.673 115.794 654.781 124.104 665.35 136.463C676.456 148.945 681.999 164.137 681.999 181.978C681.999 196.544 677.988 210.06 669.978 222.503Z" fill="#01A796"/>
</g>
<defs>
<filter id="filter0_d_1_601" x="1" y="1" width="478.129" height="269.15" filterUnits="userSpaceOnUse" colorInterpolationFilters="sRGB">
<feFlood floodOpacity="0" result="BackgroundImageFix"/>
<feColorMatrix in="SourceAlpha" type="matrix" values="0 0 0 0 0 0 0 0 0 0 0 0 0 0 0 0 0 0 127 0" result="hardAlpha"/>
<feOffset/>
<feGaussianBlur stdDeviation="4"/>
<feComposite in2="hardAlpha" operator="out"/>
<feColorMatrix type="matrix" values="0 0 0 0 0.435294 0 0 0 0 0.462745 0 0 0 0 0.505882 0 0 0 0.3 0"/>
<feBlend mode="normal" in2="BackgroundImageFix" result="effect1_dropShadow_1_601"/>
<feBlend mode="normal" in="SourceGraphic" in2="effect1_dropShadow_1_601" result="shape"/>
</filter>
<filter id="filter1_d_1_601" x="0" y="0" width="480.129" height="271.15" filterUnits="userSpaceOnUse" colorInterpolationFilters="sRGB">
<feFlood floodOpacity="0" result="BackgroundImageFix"/>
<feColorMatrix in="SourceAlpha" type="matrix" values="0 0 0 0 0 0 0 0 0 0 0 0 0 0 0 0 0 0 127 0" result="hardAlpha"/>
<feOffset/>
<feGaussianBlur stdDeviation="4"/>
<feComposite in2="hardAlpha" operator="out"/>
<feColorMatrix type="matrix" values="0 0 0 0 0.435294 0 0 0 0 0.462745 0 0 0 0 0.505882 0 0 0 0.3 0"/>
<feBlend mode="normal" in2="BackgroundImageFix" result="effect1_dropShadow_1_601"/>
<feBlend mode="normal" in="SourceGraphic" in2="effect1_dropShadow_1_601" result="shape"/>
</filter>
<filter id="filter2_d_1_601" x="471.633" y="6.71875" width="217.366" height="264.281" filterUnits="userSpaceOnUse" colorInterpolationFilters="sRGB">
<feFlood floodOpacity="0" result="BackgroundImageFix"/>
<feColorMatrix in="SourceAlpha" type="matrix" values="0 0 0 0 0 0 0 0 0 0 0 0 0 0 0 0 0 0 127 0" result="hardAlpha"/>
<feOffset/>
<feGaussianBlur stdDeviation="4"/>
<feComposite in2="hardAlpha" operator="out"/>
<feColorMatrix type="matrix" values="0 0 0 0 0.435294 0 0 0 0 0.462745 0 0 0 0 0.505882 0 0 0 0.3 0"/>
<feBlend mode="normal" in2="BackgroundImageFix" result="effect1_dropShadow_1_601"/>
<feBlend mode="normal" in="SourceGraphic" in2="effect1_dropShadow_1_601" result="shape"/>
</filter>
<filter id="filter3_d_1_601" x="470.34" y="5.71875" width="219.659" height="266.281" filterUnits="userSpaceOnUse" colorInterpolationFilters="sRGB">
<feFlood floodOpacity="0" result="BackgroundImageFix"/>
<feColorMatrix in="SourceAlpha" type="matrix" values="0 0 0 0 0 0 0 0 0 0 0 0 0 0 0 0 0 0 127 0" result="hardAlpha"/>
<feOffset/>
<feGaussianBlur stdDeviation="4"/>
<feComposite in2="hardAlpha" operator="out"/>
<feColorMatrix type="matrix" values="0 0 0 0 0.435294 0 0 0 0 0.462745 0 0 0 0 0.505882 0 0 0 0.3 0"/>
<feBlend mode="normal" in2="BackgroundImageFix" result="effect1_dropShadow_1_601"/>
<feBlend mode="normal" in="SourceGraphic" in2="effect1_dropShadow_1_601" result="shape"/>
</filter>
</defs>
</svg>
