<svg width="737" height="272" viewBox="0 0 737 272" fill="none" xmlns="http://www.w3.org/2000/svg">
<g filter="url(#filter0_d_1_500)">
<path fillRule="evenodd" clipRule="evenodd" d="M243.413 212.363H207.019V259.115H137.479V212.363H8V166.032L118.37 12.8846H192.54L92.8058 155.585H139.579V114.066H207.019V155.585H243.413V212.363ZM206.019 156.585V115.066H140.579V156.585H90.8869L190.621 13.8846H118.882L9 166.354V211.363H138.479V258.115H206.019V211.363H242.413V156.585H206.019ZM269.225 204.818L269.222 204.811C260.048 185.345 255.479 162.398 255.479 136C255.479 109.603 260.048 86.7701 269.224 67.5337L269.226 67.5291C278.631 48.072 291.585 33.2636 308.098 23.15C324.601 13.0427 343.449 8 364.612 8C385.543 8 404.274 13.0438 420.775 23.15C437.289 33.2642 450.127 48.0739 459.299 67.5326C468.709 86.7697 473.394 109.603 473.394 136C473.394 162.4 468.708 185.349 459.298 204.817C450.125 224.045 437.287 238.737 420.775 248.85C404.274 258.956 385.543 264 364.612 264C343.449 264 324.601 258.957 308.098 248.85C291.588 238.738 278.634 224.049 269.228 204.824L269.225 204.818ZM458.397 67.9643C449.298 48.6584 436.583 34.0046 420.253 24.0028C403.922 14.0009 385.375 9 364.612 9C343.615 9 324.951 14.0009 308.62 24.0028C292.29 34.0046 279.458 48.6584 270.127 67.9643C261.028 87.0375 256.479 109.716 256.479 136C256.479 162.284 261.028 185.079 270.127 204.385C279.458 223.458 292.29 237.995 308.62 247.997C324.951 257.999 343.615 263 364.612 263C385.375 263 403.922 257.999 420.253 247.997C436.583 237.995 449.298 223.458 458.397 204.385C467.728 185.079 472.394 162.284 472.394 136C472.394 109.716 467.728 87.0375 458.397 67.9643ZM391.403 83.139L391.397 83.1286C384.782 71.9852 375.869 66.522 364.612 66.522C353.111 66.522 343.964 71.9953 337.12 83.1381C330.501 94.062 327.118 111.626 327.118 136C327.118 160.365 330.499 178.049 337.12 189.21C343.959 200.114 353.103 205.478 364.612 205.478C375.88 205.478 384.792 200.121 391.402 189.213L391.405 189.207C398.256 178.05 401.755 160.369 401.755 136C401.755 111.628 398.255 94.0692 391.41 83.1493L391.403 83.139ZM728.003 212.363H691.609V259.115H622.07V212.363H492.59V166.032L602.961 12.8846H677.13L577.396 155.585H624.169V114.066H691.609V155.585H728.003V212.363ZM690.609 156.585V115.066H625.169V156.585H575.477L675.211 13.8846H603.473L493.59 166.354V211.363H623.07V258.115H690.609V211.363H727.003V156.585H690.609ZM364.612 206.478C376.276 206.478 385.491 200.896 392.257 189.731C399.256 178.333 402.755 160.423 402.755 136C402.755 111.577 399.256 93.783 392.257 82.6181C385.491 71.2207 376.276 65.522 364.612 65.522C352.713 65.522 343.265 71.2207 336.266 82.6181C329.5 93.783 326.118 111.577 326.118 136C326.118 160.423 329.5 178.333 336.266 189.731C343.265 200.896 352.713 206.478 364.612 206.478Z" fill="#01A796"/>
</g>
<defs>
<filter id="filter0_d_1_500" x="0" y="0" width="736.003" height="272" filterUnits="userSpaceOnUse" colorInterpolationFilters="sRGB">
<feFlood floodOpacity="0" result="BackgroundImageFix"/>
<feColorMatrix in="SourceAlpha" type="matrix" values="0 0 0 0 0 0 0 0 0 0 0 0 0 0 0 0 0 0 127 0" result="hardAlpha"/>
<feOffset/>
<feGaussianBlur stdDeviation="4"/>
<feComposite in2="hardAlpha" operator="out"/>
<feColorMatrix type="matrix" values="0 0 0 0 0.435294 0 0 0 0 0.462745 0 0 0 0 0.505882 0 0 0 0.3 0"/>
<feBlend mode="normal" in2="BackgroundImageFix" result="effect1_dropShadow_1_500"/>
<feBlend mode="normal" in="SourceGraphic" in2="effect1_dropShadow_1_500" result="shape"/>
</filter>
</defs>
</svg>
