<svg width="451" height="525" viewBox="0 0 451 525" fill="none" xmlns="http://www.w3.org/2000/svg">
<path fillRule="evenodd" clipRule="evenodd" d="M-60 24.2983C78.0712 24.2983 190 136.227 190 274.298C190 412.37 78.0712 524.298 -60 524.298C-198.071 524.298 -310 412.37 -310 274.298C-310 136.227 -198.071 24.2983 -60 24.2983ZM-60 124.298C22.8427 124.298 90 191.456 90 274.298C90 357.141 22.8427 424.298 -60 424.298C-142.843 424.298 -210 357.141 -210 274.298C-210 191.456 -142.843 124.298 -60 124.298Z" fill="#F2F8F8"/>
<path d="M451 100.298C451 45.0699 406.228 0.29834 351 0.29834C295.772 0.29834 251 45.0699 251 100.298C251 155.527 295.772 200.298 351 200.298C406.228 200.298 451 155.527 451 100.298Z" fill="#F2F8F8"/>
</svg>