<svg width="490" height="525" viewBox="0 0 490 525" fill="none" xmlns="http://www.w3.org/2000/svg">
<path fillRule="evenodd" clipRule="evenodd" d="M511 24.2983C372.929 24.2983 261 136.227 261 274.298C261 412.37 372.929 524.298 511 524.298C649.071 524.298 761 412.37 761 274.298C761 136.227 649.071 24.2983 511 24.2983ZM511 124.299C428.157 124.299 361 191.456 361 274.299C361 357.142 428.157 424.299 511 424.299C593.843 424.299 661 357.142 661 274.299C661 191.456 593.843 124.299 511 124.299Z" fill="#F2F8F8"/>
<path d="M0 100.299C0 45.0704 44.7715 0.298828 100 0.298828C155.228 0.298828 200 45.0704 200 100.299C200 155.527 155.228 200.299 100 200.299C44.7715 200.299 0 155.527 0 100.299Z" fill="#F2F8F8"/>
</svg>
