<svg width="1440" height="300" viewBox="0 0 1440 300" fill="none" xmlns="http://www.w3.org/2000/svg">
<rect width="1440" height="300" fill="#E6F6F4"/>
<mask id="mask0_414_2" style="mask-type:alpha" maskUnits="userSpaceOnUse" x="0" y="0" width="1440" height="300">
<rect width="1440" height="300" fill="#E6F6F4"/>
</mask>
<g mask="url(#mask0_414_2)">
<path fillRule="evenodd" clipRule="evenodd" d="M75 586C213.071 586 325 474.071 325 336C325 197.929 213.071 86 75 86C-63.0712 86 -175 197.929 -175 336C-175 474.071 -63.0712 586 75 586ZM75 486C157.843 486 225 418.843 225 336C225 253.157 157.843 186 75 186C-7.84271 186 -75 253.157 -75 336C-75 418.843 -7.84271 486 75 486Z" fill="#F2F8F8"/>
<path d="M709 334C709 389.228 664.228 434 609 434C553.772 434 509 389.228 509 334C509 278.772 553.772 234 609 234C664.228 234 709 278.772 709 334Z" fill="#F2F8F8"/>
<path d="M571.5 161.41C418.356 120.488 259.5 0 259.5 0H1440V894.5C1440 894.5 1435 797.966 1258 738C1081 678.034 983.851 719.357 923 623.5C837.301 488.5 1026.21 314.331 923 227C819 139 736.5 205.5 571.5 161.41Z" fill="#F2F8F8"/>
</g>
</svg>
