<svg width="12" height="24" viewBox="0 0 12 24" fill="none" xmlns="http://www.w3.org/2000/svg">
<path d="M9.35 16.85L6.35 19.85C6.25 19.95 6.15 20 6 20C5.85 20 5.75 19.95 5.65 19.85L2.65 16.85C2.45 16.65 2.45 16.35 2.65 16.15C2.85 15.95 3.15 15.95 3.35 16.15L6 18.8L8.65 16.15C8.85 15.95 9.15 15.95 9.35 16.15C9.55 16.35 9.55 16.65 9.35 16.85Z" fill="black"/>
<mask id="mask0_33_948" style="mask-type:alpha" maskUnits="userSpaceOnUse" x="2" y="16" width="8" height="4">
<path d="M9.35 16.85L6.35 19.85C6.25 19.95 6.15 20 6 20C5.85 20 5.75 19.95 5.65 19.85L2.65 16.85C2.45 16.65 2.45 16.35 2.65 16.15C2.85 15.95 3.15 15.95 3.35 16.15L6 18.8L8.65 16.15C8.85 15.95 9.15 15.95 9.35 16.15C9.55 16.35 9.55 16.65 9.35 16.85Z" fill="white"/>
</mask>
<g mask="url(#mask0_33_948)">
<rect y="12" width="12" height="12" fill="#BABFC7"/>
</g>
<path d="M9.35 7.85C9.25 7.95 9.15 8 9 8C8.85 8 8.75 7.95 8.65 7.85L6 5.2L3.35 7.85C3.15 8.05 2.85 8.05 2.65 7.85C2.45 7.65 2.45 7.35 2.65 7.15L5.65 4.15C5.85 3.95 6.15 3.95 6.35 4.15L9.35 7.15C9.55 7.35 9.55 7.65 9.35 7.85Z" fill="black"/>
<mask id="mask1_33_948" style="mask-type:alpha" maskUnits="userSpaceOnUse" x="2" y="4" width="8" height="4">
<path d="M9.35 7.85C9.25 7.95 9.15 8 9 8C8.85 8 8.75 7.95 8.65 7.85L6 5.2L3.35 7.85C3.15 8.05 2.85 8.05 2.65 7.85C2.45 7.65 2.45 7.35 2.65 7.15L5.65 4.15C5.85 3.95 6.15 3.95 6.35 4.15L9.35 7.15C9.55 7.35 9.55 7.65 9.35 7.85Z" fill="white"/>
</mask>
<g mask="url(#mask1_33_948)">
<rect width="12" height="12" fill="#002D47"/>
</g>
</svg>
