<svg width="11" height="20" viewBox="0 0 11 20" fill="none" xmlns="http://www.w3.org/2000/svg">
<path d="M0.298666 10.7804L8.63094 19.6805C8.82366 19.8865 9.08091 20 9.35522 20C9.62953 20 9.88679 19.8865 10.0795 19.6805L10.6931 19.0252C11.0924 18.5982 11.0924 17.9042 10.6931 17.4779L3.6963 10.0041L10.7009 2.52209C10.8936 2.31608 11 2.04145 11 1.7486C11 1.45543 10.8936 1.1808 10.7009 0.974625L10.0873 0.319508C9.8944 0.113495 9.63729 0 9.36298 0C9.08868 0 8.83142 0.113495 8.6387 0.319508L0.298666 9.22773C0.105494 9.43439 -0.000605583 9.71033 2.86102e-06 10.0037C-0.000605583 10.2981 0.105494 10.5739 0.298666 10.7804Z" fill="#503895"/>
</svg>
