<svg width="12" height="12" viewBox="0 0 12 12" fill="none" xmlns="http://www.w3.org/2000/svg">
<g clipPath="url(#clip0_2_22337)">
<path d="M4.94531 6.35156H7.05469V7.05469H4.94531V6.35156Z" fill="#01A796"/>
<path d="M9.73544 7.05472H7.75781V7.40628C7.75781 7.60056 7.60052 7.75784 7.40625 7.75784H4.59375C4.39948 7.75784 4.24219 7.60056 4.24219 7.40628V7.05472H2.26456C1.81 7.05472 1.40799 6.76495 1.26407 6.33374L0 2.54089V10.2188C0 10.8003 0.473145 11.2735 1.05469 11.2735H10.9453C11.5269 11.2735 12 10.8003 12 10.2188V2.54117L10.7358 6.33374C10.592 6.76495 10.19 7.05472 9.73544 7.05472Z" fill="#01A796"/>
<path d="M7.40622 0.726562H4.59372C4.01218 0.726562 3.53903 1.19971 3.53903 1.78125V2.13281H0.604858L1.93082 6.11124C1.97888 6.25507 2.1131 6.35156 2.26453 6.35156H4.24216V6C4.24216 5.80573 4.39944 5.64844 4.59372 5.64844H7.40622C7.60049 5.64844 7.75778 5.80573 7.75778 6V6.35156H9.73541C9.88684 6.35156 10.0211 6.25507 10.0691 6.11124L11.3952 2.13281H8.46091V1.78125C8.46091 1.19971 7.98776 0.726562 7.40622 0.726562ZM4.24216 2.13281V1.78125C4.24216 1.58725 4.39972 1.42969 4.59372 1.42969H7.40622C7.60022 1.42969 7.75778 1.58725 7.75778 1.78125V2.13281H4.24216Z" fill="#01A796"/>
</g>
<defs>
<clipPath id="clip0_2_22337">
<rect width="12" height="12" fill="white"/>
</clipPath>
</defs>
</svg>
