<svg width="120" height="120" viewBox="0 0 120 120" fill="none" xmlns="http://www.w3.org/2000/svg">
<path d="M120 80C120 102.092 102.092 120 80 120C57.9083 120 40 102.092 40 80C40 57.9083 57.9083 40 80 40C102.092 40 120 57.9083 120 80Z" fill="white"/>
<path d="M116.198 28.7366H3.80218C1.70196 28.7366 0 30.4385 0 32.5378V73.1753C0 75.2755 1.70196 76.9774 3.80218 76.9774C5.69823 76.9774 7.23631 78.5155 7.23631 80.4116V88.4581C7.23631 89.7847 8.84031 90.4494 9.77781 89.511L20.7833 78.5055C21.762 77.5268 23.0896 76.9774 24.4729 76.9774H116.199C118.298 76.9774 120 75.2755 120 73.1753V32.5378C120 30.4385 118.298 28.7366 116.198 28.7366Z" fill="#665E93"/>
<path d="M10.5527 38.3844C10.5527 37.1355 11.5652 36.123 12.8141 36.123H107.187C108.436 36.123 109.448 37.1355 109.448 38.3844C109.448 39.6333 108.436 40.6458 107.187 40.6458H12.8141C11.5652 40.6458 10.5527 39.6333 10.5527 38.3844Z" fill="white"/>
<path d="M109.448 53.0565C109.448 54.3054 108.436 55.3179 107.187 55.3179H12.8141C11.5652 55.3179 10.5527 54.3054 10.5527 53.0565C10.5527 51.8076 11.5652 50.7952 12.8141 50.7952H107.187C108.436 50.7952 109.448 51.8076 109.448 53.0565Z" fill="white"/>
<path d="M10.5527 67.7279C10.5527 66.479 11.5652 65.4666 12.8141 65.4666H75.8088C77.0577 65.4666 78.0701 66.479 78.0701 67.7279C78.0701 68.9768 77.0577 69.9893 75.8088 69.9893H12.8141C11.5652 69.9893 10.5527 68.9768 10.5527 67.7279Z" fill="white"/>
<path d="M18.7158 2.37411L20.7043 6.40427C21.0184 7.03964 21.6254 7.48093 22.3276 7.58347L26.7752 8.22983C28.5431 8.48618 29.249 10.6596 27.97 11.9066L24.7519 15.0432C24.2438 15.5385 24.0121 16.2526 24.1321 16.9521L24.8911 21.3814C25.1932 23.1429 23.3447 24.4859 21.7636 23.6537L17.7856 21.5627C17.1576 21.2321 16.4069 21.2321 15.7788 21.5627L11.8018 23.6537C10.2197 24.4859 8.37128 23.1429 8.6734 21.3814L9.43329 16.9521C9.55322 16.2526 9.32068 15.5385 8.81347 15.0432L5.59448 11.9066C4.31549 10.6596 5.02136 8.48618 6.78924 8.22983L11.2369 7.58347C11.9391 7.48093 12.5461 7.03964 12.8601 6.40427L14.8495 2.37411C15.6396 0.771942 17.9248 0.771942 18.7158 2.37411Z" fill="#FFC638"/>
<path d="M47.5264 2.37411L49.5159 6.40427C49.8299 7.03964 50.4369 7.48093 51.1391 7.58347L55.5867 8.22983C57.3546 8.48618 58.0605 10.6596 56.7815 11.9066L53.5634 15.0432C53.0553 15.5385 52.8228 16.2526 52.9427 16.9521L53.7026 21.3814C54.0047 23.1429 52.1562 24.4859 50.5751 23.6537L46.5972 21.5627C45.9691 21.2321 45.2184 21.2321 44.5903 21.5627L40.6124 23.6537C39.0312 24.4859 37.1828 23.1429 37.4849 21.3814L38.2448 16.9521C38.3647 16.2526 38.1322 15.5385 37.6241 15.0432L34.406 11.9066C33.127 10.6596 33.8329 8.48618 35.6008 8.22983L40.0484 7.58347C40.7506 7.48093 41.3576 7.03964 41.6716 6.40427L43.6611 2.37411C44.4512 0.771942 46.7363 0.771942 47.5264 2.37411Z" fill="#FFC638"/>
<path d="M76.3396 2.37411L78.3281 6.40427C78.6421 7.03964 79.2491 7.48093 79.9513 7.58347L84.3989 8.22983C86.1668 8.48618 86.8727 10.6596 85.5937 11.9066L82.3756 15.0432C81.8675 15.5385 81.6359 16.2526 81.7558 16.9521L82.5148 21.3814C82.8169 23.1429 80.9685 24.4859 79.3873 23.6537L75.4094 21.5627C74.7813 21.2321 74.0306 21.2321 73.4025 21.5627L69.4255 23.6537C67.8435 24.4859 65.995 23.1429 66.2971 21.3814L67.057 16.9521C67.177 16.2526 66.9444 15.5385 66.4372 15.0432L63.2191 11.9066C61.9392 10.6596 62.6451 8.48618 64.4139 8.22983L68.8606 7.58347C69.5628 7.48093 70.1698 7.03964 70.4838 6.40427L72.4733 2.37411C73.2634 0.771942 75.5485 0.771942 76.3396 2.37411Z" fill="#FFC638"/>
<path d="M105.15 2.37411L107.14 6.40427C107.454 7.03964 108.061 7.48093 108.763 7.58347L113.211 8.22983C114.979 8.48618 115.685 10.6596 114.406 11.9066L111.187 15.0432C110.679 15.5385 110.447 16.2526 110.567 16.9521L111.327 21.3814C111.629 23.1429 109.78 24.4859 108.199 23.6537L104.221 21.5627C103.593 21.2321 102.842 21.2321 102.214 21.5627L98.2364 23.6537C96.6553 24.4859 94.8068 23.1429 95.1089 21.3814L95.8688 16.9521C95.9888 16.2526 95.7562 15.5385 95.2481 15.0432L92.03 11.9066C90.751 10.6596 91.4569 8.48618 93.2248 8.22983L97.6724 7.58347C98.3746 7.48093 98.9816 7.03964 99.2957 6.40427L101.285 2.37411C102.075 0.771942 104.36 0.771942 105.15 2.37411Z" fill="#E0E0E0"/>
<path d="M68.9272 80.2781H116.199C118.298 80.2781 120 81.98 120 84.0793V102.287C120 104.388 118.298 106.09 116.199 106.09C114.302 106.09 112.764 107.628 112.764 109.524V117.57C112.764 118.897 111.161 119.562 110.222 118.623L99.2166 107.618C98.2379 106.639 96.9113 106.09 95.527 106.09H68.9272C66.8279 106.09 65.126 104.388 65.126 102.287V84.0793C65.126 81.98 66.8279 80.2781 68.9272 80.2781Z" fill="#01A796"/>
<path d="M108.632 92.8234C108.632 94.7661 107.056 96.3408 105.113 96.3408C103.17 96.3408 101.596 94.7661 101.596 92.8234C101.596 90.8806 103.17 89.3059 105.113 89.3059C107.056 89.3059 108.632 90.8806 108.632 92.8234Z" fill="white"/>
<path d="M96.0798 92.8234C96.0798 94.7661 94.5051 96.3408 92.5624 96.3408C90.6196 96.3408 89.0449 94.7661 89.0449 92.8234C89.0449 90.8806 90.6196 89.3059 92.5624 89.3059C94.5051 89.3059 96.0798 90.8806 96.0798 92.8234Z" fill="white"/>
<path d="M83.5291 92.8234C83.5291 94.7661 81.9543 96.3408 80.0116 96.3408C78.0688 96.3408 76.4941 94.7661 76.4941 92.8234C76.4941 90.8806 78.0688 89.3059 80.0116 89.3059C81.9543 89.3059 83.5291 90.8806 83.5291 92.8234Z" fill="white"/>
</svg>
