<svg width="120" height="120" viewBox="0 0 120 120" fill="none" xmlns="http://www.w3.org/2000/svg">
<g clipPath="url(#clip0_1_4087)">
<path d="M120 40C120 62.0917 102.092 80 80 80C57.9083 80 40 62.0917 40 40C40 17.9083 57.9083 0 80 0C102.092 0 120 17.9083 120 40Z" fill="white"/>
<path d="M106.072 87.8571C106.077 88.589 105.946 89.3155 105.686 89.9999C105.382 90.9068 104.868 91.729 104.186 92.3999C102.983 93.6073 101.348 94.2858 99.6436 94.2856H95.3578C98.9082 94.2856 101.786 97.1638 101.786 100.714C101.791 101.446 101.66 102.173 101.401 102.857C101.096 103.764 100.582 104.586 99.9007 105.257C98.6972 106.464 97.0626 107.143 95.3578 107.143H91.0721C94.6225 107.143 97.5007 110.021 97.5007 113.571C97.5007 117.122 94.6225 120 91.0721 120H52.5007C49.2222 120.051 45.9639 119.477 42.9007 118.307C40.8007 117.471 38.9578 116.121 36.9221 115.136C34.7608 114.104 32.3957 113.569 30.0007 113.571H24.6436L28.9293 70.7142C33.2914 70.7094 37.5605 69.4524 41.2293 67.0928C48.965 62.1642 60.6864 53.2071 58.1578 41.8071C57.3007 37.9714 56.9793 34.2213 61.0721 32.1428C65.615 29.8285 69.965 32.7642 72.0864 36.4714C79.2221 48.9642 66.7507 68.5714 66.7507 68.5714H97.5007C101.051 68.5714 103.929 71.4495 103.929 74.9999C103.934 75.7319 103.803 76.4584 103.544 77.1428C103.239 78.0496 102.725 78.8719 102.044 79.5428C100.84 80.7501 99.2054 81.4286 97.5007 81.4285H99.6436C103.194 81.4285 106.072 84.3067 106.072 87.8571Z" fill="#FFCEB6"/>
<path d="M101.4 102.857C101.096 103.764 100.582 104.586 99.9 105.257C98.6965 106.465 97.0619 107.143 95.3571 107.143H84.6429C83.4594 107.143 82.5 106.184 82.5 105C82.5 103.817 83.4594 102.857 84.6429 102.857H101.4Z" fill="#FFBFA1"/>
<path d="M105.686 90C105.381 90.9068 104.868 91.7291 104.186 92.4C102.982 93.6073 101.348 94.2859 99.6429 94.2857H84.6429C83.4594 94.2857 82.5 93.3263 82.5 92.1429C82.5 90.9594 83.4594 90 84.6429 90H105.686Z" fill="#FFBFA1"/>
<path d="M103.543 77.1428C103.239 78.0497 102.725 78.8719 102.043 79.5428C100.839 80.7502 99.2047 81.4287 97.5 81.4285H84.6429C83.4594 81.4285 82.5 80.4691 82.5 79.2857C82.5 78.1022 83.4594 77.1428 84.6429 77.1428H103.543Z" fill="#FFBFA1"/>
<path d="M22.5003 64.2856H11.786C8.23559 64.2856 5.35742 67.1638 5.35742 70.7142V113.571C5.35742 117.122 8.23559 120 11.786 120H22.5003C26.0507 120 28.9289 117.122 28.9289 113.571V70.7142C28.9289 67.1638 26.0507 64.2856 22.5003 64.2856Z" fill="#01A796"/>
<path d="M103.929 47.143C102.746 47.143 101.786 46.1836 101.786 45.0001V40.7144C101.786 39.5309 102.746 38.5715 103.929 38.5715C105.112 38.5715 106.072 39.5309 106.072 40.7144V45.0001C106.072 46.1836 105.112 47.143 103.929 47.143Z" fill="#665E93"/>
<path d="M103.929 60.0001C102.746 60.0001 101.786 59.0408 101.786 57.8573V53.5716C101.786 52.3881 102.746 51.4287 103.929 51.4287C105.112 51.4287 106.072 52.3881 106.072 53.5716V57.8573C106.072 59.0408 105.112 60.0001 103.929 60.0001Z" fill="#665E93"/>
<path d="M112.501 51.4288H108.215C107.032 51.4288 106.072 50.4694 106.072 49.2859C106.072 48.1025 107.032 47.1431 108.215 47.1431H112.501C113.684 47.1431 114.644 48.1025 114.644 49.2859C114.644 50.4694 113.684 51.4288 112.501 51.4288Z" fill="#665E93"/>
<path d="M99.6434 51.4288H95.3577C94.1742 51.4288 93.2148 50.4694 93.2148 49.2859C93.2148 48.1025 94.1742 47.1431 95.3577 47.1431H99.6434C100.827 47.1431 101.786 48.1025 101.786 49.2859C101.786 50.4694 100.827 51.4288 99.6434 51.4288Z" fill="#665E93"/>
<path d="M54.6433 17.1428C54.075 17.1427 53.5301 16.9169 53.1283 16.515L49.914 13.3007C49.357 12.7627 49.1336 11.966 49.3297 11.2168C49.5258 10.4675 50.1109 9.88245 50.8601 9.68635C51.6093 9.49024 52.406 9.71365 52.944 10.2707L56.1583 13.485C56.771 14.0978 56.9542 15.0193 56.6226 15.82C56.291 16.6206 55.5099 17.1427 54.6433 17.1428Z" fill="#665E93"/>
<path d="M45.0007 7.50004C44.4325 7.49991 43.8875 7.27407 43.4857 6.87218L40.2714 3.65789C39.4594 2.81708 39.471 1.48057 40.2976 0.653996C41.1241 -0.172576 42.4606 -0.18419 43.3015 0.627893L46.5157 3.84218C47.1284 4.45502 47.3116 5.37654 46.98 6.17715C46.6484 6.97776 45.8673 7.49985 45.0007 7.50004Z" fill="#665E93"/>
<path d="M41.786 17.1428C40.9195 17.1427 40.1383 16.6206 39.8067 15.82C39.4751 15.0193 39.6584 14.0978 40.271 13.485L43.4853 10.2707C44.0233 9.71365 44.82 9.49024 45.5692 9.68635C46.3185 9.88245 46.9035 10.4675 47.0997 11.2168C47.2958 11.966 47.0724 12.7627 46.5153 13.3007L43.301 16.515C42.8992 16.9169 42.3543 17.1427 41.786 17.1428Z" fill="#665E93"/>
<path d="M51.4286 7.50002C50.562 7.49983 49.7809 6.97774 49.4493 6.17713C49.1177 5.37652 49.3009 4.45501 49.9136 3.84216L53.1279 0.627875C53.6659 0.070825 54.4626 -0.152581 55.2118 0.0435239C55.961 0.239628 56.5461 0.824725 56.7422 1.57393C56.9383 2.32314 56.7149 3.11986 56.1579 3.65787L52.9436 6.87216C52.5418 7.27405 51.9969 7.4999 51.4286 7.50002Z" fill="#665E93"/>
<path d="M99.9968 18.6965C94.608 20.7367 90.36 25.0004 88.3396 30.3965C88.177 30.8172 87.7684 31.0911 87.3174 31.0815C86.8665 31.0719 86.4699 30.7809 86.3253 30.3537C84.2804 24.983 80.0389 20.7414 74.6682 18.6965C74.2291 18.5575 73.9307 18.15 73.9307 17.6894C73.9307 17.2288 74.2291 16.8213 74.6682 16.6823C80.0506 14.6554 84.2985 10.4075 86.3253 5.02511C86.4644 4.58601 86.8719 4.2876 87.3325 4.2876C87.7931 4.2876 88.2006 4.58601 88.3396 5.02511C90.3667 10.4223 94.635 14.675 100.04 16.6823C100.46 16.8449 100.734 17.2535 100.725 17.7044C100.715 18.1554 100.424 18.552 99.9968 18.6965Z" fill="#FFC638"/>
<path d="M36.5148 37.5642C33.5586 39.0108 31.1685 41.4009 29.722 44.3571C29.559 44.7455 29.1789 44.9983 28.7577 44.9983C28.3364 44.9983 27.9563 44.7455 27.7934 44.3571C26.3514 41.3976 23.96 39.0062 21.0005 37.5642C20.6121 37.4013 20.3594 37.0212 20.3594 36.6C20.3594 36.1787 20.6121 35.7986 21.0005 35.6357C23.96 34.1937 26.3514 31.8023 27.7934 28.8428C27.9563 28.4544 28.3364 28.2017 28.7577 28.2017C29.1789 28.2017 29.559 28.4544 29.722 28.8428C31.1685 31.799 33.5586 34.1891 36.5148 35.6357C36.9032 35.7986 37.156 36.1787 37.156 36.6C37.156 37.0212 36.9032 37.4013 36.5148 37.5642Z" fill="#FFC638"/>
</g>
<defs>
<clipPath id="clip0_1_4087">
<rect width="120" height="120" fill="white"/>
</clipPath>
</defs>
</svg>
