<svg width="403" height="366" viewBox="0 0 403 366" fill="none" xmlns="http://www.w3.org/2000/svg">
<path d="M53.7974 273.94C0.26049 171.577 60.7911 148.66 114.772 90.3728C159.213 42.3859 166.605 -4.5572 263.435 4.02059C322.868 9.28546 326.705 63.6705 347 120C367.439 176.73 412.394 227.605 373.916 273.94C337.458 317.842 290.405 314.913 233.797 308.824C185.951 303.677 117.068 394.913 53.7974 273.94Z" stroke="#01A796" stroke-opacity="0.2" stroke-width="6"/>
<path fillRule="evenodd" clipRule="evenodd" d="M282 366C309.614 366 332 343.614 332 316C332 288.386 309.614 266 282 266C254.386 266 232 288.386 232 316C232 343.614 254.386 366 282 366ZM282 346C298.569 346 312 332.569 312 316C312 299.431 298.569 286 282 286C265.431 286 252 299.431 252 316C252 332.569 265.431 346 282 346Z" fill="#01A796" fill-opacity="0.1"/>
<path fillRule="evenodd" clipRule="evenodd" d="M20 171C31.0457 171 40 162.046 40 151C40 139.954 31.0457 131 20 131C8.9543 131 0 139.954 0 151C0 162.046 8.9543 171 20 171ZM20 163C26.6274 163 32 157.627 32 151C32 144.373 26.6274 139 20 139C13.3726 139 8 144.373 8 151C8 157.627 13.3726 163 20 163Z" fill="#01A796" fill-opacity="0.1"/>
<path d="M343 51C343 67.5687 356.431 81 373 81C389.569 81 403 67.5687 403 51C403 34.4313 389.569 21 373 21C356.431 21 343 34.4313 343 51Z" fill="#01A796" fill-opacity="0.1"/>
<path d="M130.817 46C100.326 46.0019 67.7327 64.2774 50.6716 95.119C15.9169 157.946 123.556 316.865 220.651 321.866C311.033 326.522 435.507 208.781 371.313 111.114C335.87 57.1899 284.881 64.2791 216.129 55.712C180.986 51.3328 184.839 45.9966 130.817 46Z" fill="#F2F8F8"/>
<path d="M315.347 178.925H146.06C142.599 178.925 142.596 184.773 146.06 184.773H315.347C318.239 184.773 318.817 178.925 315.347 178.925Z" fill="#C4E5E2"/>
<path d="M242.88 138.629C241.216 139.184 237.032 140.384 236.447 140.969L244.05 146.356L270.951 153.251L269.211 146.356C269.211 146.356 263.145 147.458 259.269 146.947C254.809 146.36 250.496 144.608 248.742 142.856C247.511 141.627 248.231 141.146 246.988 139.93C245.162 138.144 244.635 138.045 242.88 138.629Z" fill="#F3C89C"/>
<path d="M264.523 146.234C267.448 144.48 267.731 143.611 269.787 141.556L273.88 145.649L268.032 151.497C267.448 149.743 265.693 147.404 264.523 146.234Z" fill="#409090"/>
<path d="M290.254 125.17C290.254 122.247 288.687 118.924 287.33 117.568C286.16 116.399 284.406 116.401 283.236 117.569C283.236 117.569 269.785 128.972 268.031 140.374C267.579 143.308 269.785 148.563 269.785 148.563C269.785 148.563 272.669 154.773 272.125 159.673C271.54 164.94 267.446 174.881 266.861 182.481H293.763C293.763 182.481 292.309 173.646 290.254 167.864C288.68 163.435 286.429 159.566 286.16 155.582C285.756 149.588 288.499 140.374 288.499 140.374C289.641 133.751 290.254 132.189 290.254 125.17Z" fill="#01A796"/>
<path d="M288.499 140.374C289.641 133.751 290.254 132.189 290.254 125.17C290.254 125.17 289.489 128.105 288.499 131.029C284.367 143.234 272.125 159.673 272.125 159.673C271.979 160.983 271.616 162.583 271.145 164.364C271.145 164.364 274.464 166.118 277.388 164.364C280.312 162.025 282.066 157.346 283.821 156.176C285.285 155.201 286.16 155.582 286.16 155.582C285.756 149.588 288.499 140.374 288.499 140.374Z" fill="#409090"/>
<path d="M278.557 157.337C283.82 147.395 286.16 140.962 288.499 131.02L280.312 126.926C277.972 134.529 275.048 139.792 268.615 149.149C273.294 150.904 276.218 154.413 278.557 157.337Z" fill="#01A796"/>
<path d="M268.615 149.149C273.293 150.903 276.217 154.412 278.557 157.336C278.557 157.336 277.675 160.124 276.217 160.269C270.369 160.853 254.579 153.249 246.392 151.495C243.257 150.824 244.33 151.495 241.125 151.495C238.785 151.495 237.749 151.045 237.031 150.91C236.312 150.776 235.556 151.344 234.692 150.91C233.52 150.323 238.861 146.744 240.542 145.062C240.807 144.798 240.542 143.602 239.959 143.31C237.62 142.139 233.847 142.086 234.111 141.555C234.693 140.384 237.63 141.011 239.959 140.97C242.512 140.925 244.567 140.937 246.392 142.723C247.635 143.939 246.916 144.42 248.146 145.649C249.901 147.401 254.213 149.153 258.673 149.74C262.549 150.251 268.615 149.149 268.615 149.149Z" fill="#FBDAAF"/>
<path d="M241.125 151.495C238.786 151.495 237.75 151.045 237.031 150.911C237.031 150.911 240.54 148.571 241.71 146.817C241.125 147.987 239.078 149.741 238.201 150.326C237.513 150.785 238.867 151.246 239.371 150.911C240.699 150.025 241.357 149.81 242.106 148.995C242.36 148.708 242.62 148.376 242.879 147.987C242.596 148.412 242.346 148.735 242.106 148.995C241.219 150.001 240.41 150.456 239.955 150.911C239.955 151.495 240.557 151.275 241.125 150.911C242.363 150.117 242.536 149.839 243.464 148.571C242.295 150.326 242.267 150.125 241.125 151.495Z" fill="#F3C89C"/>
<path d="M268.615 149.149C275.048 139.792 277.972 134.528 280.312 126.926C280.312 126.926 280.896 125.181 283.236 125.181C283.82 125.181 283.846 125.434 283.82 126.347C283.755 128.642 285.618 129.007 283.82 130.435C282.556 131.439 280.911 130.105 280.312 131.604C279.142 134.528 269.785 147.979 269.785 148.564C269.785 149.227 270.55 149.916 271.205 150.384C271.52 150.568 271.827 150.761 272.124 150.961C272.124 150.961 271.695 150.734 271.205 150.384C270.405 149.915 269.545 149.497 268.615 149.149Z" fill="#6DCBC1"/>
<path d="M277.966 278.091C277.966 274.94 277.966 272.84 276.916 270.214H265.363C265.363 270.214 264.663 272.198 262.737 272.84C260.811 273.482 256.961 272.84 253.81 273.89C252.234 274.415 252.234 277.566 252.234 277.566C260.637 279.141 269.039 278.616 277.966 278.091Z" fill="#382768"/>
<path d="M264.481 272.4L266.115 273.217C266.167 273.243 266.141 273.32 266.085 273.311L264.838 273.103L265.311 273.813C265.334 273.846 265.31 273.891 265.27 273.891H264.313L264.666 274.244C264.704 274.282 264.662 274.346 264.612 274.326L263.525 273.891H262.387L262.691 274.803C262.706 274.848 262.656 274.887 262.616 274.86L261.3 273.982C261.258 273.955 261.278 273.891 261.327 273.891H262.387L262.246 273.468C262.232 273.428 262.272 273.39 262.312 273.406L263.525 273.891H264.313L263.372 272.951C263.338 272.917 263.368 272.858 263.416 272.866L264.838 273.103L264.417 272.472C264.388 272.429 264.435 272.377 264.481 272.4Z" fill="#D7D7D7" stroke="#EDEDED"/>
<path d="M252.234 277.565C260.637 279.14 269.039 278.615 277.966 278.09C277.966 277.535 277.966 277.013 277.96 276.514C273.765 277.564 271.365 275.528 269.039 275.99C266.713 276.452 267.036 277.305 264.313 277.565C259.647 278.01 252.417 275.989 252.417 275.989C252.234 276.817 252.234 277.565 252.234 277.565Z" fill="#D7D7D7"/>
<path d="M283.814 279.572C283.814 276.063 283.814 273.723 282.644 270.799H269.779C269.779 270.799 268.999 273.008 266.854 273.723C264.71 274.438 260.422 273.723 256.913 274.893C255.158 275.478 255.158 278.987 255.158 278.987C264.515 280.741 273.872 280.156 283.814 279.572Z" fill="#503895"/>
<path d="M269.685 274.893H265.265C265.215 274.893 265.196 274.957 265.237 274.985L266.733 275.982C266.772 276.008 266.823 275.97 266.808 275.924L266.303 274.411C266.289 274.37 266.329 274.333 266.369 274.348L268.967 275.387C269.018 275.408 269.059 275.344 269.021 275.306L267.548 273.834C267.514 273.799 267.544 273.741 267.592 273.749L270.619 274.254C270.676 274.263 270.701 274.185 270.649 274.16L268.776 273.223C268.73 273.2 268.684 273.253 268.712 273.295L269.726 274.815C269.748 274.849 269.725 274.893 269.685 274.893Z" stroke="#EDEDED"/>
<path d="M255.158 278.986C264.515 280.74 273.872 280.155 283.814 279.571C283.814 278.953 283.814 278.371 283.808 277.816C279.136 278.985 276.462 276.717 273.872 277.232C271.282 277.747 271.642 278.696 268.609 278.986C263.414 279.482 255.361 277.231 255.361 277.231C255.158 278.153 255.158 278.986 255.158 278.986Z" fill="#EDEDED"/>
<path d="M278.551 220.505C280.891 211.732 288.493 195.358 288.493 182.492H268.61C265.687 194.188 261.593 201.454 261.592 216.411C261.591 228.936 264.127 264.789 264.476 269.663C264.501 270.015 264.708 270.313 265.03 270.458C269.505 272.479 275.501 272.472 283.019 270.435C283.482 270.31 283.785 269.872 283.742 269.394C283.278 264.179 280.674 235.361 278.551 220.505Z" fill="#60858D"/>
<path d="M280.891 221.674C283.23 212.902 290.833 196.527 290.833 183.661H268.61C265.687 195.357 263.933 206.717 263.932 221.674C263.931 234.156 266.45 266.278 266.812 270.841C266.84 271.19 267.046 271.481 267.365 271.625C271.84 273.649 277.838 273.642 285.359 271.605C285.822 271.479 286.124 271.041 286.082 270.564C285.617 265.349 283.014 236.531 280.891 221.674Z" fill="#409090"/>
<path d="M284.401 103.541C284.401 109.974 286.157 113.483 288.495 119.331L272.121 130.443C272.121 130.443 279.462 121.569 277.969 115.822C277.455 113.845 276.799 111.144 276.799 111.144C276.799 111.144 273.875 112.898 271.536 113.483C270.05 113.855 268.982 113.053 268.612 112.313C268.327 111.745 268.181 111.176 268.106 110.741C268.028 110.293 267.712 109.908 267.298 109.721C267.084 109.624 266.898 109.509 266.858 109.389C266.756 109.083 266.858 108.805 266.858 108.805C266.279 108.805 266.273 108.23 266.273 108.22L266.273 108.219L266.272 106.88C266.272 106.328 265.822 105.903 265.275 105.827C265.087 105.801 264.92 105.764 264.763 105.714C264.263 105.555 264.133 104.94 264.359 104.466C264.899 103.333 265.754 101.238 265.688 99.4475C265.589 96.7762 264.622 95.108 264.518 91.2601C264.465 89.2811 265.308 86.9933 265.845 85.7494C266.066 85.2361 266.676 85.0444 267.168 85.3094L280.951 92.7314C281.275 92.9058 281.477 93.2421 281.473 93.6099C281.459 94.9035 281.395 98.068 281.112 100.726C281.032 101.476 281.672 101.899 282.137 101.306C283.403 99.6923 284.827 96.8197 287.911 95.9386C289.665 95.4373 291.705 97.2065 292.004 99.4475C292.304 101.688 287.326 104.126 285.571 104.126C284.748 104.126 284.401 103.541 284.401 103.541Z" fill="#FBDAAF"/>
<path d="M285.572 104.125C284.749 104.125 284.402 103.54 284.402 103.54C284.402 108.802 285.577 112.108 287.284 116.337C287.284 116.337 287.912 115.183 287.912 112.843C287.912 112.498 287.782 112.09 287.645 111.754C287.568 111.565 287.818 111.294 288.016 111.344C288.83 111.55 290.29 111.643 292.005 110.504C293.367 109.6 293.679 107.327 293.744 106.614C293.755 106.496 293.859 106.408 293.977 106.42C294.675 106.488 296.91 106.627 298.438 105.825C299.973 105.021 301.756 102.756 302.338 101.981C302.428 101.861 302.357 101.688 302.21 101.655C301.245 101.434 298.438 100.544 298.438 97.6381C298.438 93.0135 300.061 91.8821 299.023 87.1115C297.985 82.3408 288.013 76.0009 278.554 76C272.706 75.9994 263.349 80.7588 261.01 84.8261C259.145 88.0689 257.921 92.4429 259.255 95.9375C260.483 99.1531 265.689 99.4464 265.689 99.4464C265.589 96.7751 264.623 95.1069 264.519 91.259C264.457 88.962 265.603 86.2491 266.075 85.2352C266.149 85.0772 266.372 85.0923 266.436 85.2542C268.747 91.0379 274.022 93.2808 280.402 93.0711C280.983 93.052 281.477 93.506 281.467 94.0872C281.443 95.576 281.365 98.3523 281.113 100.725C281.033 101.475 281.673 101.898 282.138 101.305C283.404 99.6912 284.828 96.8187 287.912 95.9375C289.666 95.4362 291.706 97.2054 292.005 99.4464C292.305 101.687 287.327 104.125 285.572 104.125Z" fill="#54271E"/>
<path d="M285.572 104.126C284.749 104.126 284.402 103.541 284.402 103.541C284.402 108.803 285.577 112.109 287.284 116.338C287.284 116.338 287.912 115.183 287.912 112.844C287.912 112.499 287.782 112.091 287.645 111.755C287.568 111.566 287.819 111.295 288.016 111.345C288.83 111.55 290.29 111.644 292.005 110.505C293.367 109.6 293.679 107.328 293.744 106.615C293.755 106.497 293.86 106.409 293.977 106.421C294.676 106.489 296.91 106.628 298.438 105.826C299.973 105.021 301.756 102.757 302.338 101.982C302.428 101.862 302.357 101.689 302.211 101.655C301.245 101.435 298.438 100.544 298.438 97.639C298.438 94.7182 299.086 93.1908 299.301 91.2599C299.301 91.2599 294.342 93.2736 289.08 92.3747C286.093 91.8645 283.892 89.1661 283.357 88.4536C283.288 88.3606 283.155 88.3402 283.059 88.4058C282.361 88.8825 279.566 90.5379 275.046 90.0355C271.233 89.6117 267.829 85.0106 267.034 83.8614C266.951 83.7414 266.768 83.746 266.69 83.8695C262.749 90.1177 262.229 93.05 265.689 99.4473C265.59 96.776 264.623 95.1078 264.519 91.2599C264.457 88.9629 265.604 86.25 266.075 85.2361C266.149 85.0781 266.372 85.0932 266.436 85.2551C268.747 91.0388 274.022 93.2818 280.403 93.072C280.984 93.0529 281.477 93.5069 281.468 94.0881C281.444 95.5769 281.366 98.3532 281.113 100.726C281.033 101.475 281.673 101.899 282.138 101.306C283.404 99.6921 284.828 96.8196 287.912 95.9385C289.666 95.4371 291.706 97.2063 292.005 99.4473C292.305 101.688 287.327 104.126 285.572 104.126Z" fill="#3F1C15"/>
<path d="M276.379 76.1856C277.14 76.0647 277.87 75.9999 278.553 76C285.187 76.0006 292.072 79.1189 295.952 82.6272C296.049 82.715 296.126 82.8204 296.173 82.9426C296.355 83.4165 296.757 84.6947 296.097 85.3547C294.343 87.1092 287.911 87.1092 282.647 85.3547C278.789 84.069 275.823 81.261 275.043 78.9218C274.561 77.4763 275.668 76.5737 276.073 76.3006C276.164 76.2387 276.269 76.203 276.379 76.1856Z" fill="#6A3028"/>
<path d="M287.91 98.2687C286.458 98.7525 285.869 101.139 285.664 102.307C285.644 102.42 285.799 102.465 285.851 102.364C286.3 101.489 287.2 100.013 287.91 100.614C288.299 100.944 286.9 101.494 287.325 101.777C289.079 102.947 291.488 99.1755 290.249 98.2744C289.51 97.7371 288.776 97.9798 287.91 98.2687Z" fill="#F3C89C"/>
<path d="M271.491 101.73C270.899 101.112 269.799 99.449 269.78 98.8708C269.779 98.8601 269.781 98.85 269.785 98.8398C270.381 97.0951 273.29 97.0972 273.873 97.6798C275.03 98.8368 273.327 101.137 271.592 101.754C271.556 101.766 271.517 101.757 271.491 101.73Z" fill="#F9F9F6"/>
<path d="M271.491 101.73C270.899 101.111 269.799 99.4485 269.78 98.8704C269.779 98.8597 269.781 98.8496 269.784 98.8395C270.001 98.2071 270.521 97.8042 271.123 97.5752C271.164 97.5597 271.211 97.574 271.237 97.6094C272.119 98.8134 272.509 99.9516 272.52 101.214C272.52 101.246 272.504 101.277 272.477 101.295C272.193 101.489 271.893 101.646 271.592 101.753C271.556 101.766 271.517 101.757 271.491 101.73Z" fill="#282828"/>
<path d="M269.805 98.7847C270.443 97.0948 273.297 97.1029 273.874 97.6794C274.251 98.0561 274.142 97.6806 274.017 97.3662C273.931 97.1512 273.76 96.9839 273.545 96.898C273.074 96.7097 272.191 96.4038 271.535 96.4543C270.298 96.5494 269.335 98.0317 269.209 98.2339C269.2 98.2491 269.195 98.266 269.197 98.2839C269.205 98.3936 269.265 98.799 269.706 98.8499C269.75 98.855 269.79 98.8258 269.805 98.7847Z" fill="#54271E"/>
<circle r="0.584814" transform="matrix(-1 0 0 1 271.183 98.2079)" fill="white"/>
<path d="M268.024 95.2848C267.453 95.8529 266.883 95.3052 266.858 94.7345C266.857 94.7102 266.866 94.6874 266.882 94.6694C267.054 94.4804 268.095 93.367 269.197 92.9433C269.784 92.7173 270.613 92.7401 271.238 92.806C271.356 92.8185 271.348 93.0011 271.23 93.0189C270.739 93.0934 270.154 93.2397 269.781 93.5274C268.999 94.1318 268.087 95.2108 268.03 95.2783C268.028 95.2806 268.026 95.2828 268.024 95.2848Z" fill="#54271E"/>
<path d="M266.856 108.802C266.279 108.802 266.272 108.231 266.271 108.218V108.217C266.272 108.204 266.278 107.633 266.856 107.633C268.289 107.633 270.113 106.852 270.733 106.566C270.813 106.529 270.901 106.608 270.871 106.692C270.354 108.148 269.796 108.758 268.397 109.72C268.162 109.882 267.866 109.934 267.597 109.838C267.288 109.728 266.915 109.562 266.856 109.387C266.754 109.081 266.856 108.802 266.856 108.802Z" fill="#E99286"/>
<path d="M266.828 108.921C266.841 108.849 266.857 108.804 266.857 108.804C266.795 108.804 266.739 108.798 266.689 108.786C268.068 108.55 269.257 107.899 270.365 107.05C269.78 107.635 268.026 108.804 266.828 108.921Z" fill="#B96B62"/>
<path d="M266.273 105.878C265.598 105.878 265.152 105.835 264.763 105.712C264.263 105.553 264.133 104.937 264.359 104.463L264.386 104.406C265.434 105.12 266.018 105.259 266.816 104.981C267.004 104.915 267.177 105.113 267.053 105.27C266.817 105.57 266.515 105.878 266.273 105.878Z" fill="#F3C89C"/>
<path d="M277.969 115.82C277.455 113.843 276.799 111.141 276.799 111.141C276.799 111.141 281.478 108.802 283.232 106.463C283.845 105.646 284.401 103.539 284.401 103.539C284.401 105.192 284.517 106.652 284.729 108.008C284.778 108.319 284.684 108.637 284.469 108.866L277.969 115.82Z" fill="#F3C89C"/>
<path d="M315.347 178.925H146.06C142.599 178.925 142.596 184.773 146.06 184.773H315.347C318.239 184.773 318.817 178.925 315.347 178.925Z" fill="#C4E5E2"/>
<path d="M242.88 138.629C241.216 139.184 237.032 140.384 236.447 140.969L244.05 146.356L270.951 153.251L269.211 146.356C269.211 146.356 263.145 147.458 259.269 146.947C254.809 146.36 250.496 144.608 248.742 142.856C247.511 141.627 248.231 141.146 246.988 139.93C245.162 138.144 244.635 138.045 242.88 138.629Z" fill="#FACAB1"/>
<path d="M264.523 146.234C267.448 144.48 267.731 143.611 269.787 141.556L273.88 145.649L268.032 151.497C267.448 149.743 265.693 147.404 264.523 146.234Z" fill="#409090"/>
<path d="M290.254 125.17C290.254 122.247 288.687 118.924 287.33 117.568C286.16 116.399 284.406 116.401 283.236 117.569C283.236 117.569 269.785 128.972 268.031 140.374C267.579 143.308 269.785 148.563 269.785 148.563C269.785 148.563 272.669 154.773 272.125 159.673C271.54 164.94 267.446 174.881 266.861 182.481H293.763C293.763 182.481 292.309 173.646 290.254 167.864C288.68 163.435 286.429 159.566 286.16 155.582C285.756 149.588 288.499 140.374 288.499 140.374C289.641 133.751 290.254 132.189 290.254 125.17Z" fill="#01A796"/>
<path d="M288.499 140.374C289.641 133.751 290.254 132.189 290.254 125.17C290.254 125.17 289.489 128.105 288.499 131.029C284.367 143.234 272.125 159.673 272.125 159.673C271.979 160.983 271.616 162.583 271.145 164.364C271.145 164.364 274.464 166.118 277.388 164.364C280.312 162.025 282.066 157.346 283.821 156.176C285.285 155.201 286.16 155.582 286.16 155.582C285.756 149.588 288.499 140.374 288.499 140.374Z" fill="#409090"/>
<path d="M278.557 157.337C283.82 147.395 286.16 140.962 288.499 131.02L280.312 126.926C277.972 134.529 275.048 139.792 268.615 149.149C273.294 150.904 276.218 154.413 278.557 157.337Z" fill="#01A796"/>
<path d="M268.615 149.149C273.293 150.903 276.217 154.412 278.557 157.336C278.557 157.336 277.675 160.124 276.217 160.269C270.369 160.853 254.579 153.249 246.392 151.495C243.257 150.824 244.33 151.495 241.125 151.495C238.785 151.495 237.749 151.045 237.031 150.91C236.312 150.776 235.556 151.344 234.692 150.91C233.52 150.323 238.861 146.744 240.542 145.062C240.807 144.798 240.542 143.602 239.959 143.31C237.62 142.139 233.847 142.086 234.111 141.555C234.693 140.384 237.63 141.011 239.959 140.97C242.512 140.925 244.567 140.937 246.392 142.723C247.635 143.939 246.916 144.42 248.146 145.649C249.901 147.401 254.213 149.153 258.673 149.74C262.549 150.251 268.615 149.149 268.615 149.149Z" fill="#FFDAC0"/>
<path d="M241.125 151.495C238.786 151.495 237.75 151.045 237.031 150.911C237.031 150.911 240.54 148.571 241.71 146.817C241.125 147.987 239.078 149.741 238.201 150.326C237.513 150.785 238.867 151.246 239.371 150.911C240.699 150.025 241.357 149.81 242.106 148.995C242.36 148.708 242.62 148.376 242.879 147.987C242.596 148.412 242.346 148.735 242.106 148.995C241.219 150.001 240.41 150.456 239.955 150.911C239.955 151.495 240.557 151.275 241.125 150.911C242.363 150.117 242.536 149.839 243.464 148.571C242.295 150.326 242.267 150.125 241.125 151.495Z" fill="#F3C89C"/>
<path d="M268.615 149.149C275.048 139.792 277.972 134.528 280.312 126.926C280.312 126.926 280.896 125.181 283.236 125.181C283.82 125.181 283.846 125.434 283.82 126.347C283.755 128.642 285.618 129.007 283.82 130.435C282.556 131.439 280.911 130.105 280.312 131.604C279.142 134.528 269.785 147.979 269.785 148.564C269.785 149.227 270.55 149.916 271.205 150.384C271.52 150.568 271.827 150.761 272.124 150.961C272.124 150.961 271.695 150.734 271.205 150.384C270.405 149.915 269.545 149.497 268.615 149.149Z" fill="#6DCBC1"/>
<path d="M277.966 278.09C277.966 274.94 277.966 272.839 276.916 270.213H265.363C265.363 270.213 264.663 272.197 262.737 272.839C260.811 273.481 256.961 272.839 253.81 273.889C252.234 274.414 252.234 277.565 252.234 277.565C260.637 279.141 269.039 278.616 277.966 278.09Z" fill="#382768"/>
<path d="M264.481 272.399L266.115 273.217C266.167 273.242 266.141 273.32 266.085 273.311L264.838 273.103L265.311 273.813C265.334 273.846 265.31 273.89 265.27 273.89H264.313L264.666 274.243C264.704 274.282 264.662 274.345 264.612 274.325L263.525 273.89H262.387L262.691 274.802C262.706 274.847 262.656 274.886 262.616 274.86L261.3 273.982C261.258 273.955 261.278 273.89 261.327 273.89H262.387L262.246 273.468C262.232 273.427 262.272 273.389 262.312 273.405L263.525 273.89H264.313L263.372 272.95C263.338 272.916 263.368 272.858 263.416 272.866L264.838 273.103L264.417 272.472C264.388 272.429 264.435 272.376 264.481 272.399Z" fill="#D7D7D7" stroke="#EDEDED"/>
<path d="M252.234 277.564C260.637 279.14 269.039 278.614 277.966 278.089C277.966 277.534 277.966 277.012 277.96 276.514C273.765 277.563 271.365 275.527 269.039 275.989C266.713 276.452 267.036 277.304 264.313 277.564C259.647 278.009 252.417 275.989 252.417 275.989C252.234 276.816 252.234 277.564 252.234 277.564Z" fill="#D7D7D7"/>
<path d="M283.814 279.571C283.814 276.062 283.814 273.723 282.644 270.799H269.779C269.779 270.799 268.999 273.008 266.854 273.723C264.71 274.438 260.422 273.723 256.913 274.893C255.158 275.477 255.158 278.986 255.158 278.986C264.515 280.741 273.872 280.156 283.814 279.571Z" fill="#503895"/>
<path d="M269.685 274.893H265.265C265.215 274.893 265.196 274.957 265.237 274.984L266.733 275.981C266.772 276.008 266.823 275.969 266.808 275.924L266.303 274.41C266.289 274.37 266.329 274.332 266.369 274.348L268.967 275.387C269.018 275.407 269.059 275.344 269.021 275.305L267.548 273.833C267.514 273.799 267.544 273.741 267.592 273.749L270.619 274.253C270.676 274.263 270.701 274.185 270.649 274.159L268.776 273.222C268.73 273.2 268.684 273.252 268.712 273.295L269.726 274.815C269.748 274.848 269.725 274.893 269.685 274.893Z" stroke="#EDEDED"/>
<path d="M255.158 278.985C264.515 280.74 273.872 280.155 283.814 279.57C283.814 278.952 283.814 278.371 283.808 277.816C279.136 278.985 276.462 276.717 273.872 277.232C271.282 277.747 271.642 278.696 268.609 278.985C263.414 279.481 255.361 277.231 255.361 277.231C255.158 278.153 255.158 278.985 255.158 278.985Z" fill="#EDEDED"/>
<path d="M278.551 220.504C280.891 211.732 288.493 195.357 288.493 182.491H268.61C265.687 194.187 261.593 201.453 261.592 216.41C261.591 228.936 264.127 264.789 264.476 269.662C264.501 270.014 264.708 270.312 265.03 270.458C269.505 272.479 275.501 272.471 283.019 270.435C283.482 270.309 283.785 269.871 283.742 269.394C283.278 264.179 280.674 235.361 278.551 220.504Z" fill="#60858D"/>
<path d="M280.891 221.674C283.23 212.901 290.833 196.527 290.833 183.661H268.61C265.687 195.357 263.933 206.717 263.932 221.674C263.931 234.155 266.45 266.278 266.812 270.84C266.84 271.189 267.046 271.481 267.365 271.625C271.84 273.648 277.838 273.641 285.359 271.604C285.822 271.479 286.124 271.041 286.082 270.563C285.617 265.348 283.014 236.53 280.891 221.674Z" fill="#409090"/>
<path d="M284.401 103.541C284.401 109.974 286.157 113.483 288.495 119.331L272.121 130.443C272.121 130.443 279.462 121.569 277.969 115.822C277.455 113.845 276.799 111.144 276.799 111.144C276.799 111.144 273.875 112.898 271.536 113.483C270.05 113.855 268.982 113.053 268.612 112.313C268.327 111.745 268.181 111.176 268.106 110.741C268.028 110.293 267.712 109.908 267.298 109.721C267.084 109.624 266.898 109.509 266.858 109.389C266.756 109.083 266.858 108.805 266.858 108.805C266.279 108.805 266.273 108.23 266.273 108.22L266.273 108.219L266.272 106.88C266.272 106.328 265.822 105.903 265.275 105.827C265.087 105.801 264.92 105.764 264.763 105.714C264.263 105.555 264.133 104.94 264.359 104.466C264.899 103.333 265.754 101.238 265.688 99.4475C265.589 96.7762 264.622 95.108 264.518 91.2601C264.465 89.2811 265.308 86.9933 265.845 85.7494C266.066 85.2361 266.676 85.0444 267.168 85.3094L280.951 92.7314C281.275 92.9058 281.477 93.2421 281.473 93.6099C281.459 94.9035 281.395 98.068 281.112 100.726C281.032 101.476 281.672 101.899 282.137 101.306C283.403 99.6923 284.827 96.8197 287.911 95.9386C289.665 95.4373 291.705 97.2065 292.004 99.4475C292.304 101.688 287.326 104.126 285.571 104.126C284.748 104.126 284.401 103.541 284.401 103.541Z" fill="#FFDAC0"/>
<path d="M285.572 104.125C284.749 104.125 284.402 103.54 284.402 103.54C284.402 108.802 285.577 112.108 287.284 116.337C287.284 116.337 287.912 115.183 287.912 112.843C287.912 112.498 287.782 112.09 287.645 111.754C287.568 111.565 287.818 111.294 288.016 111.344C288.83 111.55 290.29 111.643 292.005 110.504C293.367 109.6 293.679 107.327 293.744 106.614C293.755 106.496 293.859 106.408 293.977 106.42C294.675 106.488 296.91 106.627 298.438 105.825C299.973 105.021 301.756 102.756 302.338 101.981C302.428 101.861 302.357 101.688 302.21 101.655C301.245 101.434 298.438 100.544 298.438 97.6381C298.438 93.0135 300.061 91.8821 299.023 87.1115C297.985 82.3408 288.013 76.0009 278.554 76C272.706 75.9994 263.349 80.7588 261.01 84.8261C259.145 88.0689 257.921 92.4429 259.255 95.9375C260.483 99.1531 265.689 99.4464 265.689 99.4464C265.589 96.7751 264.623 95.1069 264.519 91.259C264.457 88.962 265.603 86.2491 266.075 85.2352C266.149 85.0772 266.372 85.0923 266.436 85.2542C268.747 91.0379 274.022 93.2808 280.402 93.0711C280.983 93.052 281.477 93.506 281.467 94.0872C281.443 95.576 281.365 98.3523 281.113 100.725C281.033 101.475 281.673 101.898 282.138 101.305C283.404 99.6912 284.828 96.8187 287.912 95.9375C289.666 95.4362 291.706 97.2054 292.005 99.4464C292.305 101.687 287.327 104.125 285.572 104.125Z" fill="#C05F28"/>
<path d="M285.572 104.126C284.749 104.126 284.402 103.541 284.402 103.541C284.402 108.803 285.577 112.109 287.284 116.338C287.284 116.338 287.912 115.183 287.912 112.844C287.912 112.499 287.782 112.091 287.645 111.755C287.568 111.566 287.819 111.295 288.016 111.345C288.83 111.55 290.29 111.644 292.005 110.505C293.367 109.6 293.679 107.328 293.744 106.615C293.755 106.497 293.86 106.409 293.977 106.421C294.676 106.489 296.91 106.628 298.438 105.826C299.973 105.021 301.756 102.757 302.338 101.982C302.428 101.862 302.357 101.689 302.211 101.655C301.245 101.435 298.438 100.544 298.438 97.639C298.438 94.7182 299.086 93.1908 299.301 91.2599C299.301 91.2599 294.342 93.2736 289.08 92.3747C286.093 91.8645 283.892 89.1661 283.357 88.4536C283.288 88.3606 283.155 88.3402 283.059 88.4058C282.361 88.8825 279.566 90.5379 275.046 90.0355C271.233 89.6117 267.829 85.0106 267.034 83.8614C266.951 83.7414 266.768 83.746 266.69 83.8695C262.749 90.1177 262.229 93.05 265.689 99.4473C265.59 96.776 264.623 95.1078 264.519 91.2599C264.457 88.9629 265.604 86.25 266.075 85.2361C266.149 85.0781 266.372 85.0932 266.436 85.2551C268.747 91.0388 274.022 93.2818 280.403 93.072C280.984 93.0529 281.477 93.5069 281.468 94.0881C281.444 95.5769 281.366 98.3532 281.113 100.726C281.033 101.475 281.673 101.899 282.138 101.306C283.404 99.6921 284.828 96.8196 287.912 95.9385C289.666 95.4371 291.706 97.2063 292.005 99.4473C292.305 101.688 287.327 104.126 285.572 104.126Z" fill="#A85424"/>
<path d="M276.379 76.1856C277.14 76.0647 277.87 75.9999 278.553 76C285.187 76.0006 292.072 79.1189 295.952 82.6272C296.049 82.715 296.126 82.8204 296.173 82.9426C296.355 83.4165 296.757 84.6947 296.097 85.3547C294.343 87.1092 287.911 87.1092 282.647 85.3547C278.789 84.069 275.823 81.261 275.043 78.9218C274.561 77.4763 275.668 76.5737 276.073 76.3006C276.164 76.2387 276.269 76.203 276.379 76.1856Z" fill="#D3692D"/>
<path d="M287.91 98.2687C286.458 98.7525 285.869 101.139 285.664 102.307C285.644 102.42 285.799 102.465 285.851 102.364C286.3 101.489 287.2 100.013 287.91 100.614C288.299 100.944 286.9 101.494 287.325 101.777C289.079 102.947 291.488 99.1755 290.249 98.2744C289.51 97.7371 288.776 97.9798 287.91 98.2687Z" fill="#FACAB1"/>
<path d="M271.491 101.73C270.899 101.111 269.799 99.4485 269.78 98.8704C269.779 98.8596 269.781 98.8495 269.785 98.8393C270.381 97.0946 273.29 97.0967 273.873 97.6793C275.03 98.8363 273.327 101.137 271.592 101.753C271.556 101.766 271.517 101.757 271.491 101.73Z" fill="#F9F9F6"/>
<path d="M271.491 101.729C270.899 101.111 269.799 99.4481 269.78 98.8699C269.779 98.8592 269.781 98.8491 269.784 98.839C270.001 98.2066 270.521 97.8037 271.123 97.5747C271.164 97.5592 271.211 97.5735 271.237 97.6089C272.119 98.8129 272.509 99.9511 272.52 101.213C272.52 101.246 272.504 101.276 272.477 101.295C272.193 101.488 271.893 101.646 271.592 101.753C271.556 101.765 271.517 101.756 271.491 101.729Z" fill="#282828"/>
<path d="M269.805 98.7842C270.443 97.0943 273.297 97.1024 273.874 97.6789C274.251 98.0556 274.142 97.6801 274.017 97.3657C273.931 97.1507 273.76 96.9835 273.545 96.8975C273.074 96.7092 272.191 96.4033 271.535 96.4538C270.298 96.5489 269.335 98.0312 269.209 98.2334C269.2 98.2487 269.195 98.2655 269.197 98.2834C269.205 98.3931 269.265 98.7985 269.706 98.8494C269.75 98.8545 269.79 98.8253 269.805 98.7842Z" fill="#54271E"/>
<circle r="0.584814" transform="matrix(-1 0 0 1 271.183 98.2074)" fill="white"/>
<path d="M268.024 95.2848C267.453 95.8529 266.883 95.3052 266.858 94.7345C266.857 94.7102 266.866 94.6874 266.882 94.6694C267.054 94.4804 268.095 93.367 269.197 92.9433C269.784 92.7173 270.613 92.7401 271.238 92.806C271.356 92.8185 271.348 93.0011 271.23 93.0189C270.739 93.0934 270.154 93.2397 269.781 93.5274C268.999 94.1318 268.087 95.2108 268.03 95.2783C268.028 95.2806 268.026 95.2828 268.024 95.2848Z" fill="#54271E"/>
<path d="M266.856 108.802C266.279 108.802 266.272 108.231 266.271 108.218V108.217C266.272 108.204 266.278 107.633 266.856 107.633C268.289 107.633 270.113 106.852 270.733 106.566C270.813 106.529 270.901 106.608 270.871 106.692C270.354 108.148 269.796 108.758 268.397 109.72C268.162 109.882 267.866 109.934 267.597 109.838C267.288 109.728 266.915 109.562 266.856 109.387C266.754 109.081 266.856 108.802 266.856 108.802Z" fill="#E99286"/>
<path d="M266.828 108.921C266.841 108.849 266.857 108.804 266.857 108.804C266.795 108.804 266.739 108.798 266.689 108.786C268.068 108.55 269.257 107.899 270.365 107.05C269.78 107.635 268.026 108.804 266.828 108.921Z" fill="#B96B62"/>
<path d="M266.273 105.878C265.598 105.878 265.152 105.836 264.763 105.712C264.263 105.553 264.133 104.938 264.359 104.464L264.386 104.407C265.434 105.121 266.018 105.26 266.816 104.982C267.004 104.916 267.177 105.113 267.053 105.27C266.817 105.57 266.515 105.878 266.273 105.878Z" fill="#FACAB1"/>
<path d="M277.969 115.82C277.455 113.843 276.799 111.142 276.799 111.142C276.799 111.142 281.478 108.802 283.232 106.463C283.845 105.646 284.401 103.539 284.401 103.539C284.401 105.192 284.517 106.652 284.729 108.009C284.778 108.319 284.684 108.637 284.469 108.867L277.969 115.82Z" fill="#FACAB1"/>
<path d="M202.217 164.668C205.396 163.62 208.244 162.193 211.062 160.389C211.178 160.315 211.332 160.372 211.366 160.506C211.815 162.28 214.42 172.302 216.549 174.46C216.558 174.47 216.567 174.477 216.578 174.484C218.352 175.636 224.171 174.477 226.504 175.643C228.614 176.698 229.366 180.033 229.424 180.304C229.427 180.317 229.428 180.328 229.427 180.342C229.414 180.914 228.847 181.474 228.275 180.923C228.264 180.912 228.254 180.9 228.246 180.887L226.391 177.92C226.263 177.715 225.95 177.87 226.034 178.096L227.076 180.872C227.084 180.895 227.089 180.919 227.088 180.943C227.07 181.375 226.739 181.793 226.332 181.726C226.156 181.697 225.884 181.798 225.796 181.953C225.661 182.192 225.428 182.355 225.162 182.311C224.986 182.282 224.673 182.376 224.545 182.499C224.183 182.846 223.428 182.943 222.995 182.076L221.33 178.746C221.28 178.647 221.162 178.606 221.058 178.644C219.65 179.148 215.303 179.098 213.067 177.989C213.057 177.984 213.049 177.98 213.041 177.973C210.617 176.233 206.177 170.096 202.121 164.984C202.034 164.874 202.084 164.712 202.217 164.668Z" fill="#FDCB96"/>
<path d="M206.035 120.47C206.035 122.728 206.035 124.441 207.613 128.24C207.68 128.4 207.526 128.566 207.362 128.509L192.799 123.468C192.685 123.429 192.632 123.297 192.687 123.189C195.86 116.977 200.686 113.445 200.77 107.185C200.772 107.089 200.703 107.006 200.61 106.985C197.783 106.348 196.093 104.052 196.093 101.756C196.093 100.586 197.847 97.662 200.187 97.662C201.253 97.662 202.807 100.095 203.515 102.741C203.569 102.942 203.867 102.953 203.928 102.755L206.02 95.955C206.03 95.9238 206.047 95.8955 206.07 95.8724L210.637 91.3056C210.684 91.2578 210.753 91.2374 210.819 91.2513L221.723 93.5468C221.787 93.5603 221.841 93.6057 221.866 93.6658C223.542 97.6901 221.24 99.4537 221.24 104.095C221.24 105.804 221.24 106.958 222.321 109.178C222.369 109.278 222.329 109.399 222.229 109.446C221.304 109.883 220.764 109.936 220.27 109.942C220.16 109.944 220.071 110.033 220.065 110.143C220.003 111.222 219.444 112.301 218.386 113.381C218.342 113.426 218.321 113.488 218.328 113.55C218.382 114.013 218.555 115.964 217.731 116.376C216.808 116.837 212.03 115.823 209.092 114.116C209.013 114.07 208.913 114.082 208.849 114.148C207.683 115.351 206.035 117.636 206.035 120.47Z" fill="#FFD59B"/>
<path d="M212.206 92.592C216.136 95.1 219.504 91.8767 221.78 93.5358C221.808 93.5561 221.831 93.5852 221.844 93.6171C223.048 96.4658 222.264 98.1816 221.689 100.563C222.899 100.019 223.49 99.4764 224.035 98.4693C224.1 98.3495 224.263 98.3219 224.368 98.4085C224.892 98.8398 225.736 99.272 226.899 99.7043C227.095 99.7773 227.261 99.5258 227.126 99.3661C226.535 98.6699 225.637 97.4946 225.333 96.4673C224.532 93.7583 226.503 94.7129 226.503 89.4496C226.503 87.3628 224.027 85.2151 223.258 84.5985C223.15 84.5117 223.155 84.3439 223.277 84.277C223.791 83.9943 224.547 83.701 225.17 83.4135C225.362 83.3251 225.287 83.0803 225.076 83.0961C223.655 83.2028 220.807 83.2915 219.506 82.4479C219.491 82.4382 219.476 82.4309 219.459 82.4252C215.949 81.2476 210.175 78.148 204.278 80.6781C200.185 82.4344 194.339 87.6958 194.338 91.7903C194.337 94.7148 197.261 99.2697 197.261 99.2697C197.992 98.3925 199.016 97.6615 200.185 97.6615C201.306 97.6615 202.963 100.346 203.615 103.142C203.651 103.298 203.846 103.354 203.952 103.234C205.902 101.01 204.372 99.3684 206.618 98.8083C209.433 97.7047 211.705 96.0155 211.872 92.7628C211.881 92.6003 212.068 92.5045 212.206 92.592Z" fill="#54271E"/>
<path d="M212.206 92.592C216.136 95.1 219.504 91.8767 221.78 93.5358C221.808 93.5561 221.831 93.5852 221.844 93.6171C223.048 96.4658 222.264 98.1816 221.689 100.563C222.899 100.019 223.49 99.4764 224.035 98.4693C224.1 98.3495 224.263 98.3219 224.368 98.4085C224.892 98.8398 225.736 99.272 226.899 99.7043C227.095 99.7773 227.261 99.5258 227.126 99.3661C226.535 98.6699 225.637 97.4946 225.333 96.4673C224.532 93.7583 226.503 94.7129 226.503 89.4496C226.503 87.3628 224.027 85.2151 223.258 84.5985C223.15 84.5117 223.155 84.3439 223.277 84.277C223.791 83.9943 224.547 83.701 225.17 83.4135C225.362 83.3251 225.287 83.0803 225.076 83.0961C223.655 83.2028 220.807 83.2915 219.506 82.4479C219.491 82.4382 219.476 82.4309 219.459 82.4252C215.949 81.2476 210.175 78.148 204.278 80.6781C200.185 82.4344 194.339 87.6958 194.338 91.7903C194.337 94.7148 197.261 99.2697 197.261 99.2697C197.992 98.3925 199.016 97.6615 200.185 97.6615C201.306 97.6615 202.963 100.346 203.615 103.142C203.651 103.298 203.846 103.354 203.952 103.234C205.902 101.01 204.372 99.3684 206.618 98.8083C209.433 97.7047 211.705 96.0155 211.872 92.7628C211.881 92.6003 212.068 92.5045 212.206 92.592Z" fill="#190C17"/>
<path d="M219.821 111.266C219.552 111.977 219.068 112.689 218.367 113.4C218.337 113.431 218.289 113.438 218.251 113.418C217.203 112.855 216.155 111.849 215.106 110.804C215.032 110.73 215.11 110.602 215.211 110.632C216.715 111.079 217.845 111.093 219.73 111.135C219.797 111.136 219.844 111.203 219.821 111.266Z" fill="#F9F9F6"/>
<path d="M222.407 109.358C221.238 109.943 220.653 109.943 220.068 109.943C219.685 109.943 219.401 109.639 219.185 109.3C219.082 109.138 219.281 108.918 219.472 108.935C220.444 109.022 221.383 108.285 222.128 108.773C222.213 108.96 222.305 109.155 222.407 109.358Z" fill="#FDCB96"/>
<path d="M208.956 114.037C208.308 114.685 207.48 115.693 206.871 116.961C204.862 114.622 201.353 109.943 200.641 108.773C200.724 108.211 200.769 107.628 200.769 107.019C200.769 108.942 201.353 109.358 208.956 114.037Z" fill="#FDCB96"/>
<path d="M216.399 105.843C216.99 105.225 218.089 103.563 218.109 102.985C218.109 102.974 218.108 102.964 218.104 102.954C217.508 101.21 214.601 101.213 214.018 101.795C212.862 102.951 214.564 105.25 216.298 105.866C216.334 105.879 216.373 105.87 216.399 105.843Z" fill="#F9F9F6"/>
<path d="M216.399 105.842C216.99 105.224 218.089 103.563 218.109 102.985C218.109 102.974 218.108 102.964 218.104 102.954C217.888 102.322 217.368 101.919 216.766 101.69C216.725 101.675 216.679 101.689 216.653 101.725C215.771 102.928 215.381 104.065 215.371 105.327C215.37 105.359 215.386 105.39 215.413 105.408C215.697 105.602 215.997 105.759 216.298 105.866C216.333 105.879 216.373 105.87 216.399 105.842Z" fill="#282828"/>
<path d="M218.084 102.898C217.446 101.21 214.594 101.218 214.018 101.794C213.641 102.17 213.75 101.795 213.875 101.481C213.96 101.266 214.131 101.099 214.346 101.013C214.817 100.825 215.699 100.519 216.356 100.57C217.592 100.665 218.554 102.146 218.679 102.348C218.689 102.363 218.693 102.38 218.692 102.398C218.684 102.508 218.624 102.913 218.183 102.964C218.139 102.969 218.1 102.94 218.084 102.898Z" fill="#190C17"/>
<circle cx="216.706" cy="102.323" r="0.584463" fill="white"/>
<path d="M219.48 98.6449C220.198 99.0089 220.571 98.3125 220.418 97.7625C220.412 97.739 220.396 97.7199 220.375 97.7078C220.154 97.581 218.821 96.8435 217.643 96.7803C217.015 96.7465 216.235 97.0233 215.661 97.2786C215.552 97.3271 215.616 97.4983 215.733 97.4789C216.224 97.3982 216.824 97.3572 217.267 97.5158C218.198 97.8491 219.397 98.5938 219.472 98.6405C219.474 98.6421 219.477 98.6436 219.48 98.6449Z" fill="#190C17"/>
<path d="M200.104 101.334C201.018 101.951 201.018 103.666 200.941 104.613C200.931 104.727 200.77 104.731 200.745 104.619C200.579 103.875 200.226 102.784 199.625 103.063C199.271 103.227 200.186 103.917 199.816 104.04C198.29 104.545 197.293 101.275 198.386 100.863C199.038 100.617 199.527 100.945 200.104 101.334Z" fill="#FDCB96"/>
<path d="M213.628 181.679C212.446 159.48 208.579 130.402 207.79 128.655C206.999 126.902 204.28 123.977 201.941 121.051C201.502 120.502 200.545 119.642 199.602 119.07C199.017 118.715 196.887 118.229 195.509 119.301C194.742 119.898 193.84 121.134 192.585 122.807C189.076 127.484 180.888 149.122 180.304 152.046C179.973 153.705 182.591 162.404 183.778 166.547C183.799 166.622 183.86 166.674 183.936 166.687L190.651 167.807C190.753 167.824 190.825 167.916 190.817 168.019L189.678 183.396C189.669 183.518 189.771 183.619 189.892 183.61L213.443 181.887C213.552 181.879 213.634 181.788 213.628 181.679Z" fill="#ECBB95"/>
<path d="M199.602 119.07C199.057 118.74 197.176 118.296 195.807 119.1C195.671 119.179 195.694 119.384 195.827 119.466C196.423 119.833 197.663 120.888 197.847 123.394C198.091 126.709 195.874 136.222 193.754 141.523C191.414 147.371 186.151 150.295 186.151 150.295C186.151 150.295 188.427 149.113 189.66 149.71C192.363 151.02 191.691 156.01 188.49 157.313C185.439 158.555 182.92 157.567 182.057 154.389C181.018 150.56 183.097 143.862 183.097 143.862C181.601 147.833 180.505 151.042 180.304 152.046C179.975 153.696 182.561 162.307 183.758 166.477C183.788 166.583 183.898 166.642 184.004 166.611C187.97 165.458 191.391 163.748 194.806 161.485C194.876 161.438 194.909 161.352 194.889 161.27L192.011 149.757C192.003 149.726 192.003 149.694 192.01 149.663C194.94 137.395 201.356 123.976 201.356 122.224C201.356 121.521 200.545 119.642 199.602 119.07Z" fill="#E3AB87"/>
<path d="M194.296 158.898L192.495 151.694C192.465 151.574 192.549 151.456 192.672 151.446C207.32 150.244 222.983 145.041 241.512 139.824C241.619 139.793 241.732 139.857 241.76 139.964L243.996 148.35C244.025 148.456 243.962 148.565 243.856 148.594C225.298 153.809 210.186 157.293 194.512 159.048C194.412 159.059 194.32 158.995 194.296 158.898Z" fill="#503895"/>
<path d="M183.811 271.352C182.594 270.29 181.713 268.391 181.514 267.941C181.487 267.88 181.433 267.835 181.367 267.822L172.788 266.106C172.732 266.095 172.673 266.109 172.628 266.143C170.373 267.852 169.216 269.589 168.077 274.056C168.048 274.172 168.124 274.289 168.243 274.305C169.081 274.416 172.152 274.839 175.039 275.446C179.492 276.383 181.601 278.435 186.151 278.37C188.896 278.33 193.818 277.412 194.763 277.231C194.857 277.213 194.924 277.131 194.916 277.036C194.78 275.308 192.559 273.118 191.423 273.107C191.417 273.107 191.416 273.107 191.41 273.106C191.226 273.09 185.178 272.544 183.811 271.352Z" fill="#190C17"/>
<path d="M200.801 279.919C201.373 275.96 201.982 273.078 204.805 269.097C204.842 269.045 204.904 269.013 204.968 269.013H211.135C211.23 269.013 211.312 269.079 211.335 269.171C211.517 269.902 212.408 272.978 214.807 274.276C217.789 275.889 224.606 275.455 224.747 275.446C224.751 275.446 224.751 275.446 224.756 275.446C227.013 275.451 228.179 278.18 228.254 279.945C228.258 280.047 228.179 280.133 228.078 280.144C217.726 281.286 211.323 281.287 200.979 280.147C200.866 280.135 200.785 280.031 200.801 279.919Z" fill="#190C17"/>
<path d="M191.427 225.67C194.873 208.998 194.922 201.941 194.922 187.755C194.922 187.562 195.169 187.475 195.284 187.631L207.748 204.628C207.774 204.664 207.788 204.702 207.787 204.746C207.76 205.893 207.319 222.432 204.279 228.076C196.068 243.326 186.807 266.758 186.184 268.343C186.161 268.4 186.115 268.438 186.056 268.456C180.3 270.155 175.67 269.016 169.921 266.161C169.837 266.119 169.789 266.037 169.813 265.946C170.302 264.102 175.525 244.843 182.641 235.093C185.71 230.888 190.828 226.261 191.367 225.778C191.399 225.749 191.418 225.712 191.427 225.67Z" fill="#3F1C15"/>
<path d="M192.585 191.233C191.892 189.12 191.103 185.926 190.887 185.037C190.857 184.914 190.949 184.796 191.076 184.793L211.749 184.219C211.83 184.216 211.9 184.252 211.932 184.327C212.774 186.256 224.164 212.513 224.164 219.888C224.164 232.89 217.608 269.385 217.17 271.81C217.155 271.891 217.095 271.947 217.014 271.963C211.238 273.078 203.809 271.941 200.285 269.662C200.224 269.622 200.192 269.55 200.198 269.477C202.528 244.479 204.861 233.374 209.508 219.991C209.531 219.928 209.526 219.865 209.485 219.811C208.528 218.565 196.267 202.47 192.585 191.233Z" fill="#54271E"/>
<rect x="145.803" y="266.647" width="7.01776" height="2.33925" rx="0.2" fill="#C4E5E2"/>
<rect x="145.803" y="268.987" width="7.01776" height="10.5266" rx="0.2" fill="#DDEEEC"/>
<rect x="146.973" y="184.773" width="4.67851" height="84.2132" fill="#DDEEEC"/>
<rect x="146.973" y="184.773" width="4.67851" height="11.6963" fill="#C4E5E2"/>
<rect x="308.381" y="266.647" width="7.01776" height="2.33925" rx="0.2" fill="#C4E5E2"/>
<rect x="308.381" y="268.987" width="7.01776" height="10.5266" rx="0.2" fill="#DDEEEC"/>
<rect x="309.551" y="184.773" width="4.67851" height="84.2132" fill="#DDEEEC"/>
<rect x="309.551" y="184.773" width="4.67851" height="11.6963" fill="#C4E5E2"/>
<path d="M315.979 180.68H144.628C141.125 180.68 141.123 187.113 144.628 187.113H315.979C318.906 187.113 319.491 180.68 315.979 180.68Z" fill="#DDEEEC"/>
<path d="M185.258 166.222C188.437 165.173 191.285 163.746 194.103 161.943C194.219 161.869 194.373 161.926 194.407 162.059C194.856 163.834 197.462 173.855 199.59 176.014C199.599 176.023 199.608 176.03 199.619 176.038C201.393 177.19 207.212 176.031 209.545 177.197C211.655 178.252 212.407 181.587 212.465 181.858C212.468 181.871 212.469 181.882 212.468 181.895C212.455 182.468 211.888 183.027 211.316 182.476C211.305 182.466 211.295 182.454 211.287 182.441L209.432 179.473C209.304 179.269 208.991 179.424 209.075 179.65L210.117 182.426C210.125 182.449 210.13 182.472 210.129 182.496C210.111 182.928 209.78 183.347 209.373 183.28C209.197 183.251 208.925 183.351 208.837 183.507C208.702 183.745 208.469 183.909 208.203 183.865C208.027 183.836 207.714 183.93 207.586 184.053C207.224 184.4 206.469 184.497 206.036 183.63L204.371 180.3C204.321 180.201 204.203 180.16 204.099 180.197C202.691 180.702 198.344 180.652 196.108 179.543C196.098 179.538 196.09 179.533 196.082 179.527C193.658 177.786 189.218 171.65 185.162 166.538C185.075 166.428 185.125 166.266 185.258 166.222Z" fill="#FFD59B"/>
<path d="M207.585 184.053C207.224 184.399 206.469 184.497 206.035 183.629C206.035 183.629 206.882 183.952 207.205 183.629C207.516 183.318 207.496 183.007 207.409 182.784C207.282 182.615 207.205 182.46 207.205 182.46C207.205 182.46 207.333 182.588 207.409 182.784C207.631 183.079 208.002 183.417 208.374 183.045C208.812 182.607 208.595 182.17 208.458 181.977C208.405 181.916 208.374 181.875 208.374 181.875C208.374 181.875 208.412 181.912 208.458 181.977C208.64 182.186 209.092 182.626 209.544 182.46C210.249 182.201 208.374 177.781 208.374 177.781L211.298 182.46L209.788 180.194C209.658 179.999 209.358 180.146 209.431 180.368L210.119 182.429C210.125 182.449 210.129 182.471 210.128 182.492C210.112 182.925 209.781 183.347 209.372 183.28C209.197 183.251 208.924 183.351 208.837 183.506C208.702 183.745 208.469 183.908 208.203 183.865C208.027 183.836 207.714 183.929 207.585 184.053Z" fill="#F3C89C"/>
</svg>
