<svg width="403" height="366" viewBox="0 0 403 366" fill="none" xmlns="http://www.w3.org/2000/svg">
<path d="M349.201 273.939C402.738 171.577 342.207 148.66 288.226 90.3723C243.785 42.3855 236.393 -4.55769 139.563 4.0201C80.1302 9.28497 76.2933 63.67 55.998 120C35.5586 176.729 -9.3963 227.604 29.082 273.939C65.5402 317.842 112.593 314.913 169.202 308.823C217.047 303.677 285.93 394.913 349.201 273.939Z" stroke="#01A796" stroke-opacity="0.2" stroke-width="6"/>
<path fillRule="evenodd" clipRule="evenodd" d="M121 366C93.3858 366 71 343.615 71 316C71 288.386 93.3858 266 121 266C148.614 266 171 288.386 171 316C171 343.615 148.614 366 121 366ZM121.002 346.001C104.433 346.001 91.0017 332.569 91.0017 316.001C91.0017 299.432 104.433 286.001 121.002 286.001C137.57 286.001 151.002 299.432 151.002 316.001C151.002 332.569 137.57 346.001 121.002 346.001Z" fill="#01A796" fill-opacity="0.1"/>
<path fillRule="evenodd" clipRule="evenodd" d="M383 171C371.954 171 363 162.045 363 151C363 139.954 371.954 131 383 131C394.046 131 403 139.954 403 151C403 162.045 394.046 171 383 171ZM383.001 163C376.373 163 371.001 157.627 371.001 151C371.001 144.372 376.373 139 383.001 139C389.628 139 395.001 144.372 395.001 151C395.001 157.627 389.628 163 383.001 163Z" fill="#01A796" fill-opacity="0.1"/>
<path d="M60 51C60 67.5687 46.5687 81 30 81C13.4313 81 0 67.5687 0 51C0 34.4313 13.4313 21 30 21C46.5687 21 60 34.4313 60 51Z" fill="#01A796" fill-opacity="0.1"/>
<path d="M272.183 45.9995C302.674 46.0014 335.267 64.277 352.328 95.1185C387.083 157.945 279.444 316.864 182.349 321.866C91.9674 326.521 -32.5065 208.78 31.6871 111.113C67.1296 57.1894 118.119 64.2786 186.871 55.7115C222.014 51.3323 218.161 45.9961 272.183 45.9995Z" fill="#F2F8F8"/>
<path d="M270.086 123.202C263.75 130.834 256.935 142.769 253.039 145.948C252.959 146.014 252.845 146 252.775 145.923L249.495 142.334C249.453 142.288 249.434 142.225 249.447 142.163C249.542 141.712 249.979 139.803 250.803 138.68C252.793 135.968 265.095 122.044 264.806 120.163C264.517 118.282 263.902 117.414 262.854 113.724C262.671 113.08 263.855 112.928 264.265 113.507C265.139 114.742 265.158 115.161 265.568 115.953C265.87 116.536 266.666 116.563 267.087 116.059L273.165 108.775C273.563 108.232 274.648 109.025 274.249 109.567L270.667 114.449C270.269 114.992 270.812 115.389 271.21 114.847L275.32 110.378C275.33 110.367 275.341 110.358 275.352 110.35C276.212 109.766 276.887 111.09 276.492 111.629C276.89 111.086 277.975 111.883 277.577 112.425C277.871 112.023 278.586 112.747 278.194 113.289C278.192 113.292 278.193 113.291 278.191 113.294C278.126 113.374 273.181 119.474 270.086 123.202Z" fill="#FFD59B"/>
<path d="M277.575 112.425C277.87 112.022 278.588 112.751 278.19 113.293C278.19 113.293 278.329 112.982 278.118 112.827C277.645 112.48 276.462 113.676 275.624 114.643C275.137 115.268 274.717 115.756 274.717 115.756C274.717 115.756 275.104 115.244 275.624 114.643C276.409 113.637 277.368 112.277 277.033 112.031C276.493 111.635 275.317 112.853 274.501 113.838C274.019 114.48 273.632 114.96 273.632 114.96C273.632 114.96 273.999 114.443 274.501 113.838C275.356 112.7 276.512 111.056 276.346 110.693C276.087 110.124 275.333 110.362 275.333 110.362C276.201 109.748 276.888 111.087 276.49 111.629C276.888 111.086 277.973 111.883 277.575 112.425Z" fill="#F3C89C"/>
<path d="M190.518 127.503C197.121 134.903 204.355 146.586 208.361 149.623C208.444 149.686 208.557 149.669 208.625 149.589L211.774 145.886C211.815 145.838 211.831 145.774 211.816 145.713C211.705 145.266 211.2 143.374 210.337 142.282C208.252 139.642 195.465 126.167 195.686 124.277C195.908 122.388 196.491 121.498 197.407 117.774C197.567 117.124 196.379 117.015 195.99 117.608C195.161 118.873 195.156 119.293 194.775 120.098C194.495 120.692 193.699 120.746 193.261 120.258L186.929 113.196C186.512 112.668 185.456 113.499 185.873 114.026L189.626 118.777C190.043 119.305 189.516 119.722 189.099 119.194L184.832 114.875C184.823 114.865 184.811 114.855 184.799 114.848C183.919 114.295 183.292 115.642 183.706 116.166C183.289 115.638 182.233 116.473 182.65 117C182.342 116.61 181.653 117.358 182.064 117.886C182.066 117.889 182.066 117.888 182.068 117.891C182.135 117.968 187.293 123.888 190.518 127.503Z" fill="#FFD59B"/>
<path d="M182.651 117.002C182.341 116.61 181.651 117.363 182.068 117.891C182.068 117.891 181.917 117.585 182.123 117.423C182.583 117.059 183.808 118.212 184.679 119.148C185.188 119.755 185.625 120.229 185.625 120.229C185.625 120.229 185.22 119.73 184.679 119.148C183.86 118.171 182.853 116.846 183.178 116.589C183.704 116.174 184.922 117.349 185.773 118.304C186.277 118.928 186.681 119.395 186.681 119.395C186.681 119.395 186.296 118.891 185.773 118.304C184.878 117.197 183.664 115.596 183.817 115.227C184.056 114.65 184.818 114.861 184.818 114.861C183.928 114.278 183.29 115.64 183.707 116.168C183.289 115.64 182.234 116.474 182.651 117.002Z" fill="#FDCB96"/>
<path d="M186.574 205.727L194.011 258.282" stroke="#C4E5E2"/>
<path d="M193.018 205.727L187.564 260.266" stroke="#C4E5E2"/>
<path d="M200.455 208.701L180.623 257.786" stroke="#C4E5E2"/>
<path d="M205.415 215.642L175.666 251.34" stroke="#C4E5E2"/>
<path d="M207.894 224.073L172.691 242.914" stroke="#C4E5E2"/>
<path d="M208.389 235.971L172.195 232.005" stroke="#C4E5E2"/>
<path d="M204.919 245.885L192.523 235.473" stroke="#C4E5E2"/>
<path d="M200.454 253.818L191.033 235.473" stroke="#C4E5E2"/>
<path d="M179.633 212.669L189.549 232.005" stroke="#C4E5E2"/>
<path d="M175.666 221.096L188.557 232.004" stroke="#C4E5E2"/>
<path d="M210.365 234.717C211.38 228.283 210.214 220.652 207.168 214.592C204.127 208.541 199.017 203.73 192.026 203.731C186.021 203.732 180.547 208.521 176.685 214.727C172.768 221.019 170.199 229.223 170.199 236.962C170.199 242.325 171.215 248.43 173.775 253.367C176.357 258.345 180.59 262.25 186.95 262.753C194.235 263.328 199.758 258.403 203.516 252.601C207.302 246.756 209.595 239.602 210.365 234.717Z" stroke="#C4E5E2" stroke-width="3"/>
<path d="M192.026 206.231C197.696 206.23 202.118 210.11 204.934 215.714C207.747 221.312 208.828 228.414 207.896 234.328C207.171 238.921 204.986 245.733 201.418 251.242C197.831 256.779 193.043 260.726 187.147 260.26C181.883 259.844 178.301 256.664 175.994 252.216C173.674 247.741 172.699 242.065 172.699 236.962C172.699 229.727 175.118 221.976 178.807 216.048C182.532 210.062 187.353 206.231 192.026 206.231Z" stroke="#DDEEEC" stroke-width="2"/>
<path d="M191.697 213.669C195.753 213.669 198.953 216.452 201.015 220.57C203.073 224.681 203.864 229.903 203.182 234.243C202.651 237.626 201.045 242.651 198.427 246.709C195.79 250.796 192.323 253.624 188.107 253.29C184.328 252.99 181.745 250.704 180.066 247.454C178.373 244.177 177.656 240.003 177.656 236.24C177.656 230.916 179.43 225.204 182.137 220.838C184.88 216.414 188.379 213.669 191.697 213.669Z" stroke="#DDEEEC" stroke-width="2"/>
<path d="M194.936 233.792C195.133 232.6 194.908 231.196 194.32 230.079C193.732 228.96 192.723 228.036 191.325 228.037C190.106 228.037 189.035 228.96 188.303 230.083C187.556 231.231 187.064 232.728 187.064 234.149C187.064 235.124 187.257 236.248 187.755 237.166C188.262 238.101 189.106 238.849 190.37 238.944C191.829 239.054 192.915 238.107 193.631 237.051C194.353 235.985 194.789 234.686 194.936 233.792Z" stroke="#DDEEEC"/>
<path d="M194.443 233.71C194.8 231.545 193.618 228.536 191.325 228.537C189.399 228.537 187.564 231.518 187.564 234.149C187.564 235.99 188.298 238.286 190.407 238.446C192.794 238.626 194.168 235.376 194.443 233.71Z" fill="#C4E5E2"/>
<path d="M217.468 165.753V212.094H216.324V165.18L220.901 162.32L221.473 163.464L217.468 165.753Z" fill="#DDEEEC"/>
<path d="M216.324 165.182L220.901 162.321L219.756 160.605L214.607 164.038L214.035 212.095H216.324V165.182Z" fill="#C4E5E2"/>
<path d="M198.59 269.877L206.599 230.973L211.176 230.401L202.023 272.738L198.59 269.877Z" fill="#C4E5E2"/>
<path d="M171.699 260.152L181.997 219.532H186.002L174.56 261.297L171.699 260.152Z" fill="#C4E5E2"/>
<path d="M214.033 229.257L181.994 218.387L210.6 205.8L241.494 212.666L214.033 229.257Z" fill="#DDEEEC"/>
<path d="M217.469 177.769L242.642 180.058V169.188L217.469 167.471V177.769Z" fill="#503895"/>
<path d="M235.825 199.282C238.651 185.167 240.347 178.302 240.352 164.69C240.352 164.651 240.364 164.612 240.385 164.58C245.492 156.635 247.786 153.197 254.016 145.83C254.057 145.781 254.074 145.713 254.057 145.651C253.469 143.443 251.8 141.784 249.051 141.198C248.979 141.182 248.905 141.208 248.858 141.265L240.389 151.428C240.365 151.456 240.335 151.477 240.3 151.489C239.924 151.617 237.609 152.42 236.347 153.188C234.972 154.025 231.198 160.053 229.482 161.197C227.771 162.338 226.061 162.91 224.916 161.214C224.909 161.203 224.901 161.193 224.892 161.184C224.325 160.592 223.233 157.842 224.28 156.131C224.312 156.078 224.322 156.013 224.301 155.956C223.701 154.32 222.011 153.745 219.229 152.634C219.2 152.622 219.173 152.603 219.152 152.579L211.234 143.53C211.196 143.487 211.141 143.462 211.083 143.463C208.876 143.507 207.208 145.155 206.079 147.36C206.046 147.425 206.052 147.505 206.094 147.565L218.008 164.585C218.029 164.614 218.041 164.65 218.044 164.685C218.488 170.449 218.738 173.135 219.182 178.911C219.183 178.925 219.183 178.941 219.181 178.955C218.297 185.137 217.482 187.481 216.911 195.307C216.903 195.422 216.994 195.524 217.11 195.524C221.595 195.525 226.676 195.585 235.545 199.429C235.662 199.479 235.8 199.407 235.825 199.282Z" fill="#ECBB95"/>
<path d="M214.033 229.256L181.994 218.385V222.889C181.994 222.933 182.022 222.971 182.064 222.985L213.989 233.246C214.016 233.255 214.047 233.251 214.072 233.236L242.591 215.554C242.62 215.536 242.638 215.504 242.638 215.469V211.52L214.033 229.256Z" fill="#C4E5E2"/>
<path d="M202.593 270.448L171.699 259.578L164.262 263.583V266.443L191.723 277.314L202.593 272.737V270.448Z" fill="#503895"/>
<path d="M232.916 153.739C233.125 154.781 233.439 154.874 235.314 154.882C235.489 154.883 235.581 155.092 235.461 155.22L227.309 163.916C227.243 163.986 227.137 164 227.055 163.948L221.097 160.156C220.994 160.091 220.973 159.949 221.052 159.857L224.287 156.084C224.318 156.047 224.335 156 224.335 155.953C224.335 154.775 224.334 154.518 224.334 153.445C224.334 153.308 224.199 153.211 224.078 153.274C223.665 153.487 223.589 153.739 222.617 153.739C221.197 153.739 217.471 149.162 216.897 148.018C216.324 146.874 216.325 145.729 215.752 144.013C215.368 142.862 214.683 140.808 214.613 140.598C214.609 140.585 214.606 140.574 214.604 140.561C214.047 136.067 215.145 132.125 217.358 128.735C217.419 128.642 217.545 128.618 217.637 128.681L226.528 134.794C226.587 134.834 226.661 134.841 226.726 134.812C227.413 134.506 231.34 132.859 232.916 134.5C233.89 135.513 234.003 137.753 233.888 139.66C233.873 139.91 234.887 140.263 235.082 140.105C235.422 139.831 235.834 139.608 236.349 139.436C237.563 139.032 239.181 141.811 238.638 143.441C238.065 145.157 236.349 146.301 234.633 146.874C234.42 146.945 233.919 146.937 233.513 146.82C233.311 146.762 232.658 146.883 232.59 147.083C231.902 149.118 232.409 151.204 232.916 153.739Z" fill="#FFD59B"/>
<path d="M198.017 267.588C198.589 265.299 198.017 263.654 198.017 261.867L191.152 259.578C190.007 262.439 187.147 266.443 186.003 266.443C183.992 266.443 180.281 267.588 179.709 268.732C179.039 270.743 179.137 271.02 179.138 272.165C181.999 273.309 185.631 273.915 187.147 273.309C190.007 272.165 190.715 269.936 192.296 269.304C195.156 268.16 196.873 268.16 198.017 267.588Z" fill="#190C17"/>
<path d="M187.152 262.44C187.724 260.152 187.152 258.507 187.152 256.719L180.854 255.003C179.71 257.863 176.282 261.296 175.137 261.296C173.127 261.296 169.416 262.44 168.844 263.585C168.174 265.595 168.272 265.873 168.273 267.017C171.134 268.162 174.766 268.768 176.282 268.162C179.142 267.017 179.85 264.789 181.431 264.157C184.291 263.013 186.008 263.013 187.152 262.44Z" fill="#190C17"/>
<path d="M187.331 218.22C194.207 211.964 205.9 203.827 217.389 194.993C217.44 194.954 217.506 194.942 217.568 194.96L226.83 197.684C226.985 197.73 227.025 197.93 226.899 198.032L197.702 221.614C197.536 221.748 197.417 221.932 197.363 222.139L187.749 258.898C187.731 258.966 187.678 259.02 187.61 259.039C183.692 260.11 180.334 258.448 178.617 256.215C178.584 256.172 178.571 256.117 178.58 256.063C180.848 241.896 183.12 229.974 187.065 218.625C187.12 218.469 187.209 218.331 187.331 218.22Z" fill="#3F1C15"/>
<path d="M234.652 214.28C235.771 208.086 235.778 204.106 235.778 198.476C235.778 198.405 235.739 198.338 235.679 198.302C227.425 193.372 223.948 194.298 217.505 195.398C217.314 195.431 217.266 195.705 217.426 195.814C219.606 197.302 221.985 201.236 219.759 202.939C210.072 210.346 200.386 217.753 196.351 220.639C196.318 220.663 196.295 220.695 196.281 220.733C191.166 234.97 189.445 249.766 187.171 259.48C187.157 259.542 187.174 259.607 187.215 259.655C190.605 263.573 194.013 264.698 200.194 262.479C200.263 262.454 200.314 262.396 200.325 262.324C201.506 254.895 207.135 242.418 206.605 228.242C206.602 228.163 206.648 228.088 206.719 228.053L234.542 214.426C234.599 214.398 234.641 214.343 234.652 214.28Z" fill="#54271E"/>
<path d="M233.489 142.87C234.061 141.154 234.633 140.009 236.349 139.437C236.458 139.401 236.57 139.39 236.684 139.402C236.785 139.413 236.887 139.368 236.924 139.274C237.311 138.296 239.197 133.147 237.492 129.711C235.602 125.902 228.911 122.845 223.189 123.99C221.327 124.363 219.106 125.922 218.684 126.227C218.638 126.26 218.582 126.273 218.526 126.263C218.127 126.191 216.464 125.923 215.754 126.278C211.175 128.566 208.887 134.859 210.032 138.864C210.631 140.958 213.762 141.791 214.782 142.01C214.929 142.041 215.047 141.901 215 141.759L214.613 140.6C214.609 140.588 214.606 140.575 214.605 140.562C214.058 136.153 215.105 132.276 217.234 128.929C217.325 128.786 217.543 128.819 217.595 128.982C218.67 132.363 220.584 134.005 222.168 134.687C222.332 134.758 222.482 134.587 222.405 134.426C221.96 133.497 221.659 132.617 222.445 132.099C222.537 132.038 222.661 132.083 222.713 132.181C225.603 137.634 231.213 133.734 232.345 135.431C232.917 136.575 234.061 139.436 233.489 142.87Z" fill="#190C17"/>
<path d="M224.335 155.791C224.335 154.699 224.334 154.441 224.334 153.295C224.334 153.217 224.382 153.144 224.453 153.112C230.106 150.535 231.544 149.355 232.618 147.004C232.701 146.769 232.8 146.535 232.917 146.301C232.818 146.547 232.72 146.781 232.618 147.004C232.192 148.207 232.191 149.427 232.366 150.746C232.376 150.826 232.338 150.904 232.269 150.946C229.503 152.629 227.801 155.333 224.568 155.984C224.447 156.008 224.335 155.914 224.335 155.791Z" fill="#F3C89C"/>
<path d="M227.767 146.873C224.335 148.589 220.33 148.589 219.186 148.017C219.186 148.017 220.15 150.878 222.046 150.878C226.051 150.878 227.767 146.873 227.767 146.873Z" fill="#9E2C2C"/>
<path d="M222.046 150.878C226.051 150.878 227.768 146.873 227.768 146.873C225.095 148.209 222.076 148.505 220.33 148.301C220.33 148.589 220.33 149.162 220.644 149.162C220.33 149.162 220.33 149.734 220.644 150.306C221.034 150.642 221.502 150.878 222.046 150.878Z" fill="white"/>
<path d="M221.474 142.87C221.547 141.669 220.902 140.009 220.902 140.009C220.902 140.009 222.394 141.984 222.045 143.442C221.858 144.225 221.474 145.158 221.474 145.158C222.567 144.612 223.138 145.63 223.187 145.724C223.19 145.729 223.192 145.733 223.193 145.738C223.214 145.807 223.324 146.303 222.045 146.303C220.902 146.303 220.33 146.303 220.33 145.73C220.33 145.158 221.396 144.17 221.474 142.87Z" fill="#F3C89C"/>
<path d="M215.181 210.952L244.358 194.361L242.642 193.217L211.176 209.808L215.181 210.952Z" fill="#C4E5E2"/>
<path d="M215.181 210.95L214.608 228.685H211.176V209.806L215.181 210.95Z" fill="#DDEEEC"/>
<path d="M185.999 201.798L216.321 188.639L214.605 188.067L181.994 200.654L185.999 201.798Z" fill="#C4E5E2"/>
<path d="M185.999 201.797V219.533H181.994V200.653L185.999 201.797Z" fill="#DDEEEC"/>
<path d="M236.232 141.368C235.306 141.679 234.334 143.407 233.833 144.419C233.78 144.525 233.924 144.613 234.001 144.523C234.659 143.749 235.771 142.587 236.232 142.979C236.499 143.206 235.431 144.534 235.777 144.586C237.832 144.893 238.68 141.991 237.832 141.372C237.327 141.003 236.825 141.17 236.232 141.368Z" fill="#F3C89C"/>
<path d="M225.225 143.347C224.969 142.549 224.715 140.618 224.945 140.101C224.95 140.091 224.956 140.082 224.963 140.075C226.236 138.797 228.793 140.045 229.056 140.807C229.577 142.32 227.094 143.613 225.305 143.412C225.267 143.408 225.236 143.383 225.225 143.347Z" fill="#F9F9F6"/>
<path d="M225.227 143.345C224.972 142.546 224.718 140.615 224.948 140.098C224.952 140.088 224.958 140.08 224.966 140.073C225.426 139.61 226.056 139.478 226.683 139.535C226.727 139.539 226.762 139.572 226.77 139.615C227.029 141.051 226.885 142.218 226.354 143.332C226.339 143.361 226.312 143.382 226.279 143.387C225.947 143.435 225.617 143.445 225.308 143.41C225.27 143.406 225.238 143.381 225.227 143.345Z" fill="#282828"/>
<path d="M225.007 140.034C226.293 138.823 228.797 140.053 229.057 140.807C229.226 141.296 229.291 140.929 229.317 140.6C229.334 140.37 229.254 140.144 229.098 139.973C228.763 139.604 228.122 138.963 227.525 138.727C226.398 138.281 224.917 139.17 224.718 139.295C224.703 139.304 224.692 139.317 224.685 139.334C224.645 139.435 224.526 139.815 224.889 140.049C224.926 140.073 224.975 140.064 225.007 140.034Z" fill="#190C17"/>
<circle r="0.572114" transform="matrix(-0.898906 -0.438142 -0.438142 0.898906 226.464 140.118)" fill="white"/>
<path d="M225.439 136.995C224.678 137.196 224.462 136.454 224.72 135.959C224.732 135.937 224.751 135.922 224.774 135.914C225.014 135.837 226.439 135.405 227.578 135.585C228.18 135.679 228.863 136.096 229.359 136.455C229.455 136.525 229.357 136.68 229.246 136.636C228.796 136.462 228.238 136.305 227.788 136.365C226.829 136.494 225.529 136.962 225.447 136.992C225.445 136.993 225.442 136.994 225.439 136.995Z" fill="#190C17"/>
<path d="M217.082 143.858C216.768 143.179 216.332 141.513 216.476 141.03C216.479 141.02 216.484 141.011 216.491 141.003C217.473 139.734 219.868 140.551 220.186 141.194C220.814 142.471 218.772 143.887 217.17 143.914C217.132 143.914 217.098 143.893 217.082 143.858Z" fill="#F9F9F6"/>
<path d="M217.083 143.856C216.77 143.177 216.333 141.511 216.477 141.028C216.48 141.018 216.485 141.009 216.492 141.001C216.845 140.544 217.382 140.357 217.939 140.336C217.983 140.334 218.022 140.363 218.036 140.404C218.422 141.638 218.424 142.682 218.082 143.72C218.072 143.751 218.046 143.775 218.015 143.784C217.731 143.862 217.445 143.907 217.172 143.912C217.134 143.912 217.099 143.891 217.083 143.856Z" fill="#282828"/>
<path d="M216.526 140.955C217.529 139.752 219.871 140.557 220.184 141.192C220.379 141.587 220.403 141.302 220.392 141.021C220.383 140.789 220.274 140.576 220.097 140.426C219.753 140.135 219.136 139.664 218.599 139.526C217.558 139.259 216.355 140.201 216.185 140.339C216.171 140.351 216.162 140.365 216.157 140.383C216.133 140.479 216.075 140.819 216.411 140.985C216.45 141.004 216.497 140.989 216.526 140.955Z" fill="#190C17"/>
<circle r="0.509319" transform="matrix(-0.946736 -0.322011 -0.322011 0.946736 217.819 140.873)" fill="white"/>
<path d="M218.105 137.747C218.728 138.022 219.043 137.435 218.91 136.983C218.903 136.958 218.885 136.939 218.863 136.928C218.651 136.821 217.499 136.268 216.488 136.26C215.994 136.256 215.395 136.469 214.919 136.683C214.809 136.733 214.877 136.906 214.995 136.885C215.386 136.818 215.83 136.786 216.17 136.888C216.98 137.13 218.027 137.705 218.097 137.743C218.099 137.745 218.102 137.746 218.105 137.747Z" fill="#190C17"/>
<path d="M227.764 210.953L236.345 271.597" stroke="#C4E5E2"/>
<path d="M245.5 166.9V213.241H244.355V166.328L249.504 162.895V164.611L245.5 166.9Z" fill="#DDEEEC"/>
<path d="M244.357 166.328L250.078 162.895L247.789 161.751L242.64 165.184L242.068 213.241H244.357V166.328Z" fill="#C4E5E2"/>
<path d="M249.505 164.611C249.505 163.467 248.933 162.323 247.789 161.75L254.654 157.746C255.799 158.318 256.371 159.462 256.371 160.606L249.505 164.611Z" fill="#503895"/>
<path d="M235.203 210.953L228.91 273.886" stroke="#C4E5E2"/>
<path d="M243.785 214.384L220.9 271.024" stroke="#C4E5E2"/>
<path d="M249.505 222.393L215.178 263.585" stroke="#C4E5E2"/>
<path d="M252.366 232.119L211.746 253.859" stroke="#C4E5E2"/>
<path d="M252.936 245.851L211.172 241.274" stroke="#C4E5E2"/>
<path d="M248.934 257.294L234.631 245.279" stroke="#C4E5E2"/>
<path d="M243.784 266.448L232.914 245.279" stroke="#C4E5E2"/>
<path d="M219.754 218.961L231.196 241.274" stroke="#C4E5E2"/>
<path d="M215.178 228.688L230.053 241.275" stroke="#C4E5E2"/>
<path d="M254.99 244.367C256.154 236.991 254.816 228.235 251.323 221.284C247.835 214.344 242.001 208.878 234.056 208.879C227.25 208.88 220.994 214.318 216.55 221.458C212.052 228.685 209.102 238.11 209.102 246.994C209.102 253.157 210.27 260.163 213.202 265.817C216.155 271.512 220.98 275.951 228.217 276.523C236.496 277.177 242.801 271.584 247.122 264.914C251.47 258.2 254.105 249.977 254.99 244.367Z" stroke="#C4E5E2" stroke-width="3"/>
<path d="M234.057 211.379C240.68 211.378 245.825 215.912 249.089 222.407C252.349 228.894 253.602 237.122 252.521 243.978C251.682 249.296 249.154 257.177 245.023 263.555C240.874 269.961 235.303 274.575 228.414 274.031C222.273 273.545 218.1 269.831 215.421 264.666C212.729 259.474 211.602 252.897 211.602 246.994C211.602 238.614 214.401 229.642 218.673 222.779C222.98 215.859 228.582 211.379 234.057 211.379Z" stroke="#DDEEEC" stroke-width="2"/>
<path d="M233.676 219.961C238.437 219.961 242.173 223.23 244.565 228.01C246.954 232.782 247.873 238.84 247.081 243.88C246.465 247.801 244.605 253.621 241.571 258.323C238.518 263.056 234.472 266.38 229.521 265.987C225.093 265.636 222.072 262.953 220.118 259.17C218.15 255.361 217.32 250.519 217.32 246.16C217.32 239.986 219.377 233.367 222.514 228.307C225.688 223.188 229.765 219.962 233.676 219.961Z" stroke="#DDEEEC" stroke-width="2"/>
<path d="M237.341 243.322C237.565 241.964 237.308 240.361 236.638 239.086C235.967 237.81 234.824 236.771 233.249 236.771C231.882 236.771 230.666 237.809 229.827 239.098C228.972 240.411 228.41 242.123 228.41 243.747C228.41 244.864 228.631 246.147 229.198 247.192C229.774 248.254 230.727 249.096 232.153 249.204C233.796 249.328 235.027 248.263 235.847 247.052C236.673 245.833 237.172 244.345 237.341 243.322Z" stroke="#DDEEEC"/>
<path d="M236.847 243.241C237.259 240.742 235.895 237.271 233.249 237.271C231.026 237.271 228.91 240.711 228.91 243.747C228.91 245.872 229.756 248.521 232.191 248.705C234.945 248.913 236.53 245.163 236.847 243.241Z" fill="#C4E5E2"/>
<path d="M142.488 280.628C142.488 277.589 142.491 275.593 143.027 272.836C143.046 272.739 143.134 272.67 143.233 272.675L153.741 273.228C153.847 273.234 153.93 273.322 153.937 273.428C154.09 275.583 156.838 276.68 159.058 277.238C159.073 277.241 159.087 277.246 159.1 277.253C160.196 277.808 160.223 278.366 160.224 279.448C160.224 279.501 160.203 279.553 160.164 279.59C158.442 281.248 155.621 281.254 153.358 281.82C150.515 282.957 143.716 282.964 142.51 280.717C142.495 280.69 142.488 280.659 142.488 280.628Z" fill="#503895"/>
<path d="M153.36 280.676C150.499 281.821 143.634 282.965 142.489 280.676C141.936 281.231 141.918 281.785 142.437 282.858C142.469 282.924 142.53 282.966 142.604 282.969C143.503 282.996 149.514 283.146 153.36 282.393C155.955 281.884 159.705 280.824 160.176 280.69C160.208 280.681 160.237 280.664 160.259 280.638C160.374 280.501 160.709 280.016 160.225 279.532C158.508 281.249 155.648 280.104 153.36 280.676Z" fill="white"/>
<path d="M112.027 278.912C112.027 275.873 112.03 273.877 112.566 271.12C112.585 271.023 112.673 270.954 112.772 270.959L123.28 271.512C123.386 271.517 123.469 271.606 123.476 271.712C123.629 273.867 126.377 274.964 128.598 275.521C128.612 275.525 128.626 275.53 128.639 275.537C129.735 276.091 129.762 276.649 129.763 277.732C129.763 277.785 129.742 277.836 129.704 277.873C127.981 279.531 125.16 279.538 122.898 280.104C120.054 281.241 113.255 281.248 112.049 279.001C112.034 278.974 112.027 278.943 112.027 278.912Z" fill="#503895"/>
<path d="M122.899 278.96C120.038 280.104 113.173 281.249 112.028 278.96C111.475 279.514 111.457 280.068 111.976 281.142C112.008 281.208 112.07 281.25 112.143 281.252C113.042 281.28 119.053 281.43 122.899 280.676C125.494 280.168 129.244 279.108 129.715 278.974C129.747 278.965 129.777 278.948 129.798 278.922C129.913 278.784 130.248 278.3 129.764 277.816C128.048 279.532 125.187 278.388 122.899 278.96Z" fill="white"/>
<path d="M149.355 185.135C148.872 181.753 148.203 180.079 147.115 177.252C147.086 177.176 147.014 177.125 146.933 177.123L122.551 176.556C122.497 176.554 122.444 176.575 122.408 176.616C121.772 177.342 119.935 180.683 119.605 185.135C118.461 200.582 117.039 210.938 115.028 227.472C111.601 244.038 111.025 253.19 111.023 272.013C111.023 272.066 111.043 272.117 111.082 272.153C112.863 273.811 118.993 274.363 125.162 273.27C125.257 273.254 125.326 273.168 125.326 273.071C125.336 253.749 127.041 245.737 127.043 229.206C127.043 229.194 127.044 229.183 127.046 229.171C129.869 212.789 131.019 196.411 131.598 194.359C131.613 194.308 131.647 194.276 131.694 194.252C132.756 193.734 133.326 193.729 134.38 194.24C134.442 194.27 134.484 194.333 134.49 194.402C135.633 207.481 137.348 214.911 140.766 227.446C140.771 227.463 140.773 227.481 140.773 227.499C140.773 245.985 140.774 253.767 141.911 273.689C141.915 273.764 141.961 273.833 142.03 273.862C147.066 276.06 152.095 275.541 156.044 274.982C156.145 274.968 156.218 274.879 156.215 274.777C155.641 256.002 154.495 242.322 151.078 229.213C151.074 229.197 151.071 229.179 151.071 229.162C151.071 210.296 151.071 197.144 149.355 185.135Z" fill="#409090"/>
<path d="M146.933 177.123L122.552 176.556C122.497 176.554 122.444 176.575 122.409 176.617C122.154 176.926 121.772 177.706 121.393 178.842C129.331 182.847 141.917 182.275 148.088 179.986C147.831 179.135 147.506 178.268 147.115 177.251C147.086 177.175 147.014 177.125 146.933 177.123Z" fill="#60858D"/>
<path d="M192.84 94.7416C183.898 102.672 173.595 115.649 168.394 118.682C168.304 118.735 168.195 118.704 168.137 118.617L164.862 113.705C164.827 113.652 164.818 113.588 164.84 113.529C165.02 113.049 165.895 110.817 167.095 109.617C169.956 106.756 187.119 92.4532 187.119 90.1647C187.119 87.8763 186.547 86.7324 185.975 82.1555C185.875 81.357 187.31 81.393 187.691 82.1555C188.568 83.9097 188.437 84.3567 188.881 85.5491C189.111 86.1644 189.89 86.312 190.382 85.8776L199.133 78.1559C199.706 77.5836 200.85 78.7239 200.278 79.2956L195.129 84.444C194.557 85.0166 195.129 85.5882 195.701 85.0157L201.405 80.452C201.416 80.4432 201.429 80.4353 201.442 80.4292C202.573 79.8867 203.135 81.5871 202.566 82.1555C203.139 81.5834 204.282 82.7281 203.71 83.2998C204.134 82.8762 204.852 83.8679 204.286 84.4405C204.284 84.4428 204.284 84.4424 204.282 84.4446C204.205 84.514 197.204 90.8716 192.84 94.7416Z" fill="#FFDAC0"/>
<path d="M203.71 83.2978C204.134 82.8733 204.854 83.8699 204.282 84.442C204.282 84.442 204.504 84.0975 204.282 83.8751C203.783 83.3761 202.158 84.5809 200.986 85.5776C200.293 86.2316 199.705 86.7357 199.705 86.7357C199.705 86.7357 200.258 86.1968 200.986 85.5776C202.102 84.5249 203.49 83.0838 203.137 82.7309C202.568 82.1615 200.948 83.3946 199.798 84.416C199.108 85.0905 198.561 85.5915 198.561 85.5915C198.561 85.5915 199.091 85.0437 199.798 84.416C201.022 83.2195 202.696 81.4767 202.565 81.0146C202.361 80.2919 201.421 80.4368 201.421 80.4368C202.565 79.8651 203.137 81.5818 202.565 82.1535C203.138 81.5814 204.282 82.7261 203.71 83.2978Z" fill="#FACAB1"/>
<path d="M80.1265 99.0228C88.5544 105.684 98.0244 116.226 103.009 118.896C103.084 118.936 103.173 118.921 103.234 118.862L106.779 115.513C106.838 115.458 106.858 115.374 106.828 115.3C106.641 114.841 105.923 113.206 104.847 112.252C102.177 109.884 85.972 97.8042 86.116 96.1031C86.2599 94.4019 86.9021 93.5999 87.7602 90.2458C87.9099 89.6607 86.4777 89.5664 86.0497 90.1011C85.0525 91.3471 85.1704 91.6832 84.6295 92.5567C84.3405 93.0235 83.7031 93.0889 83.2716 92.7494L74.8984 86.1628C74.3642 85.6891 73.1522 86.4402 73.6864 86.9135L78.4938 91.1749C79.0279 91.6488 78.4218 92.0255 77.8877 91.5516L72.4889 87.6774C72.4791 87.6703 72.4683 87.664 72.4573 87.6589C71.3629 87.1578 70.6944 88.3756 71.2258 88.8464C70.6913 88.3728 69.4794 89.1273 70.0135 89.6005C69.6178 89.2499 68.8407 89.9263 69.3679 90.3997C69.3702 90.4017 69.3697 90.4015 69.3721 90.4034C69.4479 90.4647 76.0226 95.779 80.1265 99.0228Z" fill="#FFDAC0"/>
<path d="M70.0134 89.6012C69.6168 89.2498 68.8372 89.93 69.3713 90.4035C69.3713 90.4035 69.1713 90.1287 69.407 89.9821C69.9357 89.6533 71.4789 90.6859 72.584 91.5256C73.2338 92.0703 73.7882 92.4946 73.7882 92.4946C73.7882 92.4946 73.2707 92.0473 72.584 91.5256C71.5383 90.649 70.2454 89.4606 70.6193 89.2281C71.2226 88.8528 72.7591 89.9061 73.8415 90.7624C74.4868 91.322 75.0005 91.7405 75.0005 91.7405C75.0005 91.7405 74.5068 91.2887 73.8415 90.7624C72.6969 89.7697 71.1382 88.333 71.2974 88.0004C71.5464 87.4804 72.474 87.6674 72.474 87.6674C71.3697 87.1459 70.6916 88.3738 71.2257 88.8471C70.6912 88.3735 69.4793 89.128 70.0134 89.6012Z" fill="#FACAB1"/>
<path d="M140.257 126.809C140.754 127.277 141.452 127.034 142.241 126.647C142.436 126.552 142.62 126.782 142.481 126.948L137.441 132.996C137.398 133.048 137.332 133.075 137.266 133.067L132.307 132.516C132.254 132.51 132.205 132.483 132.172 132.44L128.76 128.054C128.629 127.886 128.819 127.652 129.016 127.735C129.881 128.097 130.746 128.232 131.611 127.397C131.637 127.372 131.656 127.339 131.665 127.303C132.214 125.042 131.647 123.344 131.079 122.209C131.079 122.209 140.233 121.637 141.949 118.204C142.613 116.877 142.522 116.488 142.522 115.915C142.522 115.209 141.377 114.772 141.377 113.627C141.377 112.483 142.115 111.173 143.094 110.195C143.666 109.623 145.382 109.623 145.382 110.767C145.382 111.798 145.099 112.103 144.879 112.808C144.841 112.933 144.937 113.053 145.063 113.02C145.562 112.888 146.122 112.399 147.099 111.911C147.662 115.292 147.115 117.008 146.552 120.886C146.536 120.998 146.473 121.101 146.376 121.162C144.732 122.195 143.057 122.225 140.348 122.758C140.277 122.772 140.219 122.823 140.197 122.891C139.666 124.532 139.673 125.647 140.219 126.756C140.228 126.776 140.241 126.794 140.257 126.809Z" fill="#FFDAC0"/>
<path d="M145.062 113.052C145.56 113.031 146.12 112.887 147.094 111.911C147.094 111.911 152.94 107.908 152.243 103.903C151.821 101.47 149.571 101.105 148.963 101.05C148.872 101.042 148.796 100.98 148.771 100.893C148.116 98.631 145.329 95.8808 143.09 95.3205C140.801 94.7479 135.652 93.6033 129.931 95.3209C126.3 96.4111 124.236 98.0058 123.066 101.612C122.185 104.326 122.907 108.731 123.044 109.504C123.057 109.577 123.031 109.65 122.975 109.699C122.488 110.128 120.198 112.337 120.205 115.916C120.215 121.016 131.075 122.209 131.075 122.209C131.075 122.209 140.229 121.637 141.945 118.204C142.609 116.878 142.518 116.488 142.518 115.916C142.518 115.209 141.373 114.772 141.373 113.628C141.373 112.483 142.111 111.174 143.09 110.195C143.662 109.623 145.378 109.623 145.378 110.767C145.378 111.799 145.095 112.104 144.875 112.809C144.837 112.933 144.932 113.057 145.062 113.052Z" fill="#D49E6E"/>
<path d="M145.378 110.768C145.378 109.624 143.662 109.624 143.09 110.196C142.111 111.174 141.373 112.484 141.373 113.628C141.373 114.773 142.518 115.21 142.518 115.917C142.518 116.489 142.609 116.879 141.945 118.205C140.229 121.638 131.075 122.21 131.075 122.21C131.075 122.21 120.215 121.016 120.205 115.917C120.198 112.369 122.449 110.167 122.962 109.711C124.349 108.48 125.354 107.907 127.07 107.907C124.782 108.48 123.066 109.914 121.921 112.774C121.349 115.063 122.521 116.74 123.638 117.633C126.12 119.619 127.07 119.922 130.503 119.922C133.936 119.922 137.368 116.664 137.941 114.201C138.272 112.774 136.796 109.624 133.936 106.763C135.401 107.252 136.867 107.74 138.333 109.654C138.472 109.836 138.803 109.689 138.782 109.46C138.748 109.095 138.807 108.766 139.071 108.494C139.08 108.484 139.091 108.476 139.102 108.468C140.797 107.339 141.239 107.21 144.76 106.769C144.79 106.765 144.822 106.768 144.85 106.778C146.355 107.288 146.506 107.803 146.521 108.728C146.523 108.876 146.679 108.973 146.812 108.907C150.02 107.3 151.099 106.665 151.099 103.331C151.099 102.186 149.955 101.614 148.985 101.053C149.624 101.115 151.826 101.5 152.243 103.903C152.94 107.909 147.094 111.912 147.094 111.912C146.144 112.864 145.588 113.024 145.099 113.051C145.098 113.051 145.097 113.051 145.096 113.051L145.062 113.053C144.932 113.058 144.836 112.934 144.875 112.81L144.886 112.776C144.886 112.775 144.886 112.775 144.886 112.774C145.104 112.094 145.378 111.782 145.378 110.768Z" fill="#B17A4A"/>
<path d="M137.945 114.198C138.276 112.772 136.8 109.621 133.94 106.761C132.223 105.617 130.507 105.617 128.79 105.617C131.651 106.189 132.795 106.761 133.367 107.333C135.694 109.66 136.777 111.863 137.354 114.127C137.366 114.173 137.361 114.221 137.339 114.264C136.18 116.532 133.548 119.117 130.527 119.346C130.514 119.347 130.5 119.347 130.487 119.345C125.925 118.772 124.062 117.479 123.642 117.059C121.925 115.343 122.152 113.63 122.497 113.054C124.204 110.21 125.911 109.062 127.055 108.487C127.068 108.48 127.081 108.475 127.096 108.472C128.536 108.133 130.51 109.624 131.079 110.194C132.223 111.338 132.223 113.626 131.651 114.198C130.507 115.343 128.218 115.593 125.93 114.771C127.646 115.915 129.935 115.915 132.223 114.771C133.367 114.198 132.509 111.91 131.651 110.194C131.079 109.049 128.6 107.524 127.074 107.905C124.786 108.477 123.07 109.911 121.925 112.772C121.353 115.06 122.525 116.737 123.642 117.631C126.123 119.616 127.074 119.92 130.507 119.92C133.94 119.92 137.372 116.662 137.945 114.198Z" fill="#B17A4A"/>
<path d="M144.406 111.964C144.433 112.745 143.459 113.515 142.793 113.949C142.696 114.012 142.594 113.883 142.669 113.794C143.056 113.339 143.469 112.715 143.043 112.513C142.768 112.382 142.749 113.257 142.493 113.097C141.437 112.435 143.11 110.269 143.9 110.718C144.371 110.986 144.387 111.434 144.406 111.964Z" fill="#F3C89C"/>
<path d="M144.207 163.395C143.86 169.796 148.085 176.358 148.209 178.739C148.213 178.805 148.182 178.863 148.126 178.899C142.88 182.247 124.344 181.122 121.928 177.745C121.905 177.713 121.895 177.679 121.895 177.639C121.96 174.183 127.677 166.935 127.616 159.962C127.564 154.026 126.068 154.813 124.183 146.804C122.299 138.794 123.611 136.506 121.895 134.789C119.701 132.596 102.259 119.36 100.821 118.27C100.757 118.221 100.739 118.148 100.76 118.071C101.356 115.853 103.027 113.655 105.773 112.519C105.836 112.493 105.909 112.502 105.965 112.542L124.704 126.17C124.737 126.195 124.776 126.208 124.818 126.209C125.143 126.22 126.663 126.293 127.616 126.78C129.298 127.64 131.542 130.125 131.619 130.21C131.621 130.213 131.622 130.214 131.624 130.216C132.772 131.357 136.763 131.926 138.481 130.218C138.484 130.214 138.485 130.213 138.489 130.21C138.594 130.087 141.964 126.181 144.779 124.491C145.789 123.885 147.674 124.344 148.117 124.465C148.177 124.481 148.242 124.47 148.292 124.433L164.486 112.707C164.618 112.611 164.809 112.705 164.83 112.867C165.048 114.524 166.586 116.92 169.043 118.053C169.187 118.119 169.219 118.313 169.09 118.405C166.509 120.247 147.601 133.802 147.068 135.934C146.003 140.192 149.82 142.784 149.356 146.804C148.918 150.599 145.709 154.915 145.379 155.35C145.359 155.375 145.349 155.399 145.343 155.43C145.248 155.958 144.335 161.032 144.207 163.395Z" fill="#01A796"/>
</svg>
