<svg width="120" height="120" viewBox="0 0 120 120" fill="none" xmlns="http://www.w3.org/2000/svg">
<g clipPath="url(#clip0_1_4111)">
<path d="M120 80C120 102.092 102.092 120 80 120C57.9083 120 40 102.092 40 80C40 57.9083 57.9083 40 80 40C102.092 40 120 57.9083 120 80Z" fill="white"/>
<path d="M19.5117 4.99268C19.5117 2.78354 21.3026 0.992676 23.5117 0.992676H96.4873C98.6965 0.992676 100.487 2.78354 100.487 4.99268V61.1H19.5117V4.99268Z" fill="white"/>
<path d="M95.6094 0.992676H96.4874C98.6966 0.992676 100.487 2.78354 100.487 4.99268V61.1H95.6094V0.992676Z" fill="#E0E0E0"/>
<path d="M115.122 103.539H4.87805C2.18391 103.539 0 101.355 0 98.661V65.9781C0 63.284 2.18391 61.1001 4.87805 61.1001H115.122C117.816 61.1001 120 63.284 120 65.9781V98.661C120 101.355 117.816 103.539 115.122 103.539Z" fill="#01A796"/>
<path d="M115.122 61.1001H107.805C110.499 61.1001 112.683 63.284 112.683 65.9781V98.661C112.683 101.355 110.499 103.539 107.805 103.539H115.122C117.816 103.539 120 101.355 120 98.661V65.9781C120 63.2842 117.816 61.1001 115.122 61.1001Z" fill="#78D090"/>
<path d="M52.195 8.44995H28.7805C27.7802 8.44995 26.9697 9.26065 26.9697 10.2607V43.9196C26.9697 44.9199 27.7804 45.7303 28.7805 45.7303H52.195C53.1954 45.7303 54.0058 44.9196 54.0058 43.9196V10.261C54.0058 9.26065 53.1954 8.44995 52.195 8.44995Z" fill="#665E93"/>
<path d="M91.2196 8.44995H60.9758C59.9755 8.44995 59.165 9.26065 59.165 10.2607V18.5534C59.165 19.5537 59.9757 20.3642 60.9758 20.3642H91.2196C92.2199 20.3642 93.0303 19.5535 93.0303 18.5534V10.261C93.0303 9.26065 92.2199 8.44995 91.2196 8.44995Z" fill="#FFC638"/>
<path d="M91.2196 29.145H60.9758C59.9755 29.145 59.165 28.3343 59.165 27.3342C59.165 26.3339 59.9757 25.5234 60.9758 25.5234H91.2196C92.2199 25.5234 93.0303 26.3341 93.0303 27.3342C93.0303 28.3343 92.2199 29.145 91.2196 29.145Z" fill="#AFA2BE"/>
<path d="M91.2196 36.9499H60.9758C59.9755 36.9499 59.165 36.1392 59.165 35.1391C59.165 34.1391 59.9757 33.3284 60.9758 33.3284H91.2196C92.2199 33.3284 93.0303 34.1391 93.0303 35.1391C93.0303 36.1392 92.2199 36.9499 91.2196 36.9499Z" fill="#AFA2BE"/>
<path d="M91.2196 45.7307H60.9758C59.9755 45.7307 59.165 44.92 59.165 43.9199C59.165 42.9198 59.9757 42.1091 60.9758 42.1091H91.2196C92.2199 42.1091 93.0303 42.9198 93.0303 43.9199C93.0303 44.92 92.2199 45.7307 91.2196 45.7307Z" fill="#AFA2BE"/>
<path d="M91.2192 54.5107H46.3411C45.3407 54.5107 44.5303 53.7 44.5303 52.6999C44.5303 51.6999 45.341 50.8892 46.3411 50.8892H91.2192C92.2195 50.8892 93.03 51.6999 93.03 52.6999C93.03 53.7 92.2195 54.5107 91.2192 54.5107Z" fill="#AFA2BE"/>
<path d="M37.5611 54.5107H28.7805C27.7802 54.5107 26.9697 53.7 26.9697 52.6999C26.9697 51.6999 27.7804 50.8892 28.7805 50.8892H37.5611C38.5614 50.8892 39.3719 51.6999 39.3719 52.6999C39.3719 53.7 38.5614 54.5107 37.5611 54.5107Z" fill="#AFA2BE"/>
<path d="M82.923 73.8484C82.7245 72.8739 81.8924 72.1544 80.8991 72.0984C79.9063 72.0433 78.9988 72.6641 78.6918 73.6101C78.6852 73.6309 78.6789 73.6513 78.6731 73.6724L75.3822 85.2166L71.9709 73.6537C71.9645 73.6321 71.958 73.6113 71.9507 73.5899C71.6343 72.6468 70.7209 72.0337 69.7272 72.1009C68.7346 72.1675 67.9098 72.8962 67.7184 73.8937L64.7606 90.2807C64.5829 91.2648 65.2368 92.2066 66.2209 92.3845C67.2042 92.5616 68.147 91.9084 68.3247 90.9241L70.2093 80.4824L73.3084 90.9871C73.3148 91.0089 73.3216 91.0302 73.3288 91.0516C73.6295 91.9459 74.463 92.5448 75.4056 92.5448H75.4169C76.364 92.5401 77.1972 91.9314 77.4895 91.0305C77.4963 91.0096 77.5026 90.9888 77.5087 90.9674L80.5012 80.4702L82.5025 90.9423C82.6902 91.9248 83.6406 92.5701 84.621 92.3809C85.6033 92.1932 86.2476 91.2449 86.0596 90.2624L82.923 73.8484Z" fill="white"/>
<path d="M92.0725 72.0947C91.0722 72.0947 90.2617 72.9054 90.2617 73.9055V91.0529C90.2617 92.0532 91.0724 92.8636 92.0725 92.8636C93.0726 92.8636 93.8833 92.0529 93.8833 91.0529V73.9055C93.8833 72.9054 93.0726 72.0947 92.0725 72.0947Z" fill="white"/>
<path d="M57.9191 81.0851C58.589 80.1528 58.9851 79.0109 58.9851 77.7779C58.9851 74.6443 56.4358 72.095 53.3022 72.095H48.4143C47.414 72.095 46.6035 72.9057 46.6035 73.9057V90.7334C46.6035 91.215 46.7955 91.6768 47.137 92.0168C47.4763 92.3548 47.9355 92.5444 48.4145 92.5444H48.4225C48.423 92.5444 52.9173 92.5243 54.156 92.5243C57.652 92.5243 60.4963 89.6801 60.4963 86.1842C60.4961 84.0961 59.481 82.2411 57.9191 81.0851ZM53.302 75.7165C54.4384 75.7165 55.3633 76.6414 55.3633 77.7779C55.3633 78.9143 54.4384 79.839 53.302 79.839C52.9356 79.839 52.2393 79.8411 51.4846 79.8436H50.2248V75.7165H53.302ZM54.1555 88.9025C53.4367 88.9025 51.6243 88.909 50.2248 88.9147V83.4701C50.635 83.4685 51.0735 83.4668 51.4942 83.4652H54.1555C55.6546 83.4652 56.8743 84.6847 56.8743 86.1839C56.8743 87.683 55.6548 88.9025 54.1555 88.9025Z" fill="white"/>
<path d="M18.8054 80.7533C16.6915 79.9735 14.7272 79.1232 14.1743 78.8809C13.7487 78.5546 13.5439 78.0434 13.6231 77.4908C13.6737 77.1383 13.9254 76.2779 15.1669 75.9038C17.6939 75.1428 20.0061 76.9789 20.0672 77.0281C20.8332 77.6645 21.9694 77.5639 22.6109 76.8008C23.2543 76.0351 23.1556 74.8927 22.3899 74.2494C22.2359 74.1202 18.5693 71.0966 14.1221 72.436C11.9091 73.1028 10.3442 74.8426 10.0379 76.9761C9.75145 78.9711 10.6161 80.8899 12.2939 81.984C12.3739 82.036 12.4578 82.082 12.545 82.1206C12.6418 82.1638 14.9508 83.1915 17.5514 84.1508C18.3584 84.4487 20.2067 85.2992 19.9444 86.7678C19.7553 87.8267 18.4964 88.9222 16.7168 88.9222C14.963 88.9222 13.2725 88.212 12.1946 87.0226C11.5226 86.281 10.3775 86.2257 9.63684 86.8967C8.89574 87.5682 8.83949 88.7134 9.51098 89.4545C11.2641 91.389 13.9578 92.5438 16.7168 92.5438C20.1211 92.5438 22.9779 90.3824 23.5097 87.4042C23.9086 85.175 22.8816 82.257 18.8054 80.7533Z" fill="white"/>
<path d="M40.7152 72.0947C39.7149 72.0947 38.9044 72.9054 38.9044 73.9055V85.4726C38.9044 86.3628 38.6574 87.5086 36.7292 88.4796C36.1461 88.7736 35.4879 88.9221 34.7731 88.9221C34.771 88.9221 34.7686 88.9221 34.7665 88.9221C33.9664 88.9212 33.27 88.7241 32.6375 88.32C31.3561 87.5014 30.8335 86.6799 30.8335 85.4846V73.9055C30.8335 72.9052 30.0228 72.0947 29.0227 72.0947C28.0224 72.0947 27.2119 72.9054 27.2119 73.9055V85.4846C27.2119 87.9516 28.3489 89.8772 30.6877 91.3721C31.9015 92.1479 33.2724 92.5421 34.7621 92.5439H34.7736C36.0593 92.5439 37.2657 92.2648 38.3586 91.7143C41.8032 89.9796 42.5264 87.3626 42.5264 85.4726V73.9055C42.5262 72.9054 41.7155 72.0947 40.7152 72.0947Z" fill="white"/>
<path d="M109.146 72.0947H99.8528C98.8525 72.0947 98.042 72.9054 98.042 73.9055C98.042 74.9056 98.8527 75.7163 99.8528 75.7163H102.67V90.7329C102.67 91.7332 103.48 92.5437 104.481 92.5437C105.481 92.5437 106.291 91.733 106.291 90.7329V75.7163H109.146C110.146 75.7163 110.957 74.9056 110.957 73.9055C110.957 72.9054 110.146 72.0947 109.146 72.0947Z" fill="white"/>
<path d="M106.221 106.693L117.297 100.221C118.363 99.598 118.211 98.0126 117.046 97.6034L88.3889 87.5347C87.2421 87.1318 86.1389 88.235 86.5418 89.3818L96.6105 118.039C97.0197 119.204 98.6053 119.356 99.228 118.29L105.701 107.214C105.826 106.998 106.005 106.819 106.221 106.693Z" fill="#E0E0E0"/>
</g>
<defs>
<clipPath id="clip0_1_4111">
<rect width="120" height="120" fill="white"/>
</clipPath>
</defs>
</svg>
