<svg width="403" height="366" viewBox="0 0 403 366" fill="none" xmlns="http://www.w3.org/2000/svg">
<path d="M53.7974 273.94C0.26049 171.577 60.7911 148.66 114.772 90.3728C159.213 42.3859 166.605 -4.5572 263.435 4.02059C322.868 9.28546 326.705 63.6705 347 120C367.439 176.73 412.394 227.605 373.916 273.94C337.458 317.842 290.405 314.913 233.797 308.824C185.951 303.677 117.068 394.913 53.7974 273.94Z" stroke="#01A796" stroke-opacity="0.2" stroke-width="6"/>
<path fillRule="evenodd" clipRule="evenodd" d="M282 366C309.614 366 332 343.614 332 316C332 288.386 309.614 266 282 266C254.386 266 232 288.386 232 316C232 343.614 254.386 366 282 366ZM282 346C298.569 346 312 332.569 312 316C312 299.431 298.569 286 282 286C265.431 286 252 299.431 252 316C252 332.569 265.431 346 282 346Z" fill="#01A796" fill-opacity="0.1"/>
<path fillRule="evenodd" clipRule="evenodd" d="M20 171C31.0457 171 40 162.046 40 151C40 139.954 31.0457 131 20 131C8.9543 131 0 139.954 0 151C0 162.046 8.9543 171 20 171ZM20 163C26.6274 163 32 157.627 32 151C32 144.373 26.6274 139 20 139C13.3726 139 8 144.373 8 151C8 157.627 13.3726 163 20 163Z" fill="#01A796" fill-opacity="0.1"/>
<path d="M343 51C343 67.5687 356.431 81 373 81C389.569 81 403 67.5687 403 51C403 34.4313 389.569 21 373 21C356.431 21 343 34.4313 343 51Z" fill="#01A796" fill-opacity="0.1"/>
<path d="M130.817 46C100.326 46.0019 67.7327 64.2774 50.6716 95.119C15.9169 157.946 123.556 316.865 220.651 321.866C311.033 326.522 435.507 208.781 371.313 111.114C335.87 57.1899 284.881 64.2791 216.129 55.712C180.986 51.3328 184.839 45.9966 130.817 46Z" fill="#F2F8F8"/>
<path d="M275.145 177.739C276.734 168.999 275.955 163.417 273.983 155.893C273.961 155.809 273.887 155.748 273.8 155.744L250.538 154.561C250.436 154.556 250.347 154.627 250.33 154.728L247.965 168.92C247.962 168.936 247.962 168.952 247.963 168.968C248.763 179.74 250.757 186.931 251.557 198.5C251.558 198.518 251.557 198.535 251.554 198.552C249.564 208.89 246.786 216.464 248.736 229.546C248.75 229.639 248.829 229.712 248.923 229.717L271.343 230.897C271.455 230.903 271.55 230.815 271.553 230.702C271.924 216.408 269.552 204.102 269.549 196.144C269.549 196.133 269.549 196.124 269.551 196.113C269.961 193.693 272.964 184.905 275.145 177.739Z" fill="#409090"/>
<path d="M271.554 230.702C271.926 216.398 269.55 204.085 269.55 196.128C269.55 207.322 270.827 212.519 268.75 223.712C268.305 226.111 261.248 225.711 261.154 222.513C260.478 199.326 260.355 187.896 260.355 164.946C259.574 187.896 259.555 199.726 257.556 222.513C257.346 224.912 251.12 226.511 250.36 223.712C248.299 216.117 250.36 210.92 251.56 198.527C249.57 208.878 246.786 216.453 248.737 229.546C248.751 229.639 248.83 229.712 248.925 229.717L271.344 230.897C271.456 230.903 271.551 230.815 271.554 230.702Z" fill="#60858D"/>
<path d="M276.145 177.739C277.734 168.999 276.955 163.417 274.983 155.893C274.961 155.809 274.887 155.748 274.8 155.744L251.538 154.561C251.436 154.556 251.347 154.627 251.33 154.728L248.965 168.92C248.962 168.936 248.962 168.952 248.963 168.968C249.763 179.74 251.757 186.931 252.557 198.5C252.558 198.518 252.557 198.535 252.554 198.552C250.564 208.89 247.786 216.464 249.736 229.546C249.75 229.639 249.829 229.712 249.923 229.717L272.343 230.897C272.455 230.903 272.55 230.815 272.553 230.702C272.924 216.408 270.552 204.102 270.549 196.144C270.549 196.133 270.549 196.124 270.551 196.113C270.961 193.693 273.964 184.905 276.145 177.739Z" fill="#409090"/>
<path d="M272.554 230.702C272.926 216.398 270.55 204.085 270.55 196.128C270.55 207.322 271.827 212.519 269.75 223.712C269.305 226.111 262.248 225.711 262.154 222.513C261.478 199.326 261.355 187.896 261.355 164.946C260.574 187.896 260.555 199.726 258.556 222.513C258.346 224.912 252.12 226.511 251.36 223.712C249.299 216.117 251.36 210.92 252.56 198.527C250.57 208.878 247.786 216.453 249.737 229.546C249.751 229.639 249.83 229.712 249.925 229.717L272.344 230.897C272.456 230.903 272.551 230.815 272.554 230.702Z" fill="#60858D"/>
<path d="M152.021 244.02L162.07 240.157C162.153 240.125 162.205 240.041 162.197 239.952L161.829 235.887C161.82 235.784 161.734 235.705 161.63 235.705H149.685C149.552 235.705 149.456 235.832 149.493 235.96L151.757 243.889C151.789 244.001 151.911 244.062 152.021 244.02Z" fill="#FDCB96"/>
<path d="M151.599 258.271C157.704 255.918 163.081 252.8 168.086 248.211C168.157 248.146 168.171 248.039 168.12 247.958L164.32 241.876C164.26 241.781 164.131 241.755 164.037 241.817C159.543 244.829 157.509 246.766 152.792 248.315C152.44 248.431 152.051 248.334 151.794 248.067C148.577 244.741 147.73 242.532 145.082 238.984C145.044 238.934 144.984 238.903 144.921 238.903H138.949C138.8 238.903 138.704 239.062 138.77 239.195C142.578 246.846 144.6 252.301 150.567 258.063C150.84 258.327 151.244 258.408 151.599 258.271Z" fill="#FFD59B"/>
<path d="M161.012 241.302L167.408 238.904V232.107L158.613 234.906C159.813 236.505 160.612 238.106 161.012 241.302Z" fill="#E3AB87"/>
<path d="M170.871 229.709C172.832 229.184 173.383 227.763 177.54 226.953C177.67 226.928 177.79 227.036 177.777 227.168L176.479 240.329C176.467 240.447 176.355 240.529 176.239 240.504C170.213 239.212 166.089 235.906 160.727 237.256C160.635 237.279 160.572 237.367 160.575 237.462C160.67 240.018 159.096 241.983 157.135 242.508C156.134 242.776 153.23 241.946 152.693 239.944C152.452 239.042 154.132 237.19 156.199 235.976C156.378 235.871 156.311 235.579 156.104 235.571L149.901 235.343C149.868 235.342 149.836 235.333 149.808 235.316L144.868 232.465C144.81 232.431 144.772 232.37 144.769 232.302L144.234 222.469C144.231 222.404 144.26 222.34 144.312 222.3C147.366 219.954 149.403 221.515 153.371 220.452C154.828 220.061 155.814 219.797 157.456 218.376C157.54 218.304 157.667 218.311 157.738 218.395C158.303 219.065 158.474 219.507 158.591 219.919C158.621 220.025 158.73 220.088 158.839 220.066C159.768 219.88 160.809 220.111 161.962 220.759C162.017 220.79 162.083 220.794 162.141 220.771C162.544 220.613 164.149 220.033 164.685 220.639C165.29 221.321 165.518 225.627 164.737 228.532C164.713 228.621 164.75 228.714 164.831 228.759C166.13 229.479 168.455 230.356 170.871 229.709Z" fill="#FFD59B"/>
<path d="M145.613 230.779C146.819 226.87 143.323 224.734 144.21 222.416C144.222 222.384 144.244 222.355 144.272 222.333C146.431 220.654 148.079 220.932 150.246 220.877C149.511 219.976 148.916 219.594 147.948 219.357C147.815 219.325 147.746 219.174 147.802 219.05C148.037 218.518 148.206 217.738 148.308 216.709C148.329 216.501 148.042 216.405 147.922 216.576C147.455 217.242 146.685 218.221 145.906 218.698C143.772 220.005 144.137 218.099 139.632 219.306C137.867 219.779 136.606 222.336 136.238 223.167C136.181 223.294 136.018 223.33 135.923 223.229C135.587 222.874 135.198 222.349 134.834 221.905C134.7 221.742 134.486 221.877 134.555 222.076C134.975 223.296 135.657 225.622 135.246 226.896C135.24 226.913 135.237 226.93 135.236 226.947C135.033 230.222 133.706 235.872 137.222 240.337C139.664 243.436 145.507 247.233 149.011 246.295C151.514 245.625 154.741 242.078 154.741 242.078C153.823 241.654 152.963 240.946 152.695 239.945C152.439 238.991 154.333 236.975 156.561 235.774C156.702 235.698 156.705 235.495 156.56 235.425C154.237 234.303 153.19 235.961 152.201 234.177C150.619 232.032 148.665 230.48 145.866 231.057C145.707 231.09 145.565 230.935 145.613 230.779Z" fill="#190C17"/>
<path d="M159.851 220.023C160.515 220.092 161.227 220.341 161.988 220.772C162.026 220.793 162.045 220.837 162.035 220.88C161.795 221.891 161.188 223 160.546 224.12C160.493 224.211 160.349 224.169 160.352 224.063C160.382 222.704 160.138 221.739 159.748 220.145C159.732 220.079 159.784 220.016 159.851 220.023Z" fill="#F9F9F6"/>
<path d="M157.608 218.246C158.377 219.113 158.511 219.613 158.645 220.113C158.727 220.42 158.562 220.714 158.343 220.965C158.217 221.11 157.947 220.975 157.906 220.787C157.726 219.969 156.931 219.348 157.172 218.619C157.312 218.503 157.458 218.379 157.608 218.246Z" fill="#FDCB96"/>
<path d="M164.696 228.684C165.4 229.09 166.452 229.567 167.677 229.798C166.136 232.053 162.937 236.129 162.099 237.007C161.599 237.064 161.089 237.16 160.568 237.299C162.214 236.858 162.436 236.263 164.696 228.684Z" fill="#FDCB96"/>
<path d="M155.971 224.19C155.303 223.826 153.641 223.271 153.141 223.385C153.131 223.387 153.122 223.391 153.113 223.397C151.759 224.309 152.427 226.794 153.059 227.159C154.312 227.882 155.886 225.905 156.02 224.281C156.023 224.244 156.004 224.208 155.971 224.19Z" fill="#F9F9F6"/>
<path d="M155.97 224.191C155.302 223.827 153.641 223.272 153.141 223.385C153.131 223.388 153.121 223.392 153.112 223.398C152.625 223.726 152.399 224.259 152.34 224.823C152.336 224.867 152.362 224.908 152.403 224.924C153.629 225.399 154.688 225.471 155.765 225.194C155.797 225.185 155.823 225.162 155.833 225.131C155.932 224.848 155.997 224.56 156.02 224.282C156.023 224.244 156.004 224.209 155.97 224.191Z" fill="#282828"/>
<path d="M153.064 223.431C151.774 224.367 152.434 226.798 153.058 227.159C153.448 227.384 153.151 227.388 152.864 227.357C152.634 227.333 152.428 227.21 152.29 227.024C152.018 226.656 151.579 225.995 151.474 225.439C151.273 224.364 152.31 223.206 152.462 223.044C152.474 223.031 152.489 223.023 152.506 223.019C152.606 223.001 152.956 222.965 153.101 223.318C153.118 223.359 153.1 223.405 153.064 223.431Z" fill="#190C17"/>
<circle cx="152.895" cy="224.737" r="0.517808" transform="rotate(-105 152.895 224.737)" fill="white"/>
<path d="M149.111 223.208C149.257 222.512 148.58 222.351 148.144 222.605C148.123 222.617 148.109 222.638 148.102 222.661C148.041 222.893 147.722 224.192 147.936 225.207C148.045 225.72 148.418 226.285 148.754 226.71C148.828 226.803 148.978 226.698 148.931 226.588C148.766 226.204 148.62 225.744 148.652 225.361C148.724 224.489 149.085 223.294 149.109 223.216C149.11 223.213 149.11 223.211 149.111 223.208Z" fill="#190C17"/>
<path d="M155.857 239.173C156.166 238.277 157.557 237.88 158.397 237.72C158.509 237.698 158.555 237.852 158.454 237.907C157.861 238.225 157.083 238.753 157.446 239.187C157.667 239.452 158.048 238.511 158.238 238.799C159.02 239.99 156.45 241.593 155.847 240.752C155.487 240.25 155.656 239.756 155.857 239.173Z" fill="#FDCB96"/>
<path d="M309.157 241.7C305.72 241.676 303.384 240.92 301.068 240.148C300.987 240.121 300.932 240.045 300.932 239.959V235.829C300.932 235.753 300.975 235.684 301.043 235.651C303.382 234.523 305.337 234.859 306.907 232.144C306.921 232.12 306.93 232.093 306.933 232.067C307.237 229.435 306.934 227.698 308.128 225.311C308.475 224.616 309.27 223.399 311.125 223.317C311.236 223.312 311.326 223.404 311.325 223.514C311.311 230.528 310.527 234.51 309.355 241.532C309.339 241.628 309.254 241.701 309.157 241.7Z" fill="#190C17"/>
<path d="M302.813 241.295C273.383 240.986 258.12 241.702 229.373 242.102L235.72 226.227C235.749 226.153 235.819 226.104 235.898 226.101C246.239 225.7 255.415 224.911 269.349 226.105C281.306 228.098 290.084 230.488 303.607 234.068C303.681 234.088 303.738 234.147 303.753 234.222C304.122 236.195 304.105 239.235 302.987 241.198C302.952 241.26 302.884 241.296 302.813 241.295Z" fill="#3F1C15"/>
<path d="M234.573 240.902C227.481 243.266 223.882 242.015 220.334 241.211C220.243 241.191 220.178 241.11 220.178 241.016V225.505C220.178 225.395 220.267 225.305 220.378 225.304C221.893 225.284 222.947 225.046 224.107 225.156C224.609 225.204 225.116 224.945 225.297 224.474C231.404 208.577 233.085 201.105 240.463 184.759C240.531 184.61 240.633 184.478 240.763 184.378C249.554 177.652 264.786 170.413 278.383 162.239C278.474 162.184 278.593 162.212 278.652 162.301C280.081 164.479 280.214 165.411 281.649 167.595C281.703 167.677 281.691 167.787 281.619 167.853C271.06 177.617 258.619 187.356 251.006 191.11C250.725 191.248 250.524 191.51 250.461 191.817C247.744 205.093 246.915 212.273 242.966 225.305C241.513 230.102 242.159 238.373 234.573 240.902Z" fill="#54271E"/>
<path d="M161.609 242.732C168.242 237.199 171.024 231.302 174.571 227.737C174.593 227.715 174.62 227.698 174.65 227.688C185.417 224.098 192.209 222.112 202.589 224.506C212.126 225.699 213.368 224.915 222.807 224.906C222.903 224.906 222.99 224.976 223.007 225.07C224.154 231.325 223.366 235.292 220.638 241.167C220.603 241.244 220.521 241.291 220.437 241.283C213.802 240.659 208.948 239.699 202.604 239.697C202.594 239.697 202.583 239.698 202.573 239.7C192.222 241.292 187.422 241.692 177.892 241.3C177.836 241.298 177.78 241.319 177.74 241.359C174.233 244.857 171.479 246.841 167.611 249.549C167.507 249.622 167.362 249.581 167.31 249.465C166.148 246.864 164.595 245.299 161.616 243.049C161.513 242.971 161.51 242.815 161.609 242.732Z" fill="#ECBB95"/>
<path d="M276.947 115.772C272.15 109.376 271.35 105.778 272.15 101.78L262.955 104.179L276.947 115.772Z" fill="#54271E"/>
<path d="M272.15 101.78L262.955 104.179L272.15 111.797C266.153 105.38 271.75 107.778 272.15 101.78Z" fill="#311510"/>
<path d="M269.59 109.258C268.084 108.094 267.352 106.933 267.352 105.38L257.913 112.035C257.817 112.102 257.799 112.237 257.875 112.327L263.941 119.531C264.032 119.639 264.203 119.621 264.27 119.497L269.646 109.514C269.693 109.426 269.669 109.318 269.59 109.258Z" fill="#914F33"/>
<path d="M287.675 163.81C286.5 164.93 284.278 165.694 282.362 166.099C282.245 166.124 282.134 166.04 282.124 165.922L281.351 157.038C281.347 156.981 281.366 156.926 281.404 156.885L285.866 152.051C285.978 151.929 286.182 151.989 286.21 152.152C286.942 156.392 287.347 158.676 287.733 163.653C287.737 163.711 287.717 163.769 287.675 163.81Z" fill="#190C17"/>
<path d="M249.362 146.555C249.674 144.526 249.362 143.357 250.162 141.358H255.758C253.573 153.692 253.36 159.748 250.162 172.94C250.942 174.814 250.162 177.338 250.162 178.137L248.962 178.937C248.026 178.312 248.255 178.137 246.963 178.137C244.565 178.137 240.567 186.533 239.768 185.733C239.768 183.734 240.567 180.25 241.367 179.337C243.552 176.839 246.963 173.74 246.963 172.141C245.764 156.949 246.963 151.752 249.362 146.555Z" fill="#AE6845"/>
<path d="M292.458 140.25C291.285 135.69 289.731 132.576 287.44 129.117C287.383 129.031 287.271 129.002 287.18 129.05L280.702 132.48C280.612 132.527 280.572 132.636 280.61 132.731C281.344 134.583 282.115 136.77 284.153 139.294C284.387 139.583 284.454 139.976 284.318 140.323C282.069 146.056 280.907 150.773 279.746 157.734C279.745 157.744 279.742 157.754 279.739 157.764C278.931 160.151 275.743 160.955 274.147 164.545C273.747 165.745 274.547 167.344 275.346 168.143C275.746 168.543 276.746 166.944 277.345 168.143C277.91 169.273 278.12 169.339 278.477 170.68C278.512 170.81 278.661 170.872 278.775 170.801C280.646 169.63 282.142 168.098 282.918 166.205C282.934 166.166 282.937 166.123 282.926 166.082C282.471 164.253 282.15 162.566 282.143 160.999C282.142 160.965 282.151 160.932 282.168 160.902C286.491 153.043 289.655 147.886 292.42 140.856C292.496 140.664 292.51 140.45 292.458 140.25Z" fill="#AE6845"/>
<path d="M272.936 140.112C274.822 134.44 274.561 130.917 275.211 127.503C275.246 127.318 275.494 127.286 275.582 127.452C277.13 130.382 279.152 132.826 281.62 136.015C281.678 136.091 281.783 136.115 281.868 136.072C284.944 134.516 287.637 132.593 289.225 130.662C289.28 130.595 289.284 130.501 289.236 130.428C283.689 122.114 276.226 111.522 273.78 111.362C273.742 111.359 273.708 111.349 273.676 111.329C272.052 110.291 270.994 109.426 269.507 109.009C269.406 108.981 269.302 109.038 269.268 109.137C268.075 112.579 265.793 115.284 263.852 117.611C263.784 117.693 263.663 117.705 263.578 117.641C260.609 115.384 259.757 113.82 257.927 111.231C257.84 111.108 257.653 111.123 257.586 111.257L251.355 123.718C251.344 123.741 251.337 123.767 251.335 123.792C250.716 131.361 250.145 135.3 248.965 141.605C248.95 141.687 248.987 141.772 249.06 141.813C250.953 142.906 252.77 142.941 255.106 142.942C255.227 142.942 255.321 143.049 255.304 143.17L252.962 159.956C252.948 160.057 253.011 160.152 253.109 160.177C260.613 162.101 268.881 160.916 275.993 157.006C276.071 156.964 276.11 156.874 276.091 156.787C274.694 150.624 272.933 145.716 272.926 140.176C272.926 140.155 272.929 140.133 272.936 140.112Z" fill="#01A796"/>
<path d="M253.109 160.177C260.069 161.961 267.685 161.072 274.428 157.814C274.644 157.709 274.52 157.404 274.288 157.467C264.903 160.022 258.417 159.144 256.149 156.153C256.14 156.141 256.133 156.128 256.126 156.114C254.15 151.513 256.123 137.84 257.322 135.373C257.331 135.353 257.342 135.339 257.358 135.324C258.147 134.556 259.757 134.072 262.132 134.547C264.001 134.921 268.668 134.246 272.862 131.867C273.052 131.759 272.944 131.467 272.726 131.49C266.464 132.156 262.132 128.471 262.132 126.951C262.132 120.555 268.928 116.157 269.328 108.961C268.153 112.487 265.826 115.245 263.852 117.611C263.784 117.693 263.663 117.705 263.578 117.641C260.6 115.377 259.752 113.811 257.911 111.209C257.828 111.091 257.652 111.098 257.577 111.222L255.336 114.958L251.353 123.721C251.343 123.742 251.337 123.765 251.335 123.788C251.243 124.916 251.152 125.964 251.06 126.951C252.138 126.951 254.161 131.349 255.336 136.546C256.139 140.099 255.356 142.093 249.458 140.215C249.342 140.179 249.216 140.25 249.194 140.369C249.12 140.772 249.044 141.184 248.965 141.606C248.95 141.688 248.987 141.772 249.06 141.813C250.953 142.906 252.77 142.941 255.106 142.942C255.227 142.942 255.321 143.049 255.304 143.17L252.962 159.956C252.948 160.057 253.011 160.152 253.109 160.177Z" fill="#6DCBC1"/>
<path d="M260.932 112.16C262.537 111.761 266.929 106.963 268.128 104.165C268.528 104.964 269.837 104.855 270.527 104.165C272.126 102.566 273.325 101.366 273.325 100.567C273.325 99.5943 272.126 97.3687 270.926 97.3687C269.727 97.3687 269.708 98.6745 268.928 99.7674L268.128 94.9701L263.731 93.7708L259.757 85.3896L254.136 90.5726L252.137 87.7883C244.166 91.786 248.145 97.7685 251.343 103.365C251.742 104.565 251.886 107.156 252.137 108.163C252.537 109.762 256.535 112.16 260.932 112.16Z" fill="#AE6845"/>
<path d="M251.349 103.384C251.743 104.591 251.887 107.161 252.137 108.163C252.396 109.196 254.157 110.564 256.558 111.402C256.957 115.772 262.554 121.773 261.355 120.971C260.257 120.237 259.494 120.177 258.452 120.172C258.311 120.171 258.214 120.316 258.265 120.448C259.684 124.161 259.355 126.869 258.279 130.912C258.233 131.082 258.004 131.115 257.907 130.968C255.489 127.309 251.706 126.485 250.161 124.168C249.397 123.021 250.459 119.316 249.856 116.549C249.821 116.39 249.624 116.352 249.533 116.486C249.132 117.076 248.876 117.652 248.133 118.02C247.985 118.093 247.837 117.947 247.888 117.79C249.361 113.244 249.33 110.868 248.162 106.977C247.93 106.202 246.766 104.966 245.745 103.366C245.314 102.691 244.91 101.952 244.611 101.155C244.4 100.592 244.242 100.001 244.165 99.3835C244.018 98.2095 243.952 97.0759 243.967 96C243.977 95.2306 244.029 94.4908 244.123 93.7867C244.23 92.9734 244.393 92.2079 244.611 91.5C244.847 90.7334 245.147 90.0342 245.513 89.4149C245.926 88.7145 246.422 88.1162 247 87.6379C247.539 87.1924 248.15 86.851 248.832 86.6283C248.91 86.6028 248.966 86.5326 248.975 86.451C249.482 81.7741 255.767 79.4344 261.686 82.1596C261.73 82.1798 261.78 82.1839 261.827 82.1712C264.611 81.4087 267.994 82.4866 270.15 84.9899C271.871 86.9888 272.948 91.3881 271.871 97.7844C271.572 97.5301 271.249 97.369 270.926 97.369C269.874 97.369 269.731 98.3742 269.184 99.3588C269.097 99.5146 268.877 99.4673 268.846 99.2919C268.535 97.5522 268.084 95.752 267.351 95.3858C265.359 94.1901 264.558 94.5839 262.968 93.7939C262.959 93.7892 262.949 93.7833 262.941 93.7772C260.177 91.797 262.49 91.4865 260.979 89.0274C260.964 89.0032 260.943 88.9815 260.919 88.9664C259.718 88.213 256.658 88.5933 254.279 90.4587C254.197 90.5225 254.08 90.5163 254.008 90.4427C252.561 88.9766 252.15 88.6117 251.375 88.9567C251.351 88.9677 251.328 88.9845 251.31 89.0045C247.751 92.9919 248.153 97.7731 251.333 103.348C251.34 103.36 251.345 103.371 251.349 103.384Z" fill="#431F18"/>
<path d="M261.828 82.1712C264.612 81.4087 267.995 82.4866 270.151 84.9899C271.018 85.9972 271.722 87.614 272.069 89.7887C270.95 86.1869 268.951 85.3912 266.153 84.5917C265.459 84.3935 263.355 84.9915 261.356 84.1919C260.985 84.0435 260.382 82.8483 259.757 82.9926C257.727 83.461 254.56 84.9915 254.16 83.3924C253.848 82.6111 254.56 81.9906 253.76 82.1913C252.161 82.5928 250.562 83.7922 248.963 86.5876C249.361 81.8199 255.71 79.408 261.687 82.1596C261.731 82.1798 261.781 82.1839 261.828 82.1712Z" fill="#5E2A23"/>
<path d="M254.009 90.4428C252.562 88.9767 252.151 88.6118 251.376 88.9568C251.352 88.9678 251.329 88.9843 251.311 89.0044C250.191 90.2589 249.464 91.5921 249.091 93.0038C249.053 93.1934 249.01 93.3802 248.963 93.5627C249 93.375 249.042 93.1887 249.091 93.0038C249.562 90.6881 249.453 87.9491 250.562 87.3881C252.132 86.5933 252.418 86.9873 254.118 86.9902C254.13 86.9902 254.143 86.989 254.155 86.9867C256.64 86.5163 257.767 85.3918 261.356 86.1887C262.955 86.5438 263.061 89.4437 264.154 91.7855C265.314 93.7188 269.092 96.0261 271.904 95.4542C272.041 95.4262 272.173 95.5359 272.159 95.6754C272.089 96.3521 271.995 97.0553 271.872 97.7845C271.573 97.5302 271.25 97.3692 270.927 97.3692C269.875 97.3692 269.731 98.3743 269.185 99.3589C269.098 99.5147 268.878 99.4674 268.847 99.292C268.536 97.5523 268.085 95.7521 267.352 95.3859C265.359 94.1902 264.559 94.584 262.969 93.794C262.96 93.7893 262.95 93.7834 262.942 93.7773C260.178 91.7971 262.491 91.4866 260.98 89.0275C260.965 89.0033 260.944 88.9816 260.92 88.9665C259.719 88.2131 256.659 88.5934 254.28 90.4588C254.198 90.5226 254.081 90.5164 254.009 90.4428Z" fill="#311510"/>
<path d="M252.206 108.365C252.625 109.369 254.312 110.618 256.559 111.402C256.958 115.772 262.555 121.773 261.356 120.971C260.258 120.238 259.495 120.177 258.453 120.172C258.312 120.172 258.215 120.316 258.266 120.448C259.685 124.161 259.356 126.869 258.28 130.912C258.234 131.082 258.005 131.115 257.908 130.968C256.818 129.32 255.451 128.246 254.137 127.352C257.358 128.167 257.358 124.169 257.358 123.369C257.358 118.939 255.994 117.236 254.508 115.111C254.395 114.949 254.1 115.029 254.032 115.214C253.913 115.534 253.694 115.814 253.369 116.157C253.238 116.295 253.008 116.183 253.03 115.994C253.349 113.226 253.287 111.617 252.206 108.365C252.177 108.297 252.155 108.229 252.138 108.163C252.161 108.231 252.184 108.299 252.206 108.365Z" fill="#311510"/>
<path d="M269.955 99.0816C269.386 99.6677 269.323 101.388 269.342 102.441C269.344 102.559 269.515 102.571 269.541 102.455C269.741 101.559 270.117 100.287 270.61 100.439C270.907 100.531 270.623 102.047 270.911 101.962C272.621 101.457 272.096 98.6969 271.191 98.4903C270.651 98.3671 270.332 98.6941 269.955 99.0816Z" fill="#914F33"/>
<path d="M259.353 110.169C258.218 110.229 256.555 109.37 256.555 109.37C258.549 110.093 260.544 108.975 262.936 107.778C262.941 107.776 262.946 107.773 262.951 107.771C262.946 107.773 262.941 107.776 262.936 107.778C261.348 108.576 260.743 110.096 259.353 110.169Z" fill="#89210F"/>
<path d="M257.356 102.574C256.848 101.058 256.445 100.331 254.957 98.9756C256.556 100.175 257.356 101.374 257.755 102.574C257.755 103.773 257.356 105.772 257.755 106.171C258.155 106.571 258.955 106.571 259.754 106.171C259.355 106.571 258.955 106.971 258.555 106.971C258.155 106.971 256.956 106.971 256.956 106.571C256.956 104.79 257.356 104.173 257.356 102.574Z" fill="#914F33"/>
<path d="M261.439 104.548C260.296 104.12 260.493 102.561 260.69 102.167C261.089 101.367 261.889 100.568 263.488 100.568C264.288 100.568 265.336 100.568 265.736 101.767C266 102.56 263.531 104.138 261.541 104.555C261.507 104.562 261.472 104.56 261.439 104.548Z" fill="#F9F9F6"/>
<path d="M260.965 101.716C261.412 101.108 262.156 100.594 263.393 100.569C263.453 100.568 263.511 100.595 263.548 100.642C264.141 101.391 264.511 102.148 264.536 103.16C264.537 103.227 264.504 103.29 264.448 103.326C263.811 103.738 263.017 104.121 262.239 104.369C262.176 104.389 262.107 104.376 262.057 104.334C261.324 103.722 260.942 102.954 260.928 101.831C260.928 101.79 260.94 101.749 260.965 101.716Z" fill="#282828"/>
<circle cx="263.571" cy="101.195" r="0.517808" transform="rotate(-105 263.571 101.195)" fill="white"/>
<path d="M258.536 98.1666C258.144 98.5539 257.754 98.1745 258.121 97.7824C258.133 97.7696 258.144 97.7557 258.154 97.7407C258.232 97.6122 258.653 96.961 259.339 96.5636C259.996 96.1835 261.164 96.1392 262.265 96.2082C262.512 96.2237 262.488 96.5537 262.24 96.5695C261.427 96.6214 260.622 96.7343 260.139 96.9633C259.271 97.3747 258.594 98.1034 258.543 98.1594L258.536 98.1666Z" fill="#311510"/>
<path d="M255.092 104.36C255.873 103.883 255.518 102.755 255.319 102.489C254.913 101.946 253.753 101.168 252.56 101.384C251.963 101.491 251.635 101.923 251.499 102.872C251.409 103.497 253.453 104.339 254.993 104.386C255.028 104.387 255.062 104.378 255.092 104.36Z" fill="#F9F9F6"/>
<path d="M255.04 102.178C254.624 101.775 253.963 101.247 253.054 101.369C252.994 101.377 252.942 101.415 252.915 101.469C252.588 102.114 252.463 102.962 252.577 103.724C252.586 103.79 252.631 103.845 252.692 103.871C253.211 104.085 253.835 104.257 254.433 104.338C254.498 104.347 254.563 104.322 254.605 104.271C255.055 103.724 255.231 103.108 255.096 102.285C255.089 102.244 255.07 102.207 255.04 102.178Z" fill="#282828"/>
<circle r="0.392715" transform="matrix(0.0827777 -0.996568 -0.996568 -0.0827777 254.764 102.493)" fill="white"/>
<path d="M253.73 98.4812C254.096 98.8027 254.447 98.475 254.107 98.1485C254.094 98.1361 254.082 98.1227 254.072 98.108C253.993 97.993 253.596 97.4529 252.964 97.1297C252.439 96.8614 251.57 96.8116 250.694 96.853C250.445 96.8647 250.471 97.1926 250.719 97.2099C251.316 97.2514 251.872 97.3337 252.235 97.4847C253.039 97.8186 253.672 98.4251 253.723 98.4745L253.73 98.4812Z" fill="#311510"/>
</svg>
