<svg width="120" height="120" viewBox="0 0 120 120" fill="none" xmlns="http://www.w3.org/2000/svg">
<path d="M80 80C80 102.092 62.0917 120 40 120C17.9083 120 0 102.092 0 80C0 57.9083 17.9083 40 40 40C62.0917 40 80 57.9083 80 80Z" fill="white"/>
<path d="M49.5269 88.2181C45.8542 87.2363 40.4178 90.509 37.1997 88.6363C35.5815 87.6909 34.7997 85.6545 34.0906 83.509L22.2542 104.073C21.8542 104.764 22.4724 105.6 23.2542 105.436L36.0178 102.545C36.4906 102.436 36.9633 102.709 37.0906 103.164L40.9997 115.636C41.236 116.4 42.2724 116.509 42.6724 115.818L55.8724 92.8727C53.7451 91.1636 51.7269 88.7999 49.5269 88.2181Z" fill="#01A796"/>
<path d="M41.2178 99.9636C41.0724 99.509 40.5997 99.2363 40.1451 99.3454L27.3815 102.236C26.5997 102.418 25.9815 101.582 26.3815 100.873L34.9997 85.909C34.6542 85.1636 34.3633 84.3454 34.0906 83.509L22.2542 104.073C21.8542 104.764 22.4724 105.6 23.2542 105.436L36.0178 102.545C36.4906 102.436 36.9633 102.709 37.0906 103.164L40.9997 115.636C41.236 116.4 42.2724 116.509 42.6724 115.818L44.9451 111.873L41.2178 99.9636Z" fill="#81B8B2"/>
<path d="M97.7451 104.073L85.9088 83.509C85.1997 85.6545 84.4179 87.709 82.7997 88.6545C79.5815 90.509 74.1451 87.2545 70.4724 88.2363C68.2724 88.8181 66.2542 91.1818 64.127 92.909L77.327 115.854C77.727 116.545 78.7633 116.436 78.9997 115.673L82.9088 103.2C83.0542 102.745 83.527 102.473 83.9815 102.582L96.7451 105.473C97.527 105.6 98.1451 104.764 97.7451 104.073Z" fill="#01A796"/>
<path d="M79.5084 112.8L66.7266 90.5818C65.8539 91.3454 64.9993 92.1636 64.1084 92.8727L77.3084 115.818C77.7084 116.509 78.7448 116.4 78.9811 115.636L79.7811 113.055C79.6902 112.982 79.5811 112.927 79.5084 112.8Z" fill="#81B8B2"/>
<path d="M105.6 49.3091C105.6 53.1637 100.018 56.2182 99.0725 59.7818C98.0907 63.4546 101.363 68.8909 99.4907 72.1091C97.5998 75.3637 91.2362 75.2546 88.5816 77.8909C85.9271 80.5455 86.0543 86.9091 82.7998 88.7818C79.5816 90.6364 74.1452 87.3818 70.4725 88.3636C66.9271 89.3091 63.8543 94.8909 59.9998 94.8909C56.1452 94.8909 53.0907 89.3091 49.5271 88.3636C45.8543 87.3818 40.418 90.6546 37.1998 88.7818C33.9271 86.8909 34.0543 80.5273 31.418 77.8727C28.7634 75.2182 22.3998 75.3455 20.5271 72.0909C18.6725 68.8727 21.9271 63.4364 20.9452 59.7636C19.9998 56.2182 14.418 53.1455 14.418 49.2909C14.418 45.4364 19.9998 42.3818 20.9452 38.8182C21.9271 35.1455 18.6543 29.7091 20.5271 26.4909C22.418 23.2364 28.7816 23.3455 31.4362 20.7091C34.0907 18.0546 33.9634 11.6909 37.218 9.8182C40.4361 7.96365 45.8725 11.2182 49.5452 10.2364C53.0907 9.29093 56.1452 3.70911 59.9998 3.70911C63.8543 3.70911 66.9089 9.29093 70.4725 10.2364C74.1452 11.2182 79.5816 7.94547 82.7998 9.8182C86.0725 11.7091 85.9452 18.0727 88.5816 20.7273C91.2362 23.3818 97.5998 23.2546 99.4725 26.5091C101.327 29.7273 98.0725 35.1637 99.0543 38.8364C100.018 42.3818 105.6 45.4546 105.6 49.3091Z" fill="#FFC638"/>
<path opacity="0.35" d="M99.0539 38.8364C98.072 35.1637 101.345 29.7273 99.472 26.5091C97.5811 23.2546 91.2175 23.3637 88.5811 20.7273C85.9266 18.0727 86.0539 11.7091 82.7993 9.8182C79.5811 7.96365 74.1448 11.2182 70.472 10.2364C66.9084 9.29093 63.8539 3.70911 59.9993 3.70911C59.9629 3.70911 59.9448 3.70911 59.9084 3.70911C56.9266 3.78183 56.5448 8.36365 59.4539 8.92729C59.7084 8.98183 59.9629 9.00002 60.2175 9.0182C60.7811 9.29093 61.9629 10.3637 62.6902 11.0182C64.5448 12.7091 66.6539 14.6 69.5084 15.3818C72.4357 16.1637 75.272 15.5637 77.7811 15.0364C78.5993 14.8546 79.7448 14.6182 80.4539 14.5637C80.7629 15.2182 81.1448 16.3455 81.3993 17.1637C82.1811 19.5818 83.072 22.3273 85.1811 24.4364C87.3084 26.5637 90.0357 27.4546 92.4539 28.2182C93.272 28.4727 94.3993 28.8546 95.0539 29.1637C94.9993 29.8727 94.7629 31.0182 94.5811 31.8364C94.0539 34.3455 93.4539 37.1637 94.2357 40.1091C94.9993 42.9637 96.9084 45.0727 98.5811 46.9273C99.1448 47.5637 100.036 48.5455 100.436 49.1637C100.036 49.7818 99.1448 50.7637 98.5811 51.4C96.8902 53.2546 94.9993 55.3637 94.2357 58.2364C94.0175 59.0727 94.072 59.9455 94.3811 60.7455C94.4902 61 94.5811 61.2364 94.6902 61.4727C95.6357 63.5637 98.6357 62.8909 98.8902 60.6C98.9266 60.3273 98.9629 60.0546 99.0357 59.8C99.9811 56.2546 105.563 53.1818 105.563 49.3273C105.599 45.4546 100.017 42.3818 99.0539 38.8364Z" fill="#EAB329"/>
<path d="M60.472 79.509C77.2414 79.509 90.8357 65.9148 90.8357 49.1454C90.8357 32.376 77.2414 18.7817 60.472 18.7817C43.7027 18.7817 30.1084 32.376 30.1084 49.1454C30.1084 65.9148 43.7027 79.509 60.472 79.509Z" fill="white"/>
<path d="M47.0179 36.2183L37.2725 47.2183H83.6725L73.9088 36.2183H47.0179Z" fill="#665E93"/>
<path d="M60.4725 69.4364L83.6725 47.2183H37.2725L60.4725 69.4364Z" fill="#665E93"/>
<path d="M54.4721 36.2183L60.472 47.2183H48.4902L54.4721 36.2183Z" fill="#AFA2BE"/>
<path d="M66.49 36.2183L72.4536 47.2183H60.5264L66.49 36.2183Z" fill="#AFA2BE"/>
<path d="M66.9085 57.4729L60.4721 69.4547L54.0176 57.4729L60.4721 47.2002L66.9085 57.4729Z" fill="#AFA2BE"/>
</svg>
