<svg width="36" height="36" viewBox="0 0 36 36" fill="none" xmlns="http://www.w3.org/2000/svg">
<path d="M21.3323 4.3167C19.0967 2.93787 16.4475 2.17969 13.7109 2.17969C6.26161 2.17969 0 7.72966 0 14.8359C0 17.3275 0.774 19.7159 2.24423 21.7787L0.190406 28.2267C-0.0265781 28.9079 0.483609 29.6016 1.19552 29.6016C1.3583 29.6016 1.52213 29.5639 1.6733 29.487L7.9193 26.3112C8.17221 26.4201 8.42829 26.5215 8.68697 26.6155C7.24085 24.3584 6.46875 21.7673 6.46875 19.0547C6.46875 10.976 13.2664 4.76522 21.3323 4.3167Z" fill="#503895"/>
<path d="M33.7558 25.9974C35.226 23.9347 36 21.5462 36 19.0547C36 11.9458 29.7357 6.39844 22.2891 6.39844C14.8397 6.39844 8.57812 11.9484 8.57812 19.0547C8.57812 26.1636 14.8424 31.7109 22.2891 31.7109C24.2871 31.7109 26.278 31.3038 28.0804 30.5298L34.3267 33.7058C34.7058 33.8985 35.1636 33.8447 35.4877 33.5693C35.8118 33.2939 35.9388 32.8508 35.8097 32.4456L33.7558 25.9974ZM18 20.1094C17.4175 20.1094 16.9453 19.6372 16.9453 19.0547C16.9453 18.4722 17.4175 18 18 18C18.5825 18 19.0547 18.4722 19.0547 19.0547C19.0547 19.6372 18.5825 20.1094 18 20.1094ZM22.2188 20.1094C21.6363 20.1094 21.1641 19.6372 21.1641 19.0547C21.1641 18.4722 21.6363 18 22.2188 18C22.8012 18 23.2734 18.4722 23.2734 19.0547C23.2734 19.6372 22.8012 20.1094 22.2188 20.1094ZM26.4375 20.1094C25.855 20.1094 25.3828 19.6372 25.3828 19.0547C25.3828 18.4722 25.855 18 26.4375 18C27.02 18 27.4922 18.4722 27.4922 19.0547C27.4922 19.6372 27.02 20.1094 26.4375 20.1094Z" fill="#01A796"/>
</svg>
