<svg width="36" height="36" viewBox="0 0 36 36" fill="none" xmlns="http://www.w3.org/2000/svg">
<g clipPath="url(#clip0_2_22121)">
<path d="M15.8906 28.9688H20.1094V36H15.8906V28.9688Z" fill="#503895"/>
<path d="M10.6172 1.05469V36H13.7812V27.9141C13.7812 27.3315 14.2534 26.8594 14.8359 26.8594H21.1641C21.7466 26.8594 22.2188 27.3315 22.2188 27.9141V36H25.3828V1.05469C25.3828 0.472137 24.9107 0 24.3281 0H11.6719C11.0893 0 10.6172 0.472137 10.6172 1.05469ZM14.8359 23.5547C14.8359 24.1372 14.3638 24.6094 13.7812 24.6094C13.1987 24.6094 12.7266 24.1372 12.7266 23.5547V22.1484C12.7266 21.5659 13.1987 21.0938 13.7812 21.0938C14.3638 21.0938 14.8359 21.5659 14.8359 22.1484V23.5547ZM14.8359 17.9297C14.8359 18.5122 14.3638 18.9844 13.7812 18.9844C13.1987 18.9844 12.7266 18.5122 12.7266 17.9297V16.5234C12.7266 15.9409 13.1987 15.4688 13.7812 15.4688C14.3638 15.4688 14.8359 15.9409 14.8359 16.5234V17.9297ZM14.8359 12.3047C14.8359 12.8872 14.3638 13.3594 13.7812 13.3594C13.1987 13.3594 12.7266 12.8872 12.7266 12.3047V10.8984C12.7266 10.3159 13.1987 9.84375 13.7812 9.84375C14.3638 9.84375 14.8359 10.3159 14.8359 10.8984V12.3047ZM14.8359 6.67969C14.8359 7.26224 14.3638 7.73438 13.7812 7.73438C13.1987 7.73438 12.7266 7.26224 12.7266 6.67969V5.27344C12.7266 4.69089 13.1987 4.21875 13.7812 4.21875C14.3638 4.21875 14.8359 4.69089 14.8359 5.27344V6.67969ZM19.0547 23.5547C19.0547 24.1372 18.5826 24.6094 18 24.6094C17.4174 24.6094 16.9453 24.1372 16.9453 23.5547V22.1484C16.9453 21.5659 17.4174 21.0938 18 21.0938C18.5826 21.0938 19.0547 21.5659 19.0547 22.1484V23.5547ZM19.0547 17.9297C19.0547 18.5122 18.5826 18.9844 18 18.9844C17.4174 18.9844 16.9453 18.5122 16.9453 17.9297V16.5234C16.9453 15.9409 17.4174 15.4688 18 15.4688C18.5826 15.4688 19.0547 15.9409 19.0547 16.5234V17.9297ZM19.0547 12.3047C19.0547 12.8872 18.5826 13.3594 18 13.3594C17.4174 13.3594 16.9453 12.8872 16.9453 12.3047V10.8984C16.9453 10.3159 17.4174 9.84375 18 9.84375C18.5826 9.84375 19.0547 10.3159 19.0547 10.8984V12.3047ZM19.0547 6.67969C19.0547 7.26224 18.5826 7.73438 18 7.73438C17.4174 7.73438 16.9453 7.26224 16.9453 6.67969V5.27344C16.9453 4.69089 17.4174 4.21875 18 4.21875C18.5826 4.21875 19.0547 4.69089 19.0547 5.27344V6.67969ZM23.2734 23.5547C23.2734 24.1372 22.8013 24.6094 22.2188 24.6094C21.6362 24.6094 21.1641 24.1372 21.1641 23.5547V22.1484C21.1641 21.5659 21.6362 21.0938 22.2188 21.0938C22.8013 21.0938 23.2734 21.5659 23.2734 22.1484V23.5547ZM23.2734 17.9297C23.2734 18.5122 22.8013 18.9844 22.2188 18.9844C21.6362 18.9844 21.1641 18.5122 21.1641 17.9297V16.5234C21.1641 15.9409 21.6362 15.4688 22.2188 15.4688C22.8013 15.4688 23.2734 15.9409 23.2734 16.5234V17.9297ZM23.2734 12.3047C23.2734 12.8872 22.8013 13.3594 22.2188 13.3594C21.6362 13.3594 21.1641 12.8872 21.1641 12.3047V10.8984C21.1641 10.3159 21.6362 9.84375 22.2188 9.84375C22.8013 9.84375 23.2734 10.3159 23.2734 10.8984V12.3047ZM23.2734 6.67969C23.2734 7.26224 22.8013 7.73438 22.2188 7.73438C21.6362 7.73438 21.1641 7.26224 21.1641 6.67969V5.27344C21.1641 4.69089 21.6362 4.21875 22.2188 4.21875C22.8013 4.21875 23.2734 4.69089 23.2734 5.27344V6.67969Z" fill="#503895"/>
<path d="M34.875 11.25H27.4922V36H34.875C35.4576 36 35.9297 35.5279 35.9297 34.9453V12.3047C35.9297 11.7221 35.4576 11.25 34.875 11.25ZM32.7656 29.1797C32.7656 29.7622 32.2935 30.2344 31.7109 30.2344C31.1284 30.2344 30.6562 29.7622 30.6562 29.1797V27.7734C30.6562 27.1909 31.1284 26.7188 31.7109 26.7188C32.2935 26.7188 32.7656 27.1909 32.7656 27.7734V29.1797ZM32.7656 23.5547C32.7656 24.1372 32.2935 24.6094 31.7109 24.6094C31.1284 24.6094 30.6562 24.1372 30.6562 23.5547V22.1484C30.6562 21.5659 31.1284 21.0938 31.7109 21.0938C32.2935 21.0938 32.7656 21.5659 32.7656 22.1484V23.5547ZM32.7656 17.9297C32.7656 18.5122 32.2935 18.9844 31.7109 18.9844C31.1284 18.9844 30.6562 18.5122 30.6562 17.9297V16.5234C30.6562 15.9409 31.1284 15.4688 31.7109 15.4688C32.2935 15.4688 32.7656 15.9409 32.7656 16.5234V17.9297Z" fill="#01A796"/>
<path d="M1.125 11.25C0.54245 11.25 0.0703125 11.7221 0.0703125 12.3047V34.9453C0.0703125 35.5279 0.54245 36 1.125 36H8.50781V11.25H1.125ZM5.34375 29.1797C5.34375 29.7622 4.87161 30.2344 4.28906 30.2344C3.70651 30.2344 3.23438 29.7622 3.23438 29.1797V27.7734C3.23438 27.1909 3.70651 26.7188 4.28906 26.7188C4.87161 26.7188 5.34375 27.1909 5.34375 27.7734V29.1797ZM5.34375 23.5547C5.34375 24.1372 4.87161 24.6094 4.28906 24.6094C3.70651 24.6094 3.23438 24.1372 3.23438 23.5547V22.1484C3.23438 21.5659 3.70651 21.0938 4.28906 21.0938C4.87161 21.0938 5.34375 21.5659 5.34375 22.1484V23.5547ZM5.34375 17.9297C5.34375 18.5122 4.87161 18.9844 4.28906 18.9844C3.70651 18.9844 3.23438 18.5122 3.23438 17.9297V16.5234C3.23438 15.9409 3.70651 15.4688 4.28906 15.4688C4.87161 15.4688 5.34375 15.9409 5.34375 16.5234V17.9297Z" fill="#01A796"/>
</g>
<defs>
<clipPath id="clip0_2_22121">
<rect width="36" height="36" fill="white"/>
</clipPath>
</defs>
</svg>
