<svg width="120" height="120" viewBox="0 0 120 120" fill="none" xmlns="http://www.w3.org/2000/svg">
<g clipPath="url(#clip0_1_8984)">
<path d="M100 50C100 72.0917 82.0917 90 60 90C37.9083 90 20 72.0917 20 50C20 27.9083 37.9083 10 60 10C82.0917 10 100 27.9083 100 50Z" fill="white"/>
<path d="M66.1996 53.1846H52.8945V63.146C52.8945 65.0597 54.4459 66.6111 56.3596 66.6111H62.7345C64.6482 66.6111 66.1996 65.0597 66.1996 63.146V53.1846Z" fill="#AFA2BE"/>
<path d="M65.3262 64.5545H58.9514C57.0376 64.5545 55.4863 63.0031 55.4863 61.0894V60.2259C55.4863 59.484 56.0876 58.8827 56.8295 58.8827H66.1996V53.1846H52.8945V63.146C52.8945 65.0597 54.4459 66.6111 56.3596 66.6111H62.7345C64.1681 66.6111 65.398 65.7406 65.9252 64.4993C65.7303 64.5335 65.5308 64.5545 65.3262 64.5545Z" fill="#665E93"/>
<path d="M92.577 81.4136L103.16 72.4932C105.337 70.6585 105.606 67.416 103.761 65.251C101.917 63.086 98.6564 62.8183 96.4796 64.653L74.4819 83.1943L66.2031 90.3676L77.7913 94.9237L92.577 81.4136Z" fill="#FFCEB6"/>
<path d="M69.8966 91.4403L78.1754 84.267L100.173 65.7257C101.008 65.0221 102.004 64.6318 103.016 64.535C101.126 63.0537 98.3861 63.046 96.4796 64.6533L74.4819 83.1946L66.2031 90.3679L77.7913 94.924L78.0819 94.6584L69.8966 91.4403Z" fill="#FFBFA1"/>
<path d="M74.9505 82.9419L91.6482 68.9777C93.487 67.1022 93.62 64.1199 91.8742 62.0869C90.0149 59.9219 86.7291 59.6542 84.5351 61.4889L69.6565 73.932L58.5586 82.529L65.1734 90.9303L74.9505 82.9419Z" fill="#FFCEB6"/>
<path d="M62.3092 84.2566L73.4071 75.6596L88.2857 63.2166C89.3049 62.3641 90.5635 61.969 91.8014 62.0035C89.9301 59.916 86.7004 59.6777 84.5351 61.4884L69.6565 73.9314L58.5586 82.5284L65.1734 90.9295L66.6277 89.7412L62.3092 84.2566Z" fill="#FFBFA1"/>
<path d="M82.1296 22.5822C82.1296 10.1105 72.019 0 59.5471 0C47.0751 0 36.9648 10.1105 36.9648 22.5822C36.9648 27.4207 38.4873 31.9033 41.0781 35.5785L51.9442 52.4949V54.6946C51.9442 56.0795 53.0669 57.2023 54.4518 57.2023H64.6419C66.0268 57.2023 67.1495 56.0795 67.1495 54.6946V52.4949L78.0156 35.5785C80.6071 31.9033 82.1296 27.4207 82.1296 22.5822Z" fill="#FFC638"/>
<path d="M50.6012 38.46C47.8924 34.4873 46.3005 29.6416 46.3005 24.4112C46.3005 12.7755 54.1728 3.04203 64.7122 0.594143C63.0527 0.205758 61.3252 0 59.5471 0C47.0751 0 36.9648 10.1105 36.9648 22.5822C36.9648 27.4207 38.4873 31.9033 41.0781 35.5785L51.9442 52.4949V54.6946C51.9442 56.0795 53.0669 57.2023 54.4518 57.2023H60.9055L50.6012 38.46Z" fill="#EAB329"/>
<path d="M61.0346 57.2024H64.4315L65.6133 37.1486H67.5478C70.3156 37.1486 72.5676 34.8965 72.5676 32.1289V31.9229C72.5676 29.1553 70.3156 26.9033 67.5478 26.9033C64.8941 26.9033 62.693 28.9785 62.5368 31.6278L62.4115 33.7526H56.4569L56.3316 31.6278C56.1755 28.9785 53.9743 26.9033 51.3206 26.9033C48.5528 26.9033 46.3008 29.1553 46.3008 31.9229V32.1289C46.3008 34.8965 48.5528 37.1486 51.3206 37.1486H53.2551L54.4369 57.2017C54.4422 57.2017 54.4472 57.2024 54.4525 57.2024H57.8338C57.8338 57.1692 56.6571 37.1486 56.6571 37.1486H62.2116C62.2111 37.1483 61.0346 57.1692 61.0346 57.2024ZM65.9265 31.8275C65.9771 30.9705 66.6891 30.2993 67.5473 30.2993C68.4426 30.2993 69.1709 31.0276 69.1709 31.9229V32.1289C69.1709 33.0242 68.4426 33.7523 67.5473 33.7523H65.8131L65.9265 31.8275ZM51.3204 33.7523C50.4251 33.7523 49.6967 33.024 49.6967 32.1289V31.9229C49.6967 31.0276 50.4251 30.2993 51.3204 30.2993C52.1788 30.2993 52.8908 30.9705 52.9412 31.8275L53.0546 33.7523H51.3204Z" fill="white"/>
<path d="M72.3982 83.149L72.8102 83.1948H88.5624C89.7647 83.1948 90.926 82.7684 91.8415 81.9925L108.555 67.828C109.521 67.0113 110.699 66.6113 111.873 66.6113C113.33 66.6113 114.778 67.2281 115.795 68.4256C117.631 70.5916 117.364 73.8345 115.198 75.668L88.8154 98.0291C86.0904 100.337 82.7463 101.795 79.1997 102.221L49.7384 105.765L38.3039 119.456C37.909 119.929 37.2671 120.116 36.6805 119.928L4.05561 109.492C3.04755 109.17 2.67289 107.939 3.33016 107.11L15.9233 91.2155L16.8605 89.2374C21.4551 79.5495 31.2202 73.3743 41.9417 73.3743H66.8952C68.6733 73.3743 70.2804 74.0947 71.4465 75.2584C72.6102 76.4246 73.3306 78.0316 73.3306 79.8097C73.3306 81.0336 72.9885 82.1757 72.3982 83.149Z" fill="#FFCEB6"/>
<path d="M111.872 66.6113C110.699 66.6113 109.52 67.0113 108.554 67.828L91.8408 81.9925C90.9252 82.7684 89.7639 83.1948 88.5617 83.1948H72.8094L72.3974 83.149C72.5184 82.9495 72.626 82.7414 72.7253 82.5286H38.5508V83.7644C38.5508 87.129 41.2784 89.8566 44.643 89.8566H66.7188C66.7796 89.8578 66.8398 89.8583 66.9003 89.8583C69.6896 89.8583 72.3531 88.6683 74.2365 86.6606C74.6576 86.2115 75.2465 85.9581 75.862 85.9581H90.2236C91.4885 85.9581 92.7105 85.4957 93.6738 84.6544L111.259 69.2956C112.276 68.4099 113.515 67.9762 114.75 67.9762C114.97 67.9762 115.19 67.9916 115.409 68.0191C114.429 67.0893 113.154 66.6113 111.872 66.6113Z" fill="#FFBFA1"/>
<path d="M73.3322 79.8094C73.3322 81.0333 72.9901 82.1753 72.3998 83.1487C71.2457 85.0449 69.14 86.2953 66.7572 86.2423H35.3056L35.084 74.2317C37.2958 73.6704 39.5967 73.374 41.9434 73.374H66.8969C68.675 73.374 70.282 74.0944 71.4481 75.2581C72.6118 76.4242 73.3322 78.0313 73.3322 79.8094Z" fill="#FFCEB6"/>
<path d="M96.9144 26.532H92.6547C91.6565 26.532 90.8477 25.7232 90.8477 24.725C90.8477 23.7268 91.6565 22.918 92.6547 22.918H96.9144C97.9126 22.918 98.7214 23.7268 98.7214 24.725C98.7214 25.7232 97.9126 26.532 96.9144 26.532Z" fill="#FFC638"/>
<path d="M89.7978 15.1699C89.0637 15.1699 88.3734 14.7191 88.1033 13.9903C87.7566 13.0545 88.2339 12.0149 89.1697 11.6679L93.1636 10.1874C94.0994 9.84045 95.1388 10.318 95.486 11.2538C95.8327 12.1896 95.3554 13.2292 94.4196 13.5761L90.4257 15.0567C90.2187 15.1335 90.0065 15.1699 89.7978 15.1699Z" fill="#FFC638"/>
<path d="M93.7913 39.3744C93.5829 39.3744 93.3706 39.338 93.1636 39.2612L89.1697 37.7809C88.2339 37.4342 87.7566 36.3943 88.1033 35.4585C88.4498 34.523 89.4899 34.0459 90.4257 34.3922L94.4196 35.8724C95.3554 36.2192 95.8327 37.259 95.486 38.1948C95.2159 38.9236 94.5254 39.3744 93.7913 39.3744Z" fill="#FFC638"/>
<path d="M26.4476 26.531H22.1879C21.1897 26.531 20.3809 25.7222 20.3809 24.724C20.3809 23.7258 21.1897 22.917 22.1879 22.917H26.4476C27.4458 22.917 28.2546 23.7258 28.2546 24.724C28.2546 25.7222 27.4455 26.531 26.4476 26.531Z" fill="#FFC638"/>
<path d="M29.3069 15.1695C29.0983 15.1695 28.8862 15.1331 28.6793 15.0563L24.6853 13.5757C23.7495 13.229 23.2722 12.1892 23.6189 11.2534C23.9659 10.3176 25.006 9.84102 25.9413 10.187L29.9353 11.6675C30.871 12.0142 31.3483 13.0541 31.0016 13.9899C30.7313 14.7187 30.041 15.1695 29.3069 15.1695Z" fill="#FFC638"/>
<path d="M25.3134 39.3747C24.5791 39.3747 23.889 38.924 23.6189 38.1951C23.2722 37.2593 23.7495 36.2197 24.6853 35.8728L28.6793 34.3925C29.6153 34.0455 30.6547 34.5231 31.0016 35.4588C31.3486 36.3946 30.871 37.4343 29.9353 37.7812L25.9413 39.2615C25.7341 39.3384 25.5218 39.3747 25.3134 39.3747Z" fill="#FFC638"/>
<path d="M19.5081 96.3273L20.4453 94.3493C25.0399 84.6613 34.805 78.4862 45.5265 78.4862H70.48C71.4893 78.4862 72.4458 78.7204 73.2953 79.1338C73.1375 77.627 72.4583 76.2749 71.4445 75.2591C70.2784 74.0954 68.6713 73.375 66.8932 73.375H41.9397C31.2182 73.375 21.4531 79.5501 16.8585 89.2381L15.9213 91.2161L3.32815 107.11C2.67089 107.94 3.04578 109.171 4.0536 109.493L8.06106 110.775L19.5081 96.3273Z" fill="#FFBFA1"/>
</g>
<defs>
<clipPath id="clip0_1_8984">
<rect width="120" height="120" fill="white"/>
</clipPath>
</defs>
</svg>
