<svg width="20" height="20" viewBox="0 0 20 20" fill="none" xmlns="http://www.w3.org/2000/svg">
<g clipPath="url(#clip0_2_6178)">
<path d="M20 6.60156C20 5.29648 20 4.38348 20 4.29688C20 3.32762 19.2114 2.53906 18.2422 2.53906H18.0078V4.6875C18.0078 5.01109 17.7455 5.27344 17.4219 5.27344C17.0983 5.27344 16.8359 5.01109 16.8359 4.6875C16.8359 4.02973 16.8359 2.2175 16.8359 1.5625C16.8359 1.23891 16.5736 0.976562 16.25 0.976562C15.9264 0.976562 15.6641 1.23891 15.6641 1.5625V2.53906H11.7578V4.6875C11.7578 5.01109 11.4955 5.27344 11.1719 5.27344C10.8483 5.27344 10.5859 5.01109 10.5859 4.6875C10.5859 4.02973 10.5859 2.2175 10.5859 1.5625C10.5859 1.23891 10.3236 0.976562 10 0.976562C9.67641 0.976562 9.41406 1.23891 9.41406 1.5625V2.53906H5.50781V4.6875C5.50781 5.01109 5.24547 5.27344 4.92188 5.27344C4.59828 5.27344 4.33594 5.01109 4.33594 4.6875C4.33594 4.02973 4.33594 2.2175 4.33594 1.5625C4.33594 1.23891 4.07359 0.976562 3.75 0.976562C3.42641 0.976562 3.16406 1.23891 3.16406 1.5625V2.53906H1.75781C0.788555 2.53906 0 3.32762 0 4.29688V6.60156H20Z" fill="#9688BF"/>
<path d="M0 7.77344V17.2656C0 18.2349 0.788555 19.0234 1.75781 19.0234H18.2422C19.2114 19.0234 20 18.2349 20 17.2656C20 17.0146 20 11.5308 20 7.77344C19.6354 7.77344 0.201719 7.77344 0 7.77344ZM5.625 15.8984H4.375C4.05141 15.8984 3.78906 15.6361 3.78906 15.3125C3.78906 14.9889 4.05141 14.7266 4.375 14.7266H5.625C5.94859 14.7266 6.21094 14.9889 6.21094 15.3125C6.21094 15.6361 5.94859 15.8984 5.625 15.8984ZM5.625 13.3984H4.375C4.05141 13.3984 3.78906 13.1361 3.78906 12.8125C3.78906 12.4889 4.05141 12.2266 4.375 12.2266H5.625C5.94859 12.2266 6.21094 12.4889 6.21094 12.8125C6.21094 13.1361 5.94859 13.3984 5.625 13.3984ZM5.625 10.8984H4.375C4.05141 10.8984 3.78906 10.6361 3.78906 10.3125C3.78906 9.98891 4.05141 9.72656 4.375 9.72656H5.625C5.94859 9.72656 6.21094 9.98891 6.21094 10.3125C6.21094 10.6361 5.94859 10.8984 5.625 10.8984ZM10.625 15.8984H9.375C9.05141 15.8984 8.78906 15.6361 8.78906 15.3125C8.78906 14.9889 9.05141 14.7266 9.375 14.7266H10.625C10.9486 14.7266 11.2109 14.9889 11.2109 15.3125C11.2109 15.6361 10.9486 15.8984 10.625 15.8984ZM10.625 13.3984H9.375C9.05141 13.3984 8.78906 13.1361 8.78906 12.8125C8.78906 12.4889 9.05141 12.2266 9.375 12.2266H10.625C10.9486 12.2266 11.2109 12.4889 11.2109 12.8125C11.2109 13.1361 10.9486 13.3984 10.625 13.3984ZM10.625 10.8984H9.375C9.05141 10.8984 8.78906 10.6361 8.78906 10.3125C8.78906 9.98891 9.05141 9.72656 9.375 9.72656H10.625C10.9486 9.72656 11.2109 9.98891 11.2109 10.3125C11.2109 10.6361 10.9486 10.8984 10.625 10.8984ZM15.625 15.8984H14.375C14.0514 15.8984 13.7891 15.6361 13.7891 15.3125C13.7891 14.9889 14.0514 14.7266 14.375 14.7266H15.625C15.9486 14.7266 16.2109 14.9889 16.2109 15.3125C16.2109 15.6361 15.9486 15.8984 15.625 15.8984ZM15.625 13.3984H14.375C14.0514 13.3984 13.7891 13.1361 13.7891 12.8125C13.7891 12.4889 14.0514 12.2266 14.375 12.2266H15.625C15.9486 12.2266 16.2109 12.4889 16.2109 12.8125C16.2109 13.1361 15.9486 13.3984 15.625 13.3984ZM15.625 10.8984H14.375C14.0514 10.8984 13.7891 10.6361 13.7891 10.3125C13.7891 9.98891 14.0514 9.72656 14.375 9.72656H15.625C15.9486 9.72656 16.2109 9.98891 16.2109 10.3125C16.2109 10.6361 15.9486 10.8984 15.625 10.8984Z" fill="#9688BF"/>
</g>
<defs>
<clipPath id="clip0_2_6178">
<rect width="20" height="20" fill="white"/>
</clipPath>
</defs>
</svg>
