<svg id="Layer_1" data-name="Layer 1" xmlns="http://www.w3.org/2000/svg" viewBox="0 0 10.54 10.45"><defs><style>.cls-1{fill:#382768;}</style></defs><path class="cls-1" d="M13.27,11.45h0a.43.43,0,0,0-.6,0L11.6,12.53a.9.9,0,0,1-1.15.1,12,12,0,0,1-1.73-1.46A12.82,12.82,0,0,1,7.4,9.64a.91.91,0,0,1,.09-1.17l1.1-1.1h0a.42.42,0,0,0,0-.6L6.72,4.9h0a.42.42,0,0,0-.6,0l-.59.59a2.67,2.67,0,0,0-.67,2.72A9.38,9.38,0,0,0,6,10.52a11.61,11.61,0,0,0,1.52,1.84,11.48,11.48,0,0,0,2,1.64,8.73,8.73,0,0,0,2.57,1.15,2.67,2.67,0,0,0,2.52-.72l.5-.5h0a.42.42,0,0,0,0-.6Z" transform="translate(-4.73 -4.77)"/></svg>