<svg version="1.2" xmlns="http://www.w3.org/2000/svg" viewBox="0 0 16 16" width="16" height="16">
	<style>
		.s0 { fill: #01aed4 } 
		.s1 { fill: #ffffff } 
	</style>
	<g id="Layer">
		<path id="Layer" class="s0" d="m0 8c0-4.4 3.6-8 8-8 4.4 0 8 3.6 8 8 0 4.4-3.6 8-8 8-4.4 0-8-3.6-8-8z"/>
	</g>
	<path id="Layer" class="s1" d="m8 5.1q0.8 0 1.5 0.4 0.7 0.4 1 1 0.4 0.7 0.4 1.5 0 0.8-0.4 1.5l0.4 1.1q0 0 0 0.1 0 0.1 0 0.1-0.1 0.1-0.1 0.1-0.1 0-0.1 0-0.1 0-0.1 0l-1.1-0.4q-0.6 0.4-1.3 0.4-0.7 0.1-1.3-0.2-0.6-0.2-1.1-0.8-0.4-0.5-0.6-1.1-0.2-0.7-0.1-1.4 0.2-0.6 0.6-1.2 0.4-0.5 1-0.8 0.6-0.3 1.3-0.3z"/>
</svg>