<svg width="213" height="170" viewBox="0 0 213 170" fill="none" xmlns="http://www.w3.org/2000/svg">
<path d="M54.8021 169C36.2424 168.999 16.4028 157.875 6.01776 139.101C-15.1373 100.859 50.3822 4.12585 109.483 1.08148C164.498 -1.75241 240.265 69.9161 201.191 129.366C179.617 162.189 148.58 157.874 106.731 163.088C85.3395 165.754 87.6851 169.002 54.8021 169Z" fill="white" stroke="#9A70D8" stroke-opacity="0.1" stroke-width="2"/>
<path d="M141.624 81.1886C142.588 75.8902 142.121 72.4987 140.932 67.9472C140.91 67.863 140.835 67.802 140.748 67.7975L126.715 67.084C126.614 67.0788 126.525 67.1506 126.508 67.2509L125.081 75.8115C125.079 75.8272 125.078 75.8434 125.079 75.8593C125.566 82.4079 126.778 86.7832 127.266 93.816C127.267 93.8332 127.266 93.851 127.262 93.868C126.054 100.139 124.372 104.741 125.54 112.66C125.553 112.754 125.632 112.826 125.727 112.831L139.23 113.542C139.342 113.548 139.437 113.459 139.44 113.347C139.655 104.684 138.221 97.2277 138.218 92.3985C138.218 92.3875 138.218 92.3779 138.22 92.3671C138.474 90.8854 140.298 85.545 141.624 81.1886Z" fill="#409090"/>
<path d="M139.44 113.347C139.655 104.674 138.218 97.2108 138.218 92.3822C138.218 99.1957 138.995 102.359 137.731 109.173C137.46 110.633 133.164 110.389 133.107 108.443C132.696 94.3289 132.621 87.3711 132.621 73.4017C132.146 87.3711 132.134 94.5722 130.917 108.443C130.789 109.903 126.999 110.876 126.537 109.173C125.283 104.549 126.537 101.386 127.268 93.8422C126.059 100.126 124.371 104.73 125.54 112.66C125.554 112.754 125.632 112.826 125.727 112.831L139.23 113.542C139.342 113.548 139.437 113.459 139.44 113.347Z" fill="#60858D"/>
<path d="M142.233 81.1886C143.196 75.8902 142.73 72.4987 141.54 67.9472C141.518 67.863 141.444 67.802 141.357 67.7975L127.324 67.084C127.223 67.0788 127.133 67.1506 127.117 67.2509L125.69 75.8115C125.687 75.8272 125.687 75.8434 125.688 75.8593C126.175 82.4079 127.387 86.7832 127.874 93.816C127.875 93.8332 127.874 93.851 127.871 93.868C126.663 100.139 124.981 104.741 126.148 112.66C126.162 112.754 126.241 112.826 126.336 112.831L139.838 113.542C139.951 113.548 140.046 113.459 140.048 113.347C140.263 104.684 138.83 97.2277 138.826 92.3985C138.826 92.3875 138.827 92.3779 138.829 92.3671C139.082 90.8854 140.907 85.545 142.233 81.1886Z" fill="#409090"/>
<path d="M140.049 113.347C140.264 104.674 138.827 97.2108 138.827 92.3822C138.827 99.1957 139.604 102.359 138.34 109.173C138.069 110.633 133.773 110.389 133.716 108.443C133.305 94.3289 133.23 87.3711 133.23 73.4017C132.754 87.3711 132.743 94.5722 131.526 108.443C131.398 109.903 127.608 110.876 127.146 109.173C125.892 104.549 127.146 101.386 127.876 93.8422C126.668 100.126 124.979 104.73 126.149 112.66C126.163 112.754 126.241 112.826 126.336 112.831L139.839 113.542C139.951 113.548 140.046 113.459 140.049 113.347Z" fill="#60858D"/>
<path d="M66.7576 121.504L72.7393 119.204C72.8228 119.172 72.8748 119.088 72.8668 118.999L72.6545 116.655C72.6451 116.552 72.5588 116.473 72.4553 116.473H65.3596C65.2267 116.473 65.1308 116.6 65.1673 116.728L66.4935 121.372C66.5258 121.485 66.648 121.546 66.7576 121.504Z" fill="#FDCB96"/>
<path d="M66.648 130.121C70.2517 128.707 73.4387 126.842 76.4092 124.129C76.4802 124.064 76.4946 123.957 76.4437 123.876L74.2073 120.298C74.1475 120.202 74.0196 120.175 73.926 120.238C71.3077 121.998 70.0622 123.151 67.3706 124.074C67.0202 124.194 66.6322 124.097 66.3777 123.828C64.5611 121.906 64.0267 120.581 62.4783 118.501C62.4407 118.45 62.3808 118.42 62.3178 118.42H58.848C58.6993 118.42 58.6031 118.577 58.6692 118.71C60.9135 123.233 62.1505 126.496 65.6192 129.912C65.8902 130.179 66.2939 130.26 66.648 130.121Z" fill="#FFD59B"/>
<path d="M72.1514 119.88L76.0449 118.42V114.283L70.6914 115.986C71.4214 116.96 71.9081 117.934 72.1514 119.88Z" fill="#E3AB87"/>
<path d="M78.1522 112.823C79.33 112.508 79.6723 111.661 82.111 111.166C82.2412 111.139 82.3588 111.247 82.3457 111.379L81.5745 119.201C81.5629 119.319 81.451 119.401 81.3351 119.375C77.7364 118.581 75.2486 116.627 72.0403 117.401C71.9476 117.424 71.8854 117.511 71.8872 117.606C71.9167 119.131 70.9684 120.299 69.7917 120.614C69.1824 120.777 67.4144 120.271 67.0879 119.053C66.9512 118.543 67.8247 117.533 68.9585 116.8C69.1327 116.687 69.0624 116.387 68.855 116.38L65.4074 116.253C65.3748 116.252 65.343 116.243 65.3147 116.227L62.3615 114.522C62.303 114.488 62.2655 114.427 62.2618 114.359L61.941 108.457C61.9374 108.392 61.9668 108.328 62.0187 108.289C63.8599 106.896 65.0993 107.832 67.5003 107.188C68.3696 106.955 68.9633 106.796 69.9274 105.976C70.0115 105.904 70.1388 105.911 70.2084 105.997C70.4809 106.332 70.5874 106.572 70.6554 106.789C70.6884 106.894 70.7963 106.957 70.9054 106.94C71.4421 106.855 72.0388 106.994 72.6953 107.356C72.7505 107.387 72.8161 107.391 72.8749 107.369C73.1678 107.257 74.0749 106.95 74.3873 107.302C74.7515 107.713 74.8911 110.28 74.4341 112.047C74.4111 112.136 74.4485 112.23 74.5292 112.274C75.3296 112.706 76.7143 113.208 78.1522 112.823Z" fill="#FFD59B"/>
<path d="M62.8199 113.327C63.4217 111.051 61.4142 109.777 61.9164 108.403C61.9283 108.371 61.9505 108.342 61.9778 108.32C63.2842 107.313 64.2841 107.48 65.5982 107.447C65.1778 106.932 64.8328 106.695 64.3038 106.549C64.1724 106.513 64.1025 106.362 64.1512 106.234C64.249 105.978 64.3258 105.643 64.3814 105.228C64.4092 105.021 64.121 104.921 63.9944 105.088C63.7134 105.458 63.3365 105.888 62.9562 106.12C61.6569 106.916 61.8791 105.756 59.1374 106.491C58.1276 106.761 57.3887 108.152 57.1174 108.738C57.0591 108.864 56.8961 108.9 56.8042 108.796C56.6869 108.664 56.5614 108.505 56.4359 108.346L56.4239 108.331C56.2929 108.166 56.087 108.29 56.1508 108.492C56.3966 109.267 56.6827 110.423 56.4705 111.101C56.4652 111.118 56.4618 111.134 56.4607 111.152C56.3348 113.147 55.5337 116.579 57.6703 119.292C59.1565 121.179 62.7131 123.489 64.8461 122.919C66.3697 122.511 68.3341 120.352 68.3341 120.352C67.7752 120.094 67.2515 119.662 67.0883 119.053C66.9377 118.491 68.0136 117.323 69.3128 116.585C69.4521 116.506 69.455 116.304 69.3075 116.241C67.9863 115.682 67.3704 116.593 66.7878 115.542C65.8534 114.275 64.7053 113.348 63.0812 113.616C62.9207 113.642 62.7783 113.484 62.8199 113.327Z" fill="#190C17"/>
<path d="M71.497 106.933C71.8785 106.981 72.286 107.127 72.7195 107.369C72.7576 107.39 72.777 107.434 72.7665 107.476C72.6269 108.041 72.3031 108.655 71.949 109.277C71.8968 109.369 71.7507 109.326 71.7501 109.221C71.7466 108.495 71.6093 107.934 71.3973 107.067L71.3937 107.053C71.3777 106.987 71.43 106.925 71.497 106.933Z" fill="#F9F9F6"/>
<path d="M70.0789 105.845C70.5468 106.373 70.6284 106.678 70.71 106.982C70.7403 107.095 70.7152 107.206 70.661 107.309C70.5719 107.479 70.2626 107.346 70.1863 107.17C70.0163 106.776 69.6892 106.448 69.8132 106.072C69.8988 106.002 69.9871 105.927 70.0789 105.845Z" fill="#FDCB96"/>
<path d="M74.3933 112.199C74.8216 112.446 75.4622 112.737 76.2076 112.877C75.2694 114.25 73.3221 116.731 72.8123 117.265C72.5078 117.3 72.1978 117.358 71.8805 117.443C72.8823 117.175 73.0175 116.812 74.3933 112.199Z" fill="#FDCB96"/>
<path d="M69.0611 109.452C68.6444 109.232 67.6721 108.91 67.3661 108.972C67.3556 108.974 67.3461 108.979 67.3372 108.985C66.5205 109.542 66.9262 111.049 67.3099 111.271C68.0662 111.707 69.0153 110.527 69.11 109.543C69.1136 109.506 69.0946 109.47 69.0611 109.452Z" fill="#F9F9F6"/>
<path d="M69.0607 109.453C68.644 109.232 67.6718 108.91 67.3657 108.972C67.3552 108.974 67.3458 108.979 67.337 108.985C67.0519 109.179 66.9157 109.49 66.8755 109.82C66.8702 109.864 66.896 109.905 66.937 109.921C67.6646 110.198 68.2962 110.241 68.9373 110.079C68.969 110.071 68.9946 110.048 69.005 110.017C69.0584 109.859 69.0947 109.699 69.1096 109.544C69.1133 109.506 69.0942 109.47 69.0607 109.453Z" fill="#282828"/>
<path d="M67.2901 109.019C66.5361 109.601 66.9334 111.054 67.3095 111.271C67.4799 111.369 67.4347 111.398 67.3311 111.4C67.0997 111.404 66.8924 111.265 66.7603 111.075C66.5997 110.844 66.3991 110.511 66.3454 110.224C66.2259 109.586 66.824 108.899 66.9387 108.775C66.9509 108.761 66.9665 108.752 66.9843 108.75C67.0527 108.739 67.2345 108.73 67.3236 108.907C67.3434 108.946 67.3249 108.992 67.2901 109.019Z" fill="#190C17"/>
<circle cx="67.2104" cy="109.797" r="0.315188" transform="rotate(-105 67.2104 109.797)" fill="white"/>
<path d="M64.9074 108.864C64.9934 108.449 64.5965 108.348 64.3315 108.492C64.3101 108.503 64.2955 108.524 64.2895 108.547C64.2449 108.72 64.0654 109.483 64.1921 110.083C64.236 110.291 64.3516 110.513 64.4841 110.714C64.5497 110.814 64.7113 110.709 64.6794 110.594C64.6397 110.451 64.617 110.306 64.6277 110.176C64.671 109.65 64.8877 108.93 64.9054 108.872C64.9062 108.869 64.9068 108.867 64.9074 108.864Z" fill="#190C17"/>
<path d="M69.0127 118.584C69.1723 118.12 69.8076 117.876 70.3083 117.753C70.4196 117.726 70.4687 117.88 70.372 117.942C70.0723 118.132 69.803 118.38 69.9799 118.592C70.1146 118.754 70.3467 118.181 70.4621 118.356C70.9383 119.081 69.374 120.057 69.0067 119.545C68.7877 119.239 68.8904 118.939 69.0127 118.584Z" fill="#FDCB96"/>
<path d="M162.26 120.121C160.23 120.097 158.833 119.653 157.456 119.195C157.374 119.168 157.319 119.092 157.319 119.005V116.596C157.319 116.521 157.362 116.451 157.431 116.419C158.831 115.759 160.004 115.94 160.949 114.319C160.962 114.296 160.971 114.269 160.974 114.242C161.156 112.649 160.975 111.594 161.699 110.146C161.906 109.733 162.372 109.016 163.446 108.937C163.556 108.928 163.646 109.02 163.646 109.131C163.631 113.329 163.161 115.747 162.457 119.954C162.441 120.05 162.357 120.122 162.26 120.121Z" fill="#190C17"/>
<path d="M158.42 119.875C140.535 119.688 131.246 120.123 113.762 120.366L117.607 110.75C117.636 110.677 117.706 110.628 117.785 110.625C124.059 110.38 129.637 109.904 138.095 110.629C145.36 111.84 150.696 113.292 158.901 115.464C158.975 115.483 159.032 115.543 159.046 115.618C159.259 116.807 159.243 118.597 158.593 119.777C158.559 119.839 158.491 119.876 158.42 119.875Z" fill="#3F1C15"/>
<path d="M116.927 119.636C112.651 121.062 110.461 120.328 108.321 119.838C108.23 119.817 108.165 119.736 108.165 119.643V110.342C108.165 110.232 108.254 110.142 108.365 110.14C109.096 110.124 109.651 110.029 110.211 110.034C110.716 110.039 111.223 109.788 111.403 109.316C115.01 99.8871 116.064 95.3292 120.472 85.5517C120.539 85.4026 120.642 85.2705 120.772 85.1715C126.121 81.1041 135.309 76.7284 143.53 71.7929C143.621 71.7379 143.74 71.765 143.798 71.8546C144.618 73.1175 144.719 73.6894 145.546 74.9587C145.6 75.0411 145.587 75.1502 145.515 75.2168C139.179 81.0693 131.743 86.899 127.107 89.2391C126.827 89.3806 126.622 89.6418 126.559 89.9496C124.936 97.9083 124.421 102.272 122.036 110.142C121.151 113.062 121.545 118.097 116.927 119.636Z" fill="#54271E"/>
<path d="M72.5913 120.686C76.5657 117.344 78.2526 113.793 80.3919 111.635C80.4137 111.613 80.4408 111.597 80.4702 111.587C87.0141 109.406 91.1464 108.2 97.4587 109.656C103.242 110.38 104.014 109.909 109.7 109.899C109.796 109.899 109.882 109.969 109.899 110.064C110.577 113.816 110.101 116.219 108.469 119.747C108.433 119.824 108.352 119.871 108.268 119.863C104.26 119.483 101.315 118.904 97.4741 118.903C97.4639 118.903 97.4534 118.904 97.4433 118.905C91.1593 119.872 88.2369 120.116 82.4605 119.88C82.4046 119.877 82.3488 119.899 82.3091 119.938C80.2098 122.029 78.5507 123.23 76.2466 124.845C76.1427 124.918 75.9979 124.876 75.9449 124.761C75.2522 123.252 74.3266 122.315 72.5982 121.003C72.495 120.924 72.4921 120.769 72.5913 120.686Z" fill="#ECBB95"/>
<path d="M142.72 43.4701C139.8 39.5767 139.313 37.3866 139.8 34.9532L134.203 36.4133L142.72 43.4701Z" fill="#54271E"/>
<path d="M139.8 34.9532L134.203 36.4133L139.8 41.0506C136.149 37.1443 139.556 38.6043 139.8 34.9532Z" fill="#311510"/>
<path d="M138.189 39.463C137.308 38.7683 136.879 38.0708 136.879 37.1442L131.203 41.1458C131.107 41.2134 131.09 41.3485 131.165 41.4381L134.729 45.6698C134.82 45.7778 134.991 45.7601 135.058 45.6358L138.244 39.7196C138.291 39.6325 138.266 39.5243 138.189 39.463Z" fill="#914F33"/>
<path d="M149.224 72.7351C148.52 73.3874 147.234 73.8376 146.102 74.0856C145.985 74.1111 145.874 74.0276 145.864 73.9088L145.404 68.6227C145.399 68.5666 145.418 68.511 145.456 68.4697L148.041 65.6693C148.154 65.5474 148.357 65.6084 148.386 65.7718L148.388 65.7838C148.813 68.2472 149.054 69.6407 149.283 72.5786C149.287 72.6368 149.266 72.6954 149.224 72.7351Z" fill="#190C17"/>
<path d="M125.929 62.2078C126.119 60.9725 125.929 60.2611 126.416 59.0444H129.823C128.492 66.5518 128.363 70.238 126.416 78.2682C126.891 79.4086 126.416 80.945 126.416 81.4316L125.686 81.9183C125.116 81.5382 125.255 81.4316 124.469 81.4316C123.009 81.4316 120.576 86.5418 120.089 86.0551C120.089 84.8384 120.576 82.7179 121.062 82.1617C122.393 80.6412 124.469 78.7549 124.469 77.7815C123.739 68.5347 124.469 65.3713 125.929 62.2078Z" fill="#AE6845"/>
<path d="M152.131 58.2494C151.427 55.5644 150.5 53.7035 149.146 51.6518C149.09 51.5661 148.977 51.5375 148.887 51.5855L145.068 53.6069C144.978 53.6547 144.938 53.7629 144.976 53.858C145.397 54.9253 145.851 56.1733 146.96 57.602C147.188 57.8961 147.255 58.288 147.121 58.6352C145.809 62.0247 145.117 64.862 144.425 69.0058C144.424 69.0161 144.421 69.0265 144.418 69.0364C143.923 70.4848 141.986 70.9756 141.016 73.1582C140.773 73.8882 141.259 74.8615 141.746 75.3482C141.99 75.5916 142.598 74.6182 142.963 75.3482C143.292 76.0062 143.423 76.0711 143.624 76.7903C143.66 76.9196 143.809 76.9818 143.922 76.9092C145.012 76.2092 145.883 75.3033 146.345 74.1914C146.361 74.1526 146.364 74.1095 146.354 74.0687C146.082 72.9725 145.89 71.9604 145.883 71.0194C145.883 70.9857 145.892 70.9522 145.908 70.9227C148.511 66.1919 150.423 63.069 152.093 58.8544C152.17 58.662 152.183 58.4496 152.131 58.2494Z" fill="#AE6845"/>
<path d="M140.282 58.2737C141.386 54.9482 141.277 52.8367 141.623 50.8274C141.655 50.6419 141.903 50.6086 141.993 50.7739C142.913 52.457 144.095 53.8952 145.524 55.7411C145.583 55.8167 145.687 55.8408 145.772 55.7974C147.598 54.8673 149.195 53.726 150.156 52.5779C150.212 52.5111 150.217 52.4164 150.168 52.3439C146.812 47.3151 142.321 40.9454 140.814 40.7875C140.776 40.7835 140.741 40.7735 140.709 40.753C139.757 40.1432 139.124 39.6326 138.26 39.3735C138.16 39.3435 138.056 39.4012 138.022 39.4997C137.3 41.5315 135.958 43.1402 134.801 44.5269L134.797 44.532C134.729 44.6138 134.608 44.6276 134.523 44.5628C132.804 43.2438 132.269 42.3086 131.217 40.8127C131.131 40.6893 130.944 40.7035 130.876 40.8383L127.149 48.2934C127.137 48.3163 127.13 48.3416 127.128 48.3671C126.754 52.9429 126.408 55.3385 125.697 59.1405C125.682 59.2227 125.719 59.3072 125.792 59.3482C126.903 59.9734 127.975 60.0065 129.335 60.0082C129.456 60.0083 129.55 60.1156 129.533 60.2359L128.129 70.296C128.115 70.3963 128.179 70.4914 128.277 70.5162C132.809 71.6586 137.791 70.9432 142.087 68.5974C142.165 68.5549 142.205 68.4652 142.185 68.3787C141.338 64.6584 140.279 61.687 140.272 58.3375C140.272 58.316 140.275 58.2941 140.282 58.2737Z" fill="#01A796"/>
<path d="M128.277 70.5162C132.263 71.521 136.598 71.0886 140.507 69.3736C140.727 69.2771 140.61 68.9801 140.377 69.0379C135.062 70.3551 131.391 69.7942 130.066 68.057C130.056 68.0447 130.049 68.0321 130.043 68.0178C128.848 65.2156 130.039 56.9401 130.769 55.4115C130.778 55.3921 130.789 55.3771 130.805 55.3623C131.288 54.9002 132.265 54.6108 133.702 54.8982C134.788 55.1155 137.428 54.7505 139.887 53.4563C140.081 53.3543 139.976 53.057 139.758 53.0703C136.159 53.2889 133.702 51.1676 133.702 50.2747C133.702 46.3813 137.838 43.7046 138.082 39.3245C137.377 41.4394 135.991 43.1005 134.801 44.5269L134.797 44.532C134.729 44.6138 134.608 44.6276 134.523 44.5628C132.795 43.2373 132.263 42.2995 131.202 40.7906C131.119 40.6728 130.942 40.6792 130.868 40.8027L129.565 42.9746L127.146 48.2963C127.136 48.3173 127.131 48.3398 127.129 48.3628C127.073 49.0445 127.018 49.6779 126.962 50.2747C127.618 50.2747 128.85 52.9515 129.565 56.1149C130.05 58.2607 129.585 59.4721 126.072 58.3756C125.957 58.3394 125.832 58.4112 125.81 58.5305C125.774 58.7304 125.736 58.9338 125.697 59.1415C125.682 59.2237 125.719 59.3072 125.792 59.3482C126.903 59.9734 127.975 60.0065 129.335 60.0082C129.456 60.0083 129.55 60.1156 129.533 60.2359L128.129 70.296C128.115 70.3963 128.179 70.4914 128.277 70.5162Z" fill="#6DCBC1"/>
<path d="M132.972 41.2714C133.949 41.028 136.622 38.108 137.352 36.4046C137.595 36.8913 138.392 36.8246 138.812 36.4046C139.786 35.4312 140.516 34.7012 140.516 34.2145C140.516 33.6225 139.786 32.2678 139.055 32.2678C138.325 32.2678 138.314 33.0626 137.839 33.7279L137.352 30.8078L134.675 30.0778L132.257 24.9762L128.835 28.1311L127.618 26.4362C122.766 28.8696 125.189 32.5112 127.135 35.9179C127.378 36.6479 127.465 38.2253 127.619 38.838C127.862 39.8113 130.295 41.2714 132.972 41.2714Z" fill="#AE6845"/>
<path d="M127.141 35.9367C127.379 36.6746 127.467 38.2307 127.618 38.8382C127.776 39.4673 128.848 40.2998 130.309 40.8099C130.553 43.4701 133.959 47.1224 133.229 46.6346C132.602 46.2156 132.155 46.1573 131.578 46.1492C131.437 46.1472 131.34 46.2914 131.389 46.4241C132.186 48.575 132.011 50.1833 131.404 52.5081C131.359 52.6785 131.128 52.7121 131.027 52.5679C129.553 50.469 127.334 49.958 126.416 48.5802C125.964 47.9026 126.561 45.7575 126.259 44.0917C126.23 43.9318 126.038 43.8947 125.95 44.0313C125.773 44.3063 125.622 44.5679 125.317 44.7614C125.178 44.8498 125.03 44.7058 125.08 44.5487C125.928 41.8782 125.897 40.4417 125.199 38.1166C125.057 37.6447 124.349 36.8925 123.727 35.9182C123.466 35.5076 123.219 35.0576 123.037 34.5725C122.909 34.23 122.813 33.8701 122.766 33.4943C122.676 32.7797 122.636 32.0896 122.645 31.4348C122.652 30.9664 122.683 30.5161 122.74 30.0875C122.806 29.5925 122.905 29.1265 123.037 28.6956C123.181 28.229 123.364 27.8034 123.586 27.4264C123.838 27.0001 124.139 26.6359 124.492 26.3448C124.806 26.0846 125.161 25.8828 125.556 25.7472C125.634 25.7205 125.69 25.6508 125.7 25.5692C126.049 22.7649 129.831 21.3687 133.404 22.9979C133.448 23.0179 133.498 23.022 133.545 23.0096C135.234 22.5604 137.278 23.2176 138.583 24.733C139.63 25.9497 140.286 28.6275 139.63 32.5209C139.448 32.3661 139.252 32.2681 139.055 32.2681C138.475 32.2681 138.349 32.7711 138.082 33.3116C138.003 33.4715 137.788 33.4278 137.755 33.2526C137.567 32.2544 137.299 31.2708 136.879 31.0609C135.669 30.3345 135.181 30.5719 134.217 30.0947C134.208 30.09 134.198 30.0841 134.189 30.078C132.521 28.88 133.91 28.6871 133.009 27.2053C132.994 27.181 132.974 27.1593 132.95 27.1447C132.218 26.7037 130.409 26.9276 128.978 28.0182C128.896 28.0809 128.779 28.0745 128.707 28.001C127.875 27.1601 127.623 26.9461 127.169 27.1412C127.144 27.1518 127.122 27.1686 127.104 27.1886C124.951 29.6117 125.196 32.5157 127.125 35.9007C127.132 35.9122 127.137 35.9241 127.141 35.9367Z" fill="#431F18"/>
<path d="M133.545 23.0096C135.234 22.5604 137.278 23.2176 138.583 24.733C139.111 25.3461 139.539 26.3302 139.75 27.654C139.069 25.4615 137.853 24.9772 136.149 24.4906C135.727 24.3699 134.446 24.7339 133.229 24.2472C133.003 24.1569 132.637 23.4294 132.256 23.5172C131.021 23.8023 129.093 24.7339 128.849 23.7606C128.659 23.285 129.093 22.9073 128.606 23.0295C127.633 23.2739 126.659 24.0039 125.686 25.7055C125.928 22.8105 129.774 21.3425 133.404 22.9979C133.448 23.0179 133.498 23.022 133.545 23.0096Z" fill="#5E2A23"/>
<path d="M128.707 28.0012C127.875 27.1603 127.623 26.9463 127.169 27.1414C127.144 27.152 127.122 27.1685 127.105 27.1886C126.429 27.9488 125.989 28.7563 125.764 29.6111C125.74 29.7265 125.715 29.8402 125.686 29.9513C125.708 29.8371 125.734 29.7237 125.764 29.6111C126.05 28.2016 125.984 26.5343 126.659 26.1928C127.613 25.7102 127.788 25.9477 128.816 25.9506C128.829 25.9507 128.842 25.9495 128.854 25.9472C130.361 25.66 131.048 24.9785 133.229 25.4628C134.203 25.6789 134.267 27.4441 134.933 28.8696C135.623 30.0209 137.84 31.3901 139.538 31.1228C139.677 31.101 139.808 31.211 139.793 31.3505C139.752 31.7274 139.698 32.1178 139.63 32.5211C139.448 32.3663 139.252 32.2683 139.055 32.2683C138.475 32.2683 138.349 32.7712 138.082 33.3118C138.003 33.4716 137.788 33.4279 137.755 33.2528C137.567 32.2546 137.299 31.271 136.879 31.0611C135.669 30.3346 135.181 30.572 134.217 30.0948C134.208 30.0902 134.198 30.0843 134.189 30.0782C132.521 28.8802 133.91 28.6873 133.009 27.2054C132.995 27.1812 132.974 27.1595 132.95 27.1448C132.218 26.7039 130.409 26.9278 128.978 28.0184C128.896 28.0811 128.779 28.0746 128.707 28.0012Z" fill="#311510"/>
<path d="M127.66 38.9616C127.915 39.5728 128.942 40.3326 130.309 40.81C130.553 43.4703 133.959 47.1226 133.229 46.6348C132.602 46.2157 132.155 46.1575 131.578 46.1494C131.437 46.1474 131.34 46.2916 131.389 46.4243C132.186 48.5752 132.011 50.1835 131.404 52.5082C131.359 52.6787 131.128 52.7126 131.027 52.5684C130.382 51.6496 129.594 51.0351 128.835 50.519C130.796 51.0146 130.796 48.5812 130.796 48.0945C130.796 45.5442 130.053 44.4788 129.208 43.2765C129.094 43.1152 128.763 43.1921 128.655 43.357C128.616 43.4156 128.571 43.4742 128.52 43.535C128.397 43.6805 128.167 43.5674 128.187 43.3782C128.351 41.8285 128.288 40.8506 127.66 38.9616C127.642 38.9198 127.629 38.8787 127.619 38.8384C127.633 38.8799 127.646 38.921 127.66 38.9616Z" fill="#311510"/>
<path d="M138.464 33.3106C138.173 33.6101 138.099 34.3964 138.09 35.02C138.088 35.1387 138.261 35.153 138.292 35.0385C138.422 34.5574 138.619 34.0616 138.862 34.1368C139.043 34.1926 138.87 35.1157 139.046 35.064C140.086 34.7566 139.767 33.0764 139.216 32.9507C138.888 32.8757 138.693 33.0747 138.464 33.3106Z" fill="#914F33"/>
<path d="M132.011 40.0596C131.32 40.0962 130.307 39.573 130.307 39.573C131.524 40.0144 132.741 39.3296 134.201 38.5996C133.228 39.084 132.86 40.0148 132.011 40.0596Z" fill="#89210F"/>
<path d="M130.795 35.4361C130.486 34.5137 130.241 34.0709 129.335 33.2461C130.308 33.9761 130.795 34.7061 131.038 35.4361C131.038 36.1662 130.795 37.3829 131.038 37.6262C131.282 37.8695 131.768 37.8695 132.255 37.6262C132.012 37.8695 131.768 38.1129 131.525 38.1129C131.282 38.1129 130.552 38.1129 130.552 37.8695C130.552 36.7852 130.795 36.4095 130.795 35.4361Z" fill="#914F33"/>
<path d="M133.261 36.6302C132.586 36.3598 132.705 35.4262 132.824 35.1886C133.067 34.7019 133.554 34.2152 134.527 34.2152C135.014 34.2152 135.652 34.2152 135.895 34.9452C136.055 35.425 134.57 36.3779 133.362 36.6379C133.328 36.6452 133.293 36.6432 133.261 36.6302Z" fill="#F9F9F6"/>
<path d="M133.006 34.8942C133.275 34.5387 133.715 34.2411 134.432 34.2168C134.493 34.2148 134.55 34.2423 134.587 34.2899C134.926 34.7258 135.14 35.1692 135.164 35.7513C135.166 35.8181 135.133 35.8808 135.076 35.9167C134.706 36.1519 134.253 36.3697 133.806 36.5165C133.743 36.537 133.675 36.5242 133.625 36.4812C133.205 36.1173 132.983 35.6628 132.97 35.0085C132.969 34.9674 132.981 34.927 133.006 34.8942Z" fill="#282828"/>
<circle cx="134.578" cy="34.5971" r="0.315188" transform="rotate(-105 134.578 34.5971)" fill="white"/>
<path d="M131.512 32.7551C131.276 32.986 131.043 32.7628 131.254 32.5274C131.265 32.5143 131.276 32.5005 131.286 32.4856C131.345 32.39 131.598 32.0118 132.002 31.7779C132.188 31.6701 132.442 31.6067 132.728 31.5739C132.974 31.5458 132.963 31.866 132.725 31.9345C132.637 31.9598 132.558 31.9886 132.489 32.0213C131.967 32.2686 131.558 32.7045 131.519 32.7479L131.512 32.7551Z" fill="#311510"/>
<path d="M129.435 36.5126C129.888 36.2162 129.676 35.5446 129.556 35.3845C129.309 35.0541 128.603 34.5803 127.877 34.7117C127.513 34.7774 127.314 35.0398 127.231 35.6175C127.176 35.9954 128.402 36.5032 129.337 36.5384C129.372 36.5397 129.406 36.5316 129.435 36.5126Z" fill="#F9F9F6"/>
<path d="M129.368 35.1784C129.12 34.941 128.736 34.6445 128.214 34.6987C128.154 34.7049 128.102 34.7426 128.076 34.7969C127.895 35.1736 127.824 35.6552 127.881 36.0947C127.889 36.161 127.934 36.2167 127.996 36.2415C128.292 36.3597 128.64 36.4554 128.976 36.5045C129.041 36.514 129.107 36.4892 129.147 36.4374C129.397 36.1175 129.496 35.7576 129.424 35.2849C129.418 35.2442 129.398 35.2068 129.368 35.1784Z" fill="#282828"/>
<circle r="0.239044" transform="matrix(0.0827777 -0.996568 -0.996568 -0.0827777 129.219 35.3873)" fill="white"/>
<path d="M128.59 32.9465C128.809 33.1375 129.019 32.9457 128.825 32.7499C128.812 32.7372 128.801 32.7239 128.79 32.7093C128.73 32.6242 128.493 32.312 128.122 32.1225C128.001 32.0606 127.85 32.0178 127.68 31.9899C127.451 31.9523 127.464 32.2495 127.678 32.3386C128.161 32.539 128.542 32.9008 128.582 32.9396C128.585 32.942 128.587 32.9442 128.59 32.9465Z" fill="#311510"/>
</svg>
