<svg width="240" height="255" viewBox="0 0 240 255" fill="none" xmlns="http://www.w3.org/2000/svg">
<path d="M164.714 43.8484C155.822 28.449 137.087 17.3162 116.535 17.6927C74.6692 18.4595 25.7923 119.165 51.579 169.663C75.5829 216.669 171.346 245.203 201.956 184.302C218.856 150.677 200.407 126.991 184.686 89.7686C176.65 70.7419 180.469 71.1321 164.714 43.8484Z" fill="white" fill-opacity="0.92"/>
<path d="M165.147 43.5984C156.162 28.0375 137.255 16.8131 116.526 17.1928C105.867 17.388 94.8437 23.9346 84.7392 34.3115C74.6231 44.7001 65.3643 58.9906 58.2315 74.8233C51.098 90.6574 46.0807 108.057 44.4646 124.673C42.8489 141.285 44.6291 157.152 51.1337 169.89C63.2262 193.571 93.3286 212.525 124.204 217.94C155.097 223.359 186.963 215.246 202.403 184.526C210.92 167.579 210.527 153.116 206.032 138.239C203.789 130.815 200.525 123.288 196.847 115.305C195.883 113.212 194.891 111.088 193.88 108.925C191.033 102.832 188.044 96.4352 185.146 89.5741C182.402 83.0765 181.044 78.8397 179.804 74.9676C177.435 67.5769 175.493 61.5151 165.147 43.5984Z" stroke="#9A70D8" stroke-opacity="0.1"/>
<path d="M169.593 128.052H70.8645C68.846 128.052 68.8446 131.462 70.8645 131.462H169.593C171.279 131.462 171.616 128.052 169.593 128.052Z" fill="#C4E5E2"/>
<path d="M127.331 104.551C126.36 104.875 123.92 105.574 123.579 105.916L128.013 109.057L143.702 113.078L142.686 109.057C142.686 109.057 139.149 109.7 136.888 109.402C134.287 109.06 131.772 108.038 130.749 107.016C130.031 106.299 130.451 106.019 129.726 105.31C128.662 104.268 128.354 104.21 127.331 104.551Z" fill="#F3C89C"/>
<path d="M139.953 108.986C141.658 107.963 141.823 107.457 143.022 106.258L145.41 108.645L141.999 112.056C141.658 111.033 140.635 109.669 139.953 108.986Z" fill="#409090"/>
<path d="M154.959 96.7019C154.959 94.9973 154.045 93.059 153.254 92.2681C152.571 91.5867 151.548 91.588 150.866 92.2692C150.866 92.2692 143.022 98.9192 141.999 105.569C141.735 107.28 143.022 110.344 143.022 110.344C143.022 110.344 144.703 113.966 144.386 116.824C144.045 119.895 141.657 125.693 141.316 130.125H157.005C157.005 130.125 156.157 124.973 154.959 121.601C154.041 119.018 152.728 116.762 152.571 114.438C152.336 110.943 153.936 105.569 153.936 105.569C154.602 101.706 154.959 100.795 154.959 96.7019Z" fill="#01A796"/>
<path d="M153.936 105.569C154.602 101.706 154.959 100.795 154.959 96.7019C154.959 96.7019 154.513 98.4139 153.936 100.119C151.526 107.237 144.386 116.824 144.386 116.824C144.301 117.588 144.09 118.521 143.814 119.56C143.814 119.56 145.75 120.583 147.456 119.56C149.161 118.196 150.184 115.467 151.207 114.785C152.061 114.216 152.571 114.438 152.571 114.438C152.336 110.943 153.936 105.569 153.936 105.569Z" fill="#409090"/>
<path d="M148.137 115.462C151.207 109.664 152.571 105.912 153.935 100.114L149.161 97.7263C147.796 102.16 146.091 105.23 142.339 110.687C145.068 111.71 146.773 113.756 148.137 115.462Z" fill="#01A796"/>
<path d="M142.339 110.687C145.067 111.71 146.773 113.756 148.137 115.461C148.137 115.461 147.623 117.087 146.773 117.172C143.362 117.513 134.153 113.078 129.378 112.055C127.55 111.664 128.176 112.055 126.307 112.055C124.942 112.055 124.338 111.793 123.919 111.714C123.5 111.635 123.059 111.967 122.555 111.714C121.871 111.371 124.987 109.284 125.967 108.303C126.121 108.149 125.967 107.452 125.627 107.281C124.263 106.599 122.062 106.568 122.216 106.258C122.556 105.575 124.269 105.94 125.627 105.917C127.116 105.891 128.314 105.897 129.378 106.939C130.104 107.648 129.684 107.929 130.402 108.646C131.425 109.667 133.94 110.689 136.541 111.032C138.801 111.329 142.339 110.687 142.339 110.687Z" fill="#FBDAAF"/>
<path d="M126.307 112.055C124.942 112.055 124.338 111.793 123.919 111.714C123.919 111.714 125.966 110.35 126.648 109.327C126.307 110.009 125.113 111.032 124.601 111.373C124.2 111.64 124.99 111.91 125.283 111.714C126.058 111.197 126.442 111.072 126.879 110.597C127.027 110.43 127.178 110.236 127.33 110.009C127.164 110.257 127.019 110.445 126.879 110.597C126.361 111.183 125.89 111.449 125.625 111.714C125.625 112.055 125.975 111.926 126.307 111.714C127.029 111.251 127.13 111.089 127.671 110.35C126.989 111.373 126.973 111.256 126.307 112.055Z" fill="#F3C89C"/>
<path d="M142.339 110.686C146.091 105.229 147.796 102.16 149.161 97.726C149.161 97.726 149.502 96.7085 150.866 96.7085C151.207 96.7085 151.222 96.856 151.207 97.3886C151.169 98.7266 152.255 98.94 151.207 99.7723C150.469 100.358 149.51 99.58 149.161 100.454C148.478 102.16 143.021 110.004 143.021 110.345C143.021 110.732 143.468 111.134 143.85 111.407C144.034 111.514 144.212 111.627 144.386 111.743C144.386 111.743 144.136 111.611 143.85 111.407C143.383 111.133 142.881 110.89 142.339 110.686Z" fill="#6DCBC1"/>
<path d="M147.793 185.885C147.793 184.048 147.793 182.823 147.18 181.291H140.443C140.443 181.291 140.035 182.448 138.911 182.823C137.788 183.197 135.542 182.823 133.705 183.435C132.786 183.741 132.786 185.579 132.786 185.579C137.686 186.498 142.586 186.192 147.793 185.885Z" fill="#382768"/>
<path d="M139.998 182.601L140.757 182.981C140.809 183.007 140.783 183.084 140.727 183.075L140.136 182.977L140.391 183.358C140.413 183.391 140.389 183.436 140.349 183.436H139.83L139.964 183.57C140.002 183.608 139.96 183.672 139.91 183.652L139.37 183.436H138.707L138.865 183.91C138.88 183.955 138.829 183.994 138.79 183.968L138.13 183.527C138.089 183.5 138.108 183.436 138.158 183.436H138.707L138.639 183.232C138.625 183.192 138.665 183.154 138.705 183.17L139.37 183.436H139.83L139.327 182.934C139.293 182.899 139.323 182.841 139.371 182.849L140.136 182.977L139.934 182.674C139.906 182.631 139.952 182.578 139.998 182.601Z" fill="#D7D7D7" stroke="#EDEDED"/>
<path d="M132.786 185.578C137.686 186.497 142.586 186.191 147.793 185.885C147.793 185.561 147.793 185.257 147.79 184.966C145.343 185.578 143.943 184.39 142.586 184.66C141.23 184.93 141.419 185.427 139.83 185.578C137.109 185.838 132.892 184.66 132.892 184.66C132.786 185.142 132.786 185.578 132.786 185.578Z" fill="#D7D7D7"/>
<path d="M151.204 186.749C151.204 184.703 151.204 183.338 150.522 181.633H143.018C143.018 181.633 142.564 182.922 141.313 183.338C140.062 183.755 137.561 183.338 135.515 184.021C134.492 184.362 134.492 186.408 134.492 186.408C139.949 187.431 145.406 187.09 151.204 186.749Z" fill="#503895"/>
<path d="M142.925 184.02H140.455C140.405 184.02 140.386 184.085 140.427 184.112L141.192 184.622C141.231 184.648 141.282 184.609 141.267 184.564L141.006 183.782C140.992 183.741 141.032 183.704 141.072 183.719L142.451 184.271C142.501 184.291 142.543 184.228 142.505 184.189L141.764 183.449C141.73 183.414 141.76 183.356 141.808 183.364L143.372 183.625C143.429 183.634 143.454 183.556 143.403 183.531L142.504 183.081C142.458 183.059 142.412 183.111 142.44 183.154L142.966 183.943C142.989 183.976 142.965 184.02 142.925 184.02Z" stroke="#EDEDED"/>
<path d="M134.492 186.407C139.949 187.43 145.406 187.089 151.204 186.748C151.204 186.388 151.204 186.049 151.2 185.725C148.475 186.407 146.916 185.084 145.406 185.384C143.895 185.685 144.105 186.238 142.336 186.407C139.306 186.696 134.61 185.384 134.61 185.384C134.492 185.921 134.492 186.407 134.492 186.407Z" fill="#EDEDED"/>
<path d="M148.134 152.301C149.499 147.185 153.933 137.635 153.933 130.132H142.336C140.632 136.953 138.244 141.191 138.244 149.914C138.243 157.038 139.65 177.105 139.909 180.727C139.934 181.079 140.141 181.392 140.466 181.529C142.984 182.583 146.298 182.577 150.407 181.509C150.871 181.388 151.174 180.95 151.131 180.473C150.792 176.685 149.332 160.683 148.134 152.301Z" fill="#60858D"/>
<path d="M149.499 152.983C150.863 147.867 155.297 138.317 155.297 130.814H142.336C140.632 137.635 139.609 144.26 139.608 152.983C139.607 160.072 141 178.022 141.269 181.415C141.296 181.764 141.503 182.073 141.825 182.209C144.344 183.265 147.659 183.259 151.772 182.191C152.235 182.071 152.538 181.632 152.496 181.155C152.156 177.367 150.696 161.365 149.499 152.983Z" fill="#409090"/>
<path d="M151.545 84.0878C151.545 87.8395 152.569 89.8859 153.933 93.2965L144.383 99.7767C144.383 99.7767 148.665 94.6019 147.794 91.2502C147.494 90.0971 147.112 88.5217 147.112 88.5217C147.112 88.5217 145.407 89.5449 144.042 89.8859C143.176 90.1026 142.553 89.6351 142.337 89.2038C142.233 88.9967 142.161 88.7895 142.111 88.6015C141.993 88.1619 141.458 87.9302 141.314 87.4985C141.254 87.3198 141.314 87.1574 141.314 87.1574C140.978 87.1574 140.973 86.8264 140.973 86.8166L140.973 86.8159L140.973 86.1933C140.973 85.7839 140.559 85.4815 140.163 85.3759C139.787 85.2755 139.756 84.8479 139.919 84.4942C140.233 83.8113 140.668 82.678 140.632 81.7004C140.574 80.1425 140.01 79.1696 139.95 76.9255C139.924 75.956 140.266 74.8594 140.562 74.1034C140.766 73.5828 141.376 73.3911 141.868 73.6561L149.314 77.6656C149.638 77.84 149.84 78.177 149.834 78.5448C149.823 79.267 149.79 80.5388 149.691 81.7567C149.63 82.5077 150.2 82.8417 150.632 82.2241C151.288 81.2849 152.113 80.0767 153.592 79.654C154.615 79.3617 155.805 80.3935 155.979 81.7004C156.154 83.0073 153.251 84.4289 152.228 84.4289C151.748 84.4289 151.545 84.0878 151.545 84.0878Z" fill="#FBDAAF"/>
<path d="M152.228 84.4285C151.748 84.4285 151.545 84.0874 151.545 84.0874C151.545 87.1562 152.23 89.084 153.226 91.5508C153.226 91.5508 153.592 90.8772 153.592 89.513C153.592 89.4046 153.57 89.2854 153.537 89.1679C153.483 88.9714 153.753 88.67 153.955 88.6944C154.449 88.7539 155.165 88.6896 155.979 88.1487C156.722 87.6553 156.929 86.4637 156.984 85.9713C156.997 85.8542 157.104 85.7655 157.221 85.7751C157.707 85.8148 158.898 85.8567 159.731 85.4202C160.562 84.9843 161.518 83.8145 161.922 83.2877C162.014 83.1686 161.943 82.9933 161.798 82.9546C161.146 82.7804 159.731 82.2208 159.731 80.6453C159.731 77.9483 160.678 77.2884 160.072 74.5062C159.467 71.724 153.651 68.0265 148.135 68.026C144.724 68.0257 139.267 70.8013 137.903 73.1734C136.816 75.0646 136.102 77.6155 136.88 79.6536C137.596 81.5289 140.632 81.6999 140.632 81.6999C140.574 80.142 140.01 79.1691 139.95 76.9251C139.917 75.7006 140.472 74.2734 140.778 73.5856C140.849 73.4263 141.072 73.4385 141.14 73.5988C142.467 76.7081 145.31 77.9949 148.764 77.9897C149.346 77.9888 149.839 78.4423 149.825 79.0234C149.808 79.759 149.771 80.7751 149.691 81.7562C149.63 82.5073 150.2 82.8412 150.632 82.2237C151.288 81.2845 152.113 80.0762 153.592 79.6536C154.615 79.3612 155.805 80.393 155.979 81.6999C156.154 83.0069 153.251 84.4285 152.228 84.4285Z" fill="#54271E"/>
<path d="M152.229 84.4289C151.748 84.4289 151.546 84.0878 151.546 84.0878C151.546 87.1567 152.231 89.0845 153.227 91.5512C153.227 91.5512 153.593 90.8777 153.593 89.5134C153.593 89.4051 153.571 89.2859 153.538 89.1684C153.484 88.9718 153.754 88.6705 153.956 88.6949C154.45 88.7544 155.166 88.69 155.98 88.1492C156.723 87.6557 156.93 86.4642 156.985 85.9718C156.998 85.8546 157.105 85.7659 157.222 85.7755C157.707 85.8152 158.899 85.8571 159.732 85.4207C160.563 84.9847 161.519 83.8149 161.923 83.2882C162.014 83.169 161.943 82.9938 161.798 82.955C161.147 82.7808 159.732 82.2212 159.732 80.6458C159.732 78.9424 160.11 78.0516 160.235 76.9255C160.235 76.9255 157.343 78.0999 154.274 77.5757C152.62 77.2931 151.379 75.8597 150.991 75.3602C150.92 75.2683 150.785 75.2483 150.687 75.3113C150.178 75.6388 148.585 76.4887 146.09 76.2114C143.969 75.9757 142.064 73.5234 141.491 72.716C141.406 72.597 141.225 72.6015 141.147 72.7252C138.912 76.2941 138.635 78.0071 140.633 81.7004C140.575 80.1425 140.011 79.1696 139.951 76.9255C139.917 75.701 140.473 74.2738 140.779 73.586C140.85 73.4267 141.073 73.4389 141.141 73.5993C142.468 76.7085 145.311 77.9953 148.765 77.9901C149.347 77.9892 149.839 78.4428 149.826 79.0238C149.808 79.7594 149.771 80.7756 149.692 81.7567C149.631 82.5077 150.201 82.8417 150.633 82.2241C151.289 81.2849 152.114 80.0767 153.593 79.654C154.616 79.3616 155.806 80.3935 155.98 81.7004C156.155 83.0073 153.252 84.4289 152.229 84.4289Z" fill="#3F1C15"/>
<path d="M146.935 68.1236C147.355 68.0599 147.757 68.026 148.135 68.026C151.968 68.0264 155.947 69.8123 158.22 71.8357C158.318 71.9227 158.396 72.029 158.439 72.1525C158.551 72.4719 158.72 73.1285 158.366 73.4817C157.343 74.5049 153.592 74.5049 150.522 73.4817C148.272 72.7319 146.543 71.0942 146.088 69.73C145.827 68.9478 146.364 68.4382 146.631 68.2415C146.72 68.1759 146.826 68.1402 146.935 68.1236Z" fill="#6A3028"/>
<path d="M153.592 81.0132C152.845 81.2621 152.49 82.3751 152.334 83.1014C152.31 83.2133 152.464 83.2615 152.521 83.162C152.803 82.6671 153.238 82.0812 153.592 82.3807C153.819 82.5731 153.003 82.8943 153.251 83.0595C154.274 83.7416 155.679 81.542 154.956 81.0165C154.525 80.7031 154.097 80.8447 153.592 81.0132Z" fill="#F3C89C"/>
<path d="M143.999 83.0129C143.653 82.6409 143.038 81.708 143.019 81.3707C143.019 81.36 143.021 81.3497 143.024 81.3396C143.377 80.3285 145.067 80.3304 145.406 80.6695C146.075 81.3389 145.103 82.6646 144.1 83.0366C144.065 83.0498 144.025 83.0406 143.999 83.0129Z" fill="#F9F9F6"/>
<path d="M143.999 83.0127C143.653 82.6407 143.038 81.7078 143.019 81.3705C143.019 81.3598 143.021 81.3496 143.024 81.3395C143.148 80.9844 143.437 80.7542 143.774 80.6197C143.815 80.6035 143.861 80.6177 143.887 80.6533C144.384 81.3394 144.606 81.99 144.617 82.7087C144.617 82.7414 144.601 82.7722 144.574 82.7903C144.421 82.8924 144.261 82.9767 144.1 83.0364C144.065 83.0495 144.025 83.0404 143.999 83.0127Z" fill="#282828"/>
<path d="M143.045 81.2853C143.438 80.3284 145.073 80.3363 145.406 80.6693C145.57 80.8323 145.577 80.7537 145.54 80.6274C145.474 80.4053 145.292 80.2397 145.075 80.16C144.788 80.0546 144.367 79.9298 144.042 79.9548C143.338 80.0089 142.787 80.8332 142.692 80.9827C142.683 80.9979 142.678 81.0153 142.68 81.0332C142.687 81.1066 142.728 81.3056 142.945 81.3473C142.989 81.3555 143.028 81.3259 143.045 81.2853Z" fill="#54271E"/>
<circle r="0.341063" transform="matrix(-1 0 0 1 143.837 80.9775)" fill="white"/>
<path d="M141.993 79.2743C141.665 79.5982 141.339 79.2943 141.315 78.9677C141.313 78.9435 141.322 78.9204 141.339 78.9025C141.465 78.7647 142.055 78.147 142.678 77.9074C142.913 77.8171 143.213 77.7949 143.496 77.8022C143.615 77.8053 143.614 77.9958 143.499 78.0279C143.321 78.0779 143.148 78.1484 143.019 78.248C142.566 78.5976 142.039 79.2197 141.998 79.2681C141.996 79.2703 141.995 79.2722 141.993 79.2743Z" fill="#54271E"/>
<path d="M141.314 87.1561C140.98 87.1561 140.973 86.8285 140.973 86.8155L140.973 86.8147C140.973 86.8016 140.979 86.474 141.314 86.474C142.088 86.474 143.057 86.0838 143.483 85.8937C143.564 85.8574 143.652 85.9365 143.621 86.0199C143.348 86.7491 143.042 87.1023 142.365 87.5845C142.133 87.7501 141.832 87.8083 141.572 87.6912C141.447 87.6349 141.337 87.5673 141.314 87.4972C141.254 87.3185 141.314 87.1561 141.314 87.1561Z" fill="#E99286"/>
<path d="M141.297 87.2255C141.305 87.1832 141.314 87.1575 141.314 87.1575C141.278 87.1575 141.245 87.1536 141.216 87.1467C142.02 87.0092 142.714 86.6293 143.36 86.1342C143.019 86.4752 141.996 87.1573 141.297 87.2255Z" fill="#B96B62"/>
<path d="M140.973 85.4509C140.6 85.4509 140.346 85.4286 140.128 85.3648C139.814 85.2731 139.733 84.8884 139.872 84.5927C140.357 84.923 140.672 85.0424 141.013 84.9966C141.212 84.9701 141.384 85.1719 141.237 85.3078C141.147 85.3915 141.054 85.4509 140.973 85.4509Z" fill="#F3C89C"/>
<path d="M147.794 91.249C147.494 90.096 147.112 88.5205 147.112 88.5205C147.112 88.5205 149.841 87.1562 150.864 85.792C151.221 85.3155 151.545 84.0867 151.545 84.0867C151.545 84.9677 151.602 85.7547 151.706 86.4874C151.75 86.7987 151.658 87.1162 151.443 87.3459L147.794 91.249Z" fill="#F3C89C"/>
<path d="M169.593 128.052H70.8645C68.846 128.052 68.8446 131.462 70.8645 131.462H169.593C171.279 131.462 171.616 128.052 169.593 128.052Z" fill="#C4E5E2"/>
<path d="M127.331 104.551C126.36 104.875 123.92 105.574 123.579 105.916L128.013 109.057L143.702 113.078L142.686 109.057C142.686 109.057 139.149 109.7 136.888 109.402C134.287 109.06 131.772 108.038 130.749 107.016C130.031 106.299 130.451 106.019 129.726 105.31C128.662 104.268 128.354 104.21 127.331 104.551Z" fill="#FACAB1"/>
<path d="M139.953 108.986C141.658 107.963 141.823 107.457 143.022 106.258L145.41 108.645L141.999 112.056C141.658 111.033 140.635 109.669 139.953 108.986Z" fill="#409090"/>
<path d="M154.959 96.7021C154.959 94.9975 154.045 93.0592 153.254 92.2684C152.571 91.587 151.548 91.5882 150.866 92.2694C150.866 92.2694 143.022 98.9194 141.999 105.569C141.735 107.28 143.022 110.345 143.022 110.345C143.022 110.345 144.703 113.966 144.386 116.824C144.045 119.896 141.657 125.694 141.316 130.126H157.005C157.005 130.126 156.157 124.974 154.959 121.601C154.041 119.018 152.728 116.762 152.571 114.439C152.336 110.943 153.936 105.569 153.936 105.569C154.602 101.706 154.959 100.796 154.959 96.7021Z" fill="#01A796"/>
<path d="M153.936 105.569C154.602 101.706 154.959 100.795 154.959 96.7019C154.959 96.7019 154.513 98.4139 153.936 100.119C151.526 107.237 144.386 116.824 144.386 116.824C144.301 117.588 144.09 118.521 143.814 119.56C143.814 119.56 145.75 120.583 147.456 119.56C149.161 118.196 150.184 115.467 151.207 114.785C152.061 114.216 152.571 114.438 152.571 114.438C152.336 110.943 153.936 105.569 153.936 105.569Z" fill="#409090"/>
<path d="M148.137 115.462C151.207 109.664 152.571 105.912 153.935 100.114L149.161 97.7263C147.796 102.16 146.091 105.23 142.339 110.687C145.068 111.71 146.773 113.756 148.137 115.462Z" fill="#01A796"/>
<path d="M142.339 110.687C145.067 111.71 146.773 113.756 148.137 115.461C148.137 115.461 147.623 117.087 146.773 117.172C143.362 117.513 134.153 113.078 129.378 112.055C127.55 111.664 128.176 112.055 126.307 112.055C124.942 112.055 124.338 111.793 123.919 111.714C123.5 111.635 123.059 111.967 122.555 111.714C121.871 111.371 124.987 109.284 125.967 108.303C126.121 108.149 125.967 107.452 125.627 107.281C124.263 106.599 122.062 106.568 122.216 106.258C122.556 105.575 124.269 105.94 125.627 105.917C127.116 105.891 128.314 105.897 129.378 106.939C130.104 107.648 129.684 107.929 130.402 108.646C131.425 109.667 133.94 110.689 136.541 111.032C138.801 111.329 142.339 110.687 142.339 110.687Z" fill="#FFDAC0"/>
<path d="M126.307 112.055C124.942 112.055 124.338 111.792 123.919 111.714C123.919 111.714 125.966 110.35 126.648 109.326C126.307 110.009 125.113 111.032 124.601 111.373C124.2 111.64 124.99 111.91 125.283 111.714C126.058 111.197 126.442 111.072 126.879 110.597C127.027 110.429 127.178 110.236 127.33 110.009C127.164 110.257 127.019 110.445 126.879 110.597C126.361 111.183 125.89 111.449 125.625 111.714C125.625 112.055 125.975 111.926 126.307 111.714C127.029 111.251 127.13 111.089 127.671 110.35C126.989 111.373 126.973 111.256 126.307 112.055Z" fill="#F3C89C"/>
<path d="M142.339 110.686C146.091 105.229 147.796 102.16 149.161 97.726C149.161 97.726 149.502 96.7085 150.866 96.7085C151.207 96.7085 151.222 96.856 151.207 97.3886C151.169 98.7266 152.255 98.94 151.207 99.7723C150.469 100.358 149.51 99.58 149.161 100.454C148.478 102.16 143.021 110.004 143.021 110.345C143.021 110.732 143.468 111.134 143.85 111.407C144.034 111.514 144.212 111.627 144.386 111.743C144.386 111.743 144.136 111.611 143.85 111.407C143.383 111.133 142.881 110.89 142.339 110.686Z" fill="#6DCBC1"/>
<path d="M147.793 185.885C147.793 184.048 147.793 182.823 147.18 181.291H140.443C140.443 181.291 140.035 182.448 138.911 182.823C137.788 183.197 135.542 182.823 133.705 183.435C132.786 183.741 132.786 185.579 132.786 185.579C137.686 186.498 142.586 186.191 147.793 185.885Z" fill="#382768"/>
<path d="M139.998 182.601L140.757 182.981C140.809 183.006 140.783 183.084 140.727 183.075L140.136 182.976L140.391 183.358C140.413 183.391 140.389 183.436 140.349 183.436H139.83L139.964 183.57C140.002 183.608 139.96 183.672 139.91 183.652L139.37 183.436H138.707L138.865 183.91C138.88 183.955 138.829 183.994 138.79 183.967L138.13 183.527C138.089 183.5 138.108 183.436 138.158 183.436H138.707L138.639 183.232C138.625 183.191 138.665 183.154 138.705 183.17L139.37 183.436H139.83L139.327 182.934C139.293 182.899 139.323 182.841 139.371 182.849L140.136 182.976L139.934 182.674C139.906 182.631 139.952 182.578 139.998 182.601Z" fill="#D7D7D7" stroke="#EDEDED"/>
<path d="M132.786 185.578C137.686 186.497 142.586 186.191 147.793 185.884C147.793 185.561 147.793 185.256 147.79 184.966C145.343 185.578 143.943 184.39 142.586 184.66C141.23 184.929 141.419 185.426 139.83 185.578C137.109 185.838 132.892 184.659 132.892 184.659C132.786 185.142 132.786 185.578 132.786 185.578Z" fill="#D7D7D7"/>
<path d="M151.204 186.749C151.204 184.702 151.204 183.338 150.522 181.633H143.018C143.018 181.633 142.564 182.921 141.313 183.338C140.062 183.755 137.561 183.338 135.515 184.02C134.492 184.361 134.492 186.408 134.492 186.408C139.949 187.431 145.406 187.09 151.204 186.749Z" fill="#503895"/>
<path d="M142.925 184.02H140.455C140.405 184.02 140.386 184.084 140.427 184.112L141.192 184.621C141.231 184.648 141.282 184.609 141.267 184.564L141.006 183.781C140.992 183.741 141.032 183.703 141.072 183.719L142.451 184.271C142.501 184.291 142.543 184.227 142.505 184.189L141.764 183.448C141.73 183.414 141.76 183.356 141.808 183.364L143.372 183.625C143.429 183.634 143.454 183.556 143.403 183.53L142.504 183.081C142.458 183.058 142.412 183.111 142.44 183.154L142.966 183.943C142.989 183.976 142.965 184.02 142.925 184.02Z" stroke="#EDEDED"/>
<path d="M134.492 186.407C139.949 187.43 145.406 187.089 151.204 186.748C151.204 186.388 151.204 186.049 151.2 185.725C148.475 186.407 146.916 185.084 145.406 185.384C143.895 185.685 144.105 186.238 142.336 186.407C139.306 186.696 134.61 185.384 134.61 185.384C134.492 185.921 134.492 186.407 134.492 186.407Z" fill="#EDEDED"/>
<path d="M148.134 152.301C149.499 147.185 153.933 137.635 153.933 130.132H142.336C140.632 136.953 138.244 141.191 138.244 149.913C138.243 157.038 139.65 177.105 139.909 180.727C139.934 181.079 140.141 181.392 140.466 181.528C142.984 182.583 146.298 182.576 150.407 181.509C150.871 181.388 151.174 180.95 151.131 180.473C150.792 176.685 149.332 160.683 148.134 152.301Z" fill="#60858D"/>
<path d="M149.499 152.983C150.863 147.867 155.297 138.317 155.297 130.814H142.336C140.632 137.635 139.609 144.26 139.608 152.983C139.607 160.072 141 178.022 141.269 181.415C141.296 181.764 141.503 182.073 141.825 182.208C144.344 183.265 147.659 183.259 151.772 182.191C152.235 182.07 152.538 181.632 152.496 181.155C152.156 177.367 150.696 161.365 149.499 152.983Z" fill="#409090"/>
<path d="M151.545 84.088C151.545 87.8397 152.569 89.886 153.933 93.2967L144.383 99.7769C144.383 99.7769 148.665 94.602 147.794 91.2503C147.494 90.0973 147.112 88.5218 147.112 88.5218C147.112 88.5218 145.407 89.545 144.042 89.886C143.176 90.1027 142.553 89.6352 142.337 89.2039C142.233 88.9968 142.161 88.7897 142.111 88.6016C141.993 88.162 141.458 87.9303 141.314 87.4986C141.254 87.3199 141.314 87.1575 141.314 87.1575C140.978 87.1575 140.973 86.8266 140.973 86.8167L140.973 86.816L140.973 86.1934C140.973 85.784 140.559 85.4816 140.163 85.376C139.787 85.2756 139.756 84.848 139.919 84.4943C140.233 83.8115 140.668 82.6781 140.632 81.7005C140.574 80.1426 140.01 79.1697 139.95 76.9256C139.924 75.9561 140.266 74.8596 140.562 74.1035C140.766 73.583 141.376 73.3912 141.868 73.6562L149.314 77.6657C149.638 77.8401 149.84 78.1771 149.834 78.5449C149.823 79.2671 149.79 80.539 149.691 81.7568C149.63 82.5079 150.2 82.8418 150.632 82.2243C151.288 81.285 152.113 80.0768 153.592 79.6541C154.615 79.3618 155.805 80.3936 155.979 81.7005C156.154 83.0075 153.251 84.429 152.228 84.429C151.748 84.429 151.545 84.088 151.545 84.088Z" fill="#FFDAC0"/>
<path d="M152.228 84.4285C151.748 84.4285 151.545 84.0874 151.545 84.0874C151.545 87.1562 152.23 89.084 153.226 91.5508C153.226 91.5508 153.592 90.8772 153.592 89.513C153.592 89.4046 153.57 89.2854 153.537 89.1679C153.483 88.9714 153.753 88.67 153.955 88.6944C154.449 88.7539 155.165 88.6896 155.979 88.1487C156.722 87.6553 156.929 86.4637 156.984 85.9713C156.997 85.8542 157.104 85.7655 157.221 85.7751C157.707 85.8148 158.898 85.8567 159.731 85.4202C160.562 84.9843 161.518 83.8145 161.922 83.2877C162.014 83.1686 161.943 82.9933 161.798 82.9546C161.146 82.7804 159.731 82.2208 159.731 80.6453C159.731 77.9483 160.678 77.2884 160.072 74.5062C159.467 71.724 153.651 68.0265 148.135 68.026C144.724 68.0257 139.267 70.8013 137.903 73.1734C136.816 75.0646 136.102 77.6155 136.88 79.6536C137.596 81.5289 140.632 81.6999 140.632 81.6999C140.574 80.142 140.01 79.1691 139.95 76.9251C139.917 75.7006 140.472 74.2734 140.778 73.5856C140.849 73.4263 141.072 73.4385 141.14 73.5988C142.467 76.7081 145.31 77.9949 148.764 77.9897C149.346 77.9888 149.839 78.4423 149.825 79.0234C149.808 79.759 149.771 80.7751 149.691 81.7562C149.63 82.5073 150.2 82.8412 150.632 82.2237C151.288 81.2845 152.113 80.0762 153.592 79.6536C154.615 79.3612 155.805 80.393 155.979 81.6999C156.154 83.0069 153.251 84.4285 152.228 84.4285Z" fill="#C05F28"/>
<path d="M152.229 84.4289C151.748 84.4289 151.546 84.0878 151.546 84.0878C151.546 87.1567 152.231 89.0845 153.227 91.5512C153.227 91.5512 153.593 90.8777 153.593 89.5134C153.593 89.4051 153.571 89.2859 153.538 89.1684C153.484 88.9718 153.754 88.6705 153.956 88.6949C154.45 88.7544 155.166 88.69 155.98 88.1492C156.723 87.6557 156.93 86.4642 156.985 85.9718C156.998 85.8546 157.105 85.7659 157.222 85.7755C157.707 85.8152 158.899 85.8571 159.732 85.4207C160.563 84.9847 161.519 83.8149 161.923 83.2882C162.014 83.169 161.943 82.9938 161.798 82.955C161.147 82.7808 159.732 82.2212 159.732 80.6458C159.732 78.9424 160.11 78.0516 160.235 76.9255C160.235 76.9255 157.343 78.0999 154.274 77.5757C152.62 77.2931 151.379 75.8597 150.991 75.3602C150.92 75.2683 150.785 75.2483 150.687 75.3113C150.178 75.6388 148.585 76.4887 146.09 76.2114C143.969 75.9757 142.064 73.5234 141.491 72.716C141.406 72.597 141.225 72.6015 141.147 72.7252C138.912 76.2941 138.635 78.0071 140.633 81.7004C140.575 80.1425 140.011 79.1696 139.951 76.9255C139.917 75.701 140.473 74.2738 140.779 73.586C140.85 73.4267 141.073 73.4389 141.141 73.5993C142.468 76.7085 145.311 77.9953 148.765 77.9901C149.347 77.9892 149.839 78.4428 149.826 79.0238C149.808 79.7594 149.771 80.7756 149.692 81.7567C149.631 82.5077 150.201 82.8417 150.633 82.2241C151.289 81.2849 152.114 80.0767 153.593 79.654C154.616 79.3616 155.806 80.3935 155.98 81.7004C156.155 83.0073 153.252 84.4289 152.229 84.4289Z" fill="#A85424"/>
<path d="M146.935 68.1236C147.355 68.0599 147.757 68.026 148.135 68.026C151.968 68.0264 155.947 69.8123 158.22 71.8357C158.318 71.9227 158.396 72.029 158.439 72.1525C158.551 72.4719 158.72 73.1285 158.366 73.4817C157.343 74.5049 153.592 74.5049 150.522 73.4817C148.272 72.7319 146.543 71.0942 146.088 69.73C145.827 68.9478 146.364 68.4382 146.631 68.2415C146.72 68.1759 146.826 68.1402 146.935 68.1236Z" fill="#D3692D"/>
<path d="M153.592 81.013C152.845 81.262 152.49 82.375 152.334 83.1013C152.31 83.2132 152.464 83.2614 152.521 83.1619C152.803 82.667 153.238 82.0811 153.592 82.3806C153.819 82.573 153.003 82.8941 153.251 83.0593C154.274 83.7415 155.679 81.5419 154.956 81.0164C154.525 80.703 154.097 80.8446 153.592 81.013Z" fill="#FACAB1"/>
<path d="M143.999 83.0129C143.653 82.6409 143.038 81.708 143.019 81.3707C143.019 81.36 143.021 81.3497 143.024 81.3396C143.377 80.3285 145.067 80.3304 145.406 80.6695C146.075 81.3389 145.103 82.6646 144.1 83.0366C144.065 83.0498 144.025 83.0406 143.999 83.0129Z" fill="#F9F9F6"/>
<path d="M143.999 83.0125C143.653 82.6406 143.038 81.7077 143.019 81.3704C143.019 81.3597 143.021 81.3495 143.024 81.3394C143.148 80.9843 143.437 80.7541 143.774 80.6196C143.815 80.6034 143.861 80.6176 143.887 80.6531C144.384 81.3393 144.606 81.9899 144.617 82.7086C144.617 82.7412 144.601 82.772 144.574 82.7902C144.421 82.8923 144.261 82.9766 144.1 83.0362C144.065 83.0494 144.025 83.0403 143.999 83.0125Z" fill="#282828"/>
<path d="M143.045 81.2853C143.438 80.3284 145.073 80.3363 145.406 80.6693C145.57 80.8323 145.577 80.7537 145.54 80.6274C145.474 80.4053 145.292 80.2397 145.075 80.16C144.788 80.0546 144.367 79.9298 144.042 79.9548C143.338 80.0089 142.787 80.8332 142.692 80.9827C142.683 80.9979 142.678 81.0153 142.68 81.0332C142.687 81.1066 142.728 81.3056 142.945 81.3473C142.989 81.3555 143.028 81.3259 143.045 81.2853Z" fill="#54271E"/>
<circle r="0.341063" transform="matrix(-1 0 0 1 143.837 80.9774)" fill="white"/>
<path d="M141.993 79.2742C141.665 79.5981 141.339 79.2942 141.315 78.9676C141.313 78.9433 141.322 78.9203 141.339 78.9024C141.465 78.7645 142.055 78.1468 142.678 77.9072C142.913 77.817 143.213 77.7948 143.496 77.8021C143.615 77.8051 143.614 77.9957 143.499 78.0278C143.321 78.0778 143.148 78.1483 143.019 78.2479C142.566 78.5975 142.039 79.2195 141.998 79.268C141.996 79.2702 141.995 79.2721 141.993 79.2742Z" fill="#54271E"/>
<path d="M141.314 87.1561C140.98 87.1561 140.973 86.8285 140.973 86.8155L140.973 86.8147C140.973 86.8016 140.979 86.474 141.314 86.474C142.088 86.474 143.057 86.0838 143.483 85.8937C143.564 85.8574 143.652 85.9365 143.621 86.0199C143.348 86.7491 143.042 87.1023 142.365 87.5845C142.133 87.7501 141.832 87.8083 141.572 87.6912C141.447 87.6349 141.337 87.5673 141.314 87.4972C141.254 87.3185 141.314 87.1561 141.314 87.1561Z" fill="#E99286"/>
<path d="M141.297 87.2256C141.305 87.1833 141.314 87.1576 141.314 87.1576C141.278 87.1576 141.245 87.1537 141.216 87.1468C142.02 87.0094 142.714 86.6294 143.36 86.1343C143.019 86.4753 141.996 87.1575 141.297 87.2256Z" fill="#B96B62"/>
<path d="M140.973 85.4509C140.6 85.4509 140.346 85.4286 140.128 85.3648C139.814 85.2731 139.733 84.8884 139.872 84.5927C140.357 84.923 140.672 85.0424 141.013 84.9966C141.212 84.9701 141.384 85.1719 141.237 85.3078C141.147 85.3915 141.054 85.4509 140.973 85.4509Z" fill="#FACAB1"/>
<path d="M147.794 91.249C147.494 90.096 147.112 88.5205 147.112 88.5205C147.112 88.5205 149.841 87.1562 150.864 85.792C151.221 85.3155 151.545 84.0867 151.545 84.0867C151.545 84.9677 151.602 85.7547 151.706 86.4874C151.75 86.7987 151.658 87.1162 151.443 87.3459L147.794 91.249Z" fill="#FACAB1"/>
<path d="M103.73 119.699C105.501 119.104 107.098 118.305 108.675 117.305C108.792 117.231 108.946 117.289 108.98 117.423C109.309 118.709 110.768 124.212 111.969 125.442C111.978 125.452 111.987 125.459 111.998 125.466C113.04 126.131 116.423 125.459 117.78 126.138C118.992 126.744 119.436 128.64 119.481 128.848C119.484 128.861 119.485 128.873 119.485 128.886C119.472 129.215 119.148 129.531 118.82 129.223C118.808 129.213 118.799 129.201 118.791 129.188L118.155 128.171C118.027 127.966 117.713 128.121 117.798 128.347L118.108 129.173C118.116 129.196 118.121 129.22 118.12 129.244C118.107 129.416 118.011 129.582 117.875 129.653C117.717 129.736 117.381 129.864 117.235 129.968C117.222 129.978 117.207 129.987 117.192 129.994C117.035 130.077 116.634 130.178 116.469 130.244C116.241 130.336 115.93 130.284 115.733 129.889L114.8 128.022C114.75 127.923 114.63 127.882 114.524 127.914C113.631 128.179 111.215 128.133 109.949 127.509C109.94 127.504 109.931 127.499 109.923 127.493C108.524 126.484 105.977 122.975 103.635 120.016C103.548 119.906 103.598 119.744 103.73 119.699Z" fill="#FDCB96"/>
<path d="M105.843 93.9606C105.843 95.2425 105.843 96.2233 106.692 98.3178C106.757 98.4788 106.603 98.6444 106.439 98.5875L98.2137 95.7405C98.0996 95.701 98.0465 95.5694 98.102 95.4622C99.9408 91.9142 102.689 89.8613 102.771 86.2813C102.773 86.186 102.706 86.1033 102.613 86.0807C101.004 85.6886 100.045 84.3676 100.045 83.0466C100.045 82.3645 101.068 80.6592 102.432 80.6592C103.011 80.6592 103.837 81.8895 104.281 83.3051C104.344 83.5031 104.65 83.5131 104.711 83.3147L105.828 79.6835C105.838 79.6523 105.855 79.6239 105.878 79.6008L108.495 76.9841C108.542 76.9363 108.611 76.9159 108.677 76.9298L114.95 78.2503C115.013 78.2637 115.068 78.3087 115.092 78.369C116.038 80.6875 114.71 81.7197 114.71 84.4109C114.71 85.388 114.71 86.054 115.304 87.3002C115.352 87.3999 115.313 87.521 115.212 87.5665C114.767 87.7673 114.481 87.81 114.228 87.819C114.118 87.823 114.029 87.9112 114.019 88.0212C113.961 88.6129 113.646 89.2047 113.075 89.7965C113.031 89.8418 113.01 89.9043 113.017 89.9669C113.051 90.2958 113.123 91.3437 112.664 91.5732C112.132 91.8392 109.4 91.2633 107.683 90.2875C107.603 90.2422 107.503 90.2539 107.439 90.3205C106.763 91.0334 105.843 92.3437 105.843 93.9606Z" fill="#FFD59B"/>
<path d="M109.581 77.7872C111.803 79.0841 113.708 77.3212 115.008 78.2399C115.036 78.2598 115.059 78.2888 115.072 78.3207C115.761 79.9698 115.306 80.968 114.973 82.3509C115.637 82.0523 115.981 81.7545 116.284 81.2307C116.353 81.1127 116.516 81.0845 116.626 81.1655C116.879 81.3522 117.235 81.5393 117.693 81.7264C117.887 81.8056 118.057 81.5531 117.927 81.3886C117.609 80.985 117.241 80.4457 117.098 79.9625C116.631 78.3826 117.78 78.9393 117.78 75.8698C117.78 74.7261 116.505 73.551 115.979 73.1151C115.872 73.0266 115.88 72.8603 116.004 72.7977C116.203 72.6972 116.444 72.5948 116.68 72.4927C116.874 72.4088 116.806 72.1759 116.595 72.1865C115.716 72.2308 114.374 72.216 113.709 71.7923C113.694 71.7828 113.679 71.7753 113.662 71.7697C111.614 71.0803 108.252 69.2811 104.819 70.7543C102.432 71.7785 99.0224 74.8469 99.0215 77.2348C99.0209 78.9405 100.726 81.5969 100.726 81.5969C101.153 81.0853 101.75 80.659 102.432 80.659C103.065 80.659 103.992 82.1283 104.395 83.703C104.434 83.8582 104.629 83.9138 104.729 83.7885C105.713 82.5526 104.914 81.6442 106.183 81.3278C107.778 80.7026 109.074 79.7554 109.236 77.9634C109.251 77.8013 109.44 77.7052 109.581 77.7872Z" fill="#54271E"/>
<path d="M109.581 77.7872C111.803 79.0841 113.708 77.3212 115.008 78.2399C115.036 78.2598 115.059 78.2888 115.072 78.3207C115.761 79.9698 115.306 80.968 114.973 82.3509C115.637 82.0523 115.981 81.7545 116.284 81.2307C116.353 81.1127 116.516 81.0845 116.626 81.1655C116.879 81.3522 117.235 81.5393 117.693 81.7264C117.887 81.8056 118.057 81.5531 117.927 81.3886C117.609 80.985 117.241 80.4457 117.098 79.9625C116.631 78.3826 117.78 78.9393 117.78 75.8698C117.78 74.7261 116.505 73.551 115.979 73.1151C115.872 73.0266 115.88 72.8603 116.004 72.7977C116.203 72.6972 116.444 72.5948 116.68 72.4927C116.874 72.4088 116.806 72.1759 116.595 72.1865C115.716 72.2308 114.374 72.216 113.709 71.7923C113.694 71.7828 113.679 71.7753 113.662 71.7697C111.614 71.0803 108.252 69.2811 104.819 70.7543C102.432 71.7785 99.0224 74.8469 99.0215 77.2348C99.0209 78.9405 100.726 81.5969 100.726 81.5969C101.153 81.0853 101.75 80.659 102.432 80.659C103.065 80.659 103.992 82.1283 104.395 83.703C104.434 83.8582 104.629 83.9138 104.729 83.7885C105.713 82.5526 104.914 81.6442 106.183 81.3278C107.778 80.7026 109.074 79.7554 109.236 77.9634C109.251 77.8013 109.44 77.7052 109.581 77.7872Z" fill="#190C17"/>
<path d="M113.862 88.6462C113.705 89.0361 113.437 89.4259 113.057 89.8158C113.026 89.847 112.979 89.8544 112.941 89.8334C112.38 89.5254 111.819 89.0031 111.259 88.4483C111.184 88.3741 111.262 88.2444 111.364 88.2718C112.138 88.4795 112.767 88.4933 113.746 88.5147L113.773 88.5153C113.841 88.5168 113.887 88.5835 113.862 88.6462Z" fill="#F9F9F6"/>
<path d="M115.391 87.4803C114.709 87.8214 114.368 87.8214 114.027 87.8214C113.884 87.8214 113.765 87.7487 113.665 87.6446C113.531 87.5062 113.739 87.2507 113.93 87.2283C114.406 87.1725 114.859 86.8963 115.229 87.1393C115.278 87.2483 115.332 87.3617 115.391 87.4803Z" fill="#FDCB96"/>
<path d="M107.547 90.2088C107.169 90.587 106.686 91.1748 106.331 91.9142C105.159 90.5499 103.113 87.8214 102.697 87.1393C102.746 86.8114 102.772 86.4713 102.772 86.1161C102.772 87.2377 103.113 87.4803 107.547 90.2088Z" fill="#FDCB96"/>
<path d="M111.904 85.4115C112.25 85.0397 112.864 84.1075 112.883 83.7704C112.884 83.7597 112.882 83.7493 112.878 83.7392C112.525 82.7287 110.837 82.7307 110.498 83.0695C109.829 83.7385 110.8 85.0634 111.803 85.4352C111.838 85.4484 111.878 85.4392 111.904 85.4115Z" fill="#F9F9F6"/>
<path d="M111.904 85.4112C112.25 85.0395 112.864 84.1072 112.883 83.7701C112.884 83.7594 112.882 83.7492 112.878 83.7391C112.754 83.3842 112.466 83.1542 112.129 83.0198C112.088 83.0035 112.042 83.0178 112.016 83.0533C111.519 83.739 111.297 84.3892 111.287 85.1074C111.286 85.1401 111.302 85.1709 111.329 85.1891C111.482 85.2911 111.642 85.3753 111.803 85.4349C111.838 85.4481 111.878 85.4389 111.904 85.4112Z" fill="#282828"/>
<path d="M112.858 83.6845C112.465 82.7282 110.831 82.7361 110.498 83.0689C110.335 83.2317 110.328 83.1533 110.365 83.0272C110.43 82.8051 110.612 82.6396 110.829 82.5599C111.117 82.4545 111.536 82.3298 111.861 82.3548C112.565 82.4089 113.116 83.2326 113.211 83.3821C113.22 83.3973 113.225 83.4147 113.223 83.4326C113.215 83.5059 113.175 83.7048 112.958 83.7464C112.914 83.7547 112.875 83.7251 112.858 83.6845Z" fill="#190C17"/>
<circle cx="112.065" cy="83.3772" r="0.340859" fill="white"/>
<path d="M113.685 81.2333C114.096 81.4403 114.313 81.0508 114.235 80.733C114.229 80.7094 114.213 80.6902 114.192 80.6782C114.029 80.5861 113.278 80.1808 112.612 80.145C112.361 80.1315 112.069 80.2029 111.802 80.297C111.69 80.3367 111.75 80.5177 111.869 80.5128C112.054 80.5052 112.24 80.5191 112.393 80.5739C112.931 80.7667 113.624 81.1957 113.678 81.2291C113.68 81.2307 113.682 81.2319 113.685 81.2333Z" fill="#190C17"/>
<path d="M102.383 82.8008C102.837 83.107 102.905 83.877 102.887 84.4402C102.883 84.5546 102.722 84.5615 102.689 84.4517C102.576 84.0679 102.387 83.6776 102.104 83.8089C101.898 83.9044 102.431 84.3072 102.215 84.3786C101.325 84.6732 100.744 82.766 101.381 82.5257C101.762 82.3824 102.047 82.5738 102.383 82.8008Z" fill="#FDCB96"/>
<path d="M110.267 129.577C109.573 116.641 107.326 99.7514 106.867 98.7343C106.405 97.7122 104.819 96.0061 103.455 94.2995C103.199 93.9793 102.641 93.4778 102.091 93.1442C101.75 92.9374 100.508 92.6541 99.7042 93.2793C99.2568 93.6274 98.7308 94.3482 97.9989 95.3237C95.9526 98.0512 91.1773 110.671 90.8366 112.376C90.6446 113.337 92.149 118.347 92.848 120.783C92.8692 120.857 92.9307 120.91 93.0068 120.923L96.7957 121.556C96.8977 121.573 96.9699 121.664 96.9623 121.768L96.3107 130.563C96.3017 130.685 96.403 130.786 96.5248 130.777L110.082 129.785C110.19 129.777 110.273 129.686 110.267 129.577Z" fill="#ECBB95"/>
<path d="M102.091 93.1443C101.791 92.9623 100.793 92.721 100.01 93.092C99.8683 93.1591 99.8871 93.3665 100.014 93.4591C100.386 93.7315 100.972 94.3621 101.068 95.6659C101.21 97.5996 99.9169 103.147 98.6803 106.239C97.316 109.65 94.2464 111.355 94.2464 111.355C94.2464 111.355 95.5736 110.665 96.2928 111.014C97.8694 111.778 97.4775 114.688 95.6107 115.448C93.8315 116.172 92.3624 115.596 91.859 113.742C91.2527 111.509 92.4653 107.603 92.4653 107.603C91.5931 109.919 90.9536 111.791 90.8366 112.376C90.6465 113.328 92.1201 118.25 92.8274 120.712C92.8579 120.818 92.9683 120.878 93.0742 120.847C95.3344 120.181 97.2926 119.202 99.2448 117.913C99.3154 117.867 99.3487 117.78 99.3282 117.698L97.6689 111.061C97.6611 111.03 97.6609 110.998 97.6684 110.966C99.3789 103.817 103.114 96.0047 103.114 94.9838C103.114 94.5739 102.641 93.4779 102.091 93.1443Z" fill="#E3AB87"/>
<path d="M98.9791 116.301L97.9704 112.266C97.9404 112.146 98.0249 112.028 98.1481 112.018C106.641 111.303 115.722 108.294 126.452 105.271C126.559 105.241 126.671 105.304 126.7 105.412L127.961 110.141C127.989 110.247 127.926 110.356 127.821 110.385C117.063 113.406 108.288 115.428 99.1953 116.451C99.0958 116.463 99.0034 116.398 98.9791 116.301Z" fill="#503895"/>
<path d="M92.8825 181.955C92.2046 181.364 91.7051 180.327 91.5608 180.006C91.5334 179.945 91.479 179.901 91.4136 179.888L86.49 178.903C86.4342 178.892 86.3759 178.905 86.3307 178.94C85.0505 179.918 84.3815 180.923 83.7295 183.442C83.6995 183.558 83.7777 183.674 83.8966 183.69C84.4908 183.77 86.1767 184.008 87.7666 184.343C90.3636 184.889 91.5932 186.086 94.2468 186.048C95.7912 186.026 98.516 185.527 99.2024 185.397C99.2963 185.379 99.3641 185.297 99.3517 185.202C99.2219 184.208 97.9736 182.989 97.3248 182.979C97.319 182.978 97.3149 182.978 97.3091 182.978C97.1292 182.962 93.6706 182.643 92.8825 181.955Z" fill="#190C17"/>
<path d="M102.803 186.867C103.131 184.613 103.496 182.951 105.101 180.676C105.138 180.623 105.199 180.591 105.264 180.591H108.749C108.844 180.591 108.927 180.657 108.951 180.749C109.089 181.269 109.623 182.938 110.959 183.661C112.685 184.594 116.614 184.352 116.753 184.343C116.757 184.343 116.759 184.343 116.763 184.343L116.764 184.343C118.047 184.348 118.725 185.864 118.797 186.893C118.804 186.994 118.725 187.08 118.624 187.091C112.659 187.746 108.938 187.747 102.98 187.094C102.868 187.082 102.787 186.979 102.803 186.867Z" fill="#190C17"/>
<path d="M97.3298 155.286C99.313 145.683 99.3613 141.552 99.3625 133.455C99.3625 133.262 99.6095 133.179 99.7238 133.335L106.826 143.019C106.852 143.055 106.866 143.091 106.864 143.135C106.844 143.983 106.573 153.46 104.819 156.717C100.079 165.521 94.738 179.003 94.2784 180.169C94.2559 180.226 94.2115 180.261 94.1526 180.278C90.8342 181.246 88.1543 180.595 84.8425 178.958C84.7578 178.916 84.713 178.824 84.7374 178.732C85.1174 177.313 88.127 166.39 92.2002 160.809C93.9563 158.403 96.8624 155.76 97.2685 155.395C97.3005 155.366 97.3211 155.328 97.3298 155.286Z" fill="#3F1C15"/>
<path d="M97.9985 135.23C97.6175 134.067 97.1863 132.343 97.0331 131.716C97.003 131.593 97.0945 131.475 97.2214 131.471L109.119 131.141C109.2 131.138 109.27 131.175 109.303 131.249C109.933 132.698 116.416 147.693 116.416 151.942C116.416 159.452 112.664 180.406 112.345 182.177C112.33 182.257 112.271 182.307 112.19 182.322C108.853 182.95 104.592 182.3 102.531 180.996C102.469 180.957 102.437 180.885 102.444 180.811C103.798 166.295 105.156 159.822 107.854 152.045C107.876 151.981 107.869 151.915 107.828 151.862C107.1 150.91 100.117 141.692 97.9985 135.23Z" fill="#54271E"/>
<rect x="70.7148" y="179.211" width="4.09276" height="1.36425" rx="0.2" fill="#C4E5E2"/>
<rect x="70.7148" y="180.576" width="4.09276" height="6.13913" rx="0.2" fill="#DDEEEC"/>
<rect x="71.397" y="131.463" width="2.7285" height="49.1131" fill="#DDEEEC"/>
<rect x="71.397" y="131.463" width="2.7285" height="6.82126" fill="#C4E5E2"/>
<rect x="165.531" y="179.211" width="4.09276" height="1.36425" rx="0.2" fill="#C4E5E2"/>
<rect x="165.531" y="180.576" width="4.09276" height="6.13913" rx="0.2" fill="#DDEEEC"/>
<rect x="166.213" y="131.463" width="2.7285" height="49.1131" fill="#DDEEEC"/>
<rect x="166.213" y="131.463" width="2.7285" height="6.82126" fill="#C4E5E2"/>
<path d="M169.962 129.076H70.0304C67.9873 129.076 67.9859 132.827 70.0304 132.827H169.962C171.669 132.827 172.01 129.076 169.962 129.076Z" fill="#DDEEEC"/>
<path d="M93.8393 120.605C95.6105 120.01 97.207 119.211 98.7846 118.211C98.9007 118.137 99.0551 118.195 99.0892 118.329C99.4181 119.615 100.877 125.118 102.078 126.348C102.087 126.358 102.096 126.365 102.107 126.372C103.149 127.037 106.532 126.365 107.889 127.044C109.101 127.65 109.545 129.546 109.59 129.754C109.593 129.767 109.594 129.779 109.594 129.792C109.581 130.121 109.257 130.437 108.929 130.129C108.918 130.119 108.908 130.107 108.9 130.094L108.264 129.077C108.136 128.872 107.823 129.027 107.907 129.253L108.217 130.079C108.226 130.102 108.23 130.126 108.229 130.15C108.217 130.322 108.12 130.488 107.984 130.559C107.826 130.642 107.49 130.77 107.345 130.874C107.331 130.884 107.316 130.893 107.302 130.9C107.144 130.983 106.743 131.084 106.578 131.15C106.351 131.242 106.04 131.19 105.842 130.795L104.909 128.928C104.859 128.829 104.739 128.788 104.634 128.82C103.74 129.085 101.324 129.039 100.058 128.415C100.049 128.41 100.041 128.405 100.032 128.399C98.6328 127.39 96.0863 123.881 93.744 120.922C93.6572 120.812 93.7067 120.65 93.8393 120.605Z" fill="#FFD59B"/>
<path d="M106.578 131.15C106.351 131.242 106.04 131.19 105.843 130.796C105.843 130.796 106.337 130.984 106.525 130.796C106.706 130.614 106.695 130.432 106.644 130.302C106.57 130.204 106.525 130.113 106.525 130.113C106.525 130.113 106.599 130.188 106.644 130.302C106.773 130.474 106.99 130.671 107.207 130.454C107.462 130.199 107.336 129.944 107.256 129.832C107.225 129.796 107.207 129.772 107.207 129.772C107.207 129.772 107.229 129.794 107.256 129.832C107.362 129.954 107.626 130.21 107.889 130.113C108.301 129.962 107.207 127.385 107.207 127.385L108.912 130.113L108.377 129.31C108.247 129.115 107.947 129.262 108.02 129.484L108.22 130.083C108.227 130.103 108.231 130.124 108.229 130.146C108.218 130.319 108.122 130.487 107.984 130.559C107.826 130.642 107.49 130.77 107.345 130.874C107.331 130.884 107.317 130.893 107.302 130.9C107.144 130.983 106.744 131.084 106.578 131.15Z" fill="#F3C89C"/>
</svg>
