<svg width="213" height="170" viewBox="0 0 213 170" fill="none" xmlns="http://www.w3.org/2000/svg">
<path d="M159.155 1C177.714 1.00118 197.554 12.1254 207.939 30.8985C229.094 69.1409 163.575 165.874 104.473 168.919C49.4584 171.752 -26.3083 100.084 12.7661 40.6344C34.3398 7.81123 65.3769 12.1264 107.226 6.91165C128.617 4.24604 126.272 0.99792 159.155 1Z" fill="white" stroke="#9A70D8" stroke-opacity="0.1" stroke-width="2"/>
<path d="M165.182 49.819C161.356 54.4286 157.242 61.6166 154.862 63.6182C154.782 63.6852 154.667 63.6728 154.596 63.5959L152.675 61.4936C152.632 61.4471 152.614 61.3835 152.628 61.3219C152.7 60.9908 152.964 59.8958 153.445 59.2403C154.656 57.5892 162.144 49.1137 161.968 47.9687C161.792 46.8238 161.418 46.2954 160.78 44.0495C160.669 43.6576 161.389 43.5653 161.639 43.9175C161.981 44.4008 162.108 44.679 162.221 44.9441C162.48 45.5477 163.262 45.5842 163.683 45.0801L167.056 41.037C167.299 40.7067 167.959 41.1892 167.716 41.5193L165.536 44.4909C165.294 44.8213 165.624 45.0634 165.866 44.733L168.362 42.0189C168.372 42.0085 168.383 41.9988 168.395 41.991C168.915 41.6477 169.321 42.448 169.081 42.7743C169.324 42.444 169.984 42.9288 169.742 43.2588C169.921 43.0148 170.355 43.4536 170.119 43.7834C170.117 43.786 170.117 43.7862 170.115 43.7887C170.05 43.8681 167.058 47.5595 165.182 49.819Z" fill="#FFD59B"/>
<path d="M169.741 43.2589C169.921 43.0138 170.358 43.4572 170.115 43.7874C170.115 43.7874 170.2 43.598 170.072 43.5038C169.784 43.2925 169.064 44.0201 168.554 44.6088C168.257 44.9894 168.002 45.2868 168.002 45.2868C168.002 45.2868 168.237 44.9746 168.554 44.6088C169.031 43.9964 169.615 43.1687 169.411 43.0192C169.083 42.7781 168.367 43.5196 167.87 44.119C167.577 44.5095 167.341 44.8022 167.341 44.8022C167.341 44.8022 167.564 44.4874 167.87 44.119C168.39 43.4263 169.094 42.4257 168.993 42.2045C168.836 41.8586 168.376 42.0033 168.376 42.0033C168.905 41.6293 169.323 42.4443 169.081 42.7743C169.323 42.4441 169.984 42.9289 169.741 43.2589Z" fill="#F3C89C"/>
<path d="M116.75 52.4367C120.738 56.9063 125.104 63.9421 127.554 65.8574C127.636 65.9216 127.75 65.9051 127.818 65.8257L129.663 63.6567C129.704 63.6087 129.719 63.5446 129.704 63.4835C129.62 63.1552 129.317 62.0704 128.813 61.4327C127.544 59.826 119.761 51.6238 119.896 50.4735C120.031 49.3232 120.386 48.782 120.943 46.5151C121.04 46.1196 120.317 46.053 120.08 46.4138C119.756 46.9087 119.639 47.1912 119.535 47.4601C119.299 48.0725 118.518 48.1368 118.08 47.6481L114.565 43.7284C114.311 43.407 113.669 43.9127 113.922 44.2338L116.207 47.1255C116.461 47.447 116.139 47.7006 115.886 47.3791L113.295 44.756C113.285 44.746 113.273 44.7367 113.261 44.7293C112.73 44.4048 112.352 45.2189 112.603 45.5364C112.349 45.215 111.707 45.7229 111.961 46.0441C111.773 45.8066 111.355 46.2605 111.603 46.5816C111.605 46.5842 111.605 46.5843 111.607 46.5867C111.674 46.6639 114.795 50.2458 116.75 52.4367Z" fill="#FFD59B"/>
<path d="M111.961 46.0445C111.773 45.806 111.352 46.2646 111.606 46.5859C111.606 46.5859 111.515 46.3996 111.64 46.301C111.92 46.0796 112.665 46.781 113.196 47.3511C113.506 47.7208 113.771 48.0088 113.771 48.0088C113.771 48.0088 113.525 47.7053 113.196 47.3511C112.697 46.7561 112.084 45.9499 112.282 45.7933C112.602 45.5406 113.343 46.256 113.862 46.8373C114.169 47.2171 114.414 47.5012 114.414 47.5012C114.414 47.5012 114.18 47.1946 113.862 46.8373C113.317 46.1637 112.578 45.1889 112.671 44.9643C112.816 44.6131 113.28 44.7413 113.28 44.7413C112.739 44.3865 112.35 45.2157 112.604 45.5368C112.35 45.2154 111.707 45.7234 111.961 46.0445Z" fill="#FDCB96"/>
<path d="M114.349 100.052L118.875 132.042" stroke="#C4E5E2"/>
<path d="M118.272 100.052L114.952 133.249" stroke="#C4E5E2"/>
<path d="M122.799 101.862L110.727 131.74" stroke="#C4E5E2"/>
<path d="M125.817 106.087L107.709 127.816" stroke="#C4E5E2"/>
<path d="M127.326 111.219L105.899 122.687" stroke="#C4E5E2"/>
<path d="M127.628 118.461L105.596 116.047" stroke="#C4E5E2"/>
<path d="M125.515 124.496L117.97 118.158" stroke="#C4E5E2"/>
<path d="M122.797 129.325L117.063 118.158" stroke="#C4E5E2"/>
<path d="M110.124 104.277L116.16 116.048" stroke="#C4E5E2"/>
<path d="M107.709 109.407L115.555 116.047" stroke="#C4E5E2"/>
<path d="M129.41 117.79C130.047 113.751 129.317 108.982 127.409 105.184C125.505 101.397 122.233 98.2494 117.667 98.2499C113.699 98.2503 110.214 101.391 107.831 105.22C105.394 109.135 103.795 114.236 103.795 119.065C103.795 122.39 104.422 126.207 106.037 129.32C107.673 132.475 110.403 135.022 114.531 135.348C119.292 135.725 122.826 132.497 125.154 128.903C127.51 125.266 128.93 120.832 129.41 117.79Z" stroke="#C4E5E2" stroke-width="3"/>
<path d="M117.667 100.75C120.912 100.75 123.496 102.965 125.175 106.307C126.851 109.642 127.496 113.882 126.941 117.4C126.507 120.151 125.194 124.243 123.056 127.544C120.9 130.873 118.1 133.122 114.728 132.856C111.696 132.616 109.617 130.794 108.256 128.169C106.881 125.518 106.295 122.13 106.295 119.065C106.295 114.739 107.743 110.092 109.953 106.541C112.199 102.932 115.031 100.75 117.667 100.75Z" stroke="#DDEEEC" stroke-width="2"/>
<path d="M117.467 105.277C119.728 105.277 121.569 106.825 122.789 109.262C124.005 111.692 124.474 114.788 124.072 117.349C123.755 119.363 122.794 122.368 121.235 124.785C119.656 127.232 117.661 128.799 115.313 128.613C113.185 128.444 111.714 127.167 110.735 125.271C109.742 123.349 109.312 120.875 109.312 118.625C109.312 115.463 110.368 112.057 111.981 109.456C113.629 106.797 115.657 105.278 117.467 105.277Z" stroke="#DDEEEC" stroke-width="2"/>
<path d="M119.632 117.166C119.759 116.398 119.614 115.501 119.237 114.783C118.86 114.065 118.191 113.436 117.24 113.436C116.399 113.436 115.695 114.067 115.237 114.771C114.764 115.498 114.452 116.445 114.452 117.352C114.452 117.967 114.573 118.686 114.896 119.282C115.228 119.894 115.793 120.402 116.645 120.466C117.637 120.541 118.355 119.894 118.807 119.228C119.264 118.553 119.538 117.735 119.632 117.166Z" stroke="#DDEEEC"/>
<path d="M119.139 117.085C119.356 115.767 118.636 113.936 117.241 113.936C116.068 113.936 114.952 115.751 114.952 117.352C114.952 118.473 115.398 119.87 116.682 119.967C118.135 120.077 118.971 118.099 119.139 117.085Z" fill="#C4E5E2"/>
<path d="M133.155 75.7191V103.927H132.458V75.3709L135.244 73.6296L135.592 74.3261L133.155 75.7191Z" fill="#DDEEEC"/>
<path d="M132.457 75.3724L135.243 73.6312L134.547 72.5864L131.412 74.6759L131.064 103.928H132.457V75.3724Z" fill="#C4E5E2"/>
<path d="M121.663 139.1L126.538 115.419L129.324 115.071L123.752 140.841L121.663 139.1Z" fill="#C4E5E2"/>
<path d="M105.295 133.18L111.564 108.455H114.001L107.036 133.877L105.295 133.18Z" fill="#C4E5E2"/>
<path d="M131.063 114.375L111.562 107.758L128.974 100.097L147.779 104.276L131.063 114.375Z" fill="#DDEEEC"/>
<path d="M133.155 83.0339L148.477 84.4269V77.8102L133.155 76.7655V83.0339Z" fill="#503895"/>
<path d="M144.347 96.0326C146.054 87.5137 147.079 83.3348 147.084 75.0956C147.084 75.0573 147.095 75.0181 147.116 74.9858C150.209 70.1747 151.607 68.0803 155.374 63.6234C155.416 63.5743 155.432 63.5068 155.415 63.4448C155.051 62.1326 154.054 61.1445 152.424 60.7827C152.352 60.7668 152.278 60.7931 152.231 60.8495L147.12 66.9828C147.096 67.0113 147.066 67.0323 147.031 67.0444C146.747 67.1415 145.393 67.6164 144.646 68.0712C143.809 68.5808 141.512 72.2501 140.467 72.9466C139.428 73.6393 138.389 73.9875 137.692 72.9633C137.685 72.9524 137.677 72.9426 137.668 72.9329C137.325 72.5651 136.68 70.9335 137.281 69.8955C137.312 69.8421 137.322 69.7778 137.3 69.7203C136.925 68.7552 135.906 68.4048 134.244 67.7409C134.214 67.7292 134.188 67.7105 134.167 67.6868L129.383 62.2193C129.345 62.1759 129.29 62.1506 129.232 62.1525C127.92 62.1958 126.923 63.1731 126.243 64.4825C126.209 64.5477 126.216 64.6272 126.258 64.6873L133.47 74.9907C133.491 75.02 133.504 75.0556 133.506 75.0913C133.775 78.5817 133.927 80.2177 134.197 83.7199C134.198 83.7344 134.197 83.7498 134.195 83.7642C133.661 87.4987 133.168 88.9321 132.821 93.6245C132.813 93.7402 132.904 93.8411 133.02 93.8412C135.715 93.8427 138.78 93.9018 144.068 96.179C144.185 96.2295 144.322 96.1578 144.347 96.0326Z" fill="#ECBB95"/>
<path d="M131.063 114.374L111.562 107.757V110.47C111.562 110.514 111.59 110.552 111.631 110.565L131.019 116.797C131.047 116.806 131.078 116.803 131.103 116.787L148.428 106.045C148.458 106.027 148.476 105.995 148.476 105.96V103.578L131.063 114.374Z" fill="#C4E5E2"/>
<path d="M124.1 139.448L105.295 132.831L100.767 135.269V137.01L117.483 143.626L124.1 140.841V139.448Z" fill="#503895"/>
<path d="M142.557 68.4064C142.677 69.0055 142.855 69.0895 143.837 69.1011C144.012 69.1032 144.103 69.312 143.983 69.4397L139.188 74.5539C139.122 74.624 139.016 74.6374 138.935 74.5858L135.439 72.3609C135.336 72.2956 135.315 72.1544 135.394 72.062L137.285 69.8556C137.317 69.8193 137.334 69.7732 137.334 69.7254C137.334 69.0734 137.333 68.8924 137.333 68.3357C137.333 68.1992 137.198 68.1045 137.083 68.1777C136.903 68.2922 136.799 68.4064 136.288 68.4064C135.424 68.4064 133.155 65.6205 132.806 64.924C132.458 64.2275 132.458 63.531 132.109 62.4863C131.879 61.7978 131.473 60.5784 131.418 60.4151C131.414 60.4026 131.411 60.3902 131.41 60.3771C131.076 57.6744 131.727 55.2998 133.044 53.2534C133.104 53.1596 133.23 53.1354 133.322 53.1986L138.632 56.8492C138.69 56.8896 138.765 56.8963 138.83 56.8678C139.343 56.6435 141.625 55.7253 142.557 56.6955C143.005 57.1612 143.153 58.0519 143.169 58.9599C143.173 59.1804 144.438 59.7701 144.647 59.7004C145.385 59.4542 146.37 61.146 146.04 62.1381C145.691 63.1828 144.647 63.8793 143.602 64.2275C143.527 64.2525 143.394 64.2616 143.247 64.251C143.036 64.2359 142.316 64.4681 142.267 64.6733C141.993 65.8125 142.275 66.9951 142.557 68.4064Z" fill="#FFD59B"/>
<path d="M121.314 137.706C121.662 136.313 121.314 135.312 121.314 134.224L117.135 132.831C116.438 134.572 114.697 137.01 114.001 137.01C112.777 137.01 110.518 137.706 110.17 138.403C109.762 139.627 109.822 139.796 109.822 140.492C111.564 141.189 113.775 141.558 114.697 141.189C116.438 140.492 116.869 139.136 117.831 138.751C119.572 138.055 120.617 138.055 121.314 137.706Z" fill="#190C17"/>
<path d="M114.7 134.573C115.048 133.18 114.7 132.178 114.7 131.091L110.867 130.046C110.17 131.787 108.083 133.876 107.387 133.876C106.163 133.876 103.905 134.573 103.556 135.269C103.148 136.493 103.208 136.662 103.209 137.359C104.95 138.055 107.161 138.424 108.083 138.055C109.825 137.359 110.256 136.002 111.218 135.618C112.959 134.921 114.004 134.921 114.7 134.573Z" fill="#190C17"/>
<path d="M114.882 107.591C119.07 103.797 126.131 98.8794 133.074 93.5424C133.125 93.5035 133.191 93.491 133.253 93.5091L138.709 95.1139C138.864 95.1594 138.904 95.36 138.778 95.4613L121.223 109.641C121.056 109.775 120.937 109.959 120.883 110.166L115.075 132.373C115.057 132.442 115.004 132.496 114.936 132.514C112.585 133.138 110.571 132.148 109.526 130.81C109.493 130.767 109.48 130.712 109.488 130.658C110.861 122.088 112.237 114.867 114.616 107.996C114.67 107.84 114.76 107.701 114.882 107.591Z" fill="#3F1C15"/>
<path d="M143.621 105.219C144.292 101.487 144.299 99.0739 144.299 95.6822C144.299 95.6119 144.261 95.545 144.2 95.5091C139.306 92.5953 137.176 93.0748 133.415 93.7238C133.224 93.7567 133.17 94.0407 133.323 94.1602C134.59 95.1535 135.838 97.3686 134.549 98.3543C128.668 102.851 122.787 107.348 120.32 109.115C120.287 109.138 120.263 109.17 120.249 109.209C117.149 117.849 116.1 126.824 114.722 132.733C114.707 132.795 114.724 132.86 114.766 132.908C116.812 135.259 118.877 135.936 122.595 134.612C122.664 134.588 122.715 134.529 122.727 134.457C123.459 129.938 126.85 122.387 126.544 113.808C126.541 113.728 126.586 113.654 126.657 113.619L143.511 105.364C143.568 105.336 143.61 105.281 143.621 105.219Z" fill="#54271E"/>
<path d="M142.906 61.791C143.254 60.7463 143.602 60.0498 144.647 59.7016C144.691 59.6869 144.735 59.6792 144.781 59.6776C144.882 59.6743 144.986 59.6314 145.022 59.5367C145.304 58.8057 146.346 55.8049 145.342 53.7812C144.192 51.4626 140.119 49.602 136.636 50.2988C135.54 50.5183 134.239 51.4137 133.923 51.6399C133.877 51.6729 133.82 51.6857 133.764 51.6761C133.472 51.6257 132.524 51.4843 132.11 51.6913C129.323 53.0843 127.93 56.9149 128.628 59.3526C128.97 60.5496 130.672 61.0697 131.392 61.2388C131.538 61.2731 131.658 61.1347 131.611 60.9922L131.419 60.4168C131.415 60.4043 131.412 60.3914 131.41 60.3783C131.087 57.7607 131.687 55.4508 132.921 53.4488C133.011 53.3037 133.229 53.3365 133.284 53.4979C133.907 55.3301 134.942 56.287 135.843 56.7311C136.003 56.8098 136.152 56.6427 136.08 56.4799C135.869 56.0053 135.765 55.5662 136.12 55.2803C136.206 55.2111 136.33 55.2568 136.383 55.3536C138.153 58.5707 141.525 56.237 142.209 57.2632C142.558 57.959 143.254 59.7009 142.906 61.791Z" fill="#190C17"/>
<path d="M137.334 69.5629C137.333 68.9902 137.333 68.8101 137.333 68.1873C137.333 68.1089 137.381 68.0365 137.452 68.0039C140.854 66.4503 141.724 65.7317 142.375 64.307C142.426 64.1642 142.486 64.0217 142.557 63.8793C142.497 64.0292 142.437 64.1713 142.375 64.307C142.122 65.0239 142.115 65.7502 142.215 66.533C142.225 66.6131 142.187 66.6919 142.118 66.7344C140.487 67.7445 139.458 69.3306 137.566 69.7542C137.445 69.7811 137.334 69.6865 137.334 69.5629Z" fill="#F3C89C"/>
<path d="M139.423 64.2274C137.334 65.2721 134.896 65.2721 134.2 64.9239C134.2 64.9239 134.787 66.6651 135.941 66.6651C138.379 66.6651 139.423 64.2274 139.423 64.2274Z" fill="#9E2C2C"/>
<path d="M135.941 66.6651C138.379 66.6651 139.423 64.2274 139.423 64.2274C137.797 65.0407 135.959 65.2209 134.896 65.0965C134.896 65.2721 134.896 65.6204 135.087 65.6204C134.896 65.6204 134.896 65.9686 135.087 66.3169C135.325 66.5216 135.609 66.6651 135.941 66.6651Z" fill="white"/>
<path d="M135.593 61.7908C135.637 61.0597 135.244 60.0496 135.244 60.0496C135.244 60.0496 136.153 61.2518 135.94 62.139C135.826 62.6159 135.593 63.1837 135.593 63.1837C136.247 62.8568 136.593 63.4507 136.633 63.5246C136.636 63.5295 136.638 63.5345 136.64 63.54C136.654 63.5919 136.701 63.8802 135.94 63.8802C135.244 63.8802 134.896 63.8802 134.896 63.532C134.896 63.1837 135.545 62.5823 135.593 61.7908Z" fill="#F3C89C"/>
<path d="M131.762 103.232L149.522 93.1331L148.477 92.4366L129.324 102.536L131.762 103.232Z" fill="#C4E5E2"/>
<path d="M131.761 103.231L131.413 114.027H129.324V102.535L131.761 103.231Z" fill="#DDEEEC"/>
<path d="M113.999 97.6601L132.456 89.6505L131.412 89.3022L111.562 96.9636L113.999 97.6601Z" fill="#C4E5E2"/>
<path d="M113.999 97.6596V108.455H111.562V96.9631L113.999 97.6596Z" fill="#DDEEEC"/>
<path d="M144.576 60.8768C144.092 61.0388 143.587 61.8367 143.261 62.4492C143.205 62.5533 143.349 62.6443 143.428 62.5572C143.825 62.1234 144.34 61.657 144.576 61.8572C144.738 61.9952 144.088 62.8038 144.298 62.8353C145.549 63.0224 146.065 61.2559 145.549 60.8791C145.242 60.6545 144.936 60.756 144.576 60.8768Z" fill="#F3C89C"/>
<path d="M137.869 62.0582C137.717 61.5622 137.57 60.429 137.704 60.111C137.708 60.1011 137.714 60.0926 137.722 60.0851C138.498 59.3146 140.049 60.0725 140.208 60.5355C140.523 61.4496 139.037 62.2318 137.949 62.1237C137.911 62.1199 137.88 62.0944 137.869 62.0582Z" fill="#F9F9F6"/>
<path d="M137.87 62.0565C137.718 61.5606 137.571 60.4273 137.705 60.1093C137.709 60.0995 137.715 60.0911 137.723 60.0836C137.996 59.8125 138.365 59.7305 138.735 59.7583C138.779 59.7616 138.814 59.7947 138.822 59.8379C138.971 60.6911 138.885 61.3886 138.572 62.0535C138.558 62.0831 138.53 62.1037 138.498 62.1082C138.311 62.1338 138.126 62.1395 137.951 62.1221C137.913 62.1183 137.881 62.0928 137.87 62.0565Z" fill="#282828"/>
<path d="M137.765 60.0451C138.553 59.3411 140.052 60.0803 140.209 60.5351C140.287 60.7619 140.329 60.6862 140.351 60.5489C140.388 60.3204 140.298 60.0922 140.138 59.9251C139.921 59.6991 139.589 59.3926 139.276 59.2691C138.605 59.0035 137.729 59.5149 137.577 59.609C137.562 59.6185 137.55 59.6319 137.544 59.6488C137.518 59.7192 137.465 59.9216 137.648 60.0574C137.683 60.0836 137.732 60.0743 137.765 60.0451Z" fill="#190C17"/>
<circle r="0.348243" transform="matrix(-0.898906 -0.438142 -0.438142 0.898906 138.63 60.1159)" fill="white"/>
<path d="M138.004 58.2149C137.549 58.3343 137.416 57.8981 137.562 57.5972C137.573 57.5753 137.592 57.5598 137.615 57.5525C137.796 57.4956 138.634 57.2497 139.308 57.356C139.567 57.3969 139.851 57.5357 140.102 57.6907C140.203 57.7534 140.107 57.9173 139.991 57.8868C139.802 57.8367 139.606 57.8085 139.436 57.8314C138.857 57.9093 138.073 58.1906 138.013 58.2124C138.01 58.2134 138.007 58.2141 138.004 58.2149Z" fill="#190C17"/>
<path d="M132.91 62.3706C132.721 61.947 132.468 60.9734 132.549 60.677C132.551 60.6667 132.557 60.6575 132.563 60.649C133.163 59.8839 134.616 60.3799 134.808 60.7708C135.188 61.5412 133.968 62.3958 132.997 62.4254C132.959 62.4266 132.925 62.4052 132.91 62.3706Z" fill="#F9F9F6"/>
<path d="M132.91 62.3691C132.721 61.9455 132.469 60.9719 132.549 60.6755C132.552 60.6652 132.557 60.6561 132.564 60.6476C132.773 60.381 133.086 60.2675 133.412 60.2493C133.456 60.2468 133.495 60.2752 133.508 60.3172C133.732 61.0485 133.734 61.6706 133.534 62.2887C133.524 62.3198 133.499 62.3438 133.467 62.3522C133.31 62.3942 133.151 62.4192 132.998 62.4239C132.96 62.4251 132.926 62.4037 132.91 62.3691Z" fill="#282828"/>
<path d="M132.6 60.6035C133.22 59.9026 134.619 60.3866 134.808 60.7697C134.892 60.9399 134.923 60.9024 134.932 60.8051C134.954 60.5746 134.827 60.3584 134.646 60.2142C134.43 60.0422 134.119 59.8263 133.843 59.7555C133.225 59.5969 132.513 60.1383 132.382 60.2434C132.368 60.2547 132.358 60.2697 132.354 60.2873C132.339 60.354 132.319 60.5305 132.486 60.6294C132.523 60.6519 132.57 60.6364 132.6 60.6035Z" fill="#190C17"/>
<circle r="0.31002" transform="matrix(-0.946736 -0.322011 -0.322011 0.946736 133.368 60.5753)" fill="white"/>
<path d="M133.543 58.6734C133.915 58.8359 134.106 58.4947 134.036 58.2221C134.03 58.1977 134.012 58.1782 133.99 58.1671C133.83 58.0884 133.154 57.7723 132.558 57.7673C132.367 57.7658 132.15 57.8175 131.943 57.8888C131.83 57.9279 131.894 58.1128 132.014 58.1103C132.139 58.1077 132.26 58.1182 132.364 58.1496C132.853 58.296 133.484 58.6411 133.536 58.6697C133.538 58.6711 133.541 58.6723 133.543 58.6734Z" fill="#190C17"/>
<path d="M139.422 103.233L144.645 140.146" stroke="#C4E5E2"/>
<path d="M150.217 76.4178V104.625H149.52V76.0696L152.654 73.9801V75.0248L150.217 76.4178Z" fill="#DDEEEC"/>
<path d="M149.521 76.0696L153.004 73.9802L151.611 73.2837L148.477 75.3732L148.128 104.626H149.521V76.0696Z" fill="#C4E5E2"/>
<path d="M152.655 75.0246C152.655 74.3281 152.306 73.6316 151.61 73.2834L155.789 70.8457C156.485 71.1939 156.834 71.8904 156.834 72.5869L152.655 75.0246Z" fill="#503895"/>
<path d="M143.95 103.233L140.119 141.539" stroke="#C4E5E2"/>
<path d="M149.173 105.321L135.243 139.797" stroke="#C4E5E2"/>
<path d="M152.654 110.196L131.759 135.269" stroke="#C4E5E2"/>
<path d="M154.396 116.117L129.671 129.35" stroke="#C4E5E2"/>
<path d="M154.743 124.475L129.322 121.689" stroke="#C4E5E2"/>
<path d="M152.307 131.44L143.601 124.127" stroke="#C4E5E2"/>
<path d="M149.173 137.012L142.556 124.127" stroke="#C4E5E2"/>
<path d="M134.546 108.107L141.511 121.689" stroke="#C4E5E2"/>
<path d="M131.759 114.028L140.814 121.689" stroke="#C4E5E2"/>
<path d="M156.573 123.663C157.301 119.051 156.467 113.597 154.286 109.258C152.11 104.928 148.397 101.383 143.251 101.383C138.796 101.384 134.834 104.919 132.097 109.317C129.306 113.802 127.474 119.645 127.474 125.171C127.474 128.984 128.195 133.348 130.036 136.899C131.899 140.489 134.988 143.362 139.651 143.73C145.016 144.154 149.027 140.52 151.697 136.398C154.395 132.232 156.024 127.147 156.573 123.663Z" stroke="#C4E5E2" stroke-width="3"/>
<path d="M143.252 103.883C147.077 103.883 150.1 106.497 152.052 110.38C154 114.257 154.749 119.182 154.104 123.274C153.6 126.466 152.079 131.209 149.598 135.039C147.1 138.896 143.824 141.552 139.848 141.238C136.281 140.956 133.843 138.808 132.256 135.748C130.654 132.66 129.974 128.723 129.974 125.171C129.974 120.149 131.655 114.758 134.22 110.638C136.82 106.46 140.128 103.884 143.252 103.883Z" stroke="#DDEEEC" stroke-width="2"/>
<path d="M143.02 109.107C145.711 109.107 147.877 110.95 149.299 113.79C150.717 116.623 151.263 120.228 150.793 123.214C150.425 125.556 149.31 129.045 147.497 131.855C145.665 134.694 143.318 136.563 140.523 136.342C137.999 136.142 136.262 134.623 135.116 132.403C133.955 130.156 133.456 127.276 133.456 124.663C133.456 120.983 134.685 117.025 136.559 114.002C138.47 110.92 140.849 109.108 143.02 109.107Z" stroke="#DDEEEC" stroke-width="2"/>
<path d="M145.444 122.967C145.587 122.097 145.423 121.079 144.996 120.266C144.568 119.452 143.818 118.752 142.76 118.752C141.828 118.752 141.037 119.453 140.513 120.257C139.974 121.085 139.619 122.164 139.619 123.194C139.619 123.895 139.757 124.711 140.122 125.384C140.496 126.074 141.128 126.639 142.078 126.71C143.182 126.794 143.989 126.075 144.503 125.316C145.024 124.547 145.337 123.613 145.444 122.967Z" stroke="#DDEEEC"/>
<path d="M144.95 122.886C145.201 121.365 144.371 119.252 142.76 119.252C141.407 119.252 140.119 121.346 140.119 123.194C140.119 124.487 140.634 126.1 142.116 126.212C143.792 126.338 144.757 124.056 144.95 122.886Z" fill="#C4E5E2"/>
<path d="M87.5143 145.625C87.5143 143.81 87.517 142.606 87.8294 140.967C87.8479 140.869 87.9361 140.801 88.0352 140.806L94.2897 141.135C94.3959 141.141 94.4777 141.229 94.4902 141.335C94.6394 142.596 96.2677 143.244 97.5922 143.578C97.6063 143.581 97.6203 143.587 97.6333 143.593C98.2821 143.924 98.3087 144.258 98.3098 144.893C98.3099 144.946 98.2889 144.997 98.2502 145.034C97.1998 146.021 95.4977 146.027 94.1309 146.369C92.4071 147.059 88.2943 147.065 87.5363 145.714C87.5211 145.687 87.5143 145.656 87.5143 145.625Z" fill="#503895"/>
<path d="M94.1315 145.673C92.3902 146.369 88.2111 147.066 87.5146 145.673C87.1849 146.003 87.1677 146.333 87.4627 146.959C87.4938 147.025 87.5585 147.067 87.6316 147.069C88.316 147.089 91.8495 147.165 94.1315 146.718C95.6816 146.414 97.9082 145.787 98.262 145.687C98.2946 145.677 98.3229 145.661 98.3437 145.634C98.4218 145.533 98.5889 145.255 98.3102 144.976C97.2655 146.021 95.5244 145.325 94.1315 145.673Z" fill="white"/>
<path d="M68.9736 144.58C68.9737 142.765 68.9764 141.561 69.2887 139.922C69.3073 139.825 69.3954 139.756 69.4946 139.761L75.749 140.091C75.8552 140.096 75.9371 140.185 75.9496 140.29C76.0988 141.551 77.7271 142.199 79.0515 142.533C79.0657 142.537 79.0796 142.542 79.0926 142.548C79.7415 142.879 79.768 143.213 79.7691 143.848C79.7692 143.901 79.7482 143.953 79.7096 143.989C78.6592 144.976 76.9571 144.983 75.5903 145.324C73.8665 146.014 69.7536 146.021 68.9956 144.669C68.9804 144.642 68.9736 144.611 68.9736 144.58Z" fill="#503895"/>
<path d="M75.5906 144.628C73.8494 145.325 69.6702 146.021 68.9738 144.628C68.644 144.958 68.6268 145.288 68.9218 145.914C68.9529 145.981 69.0176 146.023 69.0907 146.025C69.7751 146.045 73.3086 146.12 75.5906 145.673C77.1407 145.369 79.3673 144.743 79.7211 144.642C79.7537 144.633 79.782 144.616 79.8028 144.589C79.8809 144.489 80.048 144.21 79.7693 143.932C78.7246 144.977 76.9835 144.28 75.5906 144.628Z" fill="white"/>
<path d="M90.3864 82.8629L90.3496 82.7676C90.3205 82.6919 90.2485 82.641 90.1675 82.6391L75.4125 82.2959C75.3578 82.2947 75.3055 82.3145 75.2706 82.3566C74.8661 82.8452 73.783 84.8544 73.5857 87.5176C72.8892 96.9202 72.0237 103.224 70.7998 113.288C68.7154 123.362 68.3638 128.931 68.3621 140.366C68.3621 140.42 68.3819 140.471 68.4215 140.507C69.5291 141.493 73.1977 141.821 76.9036 141.176C76.9989 141.16 77.0681 141.074 77.0682 140.978C77.0781 129.267 78.1117 124.389 78.1129 114.35C78.1129 114.338 78.1138 114.327 78.1158 114.315C79.8199 104.425 80.5223 94.5398 80.8774 93.1635C80.8906 93.1121 80.9255 93.0759 80.9733 93.0529C81.5878 92.7577 81.9323 92.7535 82.5391 93.0403C82.602 93.0701 82.6438 93.133 82.6499 93.2022C83.3456 101.133 84.3887 105.652 86.4636 113.261C86.4682 113.279 86.4707 113.297 86.4707 113.315C86.4707 124.545 86.4713 129.284 87.1601 141.371C87.1644 141.446 87.2106 141.515 87.2794 141.544C90.3009 142.847 93.3146 142.552 95.6966 142.217C95.7974 142.203 95.8709 142.114 95.8678 142.012C95.5181 130.624 94.8191 122.317 92.7456 114.357C92.7413 114.341 92.7391 114.323 92.7391 114.306C92.7391 102.828 92.7383 94.8252 91.6944 87.5176C91.4085 85.5166 91.0163 84.4983 90.3864 82.8629Z" fill="#409090"/>
<path d="M90.1681 82.6391L75.4132 82.2959C75.3585 82.2947 75.3052 82.3152 75.2721 82.3587C75.1171 82.5623 74.8951 83.0255 74.6741 83.6869C79.5059 86.1246 87.1673 85.7764 90.9232 84.3834C90.7712 83.8789 90.5795 83.3651 90.3501 82.7673C90.3211 82.6916 90.2492 82.641 90.1681 82.6391Z" fill="#60858D"/>
<path d="M118.164 32.4953C112.756 37.2914 106.531 45.12 103.346 47.0313C103.256 47.0849 103.145 47.0547 103.087 46.9681L101.156 44.0706C101.121 44.0182 101.112 43.9533 101.135 43.8944C101.269 43.5394 101.789 42.2535 102.493 41.5499C104.234 39.8087 114.682 31.1023 114.682 29.7093C114.682 28.3164 114.333 27.6201 113.985 24.8342C113.924 24.3482 114.798 24.37 115.03 24.8342C115.428 25.6315 115.485 25.9851 115.601 26.4153C115.771 27.0493 116.557 27.1976 117.049 26.7633L121.995 22.3997C122.343 22.0513 123.039 22.7454 122.691 23.0934L119.557 26.2272C119.209 26.5757 119.557 26.9236 119.905 26.5752L123.371 23.8025C123.382 23.7937 123.394 23.7857 123.407 23.7797C124.091 23.4609 124.429 24.4895 124.084 24.8342C124.433 24.4859 125.129 25.1827 124.781 25.5307C125.038 25.2732 125.474 25.8749 125.132 26.2237C125.13 26.226 125.13 26.226 125.128 26.2281C125.052 26.2971 120.811 30.148 118.164 32.4953Z" fill="#FFDAC0"/>
<path d="M124.78 25.5294C125.039 25.271 125.477 25.8776 125.128 26.2259C125.128 26.2259 125.264 26.0162 125.128 25.8808C124.825 25.5771 123.836 26.3104 123.122 26.9171C122.7 27.3152 122.342 27.622 122.342 27.622C122.342 27.622 122.679 27.294 123.122 26.9171C123.802 26.2763 124.647 25.3991 124.432 25.1843C124.085 24.8377 123.099 25.5883 122.399 26.21C121.979 26.6206 121.646 26.9255 121.646 26.9255C121.646 26.9255 121.969 26.5921 122.399 26.21C123.144 25.4817 124.163 24.4209 124.084 24.1396C123.959 23.6997 123.387 23.7879 123.387 23.7879C124.084 23.4399 124.432 24.4849 124.084 24.8329C124.432 24.4846 125.128 25.1814 124.78 25.5294Z" fill="#FACAB1"/>
<path d="M49.5552 35.1013C54.6582 39.1348 60.3888 45.5055 63.4357 47.1719C63.5103 47.2126 63.5993 47.1979 63.6611 47.1395L65.741 45.1745C65.7994 45.1193 65.819 45.0346 65.7879 44.9604C65.6488 44.629 65.2239 43.7048 64.6026 43.154C62.9769 41.7127 53.1133 34.3596 53.2009 33.3241C53.2886 32.2886 53.6794 31.8004 54.2017 29.7588C54.2929 29.4026 53.4211 29.3452 53.1606 29.6707C52.7005 30.2456 52.6303 30.5023 52.48 30.8244C52.2478 31.3219 51.5961 31.3822 51.1646 31.0428L46.3728 27.2735C46.0477 26.9851 45.3099 27.4423 45.6351 27.7304L48.5613 30.3243C48.8865 30.6128 48.5175 30.8421 48.1924 30.5536L44.912 28.1995C44.9022 28.1925 44.8914 28.1861 44.8803 28.1812C44.2181 27.884 43.8149 28.6213 44.1374 28.907C43.812 28.6187 43.0743 29.0779 43.3994 29.366C43.1589 29.1529 42.6869 29.5631 43.0051 29.8512C43.0073 29.8533 43.0073 29.8533 43.0097 29.8552C43.085 29.9162 47.0664 33.1342 49.5552 35.1013Z" fill="#FFDAC0"/>
<path d="M43.3991 29.3664C43.1576 29.1525 42.6831 29.5665 43.0082 29.8548C43.0082 29.8548 42.8865 29.6875 43.0299 29.5983C43.3517 29.3981 44.2911 30.0266 44.9638 30.5378C45.3593 30.8693 45.6967 31.1276 45.6967 31.1276C45.6967 31.1276 45.3817 30.8554 44.9638 30.5378C44.3272 30.0042 43.5403 29.2808 43.7678 29.1393C44.1351 28.9109 45.0704 29.552 45.7292 30.0732C46.122 30.4139 46.4347 30.6686 46.4347 30.6686C46.4347 30.6686 46.1341 30.3936 45.7292 30.0732C45.0325 29.469 44.0837 28.5945 44.1806 28.392C44.3322 28.0755 44.8968 28.1893 44.8968 28.1893C44.2246 27.8719 43.8118 28.6193 44.137 28.9074C43.8116 28.6191 43.0739 29.0784 43.3991 29.3664Z" fill="#FACAB1"/>
<path d="M86.1653 52.0229C86.3928 52.2288 86.6876 52.1964 87.0221 52.0683C87.2245 51.9908 87.4093 52.2204 87.2706 52.3868L84.4692 55.7485C84.4262 55.8001 84.3602 55.8266 84.2935 55.8192L81.3501 55.4922C81.2965 55.4862 81.2475 55.4588 81.2143 55.4162L79.3698 53.0445C79.239 52.8764 79.4334 52.6364 79.6387 52.6928C80.0518 52.8061 80.4648 52.777 80.8779 52.3875C80.9042 52.3626 80.9228 52.3297 80.9312 52.2944C81.2571 50.9285 80.9134 49.9018 80.5697 49.2144C80.5697 49.2144 86.1416 48.8661 87.1863 46.7767C87.59 45.9693 87.5346 45.7319 87.5346 45.3837C87.5346 44.9536 86.8381 44.6875 86.8381 43.9908C86.8381 43.2942 87.2872 42.4971 87.8828 41.9015C88.2311 41.5532 89.2758 41.5532 89.2758 42.2496C89.2758 42.8291 89.1288 43.032 89.0012 43.3972C88.9582 43.52 89.0554 43.6373 89.1766 43.5898C89.4579 43.4795 89.7871 43.2127 90.3205 42.946C90.6602 44.984 90.3372 46.0281 89.998 48.3402C89.9815 48.4528 89.9185 48.555 89.8211 48.6139C88.8483 49.2012 87.8465 49.2301 86.2559 49.54C86.1855 49.5538 86.1273 49.6047 86.1056 49.6731C85.7983 50.6428 85.8055 51.3091 86.1272 51.9711C86.1366 51.9904 86.1494 52.0085 86.1653 52.0229Z" fill="#FFDAC0"/>
<path d="M89.1813 43.6335C89.4612 43.6031 89.7893 43.4762 90.3185 42.9465C90.3185 42.9465 93.8765 40.5101 93.4527 38.0717C93.2077 36.6621 91.9552 36.393 91.5158 36.3418C91.4257 36.3313 91.3486 36.2685 91.3215 36.182C90.8932 34.8164 89.2249 33.1841 87.8808 32.8478C86.4878 32.4993 83.3536 31.8025 79.8712 32.848C77.6607 33.5117 76.4048 34.4823 75.6923 36.6775C75.1715 38.2819 75.5711 40.8578 75.6711 41.4355C75.6838 41.5087 75.657 41.5814 75.602 41.6314C75.2445 41.9567 73.9471 43.2823 73.9511 45.3842C73.9569 48.4884 80.5677 49.2149 80.5677 49.2149C80.5677 49.2149 86.1396 48.8666 87.1843 46.7772C87.588 45.9698 87.5326 45.7324 87.5326 45.3842C87.5326 44.9541 86.8361 44.688 86.8361 43.9913C86.8361 43.2947 87.2852 42.4976 87.8808 41.902C88.229 41.5538 89.2738 41.5537 89.2738 42.2501C89.2738 42.8296 89.1268 43.0325 88.9991 43.3977C88.9562 43.5205 89.052 43.6476 89.1813 43.6335Z" fill="#D49E6E"/>
<path d="M87.8808 41.9023C88.229 41.554 89.2738 41.554 89.2738 42.2504C89.2738 42.8677 89.107 43.0577 88.9744 43.4717C88.971 43.4825 88.969 43.4933 88.9684 43.5039C88.965 43.5587 88.9971 43.609 89.0458 43.6299C89.0633 43.6375 89.0829 43.6412 89.1038 43.6401C89.4015 43.6236 89.7397 43.526 90.3185 42.9468C90.3185 42.9468 93.8765 40.5104 93.4527 38.072C93.1984 36.6089 91.8585 36.3745 91.4693 36.3372C92.0597 36.6786 92.7562 37.0268 92.7562 37.7233C92.7562 39.7129 92.1247 40.1237 90.2605 41.0604C90.1277 41.1271 89.9727 41.0305 89.9653 40.882C89.9411 40.4004 89.7993 40.1123 88.9691 39.8275C88.9409 39.8179 88.9092 39.8148 88.8795 39.8185C86.7574 40.0844 86.4833 40.1651 85.4599 40.8463C85.4489 40.8536 85.4382 40.8623 85.4291 40.8719C85.405 40.8973 85.3838 40.9236 85.3653 40.9506C85.2351 41.1402 84.8034 41.3387 84.6469 41.1703C83.8675 40.3323 83.0882 40.0726 82.3089 39.8128C84.0501 41.554 84.9483 43.4717 84.7466 44.3399C84.3983 45.8393 82.3089 47.8224 80.2194 47.8224C78.13 47.8224 77.5511 47.6379 76.0405 46.4294C75.3605 45.8854 74.6475 44.8646 74.9958 43.4717C75.6923 41.7305 76.737 40.8575 78.13 40.5093C77.0852 40.5093 76.4732 40.8575 75.6293 41.6072C75.3166 41.8849 73.947 43.225 73.9511 45.3845C73.9569 48.4887 80.5677 49.2152 80.5677 49.2152C80.5677 49.2152 86.1396 48.8669 87.1843 46.7775C87.588 45.9701 87.5326 45.7327 87.5326 45.3845C87.5326 44.9544 86.8361 44.6883 86.8361 43.9916C86.8361 43.295 87.2852 42.4979 87.8808 41.9023Z" fill="#B17A4A"/>
<path d="M84.7485 44.3386C84.9501 43.4704 84.052 41.5527 82.3108 39.8115C81.2659 39.115 80.2212 39.115 79.1764 39.115C80.9176 39.4632 81.6141 39.8115 81.9624 40.1597C83.3692 41.5666 84.029 42.8992 84.3819 44.267C84.3938 44.3132 84.3887 44.3618 84.3667 44.4042C83.6554 45.7766 82.0654 47.3289 80.241 47.4713C80.2279 47.4724 80.2144 47.472 80.2014 47.4703C77.4298 47.1208 76.2979 46.3353 76.0424 46.0799C74.9975 45.0351 75.1355 43.9925 75.3458 43.6422C76.3808 41.917 77.4159 41.2174 78.1124 40.866C78.1255 40.8594 78.139 40.8544 78.1532 40.8511C79.0293 40.6523 80.224 41.5555 80.5694 41.9009C81.2659 42.5974 81.2659 43.9904 80.9176 44.3386C80.2212 45.0351 78.8282 45.1877 77.4352 44.6869C78.4799 45.3834 79.8729 45.3834 81.2659 44.6869C81.9624 44.3386 81.44 42.9457 80.9176 41.9009C80.5694 41.2044 79.0604 40.2758 78.1318 40.508C76.7389 40.8562 75.6941 41.7291 74.9977 43.4704C74.6494 44.8633 75.3624 45.8841 76.0424 46.4281C77.553 47.6366 78.1318 47.8211 80.2213 47.8211C82.3108 47.8211 84.4002 45.838 84.7485 44.3386Z" fill="#B17A4A"/>
<path d="M88.6814 42.9783C88.6949 43.3702 88.2946 43.7576 87.9264 44.0295C87.8333 44.0983 87.7275 43.9695 87.7933 43.8743C87.9525 43.6436 88.0473 43.4049 87.8522 43.3124C87.6846 43.2329 87.6729 43.7655 87.5172 43.6679C86.8742 43.2653 87.8929 41.9464 88.3735 42.2201C88.6601 42.3832 88.6702 42.6559 88.6814 42.9783Z" fill="#F3C89C"/>
<path d="M88.5607 74.2844C88.3513 78.1434 90.872 82.0982 90.9939 83.5814C90.9993 83.6481 90.968 83.7078 90.9112 83.7431C87.6817 85.7482 76.532 85.0716 75.0127 83.0378C74.989 83.0062 74.9789 82.9709 74.9801 82.9314C75.0446 80.8183 78.4985 76.4232 78.4617 72.195C78.4302 68.5816 77.5194 69.0608 76.3722 64.1854C75.225 59.31 76.024 57.917 74.9792 56.8723C73.6624 55.5554 63.3207 47.7034 62.1938 46.8487C62.1299 46.8002 62.1065 46.7227 62.1281 46.6455C62.4993 45.3233 63.4986 44.0202 65.126 43.3329C65.1893 43.3061 65.2622 43.3153 65.3178 43.3557L76.6691 51.6112C76.7025 51.6356 76.742 51.6489 76.7833 51.6504C77.0243 51.6594 77.9033 51.7113 78.4617 51.9969C79.4739 52.5145 80.821 53.9994 80.8961 54.0827C80.8985 54.0854 80.9005 54.0875 80.9031 54.09C81.6033 54.7828 84.027 55.128 85.0728 54.0917C85.0765 54.0881 85.0791 54.0854 85.0824 54.0815C85.1863 53.961 87.2128 51.6216 88.909 50.6039C89.4984 50.2502 90.5775 50.4924 90.903 50.5775C90.9634 50.5933 91.0281 50.5824 91.0787 50.5458L100.78 43.5205C100.912 43.4248 101.107 43.5192 101.139 43.6793C101.333 44.6472 102.2 45.9464 103.549 46.6227C103.69 46.6936 103.718 46.891 103.589 46.9831C101.637 48.3786 90.6193 56.2994 90.3019 57.5687C89.6539 60.1609 91.9771 61.7386 91.6949 64.1854C91.4331 66.4553 89.5418 69.0315 89.2859 69.3713C89.2666 69.3969 89.2545 69.424 89.2488 69.4555C89.1748 69.8645 88.6374 72.8711 88.5607 74.2844Z" fill="#01A796"/>
</svg>
