<svg width="120" height="120" viewBox="0 0 120 120" fill="none" xmlns="http://www.w3.org/2000/svg">
<path d="M100 60C100 82.0917 82.0917 100 60 100C37.9083 100 20 82.0917 20 60C20 37.9083 37.9083 20 60 20C82.0917 20 100 37.9083 100 60Z" fill="white"/>
<path d="M67.5 103.125L56.25 61.875L39.375 103.125L30 105L41.8387 57.645C42.6804 54.2784 44.4212 51.2038 46.875 48.75H63.75L76.875 101.25L67.5 103.125Z" fill="#01A796"/>
<path d="M73.125 110.625C82.4448 110.625 90 103.07 90 93.75C90 84.4302 82.4448 76.875 73.125 76.875C63.8052 76.875 56.25 84.4302 56.25 93.75C56.25 103.07 63.8052 110.625 73.125 110.625Z" fill="#FFC638"/>
<path d="M100.807 90.0002C102.067 90.0002 103.302 89.6494 104.374 88.9871C105.446 88.3247 106.312 87.377 106.875 86.2502L105.466 84.8407C103.658 83.0331 102.42 80.7348 101.906 78.2306C101.392 75.7265 101.624 73.1265 102.574 70.753C102.938 69.8428 103.125 68.8716 103.125 67.8913C103.125 66.1729 102.551 64.5038 101.493 63.1494C100.436 61.795 98.9556 60.8329 97.2885 60.4161C96.7812 60.2893 96.2496 60.296 95.7456 60.4356C95.2416 60.5752 94.7823 60.8429 94.4125 61.2127L93.75 61.8752L86.25 67.5002V82.5002C86.25 84.4893 87.0402 86.397 88.4467 87.8035C89.8532 89.21 91.7609 90.0002 93.75 90.0002H100.807Z" fill="#C47220"/>
<path d="M95.625 43.125L90.3797 47.8407L85.1859 45.6141L78.4196 42.7148C77.3578 42.2578 76.4157 41.5623 75.6661 40.6824C74.9166 39.8024 74.3799 38.7616 74.0976 37.6406L73.3429 34.6195C73.4027 34.9513 73.4325 35.2878 73.432 35.625C73.4308 36.8695 73.0385 38.0822 72.3105 39.0916C71.5824 40.101 70.5556 40.8561 69.375 41.25L63.75 48.75H46.875V36.8742L52.1906 28.0172C52.8568 26.9064 53.7993 25.9871 54.9264 25.3488C56.0535 24.7105 57.3266 24.375 58.6219 24.375H72.6281C73.9234 24.375 75.1965 24.7105 76.3236 25.3488C77.4507 25.9871 78.3932 26.9064 79.0594 28.0172L82.5 33.75L91.4461 40.1391L95.625 43.125Z" fill="#FFCEB6"/>
<path d="M91.4457 40.1392C89.5565 40.8769 87.9031 42.1139 86.6621 43.7181L85.1855 45.6142L90.3793 47.8407L95.6246 43.1251L91.4457 40.1392Z" fill="#FFBFA1"/>
<path d="M82.5 33.75L75.6211 40.6289C74.8937 39.7609 74.3728 38.7392 74.0976 37.6406L73.3429 34.6195C73.4027 34.9513 73.4325 35.2878 73.432 35.625C73.4308 36.8695 73.0385 38.0822 72.3105 39.0916C71.5824 40.101 70.5556 40.8561 69.375 41.25L63.75 48.75H46.875V36.8742L52.1906 28.0172C52.8568 26.9064 53.7993 25.9871 54.9264 25.3488C56.0535 24.7105 57.3266 24.375 58.6219 24.375H72.6281C73.9234 24.375 75.1965 24.7105 76.3236 25.3488C77.4507 25.9871 78.3932 26.9064 79.0594 28.0172L82.5 33.75Z" fill="#00BB97"/>
<path d="M39.375 103.125L45 106.875V110.625H30V105L39.375 103.125Z" fill="#E0E0E0"/>
<path d="M69.375 18.75V27.1875C69.375 27.9334 69.0787 28.6488 68.5512 29.1762C68.0238 29.7037 67.3084 30 66.5625 30C65.8166 30 65.1012 29.7037 64.5738 29.1762C64.0463 28.6488 63.75 27.9334 63.75 27.1875V18.75H69.375Z" fill="#FFCEB6"/>
<path d="M69.375 18.75V26.25C68.8825 26.2501 68.3948 26.1532 67.9398 25.9648C67.4847 25.7764 67.0713 25.5002 66.7231 25.1519C66.3748 24.8037 66.0986 24.3903 65.9102 23.9352C65.7218 23.4802 65.6249 22.9925 65.625 22.5V18.75H69.375Z" fill="#FFBFA1"/>
<path d="M63.75 20.625C66.8566 20.625 69.375 18.1066 69.375 15C69.375 11.8934 66.8566 9.375 63.75 9.375C60.6434 9.375 58.125 11.8934 58.125 15C58.125 18.1066 60.6434 20.625 63.75 20.625Z" fill="#B66514"/>
<path d="M63.75 18.75V15C63.75 14.0054 64.1451 13.0516 64.8483 12.3483C65.5516 11.6451 66.5054 11.25 67.5 11.25C68.4946 11.25 69.4484 11.6451 70.1517 12.3483C70.8549 13.0516 71.25 14.0054 71.25 15V18.75H63.75Z" fill="#C47220"/>
<path d="M114.375 48.75H110.625L111.945 51.3914C112.114 51.7308 112.166 52.1166 112.094 52.4888C112.021 52.8611 111.828 53.1989 111.543 53.4499C111.259 53.7008 110.9 53.8508 110.521 53.8765C110.143 53.9023 109.766 53.8023 109.451 53.5922L105 50.625H95.625L88.125 61.875V73.125L92.543 83.2242L101.25 103.125L107.468 106.235C107.935 106.469 108.309 106.853 108.53 107.326C108.751 107.798 108.806 108.332 108.686 108.84C108.566 109.348 108.279 109.8 107.869 110.124C107.46 110.448 106.954 110.625 106.432 110.625H97.5L85.2961 87.5719L80.625 78.75C79.533 79.296 78.2968 79.4846 77.0917 79.289C75.8865 79.0934 74.7735 78.5235 73.9102 77.6602L73.125 76.875L67.5 78.75L63.75 63.75L78.75 60L85.1508 51.7687L89.6227 46.0196C90.3242 45.1184 91.2221 44.3892 92.248 43.8876C93.274 43.3859 94.4009 43.1251 95.5429 43.125H110.625C111.117 43.1249 111.605 43.2218 112.06 43.4102C112.515 43.5986 112.929 43.8748 113.277 44.223C113.625 44.5713 113.901 44.9847 114.09 45.4398C114.278 45.8948 114.375 46.3825 114.375 46.875V48.75Z" fill="#FFCEB6"/>
<path d="M15 99.3752L9.375 110.625H5.625V93.7502L7.92609 92.3013L15 99.3752Z" fill="#F5F5F5"/>
<path d="M20.6246 103.125L57.5499 87.0708C61.5972 85.3111 65.0516 82.4223 67.4996 78.7502L63.7496 63.7502L63.1238 63.5938C60.9508 63.0505 58.6902 62.9527 56.4783 63.3061C54.2664 63.6596 52.149 64.4571 50.2535 65.6506L7.92578 92.3014L14.9996 99.3752L16.2129 98.7135L20.6246 103.125Z" fill="#AFA2BE"/>
<path d="M92.543 83.224L85.2961 87.5717L80.625 78.7498C79.533 79.2958 78.2968 79.4844 77.0917 79.2888C75.8865 79.0932 74.7735 78.5234 73.9102 77.66L73.125 76.8748L67.5 78.7498L63.75 63.7498L78.75 59.9998L85.1508 51.7686L91.875 56.2498L88.125 61.8748V73.1248L92.543 83.224Z" fill="#665E93"/>
<path d="M65.625 15C66.2194 15.5944 66.9252 16.066 67.7018 16.3877C68.4785 16.7094 69.311 16.875 70.1516 16.875H71.25V20.625C71.25 21.6196 70.8549 22.5734 70.1517 23.2766C69.4484 23.9799 68.4946 24.375 67.5 24.375C66.5054 24.375 65.5516 23.9799 64.8483 23.2766C64.1451 22.5734 63.75 21.6196 63.75 20.625V16.875L65.625 15Z" fill="#FFCEB6"/>
<path d="M55.9501 41.0249L54.3751 43.125L58.1251 58.125L60.594 59.3594C60.979 59.5519 61.3027 59.8477 61.529 60.2139C61.7553 60.58 61.8751 61.0019 61.8751 61.4323C61.8751 61.7367 61.8152 62.0381 61.6987 62.3192C61.5822 62.6004 61.4115 62.8559 61.1963 63.0711C60.9811 63.2863 60.7256 63.4571 60.4444 63.5735C60.1632 63.69 59.8619 63.75 59.5575 63.75H58.1251L60.0001 67.5L57.6486 68.2838C56.7562 68.5813 55.7846 68.5325 54.9265 68.1471C54.0684 67.7618 53.3864 67.068 53.0159 66.2034L44.6357 46.6497C44.1681 45.5585 43.9661 44.3719 44.0465 43.1875C44.1269 42.003 44.4873 40.8546 45.098 39.8366L47.9741 35.043L55.9501 41.0249Z" fill="#FFCEB6"/>
<path d="M57.3762 36.0033L55.5762 38.4033C54.9549 39.2317 55.1227 40.407 55.9512 41.0283C56.7796 41.6496 57.9549 41.4817 58.5762 40.6533L60.3762 38.2533C60.9975 37.4249 60.8296 36.2496 60.0012 35.6283C59.1727 35.007 57.9975 35.1749 57.3762 36.0033Z" fill="#01A796"/>
<path d="M90.3045 68.6483L85.3123 70.3123C84.5664 70.561 83.7522 70.5031 83.049 70.1515C82.3457 69.7999 81.8109 69.1833 81.5623 68.4373C81.3137 67.6914 81.3715 66.8773 81.7231 66.174C82.0748 65.4708 82.6914 64.936 83.4373 64.6873L88.3639 63.0444L88.6076 63.7498L90.3045 68.6483Z" fill="#FFCEB6"/>
<path d="M20.625 103.125L16.2131 98.7129L15 99.3748L9.375 110.625H15L20.625 103.125Z" fill="#E0E0E0"/>
<path d="M15.7616 96.8387L53.7238 76.128C53.94 76.0101 54.1773 75.9359 54.4222 75.9096C54.6671 75.8834 54.9147 75.9057 55.151 75.9751C55.3873 76.0446 55.6076 76.1599 55.7993 76.3145C55.991 76.4691 56.1504 76.66 56.2683 76.8762C56.5065 77.3128 56.5615 77.8262 56.4212 78.3034C56.2809 78.7806 55.9568 79.1825 55.5201 79.4207L17.5579 100.131C17.3417 100.249 17.1044 100.323 16.8595 100.35C16.6146 100.376 16.367 100.354 16.1307 100.284C15.8944 100.215 15.6741 100.099 15.4824 99.9448C15.2907 99.7902 15.1313 99.5993 15.0134 99.3831C14.7752 98.9465 14.7202 98.4331 14.8605 97.9559C15.0008 97.4788 15.3249 97.0769 15.7616 96.8387L15.7616 96.8387Z" fill="#665E93"/>
<path d="M90.3047 68.6484L85.3125 70.3125C85.0101 70.413 84.6936 70.4644 84.375 70.4648V67.5C84.3749 67.0075 84.4718 66.5198 84.6602 66.0648C84.8486 65.6097 85.1248 65.1963 85.4731 64.8481C85.8213 64.4998 86.2347 64.2236 86.6898 64.0352C87.1448 63.8468 87.6325 63.7499 88.125 63.75H88.6078L90.3047 68.6484Z" fill="#FFBFA1"/>
<path d="M91.875 69.375H90C89.0054 69.375 88.0516 68.9799 87.3483 68.2767C86.6451 67.5734 86.25 66.6196 86.25 65.625C86.25 64.6304 86.6451 63.6766 87.3483 62.9733C88.0516 62.2701 89.0054 61.875 90 61.875H93.75L95.625 65.625L91.875 69.375Z" fill="#FFCEB6"/>
</svg>
