<svg width="12" height="12" viewBox="0 0 12 12" fill="none" xmlns="http://www.w3.org/2000/svg">
<g clipPath="url(#clip0_2_22294)">
<circle cx="6" cy="6" r="6" fill="#80798B"/>
<path d="M7.86807 8.80581L6 6.9377L4.13193 8.80581C3.87297 9.06473 3.45315 9.06473 3.19419 8.80581C2.93527 8.54685 2.93527 8.12703 3.19419 7.86807L5.0623 6L3.19419 4.13193C2.93527 3.87297 2.93527 3.45315 3.19419 3.19419C3.45315 2.93527 3.87297 2.93527 4.13193 3.19419L6 5.0623L7.86807 3.19419C8.12703 2.93527 8.54685 2.93527 8.80581 3.19419C9.06473 3.45315 9.06473 3.87297 8.80581 4.13193L6.9377 6L8.80581 7.86807C9.06473 8.12703 9.06473 8.54685 8.80581 8.80581C8.54685 9.06473 8.12703 9.06473 7.86807 8.80581Z" fill="white"/>
</g>
<defs>
<clipPath id="clip0_2_22294">
<rect width="12" height="12" fill="white"/>
</clipPath>
</defs>
</svg>
