<svg width="538" height="524" viewBox="0 0 538 524" fill="none" xmlns="http://www.w3.org/2000/svg">
<path fillRule="evenodd" clipRule="evenodd" d="M27 24C165.071 24 277 135.929 277 274C277 412.071 165.071 524 27 524C-111.071 524 -223 412.071 -223 274C-223 135.929 -111.071 24 27 24ZM27 124C109.843 124 177 191.157 177 274C177 356.843 109.843 424 27 424C-55.8427 424 -123 356.843 -123 274C-123 191.157 -55.8427 124 27 124Z" fill="#F2F8F8"/>
<path d="M538 100C538 44.7715 493.228 0 438 0C382.772 0 338 44.7715 338 100C338 155.228 382.772 200 438 200C493.228 200 538 155.228 538 100Z" fill="#F2F8F8"/>
</svg>
