<svg width="570" height="426" viewBox="0 0 570 426" fill="none" xmlns="http://www.w3.org/2000/svg">
<path d="M570 373.905H0V374.19H570V373.905Z" fill="#EBEBEB"/>
<path d="M512.886 392.248H475.129V392.533H512.886V392.248Z" fill="#EBEBEB"/>
<path d="M377.59 395.349H367.684V395.634H377.59V395.349Z" fill="#EBEBEB"/>
<path d="M473.989 381.669H452.112V381.954H473.989V381.669Z" fill="#EBEBEB"/>
<path d="M109.041 383.584H59.8047V383.869H109.041V383.584Z" fill="#EBEBEB"/>
<path d="M126.414 383.584H119.198V383.869H126.414V383.584Z" fill="#EBEBEB"/>
<path d="M256.671 388.395H149.876V388.68H256.671V388.395Z" fill="#EBEBEB"/>
<path d="M270.18 323.061H50.0576C48.3331 323.058 46.6804 322.371 45.4621 321.151C44.2438 319.93 43.5596 318.276 43.5596 316.552V7.1217C43.5596 5.39728 44.2438 3.74331 45.4621 2.52289C46.6804 1.30247 48.3331 0.615325 50.0576 0.612305L270.18 0.612305C271.907 0.612305 273.562 1.29811 274.783 2.51886C276.004 3.73961 276.69 5.3953 276.69 7.1217V316.552C276.69 317.407 276.521 318.253 276.194 319.043C275.867 319.833 275.387 320.55 274.783 321.155C274.179 321.759 273.461 322.239 272.671 322.566C271.881 322.893 271.035 323.061 270.18 323.061ZM50.0576 0.897305C48.4087 0.900325 46.8285 1.55744 45.6636 2.72441C44.4988 3.89139 43.8446 5.47286 43.8446 7.1217V316.552C43.8446 318.201 44.4988 319.782 45.6636 320.949C46.8285 322.116 48.4087 322.773 50.0576 322.776H270.18C271.83 322.773 273.412 322.117 274.578 320.95C275.745 319.783 276.402 318.202 276.405 316.552V7.1217C276.402 5.47182 275.745 3.89037 274.578 2.72372C273.412 1.55707 271.83 0.900318 270.18 0.897305H50.0576Z" fill="#EBEBEB"/>
<path d="M516.773 323.061H296.639C294.914 323.058 293.26 322.371 292.04 321.151C290.82 319.931 290.133 318.277 290.13 316.552V7.1217C290.133 5.39623 290.82 3.74229 292.04 2.52219C293.26 1.3021 294.914 0.615319 296.639 0.612305L516.773 0.612305C518.496 0.618338 520.146 1.30681 521.361 2.52691C522.577 3.747 523.26 5.39925 523.26 7.1217V316.552C523.26 318.274 522.577 319.927 521.361 321.147C520.146 322.367 518.496 323.055 516.773 323.061ZM296.639 0.897305C294.989 0.900318 293.408 1.55707 292.241 2.72372C291.075 3.89037 290.418 5.47182 290.415 7.1217V316.552C290.418 318.202 291.075 319.783 292.241 320.95C293.408 322.117 294.989 322.773 296.639 322.776H516.773C518.423 322.773 520.005 322.117 521.171 320.95C522.338 319.783 522.995 318.202 522.998 316.552V7.1217C522.995 5.47182 522.338 3.89037 521.171 2.72372C520.005 1.55707 518.423 0.900318 516.773 0.897305H296.639Z" fill="#EBEBEB"/>
<path d="M507.779 71.543H231.58V337.779H507.779V71.543Z" fill="#E0E0E0"/>
<path d="M507.778 76.377H236.014V333.128H507.778V76.377Z" fill="#F5F5F5"/>
<path d="M238.02 270.952V193.728H246.034V183.525L264.092 175.078V164.635H267.101V193.728H270.111V270.952H274.124V230.835H283.153V209.779H286.162V270.952H293.173V247.889H298.189V241.87H309.224V220.803H315.244V206.77H322.266V185.702H325.276V206.77H332.298V220.803H338.306V241.87H349.341V247.889H354.357V270.952H360.376V241.87H371.411V177.677H374.421V170.654H398.486V177.677H403.502V223.813H423.566V228.829H430.577V231.838H423.566V249.896H444.622V189.715H448.635V177.677H458.667V131.541H461.677V177.677H468.699V189.715H507.778V333.139H236.014V270.952H238.02Z" fill="#E6E6E6"/>
<path d="M486.894 192.862H484.056V195.701H486.894V192.862Z" fill="#F0F0F0"/>
<path d="M486.894 197.627H484.056V200.466H486.894V197.627Z" fill="#F0F0F0"/>
<path d="M486.894 216.677H484.056V219.515H486.894V216.677Z" fill="#F0F0F0"/>
<path d="M486.894 221.441H484.056V224.28H486.894V221.441Z" fill="#F0F0F0"/>
<path d="M486.894 226.207H484.056V229.046H486.894V226.207Z" fill="#F0F0F0"/>
<path d="M486.894 240.503H484.056V243.342H486.894V240.503Z" fill="#F0F0F0"/>
<path d="M486.894 245.268H484.056V248.106H486.894V245.268Z" fill="#F0F0F0"/>
<path d="M482.38 211.911H479.541V214.75H482.38V211.911Z" fill="#F0F0F0"/>
<path d="M482.38 216.677H479.541V219.515H482.38V216.677Z" fill="#F0F0F0"/>
<path d="M482.38 221.441H479.541V224.28H482.38V221.441Z" fill="#F0F0F0"/>
<path d="M482.38 226.207H479.541V229.046H482.38V226.207Z" fill="#F0F0F0"/>
<path d="M482.38 230.973H479.541V233.811H482.38V230.973Z" fill="#F0F0F0"/>
<path d="M482.38 240.503H479.541V243.342H482.38V240.503Z" fill="#F0F0F0"/>
<path d="M482.38 245.268H479.541V248.106H482.38V245.268Z" fill="#F0F0F0"/>
<path d="M477.865 192.862H475.026V195.701H477.865V192.862Z" fill="#F0F0F0"/>
<path d="M477.865 197.627H475.026V200.466H477.865V197.627Z" fill="#F0F0F0"/>
<path d="M477.865 202.393H475.026V205.231H477.865V202.393Z" fill="#F0F0F0"/>
<path d="M477.865 207.157H475.026V209.996H477.865V207.157Z" fill="#F0F0F0"/>
<path d="M477.865 211.911H475.026V214.75H477.865V211.911Z" fill="#F0F0F0"/>
<path d="M477.865 216.677H475.026V219.515H477.865V216.677Z" fill="#F0F0F0"/>
<path d="M477.865 221.441H475.026V224.28H477.865V221.441Z" fill="#F0F0F0"/>
<path d="M477.865 226.207H475.026V229.046H477.865V226.207Z" fill="#F0F0F0"/>
<path d="M477.865 230.973H475.026V233.811H477.865V230.973Z" fill="#F0F0F0"/>
<path d="M477.865 235.737H475.026V238.576H477.865V235.737Z" fill="#F0F0F0"/>
<path d="M477.865 245.268H475.026V248.106H477.865V245.268Z" fill="#F0F0F0"/>
<path d="M473.35 192.862H470.512V195.701H473.35V192.862Z" fill="#F0F0F0"/>
<path d="M473.35 197.627H470.512V200.466H473.35V197.627Z" fill="#F0F0F0"/>
<path d="M473.35 202.393H470.512V205.231H473.35V202.393Z" fill="#F0F0F0"/>
<path d="M473.35 207.157H470.512V209.996H473.35V207.157Z" fill="#F0F0F0"/>
<path d="M473.35 211.911H470.512V214.75H473.35V211.911Z" fill="#F0F0F0"/>
<path d="M473.35 216.677H470.512V219.515H473.35V216.677Z" fill="#F0F0F0"/>
<path d="M473.35 221.441H470.512V224.28H473.35V221.441Z" fill="#F0F0F0"/>
<path d="M473.35 264.317H470.512V267.156H473.35V264.317Z" fill="#F0F0F0"/>
<path d="M468.837 192.862H465.998V195.701H468.837V192.862Z" fill="#F0F0F0"/>
<path d="M468.837 197.627H465.998V200.466H468.837V197.627Z" fill="#F0F0F0"/>
<path d="M468.837 202.393H465.998V205.231H468.837V202.393Z" fill="#F0F0F0"/>
<path d="M468.837 207.157H465.998V209.996H468.837V207.157Z" fill="#F0F0F0"/>
<path d="M468.837 211.911H465.998V214.75H468.837V211.911Z" fill="#F0F0F0"/>
<path d="M468.837 216.677H465.998V219.515H468.837V216.677Z" fill="#F0F0F0"/>
<path d="M468.837 221.441H465.998V224.28H468.837V221.441Z" fill="#F0F0F0"/>
<path d="M468.837 226.207H465.998V229.046H468.837V226.207Z" fill="#F0F0F0"/>
<path d="M468.837 254.798H465.998V257.636H468.837V254.798Z" fill="#F0F0F0"/>
<path d="M468.837 259.552H465.998V262.39H468.837V259.552Z" fill="#F0F0F0"/>
<path d="M468.837 264.317H465.998V267.156H468.837V264.317Z" fill="#F0F0F0"/>
<path d="M468.837 269.082H465.998V271.921H468.837V269.082Z" fill="#F0F0F0"/>
<path d="M468.837 288.144H465.998V290.982H468.837V288.144Z" fill="#F0F0F0"/>
<path d="M464.322 192.862H461.483V195.701H464.322V192.862Z" fill="#F0F0F0"/>
<path d="M464.322 197.627H461.483V200.466H464.322V197.627Z" fill="#F0F0F0"/>
<path d="M464.322 202.393H461.483V205.231H464.322V202.393Z" fill="#F0F0F0"/>
<path d="M464.322 207.157H461.483V209.996H464.322V207.157Z" fill="#F0F0F0"/>
<path d="M464.322 211.911H461.483V214.75H464.322V211.911Z" fill="#F0F0F0"/>
<path d="M464.322 216.677H461.483V219.515H464.322V216.677Z" fill="#F0F0F0"/>
<path d="M464.322 221.441H461.483V224.28H464.322V221.441Z" fill="#F0F0F0"/>
<path d="M464.322 226.207H461.483V229.046H464.322V226.207Z" fill="#F0F0F0"/>
<path d="M464.322 230.973H461.483V233.811H464.322V230.973Z" fill="#F0F0F0"/>
<path d="M464.322 235.737H461.483V238.576H464.322V235.737Z" fill="#F0F0F0"/>
<path d="M464.322 250.033H461.483V252.872H464.322V250.033Z" fill="#F0F0F0"/>
<path d="M464.322 254.798H461.483V257.636H464.322V254.798Z" fill="#F0F0F0"/>
<path d="M464.322 259.552H461.483V262.39H464.322V259.552Z" fill="#F0F0F0"/>
<path d="M464.322 264.317H461.483V267.156H464.322V264.317Z" fill="#F0F0F0"/>
<path d="M464.322 269.082H461.483V271.921H464.322V269.082Z" fill="#F0F0F0"/>
<path d="M464.322 288.144H461.483V290.982H464.322V288.144Z" fill="#F0F0F0"/>
<path d="M459.807 192.862H456.969V195.701H459.807V192.862Z" fill="#F0F0F0"/>
<path d="M459.807 197.627H456.969V200.466H459.807V197.627Z" fill="#F0F0F0"/>
<path d="M459.807 202.393H456.969V205.231H459.807V202.393Z" fill="#F0F0F0"/>
<path d="M459.807 207.157H456.969V209.996H459.807V207.157Z" fill="#F0F0F0"/>
<path d="M459.807 211.911H456.969V214.75H459.807V211.911Z" fill="#F0F0F0"/>
<path d="M459.807 216.677H456.969V219.515H459.807V216.677Z" fill="#F0F0F0"/>
<path d="M459.807 221.441H456.969V224.28H459.807V221.441Z" fill="#F0F0F0"/>
<path d="M459.807 226.207H456.969V229.046H459.807V226.207Z" fill="#F0F0F0"/>
<path d="M459.807 230.973H456.969V233.811H459.807V230.973Z" fill="#F0F0F0"/>
<path d="M459.807 235.737H456.969V238.576H459.807V235.737Z" fill="#F0F0F0"/>
<path d="M459.807 240.503H456.969V243.342H459.807V240.503Z" fill="#F0F0F0"/>
<path d="M459.807 245.268H456.969V248.106H459.807V245.268Z" fill="#F0F0F0"/>
<path d="M459.807 250.033H456.969V252.872H459.807V250.033Z" fill="#F0F0F0"/>
<path d="M459.807 254.798H456.969V257.636H459.807V254.798Z" fill="#F0F0F0"/>
<path d="M459.807 259.552H456.969V262.39H459.807V259.552Z" fill="#F0F0F0"/>
<path d="M459.807 264.317H456.969V267.156H459.807V264.317Z" fill="#F0F0F0"/>
<path d="M459.807 269.082H456.969V271.921H459.807V269.082Z" fill="#F0F0F0"/>
<path d="M459.807 273.848H456.969V276.686H459.807V273.848Z" fill="#F0F0F0"/>
<path d="M455.294 192.862H452.455V195.701H455.294V192.862Z" fill="#F0F0F0"/>
<path d="M455.294 197.627H452.455V200.466H455.294V197.627Z" fill="#F0F0F0"/>
<path d="M455.294 202.393H452.455V205.231H455.294V202.393Z" fill="#F0F0F0"/>
<path d="M455.294 207.157H452.455V209.996H455.294V207.157Z" fill="#F0F0F0"/>
<path d="M455.294 211.911H452.455V214.75H455.294V211.911Z" fill="#F0F0F0"/>
<path d="M455.294 216.677H452.455V219.515H455.294V216.677Z" fill="#F0F0F0"/>
<path d="M455.294 221.441H452.455V224.28H455.294V221.441Z" fill="#F0F0F0"/>
<path d="M455.294 226.207H452.455V229.046H455.294V226.207Z" fill="#F0F0F0"/>
<path d="M455.294 230.973H452.455V233.811H455.294V230.973Z" fill="#F0F0F0"/>
<path d="M455.294 235.737H452.455V238.576H455.294V235.737Z" fill="#F0F0F0"/>
<path d="M455.294 250.033H452.455V252.872H455.294V250.033Z" fill="#F0F0F0"/>
<path d="M455.294 254.798H452.455V257.636H455.294V254.798Z" fill="#F0F0F0"/>
<path d="M455.294 259.552H452.455V262.39H455.294V259.552Z" fill="#F0F0F0"/>
<path d="M455.294 264.317H452.455V267.156H455.294V264.317Z" fill="#F0F0F0"/>
<path d="M450.79 192.862H447.951V195.701H450.79V192.862Z" fill="#F0F0F0"/>
<path d="M450.79 197.627H447.951V200.466H450.79V197.627Z" fill="#F0F0F0"/>
<path d="M450.79 202.393H447.951V205.231H450.79V202.393Z" fill="#F0F0F0"/>
<path d="M450.79 207.157H447.951V209.996H450.79V207.157Z" fill="#F0F0F0"/>
<path d="M450.79 211.911H447.951V214.75H450.79V211.911Z" fill="#F0F0F0"/>
<path d="M450.79 216.677H447.951V219.515H450.79V216.677Z" fill="#F0F0F0"/>
<path d="M450.79 221.441H447.951V224.28H450.79V221.441Z" fill="#F0F0F0"/>
<path d="M450.79 226.207H447.951V229.046H450.79V226.207Z" fill="#F0F0F0"/>
<path d="M450.79 230.973H447.951V233.811H450.79V230.973Z" fill="#F0F0F0"/>
<path d="M450.79 235.737H447.951V238.576H450.79V235.737Z" fill="#F0F0F0"/>
<path d="M450.79 250.033H447.951V252.872H450.79V250.033Z" fill="#F0F0F0"/>
<path d="M450.79 254.798H447.951V257.636H450.79V254.798Z" fill="#F0F0F0"/>
<path d="M450.79 259.552H447.951V262.39H450.79V259.552Z" fill="#F0F0F0"/>
<path d="M399.969 180.493H397.13V183.332H399.969V180.493Z" fill="#F0F0F0"/>
<path d="M399.969 185.258H397.13V188.096H399.969V185.258Z" fill="#F0F0F0"/>
<path d="M399.969 190.023H397.13V192.862H399.969V190.023Z" fill="#F0F0F0"/>
<path d="M399.969 194.777H397.13V197.616H399.969V194.777Z" fill="#F0F0F0"/>
<path d="M399.969 199.542H397.13V202.381H399.969V199.542Z" fill="#F0F0F0"/>
<path d="M399.969 204.308H397.13V207.146H399.969V204.308Z" fill="#F0F0F0"/>
<path d="M399.969 209.073H397.13V211.912H399.969V209.073Z" fill="#F0F0F0"/>
<path d="M399.969 213.838H397.13V216.676H399.969V213.838Z" fill="#F0F0F0"/>
<path d="M399.969 228.134H397.13V230.972H399.969V228.134Z" fill="#F0F0F0"/>
<path d="M399.969 232.898H397.13V235.737H399.969V232.898Z" fill="#F0F0F0"/>
<path d="M395.455 180.493H392.616V183.332H395.455V180.493Z" fill="#F0F0F0"/>
<path d="M395.455 185.258H392.616V188.096H395.455V185.258Z" fill="#F0F0F0"/>
<path d="M395.455 190.023H392.616V192.862H395.455V190.023Z" fill="#F0F0F0"/>
<path d="M395.455 194.777H392.616V197.616H395.455V194.777Z" fill="#F0F0F0"/>
<path d="M395.455 199.542H392.616V202.381H395.455V199.542Z" fill="#F0F0F0"/>
<path d="M395.455 204.308H392.616V207.146H395.455V204.308Z" fill="#F0F0F0"/>
<path d="M395.455 209.073H392.616V211.912H395.455V209.073Z" fill="#F0F0F0"/>
<path d="M395.455 213.838H392.616V216.676H395.455V213.838Z" fill="#F0F0F0"/>
<path d="M395.455 232.898H392.616V235.737H395.455V232.898Z" fill="#F0F0F0"/>
<path d="M390.94 180.493H388.102V183.332H390.94V180.493Z" fill="#F0F0F0"/>
<path d="M390.94 185.258H388.102V188.096H390.94V185.258Z" fill="#F0F0F0"/>
<path d="M390.94 190.023H388.102V192.862H390.94V190.023Z" fill="#F0F0F0"/>
<path d="M390.94 194.777H388.102V197.616H390.94V194.777Z" fill="#F0F0F0"/>
<path d="M390.94 199.542H388.102V202.381H390.94V199.542Z" fill="#F0F0F0"/>
<path d="M390.94 204.308H388.102V207.146H390.94V204.308Z" fill="#F0F0F0"/>
<path d="M390.94 209.073H388.102V211.912H390.94V209.073Z" fill="#F0F0F0"/>
<path d="M390.94 213.838H388.102V216.676H390.94V213.838Z" fill="#F0F0F0"/>
<path d="M386.426 180.493H383.587V183.332H386.426V180.493Z" fill="#F0F0F0"/>
<path d="M386.426 185.258H383.587V188.096H386.426V185.258Z" fill="#F0F0F0"/>
<path d="M386.426 190.023H383.587V192.862H386.426V190.023Z" fill="#F0F0F0"/>
<path d="M386.426 194.777H383.587V197.616H386.426V194.777Z" fill="#F0F0F0"/>
<path d="M386.426 199.542H383.587V202.381H386.426V199.542Z" fill="#F0F0F0"/>
<path d="M386.426 204.308H383.587V207.146H386.426V204.308Z" fill="#F0F0F0"/>
<path d="M386.426 213.838H383.587V216.676H386.426V213.838Z" fill="#F0F0F0"/>
<path d="M386.426 218.604H383.587V221.442H386.426V218.604Z" fill="#F0F0F0"/>
<path d="M386.426 232.898H383.587V235.737H386.426V232.898Z" fill="#F0F0F0"/>
<path d="M386.426 237.664H383.587V240.503H386.426V237.664Z" fill="#F0F0F0"/>
<path d="M386.426 242.418H383.587V245.257H386.426V242.418Z" fill="#F0F0F0"/>
<path d="M386.426 247.183H383.587V250.021H386.426V247.183Z" fill="#F0F0F0"/>
<path d="M386.426 251.948H383.587V254.787H386.426V251.948Z" fill="#F0F0F0"/>
<path d="M386.426 256.713H383.587V259.551H386.426V256.713Z" fill="#F0F0F0"/>
<path d="M386.426 261.479H383.587V264.317H386.426V261.479Z" fill="#F0F0F0"/>
<path d="M381.912 180.493H379.073V183.332H381.912V180.493Z" fill="#F0F0F0"/>
<path d="M381.912 185.258H379.073V188.096H381.912V185.258Z" fill="#F0F0F0"/>
<path d="M381.912 190.023H379.073V192.862H381.912V190.023Z" fill="#F0F0F0"/>
<path d="M381.912 194.777H379.073V197.616H381.912V194.777Z" fill="#F0F0F0"/>
<path d="M381.912 199.542H379.073V202.381H381.912V199.542Z" fill="#F0F0F0"/>
<path d="M381.912 204.308H379.073V207.146H381.912V204.308Z" fill="#F0F0F0"/>
<path d="M381.912 218.604H379.073V221.442H381.912V218.604Z" fill="#F0F0F0"/>
<path d="M381.912 223.368H379.073V226.207H381.912V223.368Z" fill="#F0F0F0"/>
<path d="M381.912 228.134H379.073V230.972H381.912V228.134Z" fill="#F0F0F0"/>
<path d="M381.912 232.898H379.073V235.737H381.912V232.898Z" fill="#F0F0F0"/>
<path d="M381.912 237.664H379.073V240.503H381.912V237.664Z" fill="#F0F0F0"/>
<path d="M381.912 242.418H379.073V245.257H381.912V242.418Z" fill="#F0F0F0"/>
<path d="M381.912 247.183H379.073V250.021H381.912V247.183Z" fill="#F0F0F0"/>
<path d="M381.912 251.948H379.073V254.787H381.912V251.948Z" fill="#F0F0F0"/>
<path d="M381.912 256.713H379.073V259.551H381.912V256.713Z" fill="#F0F0F0"/>
<path d="M381.912 261.479H379.073V264.317H381.912V261.479Z" fill="#F0F0F0"/>
<path d="M381.912 266.244H379.073V269.083H381.912V266.244Z" fill="#F0F0F0"/>
<path d="M381.912 275.774H379.073V278.613H381.912V275.774Z" fill="#F0F0F0"/>
<path d="M377.397 180.493H374.559V183.332H377.397V180.493Z" fill="#F0F0F0"/>
<path d="M377.397 185.258H374.559V188.096H377.397V185.258Z" fill="#F0F0F0"/>
<path d="M377.397 190.023H374.559V192.862H377.397V190.023Z" fill="#F0F0F0"/>
<path d="M377.397 194.777H374.559V197.616H377.397V194.777Z" fill="#F0F0F0"/>
<path d="M377.397 199.542H374.559V202.381H377.397V199.542Z" fill="#F0F0F0"/>
<path d="M377.397 204.308H374.559V207.146H377.397V204.308Z" fill="#F0F0F0"/>
<path d="M377.397 218.604H374.559V221.442H377.397V218.604Z" fill="#F0F0F0"/>
<path d="M377.397 223.368H374.559V226.207H377.397V223.368Z" fill="#F0F0F0"/>
<path d="M377.397 228.134H374.559V230.972H377.397V228.134Z" fill="#F0F0F0"/>
<path d="M377.397 232.898H374.559V235.737H377.397V232.898Z" fill="#F0F0F0"/>
<path d="M377.397 247.183H374.559V250.021H377.397V247.183Z" fill="#F0F0F0"/>
<path d="M377.397 251.948H374.559V254.787H377.397V251.948Z" fill="#F0F0F0"/>
<path d="M377.397 256.713H374.559V259.551H377.397V256.713Z" fill="#F0F0F0"/>
<path d="M377.397 261.479H374.559V264.317H377.397V261.479Z" fill="#F0F0F0"/>
<path d="M377.397 266.244H374.559V269.083H377.397V266.244Z" fill="#F0F0F0"/>
<path d="M377.397 275.774H374.559V278.613H377.397V275.774Z" fill="#F0F0F0"/>
<path d="M377.397 280.539H374.559V283.378H377.397V280.539Z" fill="#F0F0F0"/>
<path d="M336.448 224.782H333.609V227.621H336.448V224.782Z" fill="#F0F0F0"/>
<path d="M336.448 229.547H333.609V232.385H336.448V229.547Z" fill="#F0F0F0"/>
<path d="M336.448 234.312H333.609V237.151H336.448V234.312Z" fill="#F0F0F0"/>
<path d="M336.448 239.077H333.609V241.916H336.448V239.077Z" fill="#F0F0F0"/>
<path d="M336.448 243.843H333.609V246.681H336.448V243.843Z" fill="#F0F0F0"/>
<path d="M336.448 248.608H333.609V251.447H336.448V248.608Z" fill="#F0F0F0"/>
<path d="M336.448 253.373H333.609V256.212H336.448V253.373Z" fill="#F0F0F0"/>
<path d="M336.448 267.669H333.609V270.508H336.448V267.669Z" fill="#F0F0F0"/>
<path d="M336.448 272.423H333.609V275.261H336.448V272.423Z" fill="#F0F0F0"/>
<path d="M336.448 277.188H333.609V280.026H336.448V277.188Z" fill="#F0F0F0"/>
<path d="M331.934 224.782H329.096V227.621H331.934V224.782Z" fill="#F0F0F0"/>
<path d="M331.934 229.547H329.096V232.385H331.934V229.547Z" fill="#F0F0F0"/>
<path d="M331.934 234.312H329.096V237.151H331.934V234.312Z" fill="#F0F0F0"/>
<path d="M331.934 239.077H329.096V241.916H331.934V239.077Z" fill="#F0F0F0"/>
<path d="M331.934 243.843H329.096V246.681H331.934V243.843Z" fill="#F0F0F0"/>
<path d="M331.934 248.608H329.096V251.447H331.934V248.608Z" fill="#F0F0F0"/>
<path d="M331.934 253.373H329.096V256.212H331.934V253.373Z" fill="#F0F0F0"/>
<path d="M327.42 224.782H324.581V227.621H327.42V224.782Z" fill="#F0F0F0"/>
<path d="M327.42 229.547H324.581V232.385H327.42V229.547Z" fill="#F0F0F0"/>
<path d="M327.42 234.312H324.581V237.151H327.42V234.312Z" fill="#F0F0F0"/>
<path d="M327.42 239.077H324.581V241.916H327.42V239.077Z" fill="#F0F0F0"/>
<path d="M327.42 243.843H324.581V246.681H327.42V243.843Z" fill="#F0F0F0"/>
<path d="M327.42 248.608H324.581V251.447H327.42V248.608Z" fill="#F0F0F0"/>
<path d="M327.42 253.373H324.581V256.212H327.42V253.373Z" fill="#F0F0F0"/>
<path d="M322.905 224.782H320.066V227.621H322.905V224.782Z" fill="#F0F0F0"/>
<path d="M322.905 229.547H320.066V232.385H322.905V229.547Z" fill="#F0F0F0"/>
<path d="M322.905 234.312H320.066V237.151H322.905V234.312Z" fill="#F0F0F0"/>
<path d="M322.905 239.077H320.066V241.916H322.905V239.077Z" fill="#F0F0F0"/>
<path d="M322.905 243.843H320.066V246.681H322.905V243.843Z" fill="#F0F0F0"/>
<path d="M322.905 248.608H320.066V251.447H322.905V248.608Z" fill="#F0F0F0"/>
<path d="M322.905 253.373H320.066V256.212H322.905V253.373Z" fill="#F0F0F0"/>
<path d="M322.905 258.139H320.066V260.977H322.905V258.139Z" fill="#F0F0F0"/>
<path d="M322.905 262.903H320.066V265.742H322.905V262.903Z" fill="#F0F0F0"/>
<path d="M322.905 267.669H320.066V270.508H322.905V267.669Z" fill="#F0F0F0"/>
<path d="M322.905 272.423H320.066V275.261H322.905V272.423Z" fill="#F0F0F0"/>
<path d="M318.39 224.782H315.552V227.621H318.39V224.782Z" fill="#F0F0F0"/>
<path d="M318.39 229.547H315.552V232.385H318.39V229.547Z" fill="#F0F0F0"/>
<path d="M318.39 234.312H315.552V237.151H318.39V234.312Z" fill="#F0F0F0"/>
<path d="M318.39 239.077H315.552V241.916H318.39V239.077Z" fill="#F0F0F0"/>
<path d="M318.39 243.843H315.552V246.681H318.39V243.843Z" fill="#F0F0F0"/>
<path d="M318.39 248.608H315.552V251.447H318.39V248.608Z" fill="#F0F0F0"/>
<path d="M318.39 253.373H315.552V256.212H318.39V253.373Z" fill="#F0F0F0"/>
<path d="M318.39 258.139H315.552V260.977H318.39V258.139Z" fill="#F0F0F0"/>
<path d="M318.39 262.903H315.552V265.742H318.39V262.903Z" fill="#F0F0F0"/>
<path d="M318.39 267.669H315.552V270.508H318.39V267.669Z" fill="#F0F0F0"/>
<path d="M318.39 272.423H315.552V275.261H318.39V272.423Z" fill="#F0F0F0"/>
<path d="M318.39 277.188H315.552V280.026H318.39V277.188Z" fill="#F0F0F0"/>
<path d="M318.39 291.483H315.552V294.322H318.39V291.483Z" fill="#F0F0F0"/>
<path d="M318.39 296.249H315.552V299.088H318.39V296.249Z" fill="#F0F0F0"/>
<path d="M313.876 224.782H311.037V227.621H313.876V224.782Z" fill="#F0F0F0"/>
<path d="M313.876 229.547H311.037V232.385H313.876V229.547Z" fill="#F0F0F0"/>
<path d="M313.876 234.312H311.037V237.151H313.876V234.312Z" fill="#F0F0F0"/>
<path d="M313.876 248.608H311.037V251.447H313.876V248.608Z" fill="#F0F0F0"/>
<path d="M313.876 253.373H311.037V256.212H313.876V253.373Z" fill="#F0F0F0"/>
<path d="M313.876 258.139H311.037V260.977H313.876V258.139Z" fill="#F0F0F0"/>
<path d="M313.876 262.903H311.037V265.742H313.876V262.903Z" fill="#F0F0F0"/>
<path d="M313.876 267.669H311.037V270.508H313.876V267.669Z" fill="#F0F0F0"/>
<path d="M313.876 272.423H311.037V275.261H313.876V272.423Z" fill="#F0F0F0"/>
<path d="M313.876 277.188H311.037V280.026H313.876V277.188Z" fill="#F0F0F0"/>
<path d="M313.876 291.483H311.037V294.322H313.876V291.483Z" fill="#F0F0F0"/>
<path d="M313.876 296.249H311.037V299.088H313.876V296.249Z" fill="#F0F0F0"/>
<path d="M313.876 301.014H311.037V303.852H313.876V301.014Z" fill="#F0F0F0"/>
<path d="M266.578 196.202H263.739V199.041H266.578V196.202Z" fill="#F0F0F0"/>
<path d="M266.578 200.968H263.739V203.806H266.578V200.968Z" fill="#F0F0F0"/>
<path d="M266.578 205.732H263.739V208.571H266.578V205.732Z" fill="#F0F0F0"/>
<path d="M266.578 210.498H263.739V213.337H266.578V210.498Z" fill="#F0F0F0"/>
<path d="M266.578 215.263H263.739V218.101H266.578V215.263Z" fill="#F0F0F0"/>
<path d="M266.578 220.028H263.739V222.867H266.578V220.028Z" fill="#F0F0F0"/>
<path d="M266.578 224.782H263.739V227.621H266.578V224.782Z" fill="#F0F0F0"/>
<path d="M266.578 229.547H263.739V232.385H266.578V229.547Z" fill="#F0F0F0"/>
<path d="M266.578 234.312H263.739V237.151H266.578V234.312Z" fill="#F0F0F0"/>
<path d="M266.578 239.077H263.739V241.916H266.578V239.077Z" fill="#F0F0F0"/>
<path d="M266.578 243.843H263.739V246.681H266.578V243.843Z" fill="#F0F0F0"/>
<path d="M266.578 248.608H263.739V251.447H266.578V248.608Z" fill="#F0F0F0"/>
<path d="M266.578 253.373H263.739V256.212H266.578V253.373Z" fill="#F0F0F0"/>
<path d="M266.578 258.139H263.739V260.977H266.578V258.139Z" fill="#F0F0F0"/>
<path d="M266.578 262.903H263.739V265.742H266.578V262.903Z" fill="#F0F0F0"/>
<path d="M266.578 267.669H263.739V270.508H266.578V267.669Z" fill="#F0F0F0"/>
<path d="M266.578 272.423H263.739V275.261H266.578V272.423Z" fill="#F0F0F0"/>
<path d="M266.578 277.188H263.739V280.026H266.578V277.188Z" fill="#F0F0F0"/>
<path d="M266.578 281.953H263.739V284.792H266.578V281.953Z" fill="#F0F0F0"/>
<path d="M266.578 286.718H263.739V289.556H266.578V286.718Z" fill="#F0F0F0"/>
<path d="M266.578 291.483H263.739V294.322H266.578V291.483Z" fill="#F0F0F0"/>
<path d="M266.578 296.249H263.739V299.088H266.578V296.249Z" fill="#F0F0F0"/>
<path d="M266.578 301.014H263.739V303.852H266.578V301.014Z" fill="#F0F0F0"/>
<path d="M262.063 196.202H259.225V199.041H262.063V196.202Z" fill="#F0F0F0"/>
<path d="M262.063 200.968H259.225V203.806H262.063V200.968Z" fill="#F0F0F0"/>
<path d="M262.063 205.732H259.225V208.571H262.063V205.732Z" fill="#F0F0F0"/>
<path d="M262.063 210.498H259.225V213.337H262.063V210.498Z" fill="#F0F0F0"/>
<path d="M262.063 215.263H259.225V218.101H262.063V215.263Z" fill="#F0F0F0"/>
<path d="M262.063 220.028H259.225V222.867H262.063V220.028Z" fill="#F0F0F0"/>
<path d="M262.063 224.782H259.225V227.621H262.063V224.782Z" fill="#F0F0F0"/>
<path d="M262.063 229.547H259.225V232.385H262.063V229.547Z" fill="#F0F0F0"/>
<path d="M262.063 234.312H259.225V237.151H262.063V234.312Z" fill="#F0F0F0"/>
<path d="M262.063 239.077H259.225V241.916H262.063V239.077Z" fill="#F0F0F0"/>
<path d="M262.063 243.843H259.225V246.681H262.063V243.843Z" fill="#F0F0F0"/>
<path d="M262.063 248.608H259.225V251.447H262.063V248.608Z" fill="#F0F0F0"/>
<path d="M262.063 253.373H259.225V256.212H262.063V253.373Z" fill="#F0F0F0"/>
<path d="M262.063 258.139H259.225V260.977H262.063V258.139Z" fill="#F0F0F0"/>
<path d="M262.063 262.903H259.225V265.742H262.063V262.903Z" fill="#F0F0F0"/>
<path d="M262.063 267.669H259.225V270.508H262.063V267.669Z" fill="#F0F0F0"/>
<path d="M262.063 272.423H259.225V275.261H262.063V272.423Z" fill="#F0F0F0"/>
<path d="M262.063 277.188H259.225V280.026H262.063V277.188Z" fill="#F0F0F0"/>
<path d="M262.063 281.953H259.225V284.792H262.063V281.953Z" fill="#F0F0F0"/>
<path d="M257.549 196.202H254.71V199.041H257.549V196.202Z" fill="#F0F0F0"/>
<path d="M257.549 200.968H254.71V203.806H257.549V200.968Z" fill="#F0F0F0"/>
<path d="M257.549 205.732H254.71V208.571H257.549V205.732Z" fill="#F0F0F0"/>
<path d="M257.549 210.498H254.71V213.337H257.549V210.498Z" fill="#F0F0F0"/>
<path d="M257.549 215.263H254.71V218.101H257.549V215.263Z" fill="#F0F0F0"/>
<path d="M257.549 220.028H254.71V222.867H257.549V220.028Z" fill="#F0F0F0"/>
<path d="M257.549 224.782H254.71V227.621H257.549V224.782Z" fill="#F0F0F0"/>
<path d="M257.549 229.547H254.71V232.385H257.549V229.547Z" fill="#F0F0F0"/>
<path d="M257.549 234.312H254.71V237.151H257.549V234.312Z" fill="#F0F0F0"/>
<path d="M257.549 239.077H254.71V241.916H257.549V239.077Z" fill="#F0F0F0"/>
<path d="M257.549 243.843H254.71V246.681H257.549V243.843Z" fill="#F0F0F0"/>
<path d="M257.549 248.608H254.71V251.447H257.549V248.608Z" fill="#F0F0F0"/>
<path d="M257.549 253.373H254.71V256.212H257.549V253.373Z" fill="#F0F0F0"/>
<path d="M257.549 258.139H254.71V260.977H257.549V258.139Z" fill="#F0F0F0"/>
<path d="M257.549 262.903H254.71V265.742H257.549V262.903Z" fill="#F0F0F0"/>
<path d="M257.549 267.669H254.71V270.508H257.549V267.669Z" fill="#F0F0F0"/>
<path d="M257.549 272.423H254.71V275.261H257.549V272.423Z" fill="#F0F0F0"/>
<path d="M257.549 277.188H254.71V280.026H257.549V277.188Z" fill="#F0F0F0"/>
<path d="M257.549 281.953H254.71V284.792H257.549V281.953Z" fill="#F0F0F0"/>
<path d="M253.035 196.202H250.196V199.041H253.035V196.202Z" fill="#F0F0F0"/>
<path d="M253.035 200.968H250.196V203.806H253.035V200.968Z" fill="#F0F0F0"/>
<path d="M253.035 205.732H250.196V208.571H253.035V205.732Z" fill="#F0F0F0"/>
<path d="M253.035 210.498H250.196V213.337H253.035V210.498Z" fill="#F0F0F0"/>
<path d="M253.035 215.263H250.196V218.101H253.035V215.263Z" fill="#F0F0F0"/>
<path d="M253.035 220.028H250.196V222.867H253.035V220.028Z" fill="#F0F0F0"/>
<path d="M253.035 224.782H250.196V227.621H253.035V224.782Z" fill="#F0F0F0"/>
<path d="M253.035 229.547H250.196V232.385H253.035V229.547Z" fill="#F0F0F0"/>
<path d="M253.035 234.312H250.196V237.151H253.035V234.312Z" fill="#F0F0F0"/>
<path d="M253.035 239.077H250.196V241.916H253.035V239.077Z" fill="#F0F0F0"/>
<path d="M253.035 243.843H250.196V246.681H253.035V243.843Z" fill="#F0F0F0"/>
<path d="M253.035 248.608H250.196V251.447H253.035V248.608Z" fill="#F0F0F0"/>
<path d="M253.035 253.373H250.196V256.212H253.035V253.373Z" fill="#F0F0F0"/>
<path d="M253.035 258.139H250.196V260.977H253.035V258.139Z" fill="#F0F0F0"/>
<path d="M253.035 262.903H250.196V265.742H253.035V262.903Z" fill="#F0F0F0"/>
<path d="M248.519 196.202H245.681V199.041H248.519V196.202Z" fill="#F0F0F0"/>
<path d="M248.519 200.968H245.681V203.806H248.519V200.968Z" fill="#F0F0F0"/>
<path d="M248.519 205.732H245.681V208.571H248.519V205.732Z" fill="#F0F0F0"/>
<path d="M248.519 210.498H245.681V213.337H248.519V210.498Z" fill="#F0F0F0"/>
<path d="M248.519 215.263H245.681V218.101H248.519V215.263Z" fill="#F0F0F0"/>
<path d="M248.519 220.028H245.681V222.867H248.519V220.028Z" fill="#F0F0F0"/>
<path d="M248.519 224.782H245.681V227.621H248.519V224.782Z" fill="#F0F0F0"/>
<path d="M248.519 229.547H245.681V232.385H248.519V229.547Z" fill="#F0F0F0"/>
<path d="M248.519 234.312H245.681V237.151H248.519V234.312Z" fill="#F0F0F0"/>
<path d="M248.519 239.077H245.681V241.916H248.519V239.077Z" fill="#F0F0F0"/>
<path d="M248.519 243.843H245.681V246.681H248.519V243.843Z" fill="#F0F0F0"/>
<path d="M248.519 248.608H245.681V251.447H248.519V248.608Z" fill="#F0F0F0"/>
<path d="M248.519 253.373H245.681V256.212H248.519V253.373Z" fill="#F0F0F0"/>
<path d="M244.006 196.202H241.167V199.041H244.006V196.202Z" fill="#F0F0F0"/>
<path d="M244.006 200.968H241.167V203.806H244.006V200.968Z" fill="#F0F0F0"/>
<path d="M244.006 205.732H241.167V208.571H244.006V205.732Z" fill="#F0F0F0"/>
<path d="M244.006 210.498H241.167V213.337H244.006V210.498Z" fill="#F0F0F0"/>
<path d="M244.006 215.263H241.167V218.101H244.006V215.263Z" fill="#F0F0F0"/>
<path d="M244.006 220.028H241.167V222.867H244.006V220.028Z" fill="#F0F0F0"/>
<path d="M244.006 224.782H241.167V227.621H244.006V224.782Z" fill="#F0F0F0"/>
<path d="M244.006 229.547H241.167V232.385H244.006V229.547Z" fill="#F0F0F0"/>
<path d="M244.006 234.312H241.167V237.151H244.006V234.312Z" fill="#F0F0F0"/>
<path d="M244.006 239.077H241.167V241.916H244.006V239.077Z" fill="#F0F0F0"/>
<path d="M244.006 243.843H241.167V246.681H244.006V243.843Z" fill="#F0F0F0"/>
<path d="M244.006 248.608H241.167V251.447H244.006V248.608Z" fill="#F0F0F0"/>
<path d="M507.448 194.777H504.609V197.616H507.448V194.777Z" fill="#F0F0F0"/>
<path d="M507.448 199.542H504.609V202.381H507.448V199.542Z" fill="#F0F0F0"/>
<path d="M507.448 204.308H504.609V207.146H507.448V204.308Z" fill="#F0F0F0"/>
<path d="M507.448 209.073H504.609V211.912H507.448V209.073Z" fill="#F0F0F0"/>
<path d="M507.448 213.838H504.609V216.676H507.448V213.838Z" fill="#F0F0F0"/>
<path d="M507.448 218.604H504.609V221.442H507.448V218.604Z" fill="#F0F0F0"/>
<path d="M507.448 223.368H504.609V226.207H507.448V223.368Z" fill="#F0F0F0"/>
<path d="M507.448 228.134H504.609V230.972H507.448V228.134Z" fill="#F0F0F0"/>
<path d="M507.448 232.898H504.609V235.737H507.448V232.898Z" fill="#F0F0F0"/>
<path d="M507.448 237.664H504.609V240.503H507.448V237.664Z" fill="#F0F0F0"/>
<path d="M507.448 242.418H504.609V245.257H507.448V242.418Z" fill="#F0F0F0"/>
<path d="M507.448 247.183H504.609V250.021H507.448V247.183Z" fill="#F0F0F0"/>
<path d="M507.448 251.948H504.609V254.787H507.448V251.948Z" fill="#F0F0F0"/>
<path d="M507.448 256.713H504.609V259.551H507.448V256.713Z" fill="#F0F0F0"/>
<path d="M507.448 261.479H504.609V264.317H507.448V261.479Z" fill="#F0F0F0"/>
<path d="M507.448 266.244H504.609V269.083H507.448V266.244Z" fill="#F0F0F0"/>
<path d="M507.448 271.009H504.609V273.847H507.448V271.009Z" fill="#F0F0F0"/>
<path d="M507.448 280.539H504.609V283.378H507.448V280.539Z" fill="#F0F0F0"/>
<path d="M507.448 285.305H504.609V288.143H507.448V285.305Z" fill="#F0F0F0"/>
<path d="M507.448 290.059H504.609V292.897H507.448V290.059Z" fill="#F0F0F0"/>
<path d="M507.448 294.823H504.609V297.662H507.448V294.823Z" fill="#F0F0F0"/>
<path d="M507.448 299.589H504.609V302.427H507.448V299.589Z" fill="#F0F0F0"/>
<path d="M502.934 194.777H500.096V197.616H502.934V194.777Z" fill="#F0F0F0"/>
<path d="M502.934 199.542H500.096V202.381H502.934V199.542Z" fill="#F0F0F0"/>
<path d="M502.934 204.308H500.096V207.146H502.934V204.308Z" fill="#F0F0F0"/>
<path d="M502.934 209.073H500.096V211.912H502.934V209.073Z" fill="#F0F0F0"/>
<path d="M502.934 213.838H500.096V216.676H502.934V213.838Z" fill="#F0F0F0"/>
<path d="M502.934 218.604H500.096V221.442H502.934V218.604Z" fill="#F0F0F0"/>
<path d="M502.934 223.368H500.096V226.207H502.934V223.368Z" fill="#F0F0F0"/>
<path d="M502.934 228.134H500.096V230.972H502.934V228.134Z" fill="#F0F0F0"/>
<path d="M502.934 232.898H500.096V235.737H502.934V232.898Z" fill="#F0F0F0"/>
<path d="M502.934 237.664H500.096V240.503H502.934V237.664Z" fill="#F0F0F0"/>
<path d="M502.934 242.418H500.096V245.257H502.934V242.418Z" fill="#F0F0F0"/>
<path d="M502.934 247.183H500.096V250.021H502.934V247.183Z" fill="#F0F0F0"/>
<path d="M502.934 251.948H500.096V254.787H502.934V251.948Z" fill="#F0F0F0"/>
<path d="M502.934 256.713H500.096V259.551H502.934V256.713Z" fill="#F0F0F0"/>
<path d="M502.934 261.479H500.096V264.317H502.934V261.479Z" fill="#F0F0F0"/>
<path d="M502.934 266.244H500.096V269.083H502.934V266.244Z" fill="#F0F0F0"/>
<path d="M502.934 294.823H500.096V297.662H502.934V294.823Z" fill="#F0F0F0"/>
<path d="M502.934 299.589H500.096V302.427H502.934V299.589Z" fill="#F0F0F0"/>
<path d="M498.43 194.777H495.592V197.616H498.43V194.777Z" fill="#F0F0F0"/>
<path d="M498.43 199.542H495.592V202.381H498.43V199.542Z" fill="#F0F0F0"/>
<path d="M498.43 204.308H495.592V207.146H498.43V204.308Z" fill="#F0F0F0"/>
<path d="M498.43 209.073H495.592V211.912H498.43V209.073Z" fill="#F0F0F0"/>
<path d="M498.43 213.838H495.592V216.676H498.43V213.838Z" fill="#F0F0F0"/>
<path d="M498.43 218.604H495.592V221.442H498.43V218.604Z" fill="#F0F0F0"/>
<path d="M498.43 223.368H495.592V226.207H498.43V223.368Z" fill="#F0F0F0"/>
<path d="M498.43 228.134H495.592V230.972H498.43V228.134Z" fill="#F0F0F0"/>
<path d="M498.43 232.898H495.592V235.737H498.43V232.898Z" fill="#F0F0F0"/>
<path d="M498.43 237.664H495.592V240.503H498.43V237.664Z" fill="#F0F0F0"/>
<path d="M498.43 242.418H495.592V245.257H498.43V242.418Z" fill="#F0F0F0"/>
<path d="M498.43 247.183H495.592V250.021H498.43V247.183Z" fill="#F0F0F0"/>
<path d="M498.43 251.948H495.592V254.787H498.43V251.948Z" fill="#F0F0F0"/>
<path d="M498.43 256.713H495.592V259.551H498.43V256.713Z" fill="#F0F0F0"/>
<path d="M498.43 261.479H495.592V264.317H498.43V261.479Z" fill="#F0F0F0"/>
<path d="M498.43 266.244H495.592V269.083H498.43V266.244Z" fill="#F0F0F0"/>
<path d="M498.43 275.774H495.592V278.613H498.43V275.774Z" fill="#F0F0F0"/>
<path d="M498.43 280.539H495.592V283.378H498.43V280.539Z" fill="#F0F0F0"/>
<path d="M498.43 285.305H495.592V288.143H498.43V285.305Z" fill="#F0F0F0"/>
<path d="M498.43 290.059H495.592V292.897H498.43V290.059Z" fill="#F0F0F0"/>
<path d="M498.43 299.589H495.592V302.427H498.43V299.589Z" fill="#F0F0F0"/>
<path d="M419.691 228.134H416.853V230.972H419.691V228.134Z" fill="#F0F0F0"/>
<path d="M419.691 232.898H416.853V235.737H419.691V232.898Z" fill="#F0F0F0"/>
<path d="M419.691 237.664H416.853V240.503H419.691V237.664Z" fill="#F0F0F0"/>
<path d="M419.691 242.418H416.853V245.257H419.691V242.418Z" fill="#F0F0F0"/>
<path d="M419.691 247.183H416.853V250.021H419.691V247.183Z" fill="#F0F0F0"/>
<path d="M419.691 251.948H416.853V254.787H419.691V251.948Z" fill="#F0F0F0"/>
<path d="M419.691 256.713H416.853V259.551H419.691V256.713Z" fill="#F0F0F0"/>
<path d="M419.691 261.479H416.853V264.317H419.691V261.479Z" fill="#F0F0F0"/>
<path d="M419.691 266.244H416.853V269.083H419.691V266.244Z" fill="#F0F0F0"/>
<path d="M419.691 271.009H416.853V273.847H419.691V271.009Z" fill="#F0F0F0"/>
<path d="M419.691 275.774H416.853V278.613H419.691V275.774Z" fill="#F0F0F0"/>
<path d="M419.691 280.539H416.853V283.378H419.691V280.539Z" fill="#F0F0F0"/>
<path d="M419.691 285.305H416.853V288.143H419.691V285.305Z" fill="#F0F0F0"/>
<path d="M419.691 294.823H416.853V297.662H419.691V294.823Z" fill="#F0F0F0"/>
<path d="M419.691 299.589H416.853V302.427H419.691V299.589Z" fill="#F0F0F0"/>
<path d="M419.691 304.354H416.853V307.192H419.691V304.354Z" fill="#F0F0F0"/>
<path d="M419.691 309.119H416.853V311.958H419.691V309.119Z" fill="#F0F0F0"/>
<path d="M419.691 318.649H416.853V321.488H419.691V318.649Z" fill="#F0F0F0"/>
<path d="M419.691 323.415H416.853V326.254H419.691V323.415Z" fill="#F0F0F0"/>
<path d="M419.691 328.18H416.853V331.018H419.691V328.18Z" fill="#F0F0F0"/>
<path d="M415.176 228.134H412.338V230.972H415.176V228.134Z" fill="#F0F0F0"/>
<path d="M415.176 232.898H412.338V235.737H415.176V232.898Z" fill="#F0F0F0"/>
<path d="M415.176 237.664H412.338V240.503H415.176V237.664Z" fill="#F0F0F0"/>
<path d="M415.176 242.418H412.338V245.257H415.176V242.418Z" fill="#F0F0F0"/>
<path d="M415.176 247.183H412.338V250.021H415.176V247.183Z" fill="#F0F0F0"/>
<path d="M415.176 251.948H412.338V254.787H415.176V251.948Z" fill="#F0F0F0"/>
<path d="M415.176 256.713H412.338V259.551H415.176V256.713Z" fill="#F0F0F0"/>
<path d="M415.176 261.479H412.338V264.317H415.176V261.479Z" fill="#F0F0F0"/>
<path d="M415.176 266.244H412.338V269.083H415.176V266.244Z" fill="#F0F0F0"/>
<path d="M415.176 271.009H412.338V273.847H415.176V271.009Z" fill="#F0F0F0"/>
<path d="M415.176 275.774H412.338V278.613H415.176V275.774Z" fill="#F0F0F0"/>
<path d="M415.176 280.539H412.338V283.378H415.176V280.539Z" fill="#F0F0F0"/>
<path d="M415.176 285.305H412.338V288.143H415.176V285.305Z" fill="#F0F0F0"/>
<path d="M415.176 299.589H412.338V302.427H415.176V299.589Z" fill="#F0F0F0"/>
<path d="M415.176 304.354H412.338V307.192H415.176V304.354Z" fill="#F0F0F0"/>
<path d="M415.176 313.885H412.338V316.723H415.176V313.885Z" fill="#F0F0F0"/>
<path d="M415.176 318.649H412.338V321.488H415.176V318.649Z" fill="#F0F0F0"/>
<path d="M415.176 323.415H412.338V326.254H415.176V323.415Z" fill="#F0F0F0"/>
<path d="M415.176 328.18H412.338V331.018H415.176V328.18Z" fill="#F0F0F0"/>
<path d="M410.663 228.134H407.824V230.972H410.663V228.134Z" fill="#F0F0F0"/>
<path d="M410.663 232.898H407.824V235.737H410.663V232.898Z" fill="#F0F0F0"/>
<path d="M410.663 237.664H407.824V240.503H410.663V237.664Z" fill="#F0F0F0"/>
<path d="M410.663 242.418H407.824V245.257H410.663V242.418Z" fill="#F0F0F0"/>
<path d="M410.663 247.183H407.824V250.021H410.663V247.183Z" fill="#F0F0F0"/>
<path d="M410.663 251.948H407.824V254.787H410.663V251.948Z" fill="#F0F0F0"/>
<path d="M410.663 256.713H407.824V259.551H410.663V256.713Z" fill="#F0F0F0"/>
<path d="M410.663 261.479H407.824V264.317H410.663V261.479Z" fill="#F0F0F0"/>
<path d="M410.663 266.244H407.824V269.083H410.663V266.244Z" fill="#F0F0F0"/>
<path d="M410.663 271.009H407.824V273.847H410.663V271.009Z" fill="#F0F0F0"/>
<path d="M410.663 275.774H407.824V278.613H410.663V275.774Z" fill="#F0F0F0"/>
<path d="M410.663 280.539H407.824V283.378H410.663V280.539Z" fill="#F0F0F0"/>
<path d="M410.663 285.305H407.824V288.143H410.663V285.305Z" fill="#F0F0F0"/>
<path d="M410.663 290.059H407.824V292.897H410.663V290.059Z" fill="#F0F0F0"/>
<path d="M410.663 299.589H407.824V302.427H410.663V299.589Z" fill="#F0F0F0"/>
<path d="M410.663 309.119H407.824V311.958H410.663V309.119Z" fill="#F0F0F0"/>
<path d="M410.663 313.885H407.824V316.723H410.663V313.885Z" fill="#F0F0F0"/>
<path d="M410.663 318.649H407.824V321.488H410.663V318.649Z" fill="#F0F0F0"/>
<path d="M410.663 323.415H407.824V326.254H410.663V323.415Z" fill="#F0F0F0"/>
<path d="M410.663 328.18H407.824V331.018H410.663V328.18Z" fill="#F0F0F0"/>
<path d="M438.079 255.3H435.24V258.138H438.079V255.3Z" fill="#F0F0F0"/>
<path d="M438.079 260.054H435.24V262.892H438.079V260.054Z" fill="#F0F0F0"/>
<path d="M438.079 264.818H435.24V267.657H438.079V264.818Z" fill="#F0F0F0"/>
<path d="M438.079 269.584H435.24V272.423H438.079V269.584Z" fill="#F0F0F0"/>
<path d="M438.079 274.349H435.24V277.187H438.079V274.349Z" fill="#F0F0F0"/>
<path d="M438.079 279.114H435.24V281.953H438.079V279.114Z" fill="#F0F0F0"/>
<path d="M438.079 293.41H435.24V296.249H438.079V293.41Z" fill="#F0F0F0"/>
<path d="M438.079 298.175H435.24V301.013H438.079V298.175Z" fill="#F0F0F0"/>
<path d="M438.079 302.929H435.24V305.767H438.079V302.929Z" fill="#F0F0F0"/>
<path d="M438.079 307.694H435.24V310.533H438.079V307.694Z" fill="#F0F0F0"/>
<path d="M438.079 312.459H435.24V315.298H438.079V312.459Z" fill="#F0F0F0"/>
<path d="M438.079 317.225H435.24V320.063H438.079V317.225Z" fill="#F0F0F0"/>
<path d="M438.079 321.989H435.24V324.828H438.079V321.989Z" fill="#F0F0F0"/>
<path d="M433.565 255.3H430.727V258.138H433.565V255.3Z" fill="#F0F0F0"/>
<path d="M433.565 260.054H430.727V262.892H433.565V260.054Z" fill="#F0F0F0"/>
<path d="M433.565 264.818H430.727V267.657H433.565V264.818Z" fill="#F0F0F0"/>
<path d="M433.565 269.584H430.727V272.423H433.565V269.584Z" fill="#F0F0F0"/>
<path d="M433.565 274.349H430.727V277.187H433.565V274.349Z" fill="#F0F0F0"/>
<path d="M433.565 279.114H430.727V281.953H433.565V279.114Z" fill="#F0F0F0"/>
<path d="M433.565 293.41H430.727V296.249H433.565V293.41Z" fill="#F0F0F0"/>
<path d="M433.565 298.175H430.727V301.013H433.565V298.175Z" fill="#F0F0F0"/>
<path d="M433.565 302.929H430.727V305.767H433.565V302.929Z" fill="#F0F0F0"/>
<path d="M433.565 307.694H430.727V310.533H433.565V307.694Z" fill="#F0F0F0"/>
<path d="M433.565 312.459H430.727V315.298H433.565V312.459Z" fill="#F0F0F0"/>
<path d="M433.565 317.225H430.727V320.063H433.565V317.225Z" fill="#F0F0F0"/>
<path d="M433.565 326.755H430.727V329.593H433.565V326.755Z" fill="#F0F0F0"/>
<path d="M283.621 234.312H280.782V237.151H283.621V234.312Z" fill="#F0F0F0"/>
<path d="M283.621 239.077H280.782V241.916H283.621V239.077Z" fill="#F0F0F0"/>
<path d="M283.621 243.843H280.782V246.681H283.621V243.843Z" fill="#F0F0F0"/>
<path d="M283.621 248.608H280.782V251.447H283.621V248.608Z" fill="#F0F0F0"/>
<path d="M283.621 253.373H280.782V256.212H283.621V253.373Z" fill="#F0F0F0"/>
<path d="M283.621 258.139H280.782V260.977H283.621V258.139Z" fill="#F0F0F0"/>
<path d="M283.621 262.903H280.782V265.742H283.621V262.903Z" fill="#F0F0F0"/>
<path d="M283.621 267.669H280.782V270.508H283.621V267.669Z" fill="#F0F0F0"/>
<path d="M283.621 272.423H280.782V275.261H283.621V272.423Z" fill="#F0F0F0"/>
<path d="M283.621 277.188H280.782V280.026H283.621V277.188Z" fill="#F0F0F0"/>
<path d="M283.621 281.953H280.782V284.792H283.621V281.953Z" fill="#F0F0F0"/>
<path d="M283.621 291.483H280.782V294.322H283.621V291.483Z" fill="#F0F0F0"/>
<path d="M283.621 296.249H280.782V299.088H283.621V296.249Z" fill="#F0F0F0"/>
<path d="M283.621 301.014H280.782V303.852H283.621V301.014Z" fill="#F0F0F0"/>
<path d="M283.621 305.779H280.782V308.618H283.621V305.779Z" fill="#F0F0F0"/>
<path d="M283.621 310.544H280.782V313.383H283.621V310.544Z" fill="#F0F0F0"/>
<path d="M283.621 315.31H280.782V318.148H283.621V315.31Z" fill="#F0F0F0"/>
<path d="M283.621 320.063H280.782V322.902H283.621V320.063Z" fill="#F0F0F0"/>
<path d="M283.621 324.828H280.782V327.667H283.621V324.828Z" fill="#F0F0F0"/>
<path d="M279.118 234.312H276.279V237.151H279.118V234.312Z" fill="#F0F0F0"/>
<path d="M279.118 239.077H276.279V241.916H279.118V239.077Z" fill="#F0F0F0"/>
<path d="M279.118 243.843H276.279V246.681H279.118V243.843Z" fill="#F0F0F0"/>
<path d="M279.118 248.608H276.279V251.447H279.118V248.608Z" fill="#F0F0F0"/>
<path d="M279.118 253.373H276.279V256.212H279.118V253.373Z" fill="#F0F0F0"/>
<path d="M279.118 258.139H276.279V260.977H279.118V258.139Z" fill="#F0F0F0"/>
<path d="M279.118 262.903H276.279V265.742H279.118V262.903Z" fill="#F0F0F0"/>
<path d="M279.118 267.669H276.279V270.508H279.118V267.669Z" fill="#F0F0F0"/>
<path d="M279.118 272.423H276.279V275.261H279.118V272.423Z" fill="#F0F0F0"/>
<path d="M279.118 277.188H276.279V280.026H279.118V277.188Z" fill="#F0F0F0"/>
<path d="M279.118 281.953H276.279V284.792H279.118V281.953Z" fill="#F0F0F0"/>
<path d="M279.118 286.718H276.279V289.556H279.118V286.718Z" fill="#F0F0F0"/>
<path d="M279.118 291.483H276.279V294.322H279.118V291.483Z" fill="#F0F0F0"/>
<path d="M279.118 296.249H276.279V299.088H279.118V296.249Z" fill="#F0F0F0"/>
<path d="M279.118 301.014H276.279V303.852H279.118V301.014Z" fill="#F0F0F0"/>
<path d="M279.118 305.779H276.279V308.618H279.118V305.779Z" fill="#F0F0F0"/>
<path d="M279.118 310.544H276.279V313.383H279.118V310.544Z" fill="#F0F0F0"/>
<path d="M279.118 315.31H276.279V318.148H279.118V315.31Z" fill="#F0F0F0"/>
<path d="M279.118 320.063H276.279V322.902H279.118V320.063Z" fill="#F0F0F0"/>
<path d="M279.118 324.828H276.279V327.667H279.118V324.828Z" fill="#F0F0F0"/>
<path d="M305.862 252.872H303.023V255.711H305.862V252.872Z" fill="#F0F0F0"/>
<path d="M305.862 257.637H303.023V260.475H305.862V257.637Z" fill="#F0F0F0"/>
<path d="M305.862 262.402H303.023V265.241H305.862V262.402Z" fill="#F0F0F0"/>
<path d="M305.862 267.167H303.023V270.006H305.862V267.167Z" fill="#F0F0F0"/>
<path d="M305.862 271.921H303.023V274.759H305.862V271.921Z" fill="#F0F0F0"/>
<path d="M305.862 276.687H303.023V279.525H305.862V276.687Z" fill="#F0F0F0"/>
<path d="M305.862 281.451H303.023V284.29H305.862V281.451Z" fill="#F0F0F0"/>
<path d="M305.862 286.217H303.023V289.055H305.862V286.217Z" fill="#F0F0F0"/>
<path d="M305.862 290.981H303.023V293.82H305.862V290.981Z" fill="#F0F0F0"/>
<path d="M305.862 295.747H303.023V298.586H305.862V295.747Z" fill="#F0F0F0"/>
<path d="M301.347 252.872H298.509V255.711H301.347V252.872Z" fill="#F0F0F0"/>
<path d="M301.347 257.637H298.509V260.475H301.347V257.637Z" fill="#F0F0F0"/>
<path d="M301.347 262.402H298.509V265.241H301.347V262.402Z" fill="#F0F0F0"/>
<path d="M301.347 267.167H298.509V270.006H301.347V267.167Z" fill="#F0F0F0"/>
<path d="M301.347 271.921H298.509V274.759H301.347V271.921Z" fill="#F0F0F0"/>
<path d="M301.347 276.687H298.509V279.525H301.347V276.687Z" fill="#F0F0F0"/>
<path d="M301.347 281.451H298.509V284.29H301.347V281.451Z" fill="#F0F0F0"/>
<path d="M301.347 286.217H298.509V289.055H301.347V286.217Z" fill="#F0F0F0"/>
<path d="M301.347 290.981H298.509V293.82H301.347V290.981Z" fill="#F0F0F0"/>
<path d="M328.195 72.0791H323.43V337.79H328.195V72.0791Z" fill="#E0E0E0"/>
<path d="M417.924 72.0791H413.159V337.79H417.924V72.0791Z" fill="#E0E0E0"/>
<path d="M507.642 72.0791H502.877V337.79H507.642V72.0791Z" fill="#E0E0E0"/>
<path d="M168.515 311.936H197.904C199.236 311.939 200.511 312.47 201.452 313.412C202.392 314.355 202.92 315.632 202.92 316.963V373.769H163.499V316.963C163.499 315.632 164.027 314.355 164.967 313.412C165.908 312.47 167.184 311.939 168.515 311.936Z" fill="#F0F0F0"/>
<path d="M202.932 320.291H163.499V324.726H202.932V320.291Z" fill="#E6E6E6"/>
<path d="M185.922 366.279H195.749C196.466 366.279 197.153 366.563 197.659 367.07C198.166 367.577 198.451 368.264 198.451 368.981V373.769H183.209V368.981C183.209 368.625 183.279 368.273 183.416 367.944C183.552 367.616 183.752 367.317 184.004 367.066C184.256 366.815 184.556 366.616 184.885 366.481C185.214 366.346 185.566 366.277 185.922 366.279Z" fill="#E0E0E0"/>
<path d="M198.497 373.769H187.576C187.345 373.769 187.117 373.723 186.904 373.635C186.691 373.547 186.498 373.417 186.335 373.254C186.171 373.091 186.042 372.898 185.954 372.685C185.866 372.472 185.82 372.243 185.82 372.013C185.82 371.547 186.005 371.101 186.335 370.772C186.664 370.442 187.11 370.257 187.576 370.257H198.497C198.963 370.257 199.409 370.442 199.739 370.772C200.068 371.101 200.253 371.547 200.253 372.013C200.253 372.243 200.207 372.472 200.119 372.685C200.031 372.898 199.902 373.091 199.739 373.254C199.575 373.417 199.382 373.547 199.169 373.635C198.956 373.723 198.728 373.769 198.497 373.769Z" fill="#E6E6E6"/>
<path d="M373.588 59.6009C388.019 56.195 396.956 41.7355 393.55 27.3048C390.144 12.8741 375.685 3.93679 361.254 7.34274C346.823 10.7487 337.886 25.2082 341.292 39.6389C344.698 54.0695 359.157 63.0069 373.588 59.6009Z" fill="#E0E0E0"/>
<path d="M371.083 55.9803C383.531 53.9597 391.984 42.2305 389.964 29.7825C387.943 17.3344 376.214 8.88132 363.766 10.9019C351.318 12.9225 342.865 24.6517 344.885 37.0997C346.906 49.5478 358.635 58.0009 371.083 55.9803Z" fill="#F0F0F0"/>
<path d="M368.505 17.792V33.752L379.073 27.767" fill="#F0F0F0"/>
<path d="M368.505 17.792V33.752L379.073 27.767" stroke="#E0E0E0" stroke-width="2" stroke-linecap="round" stroke-linejoin="round"/>
<path d="M110.5 295.519C108.448 292.099 105.073 295.074 105.073 295.074C105.552 288.599 99.6015 284.176 99.6015 284.176C99.6015 284.176 106.521 284.176 107.479 277.564C108.436 270.952 105.073 274.03 101.904 273.984C98.7351 273.939 95.4177 283.207 99.6243 288.417C103.831 293.626 102.679 302.518 93.0237 311.068C90.7146 313.229 88.9825 315.933 87.9849 318.934C88.7145 311.08 89.1249 300.01 86.8449 292.623C82.9233 280.083 90.4017 276.663 92.5449 270.416C94.6881 264.169 86.8449 258.834 86.8449 258.834C86.8449 258.834 94.2663 255.414 90.6411 251.583C87.0159 247.753 79.5375 248.254 79.5375 253.293C79.5375 258.332 84.6105 260.281 84.6105 260.281C84.6105 260.281 90.4017 266.312 90.4017 269.401C90.4017 272.491 84.6105 279.297 84.6105 279.297C84.6105 279.297 87.2667 273.517 81.9543 273.266C76.6419 273.015 74.9547 280.026 77.1321 283.161C79.3095 286.296 82.9233 283.64 82.9233 283.64C83.1493 287.303 83.7025 290.939 84.5763 294.504C85.1235 296.305 84.8727 303.385 84.4167 310.761C83.3868 308.119 81.7553 305.753 79.6515 303.852C69.9957 295.302 68.8785 286.41 73.0623 281.2C77.2461 275.991 73.9287 266.722 70.7823 266.768C67.6359 266.814 64.2273 263.747 65.1963 270.348C66.1653 276.948 73.0851 276.948 73.0851 276.948C73.0851 276.948 67.1229 281.383 67.6017 287.858C67.6017 287.858 64.1817 284.917 62.1753 288.303C58.5159 294.333 67.0089 298.072 68.4339 295.143C68.4339 295.143 86.4345 307.888 82.1139 326.23L83.1171 327.712C82.9917 329.194 82.9119 330.095 82.9119 330.095L84.3141 329.479L85.9215 331.851C85.8644 334.517 86.0016 337.184 86.3319 339.831L90.6297 333.481C86.2863 315.138 104.31 302.393 104.31 302.393C105.678 305.289 114.159 301.572 110.5 295.519Z" fill="#E0E0E0"/>
<path opacity="0.2" d="M110.5 295.519C108.448 292.099 105.073 295.074 105.073 295.074C105.552 288.599 99.6015 284.176 99.6015 284.176C99.6015 284.176 106.521 284.176 107.479 277.564C108.436 270.952 105.073 274.03 101.904 273.984C98.7351 273.939 95.4177 283.207 99.6243 288.417C103.831 293.626 102.679 302.518 93.0237 311.068C90.7146 313.229 88.9825 315.933 87.9849 318.934C88.7145 311.08 89.1249 300.01 86.8449 292.623C82.9233 280.083 90.4017 276.663 92.5449 270.416C94.6881 264.169 86.8449 258.834 86.8449 258.834C86.8449 258.834 94.2663 255.414 90.6411 251.583C87.0159 247.753 79.5375 248.254 79.5375 253.293C79.5375 258.332 84.6105 260.281 84.6105 260.281C84.6105 260.281 90.4017 266.312 90.4017 269.401C90.4017 272.491 84.6105 279.297 84.6105 279.297C84.6105 279.297 87.2667 273.517 81.9543 273.266C76.6419 273.015 74.9547 280.026 77.1321 283.161C79.3095 286.296 82.9233 283.64 82.9233 283.64C83.1493 287.303 83.7025 290.939 84.5763 294.504C85.1235 296.305 84.8727 303.385 84.4167 310.761C83.3868 308.119 81.7553 305.753 79.6515 303.852C69.9957 295.302 68.8785 286.41 73.0623 281.2C77.2461 275.991 73.9287 266.722 70.7823 266.768C67.6359 266.814 64.2273 263.747 65.1963 270.348C66.1653 276.948 73.0851 276.948 73.0851 276.948C73.0851 276.948 67.1229 281.383 67.6017 287.858C67.6017 287.858 64.1817 284.917 62.1753 288.303C58.5159 294.333 67.0089 298.072 68.4339 295.143C68.4339 295.143 86.4345 307.888 82.1139 326.23L83.1171 327.712C82.9917 329.194 82.9119 330.095 82.9119 330.095L84.3141 329.479L85.9215 331.851C85.8644 334.517 86.0016 337.184 86.3319 339.831L90.6297 333.481C86.2863 315.138 104.31 302.393 104.31 302.393C105.678 305.289 114.159 301.572 110.5 295.519Z" fill="#E0E0E0"/>
<path d="M106.978 373.769H65.7438L61.2979 328.613H111.435L106.978 373.769Z" fill="#E6E6E6"/>
<path d="M113.624 323.632H59.0859V333.595H113.624V323.632Z" fill="#F0F0F0"/>
<path d="M284.999 425.388C407.073 425.388 506.034 419.61 506.034 412.483C506.034 405.356 407.073 399.578 284.999 399.578C162.925 399.578 63.9648 405.356 63.9648 412.483C63.9648 419.61 162.925 425.388 284.999 425.388Z" fill="#F5F5F5"/>
<path d="M467.914 376.538C468.085 375.398 472.075 347.844 464.083 338.348C463.288 337.346 462.28 336.533 461.133 335.967C459.986 335.402 458.727 335.097 457.448 335.076C441.306 334.7 439.106 347.616 439.083 347.787L440.987 348.084C441.055 347.616 442.97 336.684 457.403 337.003C458.409 337.015 459.399 337.252 460.301 337.698C461.203 338.144 461.993 338.787 462.613 339.579C470.045 348.426 466.033 375.98 466.033 376.265L467.914 376.538Z" fill="#01A796"/>
<path d="M468.882 375.284L470.808 375.227C470.808 374.976 470.17 349.862 482.539 344.675C494.669 339.591 500.129 350.045 500.346 350.489L502.067 349.623C502.01 349.497 495.603 337.083 481.798 342.897C468.209 348.597 468.848 374.201 468.882 375.284Z" fill="#01A796"/>
<path d="M468.825 377.257C468.825 376.858 468.951 337.14 476.691 325.523C484.124 314.374 496.071 319.63 496.63 319.823L497.417 318.068C497.28 318.011 483.44 311.9 475.084 324.429C467.024 336.524 466.91 375.569 466.91 377.222L468.825 377.257Z" fill="#01A796"/>
<path d="M455.134 336.034C455.134 336.034 462.179 338.622 460.081 344.755C457.984 350.888 435.719 360.977 435.719 360.977C435.719 360.977 426.383 352.427 434.956 338.519C443.529 324.611 454.94 331.645 455.134 336.034Z" fill="#407BFF"/>
<path d="M477.033 323.437C477.033 323.437 472.04 322.901 472.473 319.858C472.906 316.814 491.921 308.971 503.15 321.647C503.15 321.647 495.957 334.005 485.56 334.187C475.163 334.37 477.033 323.437 477.033 323.437Z" fill="#407BFF"/>
<path d="M482.22 343.752C482.22 343.752 478.8 340.97 482.494 339.602C486.187 338.234 504.496 338.633 504.678 356.702C504.678 356.702 483.394 360.236 480.738 353.339C478.082 346.442 482.22 343.752 482.22 343.752Z" fill="#407BFF"/>
<path opacity="0.2" d="M455.134 336.034C455.134 336.034 462.179 338.622 460.081 344.755C457.984 350.888 435.719 360.977 435.719 360.977C435.719 360.977 426.383 352.427 434.956 338.519C443.529 324.611 454.94 331.645 455.134 336.034Z" fill="#01A796"/>
<path opacity="0.2" d="M477.033 323.437C477.033 323.437 472.04 322.901 472.473 319.858C472.906 316.814 491.921 308.971 503.15 321.647C503.15 321.647 495.957 334.005 485.56 334.187C475.163 334.37 477.033 323.437 477.033 323.437Z" fill="#01A796"/>
<path opacity="0.2" d="M482.22 343.752C482.22 343.752 478.8 340.97 482.494 339.602C486.187 338.234 504.496 338.633 504.678 356.702C504.678 356.702 483.394 360.236 480.738 353.339C478.082 346.442 482.22 343.752 482.22 343.752Z" fill="#01A796"/>
<path d="M451.349 413.429H484.386L487.943 377.256H447.792L451.349 413.429Z" fill="#407BFF"/>
<path opacity="0.5" d="M451.349 413.429H484.386L487.943 377.256H447.792L451.349 413.429Z" fill="white"/>
<path d="M446.025 381.258H489.71V373.278H446.025V381.258Z" fill="#407BFF"/>
<g opacity="0.2">
<path d="M446.025 381.258H489.71V373.278H446.025V381.258Z" fill="#EB7B7B"/>
<path d="M446.025 381.258H489.71V373.278H446.025V381.258Z" fill="#EB7B7B"/>
</g>
<path d="M413.958 387.506L381.114 384.28V338.11H368.095V384.257L335.161 387.506C333.564 387.649 332.08 388.388 331.003 389.574C329.926 390.761 329.335 392.31 329.347 393.913V398.849H419.726V393.913C419.742 392.317 419.158 390.772 418.09 389.586C417.021 388.4 415.547 387.657 413.958 387.506Z" fill="#263238"/>
<path opacity="0.2" d="M413.958 387.506L381.114 384.28V338.11H368.095V384.257L335.161 387.506C333.564 387.649 332.08 388.388 331.003 389.574C329.926 390.761 329.335 392.31 329.347 393.913V398.849H419.726V393.913C419.742 392.317 419.158 390.772 418.09 389.586C417.021 388.4 415.547 387.657 413.958 387.506Z" fill="white"/>
<path d="M332.823 413.43C337.527 413.43 341.339 409.617 341.339 404.914C341.339 400.211 337.527 396.398 332.823 396.398C328.12 396.398 324.308 400.211 324.308 404.914C324.308 409.617 328.12 413.43 332.823 413.43Z" fill="#263238"/>
<path d="M416.26 413.43C420.963 413.43 424.776 409.617 424.776 404.914C424.776 400.211 420.963 396.398 416.26 396.398C411.557 396.398 407.744 400.211 407.744 404.914C407.744 409.617 411.557 413.43 416.26 413.43Z" fill="#263238"/>
<path d="M365.861 306.919H383.36V343.319C383.36 344.568 382.864 345.765 381.981 346.648C381.098 347.531 379.901 348.027 378.652 348.027H370.57C369.321 348.027 368.123 347.531 367.24 346.648C366.357 345.765 365.861 344.568 365.861 343.319V306.919Z" fill="#263238"/>
<path opacity="0.3" d="M365.861 306.919H383.36V343.319C383.36 344.568 382.864 345.765 381.981 346.648C381.098 347.531 379.901 348.027 378.652 348.027H370.57C369.321 348.027 368.123 347.531 367.24 346.648C366.357 345.765 365.861 344.568 365.861 343.319V306.919Z" fill="white"/>
<path d="M405.727 234.769C405.727 234.769 408.212 296.329 391.066 306.919H410.64C410.64 306.919 425.802 285.955 421.516 234.769H405.727Z" fill="#263238"/>
<path opacity="0.3" d="M405.727 234.769C405.727 234.769 408.212 296.329 391.066 306.919H410.64C410.64 306.919 425.802 285.955 421.516 234.769H405.727Z" fill="white"/>
<path d="M417.297 311.639H329.608V304.012C329.608 302.5 330.209 301.051 331.278 299.982C332.347 298.913 333.796 298.312 335.308 298.312H411.597C413.109 298.312 414.558 298.913 415.627 299.982C416.696 301.051 417.297 302.5 417.297 304.012V311.639Z" fill="#EB7B7B"/>
<path d="M417.297 311.639H329.608V304.012C329.608 302.5 330.209 301.051 331.278 299.982C332.347 298.913 333.796 298.312 335.308 298.312H411.597C413.109 298.312 414.558 298.913 415.627 299.982C416.696 301.051 417.297 302.5 417.297 304.012V311.639Z" fill="#EB7B7B"/>
<path d="M328.241 311.639H418.654C419.919 311.639 420.945 310.613 420.945 309.347V307.272C420.945 306.007 419.919 304.981 418.654 304.981H328.241C326.975 304.981 325.949 306.007 325.949 307.272V309.347C325.949 310.613 326.975 311.639 328.241 311.639Z" fill="#263238"/>
<path opacity="0.6" d="M328.241 311.639H418.654C419.919 311.639 420.945 310.613 420.945 309.347V307.272C420.945 306.007 419.919 304.981 418.654 304.981H328.241C326.975 304.981 325.949 306.007 325.949 307.272V309.347C325.949 310.613 326.975 311.639 328.241 311.639Z" fill="white"/>
<path d="M426.315 201.766H394.965C385.785 201.766 378.344 209.207 378.344 218.387V230.653C378.344 239.833 385.785 247.274 394.965 247.274H426.315C435.495 247.274 442.936 239.833 442.936 230.653V218.387C442.936 209.207 435.495 201.766 426.315 201.766Z" fill="#EB7B7B"/>
<path d="M426.315 201.766H394.965C385.785 201.766 378.344 209.207 378.344 218.387V230.653C378.344 239.833 385.785 247.274 394.965 247.274H426.315C435.495 247.274 442.936 239.833 442.936 230.653V218.387C442.936 209.207 435.495 201.766 426.315 201.766Z" fill="#EB7B7B"/>
<path d="M299.877 151.469L293.618 134.973C293.618 134.973 296.308 132.488 294.462 129.968C292.615 127.449 281.078 120.358 278.98 121.612C276.883 122.866 272.197 127.552 274.728 130.151C277.259 132.75 288.408 137.116 288.408 137.116L293.949 158.776L299.877 151.469Z" fill="#E4897B"/>
<path d="M343.573 182.831C343.573 182.831 315.073 176.983 312.029 175.58C308.985 174.178 297.539 140.628 297.539 140.628L288.75 144.732C288.75 144.732 295.761 178.453 302.989 186.433C310.216 194.413 341.065 201.253 341.065 201.253L343.573 182.831Z" fill="#407BFF"/>
<path opacity="0.2" d="M341.053 201.184L340.528 201.07C338.978 200.717 334.11 199.566 328.33 197.878C318.948 195.154 307.115 191.038 302.988 186.478C295.772 178.498 288.692 144.777 288.692 144.777L297.47 140.685C297.47 140.685 308.927 174.246 312.028 175.637C315.129 177.028 343.572 182.887 343.572 182.887L341.053 201.184Z" fill="#3C2A72"/>
<path d="M297.619 139.966L299.432 143.466L288.146 147.353L288.579 143.078L297.619 139.966Z" fill="#503895"/>
<path opacity="0.2" d="M341.27 200.729C339.697 200.501 334.761 199.737 328.855 198.449C332.218 192.646 342.068 189.659 342.068 189.659L341.27 200.729Z" fill="black"/>
<path d="M383.7 159.597C383.7 159.597 385.376 175.363 379.539 179.239C373.702 183.115 344.963 178.566 341.703 172.228C338.442 165.889 350.709 148.664 350.709 148.664L383.7 159.597Z" fill="#263238"/>
<path d="M267.432 367.054L274.933 368.867L278.729 358.515L282.172 349.099L273.633 345.462L270.35 356.885L267.432 367.054Z" fill="#E4897B"/>
<path opacity="0.2" d="M270.351 356.885L278.73 358.515L282.172 349.099L273.634 345.462L270.351 356.885Z" fill="black"/>
<path d="M271.103 351.425L281.499 355.289C281.499 355.289 309.236 285.943 314.936 285.749C320.636 285.555 378.673 312.186 393.219 297.388C407.766 282.591 386.733 246.955 386.733 246.955C386.733 246.955 351.746 241.962 349.113 249.862C348.465 252.191 347.97 254.559 347.631 256.953C347.232 259.37 346.958 261.399 346.958 261.399C345.875 261.125 310.752 252.062 296.912 261.399C282.833 270.861 271.103 351.425 271.103 351.425Z" fill="#407BFF"/>
<path opacity="0.6" d="M271.103 351.425L281.499 355.289C281.499 355.289 309.236 285.943 314.936 285.749C320.636 285.555 378.673 312.186 393.219 297.388C407.766 282.591 386.733 246.955 386.733 246.955C386.733 246.955 351.746 241.962 349.113 249.862C348.465 252.191 347.97 254.559 347.631 256.953C347.232 259.37 346.958 261.399 346.958 261.399C345.875 261.125 310.752 252.062 296.912 261.399C282.833 270.861 271.103 351.425 271.103 351.425Z" fill="white"/>
<path d="M330.907 396.637L338.374 394.722L336.938 384.006L335.604 374.179L326.37 375.011L328.764 386.457L330.907 396.637Z" fill="#E4897B"/>
<path opacity="0.2" d="M328.82 386.696L336.983 384.211L335.626 374.282L326.381 375.057L328.82 386.696Z" fill="black"/>
<path d="M285.797 351.436L270.647 346.295L269.997 352.497L281.488 356.555L285.797 351.436Z" fill="#382768"/>
<path d="M368.094 300.9C368.094 300.9 365.722 300.9 329.026 299.247C329.026 299.247 334.509 345.12 337.507 379.469L326.529 381.372C326.529 381.372 300.309 307.831 300.594 296.146C300.879 284.461 314.274 281.041 314.274 281.041C314.274 281.041 340.414 296.112 368.094 300.9Z" fill="#407BFF"/>
<path opacity="0.6" d="M368.094 300.9C368.094 300.9 365.722 300.9 329.026 299.247C329.026 299.247 334.509 345.12 337.507 379.469L326.529 381.372C326.529 381.372 300.309 307.831 300.594 296.146C300.879 284.461 314.274 281.041 314.274 281.041C314.274 281.041 340.414 296.112 368.094 300.9Z" fill="white"/>
<path opacity="0.1" d="M368.094 300.9C368.094 300.9 365.722 300.9 329.026 299.247C329.026 299.247 334.509 345.12 337.507 379.469L326.529 381.372C326.529 381.372 300.309 307.831 300.594 296.146C300.879 284.461 314.274 281.041 314.274 281.041C314.274 281.041 340.414 296.112 368.094 300.9Z" fill="black"/>
<path d="M339.104 376.14L324.021 377.85L326.94 383.767L339.149 382.205L339.104 376.14Z" fill="#382768"/>
<path opacity="0.1" d="M346.959 261.353L367.422 265.617C367.422 265.617 356.113 259.37 347.632 256.907C347.233 259.324 346.959 261.353 346.959 261.353Z" fill="black"/>
<path d="M385.889 241.46L386.733 246.909L349.113 249.805L348.121 243.375L385.889 241.46Z" fill="#263238"/>
<path opacity="0.2" d="M385.889 241.46L386.733 246.909L349.113 249.805L348.121 243.375L385.889 241.46Z" fill="black"/>
<path d="M374.025 250.585L375.885 250.394L374.911 240.924L373.051 241.116L374.025 250.585Z" fill="#407BFF"/>
<path d="M357.319 249.633L365.556 249.104L365.154 242.858L356.917 243.388L357.319 249.633Z" fill="white"/>
<path d="M350.942 251.568L352.802 251.377L351.828 241.908L349.968 242.099L350.942 251.568Z" fill="#407BFF"/>
<path opacity="0.6" d="M374.025 250.585L375.885 250.394L374.911 240.924L373.051 241.116L374.025 250.585Z" fill="white"/>
<path opacity="0.6" d="M350.942 251.568L352.802 251.377L351.828 241.908L349.968 242.099L350.942 251.568Z" fill="white"/>
<path d="M342.889 182.306C349.934 184.259 357.247 185.067 364.549 184.7C376.61 184.084 391.042 189.944 391.042 189.944L385.867 241.46L348.11 243.432C348.11 243.432 335.422 200.352 342.889 182.306Z" fill="#382768"/>
<path d="M348.965 153.214C348.965 153.214 351.085 128.134 371.993 137.254C398.213 148.654 377.374 179.137 364.549 172.879C351.724 166.62 348.965 153.214 348.965 153.214Z" fill="#263238"/>
<path opacity="0.2" d="M354.824 186.102L355.428 200.238L360.114 193.58C360.114 193.58 358.438 209.221 359.418 217.737C359.418 217.737 360.319 202.472 362.439 193.58L367.421 200.238L374.569 186.182C374.569 186.182 362.998 182.032 354.824 186.102Z" fill="black"/>
<path d="M361.3 188.713L372.118 185.658C365.449 181.098 368.812 170.838 368.812 170.838L358.096 174.6C358.59 176.089 358.971 177.613 359.236 179.16C360.376 185.84 357.344 186.376 357.344 186.376L361.3 188.713Z" fill="#E4897B"/>
<path opacity="0.2" d="M358.097 174.599C358.591 176.088 358.972 177.613 359.237 179.159C364.367 177.096 368.801 170.814 368.801 170.814L358.097 174.599Z" fill="black"/>
<path d="M365.096 142.542C355.599 140.433 351.416 144.822 348.566 154.467C344.997 166.494 345.784 175.773 358.221 175.785C375.116 175.807 380.85 146.031 365.096 142.542Z" fill="#E4897B"/>
<path d="M354.813 155.299C353.741 156.545 352.524 157.659 351.188 158.616C351.379 159.073 351.693 159.467 352.096 159.755C352.499 160.043 352.974 160.213 353.467 160.246L354.813 155.299Z" fill="#DE5753"/>
<path d="M360.798 155.801C360.604 156.576 360.867 157.306 361.391 157.443C361.915 157.58 362.474 157.044 362.668 156.303C362.862 155.562 362.599 154.787 362.075 154.661C361.551 154.536 360.992 155.026 360.798 155.801Z" fill="#263238"/>
<path d="M362.28 154.718L360.764 153.646C360.764 153.646 361.254 155.265 362.28 154.718Z" fill="#263238"/>
<path d="M351.2 153.27C351.006 154.045 351.268 154.775 351.792 154.9C352.317 155.025 352.932 154.501 353.069 153.76C353.206 153.019 353.001 152.255 352.476 152.13C351.952 152.004 351.393 152.495 351.2 153.27Z" fill="#263238"/>
<path d="M352.681 152.233L351.119 151.093C351.119 151.093 351.655 152.734 352.681 152.233Z" fill="#263238"/>
<path d="M362.337 149.269C363.108 149.345 363.852 149.597 364.512 150.004C365.171 150.411 365.73 150.962 366.145 151.617" stroke="#263238" stroke-width="0.72" stroke-linecap="round" stroke-linejoin="round"/>
<path d="M355.531 147.342C354.918 147.036 354.244 146.872 353.56 146.862C352.875 146.852 352.197 146.996 351.575 147.285" stroke="#263238" stroke-width="0.72" stroke-linecap="round" stroke-linejoin="round"/>
<path d="M371.924 160.828C371.924 160.828 369.211 152.05 371.218 146.179C371.218 146.179 354.118 134.335 348.965 153.213C348.965 153.213 350.869 135.862 367.273 139.1C383.678 142.338 378.308 166.175 368.311 171.419C368.311 171.419 373.589 166.312 371.924 160.828Z" fill="#263238"/>
<path d="M369.929 162.493C370.265 161.416 371.014 160.517 372.012 159.991C373.009 159.466 374.175 159.357 375.253 159.689C378.125 160.658 378.182 167.007 370.556 166.836C369.45 166.802 369.085 165.639 369.929 162.493Z" fill="#E4897B"/>
<path d="M351.746 163.849C352 165.009 352.167 166.187 352.248 167.372L352.863 167.429C355.702 167.679 357.093 166.847 357.777 165.867C358.104 165.38 358.307 164.82 358.369 164.237C358.419 163.904 358.419 163.566 358.369 163.233C356.542 163.873 354.597 164.106 352.669 163.917C352.122 163.895 351.746 163.849 351.746 163.849Z" fill="#263238"/>
<path d="M352.716 163.917L352.887 164.955C355.554 165.171 357.447 164.955 358.37 164.237C358.42 163.904 358.42 163.566 358.37 163.233C356.557 163.866 354.628 164.1 352.716 163.917Z" fill="white"/>
<path d="M352.863 167.429C355.702 167.68 357.093 166.847 357.777 165.867C356.7 165.791 355.619 165.911 354.585 166.22C353.901 166.438 353.301 166.86 352.863 167.429Z" fill="#DE5753"/>
<path d="M365.13 143.295C365.13 143.295 365.495 159.757 375.39 161.729C385.285 163.701 374.478 140.582 374.478 140.582C374.478 140.582 359.772 130.983 349.968 137.744C340.164 144.504 348.987 153.213 348.987 153.213C348.987 153.213 351.028 140.993 365.13 143.295Z" fill="#263238"/>
<path d="M365.472 142.212C365.472 142.212 361.949 152.609 368.892 158.081" stroke="#263238" stroke-width="0.5" stroke-linecap="round" stroke-linejoin="round"/>
<path d="M378.252 165.114C376.998 168.466 373.771 170.347 371.047 169.321C368.322 168.295 367.137 164.761 368.391 161.421C369.645 158.08 372.871 156.188 375.595 157.203C378.32 158.217 379.506 161.774 378.252 165.114Z" fill="#407BFF"/>
<g opacity="0.4">
<path d="M378.252 165.114C376.998 168.466 373.771 170.347 371.047 169.321C368.322 168.295 367.137 164.761 368.391 161.421C369.645 158.08 372.871 156.188 375.595 157.203C378.32 158.217 379.506 161.774 378.252 165.114Z" fill="#EB7B7B"/>
<path d="M378.252 165.114C376.998 168.466 373.771 170.347 371.047 169.321C368.322 168.295 367.137 164.761 368.391 161.421C369.645 158.08 372.871 156.188 375.595 157.203C378.32 158.217 379.506 161.774 378.252 165.114Z" fill="#EB7B7B"/>
</g>
<path d="M375.06 159.631C375.06 159.631 379.153 141.311 369.976 136.512C371.021 136.648 372.056 136.85 373.076 137.116C374.216 137.458 381.592 144.891 377.887 161.352L375.06 159.631Z" fill="#407BFF"/>
<g opacity="0.2">
<path d="M375.06 159.631C375.06 159.631 379.153 141.311 369.976 136.512C371.021 136.648 372.056 136.85 373.076 137.116C374.216 137.458 381.592 144.891 377.887 161.352L375.06 159.631Z" fill="#EB7B7B"/>
<path d="M375.06 159.631C375.06 159.631 379.153 141.311 369.976 136.512C371.021 136.648 372.056 136.85 373.076 137.116C374.216 137.458 381.592 144.891 377.887 161.352L375.06 159.631Z" fill="#EB7B7B"/>
</g>
<path d="M357.959 170.119L357.275 170.017L357.458 168.877C362.494 169.65 367.639 168.555 371.924 165.799L372.597 166.722C368.286 169.579 363.088 170.785 357.959 170.119Z" fill="#407BFF"/>
<g opacity="0.2">
<path d="M357.959 170.119L357.275 170.017L357.458 168.877C362.494 169.65 367.639 168.555 371.924 165.799L372.597 166.722C368.286 169.579 363.088 170.785 357.959 170.119Z" fill="#EB7B7B"/>
<path d="M357.959 170.119L357.275 170.017L357.458 168.877C362.494 169.65 367.639 168.555 371.924 165.799L372.597 166.722C368.286 169.579 363.088 170.785 357.959 170.119Z" fill="#EB7B7B"/>
</g>
<path d="M377.864 164.659C377.043 166.87 374.9 168.079 373.11 167.44C371.32 166.802 370.522 164.419 371.355 162.208C372.187 159.996 374.319 158.788 376.108 159.426C377.898 160.064 378.696 162.493 377.864 164.659Z" fill="#407BFF"/>
<path d="M356.888 170.473L355.964 170.359C355.64 170.313 355.346 170.142 355.148 169.881C354.949 169.621 354.862 169.293 354.904 168.968C354.924 168.806 354.975 168.649 355.056 168.507C355.137 168.365 355.245 168.24 355.375 168.141C355.504 168.041 355.652 167.968 355.81 167.926C355.968 167.884 356.133 167.874 356.295 167.896L357.207 168.022C357.533 168.064 357.829 168.235 358.03 168.495C358.231 168.756 358.32 169.086 358.278 169.413C358.233 169.737 358.061 170.03 357.801 170.229C357.541 170.427 357.212 170.515 356.888 170.473Z" fill="#407BFF"/>
<g opacity="0.4">
<path d="M356.888 170.473L355.964 170.359C355.64 170.313 355.346 170.142 355.148 169.881C354.949 169.621 354.862 169.293 354.904 168.968C354.924 168.806 354.975 168.649 355.056 168.507C355.137 168.365 355.245 168.24 355.375 168.141C355.504 168.041 355.652 167.968 355.81 167.926C355.968 167.884 356.133 167.874 356.295 167.896L357.207 168.022C357.533 168.064 357.829 168.235 358.03 168.495C358.231 168.756 358.32 169.086 358.278 169.413C358.233 169.737 358.061 170.03 357.801 170.229C357.541 170.427 357.212 170.515 356.888 170.473Z" fill="#EB7B7B"/>
<path d="M356.888 170.473L355.964 170.359C355.64 170.313 355.346 170.142 355.148 169.881C354.949 169.621 354.862 169.293 354.904 168.968C354.924 168.806 354.975 168.649 355.056 168.507C355.137 168.365 355.245 168.24 355.375 168.141C355.504 168.041 355.652 167.968 355.81 167.926C355.968 167.884 356.133 167.874 356.295 167.896L357.207 168.022C357.533 168.064 357.829 168.235 358.03 168.495C358.231 168.756 358.32 169.086 358.278 169.413C358.233 169.737 358.061 170.03 357.801 170.229C357.541 170.427 357.212 170.515 356.888 170.473Z" fill="#EB7B7B"/>
</g>
<path d="M369.211 181.759L362.439 188.405L365.153 196.556L374.569 186.182L369.211 181.759Z" fill="#503895"/>
<path d="M359.418 183.149L360.513 188.268L357.013 195.507L354.824 186.102L359.418 183.149Z" fill="#503895"/>
<path d="M367.764 187.572L371.697 173.174C371.697 173.174 369.793 169.595 370.203 168.842C370.614 168.09 372.666 158.423 374.125 157.374C375.584 156.325 381.592 158.115 382.196 159.095C382.8 160.076 376.439 173.174 376.439 173.174L374.159 188.769L367.764 187.572Z" fill="#E4897B"/>
<path d="M391.019 189.944C401.849 201.025 380.155 226.128 367.718 225.056C355.28 223.984 368.037 178.476 368.037 178.476L376.017 179.787C376.017 179.787 373.224 199.474 374.102 201.025C374.979 202.575 387.428 186.216 391.019 189.944Z" fill="#407BFF"/>
<path opacity="0.2" d="M391.019 189.944C401.849 201.025 380.155 226.128 367.718 225.056C355.28 223.984 368.037 178.476 368.037 178.476L376.017 179.787C376.017 179.787 373.224 199.474 374.102 201.025C374.979 202.575 387.428 186.216 391.019 189.944Z" fill="#3C2A72"/>
<path d="M367.421 177.017L366.247 180.779L377.339 181.759V178.476L367.421 177.017Z" fill="#503895"/>
<path opacity="0.6" d="M350.606 206.781H346.114C345.617 206.781 345.214 207.184 345.214 207.682V216.163C345.214 216.661 345.617 217.064 346.114 217.064H350.606C351.103 217.064 351.507 216.661 351.507 216.163V207.682C351.507 207.184 351.103 206.781 350.606 206.781Z" fill="white"/>
<path opacity="0.2" d="M350.698 207.454H345.591V214.442H350.698V207.454Z" fill="black"/>
<path d="M348.828 204.296H347.699V208.411H348.828V204.296Z" fill="#263238"/>
<path d="M255.029 381.623C256.166 381.094 257.391 380.781 258.643 380.7C258.643 380.7 262.975 378.146 267.261 368.251H272.083C272.9 368.262 273.693 368.522 274.358 368.997C275.022 369.471 275.525 370.138 275.8 370.907C275.879 371.123 275.925 371.35 275.936 371.58C275.879 372.745 275.754 373.906 275.56 375.057C274.855 378.911 273.914 382.718 272.744 386.457L271.924 386.252L273.406 379.047C273.907 376.596 271.331 378.967 270.145 381.429C268.96 383.892 267.124 386.377 261.789 385.157C255.576 383.652 253.079 382.74 255.029 381.623Z" fill="#503895"/>
<path d="M268.139 365.652C268.139 365.652 262.108 378.261 258.643 380.7C258.643 380.7 263.294 383.47 268.139 377.28C274.397 369.3 275.936 371.523 275.936 371.523C275.806 370.146 275.55 368.784 275.173 367.453C274.238 364.9 268.139 365.652 268.139 365.652Z" fill="#E4897B"/>
<path d="M321.4 411.662C322.379 410.878 323.497 410.282 324.694 409.907C324.694 409.907 328.297 406.407 330.109 395.771L334.795 394.631C335.589 394.448 336.42 394.513 337.176 394.817C337.932 395.12 338.577 395.648 339.024 396.329C339.15 396.52 339.25 396.727 339.321 396.945C339.551 398.093 339.707 399.254 339.788 400.422C340.007 404.318 339.988 408.224 339.731 412.118H338.887L338.625 404.765C338.523 402.28 336.596 405.187 336.015 407.866C335.433 410.545 334.259 413.384 328.787 413.464C322.414 413.486 319.77 413.201 321.4 411.662Z" fill="#503895"/>
<path d="M330.348 393.046C330.348 393.046 327.487 406.726 324.648 409.907C324.648 409.907 329.824 411.503 333.062 404.355C337.257 395.11 339.275 396.911 339.275 396.911C338.822 395.605 338.254 394.342 337.576 393.138C336.094 390.858 330.348 393.046 330.348 393.046Z" fill="#E4897B"/>
<path d="M436.346 117.108H396.548C393.356 117.108 390.769 119.696 390.769 122.888V139.908C390.769 143.1 393.356 145.688 396.548 145.688H436.346C439.538 145.688 442.126 143.1 442.126 139.908V122.888C442.126 119.696 439.538 117.108 436.346 117.108Z" fill="#019384"/>
<path d="M404.528 142.439L392.535 158.741L411.881 143.534L404.528 142.439Z" fill="#019384"/>
<path d="M404.973 131.404C404.975 131.739 404.878 132.067 404.693 132.346C404.509 132.625 404.245 132.843 403.937 132.972C403.628 133.101 403.288 133.136 402.959 133.071C402.631 133.006 402.329 132.845 402.093 132.609C401.856 132.372 401.695 132.07 401.631 131.742C401.566 131.414 401.6 131.074 401.729 130.765C401.858 130.456 402.076 130.193 402.356 130.008C402.635 129.824 402.963 129.726 403.297 129.729C403.742 129.729 404.168 129.905 404.482 130.219C404.796 130.534 404.973 130.96 404.973 131.404Z" fill="white"/>
<path d="M413.74 131.404C413.742 131.739 413.645 132.067 413.46 132.346C413.275 132.625 413.012 132.843 412.703 132.972C412.395 133.101 412.054 133.136 411.726 133.071C411.398 133.006 411.096 132.845 410.859 132.609C410.623 132.372 410.462 132.07 410.397 131.742C410.332 131.414 410.367 131.074 410.496 130.765C410.625 130.456 410.843 130.193 411.122 130.008C411.401 129.824 411.729 129.726 412.064 129.729C412.508 129.729 412.935 129.905 413.249 130.219C413.563 130.534 413.74 130.96 413.74 131.404Z" fill="white"/>
<path d="M422.506 131.404C422.508 131.739 422.411 132.067 422.227 132.346C422.042 132.625 421.779 132.843 421.47 132.972C421.161 133.101 420.821 133.136 420.493 133.071C420.164 133.006 419.863 132.845 419.626 132.609C419.389 132.372 419.228 132.07 419.164 131.742C419.099 131.414 419.133 131.074 419.262 130.765C419.392 130.456 419.61 130.193 419.889 130.008C420.168 129.824 420.496 129.726 420.83 129.729C421.275 129.729 421.701 129.905 422.015 130.219C422.33 130.534 422.506 130.96 422.506 131.404Z" fill="white"/>
<path d="M431.273 131.404C431.275 131.739 431.178 132.067 430.993 132.346C430.809 132.625 430.545 132.843 430.237 132.972C429.928 133.101 429.588 133.136 429.259 133.071C428.931 133.006 428.629 132.845 428.393 132.609C428.156 132.372 427.995 132.07 427.93 131.742C427.866 131.414 427.9 131.074 428.029 130.765C428.158 130.456 428.376 130.193 428.655 130.008C428.935 129.824 429.262 129.726 429.597 129.729C430.041 129.729 430.468 129.905 430.782 130.219C431.096 130.534 431.273 130.96 431.273 131.404Z" fill="white"/>
<path d="M286.908 103.645L258.515 88.3506C257.75 87.9385 256.796 88.2246 256.384 88.9895L247.323 105.811C246.911 106.576 247.197 107.53 247.962 107.942L276.355 123.236C277.12 123.648 278.074 123.362 278.486 122.597L287.547 105.776C287.959 105.011 287.673 104.057 286.908 103.645Z" fill="#407BFF"/>
<g opacity="0.7">
<path d="M286.908 103.645L258.515 88.3506C257.75 87.9385 256.796 88.2246 256.384 88.9895L247.323 105.811C246.911 106.576 247.197 107.53 247.962 107.942L276.355 123.236C277.12 123.648 278.074 123.362 278.486 122.597L287.547 105.776C287.959 105.011 287.673 104.057 286.908 103.645Z" fill="#EB7B7B"/>
<path d="M286.908 103.645L258.515 88.3506C257.75 87.9385 256.796 88.2246 256.384 88.9895L247.323 105.811C246.911 106.576 247.197 107.53 247.962 107.942L276.355 123.236C277.12 123.648 278.074 123.362 278.486 122.597L287.547 105.776C287.959 105.011 287.673 104.057 286.908 103.645Z" fill="#EB7B7B"/>
</g>
<path opacity="0.2" d="M255.646 90.375L264.481 106.962C264.814 107.612 265.337 108.146 265.98 108.494C266.623 108.842 267.356 108.988 268.083 108.911L286.562 107.087L267.752 109.858C266.931 109.975 266.093 109.826 265.362 109.432C264.632 109.038 264.047 108.42 263.694 107.669L255.646 90.375Z" fill="black"/>
<path d="M234.087 87.2519C234.395 80.9135 239.092 68.1341 244.803 64.2239C250.515 60.3137 246.753 65.7287 246.753 65.7287C246.753 65.7287 252.168 60.4619 255.018 60.6101C257.868 60.7583 255.018 64.0301 255.018 64.0301C255.018 64.0301 260.889 60.4163 263.591 60.6101C266.292 60.8039 263.591 63.9161 263.591 63.9161C263.591 63.9161 268.401 60.4961 270.351 62.1149C272.3 63.7337 245.396 81.4949 242.398 88.7225C239.4 95.9501 233.78 93.7043 234.087 87.2519Z" fill="#407BFF"/>
<g opacity="0.4">
<path d="M234.087 87.2519C234.395 80.9135 239.092 68.1341 244.803 64.2239C250.515 60.3137 246.753 65.7287 246.753 65.7287C246.753 65.7287 252.168 60.4619 255.018 60.6101C257.868 60.7583 255.018 64.0301 255.018 64.0301C255.018 64.0301 260.889 60.4163 263.591 60.6101C266.292 60.8039 263.591 63.9161 263.591 63.9161C263.591 63.9161 268.401 60.4961 270.351 62.1149C272.3 63.7337 245.396 81.4949 242.398 88.7225C239.4 95.9501 233.78 93.7043 234.087 87.2519Z" fill="#EB7B7B"/>
<path d="M234.087 87.2519C234.395 80.9135 239.092 68.1341 244.803 64.2239C250.515 60.3137 246.753 65.7287 246.753 65.7287C246.753 65.7287 252.168 60.4619 255.018 60.6101C257.868 60.7583 255.018 64.0301 255.018 64.0301C255.018 64.0301 260.889 60.4163 263.591 60.6101C266.292 60.8039 263.591 63.9161 263.591 63.9161C263.591 63.9161 268.401 60.4961 270.351 62.1149C272.3 63.7337 245.396 81.4949 242.398 88.7225C239.4 95.9501 233.78 93.7043 234.087 87.2519Z" fill="#EB7B7B"/>
</g>
<path d="M257.207 86.3516L260.798 88.6316C260.861 88.6617 260.911 88.7138 260.938 88.7781C260.965 88.8424 260.968 88.9144 260.945 88.9804C260.923 89.0465 260.877 89.102 260.816 89.1364C260.755 89.1709 260.684 89.1819 260.616 89.1674L256.843 88.8824L257.162 91.778C257.171 91.8462 257.158 91.9157 257.125 91.9759C257.091 92.0362 257.039 92.084 256.976 92.1122C256.913 92.1404 256.843 92.1475 256.776 92.1325C256.709 92.1175 256.648 92.0811 256.603 92.0288L254.426 89.5664L257.207 86.3516Z" fill="#407BFF"/>
<path opacity="0.3" d="M257.207 86.3516L260.798 88.6316C260.861 88.6617 260.911 88.7138 260.938 88.7781C260.965 88.8424 260.968 88.9144 260.945 88.9804C260.923 89.0465 260.877 89.102 260.816 89.1364C260.755 89.1709 260.684 89.1819 260.616 89.1674L256.843 88.8824L257.162 91.778C257.171 91.8462 257.158 91.9157 257.125 91.9759C257.091 92.0362 257.039 92.084 256.976 92.1122C256.913 92.1404 256.843 92.1475 256.776 92.1325C256.709 92.1175 256.648 92.0811 256.603 92.0288L254.426 89.5664L257.207 86.3516Z" fill="white"/>
<path d="M206.763 72.0779C206.763 72.0779 211.733 68.6579 219.246 70.8695C219.246 70.8695 221.4 80.7875 227.317 84.0935C230.566 85.9175 238.512 85.7579 244.805 83.7173C252.272 81.3005 255.919 81.3005 257.276 84.0935C258.633 86.8865 257.128 89.7935 251.416 91.1615C245.705 92.5295 241.157 102.436 230.817 102.562C220.477 102.687 214.982 92.3015 217.593 83.1815C215.124 78.517 211.364 74.6621 206.763 72.0779Z" fill="#407BFF"/>
<g opacity="0.5">
<path d="M206.763 72.0779C206.763 72.0779 211.733 68.6579 219.246 70.8695C219.246 70.8695 221.4 80.7875 227.317 84.0935C230.566 85.9175 238.512 85.7579 244.805 83.7173C252.272 81.3005 255.919 81.3005 257.276 84.0935C258.633 86.8865 257.128 89.7935 251.416 91.1615C245.705 92.5295 241.157 102.436 230.817 102.562C220.477 102.687 214.982 92.3015 217.593 83.1815C215.124 78.517 211.364 74.6621 206.763 72.0779Z" fill="#EB7B7B"/>
<path d="M206.763 72.0779C206.763 72.0779 211.733 68.6579 219.246 70.8695C219.246 70.8695 221.4 80.7875 227.317 84.0935C230.566 85.9175 238.512 85.7579 244.805 83.7173C252.272 81.3005 255.919 81.3005 257.276 84.0935C258.633 86.8865 257.128 89.7935 251.416 91.1615C245.705 92.5295 241.157 102.436 230.817 102.562C220.477 102.687 214.982 92.3015 217.593 83.1815C215.124 78.517 211.364 74.6621 206.763 72.0779Z" fill="#EB7B7B"/>
</g>
<path d="M254.426 85.9752C254.429 86.0771 254.4 86.1774 254.345 86.2633C254.29 86.3491 254.211 86.4166 254.118 86.4572C254.024 86.4978 253.921 86.5096 253.82 86.4911C253.72 86.4726 253.628 86.4247 253.555 86.3534C253.482 86.2822 253.432 86.1908 253.411 86.091C253.39 85.9912 253.4 85.8874 253.438 85.793C253.477 85.6986 253.543 85.6178 253.627 85.5609C253.712 85.504 253.811 85.4737 253.913 85.4736C254.047 85.4736 254.176 85.5261 254.272 85.6198C254.368 85.7136 254.423 85.8412 254.426 85.9752Z" fill="#263238"/>
<path d="M228.411 94.3314C222.289 95.9958 208.678 95.4714 203.206 91.2534C197.734 87.0354 204.026 88.9734 204.026 88.9734C204.026 88.9734 197.357 85.4508 196.616 82.6806C195.875 79.9104 199.9 81.6204 199.9 81.6204C199.9 81.6204 194.656 77.163 193.972 74.541C193.288 71.919 197.118 73.515 197.118 73.515C197.118 73.515 192.341 70.0038 193.31 67.6326C194.279 65.2614 219.462 85.3824 227.248 86.0208C235.034 86.6592 234.613 92.6328 228.411 94.3314Z" fill="#407BFF"/>
<g opacity="0.4">
<path d="M228.411 94.3314C222.289 95.9958 208.678 95.4714 203.206 91.2534C197.734 87.0354 204.026 88.9734 204.026 88.9734C204.026 88.9734 197.357 85.4508 196.616 82.6806C195.875 79.9104 199.9 81.6204 199.9 81.6204C199.9 81.6204 194.656 77.163 193.972 74.541C193.288 71.919 197.118 73.515 197.118 73.515C197.118 73.515 192.341 70.0038 193.31 67.6326C194.279 65.2614 219.462 85.3824 227.248 86.0208C235.034 86.6592 234.613 92.6328 228.411 94.3314Z" fill="#EB7B7B"/>
<path d="M228.411 94.3314C222.289 95.9958 208.678 95.4714 203.206 91.2534C197.734 87.0354 204.026 88.9734 204.026 88.9734C204.026 88.9734 197.357 85.4508 196.616 82.6806C195.875 79.9104 199.9 81.6204 199.9 81.6204C199.9 81.6204 194.656 77.163 193.972 74.541C193.288 71.919 197.118 73.515 197.118 73.515C197.118 73.515 192.341 70.0038 193.31 67.6326C194.279 65.2614 219.462 85.3824 227.248 86.0208C235.034 86.6592 234.613 92.6328 228.411 94.3314Z" fill="#EB7B7B"/>
</g>
<path d="M188.283 66.1732C187.212 65.7856 186.129 65.4322 185.034 65.1016" stroke="#407BFF" stroke-width="0.75" stroke-linecap="round" stroke-linejoin="round"/>
<path d="M178.376 63.4034C174.387 62.5728 170.346 62.0167 166.281 61.739C155.2 60.9638 137.781 59.8694 131.032 70.916C124.842 80.9822 135.489 98.1506 139.263 107.499C143.891 118.899 149.397 133.092 143.925 145.21C132.696 170.107 84.6454 157.18 68.3662 134.254" stroke="#407BFF" stroke-width="0.75" stroke-linecap="round" stroke-linejoin="round" stroke-dasharray="6.03 6.03"/>
<path d="M66.5309 131.359C65.9595 130.365 65.442 129.341 64.9805 128.292" stroke="#407BFF" stroke-width="0.75" stroke-linecap="round" stroke-linejoin="round"/>
<path d="M204.984 221.874H161.71V230.743H204.984V221.874Z" fill="white"/>
<g opacity="0.1">
<path d="M204.984 221.874H161.71V230.743H204.984V221.874Z" fill="#EB7B7B"/>
<path d="M204.984 221.874H161.71V230.743H204.984V221.874Z" fill="#EB7B7B"/>
</g>
<g opacity="0.1">
<path d="M179.939 221.874H161.71V230.743H179.939V221.874Z" fill="#EB7B7B"/>
<path d="M179.939 221.874H161.71V230.743H179.939V221.874Z" fill="#EB7B7B"/>
</g>
<g opacity="0.1">
<path d="M161.71 223.151H200.231L161.71 224.246V223.151Z" fill="#EB7B7B"/>
<path d="M161.71 223.151H200.231L161.71 224.246V223.151Z" fill="#EB7B7B"/>
</g>
<g opacity="0.1">
<path d="M204.984 224.69L171.594 225.523H204.984V224.69Z" fill="#EB7B7B"/>
<path d="M204.984 224.69L171.594 225.523H204.984V224.69Z" fill="#EB7B7B"/>
</g>
<g opacity="0.1">
<path d="M163.477 227.176L179.938 226.503L204.14 227.176L179.938 227.552L163.477 227.176Z" fill="#EB7B7B"/>
<path d="M163.477 227.176L179.938 226.503L204.14 227.176L179.938 227.552L163.477 227.176Z" fill="#EB7B7B"/>
</g>
<g opacity="0.1">
<path d="M161.71 229.057H190.233L161.71 229.729V229.057Z" fill="#EB7B7B"/>
<path d="M161.71 229.057H190.233L161.71 229.729V229.057Z" fill="#EB7B7B"/>
</g>
<g opacity="0.1">
<path d="M204.916 229.729L185.866 230.083H204.984L204.916 229.729Z" fill="#EB7B7B"/>
<path d="M204.916 229.729L185.866 230.083H204.984L204.916 229.729Z" fill="#EB7B7B"/>
</g>
<path d="M198.965 212.994H155.69V221.863H198.965V212.994Z" fill="white"/>
<g opacity="0.1">
<path d="M198.965 212.994H155.69V221.863H198.965V212.994Z" fill="#EB7B7B"/>
<path d="M198.965 212.994H155.69V221.863H198.965V212.994Z" fill="#EB7B7B"/>
</g>
<g opacity="0.1">
<path d="M173.919 212.994H155.69V221.863H173.919V212.994Z" fill="#EB7B7B"/>
<path d="M173.919 212.994H155.69V221.863H173.919V212.994Z" fill="#EB7B7B"/>
</g>
<g opacity="0.1">
<path d="M155.69 214.282H194.211L155.69 215.365V214.282Z" fill="#EB7B7B"/>
<path d="M155.69 214.282H194.211L155.69 215.365V214.282Z" fill="#EB7B7B"/>
</g>
<g opacity="0.1">
<path d="M198.965 215.821L165.574 216.642H198.965V215.821Z" fill="#EB7B7B"/>
<path d="M198.965 215.821L165.574 216.642H198.965V215.821Z" fill="#EB7B7B"/>
</g>
<g opacity="0.1">
<path d="M157.445 218.295L173.907 217.622L198.109 218.295L173.907 218.671L157.445 218.295Z" fill="#EB7B7B"/>
<path d="M157.445 218.295L173.907 217.622L198.109 218.295L173.907 218.671L157.445 218.295Z" fill="#EB7B7B"/>
</g>
<g opacity="0.1">
<path d="M155.69 220.176H184.213L155.69 220.848V220.176Z" fill="#EB7B7B"/>
<path d="M155.69 220.176H184.213L155.69 220.848V220.176Z" fill="#EB7B7B"/>
</g>
<g opacity="0.1">
<path d="M198.896 220.849L179.847 221.202H198.964L198.896 220.849Z" fill="#EB7B7B"/>
<path d="M198.896 220.849L179.847 221.202H198.964L198.896 220.849Z" fill="#EB7B7B"/>
</g>
<path d="M203.9 204.125H160.626V212.994H203.9V204.125Z" fill="white"/>
<g opacity="0.1">
<path d="M203.9 204.125H160.626V212.994H203.9V204.125Z" fill="#EB7B7B"/>
<path d="M203.9 204.125H160.626V212.994H203.9V204.125Z" fill="#EB7B7B"/>
</g>
<g opacity="0.1">
<path d="M178.855 204.125H160.626V212.994H178.855V204.125Z" fill="#EB7B7B"/>
<path d="M178.855 204.125H160.626V212.994H178.855V204.125Z" fill="#EB7B7B"/>
</g>
<g opacity="0.1">
<path d="M160.626 205.401H199.147L160.626 206.496V205.401Z" fill="#EB7B7B"/>
<path d="M160.626 205.401H199.147L160.626 206.496V205.401Z" fill="#EB7B7B"/>
</g>
<g opacity="0.1">
<path d="M203.9 206.94L170.51 207.773H203.9V206.94Z" fill="#EB7B7B"/>
<path d="M203.9 206.94L170.51 207.773H203.9V206.94Z" fill="#EB7B7B"/>
</g>
<g opacity="0.1">
<path d="M162.394 209.425L178.855 208.741L203.057 209.425L178.855 209.801L162.394 209.425Z" fill="#EB7B7B"/>
<path d="M162.394 209.425L178.855 208.741L203.057 209.425L178.855 209.801L162.394 209.425Z" fill="#EB7B7B"/>
</g>
<g opacity="0.1">
<path d="M160.626 211.307H189.149L160.626 211.979V211.307Z" fill="#EB7B7B"/>
<path d="M160.626 211.307H189.149L160.626 211.979V211.307Z" fill="#EB7B7B"/>
</g>
<g opacity="0.1">
<path d="M203.844 211.979L184.795 212.333H203.901L203.844 211.979Z" fill="#EB7B7B"/>
<path d="M203.844 211.979L184.795 212.333H203.901L203.844 211.979Z" fill="#EB7B7B"/>
</g>
<path d="M232.731 230.561L233.849 226.309H280.087L301.371 228.44L302.18 230.561H232.731Z" fill="#263238"/>
<path opacity="0.4" d="M280.087 226.309V230.561H232.731L233.849 226.309H280.087Z" fill="black"/>
<path d="M270.796 205.96C270.858 206.476 270.808 206.998 270.651 207.493C270.494 207.988 270.233 208.444 269.885 208.829C269.538 209.215 269.111 209.522 268.635 209.729C268.159 209.936 267.644 210.038 267.125 210.03H196.308C195.201 210.006 194.14 209.58 193.324 208.831C192.508 208.082 191.992 207.061 191.873 205.96L187.667 160.622C187.621 160.179 187.652 159.732 187.758 159.3C187.955 158.504 188.416 157.798 189.066 157.299C189.717 156.8 190.518 156.536 191.338 156.552H262.2C263.307 156.577 264.368 157.003 265.184 157.752C266 158.501 266.516 159.521 266.635 160.622L270.796 205.96Z" fill="#263238"/>
<path opacity="0.4" d="M266.874 210.03H196.308C195.201 210.006 194.14 209.579 193.324 208.831C192.508 208.082 191.992 207.061 191.873 205.96L187.667 160.622C187.621 160.179 187.652 159.732 187.758 159.3H258.324C259.431 159.324 260.492 159.75 261.308 160.499C262.124 161.248 262.64 162.268 262.759 163.37L266.965 208.707C267.011 209.15 266.98 209.597 266.874 210.03Z" fill="black"/>
<path d="M218.219 182.214H232.868L228.969 224.166L252.134 227.643V230.561H203.342V227.643L213.34 224.166L218.219 182.214Z" fill="#263238"/>
<path opacity="0.1" d="M232.868 182.214L222.015 229.9L213.34 229.638L218.219 182.214H232.868Z" fill="white"/>
<path d="M232.8 413.429H225.823L213.271 238.724H222.54L232.8 413.429Z" fill="#263238"/>
<path opacity="0.4" d="M232.811 413.429H225.823L213.887 247.399L213.271 239.009H222.54L223.041 247.399L232.811 413.429Z" fill="white"/>
<path opacity="0.2" d="M223.041 246.989H213.887L213.271 239.009H222.54L223.041 246.989Z" fill="black"/>
<path d="M284.054 413.429H277.077L275.938 238.724H285.194L284.054 413.429Z" fill="#263238"/>
<path opacity="0.5" d="M285.206 239.009L285.023 267.19L284.066 413.429H277.077L276.12 267.19L275.938 239.009H285.206Z" fill="white"/>
<path opacity="0.2" d="M285.206 239.009L285.023 267.509H276.12L275.938 239.009H285.206Z" fill="black"/>
<path d="M358.2 413.429H351.223L338.672 238.724H347.94L358.2 413.429Z" fill="#263238"/>
<path opacity="0.5" d="M358.211 413.429H351.223L339.287 247.399L338.672 239.009H347.94L348.442 247.399L358.211 413.429Z" fill="white"/>
<path opacity="0.2" d="M348.442 246.989H339.287L338.672 239.009H347.94L348.442 246.989Z" fill="black"/>
<path d="M152.908 413.429H145.932L156.192 238.724H165.46L152.908 413.429Z" fill="#263238"/>
<path opacity="0.5" d="M165.46 239.009L164.844 247.399L152.908 413.429H145.932L155.69 247.399L156.192 239.009H165.46Z" fill="white"/>
<path opacity="0.2" d="M156.192 239.009H165.46L164.845 246.989H155.69L156.192 239.009Z" fill="black"/>
<path d="M148.85 234.312H355.281V240.593C355.281 240.916 355.217 241.236 355.093 241.535C354.97 241.834 354.788 242.105 354.56 242.334C354.331 242.563 354.059 242.744 353.761 242.868C353.462 242.992 353.142 243.055 352.818 243.055H151.312C150.659 243.055 150.033 242.796 149.571 242.334C149.109 241.872 148.85 241.246 148.85 240.593V234.312Z" fill="#407BFF"/>
<path opacity="0.6" d="M148.85 234.312H355.281V240.593C355.281 240.916 355.217 241.236 355.093 241.535C354.97 241.834 354.788 242.105 354.56 242.334C354.331 242.563 354.059 242.744 353.761 242.868C353.462 242.992 353.142 243.055 352.818 243.055H151.312C150.659 243.055 150.033 242.796 149.571 242.334C149.109 241.872 148.85 241.246 148.85 240.593V234.312Z" fill="white"/>
<path opacity="0.2" d="M355.281 234.346H148.85V238.723H355.281V234.346Z" fill="black"/>
<path d="M359.613 235.452H144.518C143.864 235.449 143.238 235.187 142.776 234.723C142.315 234.26 142.056 233.632 142.056 232.978C142.056 232.325 142.315 231.699 142.777 231.237C143.239 230.775 143.865 230.516 144.518 230.516H359.613C360.266 230.516 360.893 230.775 361.354 231.237C361.816 231.699 362.076 232.325 362.076 232.978C362.076 233.632 361.817 234.26 361.355 234.723C360.894 235.187 360.267 235.449 359.613 235.452Z" fill="#407BFF"/>
<path opacity="0.6" d="M359.613 235.452H144.518C143.864 235.449 143.238 235.187 142.776 234.723C142.315 234.26 142.056 233.632 142.056 232.978C142.056 232.325 142.315 231.699 142.777 231.237C143.239 230.775 143.865 230.516 144.518 230.516H359.613C360.266 230.516 360.893 230.775 361.354 231.237C361.816 231.699 362.076 232.325 362.076 232.978C362.076 233.632 361.817 234.26 361.355 234.723C360.894 235.187 360.267 235.449 359.613 235.452Z" fill="white"/>
<path d="M308.724 222.969L311.368 219.002C311.629 218.612 311.982 218.293 312.396 218.072C312.809 217.851 313.271 217.736 313.74 217.736H317.091C317.37 217.737 317.646 217.779 317.912 217.862L329.871 221.487C330.55 221.69 331.128 222.142 331.489 222.752L333.211 225.637L308.724 222.969Z" fill="#407BFF"/>
<path opacity="0.2" d="M333.211 225.637L315.781 223.744L308.701 222.969L311.346 219.002C311.607 218.612 311.959 218.293 312.373 218.072C312.787 217.851 313.248 217.736 313.717 217.736H317.069C317.351 217.738 317.631 217.78 317.901 217.862L318.163 217.942L329.848 221.487C330.532 221.688 331.114 222.14 331.478 222.752L333.211 225.637Z" fill="#01A796"/>
<path opacity="0.2" d="M333.211 225.636L315.78 223.744L318.163 217.941L329.848 221.487C330.531 221.688 331.114 222.14 331.478 222.752L333.211 225.636Z" fill="#F2F8F8"/>
<path d="M341.487 230.184V230.561H304.528L305.896 225.214C306.15 224.232 306.724 223.362 307.527 222.743C308.33 222.124 309.317 221.79 310.331 221.794H326.724C327.269 221.791 327.81 221.888 328.32 222.079L330.372 222.843L338.512 225.875C339.39 226.201 340.147 226.789 340.68 227.56C341.212 228.331 341.494 229.247 341.487 230.184Z" fill="#01A796"/>
<path opacity="0.2" d="M341.487 230.185V230.562H326.313L327.123 224.782C327.182 224.428 327.319 224.093 327.524 223.798C327.729 223.504 327.996 223.259 328.306 223.08C328.617 222.902 328.963 222.794 329.32 222.765C329.677 222.736 330.036 222.786 330.372 222.912L338.511 225.945C339.379 226.266 340.128 226.844 340.66 227.601C341.191 228.359 341.48 229.26 341.487 230.185Z" fill="black"/>
<path d="M328.674 226.628L333.507 212.15C333.555 212.003 333.633 211.867 333.739 211.753C333.844 211.639 333.973 211.55 334.116 211.491C334.26 211.432 334.414 211.406 334.569 211.413C334.724 211.421 334.875 211.462 335.012 211.535C335.228 211.646 335.4 211.827 335.499 212.049C335.599 212.27 335.62 212.519 335.559 212.754L331.49 228.224C331.49 228.224 328.788 229.319 328.674 226.628Z" fill="#263238"/>
<path opacity="0.2" d="M308.723 229.364H306.58L306.99 227.255H309.134L308.723 229.364Z" fill="black"/>
<path opacity="0.2" d="M311.916 229.273H309.772L310.183 227.176H312.326L311.916 229.273Z" fill="black"/>
</svg>
