<svg width="12" height="12" viewBox="0 0 12 12" fill="none" xmlns="http://www.w3.org/2000/svg">
<path d="M9.73614 11.6116L6 7.87539L2.26386 11.6116C1.74594 12.1295 0.906294 12.1295 0.388373 11.6116C-0.129458 11.0937 -0.129458 10.2541 0.388373 9.73614L4.12461 6L0.388373 2.26386C-0.129458 1.74594 -0.129458 0.906294 0.388373 0.388373C0.906294 -0.129458 1.74594 -0.129458 2.26386 0.388373L6 4.12461L9.73614 0.388373C10.2541 -0.129458 11.0937 -0.129458 11.6116 0.388373C12.1295 0.906294 12.1295 1.74594 11.6116 2.26386L7.87539 6L11.6116 9.73614C12.1295 10.2541 12.1295 11.0937 11.6116 11.6116C11.0937 12.1295 10.2541 12.1295 9.73614 11.6116Z" fill="#503895"/>
</svg>
