<svg width="10" height="12" viewBox="0 0 10 12" fill="none" xmlns="http://www.w3.org/2000/svg">
<path d="M5.46686 11.8082L9.80058 7.47457C9.92429 7.35087 9.99219 7.18599 9.99219 7.01019C9.99219 6.83419 9.92419 6.66941 9.80058 6.5457L9.40702 6.15224C9.28351 6.02863 9.11854 5.96054 8.94264 5.96054C8.76683 5.96054 8.5963 6.02863 8.47279 6.15224L5.93905 8.68042L5.93905 0.648287C5.93905 0.286144 5.65554 0 5.2933 0L4.73691 0C4.37467 0 4.06258 0.286144 4.06258 0.648287L4.06258 8.7091L1.5147 6.15234C1.39099 6.02873 1.2305 5.96063 1.0546 5.96063C0.878896 5.96063 0.716068 6.02873 0.592459 6.15234L0.20017 6.5458C0.0764637 6.66951 0.00904942 6.83429 0.00904942 7.01028C0.00904942 7.18609 0.0773411 7.35096 0.201048 7.47467L4.53467 11.8083C4.65877 11.9323 4.82442 12.0005 5.00052 12C5.1772 12.0004 5.34296 11.9323 5.46686 11.8082Z" fill="#E2E3E4"/>
</svg>
