<svg width="12" height="7" viewBox="0 0 12 7" fill="none" xmlns="http://www.w3.org/2000/svg">
<path d="M6.46824 6.80994L11.8083 1.50758C11.9319 1.38495 12 1.22124 12 1.04668C12 0.872118 11.9319 0.708408 11.8083 0.585771L11.4151 0.195289C11.1589 -0.0587998 10.7425 -0.0587998 10.4867 0.195289L6.00249 4.64781L1.51326 0.190349C1.38965 0.0677119 1.22487 0 1.04916 0C0.873261 0 0.708482 0.0677119 0.584775 0.190349L0.191706 0.580831C0.0680971 0.703565 0 0.867178 0 1.04174C0 1.2163 0.0680971 1.38001 0.191706 1.50264L5.53664 6.80994C5.66064 6.93287 5.8262 7.00039 6.00219 7C6.17888 7.00039 6.34434 6.93287 6.46824 6.80994Z" fill="#382768"/>
</svg>
