<svg width="36" height="36" viewBox="0 0 36 36" fill="none" xmlns="http://www.w3.org/2000/svg">
<path d="M18 19.125C18.2984 19.125 18.5845 19.0065 18.7955 18.7955C19.0065 18.5845 19.125 18.2984 19.125 18C19.125 17.7016 19.0065 17.4155 18.7955 17.2045C18.5845 16.9935 18.2984 16.875 18 16.875C16.665 16.875 15.3599 16.4791 14.2499 15.7374C13.1399 14.9957 12.2747 13.9415 11.7638 12.7081C11.2529 11.4747 11.1193 10.1175 11.3797 8.80814C11.6402 7.49877 12.283 6.29604 13.227 5.35203C14.171 4.40803 15.3738 3.76515 16.6831 3.5047C17.9925 3.24425 19.3497 3.37793 20.5831 3.88882C21.8165 4.39971 22.8707 5.26487 23.6124 6.37491C24.3541 7.48494 24.75 8.78998 24.75 10.125V12.375C24.75 12.6734 24.6315 12.9595 24.4205 13.1705C24.2095 13.3815 23.9234 13.5 23.625 13.5C23.3266 13.5 23.0405 13.3815 22.8295 13.1705C22.6185 12.9595 22.5 12.6734 22.5 12.375V10.125C22.505 9.11125 22.1692 8.12522 21.5466 7.32518C20.924 6.52514 20.0506 5.95749 19.0667 5.71334C18.0828 5.46919 17.0454 5.56271 16.121 5.97888C15.1966 6.39506 14.4388 7.10975 13.9693 8.00824C13.4998 8.90673 13.3458 9.93691 13.532 10.9334C13.7182 11.9299 14.2338 12.835 14.9961 13.5033C15.7584 14.1716 16.7231 14.5645 17.7354 14.6187C18.7477 14.673 19.7489 14.3856 20.5783 13.8026C20.902 14.4985 21.4537 15.0629 22.1419 15.4024C22.8302 15.7419 23.6137 15.8362 24.3629 15.6697C25.1121 15.5031 25.7819 15.0857 26.2614 14.4866C26.741 13.8874 27.0016 13.1424 27 12.375V10.125C27 8.34497 26.4722 6.60491 25.4832 5.12487C24.4943 3.64483 23.0887 2.49128 21.4442 1.81009C19.7996 1.1289 17.99 0.95067 16.2442 1.29794C14.4984 1.6452 12.8947 2.50237 11.636 3.76104C10.3774 5.01972 9.5202 6.62336 9.17294 8.36919C8.82567 10.115 9.0039 11.9246 9.68509 13.5692C10.3663 15.2137 11.5198 16.6193 12.9999 17.6082C14.4799 18.5972 16.22 19.125 18 19.125ZM18 12.375C17.555 12.375 17.12 12.243 16.75 11.9958C16.38 11.7486 16.0916 11.3972 15.9213 10.986C15.751 10.5749 15.7064 10.1225 15.7932 9.68605C15.8801 9.24959 16.0943 8.84868 16.409 8.53401C16.7237 8.21935 17.1246 8.00505 17.5611 7.91824C17.9975 7.83142 18.4499 7.87598 18.861 8.04628C19.2722 8.21657 19.6236 8.50496 19.8708 8.87497C20.118 9.24498 20.25 9.68 20.25 10.125C20.2493 10.7215 20.012 11.2934 19.5902 11.7152C19.1684 12.137 18.5965 12.3743 18 12.375Z" fill="#01A796"/>
<path d="M4.032 15.5587L6.42037 13.1703C6.6253 12.9582 6.7387 12.674 6.73613 12.379C6.73357 12.084 6.61525 11.8019 6.40667 11.5933C6.19809 11.3847 5.91592 11.2664 5.62095 11.2638C5.32598 11.2613 5.0418 11.3747 4.82963 11.5796L1.45462 14.9546C1.24801 15.1684 1.13021 15.4527 1.125 15.75V31.5C1.12771 32.0011 1.24325 32.4952 1.46306 32.9456L13.0517 21.3569L4.032 15.5587Z" fill="#503895"/>
<path d="M34.8062 15.3715C34.7506 15.2153 34.6616 15.073 34.5454 14.9546L31.1704 11.5796C30.9582 11.3747 30.6741 11.2613 30.3791 11.2638C30.0841 11.2664 29.8019 11.3847 29.5934 11.5933C29.3848 11.8019 29.2665 12.084 29.2639 12.379C29.2613 12.674 29.3747 12.9582 29.5797 13.1703L31.968 15.5587L22.9481 21.3571L34.5375 32.9457C34.7572 32.4953 34.8726 32.0011 34.875 31.5V15.75C34.8741 15.6208 34.8508 15.4927 34.8062 15.3715Z" fill="#503895"/>
<path d="M18 24.5379L14.9883 22.6019L3.05371 34.5366C3.50425 34.7567 3.99861 34.8723 4.50001 34.875H31.5C32.0014 34.8724 32.4958 34.7567 32.9463 34.5367L21.0114 22.6022L18 24.5379Z" fill="#503895"/>
</svg>
