<svg width="27" height="20" viewBox="0 0 27 20" fill="none" xmlns="http://www.w3.org/2000/svg">
<path d="M0.561137 1.62267C4.22094 4.72212 10.6428 10.175 12.5302 11.8752C12.7836 12.1047 13.0554 12.2214 13.3375 12.2214C13.619 12.2214 13.8903 12.1058 14.1431 11.8774C16.0322 10.1755 22.454 4.72212 26.1139 1.62267C26.3418 1.43007 26.3765 1.09154 26.192 0.856073C25.7656 0.311971 25.1298 0 24.4483 0H2.22667C1.54528 0 0.90941 0.311972 0.483014 0.856125C0.29854 1.09154 0.333278 1.43007 0.561137 1.62267Z" fill="#9688BF"/>
<path d="M26.3363 3.30173C26.1394 3.21007 25.9078 3.24205 25.7439 3.38204C23.347 5.41376 20.1891 8.09818 17.8074 10.1467C17.6821 10.2542 17.6116 10.412 17.6143 10.5775C17.617 10.7424 17.6935 10.8981 17.8226 11.0012C20.0356 12.7736 23.3704 15.2117 25.7787 16.9445C25.8747 17.0139 25.9886 17.0492 26.1031 17.0492C26.1899 17.0492 26.2767 17.0292 26.3565 16.9879C26.542 16.893 26.6586 16.702 26.6586 16.4936V3.80573C26.6586 3.58928 26.5327 3.39235 26.3363 3.30173Z" fill="#9688BF"/>
<path d="M0.879978 16.944C3.28877 15.2112 6.62421 12.7732 8.83661 11.0007C8.96572 10.8976 9.04223 10.7419 9.04494 10.577C9.04764 10.4115 8.97712 10.2537 8.85181 10.1462C6.4701 8.0977 3.31153 5.41328 0.914717 3.38156C0.749773 3.24157 0.517591 3.21068 0.322284 3.30125C0.125882 3.39188 0 3.5888 0 3.80525V16.4932C0 16.7015 0.116664 16.8925 0.30218 16.9875C0.381918 17.0287 0.468738 17.0488 0.555559 17.0488C0.670036 17.0488 0.783939 17.0135 0.879978 16.944Z" fill="#9688BF"/>
<path d="M25.9735 18.4558C23.6477 16.7919 19.3634 13.6898 16.806 11.614C16.5977 11.4442 16.296 11.4497 16.0909 11.6265C15.5891 12.0643 15.1692 12.4333 14.8713 12.7012C13.9566 13.5269 12.6871 13.5269 11.7703 12.7001C11.4735 12.4327 11.0536 12.0627 10.5518 11.6265C10.3483 11.4485 10.0461 11.4431 9.83724 11.614C7.28845 13.6826 2.99929 16.7885 0.669707 18.4557C0.540023 18.5491 0.456483 18.6928 0.440234 18.8518C0.424505 19.0107 0.477108 19.1686 0.586168 19.2858C1.00668 19.7388 1.59911 19.9987 2.21055 19.9987H24.4322C25.0437 19.9987 25.6356 19.7388 26.0571 19.2858C26.1656 19.1692 26.2188 19.0113 26.203 18.8523C26.1867 18.6934 26.1032 18.5491 25.9735 18.4558Z" fill="#9688BF"/>
</svg>
