<svg width="20" height="20" viewBox="0 0 20 20" fill="none" xmlns="http://www.w3.org/2000/svg">
<path d="M10.0001 13.0807C11.7006 13.0807 13.0791 11.7022 13.0791 10.0017C13.0791 8.3012 11.7006 6.92267 10.0001 6.92267C8.29955 6.92267 6.92102 8.3012 6.92102 10.0017C6.92102 11.7022 8.29955 13.0807 10.0001 13.0807Z" fill="#9688BF"/>
<path d="M19.6932 9.14879C17.3265 6.28875 13.7438 3.53571 10 3.53571C6.25555 3.53571 2.67205 6.29067 0.306845 9.14879C-0.102282 9.64297 -0.102282 10.3604 0.306845 10.8546C0.901484 11.5731 2.14811 12.9603 3.8131 14.1722C8.00632 17.2248 11.9845 17.2315 16.187 14.1722C17.852 12.9603 19.0986 11.5731 19.6932 10.8546C20.1012 10.3614 20.1033 9.64459 19.6932 9.14879ZM10 5.69103C12.3771 5.69103 14.3107 7.62467 14.3107 10.0017C14.3107 12.3787 12.3771 14.3123 10 14.3123C7.62302 14.3123 5.68939 12.3787 5.68939 10.0017C5.68939 7.62467 7.62302 5.69103 10 5.69103Z" fill="#9688BF"/>
</svg>
