<svg width="20" height="20" viewBox="0 0 20 20" fill="none" xmlns="http://www.w3.org/2000/svg">
<path d="M17.039 6.62595C16.8239 6.44099 16.6077 6.26431 16.391 6.09509L13.8636 8.62248C14.0176 9.05322 14.1018 9.51693 14.1018 9.99994C14.1018 12.2615 12.2618 14.1015 10.0002 14.1015C9.5172 14.1015 9.05349 14.0173 8.62275 13.8633L6.72595 15.7601C7.83361 16.2145 8.93224 16.4452 10.0002 16.4452C11.2759 16.4452 12.5952 16.1173 13.9215 15.4704C14.9629 14.9624 16.0118 14.257 17.039 13.3739C18.7755 11.8807 19.8453 10.4042 19.8899 10.3421C20.037 10.1377 20.037 9.8622 19.8899 9.65779C19.8452 9.59564 18.7755 8.11916 17.039 6.62595Z" fill="#9688BF"/>
<path d="M10.0001 12.9297C11.6155 12.9297 12.9298 11.6154 12.9298 9.99998C12.9298 9.85944 12.9192 9.72131 12.9 9.586L9.58612 12.8999C9.72147 12.9191 9.85956 12.9297 10.0001 12.9297Z" fill="#9688BF"/>
<path d="M19.8286 0.171775C19.5998 -0.0570142 19.2287 -0.0570142 18.9999 0.171775L14.3965 4.77521C14.238 4.68896 14.0796 4.60681 13.9214 4.52967C12.5952 3.88279 11.2758 3.55482 10.0002 3.55482C8.72449 3.55482 7.40515 3.88279 6.0789 4.52963C5.03742 5.03763 3.98851 5.74303 2.96136 6.62615C1.22488 8.11935 0.155112 9.59584 0.110425 9.65799C-0.0366455 9.86236 -0.0366455 10.1379 0.110425 10.3423C0.155112 10.4044 1.22484 11.881 2.96136 13.3741C3.49351 13.8317 4.03152 14.241 4.57128 14.6003L0.171792 18.9999C-0.0570361 19.2287 -0.0570361 19.5997 0.171792 19.8285C0.286206 19.9429 0.436128 20.0001 0.586089 20.0001C0.73605 20.0001 0.886011 19.9429 1.00039 19.8285L19.8285 1.00037C20.0574 0.77158 20.0574 0.400564 19.8286 0.171775ZM5.89859 10.0001C5.89859 7.73853 7.73855 5.89857 10.0002 5.89857C10.9201 5.89857 11.7703 6.20302 12.4552 6.71646L11.6146 7.55709C11.1514 7.2499 10.5964 7.07045 10.0002 7.07045C8.38472 7.07045 7.07046 8.3847 7.07046 10.0001C7.07046 10.5964 7.24992 11.1513 7.5571 11.6146L6.71648 12.4552C6.20304 11.7703 5.89859 10.9201 5.89859 10.0001Z" fill="#9688BF"/>
</svg>
