<svg width="108" height="110" viewBox="0 0 108 110" fill="none" xmlns="http://www.w3.org/2000/svg">
<path d="M23.4555 51.7563L14.9618 27.2875C14.6025 25.8545 13.7151 24.6101 12.4774 23.8034C11.2396 22.9968 9.74284 22.6875 8.28675 22.9375C7.54006 23.0967 6.83349 23.4059 6.20986 23.8463C5.58623 24.2868 5.05855 24.8493 4.65881 25.4997C4.25907 26.1502 3.9956 26.875 3.88437 27.6304C3.77315 28.3857 3.81648 29.1557 4.01175 29.8938L12.7493 56.875L23.4555 51.7563Z" fill="#FFBFA1"/>
<path d="M84.543 51.7563L93.0367 27.2875C93.396 25.8545 94.2833 24.6101 95.5211 23.8034C96.7589 22.9968 98.2556 22.6875 99.7117 22.9375C100.458 23.0967 101.165 23.4059 101.789 23.8463C102.412 24.2868 102.94 24.8493 103.34 25.4997C103.739 26.1502 104.003 26.875 104.114 27.6304C104.225 28.3857 104.182 29.1557 103.987 29.8938L95.2492 56.875L84.543 51.7563Z" fill="#FFBFA1"/>
<path d="M40.9605 61.9038L24.3855 52.1875C23.2385 51.5251 21.8943 51.2896 20.5904 51.5225C19.2866 51.7555 18.1071 52.442 17.2605 53.4607L11.2118 34.7875C10.8525 33.3545 9.96513 32.1101 8.72737 31.3034C7.48962 30.4968 5.99284 30.1875 4.53675 30.4375C3.79006 30.5967 3.08349 30.9059 2.45986 31.3463C1.83623 31.7868 1.30855 32.3493 0.90881 32.9997C0.50907 33.6502 0.245599 34.375 0.134373 35.1304C0.0231462 35.8857 0.0664816 36.6557 0.261752 37.3938L8.418 67.825C8.79214 69.2483 9.58201 70.5278 10.6868 71.5L23.3618 82.7688C24.1526 83.473 24.7853 84.3366 25.2184 85.3029C25.6514 86.2691 25.8749 87.3162 25.8743 88.375V94.375H48.3743V74.845C48.3744 72.2287 47.6903 69.6579 46.3898 67.3877C45.0892 65.1175 43.2175 63.227 40.9605 61.9038Z" fill="#FFCEB6"/>
<path d="M103.463 30.4375C102.006 30.1875 100.51 30.4968 99.2719 31.3034C98.0341 32.1101 97.1468 33.3545 96.7875 34.7875L90.7313 53.4607C89.8847 52.442 88.7052 51.7555 87.4013 51.5225C86.0975 51.2896 84.7532 51.5251 83.6063 52.1875L67.0313 61.9038C64.7756 63.2279 62.9054 65.1189 61.6062 67.389C60.3071 69.6591 59.6241 72.2295 59.625 74.845V94.375H82.125V88.375C82.1243 87.3162 82.3478 86.2691 82.7809 85.3029C83.2139 84.3366 83.8467 83.473 84.6375 82.7688L97.3125 71.5C98.4172 70.5278 99.2071 69.2483 99.5813 67.825L107.737 37.3938C107.933 36.6557 107.976 35.8857 107.865 35.1304C107.754 34.375 107.49 33.6502 107.09 32.9997C106.691 32.3493 106.163 31.7868 105.539 31.3463C104.916 30.9059 104.209 30.5967 103.463 30.4375Z" fill="#FFCEB6"/>
<path d="M57.75 94.375V109.375H84V94.375H82.125H59.625H57.75Z" fill="#00BB97"/>
<path d="M50.25 94.375H48.375H25.875H24V109.375H50.25V94.375Z" fill="#00BB97"/>
<path d="M79.1997 29.7999L77.8684 31.1311L53.9997 54.9999L30.1309 31.1311L28.7997 29.7999C27.1781 28.2451 25.8833 26.3823 24.9912 24.3205C24.0991 22.2588 23.6276 20.0396 23.6044 17.7933C23.5812 15.5469 24.0068 13.3185 24.8562 11.2388C25.7056 9.1591 26.9617 7.2699 28.5508 5.68203C30.1399 4.09415 32.0301 2.83955 34.1105 1.99181C36.1909 1.14406 38.4196 0.720234 40.6659 0.745181C42.9123 0.770129 45.131 1.24335 47.1921 2.13709C49.2531 3.03082 51.115 4.32709 52.6684 5.94987L53.9997 7.28112L55.3309 5.94987C56.8844 4.32709 58.7462 3.03082 60.8073 2.13709C62.8683 1.24335 65.0871 0.770129 67.3334 0.745181C69.5798 0.720234 71.8085 1.14406 73.8889 1.99181C75.9693 2.83955 77.8594 4.09415 79.4486 5.68203C81.0377 7.2699 82.2938 9.1591 83.1432 11.2388C83.9925 13.3185 84.4181 15.5469 84.3949 17.7933C84.3717 20.0396 83.9003 22.2588 83.0082 24.3205C82.116 26.3823 80.8212 28.2451 79.1997 29.7999Z" fill="#D80027"/>
<path d="M79.2 5.9498C77.4161 4.14694 75.2448 2.77442 72.851 1.93651C70.4571 1.09861 67.9038 0.817372 65.385 1.11417C68.5429 1.46415 71.5376 2.69909 74.0243 4.67674C76.5109 6.65439 78.3883 9.29429 79.4402 12.2923C80.4921 15.2903 80.6756 18.5245 79.9696 21.6223C79.2637 24.7201 77.697 27.5554 75.45 29.8017L74.1187 31.1329L52.125 53.1248L54 54.9998L77.8687 31.1311L79.2 29.7998C82.3601 26.6357 84.1351 22.3467 84.1351 17.8748C84.1351 13.4029 82.3601 9.11387 79.2 5.9498Z" fill="#BD0022"/>
<path d="M57.75 36.25V28.75H65.25V21.25H57.75V13.75H50.25V21.25H42.75V28.75H50.25V36.25H57.75Z" fill="#F1F2F2"/>
<path d="M89.238 58.1873L76.7055 65.1248C76.3473 65.3322 76.0817 65.6684 75.9629 66.0649C75.8441 66.4614 75.881 66.8883 76.0661 67.2585C76.1651 67.4565 76.3035 67.6322 76.4729 67.7746C76.6423 67.9171 76.839 68.0234 77.051 68.087C77.263 68.1506 77.4858 68.1701 77.7056 68.1444C77.9255 68.1186 78.1377 68.0481 78.3293 67.9373L89.238 61.9373C90.3769 61.277 91.2482 60.2382 91.7001 59.0018C92.152 57.7653 92.1559 56.4095 91.7111 55.1704C91.2773 56.4412 90.3991 57.5126 89.238 58.1873Z" fill="#FFBFA1"/>
<path d="M18.7609 58.1873L31.2934 65.1248C31.6516 65.3322 31.9172 65.6684 32.036 66.0649C32.1548 66.4614 32.1179 66.8883 31.9328 67.2585C31.8339 67.4565 31.6954 67.6322 31.5261 67.7746C31.3567 67.9171 31.1599 68.0234 30.9479 68.087C30.7359 68.1506 30.5131 68.1701 30.2933 68.1444C30.0735 68.1186 29.8612 68.0481 29.6697 67.9373L18.7609 61.9373C17.622 61.277 16.7507 60.2382 16.2988 59.0018C15.8469 57.7653 15.843 56.4095 16.2878 55.1704C16.7216 56.4412 17.5999 57.5126 18.7609 58.1873Z" fill="#FFBFA1"/>
</svg>
