<svg width="36" height="36" viewBox="0 0 36 36" fill="none" xmlns="http://www.w3.org/2000/svg">
<path d="M8.49988 21.7503V9.75018H29.1459L26.1457 15.7496L29.1459 21.7503H8.49988Z" fill="#01A796"/>
<path d="M34 6.75006H8.49988V9.75021H29.1459L26.1457 15.7496L29.1459 21.7504H8.49988V24.7501H34L29.5 15.7496L34 6.75006Z" fill="#01A796"/>
<path d="M8.49988 6.75006H10.2999V9.75021H8.49988V6.75006Z" fill="#01A796"/>
<path d="M8.49988 21.7503H10.2999V24.75H8.49988V21.7503Z" fill="#01A796"/>
<path d="M10.0005 3.00015C10.0005 4.65705 8.65592 6.0003 7.00037 6.0003C5.34212 6.0003 4.00067 4.6575 4.00067 3.00015C4.00067 1.34325 5.34212 0 7.00037 0C8.65592 0 10.0005 1.34325 10.0005 3.00015Z" fill="#503895"/>
<path d="M10 33.0003H8.50015V5.59485C8.05825 5.8509 7.54705 5.99985 7.0003 5.99985C6.45355 5.99985 5.9419 5.8509 5.50045 5.59575V33.0003H4.00015C2.34325 33.0003 1 34.3417 1 36H13.0001C13.0001 34.3417 11.6569 33.0003 10 33.0003Z" fill="#503895"/>
<path d="M28.2459 19.9503H10.2999V9.75018H8.49988V21.7503H29.1459L28.2459 19.9503Z" fill="#01A796"/>
</svg>
