<svg width="12" height="12" viewBox="0 0 12 12" fill="none" xmlns="http://www.w3.org/2000/svg">
<g clipPath="url(#clip0_2_22194)">
<path d="M6.94976 7.27968C6.66779 7.46765 6.34028 7.56702 6.0026 7.56702C5.66495 7.56702 5.33743 7.46765 5.05547 7.27968L0.411397 4.18353C0.385632 4.16635 0.36053 4.14844 0.335938 4.13003V9.2034C0.335938 9.78507 0.807975 10.2467 1.37925 10.2467H10.6259C11.2076 10.2467 11.6692 9.77467 11.6692 9.2034V4.13C11.6446 4.14847 11.6195 4.16642 11.5936 4.18362L6.94976 7.27968Z" fill="#382768"/>
<path d="M0.779753 3.63096L5.42383 6.72713C5.59963 6.84434 5.80111 6.90293 6.00258 6.90293C6.20408 6.90293 6.40558 6.84432 6.58138 6.72713L11.2255 3.63096C11.5034 3.4458 11.6693 3.1359 11.6693 2.80144C11.6693 2.22634 11.2014 1.75848 10.6263 1.75848H1.37889C0.803814 1.75851 0.335938 2.22636 0.335938 2.80199C0.335938 3.1359 0.501865 3.4458 0.779753 3.63096Z" fill="#382768"/>
</g>
<defs>
<clipPath id="clip0_2_22194">
<rect width="11.3333" height="11.3333" fill="white" transform="translate(0.335938 0.335938)"/>
</clipPath>
</defs>
</svg>
