<svg width="547" height="524" viewBox="0 0 547 524" fill="none" xmlns="http://www.w3.org/2000/svg">
<path fillRule="evenodd" clipRule="evenodd" d="M511 24C372.929 24 261 135.929 261 274C261 412.071 372.929 524 511 524C649.071 524 761 412.071 761 274C761 135.929 649.071 24 511 24ZM511 124C428.157 124 361 191.157 361 274C361 356.843 428.157 424 511 424C593.843 424 661 356.843 661 274C661 191.157 593.843 124 511 124Z" fill="#F2F8F8"/>
<path d="M0 100C0 44.7715 44.7715 0 100 0C155.228 0 200 44.7715 200 100C200 155.228 155.228 200 100 200C44.7715 200 0 155.228 0 100Z" fill="#F2F8F8"/>
</svg>
