<svg width="36" height="36" viewBox="0 0 36 36" fill="none" xmlns="http://www.w3.org/2000/svg">
<g clipPath="url(#clip0_2_22271)">
<path d="M5.38715 8.4909C5.12664 7.96988 4.49306 7.7586 3.97211 8.01924L1.71276 9.14888C1.19175 9.40939 0.980598 10.0429 1.24111 10.5639C1.50246 11.0866 2.13689 11.2952 2.65614 11.0356L4.9155 9.90594C5.43644 9.64536 5.64759 9.01185 5.38715 8.4909Z" fill="#503895"/>
<path d="M1.71266 1.99827L3.97201 3.12798C4.49225 3.38807 5.12612 3.17819 5.38705 2.65633C5.64755 2.13531 5.43641 1.50179 4.91539 1.24129L2.65604 0.111577C2.13502 -0.148931 1.50158 0.0622876 1.241 0.583233C0.980564 1.10425 1.19171 1.73776 1.71266 1.99827Z" fill="#503895"/>
<path d="M31.0846 9.90584L33.344 11.0355C33.8643 11.2956 34.4981 11.0855 34.759 10.5638C35.0195 10.0428 34.8083 9.4093 34.2873 9.14879L32.0279 8.01915C31.5072 7.75885 30.8735 7.96979 30.6129 8.49081C30.3524 9.01182 30.5636 9.64541 31.0846 9.90584Z" fill="#503895"/>
<path d="M32.0279 3.128L34.2873 1.99828C34.8083 1.73778 35.0195 1.10426 34.759 0.583246C34.4985 0.06223 33.865 -0.148918 33.344 0.111589L31.0846 1.2413C30.5636 1.50181 30.3524 2.13532 30.6129 2.65634C30.8744 3.17932 31.5089 3.38745 32.0279 3.128Z" fill="#503895"/>
<path d="M7.31987 22.3929C9.43426 22.0501 10.8704 20.0582 10.5277 17.9438C10.1849 15.8293 8.193 14.3931 6.07862 14.7359C3.96423 15.0786 2.52805 17.0706 2.87081 19.185C3.21358 21.2994 5.20549 22.7357 7.31987 22.3929Z" fill="#503895"/>
<path d="M29.9116 22.397C32.026 22.0543 33.4622 20.0623 33.1194 17.9479C32.7767 15.8335 30.7847 14.3973 28.6704 14.74C26.556 15.0828 25.1198 17.0747 25.4625 19.1892C25.8053 21.3036 27.7972 22.7398 29.9116 22.397Z" fill="#503895"/>
<path d="M12.5967 24.6611L12.6503 24.6397C12.5229 24.387 12.4128 24.1242 12.3216 23.8528C12.0345 23.5932 11.6988 23.3808 11.3233 23.2306L10.7283 22.9926C9.66452 23.9612 8.25208 24.5531 6.70317 24.5531C5.15412 24.5531 3.74062 23.9618 2.67637 22.9932L2.08308 23.2306C0.817664 23.7367 0 24.9445 0 26.3077V34.9453C0 35.5278 0.472219 36 1.05469 36H9.36893C9.25186 35.6699 9.18752 35.315 9.18752 34.9453V29.6968C9.18752 27.466 10.5257 25.4893 12.5967 24.6611Z" fill="#503895"/>
<path d="M33.9169 23.2306L33.3236 22.9932C32.2594 23.9619 30.8458 24.5531 29.2968 24.5531C27.7479 24.5531 26.3355 23.9613 25.2717 22.9926L24.6768 23.2306C24.3012 23.3808 23.9655 23.5932 23.6784 23.8528C23.5872 24.1242 23.4771 24.387 23.3497 24.6397L23.4036 24.6612C25.4744 25.4893 26.8126 27.4659 26.8126 29.6968V34.9453C26.8126 35.315 26.7482 35.6699 26.6311 36H34.9453C35.5278 36 36 35.5278 36 34.9453V26.3077C36 24.9445 35.1823 23.7367 33.9169 23.2306Z" fill="#503895"/>
<path d="M22.6201 26.6197L22.0268 26.3823C20.9625 27.3509 19.549 27.9422 18 27.9422C16.4509 27.9422 15.0374 27.3509 13.9732 26.3823L13.3799 26.6197C12.1145 27.1257 11.2968 28.3336 11.2968 29.6969V34.9453C11.2968 35.5278 11.769 36 12.3515 36H23.6484C24.2309 36 24.7031 35.5278 24.7031 34.9453V29.6968C24.7031 28.3336 23.8855 27.1257 22.6201 26.6197Z" fill="#503895"/>
<path d="M18.615 25.7838C20.7294 25.441 22.1656 23.4491 21.8228 21.3346C21.4801 19.2202 19.4882 17.784 17.3738 18.1268C15.2594 18.4695 13.8232 20.4615 14.166 22.5759C14.5087 24.6903 16.5007 26.1265 18.615 25.7838Z" fill="#503895"/>
<path d="M17.2542 15.3546C17.452 15.5524 17.7203 15.6635 18 15.6635C18.2798 15.6635 18.548 15.5524 18.7458 15.3546L26.257 7.8428C28.0487 6.05103 28.0487 3.13566 26.257 1.34389C24.4652 -0.447882 21.5499 -0.447882 19.7583 1.34368L18 3.10149L16.2418 1.34382C14.4501 -0.447952 11.5346 -0.447882 9.74307 1.34368C7.94483 3.14122 7.94785 6.04836 9.74293 7.8428L17.2542 15.3546Z" fill="#01A796"/>
</g>
<defs>
<clipPath id="clip0_2_22271">
<rect width="36" height="36" fill="white"/>
</clipPath>
</defs>
</svg>
