<svg width="36" height="36" viewBox="0 0 36 36" fill="none" xmlns="http://www.w3.org/2000/svg">
<g clipPath="url(#clip0_2_22239)">
<path d="M1 9.99988H11V35.9999H2.4C1.6268 35.9999 1 35.3731 1 34.5999V9.99988Z" fill="#01A796"/>
<path d="M0 9.39988C0 9.17896 0.179086 8.99988 0.4 8.99988H10.7445C10.9654 8.99988 11.1445 9.17896 11.1445 9.39988V10.7093C11.1445 10.9302 10.9654 11.1093 10.7445 11.1093H0.4C0.179086 11.1093 0 10.9302 0 10.7093V9.39988Z" fill="#01A796"/>
<path d="M10 4.99988H35V34.5999C35 35.3731 34.3732 35.9999 33.6 35.9999H10V4.99988Z" fill="#503895"/>
<path d="M9.14062 4.39988C9.14062 4.17896 9.31971 3.99988 9.54063 3.99988H35.6C35.8209 3.99988 36 4.17896 36 4.39988V5.70925C36 5.93017 35.8209 6.10925 35.6 6.10925H9.54062C9.31971 6.10925 9.14062 5.93017 9.14062 5.70925V4.39988Z" fill="#503895"/>
<path d="M22.5703 3.99988H36V6.10925H22.5703V3.99988Z" fill="#503895"/>
<path d="M6 18.0001C6 17.4478 6.44772 17.0001 7 17.0001C7.55228 17.0001 8 17.4478 8 18.0001V19.0001C8 19.5524 7.55228 20.0001 7 20.0001C6.44772 20.0001 6 19.5524 6 19.0001V18.0001Z" fill="white"/>
<path d="M6 23.0001C6 22.4478 6.44772 22.0001 7 22.0001C7.55228 22.0001 8 22.4478 8 23.0001V24.0001C8 24.5524 7.55228 25.0001 7 25.0001C6.44772 25.0001 6 24.5524 6 24.0001V23.0001Z" fill="white"/>
<path d="M6 28.0001C6 27.4478 6.44772 27.0001 7 27.0001C7.55228 27.0001 8 27.4478 8 28.0001V29.0001C8 29.5524 7.55228 30.0001 7 30.0001C6.44772 30.0001 6 29.5524 6 29.0001V28.0001Z" fill="white"/>
<path d="M17.3805 -0.00012207C16.6073 -0.00012207 15.9805 0.626679 15.9805 1.39988V10.8111C15.9805 11.5843 16.6073 12.2111 17.3805 12.2111H27.757C28.5302 12.2111 29.157 11.5842 29.157 10.8111V1.39988C29.157 0.626678 28.5302 -0.00012207 27.757 -0.00012207H17.3805Z" fill="#01A796"/>
<path d="M24.67 5.0507C25.2223 5.0507 25.67 5.49841 25.67 6.0507V6.16007C25.67 6.71236 25.2223 7.16007 24.67 7.16007H23.626V8.20406C23.626 8.75634 23.1783 9.20406 22.626 9.20406H22.5166C21.9644 9.20406 21.5166 8.75634 21.5166 8.20406V7.16007H20.4727C19.9204 7.16007 19.4727 6.71236 19.4727 6.16007V6.0507C19.4727 5.49841 19.9204 5.0507 20.4727 5.0507H21.5166V4.00671C21.5166 3.45443 21.9644 3.00671 22.5166 3.00671H22.626C23.1783 3.00671 23.626 3.45443 23.626 4.00671V5.0507H24.67Z" fill="white"/>
<path d="M24 21.9999C24 21.4476 24.4477 20.9999 25 20.9999C25.5523 20.9999 26 21.4476 26 21.9999V22.9999C26 23.5522 25.5523 23.9999 25 23.9999C24.4477 23.9999 24 23.5522 24 22.9999V21.9999Z" fill="white"/>
<path d="M28 21.9999C28 21.4476 28.4477 20.9999 29 20.9999C29.5523 20.9999 30 21.4476 30 21.9999V22.9999C30 23.5522 29.5523 23.9999 29 23.9999C28.4477 23.9999 28 23.5522 28 22.9999V21.9999Z" fill="white"/>
<path d="M19 21.9999C19 21.4476 19.4477 20.9999 20 20.9999C20.5523 20.9999 21 21.4476 21 21.9999V22.9999C21 23.5522 20.5523 23.9999 20 23.9999C19.4477 23.9999 19 23.5522 19 22.9999V21.9999Z" fill="white"/>
<path d="M15 21.9999C15 21.4476 15.4477 20.9999 16 20.9999C16.5523 20.9999 17 21.4476 17 21.9999V22.9999C17 23.5522 16.5523 23.9999 16 23.9999C15.4477 23.9999 15 23.5522 15 22.9999V21.9999Z" fill="white"/>
<path d="M28 16.9999C28 16.4476 28.4477 15.9999 29 15.9999C29.5523 15.9999 30 16.4476 30 16.9999V17.9999C30 18.5522 29.5523 18.9999 29 18.9999C28.4477 18.9999 28 18.5522 28 17.9999V16.9999Z" fill="white"/>
<path d="M24 16.9999C24 16.4476 24.4477 15.9999 25 15.9999C25.5523 15.9999 26 16.4476 26 16.9999V17.9999C26 18.5522 25.5523 18.9999 25 18.9999C24.4477 18.9999 24 18.5522 24 17.9999V16.9999Z" fill="white"/>
<path d="M19 16.9999C19 16.4476 19.4477 15.9999 20 15.9999C20.5523 15.9999 21 16.4476 21 16.9999V17.9999C21 18.5522 20.5523 18.9999 20 18.9999C19.4477 18.9999 19 18.5522 19 17.9999V16.9999Z" fill="white"/>
<path d="M15 16.9999C15 16.4476 15.4477 15.9999 16 15.9999C16.5523 15.9999 17 16.4476 17 16.9999V17.9999C17 18.5522 16.5523 18.9999 16 18.9999C15.4477 18.9999 15 18.5522 15 17.9999V16.9999Z" fill="white"/>
<path d="M19 27.9999C19 27.4476 19.4477 26.9999 20 26.9999H26C26.5523 26.9999 27 27.4476 27 27.9999V35.9999H19V27.9999Z" fill="white"/>
<path d="M21 28.9999H25.2188V36.0311H21V28.9999Z" fill="#503895"/>
</g>
<defs>
<clipPath id="clip0_2_22239">
<rect width="36" height="36" fill="white"/>
</clipPath>
</defs>
</svg>
