<svg width="36" height="36" viewBox="0 0 36 36" fill="none" xmlns="http://www.w3.org/2000/svg">
<g clipPath="url(#clip0_2_4386)">
<path d="M36 18C36 8.05885 27.9412 0 18 0C13.4285 0 10.0156 1.70181 8.21968 2.86101L6.0625 8.25219C6.0625 18.1933 14.4458 26.2502 24.3869 26.2502C28.215 26.2502 32.4741 24.4155 35.3245 22.2095C35.3882 22.1602 35.5905 21.8286 35.5905 21.8286C35.6031 21.7519 36 20.1714 36 18Z" fill="#503895"/>
<path d="M24.3853 25.7422C14.4442 25.7422 6.38534 17.6833 6.38534 7.74219L3.05824 7.96143C1.12729 10.8293 0 14.2831 0 18.0001C0 21.728 1.13322 25.1911 3.07391 28.0638L4.67958 29.0514L5.24026 30.6962C8.50016 33.9723 13.0133 36.0001 18 36.0001C22.9588 36.0001 27.4853 33.9839 30.759 30.6965L31.3192 29.273L32.9261 28.0645C34.1795 26.2093 35.0979 24.1032 35.5906 21.8288C32.5158 24.2778 28.6218 25.7422 24.3853 25.7422Z" fill="#503895"/>
<path d="M13.1156 24.6733H3.05859V27.7504C3.05859 27.8561 3.06396 27.9605 3.07433 28.0633C3.71288 29.0086 4.43888 29.8899 5.24076 30.6957C5.52417 30.7818 5.82488 30.8281 6.13638 30.8281H13.1157V24.6733H13.1156Z" fill="#FFE177"/>
<path d="M14.9717 29.2725L18.023 35.4251L21.0298 29.2725H14.9717Z" fill="#01A796"/>
<path d="M32.9417 22.7619V5.93856C32.9417 4.23879 31.5637 2.86084 29.864 2.86084H12.9611V24.6735H12.9209V25.4492H30.2543C31.7385 25.4492 32.9417 24.246 32.9417 22.7619Z" fill="#01A796"/>
<path d="M32.9421 22.1738C32.9421 23.8735 31.5642 25.2515 29.8644 25.2515H16.2007C14.5009 25.2515 13.123 23.8735 13.123 22.1738V2.86084H8.22008C7.29481 3.45809 6.79878 3.9114 6.79476 3.91359C5.35271 5.06242 4.09081 6.42809 3.05859 7.96112V27.7505C3.05859 27.8562 3.06396 27.9606 3.07433 28.0635C3.71288 29.0087 4.43888 29.89 5.24076 30.6958C5.52417 30.7819 5.82488 30.8283 6.13638 30.8283H29.8645C30.1757 30.8283 30.4762 30.782 30.7594 30.696C31.5609 29.8913 32.2872 29.0103 32.9265 28.0641C32.9369 27.961 32.9423 27.8563 32.9423 27.7505V22.1738H32.9421Z" fill="#01A796"/>
<path d="M10.3629 18.1143H7.97475V21.3666C7.97475 21.7506 7.50668 21.9426 7.03861 21.9426C6.57061 21.9426 6.10254 21.7506 6.10254 21.3666V13.734C6.10254 13.338 6.57061 13.1699 7.03861 13.1699C7.50668 13.1699 7.97475 13.338 7.97475 13.734V16.6742H10.3629V13.734C10.3629 13.338 10.831 13.1699 11.299 13.1699C11.767 13.1699 12.2351 13.338 12.2351 13.734V21.3666C12.2351 21.7506 11.767 21.9426 11.299 21.9426C10.831 21.9426 10.3629 21.7506 10.3629 21.3666V18.1143Z" fill="white"/>
<path d="M13.4346 19.1824V16.0022C13.4346 13.938 14.7186 13.1699 16.3748 13.1699C18.0309 13.1699 19.327 13.938 19.327 16.0022V19.1824C19.327 21.2466 18.0309 22.0147 16.3748 22.0147C14.7186 22.0147 13.4346 21.2466 13.4346 19.1824ZM17.4549 16.0022C17.4549 15.1741 17.0469 14.8021 16.3748 14.8021C15.7027 14.8021 15.3067 15.1741 15.3067 16.0022V19.1824C15.3067 20.0105 15.7027 20.3826 16.3748 20.3826C17.0469 20.3826 17.4549 20.0105 17.4549 19.1824V16.0022Z" fill="white"/>
<path d="M28.4718 21.3906C28.3278 21.8106 27.7878 22.0147 27.2357 22.0147C26.6957 22.0147 26.1196 21.8106 26.0236 21.3906L25.3995 18.5463L24.7755 21.3906C24.6795 21.8106 24.1034 22.0147 23.5634 22.0147C23.0113 22.0147 22.4593 21.8106 22.3273 21.3906L19.939 14.07C19.927 14.034 19.915 13.9741 19.915 13.914C19.915 13.506 20.5871 13.1699 21.1272 13.1699C21.4152 13.1699 21.6552 13.2659 21.7272 13.518L23.5514 19.6745L24.4995 15.6182C24.5715 15.2941 24.9915 15.1261 25.3995 15.1261C25.8075 15.1261 26.2276 15.2941 26.2996 15.6182L27.2477 19.6745L29.0719 13.518C29.1439 13.266 29.3839 13.1699 29.672 13.1699C30.212 13.1699 30.884 13.506 30.884 13.914C30.884 13.9741 30.872 14.034 30.86 14.07L28.4718 21.3906Z" fill="white"/>
<path d="M30.0017 10.0006H6.68537C6.29559 10.0006 5.97949 9.68454 5.97949 9.29475C5.97949 8.90496 6.29559 8.58887 6.68537 8.58887H30.0017C30.3914 8.58887 30.7075 8.90496 30.7075 9.29475C30.7075 9.68454 30.3915 10.0006 30.0017 10.0006Z" fill="white"/>
<path d="M30.0017 26.0958H6.68537C6.29559 26.0958 5.97949 25.7798 5.97949 25.39C5.97949 25.0002 6.29559 24.6841 6.68537 24.6841H30.0017C30.3914 24.6841 30.7075 25.0002 30.7075 25.39C30.7075 25.7798 30.3915 26.0958 30.0017 26.0958Z" fill="white"/>
</g>
<defs>
<clipPath id="clip0_2_4386">
<rect width="36" height="36" fill="white"/>
</clipPath>
</defs>
</svg>
