<svg width="12" height="12" viewBox="0 0 12 12" fill="none" xmlns="http://www.w3.org/2000/svg">
<g clipPath="url(#clip0_2_22170)">
<path d="M8.85527 0.283875H3.14113C1.56988 0.283875 0.284058 1.5697 0.284058 3.14095V8.85537C0.284058 10.4262 1.56988 11.7124 3.14113 11.7124H8.85527C10.4265 11.7124 11.7123 10.4262 11.7123 8.85537V3.14095C11.7123 1.5697 10.4265 0.283875 8.85527 0.283875Z" fill="#382768"/>
<path d="M9.09378 3.61707C9.48826 3.61707 9.80805 3.29729 9.80805 2.90281C9.80805 2.50833 9.48826 2.18854 9.09378 2.18854C8.69931 2.18854 8.37952 2.50833 8.37952 2.90281C8.37952 3.29729 8.69931 3.61707 9.09378 3.61707Z" fill="#F2F8F8"/>
<path d="M5.99819 3.14093C4.41993 3.14093 3.14111 4.41989 3.14111 5.99801C3.14111 7.57554 4.41993 8.85536 5.99819 8.85536C7.57599 8.85536 8.85526 7.57554 8.85526 5.99801C8.85526 4.41989 7.57599 3.14093 5.99819 3.14093ZM5.99819 7.90296C4.94634 7.90296 4.09352 7.05013 4.09352 5.99801C4.09352 4.94588 4.94634 4.09334 5.99819 4.09334C7.05003 4.09334 7.90286 4.94588 7.90286 5.99801C7.90286 7.05013 7.05003 7.90296 5.99819 7.90296Z" fill="#F2F8F8"/>
</g>
<defs>
<clipPath id="clip0_2_22170">
<rect width="11.4286" height="11.4286" fill="white" transform="translate(0.283875 0.283875)"/>
</clipPath>
</defs>
</svg>
