<svg width="1440" height="600" viewBox="0 0 1440 600" fill="none" xmlns="http://www.w3.org/2000/svg">
<path d="M67.0427 231.565H1.79067V219.364H-2.80642V231.565H-14.1327V236.727H-20.873V588.072H60.3014V578.308H67.0427V231.565Z" fill="#F2F8F8"/>
<path d="M1140.32 158.909V154.496H1062.24V158.909H1045.76V591.365H1146.77V158.909H1140.32" fill="#F2F8F8"/>
<path d="M1274.13 184.04V177.33H1272.94V184.04H1269V180.055H1266.62V184.04H1258.38V168.27H1257.19V184.04H1253.25V180.055H1250.87V184.04H1242.63V168.27H1241.44V184.04H1226.89V177.33H1225.7V184.04H1221.76V180.055H1219.37V184.04H1212.57V177.33H1211.37V184.04H1185.57V594.699H1306.75V184.04H1274.13Z" fill="#F2F8F8"/>
<path d="M1370.46 380.244V356.966H1377.18V343.629H1382.14L1386.03 331.444V226.301H1451.38V589.686H1399.1H1386.03H1368.34V386.874L1370.46 380.244" fill="#F2F8F8"/>
<path d="M211.561 132.707H174.051V126.776H168.748V120.845H166.097V117.877L149.426 103.045L132.755 117.877V120.845H130.104V126.776H124.798V132.707H87.2891V536.388V542.326V587.56H90.3189V542.326H93.2097V587.56H96.2405V554.188H100.123V587.56H103.154V566.054H106.943V587.56H109.977V566.054H114.804V587.56H117.835V566.054H121.295V587.56H177.558V566.054H180.495V587.56H183.526V566.054H186.414V587.56H189.444V566.054H193.33V587.56H196.361V566.054H198.3V554.188H200.147V587.56H203.177V554.188H205.31V542.326H208.011V587.56H211.042V542.326H211.561V132.707Z" fill="#F2F8F8"/>
<path d="M378.872 116.577C375.415 104.24 372.944 91.9024 371.461 89.7266C370.308 88.0351 354.259 75.8436 345.767 70.1482V68.3045H342.913C341.928 67.7055 341.2 67.3237 340.834 67.2337C337.871 66.5074 308.723 67.2337 308.723 67.2337L308.58 68.3045H306.743V72.3704H308.036L303.784 104.24H286.986L286.548 105.028H283.306V109.091H284.365C277.101 122.881 272.171 131.283 270.091 148.478C268.982 157.646 267.947 166.796 267.558 171.967C267.02 179.047 266.824 301.713 266.756 412.567H242.551V413.771H240.244V417.841H242.551V591.375H266.731V591.387H382.823V170.517C382.823 170.517 382.328 128.912 378.872 116.577" fill="#F2F8F8"/>
<path d="M942.86 16.6764V15.7359H942.26V14.9476H940.401V15.7359H939.798V16.5584C938.971 16.5336 938.154 16.4622 937.314 16.4622V53.2293C904.62 55.3616 886.168 76.5975 886.168 102.526V464.285L863.924 464.273V587.56H886.168H920.47H937.314H942.717H993.863V65.9671C993.863 40.0787 975.489 18.8645 942.86 16.6764" fill="#F2F8F8"/>
<path d="M867.206 8.80842V7.11067H849.249V3.27129H848.236V3.30546V7.11067H813.859V5.41293H812.718V-1.0229e-05H811.702V5.41293H810.689V1.7629H809.675V5.41293H808.531V7.11067H772.884V3.30546H771.87V7.11067H755.187V7.13242V8.80842H750.643V8.84881V205.993V206.462V213.051V213.52V380.08V380.546V387.138V387.607V553.506V553.974V587.582V588.386H754.108H760.872H763.878H770.642H773.648H780.412H783.421H790.182H793.188H799.952H802.961H809.722H812.728H819.495H822.501H829.265H832.271H839.035H841.978H848.742H851.748H858.512H861.521H868.282H871.751V587.582V587.538V553.974V553.506V387.607V387.138V380.546V380.08V213.52V213.051V206.462V205.993V9.65885V8.84881V8.80842H867.206" fill="#F2F8F8"/>
<path d="M827.454 492.613V505.674H801.439V503.818H799.851V505.674H772.058V503.818H770.47V505.674H743.147V492.613H720.461V500.832H702.342V72.4105H701.487V69.822H663.166V53.5614H662.128V50.9729H653.499V47.8785H651.354V46.6648H649.548V47.8785H642.234V43.3749H641.323V47.8785H635.255V42.6362H631.886V37.4901H631.475V32.94H631.102V23.4611H630.608V32.94H630.235V37.4901H629.825V42.6362H626.452V47.8785H624.606V45.6623H623.611V42.6858H623.198V40.0476H622.828V34.5509H622.334V40.0476H621.961V42.6858H621.547V45.6623H620.689V41.1557H619.778V45.6623H608.203V47.8785H603.024V45.0447H602.614V42.4034H602.241V36.9066H601.746V42.4034H601.376V45.0447H600.963V47.8785H598.47V46.6648H596.664V47.8785H587.391V43.3749H586.481V47.8785H579.309V50.9729H571.66V53.5614H570.621V399.637H569.58V397.048H548.166V399.637H546.627V436.925H546.077V434.849H524.663V436.925H523.121V588.37H546.627H547.115H570.621H590.882H593.472H597.92H599.999H600.04H600.083H607.711H609.667H609.794H609.875H627.913H642.905H663.166H684.223H702.342H720.461H743.147H745.677H824.924H827.454H850.14V492.613H827.454" fill="#F2F8F8"/>
<path d="M52.0367 559.49H4.83299V362.193H-3.30494V358.581H-3.33634H-3.60335H-3.63631V362.193H-4.72427V354.065H-4.7569H-5.02548H-5.05438V362.193H-8.34157V357.454H-8.64619H-8.67791V362.193H-11.8495H-11.8796H-13.3151V361.563H-13.3465H-14.1612V360.936L-14.1942 357.066H-15.1714V355.557H-15.2032H-38.4911H-38.5225V357.066H-39.4929L-39.5243 360.936V361.563H-40.3487H-40.3804V362.193H-41.8109H-41.8423H-49.8382V358.323H-50.1428H-50.1745V362.193H-52.0054H-52.0371H-55.1079H-55.1393H-58.4955H-58.5272V362.69V377.458V382.833V383.541V384.252V388.492V389.196V389.907V394.14V394.848V395.556V399.795V400.5V401.208V405.447V406.152V406.86V411.102V411.807V412.515V416.754V417.459V418.167V422.406V423.111V423.819V428.061V428.766V429.474V433.71V434.418V435.126V439.362V440.073V440.781V445.017V445.722V446.432V450.666V451.377V452.081V456.324V457.032V457.736V461.973V462.681V463.388V467.628V468.336V469.043V473.28V473.991V474.695V478.935V479.64V480.353V484.587V485.295V485.999V490.242V490.95V491.654V495.897V496.602V497.306V501.549V502.257V502.958V507.195V507.906V508.616V512.856V513.557V514.262V518.502V519.216V519.92V524.16V524.868V525.572V529.815V530.516V531.224V535.47V536.171V536.882V541.119V541.823V542.528V546.771V547.472V548.186V552.417V553.127V553.835V558.078V558.779V559.49H-105.721H-105.754V587.058H-105.721H-100.978H-100.947H-100.195H-100.163H-99.1618H-99.1301H-94.1578H-94.1249H-93.1159H-93.0857H-88.106H-88.0755H-87.069H-87.0376H-82.0628H-82.0299H-81.0172H-80.9858H-76.011H-75.9784H-74.9802H-74.9485H-74.1969H-74.1652H52.0367H52.0681V559.49H52.0367Z" fill="#01A796" fill-opacity="0.1"/>
<path d="M839.041 502.688V317.952H831.988V247.602H826.719V202.626H822.51V176.644H814.751V170.306H810.542V165.874H807.832V162.714H767.77V165.874H765.069V170.306H760.86V176.644H753.101V202.626H748.893V247.602H743.617V317.952H743.254H736.568H736.204V247.602H730.923V202.626H726.711V176.644H718.952V170.306H714.746V165.874H712.036V162.714H671.983V165.874H669.273V170.306H665.064V176.644H657.305V202.626H653.096V247.602H647.818V317.952H640.771V502.688H633.83V588.215H729.62H750.195H845.982V502.688H839.041Z" fill="#01A796" fill-opacity="0.1"/>
<path d="M122.695 464.822H18.3594V592.197H122.698V567.82V566.337V562.581V561.095V557.339V555.852V551.048V549.564V545.808V544.322V539.517V538.034V534.275V532.788V527.984V526.5V522.744V521.258V516.453V514.966V511.211V509.727V504.923V503.436V499.677V498.194V493.389V491.902V488.147V486.663V481.859V480.372V464.822H122.695" fill="#01A796" fill-opacity="0.1"/>
<path d="M1251.82 379.782H1164.91V592.197H1251.82V551.547V549.071V542.807V540.33V534.067V531.59V523.576V521.103V514.836V512.359V504.345V501.869V495.605V493.128V485.114V482.638V476.374V473.897V465.884V463.407V457.143V454.667V446.653V444.176V437.913V435.436V427.422V424.945V418.682V416.205V408.191V405.714V379.782" fill="#01A796" fill-opacity="0.1"/>
<path d="M1430.35 519.47H1318.04V590.313H1430.35V576.756V575.931V573.842V573.016V570.924V570.102V567.426V566.604V564.512V563.686V561.014V560.185V558.1V557.274V554.602V553.773V551.684V550.862V548.186V547.361V545.272V544.443V541.774V540.945V538.856V538.031V535.358V534.533V532.444V531.615V528.946V528.117V519.47" fill="#01A796" fill-opacity="0.1"/>
<path d="M121.087 527.738V530.913H134.099V405.906H132.589V402.415H134.099V400.829H132.589V397.334H134.099V395.745H132.589V392.253H134.099V390.667H132.589V387.172H134.099V385.586H132.589V382.091H134.099V380.505H132.589V377.01H134.099V375.424H132.589V371.933H134.099V370.344H132.589V366.849H134.099V365.263H132.589V361.771H134.099V359.123H131.476V355.632H139.188V329.697H138.538V326.205H139.188V324.616H138.538V321.124H139.188V319.538H138.538V316.043H139.188V314.454H138.538V310.962H139.188V309.376H138.538V305.882H139.188V304.296H138.538V300.801H139.188V299.215H138.538V295.72H139.188V294.134H138.538V290.639H139.188V289.053H138.538V285.558H139.188V282.914H137.174V279.419H143.005V226.18H142.315V222.685H143.005V221.099H142.315V217.604H143.005V216.019H142.315V212.524H143.005V210.938H142.315V207.443H143.005V205.857H142.315V202.365H143.005V200.776H142.315V197.281H143.005V195.695H142.315V192.203H143.005V190.614H142.315V187.122H143.005V185.533H142.315V182.042H143.005V179.397H141.044V175.902H143.005H155.249V160.502H178.942V149.545H188.957V147.481H192.296V135.734H193.409V99.5313H193.835V87.8364H194.577V99.5313H195V135.734H196.116V147.481H199.452V149.545H209.47V160.502H233.163V175.902H245.407H247.368V179.397H245.407V182.042H246.097V185.533H245.407V187.122H246.097V190.614H245.407V192.203H246.097V195.695H245.407V197.281H246.097V200.776H245.407V202.365H246.097V205.857H245.407V207.443H246.097V210.938H245.407V212.524H246.097V216.019H245.407V217.604H246.097V221.099H245.407V222.685H246.097V226.18H245.407V279.419H251.238V282.914H249.224V285.558H249.874V289.053H249.224V290.639H249.874V294.134H249.224V295.72H249.874V299.215H249.224V300.801H249.874V304.296H249.224V305.882H249.874V309.376H249.224V310.962H249.874V314.454H249.224V316.043H249.874V319.538H249.224V321.124H249.874V324.616H249.224V326.205H249.874V329.697H249.224V355.632H256.936V359.123H254.313V361.771H255.823V365.263H254.313V366.849H255.823V370.344H254.313V371.933H255.823V375.424H254.313V377.01H255.823V380.505H254.313V382.091H255.823V385.586H254.313V387.172H255.823V390.667H254.313V392.253H255.823V395.745H254.313V397.334H255.823V400.829H254.313V402.415H255.823V405.906H254.313V530.913H267.321V527.738H320.46V588.072H276.289H267.321H121.087H112.126H81.3086V527.738H121.087" fill="#01A796" fill-opacity="0.1"/>
<path d="M346.516 348.574V336.662H307.107V348.574H280.533V591.387H453.167V348.574H346.516" fill="#01A796" fill-opacity="0.1"/>
<path d="M955.353 289.109V292.2H965.76V287.877H1032.78V292.2H1041.69V289.109H1049.65V295.282H1049.45V296.139V297.539V299.41V307.16V309.941V314.802V315.786V319.398V320.407V324.017V325.013V328.617V328.62V329.616V333.642V334.629V334.644V338.235V338.254V339.25V342.857V343.85V343.862V347.456V347.469V348.459V352.404V353.394V353.462V357.007V357.072V358V361.197V361.399V361.7V361.945V365.142V365.315V366.141V368.714V369.717V372.29V373.286V375.874V376.877V379.453V380.443V383.035V384.025V386.607V386.613V387.597V390.18V391.176V393.761V394.758V397.334V398.33V400.912V401.909V404.488V404.528V405.491V408.067V409.069V411.645V411.683V412.632V415.233V416.223V418.806V418.846V419.802V422.39V423.371V425.96V426.95V429.538V430.535V433.111V434.098V436.674V437.683V440.268V441.268V444.235V445.237V446.789V447.258V448.493V448.89V452.755V456.246V457.603V458.599V462.224V463.202V466.824V467.82V471.43V471.433V472.42V476.455V477.448V481.061V482.057V485.667V486.666V490.276V491.278V495.211V496.201V499.811V500.807V504.004V504.51V504.938V507.952V508.945V511.524V512.53V515.112V516.102V518.688V519.672V522.257V523.25V525.842V526.835V529.414V530.407V532.984V533.986V536.568V537.559V540.153V541.137V543.589V543.729V544.719V547.295V548.301V550.88V551.879V554.449V555.452V555.591V558.034V559.024V561.606V562.612V565.055V565.188V566.185V568.761V569.763V572.206V572.345V573.339V575.915V576.917V577.051V579.493V580.49V583.078V584.071H1090.51H1090.61V586.641H1090.71V593.656H1090.61H1089.53H1063.42H1062.25H1049.45V593.671H1047.56H1046.86H1044.25H1043.56H1041.4H1040.71H1037.99H1037.29H1035.13H1034.44H1032.52H1031.71H1031.03H1029.67H1028.86H1028.17H1026.4H1025.6H1025.44H1024.76H1023.4H1022.59H1021.9H1019.98H1019.18H1018.48H1017.13H1016.32H1015.63H1012.9H1012.21H1010.86H1010.06H1009.36H1006.63H1005.94H1003.78H1003.09H1000.37H999.679H997.513H996.822H994.096H993.403H991.246H990.556H987.82H987.143H984.967H984.283H982.116H981.433H978.706H978.01H966.813H966.005H961.113H960.307H947.404V593.656V589.609V588.606V587.644V586.654V586.641V584.071V583.078V580.49V579.493V576.917V575.915V573.339V572.345V569.763V568.761V566.185V565.188V562.612V561.606V559.024V558.034V555.452V554.449V551.879V550.88V548.301V547.295V544.719V543.729V541.137V540.153V537.559V536.568V533.986V532.984V530.407V529.414V526.835V525.842V523.25V522.257V519.672V518.688V516.102V515.112V512.53V511.524V508.945V507.952V504.51V504.004V452.755H947.445V448.89H947.404V445.237V444.235V441.268V440.268V437.683V436.674V434.098V433.111V430.535V429.538V426.95V425.96V423.371V422.39V419.802V418.806V416.223V415.233V412.632V411.645V409.069V408.067V405.491V404.488V401.909V400.912V398.33V397.334V394.758V393.761V391.176V390.18V387.597V386.607V384.025V383.035V380.443V379.453V376.877V375.874V373.286V372.29V369.717V368.714V366.141V365.142V361.7V361.197V309.941V297.539V296.139V295.282V292.2V289.109H955.353" fill="#01A796" fill-opacity="0.1"/>
<path d="M408.541 207.762H449.33V189.177H457.241V188.758H456.423V188.314H457.241V187.073H456.423V186.616H457.241V185.375H456.423V184.919H457.241V183.671H456.423V183.227H457.241V181.979H456.423V181.536H457.241V180.294H456.423V179.844H457.241V178.603H456.423V178.152H457.241V176.905H456.423V176.461H457.241V175.632H460.371V176.461H461.052V176.905H460.371V178.152H461.052V178.603H460.371V179.844H461.052V180.294H460.371V181.536H461.052V181.979H460.371V183.227H461.052V183.671H460.371V184.919H461.052V185.375H460.371V186.616H461.052V187.073H460.371V188.314H461.052V188.758H460.371V189.177H484.604V188.758V188.314V187.073V186.616V185.375V184.919V183.671V183.227V181.979V181.536V180.294V179.844V178.603V178.152V176.905V176.461V171.482H487.735V176.461V176.905V178.152V178.603V179.844V180.294V181.536V181.979V183.227V183.671V184.919V185.375V186.616V187.073V188.314V188.758V189.177H511.353V189.025H510.538V188.575H511.353V191.887H510.538V191.446H511.353V190.198H510.538V189.745H511.353V188.503H510.538V188.047H511.353V191.365H510.538V190.921H511.353V189.68H510.538V189.233H511.353V187.985H510.538V187.532H511.353V182.135H510.538V181.685H511.353V180.871H514.486V181.685H515.164V182.135H514.486V187.532H515.164V187.985H514.486V189.233H515.164V189.68H514.486V190.921H515.164V191.365H514.486V188.047H515.164V188.503H514.486V189.745H515.164V190.198H514.486V191.446H515.164V191.887H514.486V188.575H515.164V189.025H514.486V189.177H522.978V207.762H544.395H556.509V590.608H544.395H408.541H396.424V207.762H408.541" fill="#01A796" fill-opacity="0.1"/>
<path d="M527.115 399.746V280.059H529.319V278.882H532.626V280.059H535.893V278.882H539.2V280.059H542.548V278.882H545.859V280.059H550.108V278.882H553.418V280.059H556.685V278.882H559.996V280.059H563.338V278.882H566.645V280.059H570.897V278.882H574.205V280.059H577.475V278.882H580.782V280.059H584.13V278.882H587.434V280.059H589.8V278.882H593.107V280.059H595.47V278.882H598.774V280.059H603.029V278.882H606.334V280.059H609.644V591.316H544.124V591.35H492.465V399.746H527.115" fill="#01A796" fill-opacity="0.1"/>
<path d="M384.508 169.748H365.105V167.454H384.508V169.748ZM408.458 169.748H389.052V167.454H408.458V169.748ZM432.527 169.748H413.124V167.454H432.527V169.748ZM456.353 169.748H436.951V167.454H456.353V169.748ZM479.81 169.748H460.404V167.454H479.81V169.748ZM495.442 171.483V169.748H491.93L481.771 160.113H481.072V158.382H363.846V160.113H363.405L353.246 169.748H349.469V171.483H348.627V172.6V173.733V175.719V176.852V177.972V179.102V181.089V182.222V183.342V184.472V186.458V186.461V187.594V188.712V189.844V191.831V192.964V194.081V195.214V197.197V198.333V199.45V200.583V202.57V203.703V204.82V205.956V207.939V209.072V210.193V211.325V213.309V214.442V215.559V216.695V218.681V219.811V220.932V222.064V224.051V225.184V226.301V227.434V229.42V230.553V231.671V232.803V234.79V235.923V237.043V238.173V240.159V241.292V242.413V243.542V243.546V245.529V246.662V247.782V248.915V250.898V252.034V253.152V254.285V256.271V257.404V258.521V259.654V261.641V262.773V263.891V265.024V267.01V268.143V269.26V270.396V272.383V273.512V274.633V275.766V277.749V278.882V280.002V281.135V283.122V284.254V285.372V286.505V288.491V289.624V290.744V291.874V293.861V294.994V296.111V297.244V299.23V300.363V301.48V301.483V302.616V304.6V305.732V306.853V307.986V309.972V311.102V312.222V313.355V315.342V316.472V317.592V318.725V320.711V321.844V322.961V324.094V326.081V327.214V328.334V329.464V331.45V332.583V333.704V334.833V336.823V337.953V339.073V340.206V342.192V343.325V344.443V345.575V347.562V348.695V349.812V350.945V352.931V354.064V355.182V356.315V358.301V359.434V360.554V361.684V361.687V363.67V364.803V365.924V367.057V369.04V370.173V371.293V372.426V374.409V375.545V376.663V377.796V379.782V380.915V382.032V383.165V385.151V386.284V387.402V388.538V390.521V391.654V392.771V393.907V395.89V397.026V398.144V399.277V401.263V402.396V403.513V404.646V406.633V407.765V408.883V410.897L349.134 411.415H349.103L351.073 413.399L351.415 413.75L358.639 421.149H358.447L360.414 423.132H360.579L361.083 423.651H361.602V427.065V427.229V428.35V429.483V430.476V431.469V432.602V433.719V437.971V439.089V440.225V442.208V443.341V444.461V448.71V449.831V450.964V452.95V454.08V455.2V459.452V460.57V461.703V463.689V464.822V465.939V470.191V471.312V472.442V474.428V475.561V476.681V480.93V482.051V483.184V485.167V486.303V487.42V491.672V492.793V493.923V495.909V497.042V498.159V502.411V503.529V504.665V506.648V507.784V508.901V513.151V514.268V515.404V517.387V518.523V519.64V523.893V525.01V526.146V528.129V529.262V530.383V534.632V535.749V536.885V538.868V540.001V541.122V545.371V546.491V547.624V549.61V550.74V551.861V556.113V557.23V558.363V560.349V561.482V562.603V566.852V567.969V569.102V571.088V572.221V573.342V577.594V578.711V579.844V581.83V582.96V584.081V588.106H366.662V588.109H367.943V588.106H378.947V588.109H380.227V588.106H391.235V588.109H392.512V588.106H403.519V588.109H404.8V588.106H415.804V588.109H417.084V588.106H428.088V588.109H429.369V588.106H440.376V588.109H441.654V588.106H452.661V588.109H453.938V588.106H464.945V588.109H466.226V588.106H477.23V588.109H478.511V588.106H483.571V584.081V582.96V581.83V579.844V578.711V577.594V573.342V572.221V571.088V569.102V567.969V566.852V562.603V561.482V560.349V558.363V557.23V556.113V551.861V550.74V549.61V547.624V546.491V545.371V541.122V540.001V538.868V536.885V535.749V534.632V530.383V529.262V528.129V526.146V525.01V523.893V519.64V518.523V517.387V515.404V514.268V513.151V508.901V507.784V506.648V504.665V503.529V502.411V498.159V497.042V495.909V493.923V492.793V491.672V487.42V486.303V485.167V483.184V482.051V480.93V476.681V475.561V474.428V472.442V471.312V470.191V465.939V464.822V463.689V461.703V460.57V459.452V455.2V454.08V452.95V450.964V449.831V448.71V444.461V443.341V442.208V440.225V439.089V437.971V433.719V432.602V431.469V430.476V429.483V428.35V427.229V427.065V423.651H484.09L486.145 421.546L486.223 421.472L486.54 421.149H486.537L494.102 413.399L496.07 411.415H496.042L496.546 410.897V408.883V407.765V406.633V404.646V403.513V402.396V401.263V399.277V398.144V397.026V395.89V393.907V392.771V391.654V390.521V388.538V387.402V386.284V385.151V383.165V382.032V380.915V379.782V377.796V376.663V375.545V374.409V372.426V371.293V370.173V369.04V367.057V365.924V364.803V363.67V361.687V361.684V360.554V359.434V358.301V356.315V355.182V354.064V352.931V350.945V349.812V348.695V347.562V345.575V344.443V343.325V342.192V340.206V339.073V337.953V336.823V334.833V333.704V332.583V331.45V329.464V328.334V327.214V326.081V324.094V322.961V321.844V320.711V318.725V317.592V316.472V315.342V313.355V312.222V311.102V309.972V307.986V306.853V305.732V304.6V302.616V301.483V301.48V300.363V299.23V297.244V296.111V294.994V293.861V291.874V290.744V289.624V288.491V286.505V285.372V284.254V283.122V281.135V280.002V278.882V277.749V275.766V274.633V273.512V272.383V270.396V269.26V268.143V267.01V265.024V263.891V262.773V261.641V259.654V258.521V257.404V256.271V254.285V253.152V252.034V250.898V248.915V247.782V246.662V245.529V243.546V243.542V242.413V241.292V240.159V238.173V237.043V235.923V234.79V232.803V231.671V230.553V229.42V227.434V226.301V225.184V224.051V222.064V220.932V219.811V218.681V216.695V215.559V214.442V213.309V211.325V210.193V209.072V207.939V205.956V204.82V203.703V202.57V200.583V199.45V198.333V197.197V195.214V194.081V192.964V191.831V189.844V188.712V187.594V186.461V186.458V184.472V183.342V182.222V181.089V179.102V177.972V176.852V175.719V173.733V172.6V171.483H495.442" fill="#01A796" fill-opacity="0.1"/>
<path d="M307.506 281.694H307.938V282.03H308.538V287.446C308.435 287.744 308.354 288.048 308.227 288.343L308.205 288.402L308.049 288.957H308.053L308.049 288.966H308.538V290.267H307.506V281.694ZM314.372 290.267V288.966H314.857V288.963H314.86V288.957V288.954L314.705 288.395L314.655 288.271L314.372 287.452V282.03H314.972V282.026V282.017V281.694H315.404V290.267H314.372ZM315.802 291.425V292.967H315.653V291.425H315.802ZM313.135 291.425H313.352V292.977H313.135V291.425ZM309.557 291.425H309.762V292.977H309.557V291.425ZM312.535 291.425H312.827V292.977H312.535V291.425ZM312.035 291.425H312.23V292.977H312.035V291.425ZM310.67 291.425H310.875V292.977H310.67V291.425ZM310.07 291.425H310.359V292.977H310.07V291.425ZM309.414 288.966H311.015V290.276H309.414V288.966ZM313.492 282.03V283.606L313.312 283.454L312.967 283.175L312.6 282.982L312.131 282.83L311.895 282.753V282.03H313.492ZM313.492 290.276H311.895V288.966H313.492V290.276ZM309.414 283.606V282.03H311.015V282.753L310.785 282.83L310.3 282.986L309.955 283.169L309.582 283.47L309.414 283.606ZM315.053 291.425H315.342V292.967H315.053V291.425ZM314.512 291.425H314.745V292.967H314.512V291.425ZM308.205 292.967V291.425H308.395V292.967H308.205ZM307.605 291.425H307.897V292.967H307.605V291.425ZM307.108 291.425H307.297V292.967H307.108V291.425ZM333.865 585.015H331.95V584.243H331.711V581.12V579.249H331.947V579.245H331.95V578.243H331.711V565.819V563.717V563.649H331.947V563.646H331.95V562.643H331.711V553.447H331.947H331.95V552.445H331.711V550.331H332.373V550.328V549.049V548.05H333.181V548.046H333.184V547.044H331.64V408.607V407.232H332.373V407.229V405.888H331.64V403.21V401.832H333.038V401.828H333.041V400.633H333.648V400.63H333.651V399.286H331.64V398.408V397.033H332.373V397.03V395.686H331.64V373.811V372.436H332.373V372.433V371.089H331.64V369.611V368.236H332.373V368.233V367.802V366.892H333.097V366.889V365.716H333.71V365.713H333.713V364.953V364.372H331.534V361.194H332.121V361.191H332.124V360.018H332.709V360.015H332.712V359.254V358.671H327.567V357.935V357.677V354.633V354.378V351.333V351.079V348.034V347.776V345.036V344.778V341.737V341.479V338.434V338.18V337.54V336.895H329.821V336.892H329.824V335.718H330.343V335.715H330.346V334.955V334.371H327.567V333.341V332.661H328.052V332.658H328.055V331.975H325.575V329.893V329.061H325.973V329.058H325.976V328.372H325.575V327.863H325.973V327.86H325.976V327.174H324.083L316.865 296.093H316.887V296.086H316.89L316.551 294.646H316.529H316.296V294.634V294.379V294.047H317.024V294.044H317.027V294.035V293.666H317.487V293.662H317.49V293.65V292.967H316.961V291.412V290.965H317.263V290.962V290.953V290.267H316.281V281.365H317.263V281.362V281.353V280.763H317.788H317.791V280.751V280.36V280.105V279.46V279.205V278.923H318.565V278.92V278.91V277.836H318.429V277.299H317.048L317.052 277.253V277.247V277.244L317.024 276.694L317.011 276.614L316.961 276.272L316.949 276.201L316.943 276.151L316.918 276.049L316.809 275.626L316.775 275.521L316.707 275.335L316.66 275.214L316.629 275.121L316.582 275.021L316.399 274.636L316.349 274.549L316.287 274.441L316.215 274.326L316.122 274.174L316.075 274.099L315.799 273.733L315.762 273.684L315.709 273.625L315.643 273.556L315.417 273.308L315.413 273.302L315.351 273.255L315.239 273.165L314.742 272.755L314.412 272.532L314.158 272.364L314.133 272.343L314.08 272.321L313.663 272.119L313.551 272.073L313.34 271.998L313.253 271.967L313.172 271.936L313.029 271.893L312.656 271.796L312.585 271.784L312.575 271.781L312.501 271.765L312.321 271.728V270.425H311.845V261.722H311.811V256.566V253.931H323.132V253.925H323.135V253.444V252.904V252.42V251.898V251.414V250.961V250.477V250.024V249.543V249.071V248.583V248.121V247.634H315.973H315.957H311.167V247.64H311.164V250.955V251.417V251.901V252.423V252.907V253.447V253.801V253.931V256.569V261.722H311.133V261.725V270.434H311.058V270.425H310.592V270.428H310.589V270.437V271.728L310.409 271.765L310.34 271.781L310.312 271.784L310.256 271.796L309.88 271.893L309.737 271.936L309.666 271.961L309.545 272.008L309.361 272.073L309.28 272.104L309.271 272.11L309.246 272.119L308.83 272.318L308.78 272.343L308.761 272.358L308.491 272.532L308.165 272.752L307.667 273.165L307.518 273.286L307.502 273.299L307.493 273.308L307.303 273.519L307.182 273.653L307.151 273.684L307.111 273.733L306.837 274.099L306.828 274.115L306.8 274.155L306.787 274.174L306.719 274.289L306.604 274.478L306.561 274.546L306.514 274.636L306.327 275.021L306.315 275.046L306.287 275.114L306.284 275.121L306.265 275.176L306.184 275.391L306.138 275.518L306.104 275.626L305.995 276.045L305.985 276.083L305.967 276.167L305.939 276.347L305.898 276.61L305.889 276.694L305.864 277.191L305.858 277.247V277.253V277.256L305.861 277.299H304.484V277.303H304.481V277.312V277.836H304.322V277.839H304.319V277.849V278.916V278.923H305.093V279.208V279.218V279.463V279.472V280.108V280.118V280.363V280.372V280.757V280.763H305.622V281.356V281.365H306.626V290.267H305.622V290.27V290.279V290.956V290.965H305.948V291.415V291.425V292.967H305.398V292.97H305.395V292.98V293.656V293.666H305.858V294.041V294.047H306.588V294.383V294.392V294.64V294.646H306.383H306.358V294.649L306.02 296.093H306.045L298.827 327.174H296.909V327.177V327.863H297.307V328.372H296.909V328.375V329.061H297.307V329.896V331.975H294.832V331.978H294.829V332.661H295.317V333.347V334.371H292.541V334.374H292.538V334.958V335.718H293.061V336.895H295.317V337.546V338.183V338.44V341.482V341.74V344.781V345.039V347.783V348.037V351.082V351.336V354.381V354.636V357.681V357.938V358.671H290.176V358.674H290.173V359.257V360.018H290.76V361.194H291.376V361.954V364.372H289.175V364.375H289.172V364.956V365.716H289.784V366.892H291.062V367.805V368.236H291.78V369.614V371.089H291.065V371.092H291.062V372.436H291.78V373.814V395.686H291.065V395.689H291.062V397.033H291.78V398.411V399.286H289.787V399.29H289.784V400.633H290.393V401.832H291.78V403.213V405.888H291.065H291.062V407.232H291.78V408.61V547.044H290.238V547.047H290.235V548.05H291.062V549.049V550.331H291.724V551.7V552.445H291.472V552.448H291.469V553.447H291.724V554.453V562.643H291.472V562.647H291.469V563.649H291.724V563.72V565.747V565.822V566.75V578.243H291.472V578.246H291.469V579.249H291.724V581.046V581.123V582.048V584.243H291.472V584.246H291.469V585.015H289.573V585.018H289.57V587.458H303.045H303.154H305.258H309.24H318.255H319.265H333.862V587.455H333.865V585.015" fill="#01A796" fill-opacity="0.1"/>
<path d="M1125.86 528.418H1091.82H1125.86ZM1332.68 265.294V264.35H1326.77V259.747H1326.77H1326.05H1326.05V264.35H1324.39V265.294H1324.08V274.602H1318.25V260.166H1308H1270.06V263.695H1265.4V261.278H1265.16V258.459H1264.93V261.278H1264.68V263.695H1257.11V262.764H1244.18V263.695H1239.94V264.35H1235.24V259.747H1234.99V255.716H1234.76V259.747H1234.52V264.35H1233.16V261.278H1232.92V258.459H1232.69V261.278H1232.44V264.35H1225.15H1224.11V265.294H1223.25V279.996V284.177V288.224V291.732V295.779V299.286V303.33V306.841V310.888V314.392V318.439V321.947V325.994V329.501V333.549V337.056V341.1V344.607V348.658V352.162V356.209V359.716V363.764V367.271V371.318V374.825V378.87V382.377V386.424V389.931V393.979V397.486V401.533V405.041V409.088V412.595V416.639V420.147V424.194V427.701V431.748V435.256V439.303V442.81V446.854V450.365V454.409V457.916V461.963V465.471V469.518V473.025V473.969H1219.64V473.295V473.025V471.945H1193.51V468.773H1193.27V465.955H1193.04V468.773H1192.79V471.945H1180.09V473.025H1166.6V471.945H1163.35V467.246H1163.35H1163.11V463.211H1162.88V467.246H1162.63H1162.63V471.945H1161.27V468.773H1161.03V465.955H1160.8V468.773H1160.55V471.945H1146.39V473.025H1128.71V473.969H1125.86V489.01V523.024V527.475H1091.82V524.554V520.507V516.996V512.952V509.445V505.397V501.89V497.843V494.339V490.292V486.784V482.737V479.23V475.182V471.675V467.631V464.121V460.076V456.569V452.522V449.015V444.967V441.46V437.413V433.906V429.861V426.354V422.307V418.799V414.752V411.245V407.198V403.69V399.643V396.136V392.092V388.584V384.537V381.03V376.983V373.475V369.428V365.921V361.873V358.366V354.322V350.815V346.768V343.26V339.213V335.706V331.658V328.154V324.104V320.6V316.552V313.045V308.998V305.491V301.443V297.936V293.892V290.385V286.334V282.83V278.783V275.275V271.228V267.721V263.674V260.166V256.119V252.615V248.568V245.057V241.013V237.506V233.459V229.951V225.904V222.397V218.353V214.845V210.798V206.481V184.357H1090.79H1091.23V183.078H1062.87V179.233H1051.46V175.257H1051.23V179.233H1049.38V177.998H1049.15V179.233H1043.93H1031.3V193.668H1024.12V184.357H1023.74V183.414H1013.52V184.357H1013.14V590.562H1024.12V590.503H1024.44V590.447H1039.57V590.562H1041.57V590.447H1053.23V590.562H1055.24V590.447H1065.2V590.562H1067.2V590.447H1077.44V590.503H1079.44V590.447H1090.54V590.562H1092.54V590.447H1104.2V590.562H1106.21V590.447H1117.16V590.562H1119.16V590.447H1129.45V590.562H1131.45V590.447H1143.37V590.562H1145.37V590.447H1157.25V590.562H1159.25V590.447H1170.2V590.503H1172.21V590.447H1182.49V590.503H1184.5V590.447H1195.59V590.562H1197.6V590.447H1209.42V590.503H1211.43V590.447H1223.25V590.378H1304.89V590.447H1313.74H1313.9H1314.47H1315.35H1317.19H1318.07H1319.91H1320.79H1322.63H1323.51H1324.08H1324.24H1332.99V265.294H1332.68Z" fill="#01A796" fill-opacity="0.1"/>
<path d="M157.965 573.115V377.814H159.703V372.659H73.8066V377.814H75.94V379.838V380.059V380.754V383.392V385.512V388.153V390.27V392.917V395.028V397.666V399.78V402.44V404.538V407.185V409.296V411.943V414.209V416.866V419.486V422.146V424.259V426.897V429.017V431.655V433.927V436.578V438.533V441.175V443.298V445.936V448.049V450.688V452.804V455.446V457.562V460.204V462.317V464.965V467.082V469.72V472.004V474.639V477.268V479.916V482.029V484.683V486.797V489.435V491.71V494.354V496.301V498.957V501.068V503.715V505.829V508.477V510.578V513.232V515.339V517.986V520.097V522.741V524.852V527.503V529.775V532.419V535.06V537.695V539.809V542.457V544.573V547.211V549.496V552.14V554.086V556.731V558.844V561.486V563.612V566.247V568.357V571.005V573.115H73.8066V577.874H75.94V580.515V582.628V585.273V587.551V587.573H78.0649V587.551H79.8414V587.573H79.8439H81.9663V587.551H83.7428V587.573H85.8674V587.551H87.5202V587.573H89.6498V587.551H91.2923V587.573H93.4123V587.551H95.0691V587.573H97.189V587.551H98.8427V587.573H100.972V587.551H102.616V587.573H104.736V587.551H106.393V587.573H108.522V587.551H110.167V587.573H112.296V587.551H113.937V587.573H116.06V587.551H117.717V587.573H119.837V587.551H121.491V587.573H123.608V587.551H125.265V587.573H127.388V587.551H129.035V587.573H131.158V587.551H132.815V587.573H134.932V587.551H136.579V587.573H138.706V587.551H140.356V587.573H142.479V587.551H144.127V587.573H146.256V587.551H147.91V587.573H150.02V587.551H151.677V587.573H153.803V587.551H155.463V587.573H157.965V585.273V582.628V580.515V577.874H159.703V573.115H157.965" fill="#01A796" fill-opacity="0.1"/>
<path d="M1003.98 471.209H1003.83V469.006H1003.98V471.209ZM1000.56 469.006H1001.09V471.209H1000.56V469.006ZM999.118 469.006H999.644V471.209H999.118V469.006ZM928.236 469.006H928.765V471.209H928.236V469.006ZM926.794 469.006H927.319V471.209H926.794V469.006ZM929.682 436.835H930.21V438.607H929.682V436.835ZM928.236 436.835H928.765V438.607H928.236V436.835ZM926.794 436.835H927.316V438.607H926.794V436.835ZM925.349 436.835H925.874V438.607H925.349V436.835ZM924.429 436.835V438.607H923.903V436.835H924.429ZM926.014 461.526V458.084H926.011V458.08H925.625L925.544 448.459V448.431H926.241V445.473H928.902V448.428V448.431H929.536L929.48 458.08H929.132V461.526H929.461L929.424 467.87H925.706L925.653 461.526H926.014ZM1001.4 448.338H1002.09L1002.01 457.99H1001.62V461.433H1001.63V461.436H1001.98L1001.93 467.87H998.211L998.177 462.081V461.436H998.506V457.994V457.99H998.177V448.338H998.733V445.473H1001.4V448.338ZM998.198 438.607H998.177V436.835H998.198V438.607ZM999.644 438.607H999.118V436.835H999.644V438.607ZM1001.09 438.607H1000.56V436.835H1001.09V438.607ZM1002.54 438.607H1002.01V436.835H1002.54V438.607ZM1003.45 438.607V436.835H1003.98V438.607H1003.45ZM968.283 346.01H967.99V344.446H968.283V346.01ZM959.42 344.446H959.476V346.01H959.42V344.446ZM1133.68 503.786H1128.2L1093.65 487.808H1068.39V486.787V486.784H1067.54H1066.4H1064.39H1062.4H1060.39H1058.4H1056.39H1054.41H1052.39H1050.4H1048.39H1046.41H1044.4H1042.41H1040.39H1038.41H1036.4H1035.26H1034.41V487.808H1008.58V486.716V486.368V485.763H1005.86V485.263V484.912V484.31V484.307H1004.71V483.901V481.7V480.989V478.789V478.078V475.877V475.17V474.636V473.261H1005.86V472.165V471.818V471.212V471.209H1004.9V469.006H1005.08V467.87H1005.08H1003.31L1003.27 461.436H1003.6V457.994H1003.6V457.99H1003.25L1003.23 455.399L1003.19 448.338H1003.83V445.473H1004.71V445.243V444.896V443.428H1005.86V442.335V441.984V441.382H1006.23V439.334H1005.08V438.607H1005.08H1004.9V436.835H1005.08V435.699H1005.08V435.696H998.177V431.879V430.603H1000.18V428.623H1001.39V426.639V426.636H1000.05V425.416H998.177V409.504V408.25H1000.05V407.52H1000.75V405.54V405.537H1000.05V403.591V403.588H998.932V402.865V402.861H996.041V400.863H994.782V400.108L994.9 399.907L994.95 399.658V397.75L994.9 397.501L994.782 397.3V396.499H994.835V394.68V394.677H994.782V392.709H994.748V392.358H994.745V392.355H994.021L993.303 392.216L992.948 391.992L992.759 391.871L992.532 391.564L992.308 391.213C992.19 390.952 992.103 390.673 992.084 390.372V390.369C992.031 389.593 991.957 388.823 991.876 388.056L991.817 387.532L991.764 387.141C991.72 386.821 991.68 386.502 991.633 386.182L991.537 385.468L991.518 385.366L991.512 385.307L991.506 385.279L991.381 384.673C991.17 383.429 990.915 382.206 990.623 381.002L990.517 380.483V380.48L990.595 380.462V380.459L990.48 380.313L990.468 380.3L990.418 380.133C990.057 378.755 989.647 377.404 989.184 376.092L989.159 376.011H989.156V376.008L989.143 375.967L989.094 375.831L988.913 375.35L988.907 375.331L988.901 375.309L988.646 374.636C988.494 374.242 988.326 373.866 988.167 373.481L988.018 373.106L987.735 372.451L987.679 372.314L987.664 372.277C987.325 371.529 986.971 370.797 986.601 370.083L986.598 370.073L986.542 369.986C985.855 368.664 985.102 367.42 984.31 366.234L984.157 365.976L984.391 365.908L984.185 365.567L983.918 365.623L983.604 365.185L983.122 364.527L983.026 364.406L982.83 364.148L982.737 364.024L982.255 363.431L981.758 362.832L981.208 362.208L981.145 362.137L981.12 362.112L981.061 362.044L980.822 361.793L980.648 361.606L980.244 361.187L979.725 360.672L979.402 360.371L979.125 360.126L978.565 359.623L978.31 359.396L978.152 359.263L978.087 359.207L978.049 359.176L977.381 358.642L977.176 358.487L976.986 358.36C976.473 357.975 975.945 357.63 975.41 357.292L974.851 356.91L974.82 356.892L974.77 356.864L974.751 356.854L974.627 356.792C973.57 356.175 972.488 355.647 971.369 355.209L971.245 355.147V353.502H971.478V352.875H971.475V352.872H970.67V352.388V352.385H970.34V351.659H969.939V351.296V350.628H970.365V349.899H970.67V348.704H969.815V347.053H969.812H969.542V346.721H969.538V346.718H969.078V346.01H969.075H968.833V344.446H969.159V343.673V343.67H969.156H967.99V334.29V333.893H968.348V333.539H968.572V333.253H968.892V332.744H968.32L968.311 332.586L968.273 332.083L968.264 331.959V331.956H968.562V331.596H968.879V331.162V331.158H968.363V329.814H968.36V329.811H968.046L968.022 329.6C968 329.188 967.956 328.79 967.885 328.405L967.813 328.048C967.726 327.673 967.617 327.316 967.487 326.978L967.437 326.804L967.434 326.798L967.4 326.739C967.226 326.323 967.024 325.938 966.791 325.6L966.784 325.59L966.455 325.193L966.405 325.106L966.393 325.094L966.303 325.004L966.082 324.79L965.973 324.681L965.967 324.672V324.547H966.355V323.803V323.799H965.914V323.573H965.926V323.331H966.128V322.933V322.93H965.233V322.465H965.23H965.04V322.021L965.072 322.002L965.622 321.624L965.749 321.487L965.799 321.45L965.883 321.354L966.032 321.158L966.041 321.143L966.045 321.133L966.209 320.842L966.215 320.82L966.231 320.783L966.259 320.714L966.296 320.603L966.334 320.478L966.352 320.423L966.383 320.292L966.43 319.858V319.855L966.38 319.414L966.349 319.287L966.324 319.209L966.281 319.063L966.253 318.986L966.234 318.936L966.209 318.88L966.203 318.861L966.004 318.504L965.995 318.495L965.945 318.433L965.727 318.179L965.706 318.157L965.64 318.098L965.603 318.067L965.563 318.033L965.451 317.943L965.395 317.899L965.255 317.803L964.91 317.623L964.898 317.614V317.291V317.067H965.146V316.673V316.67H964.938V316.322H964.584L964.472 316.093L964.291 315.723V315.72L964.186 315.05V315.041L964.189 315.031L964.248 314.699L964.45 314.314L964.456 314.299L964.288 313.908L963.884 313.746C963.57 313.746 963.315 313.992 963.315 314.296L963.524 314.699L963.583 315.037V315.041L963.514 315.5L963.48 315.72L963.297 316.099L963.188 316.322H962.83V316.67H962.625V317.064V317.067H962.874V317.291V317.614L962.84 317.632L962.516 317.803L962.377 317.899L962.327 317.94L962.203 318.036L962.165 318.067L962.137 318.095L962.063 318.163L962.044 318.179L961.826 318.433L961.789 318.48L961.758 318.529L961.568 318.861L961.565 318.874L961.534 318.948L961.519 318.986L961.5 319.051L961.444 319.221L961.422 319.287L961.391 319.414L961.348 319.83L961.345 319.855L961.348 319.87L961.388 320.292L961.419 320.423L961.435 320.469L961.481 320.612L961.512 320.711L961.534 320.77L961.559 320.826L961.565 320.842L961.714 321.112L961.739 321.149L961.742 321.158L961.892 321.354L961.972 321.447L962.019 321.484L962.15 321.624L962.718 322.015L962.728 322.021V322.465H962.541V322.93H961.64V323.328H961.643V323.331H961.845V323.573H961.861V323.799H961.345V324.544V324.547H961.761V324.594L961.745 324.609L961.556 324.786L961.372 324.96L961.348 324.985L961.261 325.075L960.94 325.469L960.928 325.488L960.885 325.547L960.881 325.55L960.869 325.569C960.636 325.904 960.431 326.279 960.254 326.686L960.219 326.757L960.216 326.763L959.98 327.415L959.971 327.443L959.967 327.471L959.828 328.021L959.759 328.362C959.685 328.769 959.635 329.191 959.613 329.625L959.591 329.811H959.249V331.158H958.746V331.596H958.749H959.035V331.956H959.038H959.371L959.361 332.114L959.34 332.397L959.315 332.744H958.746V333.253H958.749H959.038V333.536V333.539H959.246V333.89H959.249V333.893H959.47V334.287H959.473V334.29H959.476V343.67H958.553V344.446H958.556H958.873V346.01H958.553V346.718H958.093V347.053H957.72V348.704H956.965V349.896V349.899H957.263V350.625H957.266V350.628H957.689V351.296V351.659H957.288V352.385H956.965V352.872H956.06V353.502H956.063H956.387V355.147L956.203 355.228C955.818 355.38 955.439 355.56 955.056 355.734C954.677 355.911 954.298 356.088 953.925 356.286C953.545 356.485 953.176 356.696 952.806 356.92C952.439 357.137 952.075 357.373 951.715 357.612C951.36 357.851 951.006 358.09 950.658 358.347L950.341 358.577C950.055 358.797 949.772 359.021 949.492 359.254L949.458 359.285L949.197 359.521L948.619 360.011L948.115 360.501L947.329 361.274L946.8 361.799L946.306 362.361L946.079 362.6L945.961 362.736L945.28 363.549L945.261 363.571L945.103 363.77L945.084 363.791L944.907 364.024L944.543 364.493L944.45 364.608L944.27 364.856L944.083 365.132C943.804 365.52 943.53 365.911 943.263 366.315C943.026 366.669 942.793 367.032 942.566 367.401L942.482 367.525L942.38 367.683L942.299 367.817L942.156 368.05L941.724 368.804L941.438 369.31L941.367 369.449L941.121 369.915L941.031 370.083L940.99 370.16L940.801 370.533L940.732 370.672L940.359 371.433L940.045 372.109L939.878 372.485L939.735 372.798L939.648 373.006C939.483 373.394 939.315 373.785 939.156 374.186L938.917 374.816L938.759 375.238L938.603 375.657L938.588 375.694L938.566 375.766L938.432 376.154L938.351 376.377C938.252 376.669 938.155 376.964 938.059 377.259L937.845 377.945L937.81 378.053L937.649 378.606L937.562 378.897L937.5 379.127L937.397 379.487L937.385 379.537C937.273 379.94 937.167 380.35 937.068 380.76L936.98 381.107L936.921 381.368C936.81 381.843 936.704 382.321 936.604 382.805L936.601 382.824L936.552 383.084L936.505 383.326L936.409 383.842L936.3 384.428L936.284 384.518L936.178 385.155C936.123 385.527 936.064 385.906 936.011 386.281L935.992 386.439L935.936 386.827L935.924 386.93L935.908 387.063L935.837 387.681L935.781 388.147L935.722 388.715C935.666 389.283 935.616 389.854 935.579 390.431L935.569 390.512C935.501 391.545 934.643 392.355 933.614 392.355H932.887V392.858V394.677H932.066V396.496H932.069V396.499H932.887V397.247L932.884 397.256L932.737 397.473L932.681 397.74V397.747V399.658V399.661L932.737 399.935L932.887 400.155V400.158V400.863H932.013V402.861H929.52V403.588H928.398V405.537H927.702V407.52H928.398V408.246V408.25H930.272V409.504V425.416H928.398V426.636H927.061V428.62V428.623H928.267V430.603H928.271H930.272V431.875V435.696H922.666V436.832V436.835H922.983V438.607H922.666V439.334H921.513V441.379V441.382H921.833V441.984V442.332V443.428H922.983V444.893V445.243V445.473H922.986H923.807V448.428H923.81V448.431H924.444L924.385 458.08H924.034V461.526H924.037H924.366L924.332 467.87H922.666V469.006H922.983V471.209H921.833V471.815V472.165V473.258V473.261H922.983V474.633V475.167V475.877V478.078V478.786V478.789V480.989V481.697V483.898V484.307H921.833V484.912V485.26V485.763H919.119V486.368V486.716V487.808H891.644V486.787H891.641V486.784H890.792H889.654H887.643H885.657H883.646H881.659H879.645H877.662H875.645H873.661H871.647H869.664H867.65H865.666H863.649H861.663H859.652H858.514H857.665V487.808H839.002L796.009 503.786H793.734H791.334V509.606V513.122V513.126H791.726V513.244H791.334V516.76V516.763H791.726V519.634H793.389V523.312H794.585V571.573H793.986V577.302H793.389V587.672V587.675H800.784V577.305V577.302H800.184V571.573H799.587V523.312H800.784V519.634H807.781V587.582V587.585H808.303H808.654H810.031H820.581H823.18H834.175H836.776H847.491H849.22H849.739H850.97H853.742H864.566H867.336H878.162H880.932H891.756H894.528H907.354H908.952H913.95H915.349H920.347H937.145H943.07H943.891H944.074H944.559H945.541H947.273H951.152H952.231H952.967H953.054H953.723H958.264H958.985H959.085H959.271H959.753H960.735H962.47H966.349H967.428H968.245H968.348H968.917H973.458H974.279H974.363H974.465H974.95H975.929H977.664H981.543H982.622H983.362H983.443H984.114H984.176H990.281H1005.72H1010.72H1012.12H1017.12H1018.79H1031.58H1034.35H1045.18H1047.95H1058.77H1061.54H1072.37H1075.14H1076.13H1076.22H1077.95H1088.93H1091.53H1102.52H1105.13H1117.49H1118.09V519.634H1124.48V523.312H1125.68V571.573H1125.09V577.302H1124.48V587.672V587.675H1131.88V577.305V577.302H1131.28V571.573H1130.68V523.312H1131.88V519.634H1133.01V509.606H1133.68V504.274V503.786" fill="#01A796" fill-opacity="0.1"/>
<path d="M549.169 491.555H549.557V494.047H549.169V491.555ZM551.565 494.047H550.254V491.555H551.565V494.047ZM553.573 494.047H552.262V491.555H553.573V494.047ZM554.385 492.452V494.047H554.27V491.555H554.385V492.452ZM584.496 494.047H583.184V491.555H584.496V494.047ZM587.698 491.555V494.047H587.201V491.555H587.698ZM585.192 491.555H586.504V494.047H585.192V491.555ZM568.584 410.916L568.45 410.929V410.572L568.575 410.587L568.68 410.578V410.926L568.584 410.916ZM780.851 537.152V536.085H780.002V534.955H780.291V533.822H779.561V531.653L762.178 526.202L753.577 528.931H746.885H745.508H742.107H740.73H737.326H735.952H732.549H731.175H727.771H727.768H726.394H722.99H721.616H718.212H716.839H713.435H712.058H708.657H707.277H703.876H702.499H699.099H697.722H694.318H692.944H689.108H687.731H684.33H684.327H682.95H679.55H678.173H674.769H673.395H669.991H668.617H665.213H663.836H660.868H659.494H656.09H654.713H651.312H649.935H646.532H645.158H641.754H640.377H636.976H635.599H632.195H630.821H627.418H626.044H622.637H621.263H617.859H616.485H613.081H612.118H611.704H608.304H606.927H605.345V527.993V527.338H605.621V526.829H606.756V526.249H607.353V524.722H603.98V524.086L590.828 517.996V502.592V502.353V501.394V500.736V499.879V499.097H591.26V497.946H591.897V497.139H592.398H592.6V495.897H592.398H590.828V494.047H590.533V491.555H590.819V490.854H590.533V490.503H590.206V490.214V489.683H590.533L589.731 484.702H589.756V483.917L589.112 483.538L588.5 483.917V484.702L587.698 489.683H588.024V490.214V490.503H587.698V490.854H582.768V490.546V490.025V488.129V487.607V485.704V485.183V483.287V482.765V481.803V480.347H583.411V480.341H583.414V478.746H583.029V477.889H582.799V476.731H583.026V476.728H583.029V475.869H578.139H578.143V474.903H578.015V474.484H577.965V452.441H577.978V452.438H577.981V452.109H577.965V450.762H577.978V450.759H577.981V450.427H577.965V449.434L577.978 449.415L577.981 449.412L578.006 449.369L578.034 449.294L578.093 449.155V449.009V448.978H578.217V448.975H578.22V448.971V448.065H578.609H578.739V448.059H578.746V447.538H578.612V446.563V446.293V444.837H578.87V444.834V444.831H578.873L579.196 444.03H579.377V444.027H579.38V443.034H578.944C578.944 442.503 578.59 442.05 578.413 441.855L578.314 441.755L578.208 441.867L578.198 441.876L578.13 441.957L578.121 441.966V441.252H577.017V440.908V440.039H575.677V439.697V438.831H574.844V438.484V438.065V437.723H575.043V437.72H575.047V436.929H574.213V435.256L574.804 435.43C575.563 435.43 576.212 434.62 576.492 433.468C576.582 433.083 576.635 432.661 576.635 432.217C576.635 431.774 576.582 431.351 576.492 430.97C576.212 429.815 575.563 429.005 574.804 429.005L574.213 429.179V428.338V428.155V427.698V427.435H574.841V427.431H574.844V427.171V426.829H575.043V426.826H575.047V426.035H573.99L573.797 425.414L573.769 425.321L572.373 420.802L572.227 420.336L572.153 420.094L572.149 420.088L572.013 419.812L571.811 419.56H572.389V419.557H572.395V418.989H572.221V418.207H572.389V418.204H572.395V417.636H571.885C571.584 417.468 571.329 417.239 571.114 416.972L570.974 416.739L570.632 416.028L570.598 415.916L570.595 415.91L570.592 415.904L570.869 415.901V415.898H570.872V415.665H571.139V415.662H571.142V415.097H570.872V413.101H571.139V413.098H571.142V412.533H570.872V412.434H570.185L570.163 412.378C570.132 412.074 570.02 411.804 569.846 411.574L569.784 411.484C569.588 411.258 569.336 411.099 569.047 411.009L568.991 410.975V410.398L569.022 410.345L569.134 410.038L569.137 410.025V410.022V409.895L569.249 409.917L569.557 409.786L569.688 409.476V409.473V406.304L569.252 405.866L568.941 406L568.811 406.31V408.908L568.743 408.886L568.724 408.877L568.696 408.871L568.584 408.834H568.578L568.513 408.846L568.494 408.849L568.429 408.877L568.413 408.883L568.404 408.886L568.332 408.918L568.326 408.921H568.323V406.304L567.888 405.866L567.577 406L567.446 406.31V409.476L567.885 409.917L568.015 409.889V410.025L568.062 410.237L568.068 410.249L568.143 410.376V410.985L568.099 411.013C567.813 411.106 567.568 411.267 567.378 411.49L567.344 411.512L567.338 411.518L567.334 411.522L567.328 411.528L567.201 411.714L567.188 411.739L567.17 411.801L567.033 412.226L566.989 412.372L566.98 412.434H566.284V412.437V412.533H566.013V412.54H566.01V413.101H566.284V415.097H566.013V415.103H566.01V415.665H566.284V415.901H566.548L566.539 415.913L566.536 415.923L566.498 416.041L566.184 416.689L566.007 416.987C565.796 417.245 565.547 417.471 565.249 417.636H564.764V417.642H564.761V418.207H564.932V418.989H564.764V418.995H564.761V419.56H565.326L565.124 419.812L565.121 419.815L564.997 420.066L564.981 420.097L564.947 420.206L564.916 420.311L564.907 420.339L563.421 425.153L563.337 425.417L563.147 426.035H562.112V426.041H562.109V426.829H562.308V427.174V427.435H562.939V428.341V428.66V428.766L562.563 428.664C561.711 428.664 561.024 430.101 561.024 431.876C561.024 433.648 561.711 435.088 562.563 435.088L562.566 435.085L562.939 434.986V435.573V435.951V436.404V436.929H562.112V436.932H562.109V437.723H562.308V438.068V438.49V438.831H561.478V438.835H561.475V439.701V440.039H560.138V440.045H560.135V440.911V441.252H559.035V441.256H559.032V441.758V441.761L558.935 441.858L558.895 441.91L558.836 441.976L558.805 442.025L558.625 442.305L558.541 442.466L558.404 443.025V443.034H557.776V443.037H557.773V444.03H557.956L558.283 444.837H558.541V446.299V446.569V447.538H558.413V447.544H558.41V448.065H558.541H558.883V448.978H558.982V449.201L558.994 449.22L559.141 449.449L559.165 449.487V450.111H559.097V450.114H559.094V450.427H559.072V450.433H559.069V450.762H559.094V451.079H559.165V452.109H559.072V452.112H559.069V452.441H559.094V452.761H559.165V453.242V474.484H559.044V474.491H559.041V474.903H558.948V474.91H558.945V475.869H554.13V475.875H554.127V476.731H554.385V477.889H554.13V477.892H554.127V478.746H553.744V478.749H553.741V480.347H554.385V481.809V482.768V483.29V485.189V485.711V487.61V488.132V490.031V490.553V490.854H549.169V490.503H548.842V490.214V489.683H549.169L548.364 484.702H548.388V483.917L547.748 483.538L547.133 483.917V484.702L546.331 489.683H546.657V490.214V490.503H546.331V490.854H545.939V491.555H546.331V494.047H545.258V495.897H544.758H544.559V497.139H544.758H545.258V497.946H545.939V499.097H546.331V499.879V500.736V501.394V502.353V502.592V518.015L533.222 524.086V524.722H529.797V526.249H530.394V526.829H531.528V527.338H531.805V527.993V528.94H530.251H528.874H525.47H524.096H520.692H519.318H515.914H514.537H511.134H509.76H506.356H504.979H501.578H500.201H496.797H495.423H492.02H490.646H487.242H485.865H482.464H482.461H481.087H477.684H476.31H473.341H471.964H468.56H467.186H463.783H462.409H459.005H457.628H454.224H452.85H449.446H448.069H444.234H442.857H439.456H438.079H434.675H433.301H429.897H428.52H425.117H423.743H420.339H418.965H415.561H414.184H410.784H409.406H406.006H404.629H401.225H399.851H398.953L398.95 528.931H383.348L374.788 526.249L357.604 531.696V533.866H356.877V534.995H357.166V536.125H356.317V537.196H355.811V537.633V537.941V539.815V540.126V540.433H356.314V540.889H356.317V587.874H357.166H359.165H363.122H386.419H389.397H392.375H393.46V587.831H532.156H533.21V587.719H537.95H593.716L603.967 587.744V587.821V587.831H605.018H743.705H743.714H744.56H746.555H750.515H773.813H776.791H779.769H780.851V540.846V540.39H781.358V540.082V539.772V537.9V537.59V537.152H780.851" fill="#01A796" fill-opacity="0.1"/>
<path d="M814.864 442.208V434.471H729.748V442.208H715.008V587.458H829.604V442.208H814.864" fill="#01A796" fill-opacity="0.1"/>
<path d="M103.621 540.488L103.59 540.401V540.488H100.693V537.292H88.4117V532.571H20.7689V537.292H-6.40825V532.571H-74.051V537.292H-86.3306V543.781H-89.2168V587.666H-82.9088H-61.5202H-52.6574H-51.8255H-44.0544H-27.4839H-21.5741H-20.9039H20.8709H21.0067H21.0543H21.676H25.9706H27.9874H28.9516H35.2643H36.1704H42.4805H43.2455H49.5572H50.2616H56.5743H57.3368H63.6497H64.5568H70.8672H71.631H77.9424H78.8799H85.1904H87.0856H88.0949H90.2916H91.5319H103.577H109.819V558.726V540.488H103.621" fill="#A5DFD9" fill-opacity="0.1"/>
<path d="M175.837 587.976C175.297 576.719 166.018 567.774 154.625 567.774C143.233 567.774 133.951 576.719 133.426 587.976H175.837Z" fill="#A5DFD9"/>
<path d="M154.625 587.976H175.837C175.296 576.731 166.017 567.774 154.625 567.774V587.976Z" fill="#A5DFD9"/>
<path d="M828.531 576.936C828.531 585.946 821.22 593.25 812.183 593.25C803.159 593.25 795.836 585.946 795.836 576.936C795.836 567.907 803.159 560.601 812.183 560.601C821.22 560.601 828.531 567.907 828.531 576.936Z" fill="#A5DFD9"/>
<path d="M1204.45 576.936C1204.45 585.946 1197.13 593.25 1188.1 593.25C1179.07 593.25 1171.75 585.946 1171.75 576.936C1171.75 567.907 1179.07 560.601 1188.1 560.601C1197.13 560.601 1204.45 567.907 1204.45 576.936Z" fill="#A5DFD9"/>
<path d="M1390.69 578.671C1390.69 584.593 1385.89 589.388 1379.95 589.388C1374.03 589.388 1369.21 584.593 1369.21 578.671C1369.21 572.74 1374.03 567.941 1379.95 567.941C1385.89 567.941 1390.69 572.74 1390.69 578.671Z" fill="#A5DFD9"/>
<path d="M126.487 579.214C124.137 579.214 122.007 580.152 120.45 581.663C118.887 580.152 116.76 579.214 114.417 579.214C112.104 579.214 110.009 580.114 108.464 581.592C106.907 580.114 104.811 579.214 102.505 579.214C97.8392 579.214 94.0469 582.889 93.8262 587.489H105.732H111.184H117.805H123.095H135.165C134.945 582.889 131.146 579.214 126.487 579.214" fill="#A5DFD9"/>
<path d="M73.6156 581.893C71.9122 581.893 70.3822 582.579 69.2324 583.668C68.0885 582.579 66.5563 581.893 64.8404 581.893C63.1526 581.893 61.6226 582.554 60.497 583.603C59.363 582.554 57.8489 581.893 56.1694 581.893C52.7647 581.893 50.0109 584.559 49.8359 587.93H58.5203H62.492H67.3101H71.1643H79.9481C79.7927 584.559 77.0228 581.893 73.6156 581.893" fill="#A5DFD9"/>
<path d="M147.05 582.656C145.667 582.656 144.423 583.212 143.488 584.097C142.558 583.212 141.312 582.656 139.919 582.656C138.548 582.656 137.302 583.19 136.388 584.047C135.465 583.19 134.234 582.656 132.869 582.656C130.103 582.656 127.864 584.823 127.725 587.563H134.781H138.01H141.924H145.057H152.197C152.073 584.823 149.819 582.656 147.05 582.656" fill="#A5DFD9"/>
<path d="M927.219 588.833C926.554 574.984 915.139 563.978 901.123 563.978C887.107 563.978 875.687 574.984 875.037 588.833H927.219Z" fill="#A5DFD9"/>
<path d="M901.123 588.833H927.218C926.553 575.002 915.139 563.978 901.123 563.978V588.833Z" fill="#A5DFD9"/>
<path d="M888.506 582.911C887.25 582.911 886.113 583.423 885.273 584.217C884.431 583.423 883.296 582.911 882.031 582.911C880.794 582.911 879.656 583.398 878.826 584.174C877.987 583.398 876.871 582.911 875.634 582.911C873.119 582.911 871.086 584.875 870.959 587.361H877.365H880.3H883.84H886.697H893.181C893.066 584.875 891.021 582.911 888.506 582.911" fill="#A5DFD9"/>
<path d="M1004.78 582.911C1003.52 582.911 1002.38 583.423 1001.54 584.217C1000.7 583.423 999.571 582.911 998.303 582.911C997.069 582.911 995.931 583.398 995.098 584.174C994.265 583.398 993.143 582.911 991.906 582.911C989.394 582.911 987.358 584.875 987.23 587.361H993.637H996.571H1000.11H1002.97H1009.46C1009.34 584.875 1007.29 582.911 1004.78 582.911" fill="#A5DFD9"/>
<path d="M1062.47 578.165C1059.78 578.165 1057.35 579.236 1055.56 580.968C1053.77 579.236 1051.34 578.165 1048.66 578.165C1046.01 578.165 1043.61 579.198 1041.84 580.887C1040.06 579.198 1037.66 578.165 1035.02 578.165C1029.68 578.165 1025.34 582.37 1025.09 587.641H1038.71H1044.96H1052.53H1058.59H1072.4C1072.15 582.37 1067.8 578.165 1062.47 578.165" fill="#A5DFD9"/>
<path d="M1074.55 582.911C1073.29 582.911 1072.15 583.423 1071.31 584.217C1070.47 583.423 1069.33 582.911 1068.07 582.911C1066.83 582.911 1065.69 583.398 1064.86 584.174C1064.03 583.398 1062.91 582.911 1061.67 582.911C1059.16 582.911 1057.12 584.875 1056.99 587.361H1063.4H1066.33H1069.88H1072.74H1079.22C1079.11 584.875 1077.06 582.911 1074.55 582.911Z" fill="#A5DFD9"/>
<path d="M1139.99 578.165C1137.3 578.165 1134.86 579.236 1133.08 580.968C1131.29 579.236 1128.85 578.165 1126.17 578.165C1123.53 578.165 1121.13 579.198 1119.36 580.887C1117.58 579.198 1115.18 578.165 1112.54 578.165C1107.2 578.165 1102.86 582.37 1102.6 587.641H1116.23H1122.47H1130.05H1136.11H1149.92C1149.67 582.37 1145.32 578.165 1139.99 578.165" fill="#A5DFD9"/>
<path d="M1159.85 583.153C1158.6 583.153 1157.46 583.662 1156.62 584.459C1155.77 583.662 1154.64 583.153 1153.38 583.153C1152.14 583.153 1151 583.637 1150.17 584.416C1149.33 583.637 1148.21 583.153 1146.98 583.153C1144.46 583.153 1142.43 585.121 1142.3 587.604H1148.71H1151.65H1155.19H1158.04H1164.53C1164.41 585.121 1162.36 583.153 1159.85 583.153" fill="#A5DFD9"/>
<path d="M1206.84 583.153C1205.58 583.153 1204.44 583.662 1203.61 584.459C1202.76 583.662 1201.63 583.153 1200.36 583.153C1199.13 583.153 1197.99 583.637 1197.16 584.416C1196.32 583.637 1195.2 583.153 1193.97 583.153C1191.45 583.153 1189.42 585.121 1189.29 587.604H1195.7H1198.63H1202.17H1205.03H1211.51C1211.4 585.121 1209.35 583.153 1206.84 583.153" fill="#A5DFD9"/>
<path d="M1272.21 582.911C1270.95 582.911 1269.81 583.423 1268.98 584.217C1268.13 583.423 1267 582.911 1265.74 582.911C1264.5 582.911 1263.36 583.398 1262.53 584.174C1261.69 583.398 1260.57 582.911 1259.34 582.911C1256.82 582.911 1254.79 584.875 1254.66 587.361H1261.07H1264H1267.54H1270.4H1276.89C1276.77 584.875 1274.72 582.911 1272.21 582.911" fill="#A5DFD9"/>
<path d="M1419.04 578.165C1416.36 578.165 1413.92 579.236 1412.13 580.968C1410.34 579.236 1407.91 578.165 1405.23 578.165C1402.58 578.165 1400.19 579.198 1398.41 580.887C1396.63 579.198 1394.24 578.165 1391.6 578.165C1386.26 578.165 1381.92 582.37 1381.66 587.641H1395.29H1401.53H1409.11H1415.17H1428.98C1428.72 582.37 1424.38 578.165 1419.04 578.165Z" fill="#A5DFD9"/>
<path d="M1443.1 583.19C1441.84 583.19 1440.7 583.702 1439.86 584.493C1439.02 583.702 1437.89 583.19 1436.62 583.19C1435.38 583.19 1434.25 583.677 1433.42 584.453C1432.58 583.677 1431.46 583.19 1430.22 583.19C1427.71 583.19 1425.68 585.158 1425.55 587.641H1431.96H1434.89H1438.43H1441.29H1447.77C1447.66 585.158 1445.61 583.19 1443.1 583.19" fill="#A5DFD9"/>
<path d="M443.748 587.545C443.25 577.181 434.705 568.947 424.217 568.947C413.729 568.947 405.184 577.181 404.699 587.545H443.748Z" fill="#A5DFD9"/>
<path d="M424.219 587.545H443.749C443.252 577.197 434.707 568.947 424.219 568.947V587.545Z" fill="#A5DFD9"/>
<path d="M365.96 573.326C365.96 581.222 359.55 587.622 351.633 587.622C343.712 587.622 337.303 581.222 337.303 573.326C337.303 565.412 343.712 559.009 351.633 559.009C359.55 559.009 365.96 565.412 365.96 573.326Z" fill="#A5DFD9"/>
<path d="M357.076 578.165C354.391 578.165 351.954 579.236 350.173 580.968C348.379 579.236 345.945 578.165 343.266 578.165C340.617 578.165 338.221 579.198 336.452 580.887C334.668 579.198 332.271 578.165 329.632 578.165C324.292 578.165 319.949 582.37 319.697 587.641H333.325H339.563H347.142H353.2H367.011C366.756 582.37 362.414 578.165 357.076 578.165" fill="#A5DFD9"/>
<path d="M369.152 582.911C367.896 582.911 366.755 583.423 365.919 584.217C365.074 583.423 363.942 582.911 362.677 582.911C361.44 582.911 360.302 583.398 359.472 584.174C358.633 583.398 357.514 582.911 356.277 582.911C353.765 582.911 351.732 584.875 351.602 587.361H358.011H360.942H364.486H367.343H373.827C373.712 584.875 371.663 582.911 369.152 582.911Z" fill="#A5DFD9"/>
<path d="M299.388 582.911C298.129 582.911 296.992 583.423 296.155 584.217C295.31 583.423 294.178 582.911 292.91 582.911C291.673 582.911 290.538 583.398 289.705 584.174C288.869 583.398 287.75 582.911 286.513 582.911C283.998 582.911 281.965 584.875 281.838 587.361H288.248H291.179H294.722H297.579H304.063C303.945 584.875 301.9 582.911 299.388 582.911Z" fill="#A5DFD9"/>
<path d="M412.356 583.184C411.1 583.184 409.959 583.696 409.123 584.488C408.277 583.696 407.149 583.184 405.881 583.184C404.644 583.184 403.506 583.671 402.676 584.447C401.84 583.671 400.721 583.184 399.484 583.184C396.972 583.184 394.936 585.149 394.809 587.635H401.215H404.149H407.69H410.547H417.031C416.916 585.149 414.871 583.184 412.356 583.184" fill="#A5DFD9"/>
<path d="M810.543 578.165C807.857 578.165 805.42 579.236 803.636 580.968C801.846 579.236 799.412 578.165 796.732 578.165C794.084 578.165 791.687 579.198 789.916 580.887C788.134 579.198 785.738 578.165 783.099 578.165C777.758 578.165 773.419 582.37 773.164 587.641H786.792H793.03H800.609H806.667H820.478C820.22 582.37 815.88 578.165 810.543 578.165" fill="#A5DFD9"/>
<path d="M822.619 582.911C821.363 582.911 820.219 583.423 819.386 584.217C818.537 583.423 817.409 582.911 816.144 582.911C814.903 582.911 813.766 583.398 812.939 584.174C812.1 583.398 810.981 582.911 809.743 582.911C807.232 582.911 805.196 584.875 805.068 587.361H811.478H814.409H817.953H820.81H827.294C827.179 584.875 825.13 582.911 822.619 582.911Z" fill="#A5DFD9"/>
<path d="M541.556 579.214C539.209 579.214 537.08 580.152 535.522 581.663C533.959 580.152 531.833 579.214 529.489 579.214C527.173 579.214 525.081 580.114 523.536 581.592C521.979 580.114 519.884 579.214 517.577 579.214C512.911 579.214 509.116 582.889 508.898 587.489H520.804H526.256H532.874H538.168H550.235C550.017 582.889 546.215 579.214 541.556 579.214" fill="#A5DFD9"/>
<path d="M518.086 583.184C516.83 583.184 515.689 583.696 514.853 584.488C514.007 583.696 512.876 583.184 511.611 583.184C510.37 583.184 509.233 583.671 508.403 584.447C507.566 583.671 506.447 583.184 505.21 583.184C502.699 583.184 500.663 585.149 500.535 587.635H506.945H509.876H513.42H516.276H522.761C522.642 585.149 520.597 583.184 518.086 583.184Z" fill="#A5DFD9"/>
<path d="M619.894 583.184C618.635 583.184 617.497 583.696 616.658 584.488C615.813 583.696 614.681 583.184 613.416 583.184C612.179 583.184 611.041 583.671 610.211 584.447C609.375 583.671 608.253 583.184 607.019 583.184C604.504 583.184 602.471 585.149 602.344 587.635H608.75H611.682H615.228H618.082H624.566C624.451 585.149 622.406 583.184 619.894 583.184Z" fill="#A5DFD9"/>
<path d="M733.45 583.184C732.194 583.184 731.053 583.696 730.217 584.488C729.371 583.696 728.243 583.184 726.972 583.184C725.738 583.184 724.6 583.671 723.77 584.447C722.934 583.671 721.812 583.184 720.574 583.184C718.063 583.184 716.03 585.149 715.902 587.635H722.309H725.24H728.784H731.64H738.125C738.01 585.149 735.961 583.184 733.45 583.184" fill="#A5DFD9"/>
<path d="M780.441 583.184C779.182 583.184 778.044 583.696 777.208 584.488C776.363 583.696 775.231 583.184 773.966 583.184C772.726 583.184 771.588 583.671 770.758 584.447C769.922 583.671 768.803 583.184 767.566 583.184C765.051 583.184 763.018 585.149 762.891 587.635H769.3H772.232H775.775H778.632H785.113C784.998 585.149 782.953 583.184 780.441 583.184" fill="#A5DFD9"/>
<path d="M1512.14 600H-192V586.555H1512.14V600Z" fill="#A5DFD9"/>
<path d="M1202.16 580.977H1202.32V580.695L1201.9 579.906H1201.39V558.108H1202.3V558.58L1202.15 558.735L1202.04 558.847L1201.85 559.418C1201.85 559.915 1202.16 560.318 1202.55 560.318L1202.62 560.312V560.548H1202.71L1202.7 561.51L1202.55 581.238H1202.3V581.778H1202.16V581.129V580.977ZM1404.56 580.977V581.778H1404.42V581.238H1404.17L1404.12 574.779L1404.01 560.548H1404.1V560.312L1404.17 560.318C1404.56 560.318 1404.87 559.915 1404.87 559.418L1404.69 558.85L1404.57 558.735L1404.42 558.58V558.108H1405.33V579.906H1404.82L1404.4 580.695V580.977H1404.56ZM1212.6 558.58L1212.44 558.735L1212.33 558.847L1212.15 559.418C1212.15 559.915 1212.46 560.318 1212.84 560.318L1212.91 560.312V560.548H1213L1212.85 581.238H1212.6V581.778H1212.13V582.15H1205.6V581.778H1205.52H1205.13V581.238H1204.88L1204.86 579.05L1204.72 560.548H1204.83V560.312L1204.88 560.318L1205.27 560.169L1205.33 560.079L1205.4 559.989L1205.58 559.418L1205.56 559.257L1205.56 559.204L1205.53 559.102L1205.51 559.046L1205.48 558.959L1205.45 558.906V558.903L1205.39 558.801L1205.38 558.791L1205.37 558.779L1205.33 558.739L1205.3 558.704L1205.24 558.649L1205.2 558.627L1205.13 558.583V558.58V558.108H1212.6V558.58ZM1216.53 579.906H1215.82L1215.41 580.695H1215.39V580.977H1215.57V581.129V581.778H1215.42V581.238H1215.17L1215.14 577.647L1215.01 560.548H1215.12V560.312L1215.17 560.318L1215.56 560.169L1215.63 560.079L1215.69 559.989L1215.87 559.418L1215.86 559.257L1215.85 559.204L1215.82 559.102L1215.8 559.046L1215.77 558.959L1215.74 558.906L1215.68 558.801L1215.67 558.788L1215.66 558.779L1215.62 558.739L1215.59 558.704L1215.53 558.649L1215.5 558.627L1215.42 558.58V558.108H1216.53V579.906ZM1391.3 558.58L1391.3 558.583L1391.23 558.627L1391.2 558.649L1391.13 558.704L1391.1 558.739L1391.06 558.779L1391.05 558.791L1391.04 558.801L1390.98 558.903V558.906L1390.95 558.959L1390.92 559.046L1390.9 559.102L1390.87 559.204L1390.87 559.257L1390.85 559.418L1391.06 560.055L1391.55 560.318L1391.6 560.312V560.548H1391.71L1391.7 561.464L1391.58 577.538L1391.55 581.238H1391.3V581.778H1391.15V581.129V580.977H1391.33V580.695H1391.31L1390.9 579.906H1390.19V558.108H1391.3V558.58ZM1401.59 558.58V558.583L1401.52 558.627L1401.49 558.649L1401.42 558.704L1401.39 558.739L1401.35 558.779L1401.34 558.788L1401.34 558.801L1401.27 558.906L1401.24 558.959L1401.21 559.046L1401.19 559.102L1401.16 559.204L1401.15 559.257L1401.14 559.418C1401.14 559.915 1401.46 560.318 1401.84 560.318L1401.89 560.312V560.548H1402L1401.93 569.654L1401.87 577.538L1401.87 577.87L1401.84 581.238H1401.59V581.778H1401.2H1401.12V582.15H1394.59V581.778H1394.12V581.238H1393.87L1393.72 560.548H1393.81V560.312L1393.88 560.318C1394.26 560.318 1394.58 559.915 1394.58 559.418L1394.39 558.847L1394.28 558.735L1394.12 558.58V558.108H1401.59V558.58ZM1225.57 580.977H1225.73V580.695L1225.32 579.906H1224.6V558.108H1225.71V558.58L1225.56 558.735L1225.45 558.85L1225.26 559.418C1225.26 559.915 1225.58 560.318 1225.96 560.318L1226.03 560.312V560.548H1226.12L1225.97 581.238H1225.71V581.778H1225.57V581.129V580.977ZM1265.86 581.778H1265.47V581.238H1265.22L1265.19 577.625L1265.06 561.178L1265.06 560.548H1265.17V560.312L1265.22 560.318L1265.36 560.303L1265.61 560.169L1265.71 560.058L1265.92 559.418L1265.9 559.257L1265.89 559.204L1265.87 559.102L1265.85 559.046L1265.82 558.959L1265.79 558.906V558.903L1265.73 558.801L1265.72 558.791L1265.71 558.779L1265.67 558.739L1265.64 558.704L1265.57 558.649L1265.54 558.627L1265.47 558.583L1265.47 558.58V558.108H1274.95V558.58L1274.8 558.735L1274.69 558.847L1274.5 559.418C1274.5 559.915 1274.81 560.318 1275.2 560.318L1275.27 560.312V560.548H1275.36L1275.2 581.238H1274.95V581.778H1274.49V582.15H1265.93V581.778H1265.86ZM1253.55 581.778H1253.16V581.238H1252.91L1252.88 577.395L1252.76 562.19L1252.75 560.548H1252.86V560.312L1252.91 560.318L1253.3 560.169L1253.36 560.079L1253.43 559.989L1253.61 559.418L1253.59 559.257L1253.58 559.204L1253.56 559.102L1253.54 559.046L1253.51 558.959L1253.48 558.906V558.903L1253.42 558.801L1253.41 558.791L1253.4 558.779L1253.36 558.739L1253.33 558.704L1253.26 558.649L1253.23 558.627L1253.16 558.583V558.58V558.108H1262.64V558.58L1262.49 558.735L1262.38 558.847L1262.19 559.418C1262.19 559.915 1262.51 560.318 1262.89 560.318L1262.96 560.312V560.548H1263.05L1262.89 581.238H1262.64V581.778H1262.18V582.15H1253.62V581.778H1253.55ZM1241.24 581.778H1240.85V581.238H1240.6L1240.57 577.395L1240.45 562.19L1240.44 560.548H1240.55V560.312L1240.6 560.318L1240.99 560.169L1241.05 560.079L1241.12 559.989L1241.3 559.418L1241.28 559.257L1241.27 559.204L1241.25 559.102L1241.23 559.046L1241.2 558.959L1241.17 558.906V558.903H1241.17L1241.1 558.801L1241.1 558.791L1241.09 558.779L1241.05 558.739L1241.02 558.704L1240.95 558.649L1240.92 558.627L1240.85 558.583V558.58V558.108H1250.33V558.58L1250.18 558.735L1250.07 558.85L1249.88 559.418C1249.88 559.915 1250.2 560.318 1250.58 560.318L1250.65 560.312V560.548H1250.74L1250.58 581.238H1250.33V581.778H1249.87V582.15H1241.31V581.778H1241.24ZM1228.93 581.778H1228.54V581.238H1228.29L1228.26 577.395L1228.14 562.19L1228.13 560.548H1228.24V560.312L1228.29 560.318L1228.68 560.169L1228.74 560.079L1228.81 559.989L1228.99 559.418L1228.97 559.257L1228.97 559.204L1228.94 559.102L1228.92 559.046L1228.89 558.959L1228.86 558.906V558.903L1228.79 558.801L1228.78 558.791L1228.78 558.779L1228.74 558.739L1228.71 558.704L1228.65 558.649L1228.61 558.627L1228.54 558.583V558.58V558.108H1238.02V558.58L1237.87 558.735L1237.76 558.85L1237.57 559.418C1237.57 559.915 1237.89 560.318 1238.27 560.318L1238.34 560.312V560.548H1238.43L1238.27 581.238H1238.02V581.778H1237.55V582.15H1229V581.778H1228.93ZM1367.89 581.778V581.238H1367.64L1367.48 560.548H1367.57V560.312L1367.65 560.318C1368.03 560.318 1368.34 559.915 1368.34 559.418L1368.16 558.847L1368.04 558.735L1367.89 558.58V558.108H1377.38V558.58L1377.38 558.583L1377.3 558.627L1377.27 558.649L1377.2 558.704L1377.17 558.739L1377.14 558.779L1377.13 558.791L1377.12 558.801L1377.05 558.903V558.906L1377.03 558.959L1376.99 559.046L1376.97 559.102L1376.95 559.204L1376.94 559.257L1376.92 559.418C1376.92 559.915 1377.24 560.318 1377.62 560.318L1377.67 560.312V560.548H1377.79L1377.73 567.572L1377.66 577.37L1377.63 581.238H1377.38V581.778H1376.99H1376.91V582.15H1368.36V581.778H1367.89ZM1355.66 581.778L1355.58 581.579V581.238H1355.44L1355.39 581.123L1355.33 580.971L1355.17 560.548H1355.26V560.312L1355.34 560.318C1355.72 560.318 1356.03 559.915 1356.03 559.418L1355.85 558.847L1355.73 558.735L1355.58 558.58V558.108H1365.07V558.58V558.583L1364.99 558.627L1364.96 558.649L1364.89 558.704L1364.86 558.739L1364.83 558.779L1364.82 558.791L1364.81 558.801L1364.74 558.903V558.906L1364.71 558.959L1364.68 559.046L1364.66 559.102L1364.64 559.204L1364.63 559.257L1364.61 559.418L1364.82 560.058L1365.31 560.318L1365.36 560.312V560.548H1365.48L1365.42 567.572L1365.35 577.647L1365.32 581.238H1365.07V581.778H1364.68H1364.6V582.15H1356.05V581.778H1355.66ZM1278.69 578.494H1277.97L1277.56 579.388H1277.55V579.708H1277.72V579.888V580.781V581.238H1277.53L1277.5 577.538L1277.38 561.464L1277.37 560.548H1277.48V560.312L1277.53 560.318C1277.92 560.318 1278.23 559.915 1278.23 559.418L1278.22 559.257L1278.2 559.204L1278.18 559.102L1278.16 559.046L1278.13 558.959L1278.1 558.906V558.903L1278.04 558.801L1278.03 558.791L1278.02 558.779L1277.98 558.739L1277.95 558.704L1277.89 558.649L1277.85 558.627L1277.78 558.583V558.58V558.108H1278.69V578.494ZM1311.5 561.228V577.079H1294.3V561.228H1294.39H1311.5ZM1352.76 558.58V558.583L1352.68 558.627L1352.65 558.649L1352.59 558.704L1352.55 558.739L1352.52 558.779L1352.51 558.791L1352.5 558.801L1352.43 558.903V558.906L1352.4 558.959L1352.37 559.046L1352.35 559.102L1352.33 559.204L1352.32 559.257L1352.31 559.418L1352.51 560.058L1353 560.318L1353.05 560.312L1353.02 575.412L1347.29 561.6L1345.85 558.13L1352.76 558.108V558.58ZM1381.15 580.977V582.15H1380.67V581.778H1380.2V581.238H1379.95L1379.79 560.548H1379.88V560.312L1379.96 560.318C1380.34 560.318 1380.65 559.915 1380.65 559.418L1380.47 558.847L1380.35 558.735L1380.2 558.58V558.108H1382.12V579.906H1381.41L1381 580.695V580.977H1381.15ZM1411.77 586.073V584.829H1410.32V580.977H1410.5V580.695H1410.49L1410.07 579.906H1409.36V558.108H1409.51V555.281H1409.87H1409.92V554.387H1409.87V553.602V552.851H1410.04V552.671H1410.07V552.41H1410.04H1409.87V551.786V550.892H1410.04V549.998H1409.51V547.044H1409.87V546.15H1410.04V545.256H1387.57H1385.48H1327.27V542.301H1328.03V541.407H1328.31V540.513H1323.14V539.66H1316.14V538.912H1289.97V539.66H1282.97V540.513H1277.8V541.407H1278.08V542.301H1278.69V545.256H1221.24H1219.15H1196.69V546.15H1196.85V547.044H1197.22V549.998H1196.69V550.892H1196.85V551.786V552.41H1196.69H1196.65V552.671H1196.69V552.851H1196.85V553.602V554.387H1196.8V555.281H1196.85H1197.22V558.108H1197.36V579.906H1196.65L1196.23 580.695H1196.22V580.977H1196.39V581.129V581.914V584.829H1194.94V586.073H1193.89V587.604H1270.17H1319.6H1336.54H1358.08H1412.81V586.073H1411.77" fill="#A5DFD9"/>
<path d="M968.957 581.433L968.954 581.381L968.665 575.341L968.652 575.123L968.363 569.068L968.354 568.866L968.059 562.742L968.052 562.609L967.484 550.74L967.477 550.672L967.167 544.114L967.16 543.99L966.884 538.229L966.831 537.158L966.582 531.975L966.542 531.115L966.284 525.718L966.274 525.519L966.197 523.942H966.34H966.349V523.725H966.405H966.414V523.266H966.405H966.197L964.288 512.123L964.285 512.151L964.279 512.123L964.27 512.173L964.26 512.123L964.257 512.151L964.251 512.123L964.226 512.294L962.37 523.266H962.146H962.137V523.725H962.146H962.199V523.942H962.209H962.352L962.289 525.221L962.268 525.718L961.702 537.5L961.665 538.229L961.54 540.861L961.528 541.115L961.369 544.415L961.366 544.486L961.242 547.115L961.217 547.615L960.937 553.44L960.916 553.869L960.797 556.352L960.773 556.848L960.645 559.484L960.62 559.977L960.344 565.738L960.322 566.234L960.039 572.15L960.02 572.491L959.896 575.123L959.887 575.319L959.594 581.381L959.582 581.613L959.277 587.995H959.287H964.27H964.279H969.265H969.274L968.957 581.433" fill="#A5DFD9"/>
<path d="M170.078 582.814H170.189V582.628L169.903 582.107H169.552V567.584H170.18V567.901L170.074 568L169.997 568.075L169.869 568.456C169.869 568.788 170.084 569.058 170.348 569.058L170.398 569.052V569.211H170.46L170.363 581.408L170.351 582.991H170.18V583.351H170.078V582.923V582.814ZM309.61 582.814V583.351H309.51V582.991H309.336L309.268 574.111L309.227 569.211H309.293V569.052L309.339 569.058C309.603 569.058 309.821 568.788 309.821 568.456L309.694 568.075L309.616 568L309.51 567.901V567.584H310.135V582.107H309.784L309.501 582.628V582.814H309.61ZM177.274 567.901L177.168 568L177.09 568.075L176.963 568.456C176.963 568.788 177.177 569.058 177.445 569.058L177.491 569.052V569.211H177.556L177.513 574.825L177.448 582.991H177.274V583.351H176.953V583.596H172.449V583.351H172.396H172.126V582.991H171.955L171.927 579.77L171.874 572.792L171.843 569.211H171.921V569.055L171.958 569.058L172.225 568.956L172.244 568.909L172.437 568.456L172.427 568.348L172.421 568.317L172.406 568.245L172.39 568.208L172.365 568.152L172.35 568.115L172.303 568.047L172.297 568.04L172.291 568.031L172.266 568.003L172.244 567.981L172.201 567.941L172.179 567.932L172.126 567.901V567.584H177.274V567.901ZM179.987 582.107H179.496L179.213 582.628H179.204V582.814H179.322V582.923V583.351H179.219V582.991H179.049L179.03 580.601L178.968 572.792L178.94 569.211H179.017V569.055L179.052 569.058L179.319 568.956L179.341 568.909L179.533 568.456L179.524 568.348L179.515 568.317L179.499 568.245L179.487 568.208L179.462 568.152L179.446 568.115L179.443 568.112L179.4 568.047L179.394 568.04L179.387 568.031L179.359 568.003L179.341 567.981L179.294 567.941L179.275 567.932L179.219 567.901V567.584H179.987V582.107ZM186.213 582.814H186.325V582.628L186.043 582.107H185.551V567.584H186.316V567.901L186.213 568L186.133 568.075L186.005 568.456C186.005 568.788 186.22 569.058 186.487 569.058L186.534 569.052V569.211H186.599L186.49 582.991H186.316V583.351H186.213V582.923V582.814ZM300.468 567.901L300.415 567.932L300.393 567.941L300.35 567.981L300.328 568.003L300.303 568.031L300.297 568.04L300.291 568.047L300.244 568.115L300.228 568.152L300.2 568.208L300.188 568.245L300.172 568.317L300.166 568.348L300.157 568.456C300.157 568.788 300.371 569.058 300.639 569.058L300.673 569.055V569.211H300.751L300.645 582.125L300.642 582.991H300.468V583.351H300.368V582.923V582.814H300.486V582.628H300.477L300.191 582.107H299.703V567.584H300.468V567.901ZM307.564 567.901L307.508 567.932L307.49 567.941L307.443 567.981L307.424 568.003L307.396 568.031L307.39 568.04L307.384 568.047L307.337 568.115L307.322 568.152L307.297 568.208L307.285 568.245L307.266 568.317L307.26 568.348L307.25 568.456C307.25 568.788 307.468 569.058 307.732 569.058L307.766 569.055V569.211H307.844L307.829 571.222L307.754 580.527L307.735 582.991H307.564V583.351H307.294H307.241V583.596H302.737V583.351H302.414V582.991H302.243L302.171 574.111L302.134 569.211H302.196V569.052L302.246 569.058C302.51 569.058 302.724 568.788 302.724 568.456V568.45L302.597 568.075L302.519 568L302.414 567.901V567.584H307.564V567.901ZM213.994 583.351H213.723V582.991H213.549L213.531 580.595L213.44 569.211H213.518V569.055L213.552 569.058L213.649 569.046L213.82 568.956L213.891 568.882L214.034 568.456L214.025 568.348L214.015 568.317L214 568.245L213.988 568.208L213.963 568.152L213.944 568.115V568.112L213.9 568.047L213.894 568.04L213.885 568.031L213.863 568.003L213.841 567.981L213.795 567.941L213.776 567.932L213.723 567.901V567.584H220.26V567.901L220.155 568L220.077 568.075L219.953 568.456C219.953 568.788 220.167 569.058 220.431 569.058L220.478 569.052V569.211H220.543L220.503 574.111L220.434 582.991H220.26V583.351H219.94V583.596H214.043V583.351H213.994ZM205.508 583.351H205.237V582.991H205.063L205.041 580.136L205.016 577.044L204.954 569.211H205.032V569.055L205.066 569.058L205.334 568.956L205.355 568.909L205.545 568.456L205.539 568.348L205.529 568.317L205.514 568.245L205.501 568.208L205.477 568.152L205.458 568.115L205.414 568.047L205.408 568.04L205.399 568.031L205.377 568.003L205.352 567.981L205.309 567.941L205.29 567.932L205.237 567.901V567.584H211.774V567.901L211.669 568L211.591 568.075L211.467 568.456C211.467 568.788 211.678 569.058 211.945 569.058L211.992 569.052V569.211H212.057L211.948 582.991H211.774V583.351H211.454V583.596H205.557V583.351H205.508ZM197.022 583.351H196.751V582.991H196.577L196.565 581.29L196.468 569.211H196.546V569.055L196.58 569.058L196.847 568.956L196.869 568.909L197.059 568.456L197.053 568.348L197.043 568.317L197.028 568.245L197.015 568.208L196.99 568.152L196.972 568.115L196.928 568.047L196.922 568.04L196.913 568.031L196.891 568.003L196.869 567.981L196.823 567.941L196.804 567.932L196.751 567.901V567.584H203.288V567.901L203.183 568L203.105 568.075L202.98 568.456C202.98 568.788 203.192 569.058 203.459 569.058L203.506 569.052V569.211H203.571L203.531 574.111L203.462 582.991H203.288V583.351H202.968V583.596H197.071V583.351H197.022ZM188.536 583.351H188.265V582.991H188.091L188.072 580.595L188.032 575.654L187.982 569.211H188.06V569.055L188.094 569.058L188.361 568.956L188.383 568.909L188.573 568.456L188.567 568.348L188.557 568.317L188.542 568.245L188.529 568.208L188.504 568.152L188.486 568.115V568.112L188.439 568.047L188.436 568.04L188.427 568.031L188.405 568.003L188.38 567.981L188.337 567.941L188.318 567.932L188.265 567.901V567.584H194.802V567.901L194.696 568L194.619 568.075L194.491 568.456C194.491 568.788 194.706 569.058 194.973 569.058L195.02 569.052V569.211H195.085L195.079 569.813L194.976 582.991H194.802V583.351H194.482V583.596H188.585V583.351H188.536ZM284.329 583.351V582.991H284.158L284.052 569.813L284.049 569.211H284.114V569.052L284.161 569.058C284.425 569.058 284.639 568.788 284.639 568.456L284.515 568.075L284.434 568L284.329 567.901V567.584H290.869V567.901L290.816 567.932L290.797 567.941L290.751 567.981L290.729 568.003L290.704 568.031L290.698 568.04L290.692 568.047L290.645 568.115L290.626 568.152L290.605 568.208L290.592 568.245L290.573 568.317L290.567 568.348L290.558 568.456L290.698 568.882L291.04 569.058L291.055 569.055H291.071V569.211H291.074H291.149L291.121 572.988L291.046 582.476L291.043 582.991H290.869V583.351H290.598H290.546V583.596H284.652V583.351H284.329ZM275.902 583.351L275.843 583.218V582.991H275.746L275.668 582.811L275.563 569.211H275.628V569.052L275.675 569.058C275.939 569.058 276.153 568.788 276.153 568.456L276.029 568.075L275.948 568L275.843 567.901V567.584H282.383V567.901L282.33 567.932L282.311 567.941L282.265 567.981L282.243 568.003L282.218 568.031L282.212 568.04L282.206 568.047L282.159 568.115L282.14 568.152L282.119 568.208L282.106 568.245L282.087 568.317L282.081 568.348L282.072 568.456L282.212 568.882L282.554 569.058L282.588 569.055V569.211H282.662L282.659 569.744L282.579 579.77L282.554 582.991H282.383V583.351H282.112H282.059V583.596H276.166V583.351H275.902ZM222.834 581.163H222.343L222.06 581.759H222.051V581.973H222.169V582.091V582.687V582.991H222.035L222.029 582.125L221.926 569.211H222.004V569.055L222.038 569.058C222.303 569.058 222.517 568.788 222.517 568.456L222.511 568.348L222.502 568.317L222.486 568.245L222.474 568.208L222.449 568.152L222.433 568.115L222.387 568.047L222.38 568.04L222.374 568.031L222.349 568.003L222.327 567.981L222.281 567.941L222.262 567.932L222.209 567.901V567.584H222.834V581.163ZM273.897 567.901L273.844 567.932L273.822 567.941L273.779 567.981L273.757 568.003L273.732 568.031L273.726 568.04L273.719 568.047L273.673 568.112V568.115L273.654 568.152L273.632 568.208L273.62 568.245L273.601 568.317L273.595 568.348L273.586 568.456C273.586 568.788 273.8 569.058 274.068 569.058L274.099 569.055V569.211H274.176L274.099 579.158L269.128 567.584H273.897V567.901ZM245.454 569.664V580.22H233.596V569.664H233.664H245.454ZM293.474 582.814V583.596H293.138V583.351H292.815V582.991H292.644L292.538 569.813L292.535 569.211H292.6V569.052L292.647 569.058C292.911 569.058 293.126 568.788 293.126 568.456L293.001 568.075L292.92 568L292.815 567.901V567.584H294.139V582.107H293.648L293.362 582.628V582.814H293.474ZM314.577 586.213V585.384H313.582V582.814H313.7V582.628H313.694L313.408 582.107H312.917V567.584H313.017V565.7H313.268H313.303V565.104H313.268V564.58V564.08H313.38V563.962H313.405V563.788H313.38H313.268V563.372V562.776H313.38V562.181H313.017V560.213H313.268V559.617H313.38V559.021H297.9H296.458H256.328V557.053H256.85V556.457H257.04V555.864H253.48V555.293H248.653V554.794H230.615V555.293H225.784V555.864H222.225V556.457H222.418V557.053H222.834V559.021H183.232H181.79H166.307V559.617H166.422V560.213H166.671V562.181H166.307V562.776H166.422V563.372V563.788H166.307H166.282V563.962H166.307V564.08H166.422V564.58V565.104H166.388H166.385V565.7H166.388H166.422H166.671V567.584H166.77V582.107H166.279L165.996 582.628H165.987V582.814H166.105V582.923V583.444V585.384H165.104V586.213H164.383V587.231H216.965H251.037H262.719H277.568H315.298V586.213H314.577" fill="#A5DFD9"/>
</svg>
