<svg width="20" height="18" viewBox="0 0 20 18" fill="none" xmlns="http://www.w3.org/2000/svg">
<path d="M0.319672 9.77706L7.54238 16.9999C7.74856 17.2061 8.02335 17.3193 8.31635 17.3193C8.60968 17.3193 8.88432 17.2059 9.09049 16.9999L9.74626 16.344C9.95228 16.1381 10.0658 15.8632 10.0658 15.57C10.0658 15.277 9.95228 14.9928 9.74626 14.7869L5.53264 10.564L18.9195 10.564C19.5231 10.564 20 10.0915 20 9.48779V8.56048C20 7.95675 19.5231 7.43659 18.9195 7.43659L5.48483 7.43659L9.7461 3.19012C9.95211 2.98394 10.0656 2.71647 10.0656 2.4233C10.0656 2.13046 9.95211 1.85907 9.7461 1.65306L9.09033 0.999245C8.88416 0.793068 8.60952 0.680712 8.31619 0.680712C8.02319 0.680712 7.74839 0.794531 7.54222 1.00071L0.319508 8.22341C0.112844 8.43024 -0.000812531 8.70634 0 8.99983C-0.000650406 9.2943 0.112843 9.57056 0.319672 9.77706Z" fill="white"/>
</svg>
