<svg width="1440" height="1019" viewBox="0 0 1440 1019" fill="none" xmlns="http://www.w3.org/2000/svg">
<path fillRule="evenodd" clipRule="evenodd" d="M77 760C215.071 760 327 648.071 327 510C327 371.929 215.071 260 77 260C-61.0712 260 -173 371.929 -173 510C-173 648.071 -61.0712 760 77 760ZM77 660C159.843 660 227 592.843 227 510C227 427.157 159.843 360 77 360C-5.84271 360 -73 427.157 -73 510C-73 592.843 -5.84271 660 77 660Z" fill="#F2F8F8"/>
<path d="M709 618C709 673.228 664.228 718 609 718C553.772 718 509 673.228 509 618C509 562.772 553.772 518 609 518C664.228 518 709 562.772 709 618Z" fill="#F2F8F8"/>
<path d="M571.5 161.41C418.356 120.488 259.5 0 259.5 0H1440V894.5C1440 894.5 1435 797.966 1258 738C1081 678.034 983.851 719.357 923 623.5C837.301 488.5 1026.21 314.331 923 227C819 139 736.5 205.5 571.5 161.41Z" fill="#F2F8F8"/>
</svg>
