<svg width="36" height="36" viewBox="0 0 36 36" fill="none" xmlns="http://www.w3.org/2000/svg">
<g clipPath="url(#clip0_2_22149)">
<g clipPath="url(#clip1_2_22149)">
<path d="M33.6312 28.8123C31.1175 28.3243 21.8279 26.5243 20.0869 26.1861C20.0869 26.1861 23.2538 22.4384 23.5322 22.0742H31.2202L33.6312 28.8123Z" fill="#01A796"/>
<path d="M36 35.4336H15.0335C14.1399 34.1047 12.3989 31.5179 11.4849 30.1588L18.0724 27.9439C19.9132 28.2997 31.4086 30.5307 34.4574 31.1213L36 35.4336Z" fill="#01A796"/>
<path d="M4.29328 23.2477L0 35.4336H12.491C12.1374 34.9077 4.29328 23.2477 4.29328 23.2477Z" fill="#01A796"/>
<path d="M10.2635 28.3433L16.0938 26.3837L12.4678 22.0742H6.04614L10.2635 28.3433Z" fill="#01A796"/>
<path d="M16.0397 23.1289C16.6695 23.8705 17.424 24.7144 18 25.3297C18.8926 24.3719 19.9514 23.1691 20.8385 22.0742C23.6693 18.598 27.1441 13.5552 27.1441 9.74703C27.1441 3.99547 22.4951 0.558594 18 0.558594C13.5049 0.558594 8.85583 3.99547 8.85583 9.74703C8.89345 13.9857 12.9462 19.4689 16.0397 23.1289ZM13.5604 8.81117C13.5604 6.36359 15.5524 4.37234 18 4.37234C23.89 4.61647 23.8875 13.0076 18 13.2507C15.5524 13.2507 13.5604 11.2595 13.5604 8.81117Z" fill="#503895"/>
</g>
</g>
<defs>
<clipPath id="clip0_2_22149">
<rect width="36" height="36" fill="white"/>
</clipPath>
<clipPath id="clip1_2_22149">
<rect width="36" height="36" fill="white" transform="translate(0 -0.00390625)"/>
</clipPath>
</defs>
</svg>
