<svg width="16" height="20" viewBox="0 0 16 20" fill="none" xmlns="http://www.w3.org/2000/svg">
<path d="M8.00002 0C4.00607 0 0.756775 3.2493 0.756775 7.2432C0.756775 12.1998 7.23877 19.4763 7.51474 19.7836C7.77396 20.0723 8.22654 20.0718 8.48529 19.7836C8.76127 19.4763 15.2433 12.1998 15.2433 7.2432C15.2432 3.2493 11.9939 0 8.00002 0ZM8.00002 10.8875C5.99056 10.8875 4.3558 9.25266 4.3558 7.2432C4.3558 5.23375 5.9906 3.59898 8.00002 3.59898C10.0094 3.59898 11.6442 5.23379 11.6442 7.24324C11.6442 9.2527 10.0094 10.8875 8.00002 10.8875Z" fill="#9688BF"/>
</svg>
