<svg width="12" height="11" viewBox="0 0 12 11" fill="none" xmlns="http://www.w3.org/2000/svg">
<path d="M10.5 0.75H1.5C0.87975 0.75 0.375 1.25475 0.375 1.875V7.875C0.375 8.49525 0.87975 9 1.5 9H2.625V10.875C2.625 11.0194 2.70788 11.1502 2.83725 11.2129C2.88937 11.2376 2.94488 11.25 3 11.25C3.08363 11.25 3.1665 11.2222 3.23438 11.1679L5.94413 9H10.5C11.1202 9 11.625 8.49525 11.625 7.875V1.875C11.625 1.25475 11.1202 0.75 10.5 0.75ZM6 6H3C2.79262 6 2.625 5.832 2.625 5.625C2.625 5.418 2.79262 5.25 3 5.25H6C6.20738 5.25 6.375 5.418 6.375 5.625C6.375 5.832 6.20738 6 6 6ZM9 4.5H3C2.79262 4.5 2.625 4.332 2.625 4.125C2.625 3.918 2.79262 3.75 3 3.75H9C9.20737 3.75 9.375 3.918 9.375 4.125C9.375 4.332 9.20737 4.5 9 4.5Z" fill="#01A796"/>
</svg>
