<svg width="120" height="120" viewBox="0 0 120 120" fill="none" xmlns="http://www.w3.org/2000/svg">
<path d="M109 78C109 100.092 91.0917 118 69 118C46.9083 118 29 100.092 29 78C29 55.9083 46.9083 38 69 38C91.0917 38 109 55.9083 109 78Z" fill="white"/>
<path d="M93.0089 85.6788C92.505 83.827 92.3273 81.9016 92.4839 79.9889L93.4216 71.1565C93.8794 65.6147 93.0347 60.0623 90.5815 55.0723C84.2428 42.1786 85.6969 41.243 85.5 28.4463C85.5 25.8323 83.3808 23.7129 80.7666 23.7129C78.1523 23.7129 76.0331 25.8321 76.0331 28.4463C76.0331 80.4851 76.1299 76.6664 75.8091 78.1922V85.0064C75.8091 90.7477 71.1382 95.4188 65.3969 95.4188C61.5839 95.4188 48.4343 95.4188 39.4863 95.4188C43.467 100.955 48.9127 105.289 55.2323 107.914C55.2715 107.93 55.3106 107.947 55.3498 107.963C59.998 109.939 62.998 112 66.498 117.5L66.9008 115.754C79.7588 114.263 91.1034 112.384 99.9319 103.838L93.0089 85.6788Z" fill="#FFCEB6"/>
<path d="M21.9057 23.8785L20.4641 22.5428C18.2415 20.4836 14.7383 20.6172 12.6791 22.8395C10.6198 25.0621 10.7534 28.5653 12.9758 30.6245L21.9057 38.8987V23.8785Z" fill="#FFCEB6"/>
<path d="M15.9057 26.4838C14.5423 25.2205 13.9688 23.4144 14.2016 21.6934C13.6451 21.9781 13.1269 22.3564 12.6791 22.8395C10.6198 25.062 10.7534 28.5652 12.9758 30.6245L21.9057 38.8986V32.0434L15.9057 26.4838Z" fill="#FFBFA1"/>
<path fillRule="evenodd" clipRule="evenodd" d="M66.4187 118.099C65.3777 114.79 62.7789 112.005 59.499 110C61.7387 110.58 63.5876 110.84 66.0089 110.84C80.0335 110.84 91.6374 100.483 93.5925 87L99.9603 103.703C99.237 104.576 98.4773 105.417 97.6836 106.225C92.3994 110.792 86.2739 114.412 79.5706 116.82C76.2486 117.714 72.7557 118.19 69.1514 118.19C68.2329 118.19 67.3217 118.159 66.4187 118.099Z" fill="#FFBFA1"/>
<path d="M67.8784 95.6426H29.8546C25.3581 95.6426 21.7002 91.9845 21.7002 87.488V8.15461C21.7002 3.65812 25.3581 0 29.8546 0H67.8784C72.3749 0 76.0328 3.65812 76.0328 8.15461V87.4882C76.0328 91.9845 72.3746 95.6426 67.8784 95.6426Z" fill="#AFA2BE"/>
<path d="M29.8546 0C25.3581 0 21.7002 3.65812 21.7002 8.15438V87.488C21.7002 91.9845 25.3583 95.6426 29.8546 95.6426H41.1899C38.6741 93.0762 41.6085 90.5691 41.6085 90.5691C37.4678 89.4827 37.8193 85.1311 37.8193 85.1311C37.8193 85.1311 37.8193 18.6281 37.8193 14.468C37.8193 10.3078 42.0451 9.25711 42.0451 9.25711C40.3806 7.59258 42.0451 5.84344 42.0451 5.84344V3.02508C40.5097 2.05195 40.8121 0.727031 41.1463 0L29.8546 0Z" fill="#665E93"/>
<path d="M42.8602 5.8435H42.046C41.2677 5.8435 40.6367 5.21256 40.6367 4.4342C40.6367 3.65584 41.2677 3.0249 42.046 3.0249H42.8602C43.6386 3.0249 44.2695 3.65584 44.2695 4.4342C44.2695 5.21256 43.6386 5.8435 42.8602 5.8435Z" fill="#665E93"/>
<path d="M55.4939 5.8435H47.67C46.8917 5.8435 46.2607 5.21256 46.2607 4.4342C46.2607 3.65584 46.8917 3.0249 47.67 3.0249H55.4939C56.2723 3.0249 56.9032 3.65584 56.9032 4.4342C56.9032 5.21256 56.2723 5.8435 55.4939 5.8435Z" fill="#665E93"/>
<path d="M67.8784 5.07324H62.1636C61.0981 5.07324 60.2347 5.93691 60.2347 7.00215C60.2347 8.24223 59.2201 9.25707 57.98 9.25707H39.7534C38.5133 9.25707 37.4984 8.24246 37.4984 7.00215C37.4984 5.93691 36.6348 5.07324 35.5695 5.07324H29.8545C28.153 5.07324 26.7734 6.45277 26.7734 8.15434V87.4879C26.7734 89.1895 28.153 90.569 29.8545 90.569H67.8784C69.5799 90.569 70.9594 89.1895 70.9594 87.4879C70.9594 79.3272 70.9594 10.3324 70.9594 8.15434C70.9594 6.45277 69.5799 5.07324 67.8784 5.07324Z" fill="white"/>
<path d="M41.6082 90.5695C41.0223 88.0413 43.9548 87.4507 43.9548 87.4507C43.9548 87.4507 45.8199 71.1126 43.9548 69.2475C42.0896 67.3823 43.9548 65.621 43.9548 65.621C43.9548 65.621 45.9924 49.4557 43.9548 47.4178C41.9171 45.3801 43.9548 43.7913 43.9548 43.7913V25.5881C40.3051 23.2837 42.2248 19.968 42.2248 19.968V14.7473C39.467 11.9894 42.0439 9.2585 42.0448 9.25756H39.7531C38.513 9.25756 37.4982 8.24295 37.4982 7.00264C37.4982 5.9374 36.6345 5.07373 35.5693 5.07373H29.8545C28.153 5.07373 26.7734 6.45303 26.7734 8.15482V87.4886C26.7734 89.1902 28.153 90.5697 29.8545 90.5697H41.6082V90.5695Z" fill="#F7FBFA"/>
<path d="M37.4034 19.9675H60.3298C61.7714 19.9675 62.94 18.7989 62.94 17.3573C62.94 15.9157 61.7714 14.7471 60.3298 14.7471H37.4034C35.9618 14.7471 34.793 15.9157 34.793 17.3573C34.793 18.7992 35.9618 19.9675 37.4034 19.9675Z" fill="#FFC638"/>
<path d="M37.4042 14.7471H42.2257V19.9678H37.4042C35.9625 19.9678 34.7939 18.7992 34.7939 17.3575C34.7937 15.9154 35.9625 14.7471 37.4042 14.7471Z" fill="#EAB329"/>
<path d="M64.9629 43.7911H32.7708C31.4794 43.7911 30.4229 42.7345 30.4229 41.4431V27.9359C30.4229 26.6445 31.4794 25.5879 32.7708 25.5879H64.9629C66.2543 25.5879 67.3109 26.6445 67.3109 27.9359V41.4431C67.3109 42.7345 66.2543 43.7911 64.9629 43.7911Z" fill="#E9EFFF"/>
<path d="M64.9629 65.6207H32.7708C31.4794 65.6207 30.4229 64.5641 30.4229 63.2727V49.7655C30.4229 48.474 31.4794 47.4175 32.7708 47.4175H64.9629C66.2543 47.4175 67.3109 48.474 67.3109 49.7655V63.2727C67.3109 64.5641 66.2543 65.6207 64.9629 65.6207Z" fill="#E9EFFF"/>
<path d="M64.9629 87.4503H32.7708C31.4794 87.4503 30.4229 86.3937 30.4229 85.1023V71.595C30.4229 70.3036 31.4794 69.2471 32.7708 69.2471H64.9629C66.2543 69.2471 67.3109 70.3036 67.3109 71.595V85.1023C67.3109 86.3937 66.2543 87.4503 64.9629 87.4503Z" fill="#E9EFFF"/>
<path d="M64.9629 43.7911H32.7708C31.4794 43.7911 30.4229 42.7345 30.4229 41.4431V27.9359C30.4229 26.6445 31.4794 25.5879 32.7708 25.5879H64.9629C66.2543 25.5879 67.3109 26.6445 67.3109 27.9359V41.4431C67.3109 42.7345 66.2543 43.7911 64.9629 43.7911Z" fill="#E0E0E0"/>
<path d="M64.9629 65.6207H32.7708C31.4794 65.6207 30.4229 64.5641 30.4229 63.2727V49.7655C30.4229 48.474 31.4794 47.4175 32.7708 47.4175H64.9629C66.2543 47.4175 67.3109 48.474 67.3109 49.7655V63.2727C67.3109 64.5641 66.2543 65.6207 64.9629 65.6207Z" fill="#E0E0E0"/>
<path d="M64.9629 87.4503H32.7708C31.4794 87.4503 30.4229 86.3937 30.4229 85.1023V71.595C30.4229 70.3036 31.4794 69.2471 32.7708 69.2471H64.9629C66.2543 69.2471 67.3109 70.3036 67.3109 71.595V85.1023C67.3109 86.3937 66.2543 87.4503 64.9629 87.4503Z" fill="#E0E0E0"/>
<path d="M41.6072 41.4429V27.9359C41.6072 26.6445 42.6638 25.5879 43.9552 25.5879H32.7708C31.4794 25.5879 30.4229 26.6445 30.4229 27.9359V41.4429C30.4229 42.7343 31.4794 43.7909 32.7708 43.7909H43.9552C42.6638 43.7909 41.6072 42.7343 41.6072 41.4429Z" fill="#AFA2BE"/>
<path d="M41.6072 63.2727V49.7655C41.6072 48.474 42.6638 47.4175 43.9552 47.4175H32.7708C31.4794 47.4175 30.4229 48.474 30.4229 49.7655V63.2727C30.4229 64.5641 31.4794 65.6207 32.7708 65.6207H43.9552C42.6638 65.6207 41.6072 64.5641 41.6072 63.2727Z" fill="#AFA2BE"/>
<path d="M41.6072 85.1023V71.595C41.6072 70.3036 42.6638 69.2471 43.9552 69.2471H32.7708C31.4794 69.2471 30.4229 70.3036 30.4229 71.595V85.1023C30.4229 86.3937 31.4794 87.4503 32.7708 87.4503H43.9552C42.6638 87.4503 41.6072 86.3937 41.6072 85.1023Z" fill="#AFA2BE"/>
<path d="M47.5972 33.1377H38.1826C37.2118 33.1377 36.4248 32.3509 36.4248 31.3799C36.4248 30.4089 37.2118 29.6221 38.1826 29.6221H47.5972C48.568 29.6221 49.355 30.4089 49.355 31.3799C49.355 32.3507 48.568 33.1377 47.5972 33.1377Z" fill="#665E93"/>
<path d="M59.5504 39.7568H38.1826C37.2118 39.7568 36.4248 38.97 36.4248 37.999C36.4248 37.028 37.2118 36.2412 38.1826 36.2412H59.5504C60.5211 36.2412 61.3082 37.028 61.3082 37.999C61.3082 38.97 60.5211 39.7568 59.5504 39.7568Z" fill="#AFA2BE"/>
<path d="M54.9415 33.1377H53.6133C52.6425 33.1377 51.8555 32.3509 51.8555 31.3799C51.8555 30.4089 52.6425 29.6221 53.6133 29.6221H54.9415C55.9123 29.6221 56.6993 30.4089 56.6993 31.3799C56.6993 32.3507 55.9125 33.1377 54.9415 33.1377Z" fill="#01A796"/>
<path d="M47.5972 54.9673H38.1826C37.2118 54.9673 36.4248 54.1805 36.4248 53.2095C36.4248 52.2385 37.2118 51.4517 38.1826 51.4517H47.5972C48.568 51.4517 49.355 52.2385 49.355 53.2095C49.355 54.1805 48.568 54.9673 47.5972 54.9673Z" fill="#665E93"/>
<path d="M59.5504 61.5864H38.1826C37.2118 61.5864 36.4248 60.7996 36.4248 59.8286C36.4248 58.8576 37.2118 58.0708 38.1826 58.0708H59.5504C60.5211 58.0708 61.3082 58.8576 61.3082 59.8286C61.3082 60.7994 60.5211 61.5864 59.5504 61.5864Z" fill="#AFA2BE"/>
<path d="M54.9415 54.9673H53.6133C52.6425 54.9673 51.8555 54.1805 51.8555 53.2095C51.8555 52.2385 52.6425 51.4517 53.6133 51.4517H54.9415C55.9123 51.4517 56.6993 52.2385 56.6993 53.2095C56.6993 54.1805 55.9125 54.9673 54.9415 54.9673Z" fill="#01A796"/>
<path d="M47.5972 76.7969H38.1826C37.2118 76.7969 36.4248 76.0098 36.4248 75.0391C36.4248 74.068 37.2118 73.2812 38.1826 73.2812H47.5972C48.568 73.2812 49.355 74.068 49.355 75.0391C49.355 76.0101 48.568 76.7969 47.5972 76.7969Z" fill="#665E93"/>
<path d="M59.5504 83.416H38.1826C37.2118 83.416 36.4248 82.6292 36.4248 81.6582C36.4248 80.6872 37.2118 79.9004 38.1826 79.9004H59.5504C60.5211 79.9004 61.3082 80.6872 61.3082 81.6582C61.3082 82.6292 60.5211 83.416 59.5504 83.416Z" fill="#AFA2BE"/>
<path d="M54.9415 76.7969H53.6133C52.6425 76.7969 51.8555 76.0098 51.8555 75.0391C51.8555 74.068 52.6425 73.2812 53.6133 73.2812H54.9415C55.9123 73.2812 56.6993 74.068 56.6993 75.0391C56.6993 76.0101 55.9125 76.7969 54.9415 76.7969Z" fill="#01A796"/>
<path d="M29.9225 52.9316C28.1105 54.887 25.0566 55.0035 23.1012 53.1916L15.016 45.7C13.0606 43.8883 12.9441 40.8341 14.756 38.8788C16.568 36.9234 19.6219 36.8069 21.5773 38.6188L29.6625 46.1104C31.6179 47.9224 31.7344 50.9763 29.9225 52.9316Z" fill="#FFCEB6"/>
<path d="M26.4275 49.7866L18.3422 42.295C16.9899 41.0421 16.5185 39.1952 16.9547 37.5283C16.1396 37.7636 15.3748 38.2115 14.756 38.8793C12.9441 40.8347 13.0606 43.8888 15.016 45.7005L23.1012 53.1921C25.0566 55.0038 28.1105 54.8875 29.9225 52.9321C30.4812 52.3291 30.8553 51.6211 31.0498 50.8776C29.4778 51.3311 27.7151 50.9798 26.4275 49.7866Z" fill="#FFBFA1"/>
<path d="M29.9225 79.2637C28.1105 81.2191 25.0566 81.3356 23.1012 79.5236L15.016 72.032C13.0606 70.2203 12.9441 67.1662 14.756 65.2108C16.568 63.2554 19.6219 63.1389 21.5773 64.9509L29.6625 72.4424C31.6179 74.2542 31.7344 77.3083 29.9225 79.2637Z" fill="#FFCEB6"/>
<path d="M26.4275 76.1181L18.3422 68.6266C16.9899 67.3736 16.5185 65.5267 16.9547 63.8599C16.1396 64.0952 15.3748 64.5431 14.756 65.2108C12.9441 67.1662 13.0606 70.2203 15.016 72.0321L23.1012 79.5236C25.0566 81.3353 28.1105 81.2191 29.9225 79.2637C30.4812 78.6606 30.8553 77.9526 31.0498 77.2092C29.4778 77.6629 27.7151 77.3113 26.4275 76.1181Z" fill="#FFBFA1"/>
<path d="M29.9225 66.0977C28.1105 68.0531 25.0566 68.1695 23.1012 66.3576L15.016 58.866C13.0606 57.0543 12.9441 54.0002 14.756 52.0448C16.568 50.0894 19.6219 49.9729 21.5773 51.7849L29.6625 59.2764C31.6179 61.0881 31.7344 64.142 29.9225 66.0977Z" fill="#FFCEB6"/>
<path d="M26.4275 62.9521L18.3422 55.4606C16.9899 54.2076 16.5185 52.3607 16.9547 50.6938C16.1396 50.9292 15.3746 51.377 14.756 52.0448C12.9441 54.0002 13.0606 57.0541 15.016 58.866L23.1012 66.3576C25.0566 68.1696 28.1105 68.0531 29.9225 66.0977C30.4812 65.4946 30.8553 64.7866 31.0498 64.0431C29.4778 64.4969 27.7151 64.1453 26.4275 62.9521Z" fill="#FFBFA1"/>
</svg>
