<svg width="12" height="12" viewBox="0 0 12 12" fill="none" xmlns="http://www.w3.org/2000/svg">
<path d="M5.99745 10.4208L0 6.63818V12H12V6.73461L5.99745 10.4208Z" fill="#01A796"/>
<path d="M1.52344 0V6.67711L6.00305 9.50227L10.4766 6.75492V0L1.52344 0ZM5.9932 4.28906C6.7882 4.28906 7.43461 4.87547 7.43461 5.59617C7.43461 6.20695 6.97031 6.72094 6.34477 6.86367V7.40625H5.64164V6.86367C5.01633 6.72094 4.5518 6.20695 4.5518 5.59617H5.25492C5.25492 5.92899 5.58633 6.19992 5.9932 6.19992C6.40031 6.19992 6.73148 5.92899 6.73148 5.59617C6.73148 5.26313 6.40031 4.99219 5.9932 4.99219C5.19844 4.99219 4.5518 4.40578 4.5518 3.68508C4.5518 3.0743 5.01633 2.56031 5.64164 2.41758V1.875H6.34477V2.41758C6.97031 2.56031 7.43461 3.0743 7.43461 3.68508H6.73148C6.73148 3.35227 6.40031 3.08133 5.9932 3.08133C5.58633 3.08133 5.25492 3.35227 5.25492 3.68508C5.25492 4.01813 5.58633 4.28906 5.9932 4.28906Z" fill="#01A796"/>
<path d="M0.820312 4.16461L0 4.79562V5.71613L0.820312 6.23351V4.16461Z" fill="#01A796"/>
<path d="M11.1797 4.16461V6.32314L12 5.81939V4.79562L11.1797 4.16461Z" fill="#01A796"/>
</svg>
