<svg width="36" height="36" viewBox="0 0 36 36" fill="none" xmlns="http://www.w3.org/2000/svg">
<path d="M16.0746 18.5164H12.5181L10.205 21.4078L7.89186 18.5164H4.33714C3.18686 18.5164 2.08369 18.0595 1.27032 17.2461C0.456947 16.4327 0 15.3296 0 14.1793V6.33714C0 5.18686 0.456947 4.08369 1.27032 3.27032C2.08369 2.45695 3.18686 2 4.33714 2H16.0746C16.6442 2 17.2081 2.11218 17.7344 2.33015C18.2606 2.54811 18.7387 2.86758 19.1414 3.27032C19.5442 3.67306 19.8636 4.15118 20.0816 4.67739C20.2996 5.2036 20.4117 5.76758 20.4117 6.33714V14.1793C20.4117 14.7488 20.2996 15.3128 20.0816 15.839C19.8636 16.3652 19.5442 16.8433 19.1414 17.2461C18.7387 17.6488 18.2606 17.9683 17.7344 18.1863C17.2081 18.4042 16.6442 18.5164 16.0746 18.5164Z" fill="#01A796"/>
<path d="M11.3627 12.7024H9.04951V8.84785H10.2061C10.454 8.84785 10.6964 8.77431 10.9026 8.63655C11.1088 8.49879 11.2695 8.30299 11.3644 8.0739C11.4593 7.84481 11.4841 7.59273 11.4357 7.34953C11.3873 7.10633 11.2679 6.88294 11.0926 6.70761C10.9173 6.53227 10.6939 6.41286 10.4507 6.36449C10.2075 6.31611 9.95539 6.34094 9.72631 6.43583C9.49722 6.53072 9.30141 6.69142 9.16365 6.89759C9.02589 7.10377 8.95236 7.34616 8.95236 7.59412H6.63922C6.63925 6.93875 6.81984 6.29606 7.16117 5.73659C7.50249 5.17712 7.99136 4.72251 8.57411 4.42265C9.15686 4.12279 9.81096 3.98929 10.4646 4.03679C11.1183 4.08429 11.7462 4.31096 12.2795 4.69191C12.8127 5.07287 13.2307 5.59339 13.4876 6.19633C13.7444 6.79926 13.8302 7.46132 13.7355 8.1098C13.6408 8.75829 13.3692 9.36815 12.9506 9.87243C12.532 10.3767 11.9826 10.7559 11.3627 10.9684V12.7024Z" fill="white"/>
<path d="M9.0498 14.5616H11.3629V16.7484H9.0498V14.5616Z" fill="white"/>
<path d="M31.6612 13.6941H20.4118V14.1793C20.4118 14.7488 20.2996 15.3128 20.0817 15.839C19.8637 16.3652 19.5442 16.8434 19.1415 17.2461C18.7388 17.6488 18.2606 17.9683 17.7344 18.1863C17.2082 18.4042 16.6442 18.5164 16.0747 18.5164H15.5866V25.8734C15.5866 27.0236 16.0436 28.1268 16.8569 28.9402C17.6703 29.7536 18.7735 30.2105 19.9237 30.2105H23.4802L25.7933 33.1019L28.1065 30.2105H31.6629C32.8132 30.2105 33.9164 29.7536 34.7298 28.9402C35.5431 28.1268 36.0001 27.0236 36.0001 25.8734V18.0312C36.0001 17.4615 35.8878 16.8974 35.6698 16.3711C35.4517 15.8448 35.1321 15.3666 34.7292 14.9638C34.3262 14.561 33.8479 14.2416 33.3215 14.0237C32.7951 13.8059 32.2309 13.6939 31.6612 13.6941Z" fill="#503895"/>
<path d="M24.6359 16.6032H26.949V18.79H24.6359V16.6032Z" fill="white"/>
<path d="M24.636 20.7778H26.9491V27.3017H24.636V20.7778Z" fill="white"/>
</svg>
