<svg width="250" height="56" viewBox="0 0 250 56" fill="none" xmlns="http://www.w3.org/2000/svg">
<g filter="url(#filter0_d_3738_6)">
<path d="M46.7065 15.0624C44.9821 12.3034 31.4266 12.6756 20.4173 12.6891C20.1397 12.6894 19.9484 12.4136 20.0433 12.1528L22.9122 4.26338C22.9697 4.10527 23.1199 4.00003 23.2882 4.00008C25.0595 4.00053 34.8814 4.0028 42.7567 4C49.0763 3.99776 54.7818 6.37294 55.3959 11.8995C56.658 23.2571 44.814 28.2341 42.3937 29.1284C42.293 29.1656 42.2187 29.0392 42.2951 28.9637C43.8427 27.4356 50.1898 20.6358 46.7065 15.0624Z" fill="#01A796"/>
<path d="M38.8081 29.2819C42.6962 27.6156 44.5117 24.8598 45.2424 20.0956C45.2569 20.0012 45.1393 19.9449 45.07 20.0107C36.2464 28.3774 24.5185 21.408 15.8995 24.5422C11.8323 26.0212 10.8854 29.1238 8.48295 32.5639C8.41531 32.6607 8.55857 32.799 8.65457 32.7302C17.498 26.3891 33.4143 31.5935 38.8081 29.2819Z" fill="#503895"/>
<path d="M27.8348 37.6898L34.6961 15.5812C34.776 15.3238 34.5836 15.0626 34.3141 15.0626H25.6723C25.4971 15.0626 25.3422 15.1767 25.2903 15.3441L18.429 37.4526C18.3491 37.7101 18.5415 37.9712 18.811 37.9712H27.4528C27.628 37.9712 27.7829 37.8571 27.8348 37.6898Z" fill="#503895"/>
<path d="M62.2666 37.5572C60.7342 37.5572 59.3992 37.2321 58.2615 36.582C57.1471 35.9087 56.3577 34.9219 55.8933 33.6218C55.429 32.3216 55.3825 30.7079 55.754 28.7808L57.8436 18.3677H64.4607L62.5104 28.154C62.255 29.3613 62.3246 30.29 62.7193 30.9401C63.1373 31.5902 63.8686 31.9152 64.9134 31.9152C66.0279 31.9152 66.9566 31.5786 67.6995 30.9053C68.4657 30.2087 68.9881 29.1407 69.2667 27.7012L71.1474 18.3677H77.7645L74.0032 37.2437H67.7344L68.814 31.9152L69.6498 33.4476C68.7443 34.8639 67.6299 35.9087 66.3065 36.582C65.0063 37.2321 63.6597 37.5572 62.2666 37.5572Z" fill="#503895"/>
<path d="M78.9619 37.2437L82.7232 18.3677H88.992L87.9123 23.731L87.2855 22.1986C88.1213 20.6895 89.2241 19.6214 90.594 18.9946C91.9638 18.3677 93.5659 18.0542 95.4001 18.0542L94.2508 24.0096C93.9722 23.9632 93.7168 23.9399 93.4846 23.9399C93.2524 23.9167 93.0086 23.9051 92.7532 23.9051C91.3137 23.9051 90.1296 24.2534 89.2009 24.9499C88.2954 25.6232 87.6918 26.7493 87.3899 28.3281L85.579 37.2437H78.9619Z" fill="#503895"/>
<path d="M107.882 37.5572C106.373 37.5572 105.061 37.2669 103.947 36.6865C102.832 36.0828 102.02 35.1193 101.509 33.7959C100.998 32.4725 100.882 30.7079 101.161 28.5022C101.393 26.343 101.892 24.4856 102.658 22.93C103.448 21.3744 104.469 20.1787 105.723 19.3428C107 18.4838 108.474 18.0542 110.146 18.0542C111.516 18.0542 112.804 18.3909 114.012 19.0642C115.242 19.7375 116.229 20.7127 116.972 21.9896C117.738 23.2434 118.121 24.7874 118.121 26.6216C118.121 28.2004 117.854 29.6515 117.32 30.9749C116.786 32.2983 116.043 33.4592 115.091 34.4576C114.163 35.4327 113.083 36.1989 111.852 36.7562C110.622 37.2902 109.298 37.5572 107.882 37.5572ZM93.6729 44.0001L98.7924 18.3677H105.061L104.4 21.5369L103.181 27.7709L102.31 33.97L100.29 44.0001H93.6729ZM106.942 32.2287C107.824 32.2287 108.602 32.0081 109.275 31.567C109.949 31.1258 110.471 30.5106 110.842 29.7212C111.237 28.9318 111.434 28.0147 111.434 26.9699C111.434 25.8786 111.121 25.008 110.494 24.3579C109.867 23.6845 108.985 23.3479 107.847 23.3479C106.988 23.3479 106.21 23.5801 105.514 24.0444C104.841 24.4856 104.307 25.1008 103.912 25.8902C103.54 26.6796 103.355 27.5967 103.355 28.6415C103.355 29.7328 103.668 30.6034 104.295 31.2535C104.922 31.9036 105.804 32.2287 106.942 32.2287Z" fill="#503895"/>
<path d="M119.943 37.2437L125.097 11.4023H131.714L126.56 37.2437H119.943Z" fill="#503895"/>
<path d="M142.214 37.5572C140.194 37.5572 138.429 37.2089 136.92 36.5124C135.434 35.7926 134.273 34.7943 133.438 33.5173C132.602 32.2171 132.184 30.6963 132.184 28.955C132.184 26.8654 132.66 25.008 133.612 23.3827C134.564 21.7343 135.899 20.4341 137.617 19.4821C139.335 18.5302 141.332 18.0542 143.607 18.0542C145.534 18.0542 147.183 18.4025 148.552 19.099C149.945 19.7956 151.013 20.7707 151.756 22.0245C152.523 23.255 152.906 24.6945 152.906 26.343C152.906 26.9002 152.871 27.4342 152.801 27.945C152.732 28.4558 152.639 28.955 152.523 29.4426H137.373L138 25.9599H149.458L146.707 26.9699C146.892 26.0644 146.857 25.3098 146.602 24.7061C146.37 24.0792 145.964 23.6033 145.383 23.2782C144.826 22.93 144.129 22.7558 143.294 22.7558C142.226 22.7558 141.343 23.0228 140.647 23.5568C139.973 24.0909 139.463 24.8222 139.114 25.7509C138.789 26.6564 138.627 27.6432 138.627 28.7112C138.627 30.0114 138.987 30.9749 139.706 31.6018C140.426 32.2055 141.506 32.5073 142.945 32.5073C143.781 32.5073 144.594 32.3796 145.383 32.1242C146.196 31.8456 146.904 31.4625 147.508 30.9749L150.259 35.1193C149.075 36.0016 147.786 36.6285 146.393 36.9999C145.023 37.3714 143.63 37.5572 142.214 37.5572Z" fill="#503895"/>
<path d="M164.544 38L169.304 14.2H179.368C182.451 14.2 184.831 14.8686 186.508 16.206C188.185 17.5433 189.024 19.4246 189.024 21.85C189.024 23.8446 188.548 25.59 187.596 27.086C186.644 28.582 185.284 29.738 183.516 30.554C181.748 31.37 179.663 31.778 177.26 31.778H169.542L173.112 28.786L171.276 38H164.544ZM172.942 29.568L170.596 26.474H177.566C179.039 26.474 180.184 26.1226 181 25.42C181.816 24.7173 182.224 23.72 182.224 22.428C182.224 21.4306 181.895 20.694 181.238 20.218C180.581 19.742 179.663 19.504 178.484 19.504H172.024L175.594 16.308L172.942 29.568Z" fill="#01A796"/>
<path d="M189.28 38L194.04 14.2H204.206C207.266 14.2 209.624 14.8686 211.278 16.206C212.956 17.5433 213.794 19.402 213.794 21.782C213.794 23.7766 213.307 25.522 212.332 27.018C211.38 28.4913 210.02 29.636 208.252 30.452C206.484 31.268 204.399 31.676 201.996 31.676H194.278L197.848 28.786L196.012 38H189.28ZM204.206 38L199.344 29.33H206.314L211.244 38H204.206ZM197.678 29.568L195.332 26.474H202.302C203.798 26.474 204.954 26.1226 205.77 25.42C206.586 24.7173 206.994 23.72 206.994 22.428C206.994 21.4306 206.666 20.694 206.008 20.218C205.351 19.742 204.433 19.504 203.254 19.504H196.76L200.364 16.308L197.678 29.568Z" fill="#01A796"/>
<path d="M214.448 38L219.208 14.2H224.75L234.372 30.112L232.06 30.044L235.222 14.2H241.818L237.058 38H231.516L221.928 22.088L224.206 22.156L221.044 38H214.448Z" fill="#01A796"/>
</g>
<defs>
<filter id="filter0_d_3738_6" x="0.465332" y="0" width="249.353" height="56.0001" filterUnits="userSpaceOnUse" color-interpolation-filters="sRGB">
<feFlood flood-opacity="0" result="BackgroundImageFix"/>
<feColorMatrix in="SourceAlpha" type="matrix" values="0 0 0 0 0 0 0 0 0 0 0 0 0 0 0 0 0 0 127 0" result="hardAlpha"/>
<feOffset dy="4"/>
<feGaussianBlur stdDeviation="4"/>
<feComposite in2="hardAlpha" operator="out"/>
<feColorMatrix type="matrix" values="0 0 0 0 0 0 0 0 0 0 0 0 0 0 0 0 0 0 0.24 0"/>
<feBlend mode="normal" in2="BackgroundImageFix" result="effect1_dropShadow_3738_6"/>
<feBlend mode="normal" in="SourceGraphic" in2="effect1_dropShadow_3738_6" result="shape"/>
</filter>
</defs>
</svg>
