<svg width="22" height="24" viewBox="0 0 22 24" fill="none" xmlns="http://www.w3.org/2000/svg">
<path d="M11.0007 0C8.83076 0 6.74968 0.86201 5.21529 2.3964C3.6809 3.93079 2.81889 6.01186 2.81889 8.18182V14.5636L1.00798 17.2909C0.790927 17.6256 0.66781 18.0124 0.651516 18.411C0.635222 18.8095 0.72635 19.2052 0.915365 19.5564C1.10438 19.9077 1.38433 20.2017 1.72593 20.4077C2.06752 20.6137 2.4582 20.724 2.85707 20.7273H19.1444C19.5458 20.7259 19.9394 20.616 20.2835 20.4092C20.6276 20.2024 20.9093 19.9064 21.0988 19.5525C21.2883 19.1986 21.3786 18.8 21.3601 18.399C21.3415 17.998 21.2148 17.6094 20.9934 17.2745L19.1825 14.5636V8.18182C19.1825 6.01186 18.3205 3.93079 16.7861 2.3964C15.2517 0.86201 13.1707 0 11.0007 0Z" fill="#503895"/>
<path d="M11.001 24.0002C11.6772 23.9994 12.3365 23.7892 12.8883 23.3985C13.4402 23.0079 13.8574 22.4558 14.0828 21.8184H7.91919C8.14457 22.4558 8.56186 23.0079 9.11371 23.3985C9.66556 23.7892 10.3249 23.9994 11.001 24.0002Z" fill="#503895"/>
</svg>
