<svg width="40" height="40" viewBox="0 0 40 40" fill="none" xmlns="http://www.w3.org/2000/svg">
<path d="M19.8907 19.1718C19.8634 19.1211 19.8361 19.0976 19.8047 19.0938C19.6914 19.2226 19.7189 20.3241 19.9102 21.1014C20.0664 20.5703 20.0939 19.5194 19.8907 19.1718ZM19.8282 23.8788C19.5274 24.6601 19.0939 25.7264 18.5742 26.6679C18.7306 26.6054 18.8907 26.5389 19.0547 26.4726C19.7422 26.1913 20.5117 25.8749 21.3556 25.6836C20.7736 25.2226 20.2462 24.6014 19.8282 23.8788Z" fill="black" fill-opacity="0.15"/>
<path d="M20.8593 13.75V5.3125H9.0625V34.6875H30.9375V15.3906H22.5C22.0648 15.3906 21.6475 15.2178 21.3398 14.9101C21.0322 14.6024 20.8593 14.1851 20.8593 13.75ZM23.0078 24.9843C23.6367 24.9102 24.2032 24.875 24.7383 24.8945C25.2383 24.9102 25.6602 24.9727 25.9883 25.0938C25.9962 25.0977 26 25.0977 26.0078 25.1015C26.0235 25.1093 26.039 25.1133 26.0547 25.1212C26.0742 25.1288 26.0977 25.1367 26.1172 25.1485C26.1212 25.1523 26.1288 25.1523 26.1328 25.1563C26.293 25.2265 26.4258 25.3125 26.5273 25.414C26.8828 25.7695 26.9883 26.4337 26.7695 26.961C26.6445 27.2617 26.3125 27.7617 25.4687 27.7617C24.6172 27.7617 23.3633 27.3828 22.2617 26.793C21.2657 26.961 20.164 27.336 19.1015 27.6953C18.875 27.7735 18.6407 27.8515 18.414 27.9258C16.9297 30.4727 15.8164 31.0273 15.1289 31.0273C14.9649 31.0273 14.8242 30.9922 14.707 30.9492C14.4375 30.8477 14.207 30.6367 14.0625 30.3633C14.0273 30.2968 14 30.2305 13.9766 30.1602C13.9141 29.9727 13.8945 29.7852 13.9258 29.6288L13.9492 29.5235C13.9531 29.5157 13.9531 29.5078 13.957 29.5C13.9648 29.4727 13.9727 29.4453 13.9844 29.418C13.9844 29.414 13.9883 29.4102 13.9883 29.4062C14.1484 28.9413 14.5195 28.4922 15.0703 28.0547C15.5508 27.6718 16.1289 27.3242 16.8633 26.9453C17.4843 25.8515 18.332 24.0117 18.8633 22.75C18.4413 21.1172 18.211 19.836 18.4687 18.8985C18.5038 18.7695 18.5663 18.6485 18.6485 18.543C18.6562 18.5352 18.6602 18.5273 18.668 18.5195C18.6718 18.5157 18.6718 18.5117 18.6758 18.5117C18.9218 18.2187 19.336 18.0468 19.7735 18.0625C20.4218 18.0898 20.9337 18.5117 21.0625 19.2383C21.1288 19.5508 21.1485 19.8828 21.1367 20.2422V20.2695C21.1367 20.289 21.1367 20.3087 21.1328 20.3282C21.1055 20.8477 21.0157 21.3672 20.8477 22.0742C20.832 22.1367 20.8163 22.1992 20.8008 22.2773L20.7617 22.4375L20.7578 22.4492C20.7617 22.457 20.7617 22.461 20.7657 22.4688L20.836 22.6445C20.8398 22.6563 20.8477 22.6718 20.8515 22.6837C20.8788 22.7462 20.9063 22.8125 20.9337 22.8712V22.875C21.2735 23.6093 21.7032 24.1797 22.2578 24.6367C22.4258 24.7735 22.6055 24.8985 22.8008 25.0195C22.8712 25 22.9375 24.9922 23.0078 24.9843Z" fill="#01A796" fill-opacity="0.15"/>
<path d="M15.293 29.7248C15.5156 29.553 15.9258 29.1585 16.4688 28.3695C16.0664 28.7367 15.5547 29.2445 15.293 29.7248ZM25.875 26.4827L25.8828 26.471H25.8907C25.914 26.4553 25.9102 26.4437 25.9063 26.4358C25.9023 26.432 25.7305 26.0725 24.1445 26.1468C25.5235 26.6897 25.8438 26.5022 25.875 26.4827Z" fill="black" fill-opacity="0.15"/>
<path d="M33.3828 11.2734L24.9765 2.86718C24.7422 2.63282 24.4258 2.5 24.0937 2.5H7.5C6.8086 2.5 6.25 3.0586 6.25 3.75V36.25C6.25 36.9413 6.8086 37.5 7.5 37.5H32.5C33.1913 37.5 33.75 36.9413 33.75 36.25V12.1601C33.75 11.8281 33.6172 11.5078 33.3828 11.2734ZM23.5157 5.38282L30.8672 12.7344H23.5157V5.38282ZM30.9375 34.6875H9.0625V5.3125H20.8593V13.75C20.8593 14.1851 21.0322 14.6024 21.3398 14.9101C21.6475 15.2178 22.0648 15.3906 22.5 15.3906H30.9375V34.6875Z" fill="#01A796"/>
<path d="M20.9335 22.8648C20.9024 22.7983 20.875 22.7358 20.8477 22.6733C20.8437 22.6616 20.8359 22.6459 20.832 22.6343L20.7617 22.4584C20.7579 22.4506 20.7579 22.4468 20.7539 22.4389L20.7579 22.4273L20.7657 22.3843C20.9219 21.7476 21.1015 21.0053 21.1329 20.2593V20.2319C21.1445 19.8959 21.125 19.5601 21.0547 19.2319C20.9062 18.3999 20.293 18.0756 19.7695 18.0523C19.3282 18.0326 18.918 18.2084 18.6719 18.4976C18.668 18.5014 18.668 18.5053 18.664 18.5053C18.6562 18.5131 18.6484 18.5209 18.6445 18.5288C18.5625 18.6343 18.5 18.7553 18.4649 18.8843C18.207 19.8218 18.4375 21.1029 18.8594 22.7358C18.3282 24.0014 17.4805 25.8374 16.8594 26.9311V26.9351C15.7774 27.4936 14.3555 28.3334 13.9844 29.3921C13.9844 29.3959 13.9805 29.3999 13.9805 29.4038C13.9727 29.4311 13.9609 29.4584 13.9531 29.4858C13.9492 29.4936 13.9492 29.5014 13.9453 29.5093C13.9375 29.5444 13.9258 29.5796 13.9219 29.6148C13.8867 29.7709 13.9063 29.9584 13.9727 30.1459C13.9961 30.2163 14.0234 30.2826 14.0586 30.3491C14.2031 30.6226 14.4336 30.8334 14.7031 30.9351C14.8203 30.9779 14.9609 31.0131 15.125 31.0131C15.8125 31.0131 16.9257 30.4584 18.4102 27.9116C18.6367 27.8374 18.871 27.7593 19.0977 27.6811C20.1602 27.3218 21.2617 26.9468 22.2579 26.7788C23.3594 27.3686 24.6132 27.7476 25.4649 27.7476C26.3085 27.7476 26.6407 27.2476 26.7657 26.9468C26.9844 26.4194 26.8789 25.7553 26.5234 25.3999C26.4219 25.2983 26.289 25.2124 26.1289 25.1421C26.125 25.1381 26.1172 25.1381 26.1132 25.1343C26.0937 25.1264 26.0704 25.1186 26.0507 25.1069C26.0352 25.0991 26.0195 25.0951 26.0039 25.0874C25.996 25.0834 25.9922 25.0834 25.9844 25.0796C25.3515 24.8529 24.3555 24.8178 23.0039 24.9701L22.7969 24.9936C22.6015 24.8764 22.4219 24.7476 22.2539 24.6108C21.6992 24.1694 21.2734 23.6029 20.9335 22.8648ZM15.293 29.7279C15.5547 29.2476 16.0664 28.7398 16.4688 28.3726C15.9258 29.1616 15.5156 29.5561 15.293 29.7279ZM19.8047 19.0951C19.8359 19.0991 19.8632 19.1226 19.8907 19.1733C20.0937 19.5209 20.0664 20.5718 19.9102 21.1029C19.7187 20.3256 19.6914 19.2241 19.8047 19.0951ZM19.0547 26.4741C18.8907 26.5404 18.7305 26.6069 18.5742 26.6694C19.0937 25.7279 19.5274 24.6616 19.8282 23.8803C20.246 24.6029 20.7734 25.2241 21.3555 25.6851C20.5117 25.8764 19.7422 26.1928 19.0547 26.4741ZM25.9062 26.4389C25.9102 26.4468 25.914 26.4584 25.8907 26.4741H25.8829L25.875 26.4858C25.8437 26.5053 25.5234 26.6928 24.1445 26.1499C25.7305 26.0756 25.9024 26.4351 25.9062 26.4389Z" fill="#01A796"/>
</svg>
