<svg width="120" height="120" viewBox="0 0 120 120" fill="none" xmlns="http://www.w3.org/2000/svg">
<g clipPath="url(#clip0_1_9135)">
<path d="M91.915 84.9998H4.07997C1.82672 84.9998 0 83.1733 0 80.9198V4.07997C0 1.82672 1.82672 0 4.07997 0H91.9152C94.1685 0 95.9952 1.82672 95.9952 4.07997V80.92C95.995 83.1733 94.1683 84.9998 91.915 84.9998Z" fill="white"/>
<path d="M91.9167 0H84.4805C86.7337 0 88.5604 1.82672 88.5604 4.07997V80.92C88.5604 83.1733 86.7337 85 84.4805 85H91.9167C94.17 85 95.9967 83.1733 95.9967 80.92V4.07979C95.9967 1.82672 94.17 0 91.9167 0Z" fill="#E0E0E0"/>
<path d="M91.915 0H4.07997C1.82672 0 0 1.82653 0 4.07997V17.3263H95.995V4.07997C95.995 1.82653 94.1683 0 91.915 0Z" fill="#AFA2BE"/>
<path d="M88.5604 4.07997V17.3263H95.9967V4.07997C95.9967 1.82672 94.17 0 91.9167 0H84.4805C86.7339 0.00018749 88.5604 1.8269 88.5604 4.07997Z" fill="#665E93"/>
<path d="M83.1329 12.1866C85.0756 12.1866 86.6505 10.6117 86.6505 8.66901C86.6505 6.72627 85.0756 5.15137 83.1329 5.15137C81.1901 5.15137 79.6152 6.72627 79.6152 8.66901C79.6152 10.6117 81.1901 12.1866 83.1329 12.1866Z" fill="#665E93"/>
<path d="M69.0255 12.1866C70.9682 12.1866 72.5431 10.6117 72.5431 8.66901C72.5431 6.72627 70.9682 5.15137 69.0255 5.15137C67.0827 5.15137 65.5078 6.72627 65.5078 8.66901C65.5078 10.6117 67.0827 12.1866 69.0255 12.1866Z" fill="#01A796"/>
<path d="M54.7149 11.9371C56.6576 11.9371 58.2325 10.3622 58.2325 8.4195C58.2325 6.47676 56.6576 4.90186 54.7149 4.90186C52.7722 4.90186 51.1973 6.47676 51.1973 8.4195C51.1973 10.3622 52.7722 11.9371 54.7149 11.9371Z" fill="#FFC638"/>
<path d="M54.7208 41.8351H11.2117C10.0166 41.8351 9.04785 40.8664 9.04785 39.6713V30.7644C9.04785 29.5693 10.0166 28.6006 11.2117 28.6006H54.7206C55.9157 28.6006 56.8845 29.5693 56.8845 30.7644V39.6713C56.8845 40.8666 55.9157 41.8351 54.7208 41.8351Z" fill="#FFC638"/>
<path d="M54.7194 28.6006H45.749C46.944 28.6006 47.9125 29.5693 47.9125 30.7641V39.6704C47.9125 40.8654 46.9438 41.8339 45.749 41.8339H54.7194C55.9142 41.8339 56.8829 40.8652 56.8829 39.6704V30.7641C56.8829 29.5693 55.9142 28.6006 54.7194 28.6006Z" fill="#EAB329"/>
<path d="M55.0538 50.4054H10.7864C9.98623 50.4054 9.33789 49.7569 9.33789 48.9569C9.33789 48.1568 9.98642 47.5083 10.7864 47.5083H55.0538C55.854 47.5083 56.5024 48.1568 56.5024 48.9569C56.5024 49.7569 55.8538 50.4054 55.0538 50.4054Z" fill="#665E93"/>
<path d="M55.0538 57.5924H10.7864C9.98623 57.5924 9.33789 56.9439 9.33789 56.1439C9.33789 55.3438 9.98642 54.6953 10.7864 54.6953H55.0538C55.854 54.6953 56.5024 55.3438 56.5024 56.1439C56.5024 56.9439 55.8538 57.5924 55.0538 57.5924Z" fill="#665E93"/>
<path d="M32.9665 64.7819H10.7864C9.98623 64.7819 9.33789 64.1333 9.33789 63.3333C9.33789 62.5333 9.98642 61.8848 10.7864 61.8848H32.9665C33.7667 61.8848 34.4151 62.5333 34.4151 63.3333C34.4151 64.1333 33.7667 64.7819 32.9665 64.7819Z" fill="#01A796"/>
<path d="M120 80C120 102.092 102.092 120 80 120C57.9083 120 40 102.092 40 80C40 57.9083 57.9083 40 80 40C102.092 40 120 57.9083 120 80Z" fill="white"/>
<path d="M96.792 68.0794L91.9194 63.2068L90.2771 62.9546L61.1891 92.0428C60.6782 92.5537 60.2509 93.142 59.923 93.7859L55.2081 103.045C54.4789 104.187 55.8123 105.52 56.9534 104.791L66.2129 100.076C66.8568 99.7479 67.4451 99.3207 67.956 98.8097L97.044 69.7216L96.792 68.0794Z" fill="#665E93"/>
<path d="M59.923 93.7866L55.2081 103.046C54.4789 104.187 55.8123 105.521 56.9534 104.791L66.2129 100.077L59.923 93.7866Z" fill="#AFA2BE"/>
<path d="M104.05 62.715C105.314 61.4508 105.314 59.4013 104.05 58.1373L101.861 55.9482C100.597 54.6839 98.547 54.6839 97.283 55.9482L94.9648 58.2663L95.2476 59.7098L100.288 64.7506L101.732 65.0332L104.05 62.715Z" fill="#FFC638"/>
<path d="M90.2637 62.959L94.9521 58.2706L101.718 65.0365L97.0296 69.7249L90.2637 62.959Z" fill="#AFA2BE"/>
</g>
<defs>
<clipPath id="clip0_1_9135">
<rect width="120" height="120" fill="white"/>
</clipPath>
</defs>
</svg>
