<svg width="24" height="24" viewBox="0 0 24 24" fill="none" xmlns="http://www.w3.org/2000/svg">
<g clipPath="url(#clip0_2_22355)">
<path d="M24 12C24 18.6276 18.6276 24 12 24C5.3724 24 0 18.6276 0 12C0 5.3724 5.3724 0 12 0C18.6276 0 24 5.3724 24 12Z" fill="#EFC900"/>
<path d="M17.4156 15.3L17.1738 16.7397C17.149 16.8428 17.0902 16.9345 17.0067 16.9999C16.9233 17.0653 16.8202 17.1006 16.7142 17.1H7.2858C7.17979 17.1006 7.0767 17.0653 6.99327 16.9999C6.90984 16.9345 6.85096 16.8428 6.8262 16.7397L6.5844 15.3H17.4156ZM11.9826 6.90031C12.1356 6.89401 12.2793 6.96181 12.372 7.08001L15.4029 10.923L17.8668 9.30301C17.9456 9.25144 18.038 9.22432 18.1322 9.22507C18.2264 9.22581 18.3183 9.25439 18.3963 9.30721C18.5556 9.41581 18.6309 9.60901 18.5883 9.79471L17.6331 14.1H6.3666L5.412 9.79501C5.37 9.61501 5.4399 9.42721 5.5902 9.31681C5.66418 9.26288 5.7521 9.23137 5.84349 9.22605C5.93488 9.22073 6.02587 9.24182 6.1056 9.28681L9.0231 10.9314L11.6073 7.10791C11.6491 7.04618 11.7049 6.99519 11.7701 6.95906C11.8353 6.92294 11.9081 6.90271 11.9826 6.90001V6.90031Z" fill="white"/>
</g>
<defs>
<clipPath id="clip0_2_22355">
<rect width="24" height="24" fill="white"/>
</clipPath>
</defs>
</svg>
