<svg width="36" height="36" viewBox="0 0 36 36" fill="none" xmlns="http://www.w3.org/2000/svg">
<path d="M18.2172 7.13762C16.995 4.54442 12.8172 4.85282 12.8172 8.06942C12.8172 11.1492 17.0688 14.229 18.2172 15C19.3656 14.2284 23.6172 11.1486 23.6172 8.06942C23.6172 4.85282 19.4394 4.54442 18.2172 7.13762Z" fill="#01A796"/>
<path d="M18.2 26.4C19.8569 26.4 21.2 25.0569 21.2 23.4C21.2 21.7432 19.8569 20.4 18.2 20.4C16.5432 20.4 15.2 21.7432 15.2 23.4C15.2 25.0569 16.5432 26.4 18.2 26.4Z" fill="#503895"/>
<path d="M26.0174 18.6L25.808 19.2C25.1534 21.8178 24.0122 23.3274 22.4438 25.5228L22.3556 25.6458C22.0178 26.1192 21.4724 26.4 20.891 26.4H18.2H15.5264C14.945 26.4 14.3996 26.1192 14.0618 25.6464L13.9736 25.5234C12.4052 23.3274 11.264 21.8178 10.6094 19.2L10.4 18.6C10 17 8 17.5 8 18.6C8.2898 21.2064 9.2228 23.6994 10.715 25.8552L14 30.6V36H22.4174V30.6L25.7024 25.8552C27.1946 23.6994 28.1276 21.2064 28.4174 18.6C28.4174 17.5 26.5 17 26.0174 18.6Z" fill="#503895"/>
<path d="M26.0172 8.40002H28.4172V9.60002H26.0172V8.40002Z" fill="#503895"/>
<path d="M8.01721 8.40002H10.4172V9.60002H8.01721V8.40002Z" fill="#503895"/>
<path d="M17.6172 0H18.8172V2.4H17.6172V0Z" fill="#503895"/>
<path d="M10.5792 2.82648L11.4278 1.97795L13.1248 3.67501L12.2763 4.52353L10.5792 2.82648Z" fill="#503895"/>
<path d="M23.3058 3.67474L25.0028 1.97769L25.8514 2.82622L24.1543 4.52327L23.3058 3.67474Z" fill="#503895"/>
</svg>
