<svg width="16" height="16" viewBox="0 0 16 16" fill="none" xmlns="http://www.w3.org/2000/svg">
<path d="M7.99996 0.666688C9.29397 0.666108 10.5651 1.00809 11.6841 1.65789C12.8031 2.30768 13.7302 3.24213 14.3711 4.36627C15.012 5.49041 15.3438 6.76418 15.333 8.05814C15.3221 9.35209 14.969 10.6201 14.3093 11.7334L15.2926 14.4387C15.3293 14.5394 15.3411 14.6474 15.3271 14.7536C15.3132 14.8598 15.2738 14.9611 15.2124 15.0489C15.151 15.1367 15.0693 15.2084 14.9743 15.2579C14.8793 15.3074 14.7738 15.3333 14.6666 15.3334C14.5889 15.3332 14.5118 15.3196 14.4386 15.2934L11.7333 14.3094C10.7624 14.8845 9.67182 15.2279 8.54651 15.3126C7.4212 15.3974 6.29151 15.2213 5.24538 14.7981C4.19925 14.3749 3.26491 13.7159 2.5151 12.8725C1.76528 12.0292 1.22023 11.0241 0.922368 9.93563C0.624505 8.84715 0.581868 7.70462 0.797779 6.59697C1.01369 5.48932 1.48232 4.44644 2.16719 3.54952C2.85206 2.6526 3.73469 1.92585 4.74636 1.42583C5.75804 0.925812 6.87147 0.666023 7.99996 0.666688Z" fill="white"/>
</svg>
