<svg width="20" height="20" viewBox="0 0 20 20" fill="none" xmlns="http://www.w3.org/2000/svg">
<path d="M0.473637 16.9713L5.07177 12.3728C4.29051 11.129 3.83708 9.65896 3.83708 8.08129C3.83708 3.61786 7.45544 0 11.9187 0C16.382 0 20 3.61786 20 8.08129C20 12.5449 16.3821 16.1624 11.9187 16.1624C10.2018 16.1624 8.6115 15.6256 7.3029 14.7136L2.75949 19.2573C2.44378 19.5727 2.02992 19.7298 1.61656 19.7298C1.2027 19.7298 0.789337 19.5727 0.473131 19.2573C-0.157768 18.6257 -0.157768 17.6027 0.473637 16.9713ZM11.9187 13.5442C14.9355 13.5442 17.3813 11.0986 17.3813 8.08163C17.3813 5.0647 14.9355 2.61889 11.9187 2.61889C8.90178 2.61889 6.45614 5.0647 6.45614 8.08163C6.45614 11.0986 8.90178 13.5442 11.9187 13.5442Z" fill="white"/>
</svg>
