<svg width="365" height="425" viewBox="0 0 365 425" fill="none" xmlns="http://www.w3.org/2000/svg">
<path d="M358.684 212.972H8.39828C1.23688 212.972 1.23197 225.073 8.39828 225.073H358.684C364.668 225.073 365.864 212.972 358.684 212.972Z" fill="#C4E5E2"/>
<path d="M208.737 129.592C205.292 130.74 196.636 133.222 195.426 134.432L211.157 145.579L266.821 159.845L263.219 145.579C263.219 145.579 250.668 147.859 242.647 146.803C233.419 145.588 224.496 141.963 220.866 138.337C218.319 135.794 219.808 134.799 217.236 132.282C213.459 128.587 212.367 128.381 208.737 129.592Z" fill="#F3C89C"/>
<path d="M253.52 145.327C259.57 141.697 260.157 139.9 264.41 135.646L272.881 144.117L260.78 156.218C259.57 152.588 255.94 147.747 253.52 145.327Z" fill="#409090"/>
<path d="M306.763 101.74C306.763 95.6923 303.521 88.8152 300.712 86.0093C298.292 83.5917 294.662 83.5961 292.242 86.013C292.242 86.013 264.41 109.607 260.78 133.2C259.845 139.272 264.41 150.144 264.41 150.144C264.41 150.144 270.376 162.994 269.25 173.133C268.04 184.03 259.569 204.602 258.359 220.326H314.023C314.023 220.326 311.015 202.046 306.763 190.081C303.506 180.917 298.848 172.912 298.292 164.669C297.456 152.266 303.132 133.2 303.132 133.2C305.495 119.495 306.763 116.264 306.763 101.74Z" fill="#01A796"/>
<path d="M303.133 133.205C305.496 119.5 306.763 116.269 306.763 101.745C306.763 101.745 305.181 107.819 303.133 113.87C294.583 139.122 269.25 173.137 269.25 173.137C268.949 175.849 268.199 179.159 267.223 182.844C267.223 182.844 274.091 186.475 280.141 182.844C286.192 178.004 289.822 168.323 293.452 165.903C296.481 163.884 298.292 164.674 298.292 164.674C297.457 152.271 303.133 133.205 303.133 133.205Z" fill="#409090"/>
<path d="M282.56 168.299C293.45 147.728 298.291 134.417 303.131 113.846L286.19 105.375C281.35 121.106 275.299 131.997 261.988 151.358C271.669 154.988 277.719 162.249 282.56 168.299Z" fill="#01A796"/>
<path d="M261.988 151.353C271.668 154.983 277.719 162.244 282.559 168.294C282.559 168.294 280.735 174.062 277.719 174.363C265.618 175.572 232.946 159.837 216.004 156.208C209.519 154.819 211.738 156.208 205.105 156.208C200.265 156.208 198.121 155.277 196.635 154.998C195.148 154.719 193.583 155.895 191.794 154.998C189.37 153.782 200.422 146.377 203.901 142.897C204.447 142.351 203.901 139.875 202.693 139.271C197.853 136.849 190.046 136.74 190.593 135.641C191.798 133.216 197.875 134.514 202.693 134.429C207.976 134.337 212.228 134.361 216.004 138.056C218.577 140.573 217.088 141.568 219.635 144.111C223.265 147.737 232.187 151.362 241.416 152.577C249.437 153.633 261.988 151.353 261.988 151.353Z" fill="#FBDAAF"/>
<path d="M205.105 156.213C200.265 156.213 198.121 155.282 196.635 155.003C196.635 155.003 203.895 150.162 206.315 146.532C205.105 148.952 200.87 152.583 199.055 153.793C197.631 154.742 200.434 155.697 201.475 155.003C204.225 153.17 205.586 152.725 207.136 151.04C207.66 150.446 208.198 149.759 208.736 148.952C208.148 149.833 207.633 150.5 207.136 151.04C205.3 153.12 203.626 154.062 202.685 155.003C202.685 156.213 203.93 155.756 205.105 155.003C207.667 153.362 208.026 152.786 209.946 150.162C207.526 153.793 207.468 153.377 205.105 156.213Z" fill="#F3C89C"/>
<path d="M261.988 151.355C275.299 131.994 281.35 121.103 286.19 105.372C286.19 105.372 287.4 101.762 292.24 101.762C293.45 101.762 293.504 102.285 293.45 104.175C293.316 108.922 297.17 109.679 293.45 112.632C290.833 114.71 287.431 111.95 286.19 115.052C283.77 121.103 264.408 148.934 264.408 150.145C264.408 151.517 265.991 152.942 267.346 153.91C267.999 154.293 268.633 154.691 269.249 155.104C269.249 155.104 268.361 154.635 267.346 153.91C265.691 152.94 263.911 152.076 261.988 151.355Z" fill="#6DCBC1"/>
<path d="M281.338 418.166C281.338 411.647 281.338 407.3 279.165 401.867H255.26C255.26 401.867 253.812 405.972 249.827 407.3C245.842 408.629 237.874 407.3 231.355 409.473C228.095 410.56 228.095 417.08 228.095 417.08C245.48 420.339 262.866 419.253 281.338 418.166Z" fill="#382768"/>
<path d="M253.254 406.3L257.134 408.24C257.186 408.266 257.16 408.344 257.104 408.334L254.173 407.846L255.208 409.398C255.231 409.431 255.207 409.476 255.167 409.476H253.086L254.001 410.39C254.04 410.428 253.998 410.492 253.947 410.472L251.456 409.476H249.102L249.781 411.511C249.796 411.556 249.745 411.594 249.706 411.568L246.705 409.567C246.664 409.54 246.683 409.476 246.733 409.476H249.102L248.773 408.491C248.76 408.451 248.8 408.413 248.839 408.429L251.456 409.476H253.086L251.023 407.413C250.988 407.378 251.018 407.32 251.066 407.328L254.173 407.846L253.19 406.373C253.162 406.33 253.208 406.277 253.254 406.3Z" fill="#D7D7D7" stroke="#EDEDED"/>
<path d="M228.095 417.078C245.48 420.338 262.866 419.251 281.338 418.165C281.338 417.017 281.338 415.936 281.327 414.905C272.646 417.077 267.679 412.863 262.866 413.82C258.053 414.776 258.723 416.54 253.087 417.078C243.434 417.999 228.472 413.818 228.472 413.818C228.095 415.531 228.095 417.078 228.095 417.078Z" fill="#D7D7D7"/>
<path d="M293.44 421.228C293.44 413.968 293.44 409.128 291.019 403.077H264.398C264.398 403.077 262.785 407.648 258.347 409.128C253.909 410.607 245.036 409.128 237.776 411.548C234.146 412.758 234.146 420.018 234.146 420.018C253.507 423.649 272.868 422.438 293.44 421.228Z" fill="#503895"/>
<path d="M264.304 411.549H254.882C254.832 411.549 254.813 411.613 254.854 411.641L258.226 413.888C258.265 413.915 258.316 413.876 258.301 413.831L257.169 410.441C257.156 410.401 257.196 410.363 257.235 410.379L262.961 412.669C263.012 412.689 263.053 412.625 263.015 412.587L259.666 409.239C259.631 409.205 259.661 409.147 259.709 409.155L266.488 410.284C266.545 410.294 266.57 410.216 266.518 410.19L262.144 408.003C262.098 407.98 262.052 408.033 262.08 408.076L264.346 411.471C264.368 411.505 264.344 411.549 264.304 411.549Z" stroke="#EDEDED"/>
<path d="M234.146 420.016C253.507 423.647 272.868 422.437 293.44 421.226C293.44 419.948 293.44 418.744 293.426 417.596C283.759 420.015 278.228 415.322 272.868 416.388C267.508 417.453 268.254 419.417 261.977 420.016C251.228 421.042 234.565 416.386 234.565 416.386C234.146 418.293 234.146 420.016 234.146 420.016Z" fill="#EDEDED"/>
<path d="M282.55 299.007C287.391 280.856 303.122 246.973 303.122 220.352H261.979C255.931 244.553 247.46 259.588 247.458 290.536C247.456 317.094 252.967 394.337 253.472 401.353C253.497 401.705 253.701 401.962 254.019 402.113C263.501 406.629 276.376 406.621 292.643 402.089C293.105 401.961 293.412 401.526 293.369 401.049C292.674 393.207 287.082 330.728 282.55 299.007Z" fill="#60858D"/>
<path d="M287.391 301.424C292.232 283.273 307.963 249.39 307.963 222.769H261.979C255.931 246.97 252.301 270.475 252.299 301.424C252.297 327.911 257.779 397.141 258.308 403.769C258.336 404.118 258.539 404.378 258.855 404.528C268.337 409.046 281.214 409.039 297.484 404.506C297.946 404.378 298.252 403.943 298.21 403.466C297.515 395.624 291.923 333.145 287.391 301.424Z" fill="#409090"/>
<path d="M294.652 56.9893C294.652 70.3002 298.284 77.5607 303.124 89.6615L269.241 112.653C269.241 112.653 284.432 94.2929 281.342 82.401C280.279 78.3101 278.923 72.7204 278.923 72.7204C278.923 72.7204 272.872 76.3506 268.032 77.5607C264.956 78.3296 262.748 76.6708 261.981 75.1405C261.189 73.5585 260.915 71.9765 260.82 71.0705C260.773 70.6179 260.462 70.2214 260.032 70.0747C259.369 69.8493 258.481 69.4807 258.351 69.0901C258.14 68.4561 258.351 67.88 258.351 67.88C257.148 67.88 257.141 66.6801 257.141 66.67V66.6695L257.14 62.8293C257.14 62.2771 256.691 61.8344 256.14 61.8103C254.809 61.7521 253.967 61.554 253.1 61.0998C252.635 60.856 252.499 60.2669 252.738 59.7993C253.736 57.8466 256.088 52.7679 255.93 48.5187C255.725 42.9912 253.726 39.5395 253.511 31.5775C253.384 26.8744 255.705 21.3287 256.699 19.1803C256.934 18.6731 257.543 18.4838 258.035 18.7488L288.076 34.9246C288.4 35.099 288.602 35.4323 288.599 35.8001C288.582 38.1058 288.465 46.6634 287.636 52.9285C287.537 53.6755 288.228 54.1957 288.782 53.6849C291.767 50.9327 294.561 43.3593 301.914 41.2582C305.544 40.2209 309.765 43.8817 310.384 48.5187C311.003 53.1557 300.704 58.1994 297.073 58.1994C295.369 58.1994 294.652 56.9893 294.652 56.9893Z" fill="#FBDAAF"/>
<path d="M297.073 58.1955C295.37 58.1955 294.652 56.9854 294.652 56.9854C294.652 67.8736 297.083 74.7133 300.616 83.4654C300.616 83.4654 301.914 81.0756 301.914 76.2353C301.914 75.2469 301.4 74.0052 301.041 73.2599C300.953 73.0761 301.184 72.8305 301.375 72.9007C302.774 73.4129 306.216 74.1638 310.384 71.3949C313.376 69.4076 313.918 64.2291 314.001 63.1095C314.01 62.992 314.112 62.9068 314.23 62.9198C315.321 63.0409 320.333 63.4764 323.694 61.7143C327.087 59.9359 331.062 54.7148 331.973 53.4782C332.062 53.3573 331.992 53.1859 331.845 53.157C330.299 52.8539 323.694 51.1837 323.694 44.7731C323.694 35.2039 327.054 32.8628 324.906 22.9916C322.757 13.1203 302.124 0.00190125 282.552 0C270.451 -0.00117545 251.089 9.84686 246.25 18.2627C242.392 24.9727 239.859 34.0232 242.619 41.2543C245.159 47.9078 255.931 48.5148 255.931 48.5148C255.725 42.9874 253.726 39.5356 253.511 31.5737C253.372 26.4321 256.159 20.2835 256.939 18.6676C257.015 18.5107 257.238 18.5312 257.3 18.6941C262.119 31.3499 273.641 36.0284 287.526 35.2729C288.107 35.2413 288.601 35.694 288.595 36.2752C288.566 39.1173 288.416 47.0342 287.636 52.9246C287.537 53.6717 288.228 54.1919 288.782 53.6811C291.767 50.9289 294.561 43.3554 301.914 41.2543C305.544 40.217 309.765 43.8778 310.384 48.5148C311.004 53.1519 300.704 58.1955 297.073 58.1955Z" fill="#54271E"/>
<path d="M297.076 58.1949C295.372 58.1949 294.655 56.9848 294.655 56.9848C294.655 67.8729 297.085 74.7127 300.619 83.4648C300.619 83.4648 301.917 81.075 301.917 76.2347C301.917 75.2463 301.403 74.0046 301.044 73.2593C300.956 73.0755 301.187 72.8299 301.378 72.9001C302.777 73.4123 306.219 74.1631 310.387 71.3943C313.379 69.407 313.921 64.2285 314.004 63.1089C314.013 62.9914 314.115 62.9062 314.232 62.9192C315.324 63.0403 320.336 63.4758 323.697 61.7137C327.09 59.9353 331.065 54.7141 331.976 53.4776C332.065 53.3567 331.995 53.1853 331.848 53.1564C330.302 52.8532 323.697 51.1831 323.697 44.7725C323.697 38.7288 325.038 35.5683 325.484 31.5731C325.484 31.5731 315.222 35.7397 304.334 33.8798C297.858 32.7735 293.168 26.695 292.358 25.5837C292.289 25.4897 292.157 25.4689 292.062 25.5368C291.009 26.2944 285.123 30.1317 275.295 29.0394C267.043 28.1222 259.715 17.7471 258.524 15.9828C258.442 15.8618 258.263 15.8732 258.185 15.9965C249.867 29.1213 248.721 35.1803 255.934 48.5142C255.728 42.9868 253.729 39.535 253.514 31.5731C253.375 26.4315 256.162 20.2829 256.942 18.667C257.018 18.51 257.241 18.5306 257.303 18.6935C262.122 31.3493 273.644 36.0278 287.529 35.2723C288.11 35.2407 288.604 35.6934 288.598 36.2746C288.569 39.1167 288.419 47.0336 287.639 52.924C287.54 53.6711 288.231 54.1913 288.785 53.6804C291.77 50.9283 294.564 43.3548 301.917 41.2537C305.547 40.2164 309.768 43.8772 310.387 48.5142C311.007 53.1512 300.707 58.1949 297.076 58.1949Z" fill="#3F1C15"/>
<path d="M277.875 0.412602C279.514 0.144064 281.085 -0.000142196 282.55 0C296.366 0.00134213 310.71 6.53791 318.708 13.8547C318.805 13.9431 318.881 14.0472 318.931 14.1683C319.243 14.927 320.325 17.8846 318.853 19.3566C315.223 22.9869 301.913 22.9869 291.021 19.3566C283.039 16.6963 276.902 10.886 275.288 6.04569C274.223 2.85138 276.907 0.938306 277.568 0.524903C277.661 0.466166 277.766 0.430494 277.875 0.412602Z" fill="#6A3028"/>
<path d="M301.913 46.0805C298.581 47.1909 297.444 53.1456 297.155 55.1295C297.138 55.2427 297.294 55.2825 297.344 55.1791C298.095 53.6033 300.254 49.5294 301.913 50.9326C302.719 51.6152 299.823 52.7546 300.703 53.3407C304.333 55.7609 309.317 47.9568 306.753 46.0923C305.224 44.9805 303.706 45.4827 301.913 46.0805Z" fill="#F3C89C"/>
<path d="M267.987 53.2917C266.769 52.0464 264.42 48.5067 264.4 47.311C264.399 47.3003 264.401 47.2903 264.405 47.2802C265.627 43.6534 271.662 43.6559 272.87 44.8633C275.277 47.2711 271.698 52.0728 268.088 53.3147C268.052 53.3271 268.014 53.3188 267.987 53.2917Z" fill="#F9F9F6"/>
<path d="M267.987 53.2892C266.769 52.0439 264.42 48.5042 264.4 47.3086C264.399 47.2979 264.401 47.288 264.405 47.2778C264.857 45.934 265.971 45.0885 267.255 44.6178C267.296 44.6027 267.342 44.6171 267.368 44.6523C269.24 47.185 270.059 49.5739 270.07 52.2295C270.07 52.2622 270.054 52.293 270.027 52.3115C269.406 52.7396 268.748 53.0852 268.088 53.3121C268.052 53.3244 268.014 53.3163 267.987 53.2892Z" fill="#282828"/>
<path d="M264.424 47.2216C265.688 43.6501 271.668 43.6587 272.87 44.8599C273.802 45.7913 273.298 44.5005 273.018 43.8583C272.925 43.6462 272.757 43.4798 272.544 43.3892C271.733 43.044 269.578 42.2059 268.03 42.325C265.407 42.5267 263.381 45.7414 263.202 46.0332C263.193 46.0486 263.189 46.0635 263.19 46.0815C263.199 46.2564 263.293 47.221 264.325 47.2891C264.369 47.292 264.409 47.263 264.424 47.2216Z" fill="#54271E"/>
<circle r="1.21008" transform="matrix(-1 0 0 1 267.302 45.9562)" fill="white"/>
<path d="M260.768 39.902C259.571 41.0965 258.376 39.9227 258.351 38.7264C258.35 38.7021 258.359 38.6793 258.375 38.6612C258.631 38.3766 260.845 35.9627 263.191 35.0603C264.739 34.4647 267.096 34.7042 268.363 34.8997C268.481 34.9179 268.469 35.0952 268.35 35.1053C267.261 35.198 265.436 35.4701 264.401 36.2689C262.754 37.5402 260.832 39.8264 260.772 39.8971C260.77 39.8994 260.77 39.9 260.768 39.902Z" fill="#54271E"/>
<path d="M258.35 67.8696C257.148 67.8696 257.14 66.6731 257.14 66.6597V66.6594C257.14 66.646 257.146 65.4495 258.35 65.4495C261.524 65.4495 265.623 63.5991 266.603 63.1343C266.684 63.0961 266.771 63.1751 266.743 63.2593C265.6 66.5883 264.411 67.832 261.141 70.0396C260.905 70.1992 260.61 70.2494 260.338 70.1645C259.684 69.9611 258.502 69.5354 258.35 69.0797C258.138 68.4457 258.35 67.8696 258.35 67.8696Z" fill="#E99286"/>
<path d="M258.292 68.1219C258.319 67.972 258.352 67.8807 258.352 67.8807C258.224 67.8807 258.109 67.867 258.006 67.8424C260.857 67.3548 263.319 66.0067 265.611 64.25C264.401 65.4601 260.771 67.8803 258.292 68.1219Z" fill="#B96B62"/>
<path d="M257.141 61.8237C255.194 61.8237 254.165 61.6524 253.1 61.0939C252.635 60.8501 252.5 60.2585 252.739 59.7908C252.881 59.5128 253.051 59.1717 253.236 58.7787C255.692 60.4507 256.914 60.5992 258.943 59.697C259.126 59.6157 259.302 59.8118 259.189 59.9763C258.695 60.692 257.808 61.8237 257.141 61.8237Z" fill="#F3C89C"/>
<path d="M281.342 82.3952C280.279 78.3042 278.923 72.7145 278.923 72.7145C278.923 72.7145 288.603 67.8742 292.234 63.0338C293.501 61.3433 294.652 56.9834 294.652 56.9834C294.652 60.6193 294.923 63.8038 295.416 66.7588C295.467 67.069 295.372 67.3878 295.158 67.6175L281.342 82.3952Z" fill="#F3C89C"/>
<path d="M358.684 212.972H8.39828C1.23688 212.972 1.23197 225.073 8.39828 225.073H358.684C364.668 225.073 365.864 212.972 358.684 212.972Z" fill="#C4E5E2"/>
<path d="M208.737 129.592C205.292 130.74 196.636 133.222 195.426 134.432L211.157 145.579L266.821 159.845L263.219 145.579C263.219 145.579 250.668 147.859 242.647 146.803C233.419 145.588 224.496 141.963 220.866 138.337C218.319 135.794 219.808 134.799 217.236 132.282C213.459 128.587 212.367 128.381 208.737 129.592Z" fill="#FACAB1"/>
<path d="M253.52 145.327C259.57 141.697 260.157 139.9 264.41 135.646L272.881 144.117L260.78 156.218C259.57 152.588 255.94 147.747 253.52 145.327Z" fill="#409090"/>
<path d="M306.763 101.74C306.763 95.6923 303.521 88.8152 300.712 86.0093C298.292 83.5917 294.662 83.5961 292.242 86.013C292.242 86.013 264.41 109.607 260.78 133.2C259.845 139.272 264.41 150.144 264.41 150.144C264.41 150.144 270.376 162.994 269.25 173.133C268.04 184.03 259.569 204.602 258.359 220.326H314.023C314.023 220.326 311.015 202.046 306.763 190.081C303.506 180.917 298.848 172.912 298.292 164.669C297.456 152.266 303.132 133.2 303.132 133.2C305.495 119.495 306.763 116.264 306.763 101.74Z" fill="#01A796"/>
<path d="M303.133 133.205C305.496 119.5 306.763 116.269 306.763 101.745C306.763 101.745 305.181 107.819 303.133 113.87C294.583 139.122 269.25 173.137 269.25 173.137C268.949 175.849 268.199 179.159 267.223 182.844C267.223 182.844 274.091 186.475 280.141 182.844C286.192 178.004 289.822 168.323 293.452 165.903C296.481 163.884 298.292 164.674 298.292 164.674C297.457 152.271 303.133 133.205 303.133 133.205Z" fill="#409090"/>
<path d="M282.56 168.299C293.45 147.728 298.291 134.417 303.131 113.846L286.19 105.375C281.35 121.106 275.299 131.997 261.988 151.358C271.669 154.988 277.719 162.249 282.56 168.299Z" fill="#01A796"/>
<path d="M261.988 151.353C271.668 154.983 277.719 162.244 282.559 168.294C282.559 168.294 280.735 174.062 277.719 174.363C265.618 175.572 232.946 159.837 216.004 156.208C209.519 154.819 211.738 156.208 205.105 156.208C200.265 156.208 198.121 155.277 196.635 154.998C195.148 154.719 193.583 155.895 191.794 154.998C189.37 153.782 200.422 146.377 203.901 142.897C204.447 142.351 203.901 139.875 202.693 139.271C197.853 136.849 190.046 136.74 190.593 135.641C191.798 133.216 197.875 134.514 202.693 134.429C207.976 134.337 212.228 134.361 216.004 138.056C218.577 140.573 217.088 141.568 219.635 144.111C223.265 147.737 232.187 151.362 241.416 152.577C249.437 153.633 261.988 151.353 261.988 151.353Z" fill="#FFDAC0"/>
<path d="M205.105 156.213C200.265 156.213 198.121 155.282 196.635 155.003C196.635 155.003 203.895 150.162 206.315 146.532C205.105 148.952 200.87 152.583 199.055 153.793C197.631 154.742 200.434 155.697 201.475 155.003C204.225 153.17 205.586 152.725 207.136 151.04C207.66 150.446 208.198 149.759 208.736 148.952C208.148 149.833 207.633 150.5 207.136 151.04C205.3 153.12 203.626 154.062 202.685 155.003C202.685 156.213 203.93 155.756 205.105 155.003C207.667 153.362 208.026 152.786 209.946 150.162C207.526 153.793 207.468 153.377 205.105 156.213Z" fill="#F3C89C"/>
<path d="M261.988 151.355C275.299 131.994 281.35 121.103 286.19 105.372C286.19 105.372 287.4 101.762 292.24 101.762C293.45 101.762 293.504 102.285 293.45 104.175C293.316 108.922 297.17 109.679 293.45 112.632C290.833 114.71 287.431 111.95 286.19 115.052C283.77 121.103 264.408 148.934 264.408 150.145C264.408 151.517 265.991 152.942 267.346 153.91C267.999 154.293 268.633 154.691 269.249 155.104C269.249 155.104 268.361 154.635 267.346 153.91C265.691 152.94 263.911 152.076 261.988 151.355Z" fill="#6DCBC1"/>
<path d="M281.338 418.166C281.338 411.647 281.338 407.3 279.165 401.867H255.26C255.26 401.867 253.812 405.972 249.827 407.3C245.842 408.629 237.874 407.3 231.355 409.473C228.095 410.56 228.095 417.08 228.095 417.08C245.48 420.339 262.866 419.253 281.338 418.166Z" fill="#382768"/>
<path d="M253.254 406.3L257.134 408.24C257.186 408.266 257.16 408.344 257.104 408.334L254.173 407.846L255.208 409.398C255.231 409.431 255.207 409.476 255.167 409.476H253.086L254.001 410.39C254.04 410.428 253.998 410.492 253.947 410.472L251.456 409.476H249.102L249.781 411.511C249.796 411.556 249.745 411.594 249.706 411.568L246.705 409.567C246.664 409.54 246.683 409.476 246.733 409.476H249.102L248.773 408.491C248.76 408.451 248.8 408.413 248.839 408.429L251.456 409.476H253.086L251.023 407.413C250.988 407.378 251.018 407.32 251.066 407.328L254.173 407.846L253.19 406.373C253.162 406.33 253.208 406.277 253.254 406.3Z" fill="#D7D7D7" stroke="#EDEDED"/>
<path d="M228.095 417.078C245.48 420.338 262.866 419.251 281.338 418.165C281.338 417.017 281.338 415.936 281.327 414.905C272.646 417.077 267.679 412.863 262.866 413.82C258.053 414.776 258.723 416.54 253.087 417.078C243.434 417.999 228.472 413.818 228.472 413.818C228.095 415.531 228.095 417.078 228.095 417.078Z" fill="#D7D7D7"/>
<path d="M293.44 421.228C293.44 413.968 293.44 409.128 291.019 403.077H264.398C264.398 403.077 262.785 407.648 258.347 409.128C253.909 410.607 245.036 409.128 237.776 411.548C234.146 412.758 234.146 420.018 234.146 420.018C253.507 423.649 272.868 422.438 293.44 421.228Z" fill="#503895"/>
<path d="M264.304 411.549H254.882C254.832 411.549 254.813 411.613 254.854 411.641L258.226 413.888C258.265 413.915 258.316 413.876 258.301 413.831L257.169 410.441C257.156 410.401 257.196 410.363 257.235 410.379L262.961 412.669C263.012 412.689 263.053 412.625 263.015 412.587L259.666 409.239C259.631 409.205 259.661 409.147 259.709 409.155L266.488 410.284C266.545 410.294 266.57 410.216 266.518 410.19L262.144 408.003C262.098 407.98 262.052 408.033 262.08 408.076L264.346 411.471C264.368 411.505 264.344 411.549 264.304 411.549Z" stroke="#EDEDED"/>
<path d="M234.146 420.016C253.507 423.647 272.868 422.437 293.44 421.226C293.44 419.948 293.44 418.744 293.426 417.596C283.759 420.015 278.228 415.322 272.868 416.388C267.508 417.453 268.254 419.417 261.977 420.016C251.228 421.042 234.565 416.386 234.565 416.386C234.146 418.293 234.146 420.016 234.146 420.016Z" fill="#EDEDED"/>
<path d="M282.55 299.007C287.391 280.856 303.122 246.973 303.122 220.352H261.979C255.931 244.553 247.46 259.588 247.458 290.536C247.456 317.094 252.967 394.337 253.472 401.353C253.497 401.705 253.701 401.962 254.019 402.113C263.501 406.629 276.376 406.621 292.643 402.089C293.105 401.961 293.412 401.526 293.369 401.049C292.674 393.207 287.082 330.728 282.55 299.007Z" fill="#60858D"/>
<path d="M287.391 301.424C292.232 283.273 307.963 249.39 307.963 222.769H261.979C255.931 246.97 252.301 270.475 252.299 301.424C252.297 327.911 257.779 397.141 258.308 403.769C258.336 404.118 258.539 404.378 258.855 404.528C268.337 409.046 281.214 409.039 297.484 404.506C297.946 404.378 298.252 403.943 298.21 403.466C297.515 395.624 291.923 333.145 287.391 301.424Z" fill="#409090"/>
<path d="M294.652 56.9893C294.652 70.3002 298.284 77.5607 303.124 89.6615L269.241 112.653C269.241 112.653 284.432 94.2929 281.342 82.401C280.279 78.3101 278.923 72.7204 278.923 72.7204C278.923 72.7204 272.872 76.3506 268.032 77.5607C264.956 78.3296 262.748 76.6708 261.981 75.1405C261.189 73.5585 260.915 71.9765 260.82 71.0705C260.773 70.6179 260.462 70.2214 260.032 70.0747C259.369 69.8493 258.481 69.4807 258.351 69.0901C258.14 68.4561 258.351 67.88 258.351 67.88C257.148 67.88 257.141 66.6801 257.141 66.67V66.6695L257.14 62.8293C257.14 62.2771 256.691 61.8344 256.14 61.8103C254.809 61.7521 253.967 61.554 253.1 61.0998C252.635 60.856 252.499 60.2669 252.738 59.7993C253.736 57.8466 256.088 52.7679 255.93 48.5187C255.725 42.9912 253.726 39.5395 253.511 31.5775C253.384 26.8744 255.705 21.3287 256.699 19.1803C256.934 18.6731 257.543 18.4838 258.035 18.7488L288.076 34.9246C288.4 35.099 288.602 35.4323 288.599 35.8001C288.582 38.1058 288.465 46.6634 287.636 52.9285C287.537 53.6755 288.228 54.1957 288.782 53.6849C291.767 50.9327 294.561 43.3593 301.914 41.2582C305.544 40.2209 309.765 43.8817 310.384 48.5187C311.003 53.1557 300.704 58.1994 297.073 58.1994C295.369 58.1994 294.652 56.9893 294.652 56.9893Z" fill="#FFDAC0"/>
<path d="M297.073 58.1955C295.37 58.1955 294.652 56.9854 294.652 56.9854C294.652 67.8736 297.083 74.7133 300.616 83.4654C300.616 83.4654 301.914 81.0756 301.914 76.2353C301.914 75.2469 301.4 74.0052 301.041 73.2599C300.953 73.0761 301.184 72.8305 301.375 72.9007C302.774 73.4129 306.216 74.1638 310.384 71.3949C313.376 69.4076 313.918 64.2291 314.001 63.1095C314.01 62.992 314.112 62.9068 314.23 62.9198C315.321 63.0409 320.333 63.4764 323.694 61.7143C327.087 59.9359 331.062 54.7148 331.973 53.4782C332.062 53.3573 331.992 53.1859 331.845 53.157C330.299 52.8539 323.694 51.1837 323.694 44.7731C323.694 35.2039 327.054 32.8628 324.906 22.9916C322.757 13.1203 302.124 0.00190125 282.552 0C270.451 -0.00117545 251.089 9.84686 246.25 18.2627C242.392 24.9727 239.859 34.0232 242.619 41.2543C245.159 47.9078 255.931 48.5148 255.931 48.5148C255.725 42.9874 253.726 39.5356 253.511 31.5737C253.372 26.4321 256.159 20.2835 256.939 18.6676C257.015 18.5107 257.238 18.5312 257.3 18.6941C262.119 31.3499 273.641 36.0284 287.526 35.2729C288.107 35.2413 288.601 35.694 288.595 36.2752C288.566 39.1173 288.416 47.0342 287.636 52.9246C287.537 53.6717 288.228 54.1919 288.782 53.6811C291.767 50.9289 294.561 43.3554 301.914 41.2543C305.544 40.217 309.765 43.8778 310.384 48.5148C311.004 53.1519 300.704 58.1955 297.073 58.1955Z" fill="#C05F28"/>
<path d="M297.076 58.1949C295.372 58.1949 294.655 56.9848 294.655 56.9848C294.655 67.8729 297.085 74.7127 300.619 83.4648C300.619 83.4648 301.917 81.075 301.917 76.2347C301.917 75.2463 301.403 74.0046 301.044 73.2593C300.956 73.0755 301.187 72.8299 301.378 72.9001C302.777 73.4123 306.219 74.1631 310.387 71.3943C313.379 69.407 313.921 64.2285 314.004 63.1089C314.013 62.9914 314.115 62.9062 314.232 62.9192C315.324 63.0403 320.336 63.4758 323.697 61.7137C327.09 59.9353 331.065 54.7141 331.976 53.4776C332.065 53.3567 331.995 53.1853 331.848 53.1564C330.302 52.8532 323.697 51.1831 323.697 44.7725C323.697 38.7288 325.038 35.5683 325.484 31.5731C325.484 31.5731 315.222 35.7397 304.334 33.8798C297.858 32.7735 293.168 26.695 292.358 25.5837C292.289 25.4897 292.157 25.4689 292.062 25.5368C291.009 26.2944 285.123 30.1317 275.295 29.0394C267.043 28.1222 259.715 17.7471 258.524 15.9828C258.442 15.8618 258.263 15.8732 258.185 15.9965C249.867 29.1213 248.721 35.1803 255.934 48.5142C255.728 42.9868 253.729 39.535 253.514 31.5731C253.375 26.4315 256.162 20.2829 256.942 18.667C257.018 18.51 257.241 18.5306 257.303 18.6935C262.122 31.3493 273.644 36.0278 287.529 35.2723C288.11 35.2407 288.604 35.6934 288.598 36.2746C288.569 39.1167 288.419 47.0336 287.639 52.924C287.54 53.6711 288.231 54.1913 288.785 53.6804C291.77 50.9283 294.564 43.3548 301.917 41.2537C305.547 40.2164 309.768 43.8772 310.387 48.5142C311.007 53.1512 300.707 58.1949 297.076 58.1949Z" fill="#A85424"/>
<path d="M277.875 0.412602C279.514 0.144064 281.085 -0.000142196 282.55 0C296.366 0.00134213 310.71 6.53791 318.708 13.8547C318.805 13.9431 318.881 14.0472 318.931 14.1683C319.243 14.927 320.325 17.8846 318.853 19.3566C315.223 22.9869 301.913 22.9869 291.021 19.3566C283.039 16.6963 276.902 10.886 275.288 6.04569C274.223 2.85138 276.907 0.938306 277.568 0.524903C277.661 0.466166 277.766 0.430494 277.875 0.412602Z" fill="#D3692D"/>
<path d="M301.913 46.0805C298.581 47.1909 297.444 53.1456 297.155 55.1295C297.138 55.2427 297.294 55.2825 297.344 55.1791C298.095 53.6033 300.254 49.5294 301.913 50.9326C302.719 51.6152 299.823 52.7546 300.703 53.3407C304.333 55.7609 309.317 47.9568 306.753 46.0923C305.224 44.9805 303.706 45.4827 301.913 46.0805Z" fill="#FACAB1"/>
<path d="M267.987 53.2917C266.769 52.0464 264.42 48.5067 264.4 47.311C264.399 47.3003 264.401 47.2903 264.405 47.2802C265.627 43.6534 271.662 43.6559 272.87 44.8633C275.277 47.2711 271.698 52.0728 268.088 53.3147C268.052 53.3271 268.014 53.3188 267.987 53.2917Z" fill="#F9F9F6"/>
<path d="M267.987 53.2892C266.769 52.0439 264.42 48.5042 264.4 47.3086C264.399 47.2979 264.401 47.288 264.405 47.2778C264.857 45.934 265.971 45.0885 267.255 44.6178C267.296 44.6027 267.342 44.6171 267.368 44.6523C269.24 47.185 270.059 49.5739 270.07 52.2295C270.07 52.2622 270.054 52.293 270.027 52.3115C269.406 52.7396 268.748 53.0852 268.088 53.3121C268.052 53.3244 268.014 53.3163 267.987 53.2892Z" fill="#282828"/>
<path d="M264.424 47.2216C265.688 43.6501 271.668 43.6587 272.87 44.8599C273.802 45.7913 273.298 44.5005 273.018 43.8583C272.925 43.6462 272.757 43.4798 272.544 43.3892C271.733 43.044 269.578 42.2059 268.03 42.325C265.407 42.5267 263.381 45.7414 263.202 46.0332C263.193 46.0486 263.189 46.0635 263.19 46.0815C263.199 46.2564 263.293 47.221 264.325 47.2891C264.369 47.292 264.409 47.263 264.424 47.2216Z" fill="#54271E"/>
<circle r="1.21008" transform="matrix(-1 0 0 1 267.302 45.9562)" fill="white"/>
<path d="M260.768 39.902C259.571 41.0965 258.376 39.9227 258.351 38.7264C258.35 38.7021 258.359 38.6793 258.375 38.6612C258.631 38.3766 260.845 35.9627 263.191 35.0603C264.739 34.4647 267.096 34.7042 268.363 34.8997C268.481 34.9179 268.469 35.0952 268.35 35.1053C267.261 35.198 265.436 35.4701 264.401 36.2689C262.754 37.5402 260.832 39.8264 260.772 39.8971C260.77 39.8994 260.77 39.9 260.768 39.902Z" fill="#54271E"/>
<path d="M258.35 67.8696C257.148 67.8696 257.14 66.6731 257.14 66.6597V66.6594C257.14 66.646 257.146 65.4495 258.35 65.4495C261.524 65.4495 265.623 63.5991 266.603 63.1343C266.684 63.0961 266.771 63.1751 266.743 63.2593C265.6 66.5883 264.411 67.832 261.141 70.0396C260.905 70.1992 260.61 70.2494 260.338 70.1645C259.684 69.9611 258.502 69.5354 258.35 69.0797C258.138 68.4457 258.35 67.8696 258.35 67.8696Z" fill="#E99286"/>
<path d="M258.291 68.1219C258.318 67.972 258.351 67.8807 258.351 67.8807C258.223 67.8807 258.108 67.867 258.005 67.8424C260.856 67.3548 263.318 66.0067 265.61 64.25C264.4 65.4601 260.77 67.8803 258.291 68.1219Z" fill="#B96B62"/>
<path d="M257.141 61.8237C255.194 61.8237 254.165 61.6524 253.1 61.0939C252.635 60.8501 252.5 60.2585 252.739 59.7908C252.881 59.5128 253.051 59.1717 253.236 58.7787C255.692 60.4507 256.914 60.5992 258.943 59.697C259.126 59.6157 259.302 59.8118 259.189 59.9763C258.695 60.692 257.808 61.8237 257.141 61.8237Z" fill="#FACAB1"/>
<path d="M281.342 82.3952C280.279 78.3042 278.923 72.7145 278.923 72.7145C278.923 72.7145 288.603 67.8742 292.234 63.0338C293.501 61.3433 294.652 56.9834 294.652 56.9834C294.652 60.6193 294.923 63.8038 295.416 66.7588C295.467 67.069 295.372 67.3878 295.158 67.6175L281.342 82.3952Z" fill="#FACAB1"/>
<path d="M124.304 183.569C131.096 181.359 137.152 178.32 143.153 174.455C143.269 174.381 143.424 174.441 143.457 174.574C144.132 177.265 149.728 199.177 154.267 203.748C154.277 203.757 154.285 203.764 154.296 203.771C157.946 206.174 170.019 203.764 174.852 206.181C179.273 208.392 180.814 215.44 180.899 215.843C180.901 215.857 180.902 215.868 180.902 215.882C180.889 217.079 179.697 218.264 178.499 217.088C178.488 217.077 178.478 217.065 178.47 217.052L173.489 209.083C173.361 208.878 173.047 209.033 173.132 209.259L176.049 217.038C176.058 217.06 176.062 217.084 176.062 217.108C176.04 218.18 175.079 219.233 174.018 218.584C173.866 218.491 173.625 218.587 173.58 218.759C173.351 219.65 172.511 220.352 171.598 219.794C171.446 219.701 171.186 219.797 171.107 219.956C170.612 220.955 168.644 221.597 167.591 219.492L164.051 212.41C164.001 212.311 163.884 212.27 163.782 212.313C161.1 213.439 151.767 213.386 147.034 211.028C147.024 211.023 147.016 211.019 147.008 211.012C141.958 207.396 132.66 194.518 124.208 183.883C124.121 183.774 124.171 183.612 124.304 183.569Z" fill="#FDCB96"/>
<path d="M132.499 92.0179C132.499 96.7774 132.499 100.367 135.95 108.539C136.018 108.699 135.866 108.868 135.702 108.811L104.882 98.1428C104.768 98.1033 104.716 97.9711 104.77 97.8633C111.362 84.8151 121.523 77.4894 121.608 64.3518C121.608 64.2565 121.54 64.1724 121.447 64.1526C115.493 62.8894 111.927 58.0923 111.927 53.2952C111.927 50.875 115.558 44.8246 120.398 44.8246C122.715 44.8246 126.142 50.371 127.491 56.1535C127.538 56.3557 127.83 56.3687 127.891 56.1703L132.484 41.2418C132.494 41.2106 132.511 41.1823 132.534 41.1592L142.103 31.5903C142.151 31.5425 142.219 31.5221 142.286 31.536L165.069 36.3326C165.133 36.346 165.187 36.3918 165.213 36.4518C168.764 44.8527 163.961 48.4922 163.961 58.1355C163.961 61.7202 163.961 64.125 166.291 68.8452C166.34 68.9442 166.301 69.0667 166.201 69.1151C164.03 70.1731 162.857 70.2328 161.741 70.2361C161.63 70.2365 161.541 70.3259 161.538 70.4363C161.474 72.7661 160.288 75.0958 157.982 77.4256C157.937 77.4703 157.916 77.5305 157.923 77.593C158.012 78.2973 158.481 82.6572 156.701 83.5473C154.777 84.5092 144.747 82.3688 138.682 78.7861C138.603 78.7394 138.505 78.7511 138.441 78.8165C136.022 81.2713 132.499 86.0574 132.499 92.0179Z" fill="#FFD59B"/>
<path d="M144.924 34.1042C153.231 39.7288 160.35 32.7578 165.127 36.3177C165.155 36.3384 165.178 36.3676 165.191 36.3994C167.714 42.3254 166.085 45.8822 164.892 50.8238C167.498 49.652 168.716 48.4838 169.885 46.2304C169.948 46.1094 170.11 46.0821 170.211 46.1734C171.382 47.2286 173.476 48.2866 176.496 49.3448C176.694 49.414 176.858 49.1657 176.719 49.0096C175.612 47.7734 173.172 44.8495 172.432 42.3497C170.775 36.7443 174.852 38.7195 174.852 27.8287C174.852 23.2562 169.107 18.5425 167.895 17.5991C167.786 17.5139 167.794 17.3486 167.913 17.2773C169.184 16.5165 171.432 15.7124 172.91 14.9424C173.098 14.8449 173.014 14.5864 172.804 14.6062C170.38 14.834 163.347 15.2936 160.352 13.3256C160.337 13.3159 160.322 13.3086 160.305 13.303C153.044 10.8729 141.082 4.43729 128.866 9.67903C120.397 13.3131 108.301 24.1998 108.298 32.672C108.296 38.7235 114.347 48.1484 114.347 48.1484C115.859 46.3333 117.977 44.8207 120.397 44.8207C122.768 44.8207 126.301 50.6283 127.581 56.5536C127.615 56.7102 127.812 56.7643 127.922 56.6473C132.366 51.8946 128.96 48.3772 133.708 47.1936C139.65 44.8637 144.425 41.2723 144.596 34.27C144.6 34.1073 144.79 34.013 144.924 34.1042Z" fill="#54271E"/>
<path d="M144.924 34.1042C153.231 39.7288 160.35 32.7578 165.127 36.3177C165.155 36.3384 165.178 36.3676 165.191 36.3994C167.714 42.3254 166.085 45.8822 164.892 50.8238C167.498 49.652 168.716 48.4838 169.885 46.2304C169.948 46.1094 170.11 46.0821 170.211 46.1734C171.382 47.2286 173.476 48.2866 176.496 49.3448C176.694 49.414 176.858 49.1657 176.719 49.0096C175.612 47.7734 173.172 44.8495 172.432 42.3497C170.775 36.7443 174.852 38.7195 174.852 27.8287C174.852 23.2562 169.107 18.5425 167.895 17.5991C167.786 17.5139 167.794 17.3486 167.913 17.2773C169.184 16.5165 171.432 15.7124 172.91 14.9424C173.098 14.8449 173.014 14.5864 172.804 14.6062C170.38 14.834 163.347 15.2936 160.352 13.3256C160.337 13.3159 160.322 13.3086 160.305 13.303C153.044 10.8729 141.082 4.43729 128.866 9.67903C120.397 13.3131 108.301 24.1998 108.298 32.672C108.296 38.7235 114.347 48.1484 114.347 48.1484C115.859 46.3333 117.977 44.8207 120.397 44.8207C122.768 44.8207 126.301 50.6283 127.581 56.5536C127.615 56.7102 127.812 56.7643 127.922 56.6473C132.366 51.8946 128.96 48.3772 133.708 47.1936C139.65 44.8637 144.425 41.2723 144.596 34.27C144.6 34.1073 144.79 34.013 144.924 34.1042Z" fill="#190C17"/>
<path d="M161.076 72.8316C160.526 74.3675 159.489 75.9034 157.964 77.4393C157.933 77.4702 157.886 77.4779 157.847 77.4575C155.548 76.2436 153.25 73.99 150.951 71.6931C150.876 71.6185 150.954 71.4928 151.055 71.5247C154.429 72.5921 156.815 72.6072 160.984 72.6998C161.051 72.7013 161.099 72.768 161.076 72.8316Z" fill="#F9F9F6"/>
<path d="M166.378 69.0249C163.958 70.235 162.747 70.235 161.537 70.235C160.538 70.235 159.862 69.231 159.39 68.3489C159.299 68.1794 159.491 67.9802 159.675 68.0332C161.906 68.6735 164.099 66.698 165.8 67.8148C165.975 68.2015 166.167 68.604 166.378 69.0249Z" fill="#FDCB96"/>
<path d="M138.546 78.7056C137.204 80.0473 135.49 82.1328 134.23 84.756C130.074 79.9157 122.814 70.235 121.339 67.8148C121.512 66.6516 121.605 65.4448 121.605 64.1846C121.605 68.1641 122.814 69.0249 138.546 78.7056Z" fill="#FDCB96"/>
<path d="M153.895 61.8057C155.112 60.5611 157.46 57.0236 157.48 55.8287C157.481 55.818 157.479 55.808 157.475 55.7978C156.254 52.1732 150.223 52.1757 149.015 53.3824C146.609 55.7887 150.186 60.5875 153.794 61.8288C153.83 61.8411 153.868 61.8328 153.895 61.8057Z" fill="#F9F9F6"/>
<path d="M153.895 61.8035C155.112 60.5589 157.46 57.0214 157.48 55.8265C157.481 55.8158 157.479 55.8059 157.475 55.7957C157.023 54.4528 155.91 53.6077 154.627 53.1373C154.586 53.1222 154.539 53.1366 154.513 53.1719C152.643 55.703 151.824 58.0904 151.813 60.7444C151.813 60.7771 151.829 60.8079 151.856 60.8264C152.477 61.2543 153.135 61.5997 153.794 61.8264C153.83 61.8387 153.868 61.8306 153.895 61.8035Z" fill="#282828"/>
<path d="M157.457 55.7382C156.193 52.1688 150.217 52.1774 149.016 53.3779C148.084 54.3087 148.588 53.0189 148.868 52.3771C148.961 52.165 149.129 51.9986 149.342 51.908C150.152 51.563 152.306 50.7255 153.853 50.8445C156.474 51.0461 158.499 54.2588 158.678 54.5505C158.687 54.5658 158.69 54.5808 158.69 54.5988C158.681 54.7736 158.587 55.7376 157.556 55.8056C157.512 55.8085 157.471 55.7796 157.457 55.7382Z" fill="#190C17"/>
<circle cx="154.578" cy="54.475" r="1.20936" fill="white"/>
<path d="M160.314 46.8564C161.819 47.6232 162.594 46.1388 162.249 44.994C162.242 44.9707 162.227 44.9515 162.206 44.9393C161.875 44.7475 159.026 43.1351 156.518 43.0003C154.862 42.9114 152.696 43.8652 151.552 44.4415C151.445 44.4951 151.512 44.6601 151.628 44.6331C152.692 44.3855 154.51 44.0819 155.74 44.5223C157.697 45.2233 160.23 46.8042 160.308 46.8532C160.31 46.8547 160.311 46.855 160.314 46.8564Z" fill="#190C17"/>
<path d="M120.225 52.4174C122.372 53.8658 122.083 58.2413 121.887 59.8999C121.873 60.0137 121.712 60.0129 121.692 59.9002C121.434 58.4915 120.682 55.3228 119.234 55.994C118.502 56.333 120.395 57.7621 119.63 58.0152C116.471 59.0605 114.408 52.2939 116.671 51.4412C118.02 50.9328 119.032 51.6119 120.225 52.4174Z" fill="#FDCB96"/>
<path d="M148.222 218.879C145.79 172.92 137.767 112.577 136.132 108.955C134.495 105.329 128.868 99.2754 124.028 93.2204C123.12 92.0845 121.14 90.3052 119.188 89.1216C117.978 88.3879 113.571 87.3826 110.72 89.6009C109.133 90.8359 107.266 93.3934 104.67 96.8543C97.409 106.532 80.4667 151.304 79.2578 157.355C78.5684 160.805 84.0428 178.968 86.4817 187.489C86.503 187.563 86.564 187.615 86.6401 187.628L100.859 190.001C100.961 190.018 101.033 190.11 101.026 190.213L98.6362 222.472C98.6272 222.594 98.7285 222.695 98.8503 222.686L148.037 219.087C148.146 219.079 148.228 218.988 148.222 218.879Z" fill="#ECBB95"/>
<path d="M119.188 89.1219C118.018 88.4127 113.862 87.4497 111.01 89.3898C110.881 89.4779 110.904 89.6793 111.043 89.7519C112.058 90.2825 115.138 92.351 115.557 98.0686C116.061 104.929 111.475 124.612 107.087 135.581C102.247 147.682 91.3558 153.732 91.3558 153.732C91.3558 153.732 96.0646 151.286 98.6163 152.522C104.21 155.232 102.82 165.557 96.1961 168.253C89.8837 170.823 84.6713 168.78 82.8852 162.203C80.7339 154.281 85.0365 140.422 85.0365 140.422C81.9417 148.639 79.6728 155.278 79.2578 157.355C78.5703 160.796 84.0133 178.87 86.462 187.42C86.4923 187.526 86.6019 187.583 86.708 187.552C95.0506 185.153 102.223 181.567 109.39 176.803C109.46 176.756 109.493 176.67 109.473 176.588L103.468 152.57C103.461 152.539 103.46 152.506 103.468 152.475C109.524 127.076 122.818 99.2764 122.818 95.6484C122.818 94.1941 121.14 90.3055 119.188 89.1219Z" fill="#E3AB87"/>
<path d="M108.256 171.712L104.423 156.38C104.393 156.26 104.477 156.142 104.6 156.132C135.036 153.679 167.581 142.849 206.119 132.004C206.226 131.974 206.338 132.037 206.367 132.145L211.104 149.91C211.132 150.016 211.069 150.125 210.964 150.154C172.398 160.996 141.028 168.232 108.472 171.863C108.372 171.874 108.28 171.81 108.256 171.712Z" fill="#503895"/>
<path d="M86.517 404.222C83.886 401.926 82.0121 397.74 81.7173 397.057C81.6909 396.996 81.6374 396.953 81.5719 396.94L63.6131 393.349C63.5573 393.337 63.4988 393.351 63.4533 393.385C58.6979 396.97 56.2901 400.584 53.9004 410.051C53.8711 410.167 53.9461 410.285 54.065 410.301C55.3533 410.468 62.0718 411.368 68.3657 412.692C77.5799 414.631 81.9425 418.878 91.3573 418.743C97.2351 418.658 107.931 416.628 109.351 416.353C109.445 416.335 109.509 416.255 109.505 416.159C109.365 412.553 104.643 407.863 102.257 407.852C102.251 407.852 102.252 407.852 102.246 407.852C102.059 407.835 89.3667 406.708 86.517 404.222Z" fill="#190C17"/>
<path d="M121.639 422.163C122.835 413.828 124.07 407.819 130.019 399.462C130.057 399.409 130.118 399.377 130.183 399.377H143.228C143.323 399.377 143.404 399.439 143.425 399.532C143.686 400.644 145.467 407.463 150.651 410.268C156.855 413.624 171.079 412.697 171.222 412.688C171.226 412.688 171.225 412.688 171.23 412.688C175.987 412.693 178.405 418.547 178.481 422.191C178.484 422.293 178.405 422.377 178.303 422.389C156.697 424.781 143.416 424.782 121.817 422.392C121.705 422.379 121.623 422.275 121.639 422.163Z" fill="#190C17"/>
<path d="M102.261 309.77C109.459 274.965 109.508 260.404 109.508 230.589C109.508 230.396 109.755 230.307 109.869 230.463L136.09 266.219C136.116 266.254 136.13 266.273 136.129 266.317C136.098 267.734 135.253 302.821 128.87 314.677C111.616 346.719 92.1244 396.219 91.379 398.116C91.3569 398.173 91.3228 398.183 91.2654 398.2L91.2629 398.2C79.2545 401.776 69.6221 399.386 57.6206 393.405C57.5361 393.363 57.4891 393.276 57.5132 393.185C58.2392 390.432 69.1494 349.676 84.0965 329.198C90.5609 320.341 101.418 310.578 102.203 309.876C102.235 309.848 102.253 309.812 102.261 309.77Z" fill="#3F1C15"/>
<path d="M104.668 238.438C103.159 233.832 101.427 226.74 101.095 225.363C101.065 225.24 101.157 225.124 101.284 225.12L144.466 223.921C144.548 223.918 144.609 223.934 144.641 224.009C145.763 226.576 170.013 282.252 170.013 297.732C170.013 325.058 156.015 402.544 155.506 405.351C155.492 405.43 155.442 405.44 155.365 405.455L155.359 405.456C143.331 407.821 127.774 405.434 120.497 400.654C120.436 400.614 120.404 400.542 120.411 400.468C125.241 348.584 130.076 325.599 139.725 297.835C139.747 297.771 139.746 297.713 139.705 297.659C138.337 295.883 112.39 261.999 104.668 238.438Z" fill="#54271E"/>
<rect x="7.86621" y="394.486" width="14.521" height="4.84033" rx="0.2" fill="#C4E5E2"/>
<rect x="7.86621" y="399.328" width="14.521" height="21.7815" rx="0.2" fill="#DDEEEC"/>
<rect x="10.2861" y="225.072" width="9.68067" height="174.252" fill="#DDEEEC"/>
<rect x="10.2861" y="225.072" width="9.68067" height="24.2017" fill="#C4E5E2"/>
<rect x="344.27" y="394.486" width="14.521" height="4.84033" rx="0.2" fill="#C4E5E2"/>
<rect x="344.27" y="399.328" width="14.521" height="21.7815" rx="0.2" fill="#DDEEEC"/>
<rect x="346.689" y="225.072" width="9.68067" height="174.252" fill="#DDEEEC"/>
<rect x="346.689" y="225.072" width="9.68067" height="24.2017" fill="#C4E5E2"/>
<path d="M359.993 216.601H5.43838C-1.81031 216.601 -1.81527 229.912 5.43838 229.912H359.993C366.05 229.912 367.26 216.601 359.993 216.601Z" fill="#DDEEEC"/>
<path d="M89.2123 186.778C96.0047 184.568 102.061 181.529 108.062 177.664C108.177 177.59 108.332 177.65 108.365 177.783C109.04 180.474 114.636 202.386 119.175 206.957C119.185 206.966 119.194 206.973 119.205 206.98C122.854 209.383 134.927 206.973 139.76 209.39C144.182 211.601 145.722 218.649 145.807 219.052C145.809 219.065 145.81 219.077 145.81 219.091C145.797 220.288 144.605 221.473 143.407 220.297C143.396 220.286 143.386 220.274 143.378 220.261L138.397 212.292C138.269 212.087 137.956 212.242 138.04 212.468L140.957 220.247C140.966 220.269 140.97 220.293 140.97 220.317C140.948 221.389 139.987 222.442 138.926 221.793C138.774 221.7 138.533 221.796 138.488 221.968C138.259 222.859 137.419 223.561 136.506 223.003C136.354 222.91 136.094 223.006 136.015 223.165C135.52 224.164 133.552 224.806 132.5 222.701L128.959 215.619C128.909 215.52 128.792 215.479 128.69 215.522C126.008 216.648 116.675 216.595 111.942 214.237C111.933 214.232 111.924 214.228 111.916 214.221C106.866 210.605 97.5679 197.727 89.116 187.092C89.029 186.983 89.0793 186.821 89.2123 186.778Z" fill="#FFD59B"/>
<path d="M136.014 223.168C135.52 224.167 133.552 224.808 132.499 222.703C132.499 222.703 134.251 223.372 134.919 222.703C135.563 222.059 135.522 221.415 135.342 220.953C135.08 220.604 134.919 220.283 134.919 220.283C134.919 220.283 135.184 220.548 135.342 220.953C135.8 221.564 136.57 222.263 137.339 221.493C138.244 220.589 137.796 219.684 137.512 219.285C137.402 219.158 137.339 219.073 137.339 219.073C137.339 219.073 137.416 219.15 137.512 219.285C137.889 219.716 138.824 220.626 139.76 220.283C141.219 219.748 137.339 210.603 137.339 210.603L143.39 220.283L139.378 214.265C139.248 214.071 138.948 214.218 139.022 214.44L140.959 220.252C140.966 220.273 140.97 220.294 140.969 220.316C140.95 221.389 139.988 222.445 138.926 221.795C138.774 221.702 138.532 221.798 138.488 221.971C138.258 222.861 137.419 223.564 136.506 223.005C136.354 222.912 136.093 223.008 136.014 223.168Z" fill="#F3C89C"/>
</svg>
