<svg width="36" height="34" viewBox="0 0 36 34" fill="none" xmlns="http://www.w3.org/2000/svg">
<path d="M16.2119 19.1165C16.9392 18.6621 17.5978 18.1079 18.1686 17.4726L20.2262 18.6609L22.0998 15.4156L20.0463 14.23C20.3074 13.4328 20.461 12.5873 20.4897 11.7109L22.826 11.2989L22.175 7.60869L19.8392 8.02062C19.5164 7.22057 19.0834 6.47664 18.5582 5.80809L20.085 3.98866L17.2145 1.58017L15.6889 3.39806C14.9438 2.99876 14.1369 2.70028 13.2865 2.52117V0.15033H9.53932V2.52117C8.68882 2.70028 7.88189 2.99876 7.13668 3.39806L5.61118 1.58017L2.74066 3.98875L4.26736 5.80817C3.74225 6.47673 3.30918 7.22074 2.98637 8.02071L0.650594 7.60878L0 11.299L2.33586 11.711C2.36465 12.5875 2.51832 13.4328 2.77942 14.2302L0.725708 15.4158L2.59937 18.661L4.65712 17.4731C5.2277 18.1081 5.88637 18.6623 6.61371 19.1167L5.80146 21.3481L9.32274 22.6295L10.1339 20.4012C10.5519 20.4603 10.9788 20.4917 11.4129 20.4917C11.847 20.4917 12.274 20.4605 12.692 20.4012L13.503 22.6297L17.0242 21.3479L16.2119 19.1165ZM11.4127 16.1943C8.77408 16.1943 6.62737 14.0477 6.62737 11.409C6.62737 8.77039 8.77408 6.62361 11.4127 6.62361C14.0514 6.62361 16.1981 8.77039 16.1981 11.409C16.1981 14.0477 14.0514 16.1943 11.4127 16.1943Z" fill="#01A796"/>
<path d="M32.3183 21.9304L30.703 22.4529C30.395 21.9175 30.0142 21.4328 29.5759 21.0108L30.4786 19.5701L28.2056 18.146L27.3034 19.5856C26.7358 19.376 26.1344 19.2441 25.5136 19.2013L25.2794 17.5203L22.6227 17.8907L22.8569 19.5716C22.2717 19.7824 21.7288 20.0741 21.2401 20.4307L19.9791 19.2925L18.1819 21.2836L19.4439 22.4232C19.1377 22.949 18.9044 23.5191 18.7546 24.1185L17.0577 24.0571L16.9607 26.7375L18.6575 26.7991C18.7646 27.4177 18.9571 28.0015 19.2211 28.5412L17.8823 29.5848L19.5311 31.7003L20.8726 30.6549C21.34 31.0487 21.8619 31.3765 22.4222 31.627L22.0666 33.2895L24.6898 33.8499L25.045 32.19C25.3472 32.1908 25.6528 32.1703 25.9605 32.1275C26.2683 32.0847 26.5681 32.0201 26.8583 31.9371L27.6538 33.4369L30.0236 32.1802L29.2273 30.6786C29.6982 30.2845 30.11 29.8263 30.4521 29.3197L32.0282 29.9588L33.036 27.4729L31.463 26.8351C31.5691 26.2442 31.5944 25.6295 31.5287 25.0051L33.1443 24.4822L32.3183 21.9304ZM25.5363 29.0808C23.6652 29.3413 21.9311 28.0315 21.6706 26.1607C21.4096 24.2898 22.7197 22.5554 24.5907 22.295C26.4615 22.0341 28.1952 23.3441 28.4564 25.2152C28.7168 27.0859 27.4071 28.8198 25.5363 29.0808Z" fill="#503895"/>
<path d="M35.937 12.6347L35.9999 10.518L34.6604 10.4782C34.5764 10.0117 34.4264 9.54976 34.2062 9.1056L35.2581 8.27453L33.9457 6.61324L32.8939 7.44397C32.5188 7.13225 32.1038 6.87811 31.6634 6.68629L31.9353 5.37212L29.8621 4.94275L29.5896 6.25605C29.1119 6.25674 28.6308 6.32455 28.1594 6.46335L27.5242 5.2836L25.6597 6.28777L26.2949 7.46769C25.9199 7.78448 25.5982 8.14957 25.3344 8.54766L24.0886 8.05176L23.3055 10.0193L24.5524 10.5159C24.4703 10.9893 24.4543 11.4749 24.5082 11.9597L23.2355 12.3807L23.9 14.3913L25.1727 13.9705C25.422 14.399 25.725 14.7781 26.0688 15.1051L25.3648 16.2454L27.1665 17.358L27.872 16.2156C28.3262 16.3786 28.8026 16.4779 29.286 16.509L29.4795 17.8371L31.5751 17.5311L31.3821 16.2046C31.6057 16.1224 31.8264 16.0234 32.0425 15.907C32.2587 15.7908 32.4628 15.6606 32.6546 15.5194L33.6557 16.4107L35.0641 14.8295L34.0623 13.9372C34.3025 13.5161 34.4813 13.0637 34.5954 12.5948L35.937 12.6347ZM30.8913 13.7689C29.5779 14.476 27.9344 13.9831 27.2277 12.6703C26.5204 11.3573 27.0134 9.71348 28.3267 9.00677C29.6393 8.29954 31.2827 8.79277 31.99 10.1057C32.6967 11.4188 32.204 13.0618 30.8913 13.7689Z" fill="#503895"/>
</svg>
