<svg width="14" height="24" viewBox="0 0 14 24" fill="none" xmlns="http://www.w3.org/2000/svg">
<path d="M13.0713 13.4405C13.3455 13.1594 13.4997 12.778 13.5 12.3801V11.6199C13.4955 11.2229 13.3419 10.843 13.0713 10.5595L3.05527 0.295902C2.87233 0.106523 2.6233 0 2.36351 0C2.10372 0 1.85468 0.106523 1.67174 0.295902L0.288202 1.7164C0.104905 1.90079 0.00161362 2.15317 0.00161362 2.41664C0.00161362 2.68012 0.104905 2.9325 0.288202 3.11689L8.95966 12L0.288202 20.8831C0.103751 21.0709 0 21.3266 0 21.5934C0 21.8601 0.103751 22.1158 0.288202 22.3036L1.67174 23.7041C1.85468 23.8935 2.10372 24 2.36351 24C2.6233 24 2.87233 23.8935 3.05527 23.7041L13.0713 13.4405Z" fill="#01A796"/>
</svg>
