<svg width="12" height="12" viewBox="0 0 12 12" fill="none" xmlns="http://www.w3.org/2000/svg">
<g clipPath="url(#clip0_2_5008)">
<path d="M8.83594 5.67188C7.09122 5.67188 5.67188 7.09122 5.67188 8.83594C5.67188 10.5807 7.09122 12 8.83594 12C10.5807 12 12 10.5807 12 8.83594C12 7.09122 10.5807 5.67188 8.83594 5.67188ZM10.2422 9.1875H8.83594C8.64166 9.1875 8.48438 9.03021 8.48438 8.83594V7.42969C8.48438 7.23541 8.64166 7.07812 8.83594 7.07812C9.03021 7.07812 9.1875 7.23541 9.1875 7.42969V8.48438H10.2422C10.4365 8.48438 10.5938 8.64166 10.5938 8.83594C10.5938 9.03021 10.4365 9.1875 10.2422 9.1875Z" fill="#9688BF"/>
<path d="M11.2734 1.07812C11.2734 0.881195 11.1188 0.726562 10.9219 0.726562H9.16406V1.78125C9.16406 1.97809 9.00943 2.13281 8.8125 2.13281C8.61557 2.13281 8.46094 1.97809 8.46094 1.78125V0.726562H7.05469V1.78125C7.05469 1.97809 6.90005 2.13281 6.70312 2.13281C6.5062 2.13281 6.35156 1.97809 6.35156 1.78125V0.726562H4.94531V1.78125C4.94531 1.97809 4.79068 2.13281 4.59375 2.13281C4.39682 2.13281 4.24219 1.97809 4.24219 1.78125V0.726562H2.83594V1.78125C2.83594 1.97809 2.6813 2.13281 2.48438 2.13281C2.28745 2.13281 2.13281 1.97809 2.13281 1.78125V0.726562H0.351562C0.154633 0.726562 0 0.881195 0 1.07812V2.83594H11.2734V1.07812Z" fill="#9688BF"/>
<path d="M5.29688 7.05469H5.38129C5.50964 6.8053 5.65448 6.56589 5.83173 6.35156H5.29688C5.1026 6.35156 4.94531 6.19427 4.94531 6C4.94531 5.80573 5.1026 5.64844 5.29688 5.64844H6C6.14401 5.64844 6.26697 5.73532 6.32135 5.85919C6.9949 5.29019 7.86374 4.94531 8.8125 4.94531H8.10938C7.9151 4.94531 7.75781 4.78802 7.75781 4.59375C7.75781 4.39948 7.9151 4.24219 8.10938 4.24219H8.8125C9.00677 4.24219 9.16406 4.39948 9.16406 4.59375C9.16406 4.78802 9.00677 4.94531 8.8125 4.94531C9.74661 4.94531 10.6044 5.27838 11.2734 5.83173V3.53906H0V10.2188C0 10.413 0.157288 10.5703 0.351562 10.5703H5.37222C5.10132 10.0422 4.94531 9.44568 4.94531 8.8125C4.94531 8.42551 5.01471 8.05673 5.121 7.70398C5.01782 7.64273 4.94531 7.53506 4.94531 7.40625C4.94531 7.21198 5.1026 7.05469 5.29688 7.05469ZM5.29688 4.24219H6C6.19427 4.24219 6.35156 4.39948 6.35156 4.59375C6.35156 4.78802 6.19427 4.94531 6 4.94531H5.29688C5.1026 4.94531 4.94531 4.78802 4.94531 4.59375C4.94531 4.39948 5.1026 4.24219 5.29688 4.24219ZM3.1875 9.16406H2.48438C2.2901 9.16406 2.13281 9.00677 2.13281 8.8125C2.13281 8.61823 2.2901 8.46094 2.48438 8.46094H3.1875C3.38177 8.46094 3.53906 8.61823 3.53906 8.8125C3.53906 9.00677 3.38177 9.16406 3.1875 9.16406ZM3.1875 7.75781H2.48438C2.2901 7.75781 2.13281 7.60052 2.13281 7.40625C2.13281 7.21198 2.2901 7.05469 2.48438 7.05469H3.1875C3.38177 7.05469 3.53906 7.21198 3.53906 7.40625C3.53906 7.60052 3.38177 7.75781 3.1875 7.75781ZM3.1875 6.35156H2.48438C2.2901 6.35156 2.13281 6.19427 2.13281 6C2.13281 5.80573 2.2901 5.64844 2.48438 5.64844H3.1875C3.38177 5.64844 3.53906 5.80573 3.53906 6C3.53906 6.19427 3.38177 6.35156 3.1875 6.35156ZM3.1875 4.94531H2.48438C2.2901 4.94531 2.13281 4.78802 2.13281 4.59375C2.13281 4.39948 2.2901 4.24219 2.48438 4.24219H3.1875C3.38177 4.24219 3.53906 4.39948 3.53906 4.59375C3.53906 4.78802 3.38177 4.94531 3.1875 4.94531Z" fill="#9688BF"/>
<path d="M2.83594 0.351562C2.83594 0.154633 2.6813 0 2.48438 0C2.28745 0 2.13281 0.154633 2.13281 0.351562V0.726562H2.83594V0.351562Z" fill="#9688BF"/>
<path d="M4.94531 0.351562C4.94531 0.154633 4.79068 0 4.59375 0C4.39682 0 4.24219 0.154633 4.24219 0.351562V0.726562H4.94531V0.351562Z" fill="#9688BF"/>
<path d="M7.05469 0.351562C7.05469 0.154633 6.90005 0 6.70312 0C6.5062 0 6.35156 0.154633 6.35156 0.351562V0.726562H7.05469V0.351562Z" fill="#9688BF"/>
<path d="M9.16406 0.351562C9.16406 0.154633 9.00943 0 8.8125 0C8.61557 0 8.46094 0.154633 8.46094 0.351562V0.726562H9.16406V0.351562Z" fill="#9688BF"/>
</g>
<defs>
<clipPath id="clip0_2_5008">
<rect width="12" height="12" fill="white"/>
</clipPath>
</defs>
</svg>
