<svg width="7" height="12" viewBox="0 0 7 12" fill="none" xmlns="http://www.w3.org/2000/svg">
<path d="M0.19006 6.46824L5.49242 11.8083C5.61505 11.9319 5.77876 12 5.95332 12C6.12788 12 6.29159 11.9319 6.41423 11.8083L6.80471 11.4151C7.0588 11.1589 7.0588 10.7425 6.80471 10.4867L2.35219 6.00249L6.80965 1.51326C6.93229 1.38965 7 1.22487 7 1.04916C7 0.873261 6.93229 0.708482 6.80965 0.584775L6.41917 0.191706C6.29644 0.0680971 6.13282 0 5.95826 0C5.7837 0 5.61999 0.0680971 5.49736 0.191706L0.19006 5.53664C0.067132 5.66064 -0.000385761 5.8262 1.43051e-06 6.00219C-0.000385761 6.17888 0.067132 6.34434 0.19006 6.46824Z" fill="#382768"/>
</svg>
