<svg width="20" height="20" viewBox="0 0 20 20" fill="none" xmlns="http://www.w3.org/2000/svg">
<path d="M19.975 0.608117C19.8728 0.180289 19.4027 -0.110818 18.9764 0.0404965C18.9764 0.0404965 0.510744 6.55776 0.507672 6.56006C0.224246 6.66529 0.0160929 6.93566 0.000731038 7.2452C-0.0130946 7.54245 0.170479 7.85199 0.441616 7.97796L7.59409 11.3169C7.59409 11.3169 11.0789 7.83202 11.0851 7.82588C11.7764 7.1346 12.8801 8.20378 12.1712 8.91196L8.68017 12.4029C8.68017 12.4029 12.0145 19.5477 12.0206 19.5593C12.1566 19.8204 12.4223 19.9863 12.7142 19.9994C13.0314 20.014 13.3248 19.7713 13.4385 19.4871C13.4385 19.4871 19.9519 1.0321 19.9558 1.02058C20.0042 0.887702 20.0072 0.744069 19.975 0.608117Z" fill="white"/>
</svg>
