<svg width="16" height="16" viewBox="0 0 16 16" fill="none" xmlns="http://www.w3.org/2000/svg">
<rect width="16" height="16" rx="8" fill="#01A796"/>
<path d="M8.00176 6.7998C7.34016 6.7998 6.80176 7.3382 6.80176 7.9998C6.80176 8.6614 7.34016 9.1998 8.00176 9.1998C8.66336 9.1998 9.20176 8.6614 9.20176 7.9998C9.20176 7.3382 8.66336 6.7998 8.00176 6.7998Z" fill="white"/>
<path d="M4.00176 6.7998C3.34016 6.7998 2.80176 7.3382 2.80176 7.9998C2.80176 8.6614 3.34016 9.1998 4.00176 9.1998C4.66336 9.1998 5.20176 8.6614 5.20176 7.9998C5.20176 7.3382 4.66336 6.7998 4.00176 6.7998Z" fill="white"/>
<path d="M12.0018 6.7998C11.3402 6.7998 10.8018 7.3382 10.8018 7.9998C10.8018 8.6614 11.3402 9.1998 12.0018 9.1998C12.6634 9.1998 13.2018 8.6614 13.2018 7.9998C13.2018 7.3382 12.6634 6.7998 12.0018 6.7998Z" fill="white"/>
</svg>
