<svg width="12" height="12" viewBox="0 0 12 12" fill="none" xmlns="http://www.w3.org/2000/svg">
<path d="M12 11.25C12 11.6642 11.6642 12 11.25 12H0.75C0.335789 12 0 11.6642 0 11.25C0 10.8358 0.335789 10.5 0.75 10.5H11.25C11.6642 10.5 12 10.8358 12 11.25ZM3.34273 4.15729C3.53466 4.15729 3.72661 4.08407 3.87305 3.93761L5.25 2.56066V8.34377C5.25 8.75798 5.58579 9.09377 6 9.09377C6.41421 9.09377 6.75 8.75798 6.75 8.34377V2.56066L8.12696 3.93761C8.41986 4.23051 8.89472 4.23051 9.18762 3.93761C9.48052 3.64471 9.48052 3.16985 9.18762 2.87695L6.53032 0.219674C6.23743 -0.0732247 5.76256 -0.0732247 5.46966 0.219674L2.81238 2.87695C2.51949 3.16985 2.51949 3.64471 2.81238 3.93761C2.95885 4.08407 3.15077 4.15729 3.34273 4.15729Z" fill="#01A796"/>
</svg>
