<svg width="1440" height="600" viewBox="0 0 1440 600" fill="none" xmlns="http://www.w3.org/2000/svg">
<g clipPath="url(#clip0_1_8863)">
<path d="M0 600H1440V1.3411e-05H0V600Z" fill="white"/>
<path fillRule="evenodd" clipRule="evenodd" d="M250 599C388.071 599 500 487.071 500 349C500 210.929 388.071 99 250 99C111.929 99 0 210.929 0 349C0 487.071 111.929 599 250 599ZM250 499C332.843 499 400 431.843 400 349C400 266.157 332.843 199 250 199C167.157 199 100 266.157 100 349C100 431.843 167.157 499 250 499Z" fill="#F2F8F8"/>
<path d="M571 18.4097C417.856 -22.5123 259 -143 259 -143H1439.5V751.5C1439.5 751.5 1434.5 654.966 1257.5 595C1080.5 535.034 983.351 576.357 922.5 480.5C836.801 345.5 1025.71 171.331 922.5 84C818.5 -4 736 62.5 571 18.4097Z" fill="#F2F8F8"/>
</g>
<defs>
<clipPath id="clip0_1_8863">
<rect width="1440" height="600" fill="white"/>
</clipPath>
</defs>
</svg>
