<svg width="21" height="24" viewBox="0 0 21 24" fill="none" xmlns="http://www.w3.org/2000/svg">
<path d="M10.8298 11.5609C12.4181 11.5609 13.7934 10.9912 14.9171 9.86733C16.0408 8.74362 16.6104 7.36868 16.6104 5.78025C16.6104 4.19237 16.0408 2.81725 14.9169 1.69317C13.793 0.569639 12.4179 0 10.8298 0C9.24138 0 7.86644 0.569639 6.74273 1.69335C5.61902 2.81707 5.04919 4.19218 5.04919 5.78025C5.04919 7.36868 5.61902 8.7438 6.74291 9.86751C7.86681 10.991 9.24193 11.5609 10.8298 11.5609Z" fill="#503895"/>
<path d="M20.9435 18.4546C20.9111 17.987 20.8455 17.4768 20.749 16.9381C20.6516 16.3954 20.5262 15.8824 20.376 15.4134C20.2209 14.9288 20.01 14.4501 19.7493 13.9914C19.4786 13.5154 19.1608 13.1008 18.8041 12.7597C18.4311 12.4028 17.9744 12.1159 17.4463 11.9066C16.9201 11.6984 16.3369 11.593 15.7131 11.593C15.4681 11.593 15.2311 11.6935 14.7736 11.9914C14.492 12.175 14.1625 12.3874 13.7949 12.6224C13.4805 12.8227 13.0546 13.0104 12.5285 13.1803C12.0153 13.3464 11.4942 13.4306 10.9798 13.4306C10.4655 13.4306 9.94454 13.3464 9.43075 13.1803C8.90524 13.0106 8.47934 12.8229 8.16532 12.6226C7.80112 12.3898 7.47153 12.1774 7.18571 11.9912C6.72868 11.6933 6.49156 11.5928 6.24656 11.5928C5.62254 11.5928 5.03954 11.6984 4.51347 11.9068C3.98577 12.1157 3.52892 12.4026 3.15557 12.7599C2.79907 13.1012 2.48101 13.5156 2.21075 13.9914C1.95019 14.4501 1.73925 14.9286 1.58398 15.4136C1.43402 15.8826 1.30859 16.3954 1.21118 16.9381C1.11468 17.4761 1.04913 17.9864 1.01672 18.4552C0.984863 18.9144 0.96875 19.391 0.96875 19.8724C0.96875 21.1252 1.367 22.1394 2.15234 22.8874C2.92797 23.6255 3.95427 24 5.20231 24H16.7584C18.0065 24 19.0324 23.6257 19.8082 22.8874C20.5937 22.14 20.992 21.1256 20.992 19.8722C20.9918 19.3886 20.9755 18.9117 20.9435 18.4546Z" fill="#503895"/>
</svg>
