<svg width="279" height="255" viewBox="0 0 279 255" fill="none" xmlns="http://www.w3.org/2000/svg">
<path d="M241.388 190.759C278.319 120.146 236.563 104.338 199.326 64.1295C168.669 31.0269 163.57 -1.35573 96.7741 4.56145C55.7759 8.1933 53.1291 45.7095 39.1289 84.5671C25.0292 123.701 -5.98184 158.796 20.5615 190.759C45.7113 221.044 78.1695 219.023 117.22 214.823C150.225 211.272 197.742 274.209 241.388 190.759Z" stroke="#01A796" stroke-opacity="0.2" stroke-width="6"/>
<path fillRule="evenodd" clipRule="evenodd" d="M83.9696 254.265C64.9206 254.265 49.4783 238.823 49.4783 219.774C49.4783 200.725 64.9206 185.282 83.9696 185.282C103.019 185.282 118.461 200.725 118.461 219.774C118.461 238.823 103.019 254.265 83.9696 254.265ZM83.9707 240.468C72.5413 240.468 63.276 231.203 63.276 219.774C63.276 208.344 72.5413 199.079 83.9707 199.079C95.4002 199.079 104.666 208.344 104.666 219.774C104.666 231.203 95.4002 240.468 83.9707 240.468Z" fill="#01A796" fill-opacity="0.1"/>
<path fillRule="evenodd" clipRule="evenodd" d="M264.703 119.748C257.084 119.748 250.907 113.571 250.907 105.952C250.907 98.3322 257.084 92.1553 264.703 92.1553C272.323 92.1553 278.5 98.3322 278.5 105.952C278.5 113.571 272.323 119.748 264.703 119.748ZM264.704 114.23C260.132 114.23 256.426 110.524 256.426 105.952C256.426 101.38 260.132 97.6741 264.704 97.6741C269.276 97.6741 272.982 101.38 272.982 105.952C272.982 110.524 269.276 114.23 264.704 114.23Z" fill="#01A796" fill-opacity="0.1"/>
<path d="M41.8896 36.9693C41.8896 48.3988 32.6243 57.6641 21.1948 57.6641C9.76528 57.6641 0.5 48.3988 0.5 36.9693C0.5 25.5397 9.76528 16.2745 21.1948 16.2745C32.6243 16.2745 41.8896 25.5397 41.8896 36.9693Z" fill="#01A796" fill-opacity="0.1"/>
<path d="M188.259 33.52C209.292 33.5214 231.776 46.1283 243.545 67.4036C267.52 110.743 193.268 220.37 126.289 223.82C63.9414 227.031 -21.924 145.81 22.3584 78.4371C46.8076 41.2391 81.9815 46.1294 129.408 40.2196C153.651 37.1987 150.993 33.5177 188.259 33.52Z" fill="#F2F8F8"/>
<path d="M180.214 136.143H68.7857C66.419 136.143 64.5 138.062 64.5 140.429C64.5 142.795 66.419 144.714 68.7857 144.714H180.214C182.583 144.714 184.5 142.795 184.5 140.429C184.5 138.062 182.583 136.143 180.214 136.143Z" fill="#80798B"/>
<path d="M124.5 149C112.684 149 103.071 158.613 103.071 170.429C103.071 182.244 112.684 191.857 124.5 191.857C136.315 191.857 145.928 182.244 145.928 170.429C145.928 158.613 136.315 149 124.5 149ZM134.587 163.373L126.015 171.944C125.613 172.346 125.069 172.571 124.5 172.571H115.929C114.744 172.571 113.786 171.613 113.786 170.429C113.786 169.244 114.744 168.286 115.929 168.286H123.613L131.557 160.342C132.394 159.505 133.751 159.505 134.588 160.342C135.424 161.179 135.424 162.535 134.587 163.372L134.587 163.373Z" fill="#382768"/>
<path d="M92.5216 130.99C93.0382 131.544 93.7538 131.857 94.5009 131.857C95.248 131.857 95.9636 131.544 96.4792 130.99L119.753 105.994C126.083 99.1928 126.083 88.1256 119.751 81.3251C116.641 77.9844 112.495 76.144 108.076 76.144C103.658 76.144 99.5126 77.9846 96.4026 81.3251C95.6928 82.0866 95.0566 82.9093 94.5008 83.7846C93.945 82.9102 93.3089 82.0885 92.6 81.3251C89.4891 77.9844 85.3439 76.144 80.9253 76.144C76.5066 76.144 72.3605 77.9846 69.2486 81.3251C62.9184 88.1259 62.9184 99.193 69.2486 105.994L92.5216 130.99Z" fill="#EB7B7B"/>
<path d="M92.5216 130.99C93.0382 131.544 93.7538 131.857 94.5009 131.857C95.248 131.857 95.9636 131.544 96.4792 130.99L119.753 105.994C126.083 99.1928 126.083 88.1256 119.751 81.3251C116.641 77.9844 112.495 76.144 108.076 76.144C103.658 76.144 99.5126 77.9846 96.4026 81.3251C95.6928 82.0866 95.0566 82.9093 94.5008 83.7846C93.945 82.9102 93.3089 82.0885 92.6 81.3251C89.4891 77.9844 85.3439 76.144 80.9253 76.144C76.5066 76.144 72.3605 77.9846 69.2486 81.3251C62.9184 88.1259 62.9184 99.193 69.2486 105.994L92.5216 130.99Z" fill="#EB7B7B"/>
<path d="M171.643 106.143H154.5V110.428H145.929V106.143H128.786C128.455 106.143 128.125 106.064 127.827 105.917L125.771 104.89C124.961 106.313 124.034 107.681 122.888 108.912L115.929 116.387V127.571C115.929 129.939 117.846 131.856 120.214 131.856H180.214C182.583 131.856 184.5 129.939 184.5 127.571V99.9683L172.601 105.918C172.304 106.064 171.974 106.143 171.643 106.143L171.643 106.143Z" fill="#01A796"/>
<path d="M180.214 84.7145H167.357V76.1431C167.357 73.7745 165.44 71.8574 163.071 71.8574H137.357C134.988 71.8574 133.071 73.7745 133.071 76.1431V84.7145H126.892C129.073 89.8544 129.283 95.6908 127.516 100.971L129.292 101.858H145.929V97.5716H154.5V101.858H171.137L184.5 95.1763V89.0002C184.5 86.6316 182.583 84.7145 180.214 84.7145H180.214ZM158.786 84.7145H141.643V80.4288H158.786V84.7145Z" fill="#01A796"/>
</svg>
