<svg width="279" height="254" viewBox="0 0 279 254" fill="none" xmlns="http://www.w3.org/2000/svg">
<path d="M37.6112 189.981C0.680073 119.369 42.4357 103.56 79.6731 63.3516C110.33 30.249 115.429 -2.13357 182.225 3.78362C223.223 7.41547 225.87 44.9317 239.87 83.7893C253.97 122.923 284.981 158.018 258.437 189.981C233.288 220.266 200.83 218.246 161.779 214.045C128.774 210.495 81.2569 273.432 37.6112 189.981Z" stroke="#01A796" stroke-opacity="0.2" stroke-width="6"/>
<path fillRule="evenodd" clipRule="evenodd" d="M195.031 253.487C214.08 253.487 229.523 238.044 229.523 218.995C229.523 199.946 214.08 184.504 195.031 184.504C175.982 184.504 160.54 199.946 160.54 218.995C160.54 238.044 175.982 253.487 195.031 253.487ZM195.031 239.69C206.461 239.69 215.726 230.425 215.726 218.995C215.726 207.566 206.461 198.3 195.031 198.3C183.602 198.3 174.336 207.566 174.336 218.995C174.336 230.425 183.602 239.69 195.031 239.69Z" fill="#01A796" fill-opacity="0.1"/>
<path fillRule="evenodd" clipRule="evenodd" d="M14.2965 118.97C21.9161 118.97 28.0931 112.794 28.0931 105.174C28.0931 97.5544 21.9161 91.3774 14.2965 91.3774C6.67692 91.3774 0.5 97.5544 0.5 105.174C0.5 112.794 6.67692 118.97 14.2965 118.97ZM14.2965 113.452C18.8683 113.452 22.5744 109.746 22.5744 105.174C22.5744 100.602 18.8683 96.896 14.2965 96.896C9.72476 96.896 6.01861 100.602 6.01861 105.174C6.01861 109.746 9.72476 113.452 14.2965 113.452Z" fill="#01A796" fill-opacity="0.1"/>
<path d="M237.11 36.1914C237.11 47.6209 246.376 56.8862 257.805 56.8862C269.235 56.8862 278.5 47.6209 278.5 36.1914C278.5 24.7619 269.235 15.4966 257.805 15.4966C246.376 15.4966 237.11 24.7619 237.11 36.1914Z" fill="#01A796" fill-opacity="0.1"/>
<path d="M90.7414 32.7422C69.7079 32.7435 47.224 45.3504 35.4548 66.6258C11.4801 109.965 85.7324 219.592 152.711 223.042C215.059 226.254 300.924 145.033 256.642 77.6593C232.192 40.4613 197.019 45.3516 149.592 39.4418C125.349 36.4209 128.007 32.7398 90.7414 32.7422Z" fill="#F2F8F8"/>
<path d="M210.999 99.4093V109.838C210.999 114.618 207.076 118.529 202.282 118.529C197.489 118.529 193.566 114.618 193.566 109.838V102.234C193.566 102.146 193.522 102.06 193.522 101.973C193.479 80.8983 176.656 63.6898 155.956 63.6898C135.734 63.6898 119.218 80.072 118.476 100.538V111.574C118.476 117.353 123.182 122.003 128.936 122.003C130.853 122.003 132.422 123.568 132.422 125.479C132.422 127.391 130.853 128.955 128.936 128.955C121.571 128.955 115.295 124.393 112.723 117.962C111.764 118.31 110.762 118.527 109.716 118.527C104.922 118.527 101 114.616 101 109.836V99.4078C101 94.628 104.922 90.7172 109.716 90.7172C110.152 90.7172 110.588 90.8045 111.024 90.8472C115.993 70.2953 134.209 55 155.957 55C177.704 55 195.922 70.2958 200.845 90.8497C201.325 90.7624 201.76 90.7197 202.283 90.7197C207.078 90.6761 211 94.5867 211 99.4102L210.999 99.4093ZM208.078 162.806V173.19C208.078 175.102 206.509 176.667 204.592 176.667H107.277C105.359 176.667 103.79 175.102 103.79 173.19V162.806C103.79 149.9 114.294 139.385 127.28 139.385H137.348C139.657 139.385 141.836 140.515 143.143 142.426L149.986 152.508C152.731 156.549 158.702 156.592 161.491 152.595L168.638 142.384C169.946 140.516 172.081 139.43 174.348 139.43H184.589C197.576 139.385 208.078 149.856 208.078 162.806ZM127.147 101.972C127.147 86.1116 140.047 73.2484 155.955 73.2484C171.863 73.2484 184.764 86.1106 184.764 101.972C184.764 117.833 171.863 130.695 155.955 130.695C140.047 130.695 127.147 117.833 127.147 101.972Z" fill="#01A796"/>
<circle cx="157" cy="102" r="30" fill="#382768"/>
</svg>
