<svg width="279" height="255" viewBox="0 0 279 255" fill="none" xmlns="http://www.w3.org/2000/svg">
<path d="M241.388 190.573C278.319 119.961 236.563 104.152 199.326 63.9439C168.669 30.8413 163.57 -1.54128 96.7741 4.3759C55.7759 8.00775 53.1291 45.524 39.1289 84.3816C25.0292 123.515 -5.98184 158.61 20.5615 190.573C45.7113 220.858 78.1695 218.838 117.22 214.637C150.225 211.087 197.742 274.024 241.388 190.573Z" stroke="#01A796" stroke-opacity="0.2" stroke-width="6"/>
<path fillRule="evenodd" clipRule="evenodd" d="M83.9696 254.079C64.9206 254.079 49.4783 238.637 49.4783 219.588C49.4783 200.539 64.9206 185.097 83.9696 185.097C103.019 185.097 118.461 200.539 118.461 219.588C118.461 238.637 103.019 254.079 83.9696 254.079ZM83.9707 240.283C72.5413 240.283 63.276 231.017 63.276 219.588C63.276 208.159 72.5413 198.893 83.9707 198.893C95.4002 198.893 104.666 208.159 104.666 219.588C104.666 231.017 95.4002 240.283 83.9707 240.283Z" fill="#01A796" fill-opacity="0.1"/>
<path fillRule="evenodd" clipRule="evenodd" d="M264.703 119.563C257.084 119.563 250.907 113.386 250.907 105.766C250.907 98.1466 257.084 91.9697 264.703 91.9697C272.323 91.9697 278.5 98.1466 278.5 105.766C278.5 113.386 272.323 119.563 264.703 119.563ZM264.704 114.044C260.132 114.044 256.426 110.338 256.426 105.766C256.426 101.195 260.132 97.4885 264.704 97.4885C269.276 97.4885 272.982 101.195 272.982 105.766C272.982 110.338 269.276 114.044 264.704 114.044Z" fill="#01A796" fill-opacity="0.1"/>
<path d="M41.8896 36.7837C41.8896 48.2132 32.6243 57.4785 21.1948 57.4785C9.76528 57.4785 0.5 48.2132 0.5 36.7837C0.5 25.3542 9.76528 16.0889 21.1948 16.0889C32.6243 16.0889 41.8896 25.3542 41.8896 36.7837Z" fill="#01A796" fill-opacity="0.1"/>
<path d="M188.259 33.3345C209.292 33.3358 231.776 45.9427 243.545 67.2181C267.52 110.558 193.268 220.184 126.289 223.634C63.9414 226.846 -21.924 145.625 22.3584 78.2516C46.8076 41.0536 81.9815 45.9439 129.408 40.0341C153.651 37.0132 150.993 33.3321 188.259 33.3345Z" fill="#F2F8F8"/>
<path fillRule="evenodd" clipRule="evenodd" d="M172.399 136.838C171.264 141.288 169.206 145.368 166.446 148.855C165.715 149.781 165.862 151.129 166.778 151.869C167.69 152.608 169.028 152.459 169.756 151.534C172.888 147.579 175.218 142.953 176.507 137.905C176.798 136.762 176.115 135.593 174.98 135.295C173.849 135.001 172.692 135.691 172.398 136.838L172.399 136.838Z" fill="#382768"/>
<path fillRule="evenodd" clipRule="evenodd" d="M143.732 99.1494C143.725 100.311 142.78 101.25 141.616 101.25C126.439 101.25 114.117 113.554 114.117 128.711C114.117 143.867 126.439 156.172 141.616 156.172C142.784 156.172 143.732 157.119 143.732 158.285V183.634C143.732 184.799 142.784 185.746 141.616 185.746C138.629 185.746 135.64 185.511 132.681 185.044C131.852 184.911 131.177 184.303 130.965 183.489L128.971 175.844C124.844 174.739 120.881 173.1 117.184 170.969L110.36 174.965C109.635 175.39 108.724 175.345 108.045 174.851C103.197 171.334 98.9325 167.076 95.4099 162.233C94.9151 161.555 94.8707 160.647 95.2957 159.922L99.2979 153.107C97.1618 149.414 95.5195 145.457 94.4157 141.337L86.7598 139.345C85.9458 139.134 85.3358 138.46 85.2026 137.632C84.2658 131.719 84.2658 125.699 85.2026 119.786C85.3358 118.958 85.9449 118.284 86.7598 118.072L94.4157 116.081C95.5225 111.96 97.1637 108.003 99.2979 104.311L95.2957 97.496C94.8707 96.7718 94.9151 95.8627 95.4099 95.1846C98.9323 90.343 103.196 86.0844 108.045 82.5667C108.724 82.0725 109.634 82.0282 110.36 82.4526L117.184 86.4492C120.882 84.3161 124.845 82.6761 128.971 81.5738L130.965 73.9286C131.177 73.1157 131.852 72.5065 132.681 72.3735C135.64 71.9067 138.629 71.6719 141.616 71.6719C142.784 71.6719 143.732 72.6187 143.732 73.7843V99.1494ZM147.962 76.2789C174.164 79.4118 194.5 101.707 194.5 128.71C194.5 155.713 174.163 178.01 147.962 181.141V168.346C167.134 165.304 181.808 148.705 181.808 128.71C181.808 108.714 167.134 92.1135 147.962 89.0741V76.2789Z" fill="#01A796"/>
<path fillRule="evenodd" clipRule="evenodd" d="M142.113 118.431C149.894 113.429 161.905 106.205 161.905 106.205C162.75 105.698 163.84 105.821 164.54 106.506C165.242 107.188 165.368 108.253 164.848 109.078C164.848 109.078 157.448 120.803 152.323 128.398C152.33 128.553 152.334 128.708 152.334 128.862C152.334 134.624 147.542 139.301 141.639 139.301C135.736 139.301 130.944 134.624 130.944 128.862C130.944 123.099 135.736 118.422 141.639 118.422C141.798 118.422 141.956 118.426 142.114 118.432L142.113 118.431Z" fill="#382768"/>
<path fillRule="evenodd" clipRule="evenodd" d="M178.203 129.116C178.203 129.656 177.946 130.175 177.487 130.557C177.029 130.939 176.407 131.153 175.759 131.153C174.409 131.153 173.314 130.241 173.314 129.116C173.314 127.991 174.409 127.079 175.759 127.079C176.407 127.079 177.029 127.294 177.487 127.676C177.946 128.058 178.203 128.576 178.203 129.116Z" fill="#382768"/>
<path d="M148 89.0233V76C213.091 89.0233 205.457 172.047 148 181V168.128C198.626 155.36 186.171 92.686 148 89.0233Z" fill="#EB7B7B"/>
<path d="M148 89.0233V76C213.091 89.0233 205.457 172.047 148 181V168.128C198.626 155.36 186.171 92.686 148 89.0233Z" fill="#EB7B7B"/>
<path d="M148 89.0233V76C213.091 89.0233 205.457 172.047 148 181V168.128C198.626 155.36 186.171 92.686 148 89.0233Z" stroke="#EB7B7B"/>
<path d="M148 89.0233V76C213.091 89.0233 205.457 172.047 148 181V168.128C198.626 155.36 186.171 92.686 148 89.0233Z" stroke="#EB7B7B"/>
</svg>
