<svg width="279" height="254" viewBox="0 0 279 254" fill="none" xmlns="http://www.w3.org/2000/svg">
<path d="M37.6112 190.166C0.680073 119.554 42.4357 103.745 79.6731 63.5367C110.33 30.4341 115.429 -1.94851 182.225 3.96868C223.223 7.60052 225.87 45.1167 239.87 83.9743C253.97 123.108 284.981 158.203 258.437 190.166C233.288 220.451 200.83 218.431 161.779 214.23C128.774 210.68 81.2569 273.617 37.6112 190.166Z" stroke="#01A796" stroke-opacity="0.2" stroke-width="6"/>
<path fillRule="evenodd" clipRule="evenodd" d="M195.031 253.672C214.08 253.672 229.523 238.229 229.523 219.18C229.523 200.131 214.08 184.689 195.031 184.689C175.982 184.689 160.54 200.131 160.54 219.18C160.54 238.229 175.982 253.672 195.031 253.672ZM195.031 239.875C206.461 239.875 215.726 230.61 215.726 219.18C215.726 207.751 206.461 198.485 195.031 198.485C183.602 198.485 174.336 207.751 174.336 219.18C174.336 230.61 183.602 239.875 195.031 239.875Z" fill="#01A796" fill-opacity="0.1"/>
<path fillRule="evenodd" clipRule="evenodd" d="M14.2965 119.156C21.9161 119.156 28.0931 112.979 28.0931 105.359C28.0931 97.7394 21.9161 91.5625 14.2965 91.5625C6.67692 91.5625 0.5 97.7394 0.5 105.359C0.5 112.979 6.67692 119.156 14.2965 119.156ZM14.2965 113.637C18.8683 113.637 22.5744 109.931 22.5744 105.359C22.5744 100.787 18.8683 97.0811 14.2965 97.0811C9.72476 97.0811 6.01861 100.787 6.01861 105.359C6.01861 109.931 9.72476 113.637 14.2965 113.637Z" fill="#01A796" fill-opacity="0.1"/>
<path d="M237.11 36.3765C237.11 47.806 246.376 57.0713 257.805 57.0713C269.235 57.0713 278.5 47.806 278.5 36.3765C278.5 24.947 269.235 15.6817 257.805 15.6817C246.376 15.6817 237.11 24.947 237.11 36.3765Z" fill="#01A796" fill-opacity="0.1"/>
<path d="M90.7414 32.9272C69.7079 32.9286 47.224 45.5355 35.4548 66.8108C11.4801 110.15 85.7324 219.777 152.711 223.227C215.059 226.439 300.924 145.218 256.642 77.8444C232.192 40.6463 197.019 45.5367 149.592 39.6268C125.349 36.6059 128.007 32.9249 90.7414 32.9272Z" fill="#F2F8F8"/>
<path d="M141.806 105.612C154.295 105.612 164.612 95.2952 164.612 82.806C164.612 70.1359 154.476 60 141.806 60C129.136 60 119 70.3168 119 82.806C119 95.2943 129.317 105.612 141.806 105.612Z" fill="#EB7B7B"/>
<path d="M141.806 105.612C154.295 105.612 164.612 95.2952 164.612 82.806C164.612 70.1359 154.476 60 141.806 60C129.136 60 119 70.3168 119 82.806C119 95.2943 129.317 105.612 141.806 105.612Z" fill="#EB7B7B"/>
<path d="M143.497 79.2135V71.9739C144.763 72.5172 145.487 73.4221 145.669 74.8695L150.375 74.3261C149.832 70.7063 147.48 68.3532 143.498 67.8099V66H140.783V67.8099C132.276 68.7148 130.285 80.48 140.783 83.5563V91.339C139.516 90.7957 138.249 89.1666 137.887 87.1759L133 87.7192C133.724 92.7872 136.62 95.3212 140.783 95.8645V99.3035H143.498L143.497 95.6845C151.46 94.5987 152.909 86.0917 149.651 82.2904C148.384 81.023 146.393 79.9373 143.497 79.2131L143.497 79.2135ZM140.782 78.3085C137.162 76.8603 137.886 72.8789 140.782 71.974V78.3085ZM143.497 91.7026V84.463C148.384 85.7296 146.936 90.9784 143.497 91.7026Z" fill="#F2F8F8"/>
<path d="M142.143 113.033C145.582 113.033 149.202 112.853 152.46 112.49C155.537 107.241 160.243 102.717 165.673 99.82C164.949 99.4583 164.044 99.2767 163.139 98.915C158.252 105.25 150.649 109.413 142.143 109.413C133.636 109.413 126.033 105.25 121.146 98.915C115.717 100.725 113.001 102.897 113.001 104.526C113.003 107.965 124.405 113.033 142.143 113.033L142.143 113.033Z" fill="#01A796"/>
<path d="M142.143 133.849C144.316 133.849 146.487 133.849 148.66 133.668C147.755 128.057 148.298 122.084 150.47 116.654C147.755 116.835 145.04 117.016 142.143 117.016C130.559 117.016 118.796 114.843 113.002 110.681V125.523C113.002 128.962 124.405 133.849 142.143 133.849L142.143 133.849Z" fill="#01A796"/>
<path d="M142.143 154.844C148.478 154.844 154.633 154.12 159.701 153.034C155.176 149.234 151.375 143.803 149.565 137.649C147.031 137.83 144.678 137.83 142.143 137.83C130.559 137.83 118.796 135.839 113.002 131.676V146.337C113.002 149.776 124.405 154.844 142.143 154.844V154.844Z" fill="#01A796"/>
<path d="M163.862 155.93C157.889 157.74 150.287 158.825 142.142 158.825C130.557 158.825 118.794 156.653 113 152.491V167.152C113 170.59 124.403 175.658 142.321 175.658C160.239 175.658 171.641 170.59 171.641 167.152L171.461 159.006C168.565 158.464 166.212 157.377 163.859 155.93H163.862Z" fill="#01A796"/>
<path d="M200.606 148.508C211.828 137.287 211.828 119.367 200.606 108.146C189.565 97.1054 171.465 96.7438 160.244 108.146C142.144 126.246 155.176 156.834 180.335 156.834C187.937 157.015 195.177 153.938 200.606 148.508L200.606 148.508ZM198.072 145.974C193.366 150.681 187.031 153.214 180.334 153.214C158.433 153.214 147.031 126.428 162.777 110.68C172.37 101.088 188.117 100.725 198.071 110.68C207.846 120.455 207.846 136.202 198.071 145.976L198.072 145.974Z" fill="#382768"/>
<path d="M224.679 157.922C222.507 155.75 214.724 149.777 207.666 145.252C206.399 147.424 204.77 149.415 202.959 151.225C201.149 153.035 199.159 154.664 196.986 155.931C201.511 162.99 207.484 170.773 209.656 172.945C213.639 176.927 220.336 177.108 224.498 172.945C228.843 168.6 228.843 161.904 224.68 157.922L224.679 157.922Z" fill="#382768"/>
<path d="M181.781 124.979V117.739C183.048 118.283 183.772 119.188 183.953 120.635L188.66 120.092C188.116 116.472 185.764 114.119 181.782 113.576V111.766H179.067V113.576C170.56 114.48 168.569 126.246 179.067 129.322V137.105C177.8 136.561 176.533 134.932 176.171 132.941L171.284 133.485C172.008 138.553 174.904 141.087 179.067 141.63V145.069H181.782L181.781 141.45C189.745 140.364 191.193 131.857 187.935 128.056C186.668 126.789 184.677 125.703 181.781 124.979L181.781 124.979ZM179.066 124.074C175.446 122.626 176.17 118.645 179.066 117.74V124.074ZM181.781 137.468V130.229C186.668 131.495 185.22 136.744 181.781 137.468Z" fill="#EB7B7B"/>
<path d="M181.781 124.979V117.739C183.048 118.283 183.772 119.188 183.953 120.635L188.66 120.092C188.116 116.472 185.764 114.119 181.782 113.576V111.766H179.067V113.576C170.56 114.48 168.569 126.246 179.067 129.322V137.105C177.8 136.561 176.533 134.932 176.171 132.941L171.284 133.485C172.008 138.553 174.904 141.087 179.067 141.63V145.069H181.782L181.781 141.45C189.745 140.364 191.193 131.857 187.935 128.056C186.668 126.789 184.677 125.703 181.781 124.979L181.781 124.979ZM179.066 124.074C175.446 122.626 176.17 118.645 179.066 117.74V124.074ZM181.781 137.468V130.229C186.668 131.495 185.22 136.744 181.781 137.468Z" fill="#EB7B7B"/>
</svg>
