<svg width="279" height="254" viewBox="0 0 279 254" fill="none" xmlns="http://www.w3.org/2000/svg">
<path d="M241.388 190.388C278.319 119.775 236.563 103.967 199.326 63.7584C168.669 30.6558 163.57 -1.72683 96.7741 4.19036C55.7759 7.8222 53.1291 45.3384 39.1289 84.196C25.0292 123.33 -5.98184 158.424 20.5615 190.388C45.7113 220.673 78.1695 218.652 117.22 214.452C150.225 210.901 197.742 273.838 241.388 190.388Z" stroke="#01A796" stroke-opacity="0.2" stroke-width="6"/>
<path fillRule="evenodd" clipRule="evenodd" d="M83.9696 253.894C64.9206 253.894 49.4783 238.451 49.4783 219.402C49.4783 200.353 64.9206 184.911 83.9696 184.911C103.019 184.911 118.461 200.353 118.461 219.402C118.461 238.451 103.019 253.894 83.9696 253.894ZM83.9707 240.097C72.5413 240.097 63.276 230.832 63.276 219.402C63.276 207.973 72.5413 198.708 83.9707 198.708C95.4002 198.708 104.666 207.973 104.666 219.402C104.666 230.832 95.4002 240.097 83.9707 240.097Z" fill="#01A796" fill-opacity="0.1"/>
<path fillRule="evenodd" clipRule="evenodd" d="M264.703 119.377C257.084 119.377 250.907 113.2 250.907 105.581C250.907 97.9611 257.084 91.7842 264.703 91.7842C272.323 91.7842 278.5 97.9611 278.5 105.581C278.5 113.2 272.323 119.377 264.703 119.377ZM264.704 113.859C260.132 113.859 256.426 110.153 256.426 105.581C256.426 101.009 260.132 97.3029 264.704 97.3029C269.276 97.3029 272.982 101.009 272.982 105.581C272.982 110.153 269.276 113.859 264.704 113.859Z" fill="#01A796" fill-opacity="0.1"/>
<path d="M41.8896 36.5982C41.8896 48.0277 32.6243 57.293 21.1948 57.293C9.76528 57.293 0.5 48.0277 0.5 36.5982C0.5 25.1687 9.76528 15.9034 21.1948 15.9034C32.6243 15.9034 41.8896 25.1687 41.8896 36.5982Z" fill="#01A796" fill-opacity="0.1"/>
<path d="M188.259 33.1489C209.292 33.1503 231.776 45.7572 243.545 67.0325C267.52 110.372 193.268 219.999 126.289 223.449C63.9414 226.66 -21.924 145.439 22.3584 78.0661C46.8076 40.868 81.9815 45.7583 129.408 39.8485C153.651 36.8276 150.993 33.1466 188.259 33.1489Z" fill="#F2F8F8"/>
<ellipse cx="128.914" cy="119" rx="49.5" ry="50" fill="#382768"/>
<path d="M80.979 138.985C81.4375 140.09 82.7056 140.613 83.8113 140.155C84.9159 139.695 85.4392 138.427 84.9798 137.322C84.8472 137.004 84.7186 136.684 84.5929 136.363C84.1566 135.25 82.9021 134.7 81.7888 135.135C80.6745 135.569 80.1232 136.822 80.5555 137.937C80.6929 138.288 80.8341 138.637 80.9792 138.985L80.979 138.985Z" fill="#382768"/>
<path d="M119.13 72.3101C119.27 72.3101 120.236 72.136 120.579 72.0741C121.756 71.8642 122.541 70.7402 122.332 69.562C122.123 68.3839 120.998 67.5985 119.821 67.8084C119.448 67.8741 119.077 67.9438 118.707 68.0192V68.0183C117.615 68.2369 116.866 69.2476 116.975 70.3552C117.085 71.4637 118.016 72.3081 119.13 72.31L119.13 72.3101Z" fill="#382768"/>
<path d="M101.209 79.7968C101.641 79.7968 102.061 79.6682 102.418 79.4264C102.704 79.2349 102.991 79.0462 103.28 78.8605C103.768 78.552 104.111 78.0625 104.237 77.5006C104.362 76.9386 104.258 76.3495 103.948 75.8639C103.637 75.3784 103.147 75.0359 102.584 74.9131C102.021 74.7903 101.432 74.8967 100.948 75.2081C100.629 75.4122 100.312 75.6212 99.9973 75.833L99.9963 75.8339C99.2061 76.3669 98.8569 77.3526 99.1364 78.2647C99.415 79.1758 100.256 79.7978 101.209 79.7968L101.209 79.7968Z" fill="#382768"/>
<path d="M109.799 75.169C110.413 75.0345 111.013 74.8478 111.595 74.6108C112.708 74.1736 113.256 72.9162 112.818 71.8019C112.381 70.6885 111.124 70.1411 110.009 70.5783C109.659 70.7156 109.311 70.8568 108.965 71H108.966C108.012 71.3985 107.471 72.4131 107.674 73.4269C107.877 74.4396 108.766 75.1689 109.799 75.1689L109.799 75.169Z" fill="#382768"/>
<path d="M128.846 71.3333H129.001C129.301 71.3333 129.598 71.3362 129.896 71.342H129.934C131.123 71.3411 132.09 70.3825 132.099 69.1928C132.11 68.004 131.159 67.029 129.97 67.0087C129.648 67.0029 129.325 67 129.001 67H128.846C127.65 67 126.68 67.9702 126.68 69.1667C126.68 70.3632 127.65 71.3333 128.846 71.3333H128.846Z" fill="#382768"/>
<path d="M86.3349 89.2686C86.1182 89.58 85.9044 89.8925 85.6946 90.2068C85.3705 90.6856 85.2506 91.2728 85.3618 91.8396C85.473 92.4064 85.8058 92.9055 86.2865 93.2257C86.7673 93.5459 87.3553 93.6609 87.9212 93.5459C88.4871 93.4298 88.9833 93.0941 89.2996 92.6105C89.492 92.3223 89.6865 92.0369 89.8857 91.7526C90.5715 90.7718 90.3326 89.4215 89.3528 88.7346C88.372 88.0488 87.0207 88.2877 86.3348 89.2685L86.3349 89.2686Z" fill="#382768"/>
<path d="M78.0072 129.244C78.2423 130.417 79.3837 131.177 80.557 130.942C81.7303 130.708 82.4915 129.566 82.2565 128.393C82.1888 128.054 82.1249 127.715 82.064 127.372C81.8551 126.194 80.7311 125.408 79.5529 125.617C78.3748 125.826 77.5884 126.95 77.7973 128.128C77.8631 128.502 77.9337 128.874 78.0072 129.244L78.0072 129.244Z" fill="#382768"/>
<path d="M80.0953 111.552C81.1303 111.551 82.0202 110.818 82.2194 109.802C82.2862 109.461 82.3568 109.122 82.4303 108.783C82.5541 108.222 82.4496 107.633 82.1391 107.149C81.8286 106.664 81.3382 106.324 80.7763 106.201C80.2143 106.078 79.6272 106.183 79.1425 106.495C78.6589 106.805 78.3184 107.296 78.1966 107.859C78.1163 108.227 78.0399 108.597 77.9663 108.968C77.8416 109.604 78.0079 110.262 78.42 110.763C78.832 111.264 79.4472 111.553 80.0953 111.552H80.0953Z" fill="#382768"/>
<path d="M155.503 158.629C155.214 158.822 154.922 159.013 154.629 159.202V159.201C154.142 159.51 153.798 160.001 153.674 160.563C153.55 161.126 153.655 161.716 153.967 162.201C154.278 162.687 154.771 163.028 155.334 163.149C155.898 163.27 156.487 163.161 156.971 162.846C157.286 162.643 157.601 162.437 157.912 162.229L157.913 162.23C158.395 161.912 158.73 161.415 158.844 160.85C158.958 160.284 158.841 159.696 158.52 159.216C158.199 158.736 157.7 158.405 157.134 158.294C156.568 158.184 155.981 158.305 155.503 158.629V158.629Z" fill="#382768"/>
<path d="M93.6788 86.0148C94.2553 86.0158 94.8086 85.7856 95.2148 85.3755C95.4586 85.1298 95.7043 84.888 95.9529 84.65H95.9538C96.8137 83.8211 96.8408 82.4514 96.0138 81.5897C95.1868 80.7269 93.8171 80.6979 92.9535 81.5229C92.6797 81.7851 92.4099 82.0511 92.1419 82.321C91.5248 82.941 91.342 83.8724 91.6777 84.6801C92.0143 85.4887 92.8036 86.0149 93.6789 86.0149L93.6788 86.0148Z" fill="#382768"/>
<path d="M180.987 120.134C180.996 119.756 181 119.378 181 119L180.999 118.777C180.99 117.587 180.023 116.628 178.833 116.628H178.817C177.619 116.637 176.657 117.615 176.666 118.811L176.666 119C176.666 119.347 176.663 119.693 176.656 120.038C176.629 121.235 177.578 122.226 178.774 122.253H178.823C180.001 122.253 180.962 121.311 180.987 120.134Z" fill="#382768"/>
<path d="M175.886 136.063C174.781 135.608 173.515 136.131 173.055 137.235C172.921 137.556 172.785 137.877 172.645 138.195C172.163 139.291 172.661 140.569 173.757 141.051C174.852 141.532 176.131 141.034 176.612 139.938C176.764 139.592 176.912 139.245 177.057 138.895C177.516 137.79 176.991 136.522 175.886 136.063L175.886 136.063Z" fill="#382768"/>
<path d="M179.779 130.245C179.86 129.876 179.938 129.507 180.011 129.137H180.01C180.243 127.964 179.48 126.823 178.306 126.591C177.133 126.358 175.992 127.121 175.76 128.296C175.693 128.636 175.622 128.976 175.547 129.314C175.29 130.483 176.029 131.638 177.197 131.896C178.366 132.153 179.522 131.414 179.779 130.245L179.779 130.245Z" fill="#382768"/>
<path d="M179.97 108.652C179.858 108.088 179.525 107.592 179.046 107.273C178.567 106.954 177.981 106.839 177.417 106.953C176.853 107.067 176.357 107.4 176.04 107.879C175.721 108.359 175.607 108.945 175.722 109.509C175.791 109.849 175.856 110.189 175.918 110.533C176.104 111.564 177 112.313 178.047 112.315C178.177 112.315 178.307 112.304 178.435 112.279C179 112.178 179.502 111.856 179.829 111.384C180.157 110.912 180.284 110.328 180.183 109.763C180.115 109.392 180.044 109.022 179.97 108.652L179.97 108.652Z" fill="#382768"/>
<path d="M169.114 93.2401C169.76 94.248 171.099 94.542 172.107 93.8978C173.115 93.2527 173.409 91.912 172.765 90.9041C172.56 90.5839 172.351 90.2667 172.139 89.9533C171.469 88.9619 170.122 88.7007 169.131 89.37C168.139 90.0394 167.877 91.3858 168.547 92.3781C168.739 92.6625 168.928 92.9498 169.115 93.24L169.114 93.2401Z" fill="#382768"/>
<path d="M138.154 72.2114C138.493 72.2772 139.478 72.4697 139.631 72.4697H139.632C140.738 72.4687 141.665 71.634 141.784 70.5342C141.902 69.4344 141.173 68.4217 140.093 68.1857C139.722 68.1054 139.35 68.029 138.976 67.9564C137.802 67.732 136.669 68.5 136.442 69.6733C136.215 70.8466 136.981 71.9822 138.154 72.2114L138.154 72.2114Z" fill="#382768"/>
<path d="M147.098 74.889C147.421 75.0224 147.743 75.1588 148.063 75.2971H148.062C149.16 75.775 150.436 75.272 150.914 74.1751C151.391 73.0773 150.889 71.8015 149.791 71.3235C149.445 71.1736 149.096 71.0256 148.748 70.8815C147.642 70.4278 146.376 70.955 145.922 72.0606C145.466 73.1671 145.992 74.4323 147.098 74.8889L147.098 74.889Z" fill="#382768"/>
<path d="M155.349 79.2719C155.64 79.4654 155.928 79.6617 156.216 79.861C157.2 80.5419 158.55 80.2963 159.231 79.3126C159.559 78.8406 159.684 78.2573 159.582 77.6914C159.479 77.1266 159.155 76.6245 158.683 76.2976C158.375 76.0838 158.064 75.873 157.75 75.664C157.272 75.341 156.684 75.222 156.118 75.3342C155.552 75.4455 155.054 75.7792 154.734 76.2589C154.415 76.7397 154.3 77.3278 154.415 77.8936C154.531 78.4585 154.867 78.9547 155.349 79.271L155.349 79.2719Z" fill="#382768"/>
<path d="M176.978 98.9157C176.515 97.815 175.247 97.2965 174.145 97.7579C173.042 98.2193 172.522 99.4864 172.982 100.59C173.114 100.907 173.244 101.227 173.371 101.549L173.37 101.548C173.809 102.662 175.066 103.21 176.179 102.772C177.294 102.334 177.841 101.077 177.404 99.9633C177.266 99.6122 177.123 99.263 176.978 98.9158L176.978 98.9157Z" fill="#382768"/>
<path d="M163.315 85.9156C163.713 86.3315 164.26 86.5714 164.834 86.5839C165.409 86.5955 165.965 86.3789 166.38 85.9804C166.795 85.5828 167.035 85.0363 167.046 84.4608C167.058 83.8862 166.841 83.3301 166.443 82.9151C166.18 82.6414 165.913 82.3705 165.643 82.1026H165.642C164.793 81.2601 163.421 81.2659 162.579 82.1162C161.736 82.9654 161.741 84.337 162.591 85.1795C162.835 85.4213 163.077 85.667 163.315 85.9156L163.315 85.9156Z" fill="#382768"/>
<path d="M77.0097 117.975C77.0029 118.316 77 118.659 77 119.001V119.105C77.0019 119.675 77.2331 120.219 77.6403 120.617C78.0475 121.014 78.5979 121.232 79.1667 121.22C80.3728 121.195 81.3372 120.209 81.3333 119.001C81.3333 118.686 81.3362 118.373 81.342 118.06C81.3653 116.864 80.4144 115.874 79.2189 115.851C78.0301 115.848 77.0532 116.787 77.0097 117.975V117.975Z" fill="#382768"/>
<path d="M110.81 163.074C110.489 162.942 110.169 162.806 109.851 162.666V162.665C109.325 162.434 108.728 162.42 108.192 162.629C107.656 162.837 107.225 163.25 106.994 163.777C106.763 164.303 106.751 164.9 106.96 165.436C107.169 165.972 107.583 166.402 108.11 166.633C108.457 166.785 108.807 166.933 109.158 167.079C109.689 167.299 110.286 167.298 110.817 167.079C111.348 166.858 111.769 166.435 111.989 165.903C112.207 165.372 112.207 164.775 111.986 164.244C111.764 163.713 111.342 163.293 110.81 163.074L110.81 163.074Z" fill="#382768"/>
<path d="M102.566 158.671C102.279 158.48 101.994 158.284 101.71 158.086C101.239 157.751 100.655 157.619 100.086 157.716C99.5184 157.815 99.0115 158.135 98.6807 158.608C98.3499 159.08 98.2203 159.665 98.3219 160.234C98.4234 160.802 98.7485 161.306 99.2224 161.634C99.5338 161.851 99.8463 162.066 100.163 162.276C101.158 162.93 102.495 162.658 103.155 161.667C103.815 160.676 103.553 159.339 102.566 158.671L102.566 158.671Z" fill="#382768"/>
<path d="M119.749 165.77C119.409 165.703 119.069 165.633 118.732 165.558C118.171 165.436 117.584 165.541 117.099 165.85C116.615 166.161 116.275 166.65 116.152 167.212C115.897 168.382 116.637 169.537 117.806 169.792C118.175 169.872 119.197 170.063 119.334 170.063H119.335C120.45 170.062 121.382 169.215 121.489 168.104C121.597 166.995 120.844 165.984 119.749 165.77V165.77Z" fill="#382768"/>
<path d="M138.344 165.753C138.007 165.82 137.667 165.884 137.328 165.944H137.327C136.22 166.136 135.445 167.144 135.541 168.263C135.637 169.382 136.573 170.243 137.697 170.244C137.823 170.244 137.948 170.233 138.072 170.212C138.447 170.146 138.82 170.077 139.192 170.001H139.193C139.757 169.89 140.254 169.559 140.574 169.08C140.894 168.603 141.01 168.016 140.898 167.452C140.785 166.888 140.452 166.391 139.973 166.073C139.495 165.754 138.908 165.639 138.344 165.753L138.344 165.753Z" fill="#382768"/>
<path d="M147.271 163.039C146.954 163.172 146.635 163.3 146.314 163.425C145.777 163.633 145.346 164.046 145.114 164.572C144.882 165.099 144.87 165.696 145.079 166.232C145.288 166.768 145.702 167.199 146.229 167.43C146.755 167.66 147.353 167.672 147.888 167.463C148.24 167.325 148.59 167.185 148.938 167.041V167.04C150.043 166.579 150.566 165.311 150.106 164.206C149.645 163.101 148.377 162.579 147.272 163.039L147.271 163.039Z" fill="#382768"/>
<path d="M129.051 166.666C129.033 166.666 128.334 166.665 128.011 166.657C126.824 166.651 125.845 167.589 125.799 168.777C125.773 169.974 126.722 170.964 127.919 170.99C128.235 170.997 128.997 171 129.046 171H129.051C130.248 171 131.218 170.03 131.218 168.833C131.218 167.637 130.248 166.666 129.051 166.666H129.051Z" fill="#382768"/>
<path d="M94.6131 152.013C93.7861 151.149 92.4145 151.119 91.5498 151.946C90.686 152.773 90.656 154.145 91.483 155.009C91.7452 155.283 92.0102 155.554 92.2791 155.821H92.2781C93.1264 156.662 94.4951 156.658 95.3394 155.813C96.1829 154.968 96.1829 153.598 95.3394 152.753C95.0947 152.508 94.8519 152.261 94.613 152.013L94.6131 152.013Z" fill="#382768"/>
<path d="M171.603 148.821C171.822 148.511 172.036 148.198 172.247 147.881L172.246 147.88C172.912 146.886 172.644 145.541 171.649 144.876C170.655 144.211 169.31 144.479 168.644 145.473C168.452 145.759 168.257 146.045 168.059 146.328C167.728 146.798 167.598 147.379 167.696 147.946C167.795 148.512 168.114 149.015 168.584 149.346C169.563 150.034 170.914 149.798 171.603 148.821L171.603 148.821Z" fill="#382768"/>
<path d="M84.2001 97.0412C83.1033 96.5624 81.8274 97.0616 81.3458 98.1565C81.194 98.5037 81.046 98.8529 80.9009 99.204C80.6813 99.7351 80.6813 100.333 80.9019 100.864C81.1234 101.395 81.5461 101.817 82.078 102.035C82.61 102.255 83.2068 102.253 83.7379 102.031C84.2679 101.81 84.6897 101.386 84.9073 100.854C85.0398 100.533 85.1762 100.213 85.3155 99.8947C85.7952 98.7988 85.2961 97.521 84.2002 97.0414L84.2001 97.0412Z" fill="#382768"/>
<path d="M162.715 152.693C162.472 152.937 162.225 153.179 161.975 153.417C161.117 154.244 161.088 155.61 161.911 156.473C162.734 157.335 164.099 157.371 164.966 156.553C165.24 156.292 165.511 156.027 165.78 155.758V155.757C166.622 154.91 166.62 153.542 165.776 152.698C164.931 151.853 163.563 151.851 162.715 152.694L162.715 152.693Z" fill="#382768"/>
<path d="M88.831 144.673C88.1839 143.668 86.8462 143.377 85.8403 144.021C84.8334 144.666 84.5393 146.004 85.1826 147.011C85.3866 147.328 85.5927 147.643 85.8026 147.957H85.8016C86.1208 148.437 86.618 148.77 87.1828 148.883C87.7487 148.996 88.3358 148.879 88.8136 148.558C89.2924 148.236 89.6242 147.738 89.7335 147.172C89.8438 146.607 89.7248 146.02 89.4007 145.543C89.2083 145.255 89.0177 144.965 88.831 144.673V144.673Z" fill="#382768"/>
<path d="M86.0312 70.0156C86.0312 73.338 83.338 76.0312 80.0156 76.0312C76.6932 76.0312 74 73.338 74 70.0156C74 66.6932 76.6932 64 80.0156 64C83.338 64 86.0312 66.6932 86.0312 70.0156Z" fill="#EB7B7B"/>
<path d="M86.0312 70.0156C86.0312 73.338 83.338 76.0312 80.0156 76.0312C76.6932 76.0312 74 73.338 74 70.0156C74 66.6932 76.6932 64 80.0156 64C83.338 64 86.0312 66.6932 86.0312 70.0156Z" fill="#EB7B7B"/>
<path d="M86.9523 82.0936C87.0996 82.765 87.6344 83.2837 88.3104 83.4111C88.9856 83.5384 89.6723 83.2499 90.0544 82.6783C90.0544 82.6783 94.2946 86.7243 94.2983 86.7281H94.2975C94.9904 87.3688 96.0661 87.3434 96.7275 86.6713C97.3828 85.9838 97.3575 84.8957 96.6715 84.2405L92.6746 80.4262C93.0076 80.2122 93.2554 79.8884 93.3751 79.5108C93.6583 78.6047 93.1542 77.6402 92.248 77.3562L88.2634 76.1093C87.678 75.926 87.0396 76.0687 86.5876 76.4838C86.1357 76.8989 85.9393 77.5227 86.072 78.1219L86.9523 82.0936Z" fill="#EB7B7B"/>
<path d="M86.9523 82.0936C87.0996 82.765 87.6344 83.2837 88.3104 83.4111C88.9856 83.5384 89.6723 83.2499 90.0544 82.6783C90.0544 82.6783 94.2946 86.7243 94.2983 86.7281H94.2975C94.9904 87.3688 96.0661 87.3434 96.7275 86.6713C97.3828 85.9838 97.3575 84.8957 96.6715 84.2405L92.6746 80.4262C93.0076 80.2122 93.2554 79.8884 93.3751 79.5108C93.6583 78.6047 93.1542 77.6402 92.248 77.3562L88.2634 76.1093C87.678 75.926 87.0396 76.0687 86.5876 76.4838C86.1357 76.8989 85.9393 77.5227 86.072 78.1219L86.9523 82.0936Z" fill="#EB7B7B"/>
<path d="M184 70.0156C184 73.338 181.307 76.0312 177.984 76.0312C174.662 76.0312 171.969 73.338 171.969 70.0156C171.969 66.6932 174.662 64 177.984 64C181.307 64 184 66.6932 184 70.0156Z" fill="#EB7B7B"/>
<path d="M184 70.0156C184 73.338 181.307 76.0312 177.984 76.0312C174.662 76.0312 171.969 73.338 171.969 70.0156C171.969 66.6932 174.662 64 177.984 64C181.307 64 184 66.6932 184 70.0156Z" fill="#EB7B7B"/>
<path d="M169.737 76.1093L165.752 77.3562C164.846 77.6401 164.341 78.6046 164.625 79.5108C164.745 79.8883 164.993 80.2121 165.326 80.4262L161.329 84.2405C160.644 84.8965 160.619 85.983 161.274 86.6689C161.929 87.3549 163.015 87.3817 163.703 86.728L167.947 82.6782H167.946C168.191 83.0458 168.567 83.3043 168.999 83.4003C169.923 83.5959 170.835 83.0151 171.048 82.0936L171.928 78.1212V78.122C172.061 77.5227 171.865 76.8989 171.413 76.4838C170.961 76.0687 170.322 75.926 169.737 76.1093L169.737 76.1093Z" fill="#EB7B7B"/>
<path d="M169.737 76.1093L165.752 77.3562C164.846 77.6401 164.341 78.6046 164.625 79.5108C164.745 79.8883 164.993 80.2121 165.326 80.4262L161.329 84.2405C160.644 84.8965 160.619 85.983 161.274 86.6689C161.929 87.3549 163.015 87.3817 163.703 86.728L167.947 82.6782H167.946C168.191 83.0458 168.567 83.3043 168.999 83.4003C169.923 83.5959 170.835 83.0151 171.048 82.0936L171.928 78.1212V78.122C172.061 77.5227 171.865 76.8989 171.413 76.4838C170.961 76.0687 170.322 75.926 169.737 76.1093L169.737 76.1093Z" fill="#EB7B7B"/>
<path d="M86.0312 167.985C86.0312 171.308 83.338 174.001 80.0156 174.001C76.6932 174.001 74 171.308 74 167.985C74 164.663 76.6932 161.97 80.0156 161.97C83.338 161.97 86.0312 164.663 86.0312 167.985Z" fill="#EB7B7B"/>
<path d="M86.0312 167.985C86.0312 171.308 83.338 174.001 80.0156 174.001C76.6932 174.001 74 171.308 74 167.985C74 164.663 76.6932 161.97 80.0156 161.97C83.338 161.97 86.0312 164.663 86.0312 167.985Z" fill="#EB7B7B"/>
<path d="M94.2974 151.271L90.0535 155.321H90.0543C89.673 154.749 88.9862 154.459 88.3095 154.587C87.6335 154.714 87.0994 155.234 86.9521 155.906L86.072 159.878V159.877C85.9393 160.477 86.1357 161.101 86.5876 161.515C87.0411 161.927 87.678 162.069 88.2634 161.89L92.248 160.643C93.1542 160.359 93.659 159.395 93.3751 158.488C93.2554 158.111 93.0076 157.787 92.6746 157.572L96.6707 153.758L96.6715 153.759C97.3567 153.103 97.3813 152.016 96.726 151.33C96.0715 150.644 94.985 150.617 94.2975 151.271L94.2974 151.271Z" fill="#EB7B7B"/>
<path d="M94.2974 151.271L90.0535 155.321H90.0543C89.673 154.749 88.9862 154.459 88.3095 154.587C87.6335 154.714 87.0994 155.234 86.9521 155.906L86.072 159.878V159.877C85.9393 160.477 86.1357 161.101 86.5876 161.515C87.0411 161.927 87.678 162.069 88.2634 161.89L92.248 160.643C93.1542 160.359 93.659 159.395 93.3751 158.488C93.2554 158.111 93.0076 157.787 92.6746 157.572L96.6707 153.758L96.6715 153.759C97.3567 153.103 97.3813 152.016 96.726 151.33C96.0715 150.644 94.985 150.617 94.2975 151.271L94.2974 151.271Z" fill="#EB7B7B"/>
<path d="M184 167.985C184 171.308 181.307 174.001 177.984 174.001C174.662 174.001 171.969 171.308 171.969 167.985C171.969 164.663 174.662 161.97 177.984 161.97C181.307 161.97 184 164.663 184 167.985Z" fill="#EB7B7B"/>
<path d="M184 167.985C184 171.308 181.307 174.001 177.984 174.001C174.662 174.001 171.969 171.308 171.969 167.985C171.969 164.663 174.662 161.97 177.984 161.97C181.307 161.97 184 164.663 184 167.985Z" fill="#EB7B7B"/>
<path d="M171.048 155.907C170.901 155.235 170.367 154.715 169.691 154.588C169.015 154.461 168.327 154.75 167.946 155.322L163.702 151.273H163.703C163.015 150.619 161.929 150.646 161.274 151.332C160.619 152.018 160.644 153.104 161.329 153.76L165.326 157.574H165.327C164.993 157.789 164.745 158.112 164.625 158.49C164.342 159.396 164.846 160.361 165.752 160.644L169.737 161.891C170.322 162.07 170.959 161.927 171.413 161.517C171.865 161.103 172.061 160.478 171.928 159.879L171.048 155.907Z" fill="#EB7B7B"/>
<path d="M171.048 155.907C170.901 155.235 170.367 154.715 169.691 154.588C169.015 154.461 168.327 154.75 167.946 155.322L163.702 151.273H163.703C163.015 150.619 161.929 150.646 161.274 151.332C160.619 152.018 160.644 153.104 161.329 153.76L165.326 157.574H165.327C164.993 157.789 164.745 158.112 164.625 158.49C164.342 159.396 164.846 160.361 165.752 160.644L169.737 161.891C170.322 162.07 170.959 161.927 171.413 161.517C171.865 161.103 172.061 160.478 171.928 159.879L171.048 155.907Z" fill="#EB7B7B"/>
<path d="M125.48 114.609H131.565C134.534 109.136 140.114 105.58 146.328 105.199L141.61 102.036H141.611C139.999 100.715 137.979 99.9945 135.896 100C135.81 100 135.724 100.008 135.638 100.017C134.134 100.24 129.932 100.825 128.522 100.825C127.284 100.825 123.521 100.249 122.18 100.025V100.026C122.086 100.008 121.992 100 121.896 100C119.903 99.9962 117.965 100.655 116.388 101.874L111.111 105.225C117.176 105.732 122.577 109.26 125.48 114.609L125.48 114.609ZM126.803 104.426C127.483 104.495 128.101 104.529 128.531 104.529C128.96 104.529 129.562 104.494 130.241 104.443V105.156C130.241 106.105 129.471 106.875 128.522 106.875C127.573 106.875 126.803 106.105 126.803 105.156V104.426Z" fill="#01A796"/>
<path d="M162.037 123.203C162.002 120.343 161.145 117.553 159.566 115.168C157.986 112.782 155.754 110.902 153.134 109.754C149.473 108.213 145.344 108.226 141.693 109.79C138.041 111.354 135.183 114.334 133.772 118.047H123.271C122.804 116.823 122.177 115.668 121.406 114.609C118.667 110.83 114.283 108.594 109.615 108.594C104.728 108.638 100.177 111.087 97.4484 115.141C94.8042 119.109 94.2664 124.118 96.0074 128.556C97.7492 132.994 101.55 136.301 106.186 137.411C110.822 138.522 115.709 137.296 119.272 134.129C120.102 133.394 120.849 132.573 121.501 131.676L126.072 130.576L127.808 130.163V130.164C128.28 130.048 128.772 130.048 129.244 130.164L130.971 130.577C130.971 130.577 135.542 131.677 135.551 131.677V131.676C137.959 135.062 141.696 137.262 145.826 137.723C149.955 138.183 154.085 136.862 157.18 134.09C160.275 131.318 162.042 127.358 162.037 123.203L162.037 123.203ZM109.614 134.375C106.651 134.375 103.81 133.198 101.715 131.102C99.6193 129.008 98.4423 126.166 98.4423 123.203C98.4423 120.24 99.6194 117.398 101.715 115.304C103.81 113.208 106.651 112.031 109.614 112.031C112.578 112.031 115.419 113.208 117.514 115.304C119.609 117.398 120.786 120.24 120.786 123.203C120.783 126.165 119.605 129.005 117.51 131.099C115.416 133.194 112.576 134.372 109.614 134.375ZM129.414 124.226C128.868 124.57 128.173 124.57 127.626 124.226C127.125 123.924 126.814 123.387 126.802 122.802C126.79 122.219 127.079 121.668 127.567 121.347C128.139 120.946 128.902 120.946 129.474 121.347C129.962 121.668 130.251 122.219 130.238 122.802C130.227 123.387 129.915 123.924 129.414 124.226H129.414ZM147.426 134.375C144.463 134.375 141.622 133.198 139.527 131.102C137.432 129.008 136.255 126.166 136.255 123.203C136.255 120.24 137.432 117.398 139.527 115.304C141.622 113.208 144.463 112.031 147.426 112.031C150.39 112.031 153.231 113.208 155.326 115.304C157.421 117.398 158.598 120.24 158.598 123.203C158.595 126.165 157.417 129.005 155.323 131.099C153.229 133.194 150.388 134.372 147.426 134.375Z" fill="#01A796"/>
</svg>
