<svg width="279" height="255" viewBox="0 0 279 255" fill="none" xmlns="http://www.w3.org/2000/svg">
<path d="M37.6112 190.795C0.680073 120.183 42.4357 104.374 79.6731 64.1661C110.33 31.0635 115.429 -1.31911 182.225 4.59807C223.223 8.22992 225.87 45.7461 239.87 84.6037C253.97 123.737 284.981 158.832 258.437 190.795C233.288 221.081 200.83 219.06 161.779 214.859C128.774 211.309 81.2569 274.246 37.6112 190.795Z" stroke="#01A796" stroke-opacity="0.2" stroke-width="6"/>
<path fillRule="evenodd" clipRule="evenodd" d="M195.031 254.301C214.08 254.301 229.523 238.859 229.523 219.81C229.523 200.761 214.08 185.318 195.031 185.318C175.982 185.318 160.54 200.761 160.54 219.81C160.54 238.859 175.982 254.301 195.031 254.301ZM195.031 240.504C206.461 240.504 215.726 231.239 215.726 219.81C215.726 208.38 206.461 199.115 195.031 199.115C183.602 199.115 174.336 208.38 174.336 219.81C174.336 231.239 183.602 240.504 195.031 240.504Z" fill="#01A796" fill-opacity="0.1"/>
<path fillRule="evenodd" clipRule="evenodd" d="M14.2965 119.785C21.9161 119.785 28.0931 113.608 28.0931 105.988C28.0931 98.3688 21.9161 92.1919 14.2965 92.1919C6.67692 92.1919 0.5 98.3688 0.5 105.988C0.5 113.608 6.67692 119.785 14.2965 119.785ZM14.2965 114.266C18.8683 114.266 22.5744 110.56 22.5744 105.988C22.5744 101.417 18.8683 97.7105 14.2965 97.7105C9.72476 97.7105 6.01861 101.417 6.01861 105.988C6.01861 110.56 9.72476 114.266 14.2965 114.266Z" fill="#01A796" fill-opacity="0.1"/>
<path d="M237.11 37.0059C237.11 48.4354 246.376 57.7007 257.805 57.7007C269.235 57.7007 278.5 48.4354 278.5 37.0059C278.5 25.5764 269.235 16.3111 257.805 16.3111C246.376 16.3111 237.11 25.5764 237.11 37.0059Z" fill="#01A796" fill-opacity="0.1"/>
<path d="M90.7414 33.5566C69.7079 33.558 47.224 46.1649 35.4548 67.4402C11.4801 110.78 85.7324 220.406 152.711 223.856C215.059 227.068 300.924 145.847 256.642 78.4738C232.192 41.2757 197.019 46.1661 149.592 40.2562C125.349 37.2353 128.007 33.5543 90.7414 33.5566Z" fill="#F2F8F8"/>
<path d="M152.43 118.968L155.141 121.691C156.121 122.673 157.452 123.224 158.84 123.224C160.227 123.224 161.558 122.673 162.539 121.691L170.556 113.674L170.555 113.675C170.811 113.418 171.158 113.274 171.519 113.274C171.882 113.274 172.228 113.418 172.484 113.675C172.815 114.003 172.954 114.48 172.85 114.935C172.42 116.983 172.9 119.117 174.164 120.785C175.427 122.454 177.351 123.493 179.439 123.635C181.527 123.777 183.574 123.008 185.052 121.527C186.53 120.046 187.295 117.996 187.148 115.909C187.001 113.822 185.957 111.9 184.286 110.64C182.615 109.38 180.48 108.905 178.433 109.339C177.978 109.446 177.5 109.307 177.173 108.973C176.916 108.718 176.772 108.371 176.772 108.01C176.772 107.647 176.916 107.3 177.173 107.045L185.302 99.0039C186.284 98.0227 186.835 96.6917 186.835 95.3041C186.835 93.9168 186.284 92.5857 185.302 91.6044L177.286 83.588V83.5889C177.029 83.3331 176.886 82.9866 176.886 82.6244C176.886 82.2622 177.029 81.9158 177.286 81.6599C177.613 81.3258 178.091 81.1878 178.547 81.2951C180.594 81.7276 182.728 81.2537 184.4 79.9939C186.07 78.734 187.114 76.812 187.261 74.7249C187.408 72.6369 186.644 70.5883 185.165 69.1069C183.687 67.6255 181.641 66.8562 179.553 66.9986C177.465 67.141 175.541 68.1802 174.277 69.848C173.013 71.5167 172.534 73.6506 172.963 75.6981C173.068 76.1535 172.929 76.63 172.597 76.9589C172.341 77.2147 171.995 77.3589 171.633 77.3589C171.271 77.3589 170.924 77.2147 170.669 76.9589L162.539 68.8423C161.558 67.8603 160.227 67.309 158.84 67.309C157.452 67.309 156.121 67.8603 155.141 68.8423L147.112 76.8711C146.856 77.1269 146.509 77.2711 146.147 77.2711C145.785 77.2711 145.439 77.1269 145.183 76.8711C144.852 76.5423 144.713 76.0658 144.817 75.6103C145.246 73.5618 144.767 71.428 143.503 69.7603C142.239 68.0924 140.316 67.0524 138.228 66.9108C136.14 66.7684 134.093 67.5368 132.615 69.0183C131.137 70.4997 130.372 72.5492 130.519 74.6363C130.666 76.7243 131.71 78.6453 133.381 79.9052C135.052 81.1651 137.187 81.6399 139.234 81.2064C139.689 81.0992 140.167 81.2381 140.494 81.5722C140.751 81.8271 140.895 82.1744 140.895 82.5366C140.895 82.898 140.751 83.2453 140.494 83.5002L132.364 91.5544C131.368 92.5374 130.806 93.879 130.806 95.2787C130.806 96.6792 131.368 98.021 132.364 99.0039L135.062 101.701C136.067 100.046 137.432 98.6415 139.058 97.5918C141.087 96.2712 143.455 95.5687 145.877 95.5687C148.297 95.5687 150.665 96.2712 152.695 97.5918C156.369 99.9462 158.563 104.034 158.497 108.396C158.43 112.76 156.111 116.777 152.368 119.018L152.43 118.968Z" fill="#382768"/>
<path d="M105.217 143.269C103.168 142.84 101.035 143.319 99.3669 144.584C97.6982 145.847 96.6591 147.771 96.5166 149.859C96.3751 151.947 97.1435 153.994 98.6249 155.472C100.106 156.95 102.156 157.715 104.243 157.568C106.33 157.421 108.252 156.377 109.512 154.706C110.772 153.035 111.247 150.9 110.813 148.852C110.706 148.398 110.845 147.92 111.179 147.592C111.434 147.336 111.781 147.192 112.142 147.192C112.505 147.192 112.851 147.336 113.107 147.592L121.136 155.722C122.119 156.718 123.46 157.28 124.86 157.28C126.26 157.28 127.602 156.718 128.585 155.722L131.282 153.025C129.629 152.02 128.224 150.654 127.173 149.029C125.852 147 125.15 144.631 125.15 142.21C125.15 139.79 125.852 137.421 127.173 135.392C129.527 131.718 133.615 129.523 137.977 129.589C142.341 129.656 146.359 131.976 148.6 135.719L151.271 132.946C152.253 131.966 152.805 130.635 152.805 129.247C152.805 127.86 152.253 126.529 151.271 125.548L143.218 117.532C142.961 117.276 142.817 116.929 142.817 116.568C142.817 116.205 142.961 115.859 143.218 115.603C143.546 115.272 144.023 115.133 144.478 115.237C146.527 115.666 148.66 115.187 150.328 113.923C151.997 112.66 153.036 110.736 153.178 108.648C153.32 106.56 152.552 104.513 151.07 103.035C149.589 101.557 147.539 100.792 145.452 100.939C143.365 101.086 141.443 102.13 140.183 103.801C138.923 105.472 138.449 107.607 138.882 109.654C138.989 110.109 138.85 110.587 138.516 110.914C138.261 111.171 137.914 111.315 137.553 111.315C137.19 111.315 136.843 111.171 136.588 110.914L128.585 102.784C127.604 101.803 126.273 101.252 124.885 101.252C123.498 101.252 122.167 101.803 121.185 102.784L113.169 110.801H113.17C112.914 111.058 112.568 111.201 112.205 111.201C111.843 111.201 111.497 111.058 111.241 110.801C110.907 110.474 110.769 109.995 110.876 109.54C111.309 107.493 110.835 105.359 109.575 103.687C108.315 102.017 106.393 100.972 104.306 100.825C102.218 100.679 100.169 101.443 98.6879 102.921C97.2064 104.399 96.4371 106.446 96.5796 108.534C96.722 110.622 97.7612 112.546 99.429 113.81C101.098 115.074 103.232 115.553 105.279 115.124C105.734 115.019 106.211 115.158 106.54 115.49C106.796 115.746 106.94 116.092 106.94 116.454C106.94 116.816 106.796 117.163 106.54 117.418L98.4233 125.548C97.4412 126.529 96.89 127.86 96.89 129.247C96.89 130.635 97.4412 131.966 98.4233 132.946L106.452 140.975C106.708 141.231 106.852 141.578 106.852 141.939C106.852 142.302 106.708 142.648 106.452 142.904C106.128 143.227 105.663 143.365 105.217 143.27L105.217 143.269Z" fill="#EB7B7B"/>
<path d="M105.217 143.269C103.168 142.84 101.035 143.319 99.3669 144.584C97.6982 145.847 96.6591 147.771 96.5166 149.859C96.3751 151.947 97.1435 153.994 98.6249 155.472C100.106 156.95 102.156 157.715 104.243 157.568C106.33 157.421 108.252 156.377 109.512 154.706C110.772 153.035 111.247 150.9 110.813 148.852C110.706 148.398 110.845 147.92 111.179 147.592C111.434 147.336 111.781 147.192 112.142 147.192C112.505 147.192 112.851 147.336 113.107 147.592L121.136 155.722C122.119 156.718 123.46 157.28 124.86 157.28C126.26 157.28 127.602 156.718 128.585 155.722L131.282 153.025C129.629 152.02 128.224 150.654 127.173 149.029C125.852 147 125.15 144.631 125.15 142.21C125.15 139.79 125.852 137.421 127.173 135.392C129.527 131.718 133.615 129.523 137.977 129.589C142.341 129.656 146.359 131.976 148.6 135.719L151.271 132.946C152.253 131.966 152.805 130.635 152.805 129.247C152.805 127.86 152.253 126.529 151.271 125.548L143.218 117.532C142.961 117.276 142.817 116.929 142.817 116.568C142.817 116.205 142.961 115.859 143.218 115.603C143.546 115.272 144.023 115.133 144.478 115.237C146.527 115.666 148.66 115.187 150.328 113.923C151.997 112.66 153.036 110.736 153.178 108.648C153.32 106.56 152.552 104.513 151.07 103.035C149.589 101.557 147.539 100.792 145.452 100.939C143.365 101.086 141.443 102.13 140.183 103.801C138.923 105.472 138.449 107.607 138.882 109.654C138.989 110.109 138.85 110.587 138.516 110.914C138.261 111.171 137.914 111.315 137.553 111.315C137.19 111.315 136.843 111.171 136.588 110.914L128.585 102.784C127.604 101.803 126.273 101.252 124.885 101.252C123.498 101.252 122.167 101.803 121.185 102.784L113.169 110.801H113.17C112.914 111.058 112.568 111.201 112.205 111.201C111.843 111.201 111.497 111.058 111.241 110.801C110.907 110.474 110.769 109.995 110.876 109.54C111.309 107.493 110.835 105.359 109.575 103.687C108.315 102.017 106.393 100.972 104.306 100.825C102.218 100.679 100.169 101.443 98.6879 102.921C97.2064 104.399 96.4371 106.446 96.5796 108.534C96.722 110.622 97.7612 112.546 99.429 113.81C101.098 115.074 103.232 115.553 105.279 115.124C105.734 115.019 106.211 115.158 106.54 115.49C106.796 115.746 106.94 116.092 106.94 116.454C106.94 116.816 106.796 117.163 106.54 117.418L98.4233 125.548C97.4412 126.529 96.89 127.86 96.89 129.247C96.89 130.635 97.4412 131.966 98.4233 132.946L106.452 140.975C106.708 141.231 106.852 141.578 106.852 141.939C106.852 142.302 106.708 142.648 106.452 142.904C106.128 143.227 105.663 143.365 105.217 143.27L105.217 143.269Z" fill="#EB7B7B"/>
<path d="M190.558 109.54C191.877 111.569 192.581 113.939 192.581 116.359C192.581 118.78 191.877 121.149 190.558 123.178C188.203 126.852 184.116 129.047 179.752 128.98C175.39 128.913 171.371 126.594 169.131 122.85L166.396 125.561C165.414 126.541 164.863 127.872 164.863 129.259C164.863 130.647 165.414 131.978 166.396 132.959L174.412 140.976L174.411 140.975C174.668 141.231 174.812 141.578 174.812 141.939C174.812 142.301 174.668 142.648 174.411 142.904C174.084 143.235 173.606 143.374 173.152 143.269C171.103 142.84 168.969 143.32 167.301 144.584C165.633 145.847 164.594 147.771 164.451 149.859C164.31 151.947 165.078 153.994 166.559 155.472C168.041 156.95 170.09 157.715 172.177 157.568C174.265 157.421 176.186 156.377 177.446 154.706C178.706 153.035 179.181 150.9 178.748 148.852C178.64 148.398 178.779 147.92 179.113 147.593C179.368 147.336 179.716 147.192 180.077 147.192C180.439 147.192 180.786 147.336 181.041 147.593L189.083 155.722C190.064 156.704 191.395 157.255 192.782 157.255C194.17 157.255 195.501 156.704 196.482 155.722L204.498 147.706H204.498C204.753 147.449 205.1 147.306 205.462 147.306C205.824 147.306 206.171 147.449 206.427 147.706C206.761 148.033 206.899 148.511 206.791 148.967C206.359 151.014 206.833 153.148 208.093 154.82C209.352 156.49 211.274 157.534 213.362 157.681C215.45 157.828 217.498 157.064 218.98 155.585C220.461 154.107 221.23 152.061 221.088 149.972C220.945 147.884 219.906 145.961 218.238 144.697C216.57 143.433 214.436 142.954 212.388 143.383C211.933 143.487 211.456 143.349 211.128 143.017C210.872 142.761 210.728 142.415 210.728 142.053C210.728 141.691 210.872 141.344 211.128 141.089L219.144 133.073C220.125 132.091 220.676 130.761 220.676 129.373C220.676 127.985 220.125 126.655 219.144 125.674L211.215 117.532C210.96 117.276 210.815 116.929 210.815 116.567C210.815 116.205 210.96 115.859 211.215 115.603C211.544 115.271 212.021 115.133 212.476 115.237C214.525 115.666 216.658 115.187 218.326 113.923C219.994 112.659 221.034 110.736 221.176 108.648C221.318 106.56 220.55 104.513 219.068 103.035C217.587 101.557 215.537 100.792 213.45 100.939C211.362 101.086 209.441 102.13 208.181 103.801C206.921 105.472 206.447 107.607 206.88 109.654C206.987 110.109 206.848 110.587 206.514 110.914C206.259 111.171 205.912 111.315 205.55 111.315C205.188 111.315 204.841 111.171 204.586 110.914L196.532 102.784C195.549 101.788 194.207 101.226 192.808 101.226C191.407 101.226 190.065 101.788 189.083 102.784L186.436 105.545C188.094 106.548 189.504 107.914 190.558 109.54L190.558 109.54Z" fill="#01A796"/>
<path d="M139.234 177.276C137.187 176.842 135.052 177.317 133.381 178.577C131.71 179.837 130.666 181.759 130.519 183.846C130.372 185.933 131.137 187.982 132.615 189.464C134.093 190.945 136.14 191.714 138.228 191.572C140.316 191.43 142.239 190.391 143.503 188.722C144.767 187.054 145.246 184.92 144.817 182.872C144.713 182.417 144.852 181.94 145.183 181.612C145.439 181.355 145.785 181.211 146.148 181.211C146.509 181.211 146.856 181.355 147.112 181.612L155.129 189.628L155.128 189.627C156.109 190.609 157.44 191.161 158.827 191.161C160.215 191.161 161.546 190.609 162.526 189.627L170.543 181.611V181.612C170.798 181.355 171.145 181.211 171.507 181.211C171.868 181.211 172.216 181.355 172.472 181.612C172.803 181.94 172.941 182.417 172.836 182.872C172.408 184.92 172.887 187.054 174.151 188.722C175.414 190.391 177.339 191.43 179.427 191.572C181.514 191.714 183.562 190.945 185.04 189.464C186.518 187.982 187.281 185.933 187.135 183.846C186.988 181.759 185.944 179.837 184.273 178.577C182.602 177.317 180.468 176.842 178.42 177.276C177.965 177.383 177.487 177.244 177.16 176.91C176.904 176.655 176.759 176.308 176.759 175.946C176.759 175.584 176.904 175.238 177.16 174.982L185.302 166.953C186.299 165.97 186.86 164.629 186.86 163.229C186.86 161.828 186.299 160.487 185.302 159.504L182.542 156.857C181.539 158.515 180.172 159.925 178.547 160.979C176.518 162.299 174.148 163.002 171.728 163.002C169.306 163.002 166.938 162.299 164.909 160.979C161.235 158.624 159.04 154.537 159.107 150.174C159.174 145.811 161.492 141.792 165.237 139.552L162.526 136.817C161.546 135.835 160.215 135.284 158.827 135.284C157.44 135.284 156.109 135.835 155.127 136.817L147.112 144.87C146.856 145.127 146.509 145.271 146.147 145.271C145.785 145.271 145.439 145.127 145.183 144.87C144.852 144.543 144.713 144.065 144.817 143.611C145.246 141.562 144.767 139.428 143.503 137.76C142.239 136.092 140.316 135.053 138.228 134.91C136.14 134.769 134.093 135.537 132.615 137.018C131.137 138.5 130.372 140.549 130.519 142.636C130.666 144.724 131.71 146.645 133.381 147.905C135.052 149.165 137.187 149.64 139.234 149.207C139.689 149.099 140.167 149.238 140.494 149.572C140.751 149.827 140.895 150.175 140.895 150.536C140.895 150.898 140.751 151.245 140.494 151.5L132.364 159.504C131.383 160.485 130.832 161.816 130.832 163.203C130.832 164.591 131.383 165.922 132.364 166.903L140.381 174.92V174.919C140.637 175.175 140.781 175.521 140.781 175.883C140.781 176.245 140.637 176.592 140.381 176.848C140.091 177.168 139.663 177.327 139.234 177.276L139.234 177.276Z" fill="#9688BF"/>
</svg>
