<svg width="279" height="254" viewBox="0 0 279 254" fill="none" xmlns="http://www.w3.org/2000/svg">
<path d="M37.1771 190.238C0.179497 119.498 42.0102 103.661 79.3146 63.3804C110.026 30.2183 115.134 -2.22253 182.051 3.70529C223.123 7.34367 225.774 44.9273 239.8 83.8548C253.925 123.059 284.992 158.217 258.4 190.238C233.205 220.577 200.689 218.553 161.569 214.345C128.504 210.788 80.9012 273.838 37.1771 190.238Z" stroke="#01A796" stroke-opacity="0.2" stroke-width="6"/>
<path fillRule="evenodd" clipRule="evenodd" d="M194.88 253.857C213.964 253.857 229.434 238.387 229.434 219.304C229.434 200.221 213.964 184.75 194.88 184.75C175.797 184.75 160.327 200.221 160.327 219.304C160.327 238.387 175.797 253.857 194.88 253.857ZM194.88 240.036C206.33 240.036 215.612 230.754 215.612 219.304C215.612 207.854 206.33 198.572 194.88 198.572C183.43 198.572 174.148 207.854 174.148 219.304C174.148 230.754 183.43 240.036 194.88 240.036Z" fill="#01A796" fill-opacity="0.1"/>
<path fillRule="evenodd" clipRule="evenodd" d="M13.8213 119.099C21.4547 119.099 27.6427 112.911 27.6427 105.278C27.6427 97.6446 21.4547 91.4565 13.8213 91.4565C6.18802 91.4565 0 97.6446 0 105.278C0 112.911 6.18802 119.099 13.8213 119.099ZM13.8213 113.571C18.4013 113.571 22.1142 109.858 22.1142 105.278C22.1142 100.698 18.4013 96.9851 13.8213 96.9851C9.24136 96.9851 5.52855 100.698 5.52855 105.278C5.52855 109.858 9.24136 113.571 13.8213 113.571Z" fill="#01A796" fill-opacity="0.1"/>
<path d="M237.036 36.1713C237.036 47.6214 246.318 56.9033 257.768 56.9033C269.218 56.9033 278.5 47.6214 278.5 36.1713C278.5 24.7212 269.218 15.4393 257.768 15.4393C246.318 15.4393 237.036 24.7212 237.036 36.1713Z" fill="#01A796" fill-opacity="0.1"/>
<path d="M90.4038 32.7158C69.3325 32.7172 46.8081 45.3468 35.0177 66.6604C10.9999 110.078 85.3857 219.901 152.485 223.358C214.945 226.575 300.964 145.208 256.602 77.7137C232.109 40.4488 196.872 45.3479 149.36 39.4275C125.074 36.4011 127.737 32.7135 90.4038 32.7158Z" fill="#F2F8F8"/>
<path d="M202.771 116.247L196.003 122.923L178.981 139.689H155.243V126.92H136.856V67.4256C136.847 66.063 137.314 64.7399 138.178 63.6841C139.043 62.6285 140.249 61.907 141.589 61.6443C143.188 61.3398 144.839 61.7625 146.095 62.7968C147.35 63.8311 148.077 65.3693 148.079 66.9939V72.2728H146.246C145.391 72.2728 144.572 72.6118 143.967 73.2143C143.363 73.8176 143.023 74.6352 143.023 75.488V91.3363C143.023 92.1891 143.363 93.0067 143.967 93.61C144.572 94.2125 145.391 94.5515 146.246 94.5515H148.545C148.951 97.4155 151.032 100.289 152.551 102.392C152.784 102.713 153.001 103.009 153.184 103.276C153.652 103.948 154.12 104.62 154.585 105.293C157.741 109.842 161.006 114.545 164.445 119.025L164.587 119.213C166.898 122.219 168.348 124.29 167.894 126.969H159.627V135.316L177.183 135.317L192.923 119.811L195.901 116.878L196.382 116.404C196.164 116.209 195.935 116.025 195.698 115.854C194.103 114.704 192.156 114.143 190.191 114.267C188.227 114.392 186.367 115.194 184.93 116.537L184.565 116.878L173.765 126.97H171.965C172.395 122.763 169.964 119.598 167.789 116.766L167.646 116.581C164.265 112.178 161.031 107.514 157.901 103.003C157.433 102.33 156.966 101.656 156.498 100.983C156.3 100.7 156.07 100.381 155.821 100.037C154.872 98.7281 153.168 96.3699 152.656 94.5524H154.73L154.731 94.5516C155.586 94.5516 156.405 94.2125 157.01 93.61C157.614 93.0067 157.954 92.1891 157.954 91.3363V75.4881C157.954 74.6352 157.614 73.8177 157.01 73.2144C156.405 72.6119 155.586 72.2729 154.731 72.2729H152.638V67.1409C152.636 64.4723 151.582 61.912 149.703 60.0142C147.823 58.1164 145.27 57.0336 142.596 57C139.863 57.0099 137.246 58.0983 135.316 60.0281C133.386 61.9579 132.301 64.5723 132.298 67.2976V126.92H121.888V125.16C121.888 122.864 120.66 120.742 118.666 119.593C116.673 118.445 114.216 118.445 112.222 119.593C110.228 120.742 109 122.864 109 125.16V171H121.887L121.888 152.895H197.367L197.366 171H210.254L210.255 113.483L202.771 116.247ZM128.657 141.103H125.1V144.653C125.1 145.74 124.217 146.622 123.127 146.622C122.038 146.622 121.155 145.74 121.155 144.653V141.103H117.596C116.506 141.103 115.624 140.222 115.624 139.136C115.624 138.05 116.506 137.169 117.596 137.169H121.155V133.618C121.157 132.533 122.039 131.654 123.127 131.654C124.215 131.654 125.098 132.533 125.1 133.618V137.169H128.658C129.747 137.169 130.63 138.05 130.63 139.136C130.63 140.223 129.746 141.103 128.657 141.103Z" fill="#01A796"/>
<path d="M173.5 127H159.5V135.5H177C181 131.5 190.9 122.1 196.5 116.5C193.3 112.1 188 114 186 115.5L173.5 127Z" fill="#382768"/>
<path d="M202.12 104.796C202.12 108.902 198.791 112.23 194.685 112.23C190.578 112.23 187.25 108.902 187.25 104.796C187.25 100.689 190.578 97.3604 194.685 97.3604C198.791 97.3604 202.12 100.689 202.12 104.796Z" fill="#382768"/>
<rect x="143" y="72" width="15" height="23" rx="3" fill="#EB7B7B"/>
<rect x="143" y="72" width="15" height="23" rx="3" fill="#EB7B7B"/>
</svg>
