<svg width="12" height="12" viewBox="0 0 12 12" fill="none" xmlns="http://www.w3.org/2000/svg">
<path d="M11.1702 4.82369C11.0161 4.72027 10.877 4.59622 10.7567 4.45497C10.7657 4.2583 10.8052 4.06424 10.8739 3.87978C11.0031 3.44253 11.1639 2.89836 10.8539 2.47255C10.5417 2.04336 9.97123 2.02895 9.51296 2.01724C9.32017 2.02493 9.12733 2.00421 8.94058 1.9557C8.83791 1.79465 8.75951 1.61936 8.70792 1.43545C8.55501 0.999978 8.36452 0.457973 7.85439 0.292193C7.35939 0.131314 6.91516 0.43697 6.52346 0.705758C6.36605 0.831442 6.18932 0.930788 6.00014 0.999958C5.81085 0.930867 5.63403 0.831501 5.4766 0.705758C5.08488 0.436734 4.64053 0.132042 4.14565 0.292193C3.63565 0.457973 3.44523 0.999702 3.29214 1.43527C3.24065 1.61826 3.16311 1.7929 3.06192 1.95381C2.87458 2.00379 2.68077 2.02511 2.48706 2.01706C2.02881 2.02875 1.45838 2.04318 1.14613 2.47236C0.836126 2.8984 0.996965 3.44257 1.12613 3.87985C1.19404 4.06335 1.23392 4.25602 1.24442 4.45141C1.12466 4.59465 0.985017 4.72004 0.829748 4.82371C0.46 5.10569 0 5.45674 0 5.99996C0 6.54319 0.46 6.89423 0.829827 7.17623C0.983856 7.27965 1.12298 7.4037 1.24327 7.54495C1.23434 7.74162 1.19481 7.93567 1.12609 8.12015C0.996946 8.55739 0.836086 9.1016 1.14609 9.52737C1.45834 9.95656 2.02877 9.97097 2.48704 9.98271C2.67983 9.97501 2.87267 9.99574 3.05942 10.0442C3.16209 10.2053 3.24049 10.3806 3.29208 10.5645C3.44517 11 3.63559 11.542 4.14571 11.7078C4.23608 11.7374 4.3306 11.7525 4.42572 11.7525C4.80964 11.7525 5.16021 11.5115 5.47664 11.2942C5.63405 11.1685 5.81078 11.0692 5.99998 11C6.18926 11.0691 6.36609 11.1684 6.52356 11.2942C6.91526 11.5632 7.35949 11.8676 7.85449 11.7077C8.36449 11.5419 8.55491 11.0002 8.70799 10.5646C8.75949 10.3817 8.83702 10.207 8.93822 10.0461C9.12556 9.99613 9.31937 9.97481 9.51308 9.98286C9.97133 9.97117 10.5418 9.95674 10.854 9.52757C11.164 9.10154 11.0032 8.55733 10.874 8.12007C10.8061 7.93657 10.7662 7.7439 10.7557 7.54852C10.8755 7.40528 11.0151 7.27989 11.1704 7.17621C11.54 6.89423 12 6.54319 12 5.99996C12 5.45674 11.54 5.10569 11.1702 4.82369ZM8.22853 5.10348L5.72852 7.60348C5.53333 7.79872 5.21682 7.79878 5.02158 7.60359C5.02154 7.60355 5.0215 7.60352 5.02146 7.60348L3.77145 6.35347C3.57373 6.1607 3.56971 5.84414 3.76248 5.64641C3.95524 5.44869 4.27181 5.44467 4.46953 5.63744C4.47257 5.64039 4.47556 5.64338 4.47851 5.64641L5.37499 6.54291L7.52147 4.39641C7.71424 4.19868 8.0308 4.19468 8.22853 4.38745C8.42625 4.58022 8.43025 4.89678 8.23748 5.09451C8.23453 5.09756 8.23154 5.10053 8.22853 5.10348Z" fill="#01A796"/>
</svg>
